G75*
%MOIN*%
%OFA0B0*%
%FSLAX25Y25*%
%IPPOS*%
%LPD*%
%AMOC8*
5,1,8,0,0,1.08239X$1,22.5*
%
%ADD10C,0.10800*%
%ADD11C,0.08200*%
%ADD12C,0.10249*%
%ADD13C,0.06737*%
%ADD14C,0.13398*%
%ADD15C,0.09400*%
D10*
X0443333Y0016548D03*
X0623333Y0016548D03*
X0623333Y0086548D03*
X0443333Y0086548D03*
D11*
X0498333Y0091548D03*
X0508333Y0091548D03*
X0518333Y0091548D03*
X0528333Y0091548D03*
X0538333Y0091548D03*
X0548333Y0091548D03*
X0558333Y0091548D03*
X0568333Y0091548D03*
X0578333Y0091548D03*
X0588333Y0091548D03*
X0598333Y0091548D03*
X0608333Y0091548D03*
X0589652Y0069048D03*
X0599652Y0064048D03*
X0589652Y0059048D03*
X0599652Y0054048D03*
X0589652Y0049048D03*
X0599652Y0044048D03*
X0589652Y0039048D03*
X0599652Y0034048D03*
X0563333Y0026548D03*
X0553333Y0026548D03*
X0543333Y0026548D03*
X0533333Y0026548D03*
X0523333Y0026548D03*
X0513333Y0026548D03*
X0503333Y0026548D03*
X0478333Y0026548D03*
X0468333Y0026548D03*
X0458333Y0026548D03*
X0458333Y0011548D03*
X0468333Y0011548D03*
X0478333Y0011548D03*
X0488333Y0011548D03*
X0498333Y0011548D03*
X0508333Y0011548D03*
X0518333Y0011548D03*
X0528333Y0011548D03*
X0538333Y0011548D03*
X0548333Y0011548D03*
X0558333Y0011548D03*
X0568333Y0011548D03*
X0578333Y0011548D03*
X0588333Y0011548D03*
X0598333Y0011548D03*
X0608333Y0011548D03*
X0443333Y0051548D03*
X0443333Y0061548D03*
X0443333Y0071548D03*
D12*
X0612822Y0081390D03*
X0612822Y0021548D03*
D13*
X0640381Y0025485D03*
X0640381Y0035327D03*
X0640381Y0067611D03*
X0640381Y0077453D03*
D14*
X0624652Y0074048D03*
X0624652Y0029048D03*
D15*
X0480026Y0091548D03*
X0466247Y0091548D03*
M02*
