%
M48
M72
T01C0.03937
T02C0.04000
T03C0.06299
T04C0.10000
T05C0.12598
%
T01
X466247Y91548
X480026Y91548
X589652Y69048
X599652Y64048
X589652Y59048
X599652Y54048
X589652Y49048
X599652Y44048
X589652Y39048
X599652Y34048
X640381Y35327
X640381Y25485
X640381Y67611
X640381Y77453
T02
X608333Y91548
X598333Y91548
X588333Y91548
X578333Y91548
X568333Y91548
X558333Y91548
X548333Y91548
X538333Y91548
X528333Y91548
X518333Y91548
X508333Y91548
X498333Y91548
X443333Y71548
X443333Y61548
X443333Y51548
X458333Y26548
X468333Y26548
X478333Y26548
X503333Y26548
X513333Y26548
X523333Y26548
X533333Y26548
X543333Y26548
X553333Y26548
X563333Y26548
X558333Y11548
X548333Y11548
X538333Y11548
X528333Y11548
X518333Y11548
X508333Y11548
X498333Y11548
X488333Y11548
X478333Y11548
X468333Y11548
X458333Y11548
X568333Y11548
X578333Y11548
X588333Y11548
X598333Y11548
X608333Y11548
T03
X612822Y21548
X612822Y81390
T04
X443333Y16548
X623333Y16548
X623333Y86548
X443333Y86548
T05
X624652Y74048
X624652Y29048
M30
