G75*
%MOIN*%
%OFA0B0*%
%FSLAX25Y25*%
%IPPOS*%
%LPD*%
%AMOC8*
5,1,8,0,0,1.08239X$1,22.5*
%
%ADD10C,0.10500*%
%ADD11C,0.07900*%
%ADD12C,0.06996*%
%ADD13C,0.05224*%
%ADD14C,0.02878*%
%ADD15C,0.02500*%
D10*
X0443333Y0038933D03*
X0623333Y0038933D03*
X0623333Y0108933D03*
X0443333Y0108933D03*
D11*
X0498333Y0113933D03*
X0508333Y0113933D03*
X0518333Y0113933D03*
X0528333Y0113933D03*
X0538333Y0113933D03*
X0548333Y0113933D03*
X0558333Y0113933D03*
X0568333Y0113933D03*
X0578333Y0113933D03*
X0588333Y0113933D03*
X0598333Y0113933D03*
X0608333Y0113933D03*
X0611333Y0053933D03*
X0601333Y0053933D03*
X0591333Y0053933D03*
X0581333Y0053933D03*
X0571333Y0053933D03*
X0561333Y0053933D03*
X0551333Y0053933D03*
X0515833Y0053933D03*
X0505833Y0053933D03*
X0495833Y0053933D03*
X0485833Y0053933D03*
X0475833Y0053933D03*
X0465833Y0053933D03*
X0455833Y0053933D03*
X0445833Y0053933D03*
X0458333Y0033933D03*
X0468333Y0033933D03*
X0478333Y0033933D03*
X0488333Y0033933D03*
X0498333Y0033933D03*
X0508333Y0033933D03*
X0518333Y0033933D03*
X0528333Y0033933D03*
X0538333Y0033933D03*
X0548333Y0033933D03*
X0558333Y0033933D03*
X0568333Y0033933D03*
X0578333Y0033933D03*
X0588333Y0033933D03*
X0598333Y0033933D03*
X0608333Y0033933D03*
X0621333Y0053933D03*
D12*
X0643274Y0054248D02*
X0649770Y0054248D01*
X0649770Y0064091D02*
X0643274Y0064091D01*
X0666207Y0070685D02*
X0666207Y0077181D01*
X0649770Y0083776D02*
X0643274Y0083776D01*
X0643274Y0093618D02*
X0649770Y0093618D01*
D13*
X0666207Y0093618D03*
X0676050Y0093618D03*
X0646522Y0073933D03*
X0666207Y0054248D03*
X0676050Y0054248D03*
D14*
X0577307Y0043937D03*
X0563333Y0093933D03*
D15*
X0570833Y0076433D03*
M02*
