G75*
%MOIN*%
%OFA0B0*%
%FSLAX25Y25*%
%IPPOS*%
%LPD*%
%AMOC8*
5,1,8,0,0,1.08239X$1,22.5*
%
%ADD10C,0.00600*%
%ADD11C,0.00300*%
%ADD12C,0.00000*%
D10*
X0016728Y0013933D02*
X0046728Y0013933D01*
X0046728Y0023933D01*
X0041728Y0023933D01*
X0041728Y0033933D02*
X0041728Y0378933D01*
X0031728Y0393933D01*
X0021728Y0378933D01*
X0021728Y0033933D01*
X0021728Y0023933D02*
X0016728Y0023933D01*
X0016728Y0013933D01*
X0021728Y0023933D02*
X0021730Y0024073D01*
X0021736Y0024213D01*
X0021746Y0024353D01*
X0021759Y0024493D01*
X0021777Y0024632D01*
X0021799Y0024771D01*
X0021824Y0024908D01*
X0021853Y0025046D01*
X0021886Y0025182D01*
X0021923Y0025317D01*
X0021964Y0025451D01*
X0022009Y0025584D01*
X0022057Y0025716D01*
X0022109Y0025846D01*
X0022164Y0025975D01*
X0022223Y0026102D01*
X0022286Y0026228D01*
X0022352Y0026352D01*
X0022421Y0026473D01*
X0022494Y0026593D01*
X0022571Y0026711D01*
X0022650Y0026826D01*
X0022733Y0026940D01*
X0022819Y0027050D01*
X0022908Y0027159D01*
X0023000Y0027265D01*
X0023095Y0027368D01*
X0023192Y0027469D01*
X0023293Y0027566D01*
X0023396Y0027661D01*
X0023502Y0027753D01*
X0023611Y0027842D01*
X0023721Y0027928D01*
X0023835Y0028011D01*
X0023950Y0028090D01*
X0024068Y0028167D01*
X0024188Y0028240D01*
X0024309Y0028309D01*
X0024433Y0028375D01*
X0024559Y0028438D01*
X0024686Y0028497D01*
X0024815Y0028552D01*
X0024945Y0028604D01*
X0025077Y0028652D01*
X0025210Y0028697D01*
X0025344Y0028738D01*
X0025479Y0028775D01*
X0025615Y0028808D01*
X0025753Y0028837D01*
X0025890Y0028862D01*
X0026029Y0028884D01*
X0026168Y0028902D01*
X0026308Y0028915D01*
X0026448Y0028925D01*
X0026588Y0028931D01*
X0026728Y0028933D01*
X0036728Y0028933D01*
X0036868Y0028931D01*
X0037008Y0028925D01*
X0037148Y0028915D01*
X0037288Y0028902D01*
X0037427Y0028884D01*
X0037566Y0028862D01*
X0037703Y0028837D01*
X0037841Y0028808D01*
X0037977Y0028775D01*
X0038112Y0028738D01*
X0038246Y0028697D01*
X0038379Y0028652D01*
X0038511Y0028604D01*
X0038641Y0028552D01*
X0038770Y0028497D01*
X0038897Y0028438D01*
X0039023Y0028375D01*
X0039147Y0028309D01*
X0039268Y0028240D01*
X0039388Y0028167D01*
X0039506Y0028090D01*
X0039621Y0028011D01*
X0039735Y0027928D01*
X0039845Y0027842D01*
X0039954Y0027753D01*
X0040060Y0027661D01*
X0040163Y0027566D01*
X0040264Y0027469D01*
X0040361Y0027368D01*
X0040456Y0027265D01*
X0040548Y0027159D01*
X0040637Y0027050D01*
X0040723Y0026940D01*
X0040806Y0026826D01*
X0040885Y0026711D01*
X0040962Y0026593D01*
X0041035Y0026473D01*
X0041104Y0026352D01*
X0041170Y0026228D01*
X0041233Y0026102D01*
X0041292Y0025975D01*
X0041347Y0025846D01*
X0041399Y0025716D01*
X0041447Y0025584D01*
X0041492Y0025451D01*
X0041533Y0025317D01*
X0041570Y0025182D01*
X0041603Y0025046D01*
X0041632Y0024908D01*
X0041657Y0024771D01*
X0041679Y0024632D01*
X0041697Y0024493D01*
X0041710Y0024353D01*
X0041720Y0024213D01*
X0041726Y0024073D01*
X0041728Y0023933D01*
X0036728Y0028933D02*
X0036868Y0028935D01*
X0037008Y0028941D01*
X0037148Y0028951D01*
X0037288Y0028964D01*
X0037427Y0028982D01*
X0037566Y0029004D01*
X0037703Y0029029D01*
X0037841Y0029058D01*
X0037977Y0029091D01*
X0038112Y0029128D01*
X0038246Y0029169D01*
X0038379Y0029214D01*
X0038511Y0029262D01*
X0038641Y0029314D01*
X0038770Y0029369D01*
X0038897Y0029428D01*
X0039023Y0029491D01*
X0039147Y0029557D01*
X0039268Y0029626D01*
X0039388Y0029699D01*
X0039506Y0029776D01*
X0039621Y0029855D01*
X0039735Y0029938D01*
X0039845Y0030024D01*
X0039954Y0030113D01*
X0040060Y0030205D01*
X0040163Y0030300D01*
X0040264Y0030397D01*
X0040361Y0030498D01*
X0040456Y0030601D01*
X0040548Y0030707D01*
X0040637Y0030816D01*
X0040723Y0030926D01*
X0040806Y0031040D01*
X0040885Y0031155D01*
X0040962Y0031273D01*
X0041035Y0031393D01*
X0041104Y0031514D01*
X0041170Y0031638D01*
X0041233Y0031764D01*
X0041292Y0031891D01*
X0041347Y0032020D01*
X0041399Y0032150D01*
X0041447Y0032282D01*
X0041492Y0032415D01*
X0041533Y0032549D01*
X0041570Y0032684D01*
X0041603Y0032820D01*
X0041632Y0032958D01*
X0041657Y0033095D01*
X0041679Y0033234D01*
X0041697Y0033373D01*
X0041710Y0033513D01*
X0041720Y0033653D01*
X0041726Y0033793D01*
X0041728Y0033933D01*
X0026728Y0028933D02*
X0026588Y0028935D01*
X0026448Y0028941D01*
X0026308Y0028951D01*
X0026168Y0028964D01*
X0026029Y0028982D01*
X0025890Y0029004D01*
X0025753Y0029029D01*
X0025615Y0029058D01*
X0025479Y0029091D01*
X0025344Y0029128D01*
X0025210Y0029169D01*
X0025077Y0029214D01*
X0024945Y0029262D01*
X0024815Y0029314D01*
X0024686Y0029369D01*
X0024559Y0029428D01*
X0024433Y0029491D01*
X0024309Y0029557D01*
X0024188Y0029626D01*
X0024068Y0029699D01*
X0023950Y0029776D01*
X0023835Y0029855D01*
X0023721Y0029938D01*
X0023611Y0030024D01*
X0023502Y0030113D01*
X0023396Y0030205D01*
X0023293Y0030300D01*
X0023192Y0030397D01*
X0023095Y0030498D01*
X0023000Y0030601D01*
X0022908Y0030707D01*
X0022819Y0030816D01*
X0022733Y0030926D01*
X0022650Y0031040D01*
X0022571Y0031155D01*
X0022494Y0031273D01*
X0022421Y0031393D01*
X0022352Y0031514D01*
X0022286Y0031638D01*
X0022223Y0031764D01*
X0022164Y0031891D01*
X0022109Y0032020D01*
X0022057Y0032150D01*
X0022009Y0032282D01*
X0021964Y0032415D01*
X0021923Y0032549D01*
X0021886Y0032684D01*
X0021853Y0032820D01*
X0021824Y0032958D01*
X0021799Y0033095D01*
X0021777Y0033234D01*
X0021759Y0033373D01*
X0021746Y0033513D01*
X0021736Y0033653D01*
X0021730Y0033793D01*
X0021728Y0033933D01*
D11*
X0025660Y0049083D02*
X0025821Y0049083D01*
X0025863Y0049085D01*
X0025905Y0049090D01*
X0025946Y0049099D01*
X0025986Y0049112D01*
X0026025Y0049128D01*
X0026063Y0049148D01*
X0026098Y0049170D01*
X0026131Y0049196D01*
X0026163Y0049224D01*
X0026191Y0049256D01*
X0026217Y0049289D01*
X0026239Y0049325D01*
X0026259Y0049362D01*
X0026275Y0049401D01*
X0026288Y0049441D01*
X0026297Y0049482D01*
X0026302Y0049524D01*
X0026304Y0049566D01*
X0026304Y0051983D01*
X0026626Y0051016D02*
X0025660Y0051016D01*
X0025815Y0059083D02*
X0025009Y0059083D01*
X0025009Y0061983D01*
X0025009Y0061016D02*
X0025815Y0061016D01*
X0025857Y0061014D01*
X0025899Y0061009D01*
X0025940Y0061000D01*
X0025980Y0060987D01*
X0026019Y0060971D01*
X0026057Y0060951D01*
X0026092Y0060929D01*
X0026125Y0060903D01*
X0026157Y0060875D01*
X0026185Y0060843D01*
X0026211Y0060810D01*
X0026233Y0060775D01*
X0026253Y0060737D01*
X0026269Y0060698D01*
X0026282Y0060658D01*
X0026291Y0060617D01*
X0026296Y0060575D01*
X0026298Y0060533D01*
X0026298Y0059566D01*
X0026296Y0059524D01*
X0026291Y0059482D01*
X0026282Y0059441D01*
X0026269Y0059401D01*
X0026253Y0059362D01*
X0026233Y0059325D01*
X0026211Y0059289D01*
X0026185Y0059256D01*
X0026157Y0059224D01*
X0026125Y0059196D01*
X0026092Y0059170D01*
X0026057Y0059148D01*
X0026019Y0059128D01*
X0025980Y0059112D01*
X0025940Y0059099D01*
X0025899Y0059090D01*
X0025857Y0059085D01*
X0025815Y0059083D01*
X0027585Y0059083D02*
X0027585Y0060533D01*
X0027586Y0060533D02*
X0027588Y0060575D01*
X0027593Y0060617D01*
X0027602Y0060658D01*
X0027615Y0060698D01*
X0027631Y0060737D01*
X0027651Y0060775D01*
X0027673Y0060810D01*
X0027699Y0060843D01*
X0027727Y0060875D01*
X0027759Y0060903D01*
X0027792Y0060929D01*
X0027828Y0060951D01*
X0027865Y0060971D01*
X0027904Y0060987D01*
X0027944Y0061000D01*
X0027985Y0061009D01*
X0028027Y0061014D01*
X0028069Y0061016D01*
X0028874Y0061016D01*
X0028874Y0059083D01*
X0030289Y0059083D02*
X0031095Y0059083D01*
X0031137Y0059085D01*
X0031179Y0059090D01*
X0031220Y0059099D01*
X0031260Y0059112D01*
X0031299Y0059128D01*
X0031337Y0059148D01*
X0031372Y0059170D01*
X0031405Y0059196D01*
X0031437Y0059224D01*
X0031465Y0059256D01*
X0031491Y0059289D01*
X0031513Y0059325D01*
X0031533Y0059362D01*
X0031549Y0059401D01*
X0031562Y0059441D01*
X0031571Y0059482D01*
X0031576Y0059524D01*
X0031578Y0059566D01*
X0031578Y0060533D01*
X0031576Y0060575D01*
X0031571Y0060617D01*
X0031562Y0060658D01*
X0031549Y0060698D01*
X0031533Y0060737D01*
X0031513Y0060775D01*
X0031491Y0060810D01*
X0031465Y0060843D01*
X0031437Y0060875D01*
X0031405Y0060903D01*
X0031372Y0060929D01*
X0031337Y0060951D01*
X0031299Y0060971D01*
X0031260Y0060987D01*
X0031220Y0061000D01*
X0031179Y0061009D01*
X0031137Y0061014D01*
X0031095Y0061016D01*
X0030289Y0061016D01*
X0030289Y0058600D01*
X0030290Y0058600D02*
X0030292Y0058558D01*
X0030297Y0058516D01*
X0030306Y0058475D01*
X0030319Y0058435D01*
X0030335Y0058396D01*
X0030355Y0058359D01*
X0030377Y0058323D01*
X0030403Y0058290D01*
X0030431Y0058258D01*
X0030463Y0058230D01*
X0030496Y0058204D01*
X0030532Y0058182D01*
X0030569Y0058162D01*
X0030608Y0058146D01*
X0030648Y0058133D01*
X0030689Y0058124D01*
X0030731Y0058119D01*
X0030773Y0058117D01*
X0030773Y0058116D02*
X0031417Y0058116D01*
X0030289Y0051983D02*
X0030289Y0049083D01*
X0031095Y0049083D01*
X0031137Y0049085D01*
X0031179Y0049090D01*
X0031220Y0049099D01*
X0031260Y0049112D01*
X0031299Y0049128D01*
X0031337Y0049148D01*
X0031372Y0049170D01*
X0031405Y0049196D01*
X0031437Y0049224D01*
X0031465Y0049256D01*
X0031491Y0049289D01*
X0031513Y0049325D01*
X0031533Y0049362D01*
X0031549Y0049401D01*
X0031562Y0049441D01*
X0031571Y0049482D01*
X0031576Y0049524D01*
X0031578Y0049566D01*
X0031578Y0050533D01*
X0031576Y0050575D01*
X0031571Y0050617D01*
X0031562Y0050658D01*
X0031549Y0050698D01*
X0031533Y0050737D01*
X0031513Y0050775D01*
X0031491Y0050810D01*
X0031465Y0050843D01*
X0031437Y0050875D01*
X0031405Y0050903D01*
X0031372Y0050929D01*
X0031337Y0050951D01*
X0031299Y0050971D01*
X0031260Y0050987D01*
X0031220Y0051000D01*
X0031179Y0051009D01*
X0031137Y0051014D01*
X0031095Y0051016D01*
X0030289Y0051016D01*
X0028825Y0051016D02*
X0028181Y0051016D01*
X0028139Y0051014D01*
X0028097Y0051009D01*
X0028056Y0051000D01*
X0028016Y0050987D01*
X0027977Y0050971D01*
X0027940Y0050951D01*
X0027904Y0050929D01*
X0027871Y0050903D01*
X0027839Y0050875D01*
X0027811Y0050843D01*
X0027785Y0050810D01*
X0027763Y0050775D01*
X0027743Y0050737D01*
X0027727Y0050698D01*
X0027714Y0050658D01*
X0027705Y0050617D01*
X0027700Y0050575D01*
X0027698Y0050533D01*
X0027697Y0050533D02*
X0027697Y0049083D01*
X0028422Y0049083D01*
X0028469Y0049085D01*
X0028515Y0049091D01*
X0028560Y0049100D01*
X0028605Y0049114D01*
X0028649Y0049131D01*
X0028690Y0049151D01*
X0028730Y0049175D01*
X0028768Y0049202D01*
X0028804Y0049232D01*
X0028837Y0049265D01*
X0028867Y0049301D01*
X0028894Y0049339D01*
X0028918Y0049379D01*
X0028938Y0049420D01*
X0028955Y0049464D01*
X0028969Y0049509D01*
X0028978Y0049554D01*
X0028984Y0049600D01*
X0028986Y0049647D01*
X0028984Y0049694D01*
X0028978Y0049740D01*
X0028969Y0049785D01*
X0028955Y0049830D01*
X0028938Y0049874D01*
X0028918Y0049915D01*
X0028894Y0049955D01*
X0028867Y0049993D01*
X0028837Y0050029D01*
X0028804Y0050062D01*
X0028768Y0050092D01*
X0028730Y0050119D01*
X0028690Y0050143D01*
X0028649Y0050163D01*
X0028605Y0050180D01*
X0028560Y0050194D01*
X0028515Y0050203D01*
X0028469Y0050209D01*
X0028422Y0050211D01*
X0027697Y0050211D01*
X0030773Y0078116D02*
X0031417Y0078116D01*
X0030773Y0078117D02*
X0030731Y0078119D01*
X0030689Y0078124D01*
X0030648Y0078133D01*
X0030608Y0078146D01*
X0030569Y0078162D01*
X0030532Y0078182D01*
X0030496Y0078204D01*
X0030463Y0078230D01*
X0030431Y0078258D01*
X0030403Y0078290D01*
X0030377Y0078323D01*
X0030355Y0078359D01*
X0030335Y0078396D01*
X0030319Y0078435D01*
X0030306Y0078475D01*
X0030297Y0078516D01*
X0030292Y0078558D01*
X0030290Y0078600D01*
X0030289Y0078600D02*
X0030289Y0081016D01*
X0031095Y0081016D01*
X0031137Y0081014D01*
X0031179Y0081009D01*
X0031220Y0081000D01*
X0031260Y0080987D01*
X0031299Y0080971D01*
X0031337Y0080951D01*
X0031372Y0080929D01*
X0031405Y0080903D01*
X0031437Y0080875D01*
X0031465Y0080843D01*
X0031491Y0080810D01*
X0031513Y0080775D01*
X0031533Y0080737D01*
X0031549Y0080698D01*
X0031562Y0080658D01*
X0031571Y0080617D01*
X0031576Y0080575D01*
X0031578Y0080533D01*
X0031578Y0079566D01*
X0031576Y0079524D01*
X0031571Y0079482D01*
X0031562Y0079441D01*
X0031549Y0079401D01*
X0031533Y0079362D01*
X0031513Y0079325D01*
X0031491Y0079289D01*
X0031465Y0079256D01*
X0031437Y0079224D01*
X0031405Y0079196D01*
X0031372Y0079170D01*
X0031337Y0079148D01*
X0031299Y0079128D01*
X0031260Y0079112D01*
X0031220Y0079099D01*
X0031179Y0079090D01*
X0031137Y0079085D01*
X0031095Y0079083D01*
X0030289Y0079083D01*
X0028874Y0079083D02*
X0028874Y0081016D01*
X0028069Y0081016D01*
X0028027Y0081014D01*
X0027985Y0081009D01*
X0027944Y0081000D01*
X0027904Y0080987D01*
X0027865Y0080971D01*
X0027828Y0080951D01*
X0027792Y0080929D01*
X0027759Y0080903D01*
X0027727Y0080875D01*
X0027699Y0080843D01*
X0027673Y0080810D01*
X0027651Y0080775D01*
X0027631Y0080737D01*
X0027615Y0080698D01*
X0027602Y0080658D01*
X0027593Y0080617D01*
X0027588Y0080575D01*
X0027586Y0080533D01*
X0027585Y0080533D02*
X0027585Y0079083D01*
X0026298Y0079566D02*
X0026298Y0080533D01*
X0026296Y0080575D01*
X0026291Y0080617D01*
X0026282Y0080658D01*
X0026269Y0080698D01*
X0026253Y0080737D01*
X0026233Y0080775D01*
X0026211Y0080810D01*
X0026185Y0080843D01*
X0026157Y0080875D01*
X0026125Y0080903D01*
X0026092Y0080929D01*
X0026057Y0080951D01*
X0026019Y0080971D01*
X0025980Y0080987D01*
X0025940Y0081000D01*
X0025899Y0081009D01*
X0025857Y0081014D01*
X0025815Y0081016D01*
X0025009Y0081016D01*
X0025009Y0081983D02*
X0025009Y0079083D01*
X0025815Y0079083D01*
X0025857Y0079085D01*
X0025899Y0079090D01*
X0025940Y0079099D01*
X0025980Y0079112D01*
X0026019Y0079128D01*
X0026057Y0079148D01*
X0026092Y0079170D01*
X0026125Y0079196D01*
X0026157Y0079224D01*
X0026185Y0079256D01*
X0026211Y0079289D01*
X0026233Y0079325D01*
X0026253Y0079362D01*
X0026269Y0079401D01*
X0026282Y0079441D01*
X0026291Y0079482D01*
X0026296Y0079524D01*
X0026298Y0079566D01*
X0035788Y0071016D02*
X0036755Y0071016D01*
X0036432Y0071983D02*
X0036432Y0069566D01*
X0036430Y0069524D01*
X0036425Y0069482D01*
X0036416Y0069441D01*
X0036403Y0069401D01*
X0036387Y0069362D01*
X0036367Y0069325D01*
X0036345Y0069289D01*
X0036319Y0069256D01*
X0036291Y0069224D01*
X0036259Y0069196D01*
X0036226Y0069170D01*
X0036191Y0069148D01*
X0036153Y0069128D01*
X0036114Y0069112D01*
X0036074Y0069099D01*
X0036033Y0069090D01*
X0035991Y0069085D01*
X0035949Y0069083D01*
X0035788Y0069083D01*
X0037826Y0069083D02*
X0037826Y0070533D01*
X0037826Y0070211D02*
X0038551Y0070211D01*
X0037826Y0070533D02*
X0037828Y0070575D01*
X0037833Y0070617D01*
X0037842Y0070658D01*
X0037855Y0070698D01*
X0037871Y0070737D01*
X0037891Y0070775D01*
X0037913Y0070810D01*
X0037939Y0070843D01*
X0037967Y0070875D01*
X0037999Y0070903D01*
X0038032Y0070929D01*
X0038068Y0070951D01*
X0038105Y0070971D01*
X0038144Y0070987D01*
X0038184Y0071000D01*
X0038225Y0071009D01*
X0038267Y0071014D01*
X0038309Y0071016D01*
X0038953Y0071016D01*
X0038551Y0070211D02*
X0038598Y0070209D01*
X0038644Y0070203D01*
X0038689Y0070194D01*
X0038734Y0070180D01*
X0038778Y0070163D01*
X0038819Y0070143D01*
X0038859Y0070119D01*
X0038897Y0070092D01*
X0038933Y0070062D01*
X0038966Y0070029D01*
X0038996Y0069993D01*
X0039023Y0069955D01*
X0039047Y0069915D01*
X0039067Y0069874D01*
X0039084Y0069830D01*
X0039098Y0069785D01*
X0039107Y0069740D01*
X0039113Y0069694D01*
X0039115Y0069647D01*
X0039113Y0069600D01*
X0039107Y0069554D01*
X0039098Y0069509D01*
X0039084Y0069464D01*
X0039067Y0069420D01*
X0039047Y0069379D01*
X0039023Y0069339D01*
X0038996Y0069301D01*
X0038966Y0069265D01*
X0038933Y0069232D01*
X0038897Y0069202D01*
X0038859Y0069175D01*
X0038819Y0069151D01*
X0038778Y0069131D01*
X0038734Y0069114D01*
X0038689Y0069100D01*
X0038644Y0069091D01*
X0038598Y0069085D01*
X0038551Y0069083D01*
X0037826Y0069083D01*
X0040289Y0069566D02*
X0040289Y0070533D01*
X0040290Y0070533D02*
X0040292Y0070575D01*
X0040297Y0070617D01*
X0040306Y0070658D01*
X0040319Y0070698D01*
X0040335Y0070737D01*
X0040355Y0070775D01*
X0040377Y0070810D01*
X0040403Y0070843D01*
X0040431Y0070875D01*
X0040463Y0070903D01*
X0040496Y0070929D01*
X0040532Y0070951D01*
X0040569Y0070971D01*
X0040608Y0070987D01*
X0040648Y0071000D01*
X0040689Y0071009D01*
X0040731Y0071014D01*
X0040773Y0071016D01*
X0041578Y0071016D01*
X0041578Y0071983D02*
X0041578Y0069083D01*
X0040773Y0069083D01*
X0040731Y0069085D01*
X0040689Y0069090D01*
X0040648Y0069099D01*
X0040608Y0069112D01*
X0040569Y0069128D01*
X0040532Y0069148D01*
X0040496Y0069170D01*
X0040463Y0069196D01*
X0040431Y0069224D01*
X0040403Y0069256D01*
X0040377Y0069289D01*
X0040355Y0069325D01*
X0040335Y0069362D01*
X0040319Y0069401D01*
X0040306Y0069441D01*
X0040297Y0069482D01*
X0040292Y0069524D01*
X0040290Y0069566D01*
X0040289Y0041016D02*
X0040934Y0039083D01*
X0041578Y0041016D01*
X0039175Y0040533D02*
X0039175Y0039566D01*
X0039174Y0039566D02*
X0039172Y0039524D01*
X0039167Y0039482D01*
X0039158Y0039441D01*
X0039145Y0039401D01*
X0039129Y0039362D01*
X0039109Y0039325D01*
X0039087Y0039289D01*
X0039061Y0039256D01*
X0039033Y0039224D01*
X0039001Y0039196D01*
X0038968Y0039170D01*
X0038933Y0039148D01*
X0038895Y0039128D01*
X0038856Y0039112D01*
X0038816Y0039099D01*
X0038775Y0039090D01*
X0038733Y0039085D01*
X0038691Y0039083D01*
X0038047Y0039083D01*
X0039174Y0040533D02*
X0039172Y0040575D01*
X0039167Y0040617D01*
X0039158Y0040658D01*
X0039145Y0040698D01*
X0039129Y0040737D01*
X0039109Y0040775D01*
X0039087Y0040810D01*
X0039061Y0040843D01*
X0039033Y0040875D01*
X0039001Y0040903D01*
X0038968Y0040929D01*
X0038933Y0040951D01*
X0038895Y0040971D01*
X0038856Y0040987D01*
X0038816Y0041000D01*
X0038775Y0041009D01*
X0038733Y0041014D01*
X0038691Y0041016D01*
X0038047Y0041016D01*
X0036967Y0040533D02*
X0036967Y0039566D01*
X0036966Y0039566D02*
X0036964Y0039524D01*
X0036959Y0039482D01*
X0036950Y0039441D01*
X0036937Y0039401D01*
X0036921Y0039362D01*
X0036901Y0039325D01*
X0036879Y0039289D01*
X0036853Y0039256D01*
X0036825Y0039224D01*
X0036793Y0039196D01*
X0036760Y0039170D01*
X0036725Y0039148D01*
X0036687Y0039128D01*
X0036648Y0039112D01*
X0036608Y0039099D01*
X0036567Y0039090D01*
X0036525Y0039085D01*
X0036483Y0039083D01*
X0035839Y0039083D01*
X0036966Y0040533D02*
X0036964Y0040575D01*
X0036959Y0040617D01*
X0036950Y0040658D01*
X0036937Y0040698D01*
X0036921Y0040737D01*
X0036901Y0040775D01*
X0036879Y0040810D01*
X0036853Y0040843D01*
X0036825Y0040875D01*
X0036793Y0040903D01*
X0036760Y0040929D01*
X0036725Y0040951D01*
X0036687Y0040971D01*
X0036648Y0040987D01*
X0036608Y0041000D01*
X0036567Y0041009D01*
X0036525Y0041014D01*
X0036483Y0041016D01*
X0035839Y0041016D01*
X0031095Y0184083D02*
X0030289Y0184083D01*
X0030289Y0186983D01*
X0030289Y0186016D02*
X0031095Y0186016D01*
X0031137Y0186014D01*
X0031179Y0186009D01*
X0031220Y0186000D01*
X0031260Y0185987D01*
X0031299Y0185971D01*
X0031337Y0185951D01*
X0031372Y0185929D01*
X0031405Y0185903D01*
X0031437Y0185875D01*
X0031465Y0185843D01*
X0031491Y0185810D01*
X0031513Y0185775D01*
X0031533Y0185737D01*
X0031549Y0185698D01*
X0031562Y0185658D01*
X0031571Y0185617D01*
X0031576Y0185575D01*
X0031578Y0185533D01*
X0031578Y0184566D01*
X0031576Y0184524D01*
X0031571Y0184482D01*
X0031562Y0184441D01*
X0031549Y0184401D01*
X0031533Y0184362D01*
X0031513Y0184325D01*
X0031491Y0184289D01*
X0031465Y0184256D01*
X0031437Y0184224D01*
X0031405Y0184196D01*
X0031372Y0184170D01*
X0031337Y0184148D01*
X0031299Y0184128D01*
X0031260Y0184112D01*
X0031220Y0184099D01*
X0031179Y0184090D01*
X0031137Y0184085D01*
X0031095Y0184083D01*
X0028422Y0184083D02*
X0027697Y0184083D01*
X0027697Y0185533D01*
X0027697Y0185211D02*
X0028422Y0185211D01*
X0027698Y0185533D02*
X0027700Y0185575D01*
X0027705Y0185617D01*
X0027714Y0185658D01*
X0027727Y0185698D01*
X0027743Y0185737D01*
X0027763Y0185775D01*
X0027785Y0185810D01*
X0027811Y0185843D01*
X0027839Y0185875D01*
X0027871Y0185903D01*
X0027904Y0185929D01*
X0027940Y0185951D01*
X0027977Y0185971D01*
X0028016Y0185987D01*
X0028056Y0186000D01*
X0028097Y0186009D01*
X0028139Y0186014D01*
X0028181Y0186016D01*
X0028825Y0186016D01*
X0028422Y0185211D02*
X0028469Y0185209D01*
X0028515Y0185203D01*
X0028560Y0185194D01*
X0028605Y0185180D01*
X0028649Y0185163D01*
X0028690Y0185143D01*
X0028730Y0185119D01*
X0028768Y0185092D01*
X0028804Y0185062D01*
X0028837Y0185029D01*
X0028867Y0184993D01*
X0028894Y0184955D01*
X0028918Y0184915D01*
X0028938Y0184874D01*
X0028955Y0184830D01*
X0028969Y0184785D01*
X0028978Y0184740D01*
X0028984Y0184694D01*
X0028986Y0184647D01*
X0028984Y0184600D01*
X0028978Y0184554D01*
X0028969Y0184509D01*
X0028955Y0184464D01*
X0028938Y0184420D01*
X0028918Y0184379D01*
X0028894Y0184339D01*
X0028867Y0184301D01*
X0028837Y0184265D01*
X0028804Y0184232D01*
X0028768Y0184202D01*
X0028730Y0184175D01*
X0028690Y0184151D01*
X0028649Y0184131D01*
X0028605Y0184114D01*
X0028560Y0184100D01*
X0028515Y0184091D01*
X0028469Y0184085D01*
X0028422Y0184083D01*
X0026304Y0184566D02*
X0026304Y0186983D01*
X0026626Y0186016D02*
X0025660Y0186016D01*
X0026304Y0184566D02*
X0026302Y0184524D01*
X0026297Y0184482D01*
X0026288Y0184441D01*
X0026275Y0184401D01*
X0026259Y0184362D01*
X0026239Y0184325D01*
X0026217Y0184289D01*
X0026191Y0184256D01*
X0026163Y0184224D01*
X0026131Y0184196D01*
X0026098Y0184170D01*
X0026063Y0184148D01*
X0026025Y0184128D01*
X0025986Y0184112D01*
X0025946Y0184099D01*
X0025905Y0184090D01*
X0025863Y0184085D01*
X0025821Y0184083D01*
X0025660Y0184083D01*
X0030009Y0209083D02*
X0030009Y0211983D01*
X0030009Y0211016D02*
X0030815Y0211016D01*
X0030857Y0211014D01*
X0030899Y0211009D01*
X0030940Y0211000D01*
X0030980Y0210987D01*
X0031019Y0210971D01*
X0031057Y0210951D01*
X0031092Y0210929D01*
X0031125Y0210903D01*
X0031157Y0210875D01*
X0031185Y0210843D01*
X0031211Y0210810D01*
X0031233Y0210775D01*
X0031253Y0210737D01*
X0031269Y0210698D01*
X0031282Y0210658D01*
X0031291Y0210617D01*
X0031296Y0210575D01*
X0031298Y0210533D01*
X0031298Y0209566D01*
X0031296Y0209524D01*
X0031291Y0209482D01*
X0031282Y0209441D01*
X0031269Y0209401D01*
X0031253Y0209362D01*
X0031233Y0209325D01*
X0031211Y0209289D01*
X0031185Y0209256D01*
X0031157Y0209224D01*
X0031125Y0209196D01*
X0031092Y0209170D01*
X0031057Y0209148D01*
X0031019Y0209128D01*
X0030980Y0209112D01*
X0030940Y0209099D01*
X0030899Y0209090D01*
X0030857Y0209085D01*
X0030815Y0209083D01*
X0030009Y0209083D01*
X0032585Y0209083D02*
X0032585Y0210533D01*
X0032586Y0210533D02*
X0032588Y0210575D01*
X0032593Y0210617D01*
X0032602Y0210658D01*
X0032615Y0210698D01*
X0032631Y0210737D01*
X0032651Y0210775D01*
X0032673Y0210810D01*
X0032699Y0210843D01*
X0032727Y0210875D01*
X0032759Y0210903D01*
X0032792Y0210929D01*
X0032828Y0210951D01*
X0032865Y0210971D01*
X0032904Y0210987D01*
X0032944Y0211000D01*
X0032985Y0211009D01*
X0033027Y0211014D01*
X0033069Y0211016D01*
X0033874Y0211016D01*
X0033874Y0209083D01*
X0035289Y0209083D02*
X0036095Y0209083D01*
X0036137Y0209085D01*
X0036179Y0209090D01*
X0036220Y0209099D01*
X0036260Y0209112D01*
X0036299Y0209128D01*
X0036337Y0209148D01*
X0036372Y0209170D01*
X0036405Y0209196D01*
X0036437Y0209224D01*
X0036465Y0209256D01*
X0036491Y0209289D01*
X0036513Y0209325D01*
X0036533Y0209362D01*
X0036549Y0209401D01*
X0036562Y0209441D01*
X0036571Y0209482D01*
X0036576Y0209524D01*
X0036578Y0209566D01*
X0036578Y0210533D01*
X0036576Y0210575D01*
X0036571Y0210617D01*
X0036562Y0210658D01*
X0036549Y0210698D01*
X0036533Y0210737D01*
X0036513Y0210775D01*
X0036491Y0210810D01*
X0036465Y0210843D01*
X0036437Y0210875D01*
X0036405Y0210903D01*
X0036372Y0210929D01*
X0036337Y0210951D01*
X0036299Y0210971D01*
X0036260Y0210987D01*
X0036220Y0211000D01*
X0036179Y0211009D01*
X0036137Y0211014D01*
X0036095Y0211016D01*
X0035289Y0211016D01*
X0035289Y0208600D01*
X0035290Y0208600D02*
X0035292Y0208558D01*
X0035297Y0208516D01*
X0035306Y0208475D01*
X0035319Y0208435D01*
X0035335Y0208396D01*
X0035355Y0208359D01*
X0035377Y0208323D01*
X0035403Y0208290D01*
X0035431Y0208258D01*
X0035463Y0208230D01*
X0035496Y0208204D01*
X0035532Y0208182D01*
X0035569Y0208162D01*
X0035608Y0208146D01*
X0035648Y0208133D01*
X0035689Y0208124D01*
X0035731Y0208119D01*
X0035773Y0208117D01*
X0035773Y0208116D02*
X0036417Y0208116D01*
X0036483Y0314083D02*
X0035839Y0314083D01*
X0036483Y0314083D02*
X0036525Y0314085D01*
X0036567Y0314090D01*
X0036608Y0314099D01*
X0036648Y0314112D01*
X0036687Y0314128D01*
X0036725Y0314148D01*
X0036760Y0314170D01*
X0036793Y0314196D01*
X0036825Y0314224D01*
X0036853Y0314256D01*
X0036879Y0314289D01*
X0036901Y0314325D01*
X0036921Y0314362D01*
X0036937Y0314401D01*
X0036950Y0314441D01*
X0036959Y0314482D01*
X0036964Y0314524D01*
X0036966Y0314566D01*
X0036967Y0314566D02*
X0036967Y0315533D01*
X0036966Y0315533D02*
X0036964Y0315575D01*
X0036959Y0315617D01*
X0036950Y0315658D01*
X0036937Y0315698D01*
X0036921Y0315737D01*
X0036901Y0315775D01*
X0036879Y0315810D01*
X0036853Y0315843D01*
X0036825Y0315875D01*
X0036793Y0315903D01*
X0036760Y0315929D01*
X0036725Y0315951D01*
X0036687Y0315971D01*
X0036648Y0315987D01*
X0036608Y0316000D01*
X0036567Y0316009D01*
X0036525Y0316014D01*
X0036483Y0316016D01*
X0035839Y0316016D01*
X0038047Y0316016D02*
X0038691Y0316016D01*
X0038733Y0316014D01*
X0038775Y0316009D01*
X0038816Y0316000D01*
X0038856Y0315987D01*
X0038895Y0315971D01*
X0038933Y0315951D01*
X0038968Y0315929D01*
X0039001Y0315903D01*
X0039033Y0315875D01*
X0039061Y0315843D01*
X0039087Y0315810D01*
X0039109Y0315775D01*
X0039129Y0315737D01*
X0039145Y0315698D01*
X0039158Y0315658D01*
X0039167Y0315617D01*
X0039172Y0315575D01*
X0039174Y0315533D01*
X0039175Y0315533D02*
X0039175Y0314566D01*
X0039174Y0314566D02*
X0039172Y0314524D01*
X0039167Y0314482D01*
X0039158Y0314441D01*
X0039145Y0314401D01*
X0039129Y0314362D01*
X0039109Y0314325D01*
X0039087Y0314289D01*
X0039061Y0314256D01*
X0039033Y0314224D01*
X0039001Y0314196D01*
X0038968Y0314170D01*
X0038933Y0314148D01*
X0038895Y0314128D01*
X0038856Y0314112D01*
X0038816Y0314099D01*
X0038775Y0314090D01*
X0038733Y0314085D01*
X0038691Y0314083D01*
X0038047Y0314083D01*
X0040934Y0314083D02*
X0040289Y0316016D01*
X0041578Y0316016D02*
X0040934Y0314083D01*
X0041095Y0329083D02*
X0040289Y0329083D01*
X0040289Y0331983D01*
X0040289Y0331016D02*
X0041095Y0331016D01*
X0041137Y0331014D01*
X0041179Y0331009D01*
X0041220Y0331000D01*
X0041260Y0330987D01*
X0041299Y0330971D01*
X0041337Y0330951D01*
X0041372Y0330929D01*
X0041405Y0330903D01*
X0041437Y0330875D01*
X0041465Y0330843D01*
X0041491Y0330810D01*
X0041513Y0330775D01*
X0041533Y0330737D01*
X0041549Y0330698D01*
X0041562Y0330658D01*
X0041571Y0330617D01*
X0041576Y0330575D01*
X0041578Y0330533D01*
X0041578Y0329566D01*
X0041576Y0329524D01*
X0041571Y0329482D01*
X0041562Y0329441D01*
X0041549Y0329401D01*
X0041533Y0329362D01*
X0041513Y0329325D01*
X0041491Y0329289D01*
X0041465Y0329256D01*
X0041437Y0329224D01*
X0041405Y0329196D01*
X0041372Y0329170D01*
X0041337Y0329148D01*
X0041299Y0329128D01*
X0041260Y0329112D01*
X0041220Y0329099D01*
X0041179Y0329090D01*
X0041137Y0329085D01*
X0041095Y0329083D01*
X0038825Y0331016D02*
X0038181Y0331016D01*
X0038139Y0331014D01*
X0038097Y0331009D01*
X0038056Y0331000D01*
X0038016Y0330987D01*
X0037977Y0330971D01*
X0037940Y0330951D01*
X0037904Y0330929D01*
X0037871Y0330903D01*
X0037839Y0330875D01*
X0037811Y0330843D01*
X0037785Y0330810D01*
X0037763Y0330775D01*
X0037743Y0330737D01*
X0037727Y0330698D01*
X0037714Y0330658D01*
X0037705Y0330617D01*
X0037700Y0330575D01*
X0037698Y0330533D01*
X0037697Y0330533D02*
X0037697Y0329083D01*
X0038422Y0329083D01*
X0038469Y0329085D01*
X0038515Y0329091D01*
X0038560Y0329100D01*
X0038605Y0329114D01*
X0038649Y0329131D01*
X0038690Y0329151D01*
X0038730Y0329175D01*
X0038768Y0329202D01*
X0038804Y0329232D01*
X0038837Y0329265D01*
X0038867Y0329301D01*
X0038894Y0329339D01*
X0038918Y0329379D01*
X0038938Y0329420D01*
X0038955Y0329464D01*
X0038969Y0329509D01*
X0038978Y0329554D01*
X0038984Y0329600D01*
X0038986Y0329647D01*
X0038984Y0329694D01*
X0038978Y0329740D01*
X0038969Y0329785D01*
X0038955Y0329830D01*
X0038938Y0329874D01*
X0038918Y0329915D01*
X0038894Y0329955D01*
X0038867Y0329993D01*
X0038837Y0330029D01*
X0038804Y0330062D01*
X0038768Y0330092D01*
X0038730Y0330119D01*
X0038690Y0330143D01*
X0038649Y0330163D01*
X0038605Y0330180D01*
X0038560Y0330194D01*
X0038515Y0330203D01*
X0038469Y0330209D01*
X0038422Y0330211D01*
X0037697Y0330211D01*
X0036626Y0331016D02*
X0035660Y0331016D01*
X0036304Y0331983D02*
X0036304Y0329566D01*
X0036302Y0329524D01*
X0036297Y0329482D01*
X0036288Y0329441D01*
X0036275Y0329401D01*
X0036259Y0329362D01*
X0036239Y0329325D01*
X0036217Y0329289D01*
X0036191Y0329256D01*
X0036163Y0329224D01*
X0036131Y0329196D01*
X0036098Y0329170D01*
X0036063Y0329148D01*
X0036025Y0329128D01*
X0035986Y0329112D01*
X0035946Y0329099D01*
X0035905Y0329090D01*
X0035863Y0329085D01*
X0035821Y0329083D01*
X0035660Y0329083D01*
X0035815Y0344083D02*
X0035009Y0344083D01*
X0035009Y0346983D01*
X0035009Y0346016D02*
X0035815Y0346016D01*
X0035857Y0346014D01*
X0035899Y0346009D01*
X0035940Y0346000D01*
X0035980Y0345987D01*
X0036019Y0345971D01*
X0036057Y0345951D01*
X0036092Y0345929D01*
X0036125Y0345903D01*
X0036157Y0345875D01*
X0036185Y0345843D01*
X0036211Y0345810D01*
X0036233Y0345775D01*
X0036253Y0345737D01*
X0036269Y0345698D01*
X0036282Y0345658D01*
X0036291Y0345617D01*
X0036296Y0345575D01*
X0036298Y0345533D01*
X0036298Y0344566D01*
X0036296Y0344524D01*
X0036291Y0344482D01*
X0036282Y0344441D01*
X0036269Y0344401D01*
X0036253Y0344362D01*
X0036233Y0344325D01*
X0036211Y0344289D01*
X0036185Y0344256D01*
X0036157Y0344224D01*
X0036125Y0344196D01*
X0036092Y0344170D01*
X0036057Y0344148D01*
X0036019Y0344128D01*
X0035980Y0344112D01*
X0035940Y0344099D01*
X0035899Y0344090D01*
X0035857Y0344085D01*
X0035815Y0344083D01*
X0037585Y0344083D02*
X0037585Y0345533D01*
X0037586Y0345533D02*
X0037588Y0345575D01*
X0037593Y0345617D01*
X0037602Y0345658D01*
X0037615Y0345698D01*
X0037631Y0345737D01*
X0037651Y0345775D01*
X0037673Y0345810D01*
X0037699Y0345843D01*
X0037727Y0345875D01*
X0037759Y0345903D01*
X0037792Y0345929D01*
X0037828Y0345951D01*
X0037865Y0345971D01*
X0037904Y0345987D01*
X0037944Y0346000D01*
X0037985Y0346009D01*
X0038027Y0346014D01*
X0038069Y0346016D01*
X0038874Y0346016D01*
X0038874Y0344083D01*
X0040289Y0344083D02*
X0041095Y0344083D01*
X0041137Y0344085D01*
X0041179Y0344090D01*
X0041220Y0344099D01*
X0041260Y0344112D01*
X0041299Y0344128D01*
X0041337Y0344148D01*
X0041372Y0344170D01*
X0041405Y0344196D01*
X0041437Y0344224D01*
X0041465Y0344256D01*
X0041491Y0344289D01*
X0041513Y0344325D01*
X0041533Y0344362D01*
X0041549Y0344401D01*
X0041562Y0344441D01*
X0041571Y0344482D01*
X0041576Y0344524D01*
X0041578Y0344566D01*
X0041578Y0345533D01*
X0041576Y0345575D01*
X0041571Y0345617D01*
X0041562Y0345658D01*
X0041549Y0345698D01*
X0041533Y0345737D01*
X0041513Y0345775D01*
X0041491Y0345810D01*
X0041465Y0345843D01*
X0041437Y0345875D01*
X0041405Y0345903D01*
X0041372Y0345929D01*
X0041337Y0345951D01*
X0041299Y0345971D01*
X0041260Y0345987D01*
X0041220Y0346000D01*
X0041179Y0346009D01*
X0041137Y0346014D01*
X0041095Y0346016D01*
X0040289Y0346016D01*
X0040289Y0343600D01*
X0040290Y0343600D02*
X0040292Y0343558D01*
X0040297Y0343516D01*
X0040306Y0343475D01*
X0040319Y0343435D01*
X0040335Y0343396D01*
X0040355Y0343359D01*
X0040377Y0343323D01*
X0040403Y0343290D01*
X0040431Y0343258D01*
X0040463Y0343230D01*
X0040496Y0343204D01*
X0040532Y0343182D01*
X0040569Y0343162D01*
X0040608Y0343146D01*
X0040648Y0343133D01*
X0040689Y0343124D01*
X0040731Y0343119D01*
X0040773Y0343117D01*
X0040773Y0343116D02*
X0041417Y0343116D01*
X0031578Y0374083D02*
X0030773Y0374083D01*
X0030731Y0374085D01*
X0030689Y0374090D01*
X0030648Y0374099D01*
X0030608Y0374112D01*
X0030569Y0374128D01*
X0030532Y0374148D01*
X0030496Y0374170D01*
X0030463Y0374196D01*
X0030431Y0374224D01*
X0030403Y0374256D01*
X0030377Y0374289D01*
X0030355Y0374325D01*
X0030335Y0374362D01*
X0030319Y0374401D01*
X0030306Y0374441D01*
X0030297Y0374482D01*
X0030292Y0374524D01*
X0030290Y0374566D01*
X0030289Y0374566D02*
X0030289Y0375533D01*
X0030290Y0375533D02*
X0030292Y0375575D01*
X0030297Y0375617D01*
X0030306Y0375658D01*
X0030319Y0375698D01*
X0030335Y0375737D01*
X0030355Y0375775D01*
X0030377Y0375810D01*
X0030403Y0375843D01*
X0030431Y0375875D01*
X0030463Y0375903D01*
X0030496Y0375929D01*
X0030532Y0375951D01*
X0030569Y0375971D01*
X0030608Y0375987D01*
X0030648Y0376000D01*
X0030689Y0376009D01*
X0030731Y0376014D01*
X0030773Y0376016D01*
X0031578Y0376016D01*
X0031578Y0376983D02*
X0031578Y0374083D01*
X0028953Y0376016D02*
X0028309Y0376016D01*
X0028267Y0376014D01*
X0028225Y0376009D01*
X0028184Y0376000D01*
X0028144Y0375987D01*
X0028105Y0375971D01*
X0028068Y0375951D01*
X0028032Y0375929D01*
X0027999Y0375903D01*
X0027967Y0375875D01*
X0027939Y0375843D01*
X0027913Y0375810D01*
X0027891Y0375775D01*
X0027871Y0375737D01*
X0027855Y0375698D01*
X0027842Y0375658D01*
X0027833Y0375617D01*
X0027828Y0375575D01*
X0027826Y0375533D01*
X0027826Y0374083D01*
X0028551Y0374083D01*
X0028598Y0374085D01*
X0028644Y0374091D01*
X0028689Y0374100D01*
X0028734Y0374114D01*
X0028778Y0374131D01*
X0028819Y0374151D01*
X0028859Y0374175D01*
X0028897Y0374202D01*
X0028933Y0374232D01*
X0028966Y0374265D01*
X0028996Y0374301D01*
X0029023Y0374339D01*
X0029047Y0374379D01*
X0029067Y0374420D01*
X0029084Y0374464D01*
X0029098Y0374509D01*
X0029107Y0374554D01*
X0029113Y0374600D01*
X0029115Y0374647D01*
X0029113Y0374694D01*
X0029107Y0374740D01*
X0029098Y0374785D01*
X0029084Y0374830D01*
X0029067Y0374874D01*
X0029047Y0374915D01*
X0029023Y0374955D01*
X0028996Y0374993D01*
X0028966Y0375029D01*
X0028933Y0375062D01*
X0028897Y0375092D01*
X0028859Y0375119D01*
X0028819Y0375143D01*
X0028778Y0375163D01*
X0028734Y0375180D01*
X0028689Y0375194D01*
X0028644Y0375203D01*
X0028598Y0375209D01*
X0028551Y0375211D01*
X0027826Y0375211D01*
X0026755Y0376016D02*
X0025788Y0376016D01*
X0026432Y0376983D02*
X0026432Y0374566D01*
X0026430Y0374524D01*
X0026425Y0374482D01*
X0026416Y0374441D01*
X0026403Y0374401D01*
X0026387Y0374362D01*
X0026367Y0374325D01*
X0026345Y0374289D01*
X0026319Y0374256D01*
X0026291Y0374224D01*
X0026259Y0374196D01*
X0026226Y0374170D01*
X0026191Y0374148D01*
X0026153Y0374128D01*
X0026114Y0374112D01*
X0026074Y0374099D01*
X0026033Y0374090D01*
X0025991Y0374085D01*
X0025949Y0374083D01*
X0025788Y0374083D01*
D12*
X0026728Y0036933D02*
X0026730Y0037074D01*
X0026736Y0037215D01*
X0026746Y0037355D01*
X0026760Y0037495D01*
X0026778Y0037635D01*
X0026799Y0037774D01*
X0026825Y0037913D01*
X0026854Y0038051D01*
X0026888Y0038187D01*
X0026925Y0038323D01*
X0026966Y0038458D01*
X0027011Y0038592D01*
X0027060Y0038724D01*
X0027112Y0038855D01*
X0027168Y0038984D01*
X0027228Y0039111D01*
X0027291Y0039237D01*
X0027357Y0039361D01*
X0027428Y0039484D01*
X0027501Y0039604D01*
X0027578Y0039722D01*
X0027658Y0039838D01*
X0027742Y0039951D01*
X0027828Y0040062D01*
X0027918Y0040171D01*
X0028011Y0040277D01*
X0028106Y0040380D01*
X0028205Y0040481D01*
X0028306Y0040579D01*
X0028410Y0040674D01*
X0028517Y0040766D01*
X0028626Y0040855D01*
X0028738Y0040940D01*
X0028852Y0041023D01*
X0028968Y0041103D01*
X0029087Y0041179D01*
X0029208Y0041251D01*
X0029330Y0041321D01*
X0029455Y0041386D01*
X0029581Y0041449D01*
X0029709Y0041507D01*
X0029839Y0041562D01*
X0029970Y0041614D01*
X0030103Y0041661D01*
X0030237Y0041705D01*
X0030372Y0041746D01*
X0030508Y0041782D01*
X0030645Y0041814D01*
X0030783Y0041843D01*
X0030921Y0041868D01*
X0031061Y0041888D01*
X0031201Y0041905D01*
X0031341Y0041918D01*
X0031482Y0041927D01*
X0031622Y0041932D01*
X0031763Y0041933D01*
X0031904Y0041930D01*
X0032045Y0041923D01*
X0032185Y0041912D01*
X0032325Y0041897D01*
X0032465Y0041878D01*
X0032604Y0041856D01*
X0032742Y0041829D01*
X0032880Y0041799D01*
X0033016Y0041764D01*
X0033152Y0041726D01*
X0033286Y0041684D01*
X0033420Y0041638D01*
X0033552Y0041589D01*
X0033682Y0041535D01*
X0033811Y0041478D01*
X0033938Y0041418D01*
X0034064Y0041354D01*
X0034187Y0041286D01*
X0034309Y0041215D01*
X0034429Y0041141D01*
X0034546Y0041063D01*
X0034661Y0040982D01*
X0034774Y0040898D01*
X0034885Y0040811D01*
X0034993Y0040720D01*
X0035098Y0040627D01*
X0035201Y0040530D01*
X0035301Y0040431D01*
X0035398Y0040329D01*
X0035492Y0040224D01*
X0035583Y0040117D01*
X0035671Y0040007D01*
X0035756Y0039895D01*
X0035838Y0039780D01*
X0035917Y0039663D01*
X0035992Y0039544D01*
X0036064Y0039423D01*
X0036132Y0039300D01*
X0036197Y0039175D01*
X0036259Y0039048D01*
X0036316Y0038919D01*
X0036371Y0038789D01*
X0036421Y0038658D01*
X0036468Y0038525D01*
X0036511Y0038391D01*
X0036550Y0038255D01*
X0036585Y0038119D01*
X0036617Y0037982D01*
X0036644Y0037844D01*
X0036668Y0037705D01*
X0036688Y0037565D01*
X0036704Y0037425D01*
X0036716Y0037285D01*
X0036724Y0037144D01*
X0036728Y0037003D01*
X0036728Y0036863D01*
X0036724Y0036722D01*
X0036716Y0036581D01*
X0036704Y0036441D01*
X0036688Y0036301D01*
X0036668Y0036161D01*
X0036644Y0036022D01*
X0036617Y0035884D01*
X0036585Y0035747D01*
X0036550Y0035611D01*
X0036511Y0035475D01*
X0036468Y0035341D01*
X0036421Y0035208D01*
X0036371Y0035077D01*
X0036316Y0034947D01*
X0036259Y0034818D01*
X0036197Y0034691D01*
X0036132Y0034566D01*
X0036064Y0034443D01*
X0035992Y0034322D01*
X0035917Y0034203D01*
X0035838Y0034086D01*
X0035756Y0033971D01*
X0035671Y0033859D01*
X0035583Y0033749D01*
X0035492Y0033642D01*
X0035398Y0033537D01*
X0035301Y0033435D01*
X0035201Y0033336D01*
X0035098Y0033239D01*
X0034993Y0033146D01*
X0034885Y0033055D01*
X0034774Y0032968D01*
X0034661Y0032884D01*
X0034546Y0032803D01*
X0034429Y0032725D01*
X0034309Y0032651D01*
X0034187Y0032580D01*
X0034064Y0032512D01*
X0033938Y0032448D01*
X0033811Y0032388D01*
X0033682Y0032331D01*
X0033552Y0032277D01*
X0033420Y0032228D01*
X0033286Y0032182D01*
X0033152Y0032140D01*
X0033016Y0032102D01*
X0032880Y0032067D01*
X0032742Y0032037D01*
X0032604Y0032010D01*
X0032465Y0031988D01*
X0032325Y0031969D01*
X0032185Y0031954D01*
X0032045Y0031943D01*
X0031904Y0031936D01*
X0031763Y0031933D01*
X0031622Y0031934D01*
X0031482Y0031939D01*
X0031341Y0031948D01*
X0031201Y0031961D01*
X0031061Y0031978D01*
X0030921Y0031998D01*
X0030783Y0032023D01*
X0030645Y0032052D01*
X0030508Y0032084D01*
X0030372Y0032120D01*
X0030237Y0032161D01*
X0030103Y0032205D01*
X0029970Y0032252D01*
X0029839Y0032304D01*
X0029709Y0032359D01*
X0029581Y0032417D01*
X0029455Y0032480D01*
X0029330Y0032545D01*
X0029208Y0032615D01*
X0029087Y0032687D01*
X0028968Y0032763D01*
X0028852Y0032843D01*
X0028738Y0032926D01*
X0028626Y0033011D01*
X0028517Y0033100D01*
X0028410Y0033192D01*
X0028306Y0033287D01*
X0028205Y0033385D01*
X0028106Y0033486D01*
X0028011Y0033589D01*
X0027918Y0033695D01*
X0027828Y0033804D01*
X0027742Y0033915D01*
X0027658Y0034028D01*
X0027578Y0034144D01*
X0027501Y0034262D01*
X0027428Y0034382D01*
X0027357Y0034505D01*
X0027291Y0034629D01*
X0027228Y0034755D01*
X0027168Y0034882D01*
X0027112Y0035011D01*
X0027060Y0035142D01*
X0027011Y0035274D01*
X0026966Y0035408D01*
X0026925Y0035543D01*
X0026888Y0035679D01*
X0026854Y0035815D01*
X0026825Y0035953D01*
X0026799Y0036092D01*
X0026778Y0036231D01*
X0026760Y0036371D01*
X0026746Y0036511D01*
X0026736Y0036651D01*
X0026730Y0036792D01*
X0026728Y0036933D01*
X0025448Y0028933D02*
X0025450Y0029004D01*
X0025456Y0029075D01*
X0025466Y0029146D01*
X0025480Y0029215D01*
X0025497Y0029284D01*
X0025519Y0029352D01*
X0025544Y0029419D01*
X0025573Y0029484D01*
X0025605Y0029547D01*
X0025641Y0029609D01*
X0025680Y0029668D01*
X0025723Y0029725D01*
X0025768Y0029780D01*
X0025817Y0029832D01*
X0025868Y0029881D01*
X0025922Y0029927D01*
X0025979Y0029971D01*
X0026037Y0030011D01*
X0026098Y0030047D01*
X0026161Y0030081D01*
X0026226Y0030110D01*
X0026292Y0030136D01*
X0026360Y0030159D01*
X0026428Y0030177D01*
X0026498Y0030192D01*
X0026568Y0030203D01*
X0026639Y0030210D01*
X0026710Y0030213D01*
X0026781Y0030212D01*
X0026852Y0030207D01*
X0026923Y0030198D01*
X0026993Y0030185D01*
X0027062Y0030169D01*
X0027130Y0030148D01*
X0027197Y0030124D01*
X0027263Y0030096D01*
X0027326Y0030064D01*
X0027388Y0030029D01*
X0027448Y0029991D01*
X0027506Y0029949D01*
X0027561Y0029905D01*
X0027614Y0029857D01*
X0027664Y0029806D01*
X0027711Y0029753D01*
X0027755Y0029697D01*
X0027796Y0029639D01*
X0027834Y0029578D01*
X0027868Y0029516D01*
X0027898Y0029451D01*
X0027925Y0029386D01*
X0027949Y0029318D01*
X0027968Y0029250D01*
X0027984Y0029181D01*
X0027996Y0029110D01*
X0028004Y0029040D01*
X0028008Y0028969D01*
X0028008Y0028897D01*
X0028004Y0028826D01*
X0027996Y0028756D01*
X0027984Y0028685D01*
X0027968Y0028616D01*
X0027949Y0028548D01*
X0027925Y0028480D01*
X0027898Y0028415D01*
X0027868Y0028350D01*
X0027834Y0028288D01*
X0027796Y0028227D01*
X0027755Y0028169D01*
X0027711Y0028113D01*
X0027664Y0028060D01*
X0027614Y0028009D01*
X0027561Y0027961D01*
X0027506Y0027917D01*
X0027448Y0027875D01*
X0027388Y0027837D01*
X0027326Y0027802D01*
X0027263Y0027770D01*
X0027197Y0027742D01*
X0027130Y0027718D01*
X0027062Y0027697D01*
X0026993Y0027681D01*
X0026923Y0027668D01*
X0026852Y0027659D01*
X0026781Y0027654D01*
X0026710Y0027653D01*
X0026639Y0027656D01*
X0026568Y0027663D01*
X0026498Y0027674D01*
X0026428Y0027689D01*
X0026360Y0027707D01*
X0026292Y0027730D01*
X0026226Y0027756D01*
X0026161Y0027785D01*
X0026098Y0027819D01*
X0026037Y0027855D01*
X0025979Y0027895D01*
X0025922Y0027939D01*
X0025868Y0027985D01*
X0025817Y0028034D01*
X0025768Y0028086D01*
X0025723Y0028141D01*
X0025680Y0028198D01*
X0025641Y0028257D01*
X0025605Y0028319D01*
X0025573Y0028382D01*
X0025544Y0028447D01*
X0025519Y0028514D01*
X0025497Y0028582D01*
X0025480Y0028651D01*
X0025466Y0028720D01*
X0025456Y0028791D01*
X0025450Y0028862D01*
X0025448Y0028933D01*
X0030448Y0028933D02*
X0030450Y0029004D01*
X0030456Y0029075D01*
X0030466Y0029146D01*
X0030480Y0029215D01*
X0030497Y0029284D01*
X0030519Y0029352D01*
X0030544Y0029419D01*
X0030573Y0029484D01*
X0030605Y0029547D01*
X0030641Y0029609D01*
X0030680Y0029668D01*
X0030723Y0029725D01*
X0030768Y0029780D01*
X0030817Y0029832D01*
X0030868Y0029881D01*
X0030922Y0029927D01*
X0030979Y0029971D01*
X0031037Y0030011D01*
X0031098Y0030047D01*
X0031161Y0030081D01*
X0031226Y0030110D01*
X0031292Y0030136D01*
X0031360Y0030159D01*
X0031428Y0030177D01*
X0031498Y0030192D01*
X0031568Y0030203D01*
X0031639Y0030210D01*
X0031710Y0030213D01*
X0031781Y0030212D01*
X0031852Y0030207D01*
X0031923Y0030198D01*
X0031993Y0030185D01*
X0032062Y0030169D01*
X0032130Y0030148D01*
X0032197Y0030124D01*
X0032263Y0030096D01*
X0032326Y0030064D01*
X0032388Y0030029D01*
X0032448Y0029991D01*
X0032506Y0029949D01*
X0032561Y0029905D01*
X0032614Y0029857D01*
X0032664Y0029806D01*
X0032711Y0029753D01*
X0032755Y0029697D01*
X0032796Y0029639D01*
X0032834Y0029578D01*
X0032868Y0029516D01*
X0032898Y0029451D01*
X0032925Y0029386D01*
X0032949Y0029318D01*
X0032968Y0029250D01*
X0032984Y0029181D01*
X0032996Y0029110D01*
X0033004Y0029040D01*
X0033008Y0028969D01*
X0033008Y0028897D01*
X0033004Y0028826D01*
X0032996Y0028756D01*
X0032984Y0028685D01*
X0032968Y0028616D01*
X0032949Y0028548D01*
X0032925Y0028480D01*
X0032898Y0028415D01*
X0032868Y0028350D01*
X0032834Y0028288D01*
X0032796Y0028227D01*
X0032755Y0028169D01*
X0032711Y0028113D01*
X0032664Y0028060D01*
X0032614Y0028009D01*
X0032561Y0027961D01*
X0032506Y0027917D01*
X0032448Y0027875D01*
X0032388Y0027837D01*
X0032326Y0027802D01*
X0032263Y0027770D01*
X0032197Y0027742D01*
X0032130Y0027718D01*
X0032062Y0027697D01*
X0031993Y0027681D01*
X0031923Y0027668D01*
X0031852Y0027659D01*
X0031781Y0027654D01*
X0031710Y0027653D01*
X0031639Y0027656D01*
X0031568Y0027663D01*
X0031498Y0027674D01*
X0031428Y0027689D01*
X0031360Y0027707D01*
X0031292Y0027730D01*
X0031226Y0027756D01*
X0031161Y0027785D01*
X0031098Y0027819D01*
X0031037Y0027855D01*
X0030979Y0027895D01*
X0030922Y0027939D01*
X0030868Y0027985D01*
X0030817Y0028034D01*
X0030768Y0028086D01*
X0030723Y0028141D01*
X0030680Y0028198D01*
X0030641Y0028257D01*
X0030605Y0028319D01*
X0030573Y0028382D01*
X0030544Y0028447D01*
X0030519Y0028514D01*
X0030497Y0028582D01*
X0030480Y0028651D01*
X0030466Y0028720D01*
X0030456Y0028791D01*
X0030450Y0028862D01*
X0030448Y0028933D01*
X0035448Y0028933D02*
X0035450Y0029004D01*
X0035456Y0029075D01*
X0035466Y0029146D01*
X0035480Y0029215D01*
X0035497Y0029284D01*
X0035519Y0029352D01*
X0035544Y0029419D01*
X0035573Y0029484D01*
X0035605Y0029547D01*
X0035641Y0029609D01*
X0035680Y0029668D01*
X0035723Y0029725D01*
X0035768Y0029780D01*
X0035817Y0029832D01*
X0035868Y0029881D01*
X0035922Y0029927D01*
X0035979Y0029971D01*
X0036037Y0030011D01*
X0036098Y0030047D01*
X0036161Y0030081D01*
X0036226Y0030110D01*
X0036292Y0030136D01*
X0036360Y0030159D01*
X0036428Y0030177D01*
X0036498Y0030192D01*
X0036568Y0030203D01*
X0036639Y0030210D01*
X0036710Y0030213D01*
X0036781Y0030212D01*
X0036852Y0030207D01*
X0036923Y0030198D01*
X0036993Y0030185D01*
X0037062Y0030169D01*
X0037130Y0030148D01*
X0037197Y0030124D01*
X0037263Y0030096D01*
X0037326Y0030064D01*
X0037388Y0030029D01*
X0037448Y0029991D01*
X0037506Y0029949D01*
X0037561Y0029905D01*
X0037614Y0029857D01*
X0037664Y0029806D01*
X0037711Y0029753D01*
X0037755Y0029697D01*
X0037796Y0029639D01*
X0037834Y0029578D01*
X0037868Y0029516D01*
X0037898Y0029451D01*
X0037925Y0029386D01*
X0037949Y0029318D01*
X0037968Y0029250D01*
X0037984Y0029181D01*
X0037996Y0029110D01*
X0038004Y0029040D01*
X0038008Y0028969D01*
X0038008Y0028897D01*
X0038004Y0028826D01*
X0037996Y0028756D01*
X0037984Y0028685D01*
X0037968Y0028616D01*
X0037949Y0028548D01*
X0037925Y0028480D01*
X0037898Y0028415D01*
X0037868Y0028350D01*
X0037834Y0028288D01*
X0037796Y0028227D01*
X0037755Y0028169D01*
X0037711Y0028113D01*
X0037664Y0028060D01*
X0037614Y0028009D01*
X0037561Y0027961D01*
X0037506Y0027917D01*
X0037448Y0027875D01*
X0037388Y0027837D01*
X0037326Y0027802D01*
X0037263Y0027770D01*
X0037197Y0027742D01*
X0037130Y0027718D01*
X0037062Y0027697D01*
X0036993Y0027681D01*
X0036923Y0027668D01*
X0036852Y0027659D01*
X0036781Y0027654D01*
X0036710Y0027653D01*
X0036639Y0027656D01*
X0036568Y0027663D01*
X0036498Y0027674D01*
X0036428Y0027689D01*
X0036360Y0027707D01*
X0036292Y0027730D01*
X0036226Y0027756D01*
X0036161Y0027785D01*
X0036098Y0027819D01*
X0036037Y0027855D01*
X0035979Y0027895D01*
X0035922Y0027939D01*
X0035868Y0027985D01*
X0035817Y0028034D01*
X0035768Y0028086D01*
X0035723Y0028141D01*
X0035680Y0028198D01*
X0035641Y0028257D01*
X0035605Y0028319D01*
X0035573Y0028382D01*
X0035544Y0028447D01*
X0035519Y0028514D01*
X0035497Y0028582D01*
X0035480Y0028651D01*
X0035466Y0028720D01*
X0035456Y0028791D01*
X0035450Y0028862D01*
X0035448Y0028933D01*
M02*
