G75*
%MOIN*%
%OFA0B0*%
%FSLAX25Y25*%
%IPPOS*%
%LPD*%
%AMOC8*
5,1,8,0,0,1.08239X$1,22.5*
%
%ADD10C,0.00600*%
%ADD11C,0.00000*%
%ADD12C,0.00400*%
%ADD13C,0.00500*%
%ADD14R,0.02400X0.03400*%
%ADD15R,0.05512X0.02559*%
D10*
X0016728Y0013933D02*
X0046728Y0013933D01*
X0046728Y0023933D01*
X0041728Y0023933D01*
X0041728Y0033933D02*
X0041728Y0378933D01*
X0031728Y0393933D01*
X0021728Y0378933D01*
X0021728Y0033933D01*
X0021728Y0023933D02*
X0016728Y0023933D01*
X0016728Y0013933D01*
X0021728Y0023933D02*
X0021730Y0024073D01*
X0021736Y0024213D01*
X0021746Y0024353D01*
X0021759Y0024493D01*
X0021777Y0024632D01*
X0021799Y0024771D01*
X0021824Y0024908D01*
X0021853Y0025046D01*
X0021886Y0025182D01*
X0021923Y0025317D01*
X0021964Y0025451D01*
X0022009Y0025584D01*
X0022057Y0025716D01*
X0022109Y0025846D01*
X0022164Y0025975D01*
X0022223Y0026102D01*
X0022286Y0026228D01*
X0022352Y0026352D01*
X0022421Y0026473D01*
X0022494Y0026593D01*
X0022571Y0026711D01*
X0022650Y0026826D01*
X0022733Y0026940D01*
X0022819Y0027050D01*
X0022908Y0027159D01*
X0023000Y0027265D01*
X0023095Y0027368D01*
X0023192Y0027469D01*
X0023293Y0027566D01*
X0023396Y0027661D01*
X0023502Y0027753D01*
X0023611Y0027842D01*
X0023721Y0027928D01*
X0023835Y0028011D01*
X0023950Y0028090D01*
X0024068Y0028167D01*
X0024188Y0028240D01*
X0024309Y0028309D01*
X0024433Y0028375D01*
X0024559Y0028438D01*
X0024686Y0028497D01*
X0024815Y0028552D01*
X0024945Y0028604D01*
X0025077Y0028652D01*
X0025210Y0028697D01*
X0025344Y0028738D01*
X0025479Y0028775D01*
X0025615Y0028808D01*
X0025753Y0028837D01*
X0025890Y0028862D01*
X0026029Y0028884D01*
X0026168Y0028902D01*
X0026308Y0028915D01*
X0026448Y0028925D01*
X0026588Y0028931D01*
X0026728Y0028933D01*
X0036728Y0028933D01*
X0036868Y0028931D01*
X0037008Y0028925D01*
X0037148Y0028915D01*
X0037288Y0028902D01*
X0037427Y0028884D01*
X0037566Y0028862D01*
X0037703Y0028837D01*
X0037841Y0028808D01*
X0037977Y0028775D01*
X0038112Y0028738D01*
X0038246Y0028697D01*
X0038379Y0028652D01*
X0038511Y0028604D01*
X0038641Y0028552D01*
X0038770Y0028497D01*
X0038897Y0028438D01*
X0039023Y0028375D01*
X0039147Y0028309D01*
X0039268Y0028240D01*
X0039388Y0028167D01*
X0039506Y0028090D01*
X0039621Y0028011D01*
X0039735Y0027928D01*
X0039845Y0027842D01*
X0039954Y0027753D01*
X0040060Y0027661D01*
X0040163Y0027566D01*
X0040264Y0027469D01*
X0040361Y0027368D01*
X0040456Y0027265D01*
X0040548Y0027159D01*
X0040637Y0027050D01*
X0040723Y0026940D01*
X0040806Y0026826D01*
X0040885Y0026711D01*
X0040962Y0026593D01*
X0041035Y0026473D01*
X0041104Y0026352D01*
X0041170Y0026228D01*
X0041233Y0026102D01*
X0041292Y0025975D01*
X0041347Y0025846D01*
X0041399Y0025716D01*
X0041447Y0025584D01*
X0041492Y0025451D01*
X0041533Y0025317D01*
X0041570Y0025182D01*
X0041603Y0025046D01*
X0041632Y0024908D01*
X0041657Y0024771D01*
X0041679Y0024632D01*
X0041697Y0024493D01*
X0041710Y0024353D01*
X0041720Y0024213D01*
X0041726Y0024073D01*
X0041728Y0023933D01*
X0036728Y0028933D02*
X0036868Y0028935D01*
X0037008Y0028941D01*
X0037148Y0028951D01*
X0037288Y0028964D01*
X0037427Y0028982D01*
X0037566Y0029004D01*
X0037703Y0029029D01*
X0037841Y0029058D01*
X0037977Y0029091D01*
X0038112Y0029128D01*
X0038246Y0029169D01*
X0038379Y0029214D01*
X0038511Y0029262D01*
X0038641Y0029314D01*
X0038770Y0029369D01*
X0038897Y0029428D01*
X0039023Y0029491D01*
X0039147Y0029557D01*
X0039268Y0029626D01*
X0039388Y0029699D01*
X0039506Y0029776D01*
X0039621Y0029855D01*
X0039735Y0029938D01*
X0039845Y0030024D01*
X0039954Y0030113D01*
X0040060Y0030205D01*
X0040163Y0030300D01*
X0040264Y0030397D01*
X0040361Y0030498D01*
X0040456Y0030601D01*
X0040548Y0030707D01*
X0040637Y0030816D01*
X0040723Y0030926D01*
X0040806Y0031040D01*
X0040885Y0031155D01*
X0040962Y0031273D01*
X0041035Y0031393D01*
X0041104Y0031514D01*
X0041170Y0031638D01*
X0041233Y0031764D01*
X0041292Y0031891D01*
X0041347Y0032020D01*
X0041399Y0032150D01*
X0041447Y0032282D01*
X0041492Y0032415D01*
X0041533Y0032549D01*
X0041570Y0032684D01*
X0041603Y0032820D01*
X0041632Y0032958D01*
X0041657Y0033095D01*
X0041679Y0033234D01*
X0041697Y0033373D01*
X0041710Y0033513D01*
X0041720Y0033653D01*
X0041726Y0033793D01*
X0041728Y0033933D01*
X0026728Y0028933D02*
X0026588Y0028935D01*
X0026448Y0028941D01*
X0026308Y0028951D01*
X0026168Y0028964D01*
X0026029Y0028982D01*
X0025890Y0029004D01*
X0025753Y0029029D01*
X0025615Y0029058D01*
X0025479Y0029091D01*
X0025344Y0029128D01*
X0025210Y0029169D01*
X0025077Y0029214D01*
X0024945Y0029262D01*
X0024815Y0029314D01*
X0024686Y0029369D01*
X0024559Y0029428D01*
X0024433Y0029491D01*
X0024309Y0029557D01*
X0024188Y0029626D01*
X0024068Y0029699D01*
X0023950Y0029776D01*
X0023835Y0029855D01*
X0023721Y0029938D01*
X0023611Y0030024D01*
X0023502Y0030113D01*
X0023396Y0030205D01*
X0023293Y0030300D01*
X0023192Y0030397D01*
X0023095Y0030498D01*
X0023000Y0030601D01*
X0022908Y0030707D01*
X0022819Y0030816D01*
X0022733Y0030926D01*
X0022650Y0031040D01*
X0022571Y0031155D01*
X0022494Y0031273D01*
X0022421Y0031393D01*
X0022352Y0031514D01*
X0022286Y0031638D01*
X0022223Y0031764D01*
X0022164Y0031891D01*
X0022109Y0032020D01*
X0022057Y0032150D01*
X0022009Y0032282D01*
X0021964Y0032415D01*
X0021923Y0032549D01*
X0021886Y0032684D01*
X0021853Y0032820D01*
X0021824Y0032958D01*
X0021799Y0033095D01*
X0021777Y0033234D01*
X0021759Y0033373D01*
X0021746Y0033513D01*
X0021736Y0033653D01*
X0021730Y0033793D01*
X0021728Y0033933D01*
X0021728Y0123933D02*
X0041728Y0123933D01*
X0041728Y0163933D02*
X0021728Y0163933D01*
X0022028Y0165655D02*
X0025584Y0165655D01*
X0024517Y0164233D02*
X0024517Y0167078D01*
X0031205Y0165122D02*
X0031265Y0165249D01*
X0031321Y0165378D01*
X0031374Y0165508D01*
X0031424Y0165640D01*
X0031470Y0165773D01*
X0031512Y0165907D01*
X0031551Y0166042D01*
X0031587Y0166179D01*
X0031618Y0166316D01*
X0031646Y0166454D01*
X0031671Y0166592D01*
X0031691Y0166731D01*
X0031708Y0166871D01*
X0031721Y0167011D01*
X0031730Y0167152D01*
X0031736Y0167292D01*
X0031738Y0167433D01*
X0031382Y0169211D02*
X0028538Y0165655D01*
X0029960Y0164233D02*
X0030031Y0164235D01*
X0030102Y0164241D01*
X0030172Y0164250D01*
X0030242Y0164264D01*
X0030311Y0164281D01*
X0030378Y0164301D01*
X0030445Y0164326D01*
X0030510Y0164354D01*
X0030574Y0164385D01*
X0030636Y0164420D01*
X0030696Y0164458D01*
X0030753Y0164499D01*
X0030809Y0164543D01*
X0030862Y0164591D01*
X0030912Y0164641D01*
X0030960Y0164693D01*
X0031005Y0164748D01*
X0031046Y0164806D01*
X0031085Y0164866D01*
X0031120Y0164927D01*
X0031152Y0164991D01*
X0031180Y0165056D01*
X0031205Y0165122D01*
X0029960Y0164233D02*
X0029889Y0164235D01*
X0029818Y0164241D01*
X0029748Y0164250D01*
X0029678Y0164264D01*
X0029609Y0164281D01*
X0029542Y0164301D01*
X0029475Y0164326D01*
X0029410Y0164354D01*
X0029346Y0164385D01*
X0029284Y0164420D01*
X0029224Y0164458D01*
X0029166Y0164499D01*
X0029111Y0164543D01*
X0029058Y0164591D01*
X0029008Y0164641D01*
X0028960Y0164693D01*
X0028915Y0164748D01*
X0028874Y0164806D01*
X0028835Y0164866D01*
X0028800Y0164927D01*
X0028768Y0164991D01*
X0028740Y0165056D01*
X0028715Y0165122D01*
X0031205Y0169745D02*
X0031180Y0169811D01*
X0031152Y0169876D01*
X0031120Y0169940D01*
X0031085Y0170001D01*
X0031046Y0170061D01*
X0031005Y0170119D01*
X0030960Y0170174D01*
X0030912Y0170226D01*
X0030862Y0170276D01*
X0030809Y0170324D01*
X0030754Y0170368D01*
X0030696Y0170409D01*
X0030636Y0170447D01*
X0030574Y0170482D01*
X0030510Y0170513D01*
X0030445Y0170541D01*
X0030378Y0170566D01*
X0030311Y0170586D01*
X0030242Y0170603D01*
X0030172Y0170617D01*
X0030102Y0170626D01*
X0030031Y0170632D01*
X0029960Y0170634D01*
X0029889Y0170632D01*
X0029818Y0170626D01*
X0029748Y0170617D01*
X0029678Y0170603D01*
X0029609Y0170586D01*
X0029542Y0170566D01*
X0029475Y0170541D01*
X0029410Y0170513D01*
X0029346Y0170482D01*
X0029284Y0170447D01*
X0029224Y0170409D01*
X0029166Y0170368D01*
X0029111Y0170324D01*
X0029058Y0170276D01*
X0029008Y0170226D01*
X0028960Y0170174D01*
X0028915Y0170119D01*
X0028874Y0170061D01*
X0028835Y0170001D01*
X0028800Y0169940D01*
X0028768Y0169876D01*
X0028740Y0169811D01*
X0028715Y0169745D01*
X0031205Y0169744D02*
X0031265Y0169617D01*
X0031321Y0169488D01*
X0031374Y0169358D01*
X0031424Y0169226D01*
X0031470Y0169093D01*
X0031512Y0168959D01*
X0031551Y0168824D01*
X0031587Y0168687D01*
X0031618Y0168550D01*
X0031646Y0168412D01*
X0031671Y0168274D01*
X0031691Y0168135D01*
X0031708Y0167995D01*
X0031721Y0167855D01*
X0031730Y0167714D01*
X0031736Y0167574D01*
X0031738Y0167433D01*
X0028182Y0167433D02*
X0028184Y0167574D01*
X0028190Y0167714D01*
X0028199Y0167855D01*
X0028212Y0167995D01*
X0028229Y0168135D01*
X0028249Y0168274D01*
X0028274Y0168412D01*
X0028302Y0168550D01*
X0028333Y0168687D01*
X0028369Y0168824D01*
X0028408Y0168959D01*
X0028450Y0169093D01*
X0028496Y0169226D01*
X0028546Y0169358D01*
X0028599Y0169488D01*
X0028655Y0169617D01*
X0028715Y0169744D01*
X0028228Y0186433D02*
X0035228Y0186433D01*
X0035288Y0186435D01*
X0035349Y0186440D01*
X0035408Y0186449D01*
X0035467Y0186462D01*
X0035526Y0186478D01*
X0035583Y0186498D01*
X0035638Y0186521D01*
X0035693Y0186548D01*
X0035745Y0186577D01*
X0035796Y0186610D01*
X0035845Y0186646D01*
X0035891Y0186684D01*
X0035935Y0186726D01*
X0035977Y0186770D01*
X0036015Y0186816D01*
X0036051Y0186865D01*
X0036084Y0186916D01*
X0036113Y0186968D01*
X0036140Y0187023D01*
X0036163Y0187078D01*
X0036183Y0187135D01*
X0036199Y0187194D01*
X0036212Y0187253D01*
X0036221Y0187312D01*
X0036226Y0187373D01*
X0036228Y0187433D01*
X0036228Y0188933D01*
X0035728Y0189433D01*
X0035728Y0208433D01*
X0036228Y0208933D01*
X0036228Y0210433D01*
X0036226Y0210493D01*
X0036221Y0210554D01*
X0036212Y0210613D01*
X0036199Y0210672D01*
X0036183Y0210731D01*
X0036163Y0210788D01*
X0036140Y0210843D01*
X0036113Y0210898D01*
X0036084Y0210950D01*
X0036051Y0211001D01*
X0036015Y0211050D01*
X0035977Y0211096D01*
X0035935Y0211140D01*
X0035891Y0211182D01*
X0035845Y0211220D01*
X0035796Y0211256D01*
X0035745Y0211289D01*
X0035693Y0211318D01*
X0035638Y0211345D01*
X0035583Y0211368D01*
X0035526Y0211388D01*
X0035467Y0211404D01*
X0035408Y0211417D01*
X0035349Y0211426D01*
X0035288Y0211431D01*
X0035228Y0211433D01*
X0028228Y0211433D01*
X0028168Y0211431D01*
X0028107Y0211426D01*
X0028048Y0211417D01*
X0027989Y0211404D01*
X0027930Y0211388D01*
X0027873Y0211368D01*
X0027818Y0211345D01*
X0027763Y0211318D01*
X0027711Y0211289D01*
X0027660Y0211256D01*
X0027611Y0211220D01*
X0027565Y0211182D01*
X0027521Y0211140D01*
X0027479Y0211096D01*
X0027441Y0211050D01*
X0027405Y0211001D01*
X0027372Y0210950D01*
X0027343Y0210898D01*
X0027316Y0210843D01*
X0027293Y0210788D01*
X0027273Y0210731D01*
X0027257Y0210672D01*
X0027244Y0210613D01*
X0027235Y0210554D01*
X0027230Y0210493D01*
X0027228Y0210433D01*
X0027228Y0208933D01*
X0027728Y0208433D01*
X0027728Y0189433D01*
X0027228Y0188933D01*
X0027228Y0187433D01*
X0027230Y0187373D01*
X0027235Y0187312D01*
X0027244Y0187253D01*
X0027257Y0187194D01*
X0027273Y0187135D01*
X0027293Y0187078D01*
X0027316Y0187023D01*
X0027343Y0186968D01*
X0027372Y0186916D01*
X0027405Y0186865D01*
X0027441Y0186816D01*
X0027479Y0186770D01*
X0027521Y0186726D01*
X0027565Y0186684D01*
X0027611Y0186646D01*
X0027660Y0186610D01*
X0027711Y0186577D01*
X0027763Y0186548D01*
X0027818Y0186521D01*
X0027873Y0186498D01*
X0027930Y0186478D01*
X0027989Y0186462D01*
X0028048Y0186449D01*
X0028107Y0186440D01*
X0028168Y0186435D01*
X0028228Y0186433D01*
X0029960Y0204233D02*
X0029889Y0204235D01*
X0029818Y0204241D01*
X0029748Y0204250D01*
X0029678Y0204264D01*
X0029609Y0204281D01*
X0029542Y0204301D01*
X0029475Y0204326D01*
X0029410Y0204354D01*
X0029346Y0204385D01*
X0029284Y0204420D01*
X0029224Y0204458D01*
X0029166Y0204499D01*
X0029111Y0204543D01*
X0029058Y0204591D01*
X0029008Y0204641D01*
X0028960Y0204693D01*
X0028915Y0204748D01*
X0028874Y0204806D01*
X0028835Y0204866D01*
X0028800Y0204927D01*
X0028768Y0204991D01*
X0028740Y0205056D01*
X0028715Y0205122D01*
X0028538Y0205655D02*
X0031382Y0209211D01*
X0031205Y0209745D02*
X0031180Y0209811D01*
X0031152Y0209876D01*
X0031120Y0209940D01*
X0031085Y0210001D01*
X0031046Y0210061D01*
X0031005Y0210119D01*
X0030960Y0210174D01*
X0030912Y0210226D01*
X0030862Y0210276D01*
X0030809Y0210324D01*
X0030754Y0210368D01*
X0030696Y0210409D01*
X0030636Y0210447D01*
X0030574Y0210482D01*
X0030510Y0210513D01*
X0030445Y0210541D01*
X0030378Y0210566D01*
X0030311Y0210586D01*
X0030242Y0210603D01*
X0030172Y0210617D01*
X0030102Y0210626D01*
X0030031Y0210632D01*
X0029960Y0210634D01*
X0029889Y0210632D01*
X0029818Y0210626D01*
X0029748Y0210617D01*
X0029678Y0210603D01*
X0029609Y0210586D01*
X0029542Y0210566D01*
X0029475Y0210541D01*
X0029410Y0210513D01*
X0029346Y0210482D01*
X0029284Y0210447D01*
X0029224Y0210409D01*
X0029166Y0210368D01*
X0029111Y0210324D01*
X0029058Y0210276D01*
X0029008Y0210226D01*
X0028960Y0210174D01*
X0028915Y0210119D01*
X0028874Y0210061D01*
X0028835Y0210001D01*
X0028800Y0209940D01*
X0028768Y0209876D01*
X0028740Y0209811D01*
X0028715Y0209745D01*
X0031205Y0205122D02*
X0031180Y0205056D01*
X0031152Y0204991D01*
X0031120Y0204927D01*
X0031085Y0204866D01*
X0031046Y0204806D01*
X0031005Y0204748D01*
X0030960Y0204693D01*
X0030912Y0204641D01*
X0030862Y0204591D01*
X0030809Y0204543D01*
X0030753Y0204499D01*
X0030696Y0204458D01*
X0030636Y0204420D01*
X0030574Y0204385D01*
X0030510Y0204354D01*
X0030445Y0204326D01*
X0030378Y0204301D01*
X0030311Y0204281D01*
X0030242Y0204264D01*
X0030172Y0204250D01*
X0030102Y0204241D01*
X0030031Y0204235D01*
X0029960Y0204233D01*
X0031738Y0207433D02*
X0031736Y0207574D01*
X0031730Y0207714D01*
X0031721Y0207855D01*
X0031708Y0207995D01*
X0031691Y0208135D01*
X0031671Y0208274D01*
X0031646Y0208412D01*
X0031618Y0208550D01*
X0031587Y0208687D01*
X0031551Y0208824D01*
X0031512Y0208959D01*
X0031470Y0209093D01*
X0031424Y0209226D01*
X0031374Y0209358D01*
X0031321Y0209488D01*
X0031265Y0209617D01*
X0031205Y0209744D01*
X0028715Y0209744D02*
X0028655Y0209617D01*
X0028599Y0209488D01*
X0028546Y0209358D01*
X0028496Y0209226D01*
X0028450Y0209093D01*
X0028408Y0208959D01*
X0028369Y0208824D01*
X0028333Y0208687D01*
X0028302Y0208550D01*
X0028274Y0208412D01*
X0028249Y0208274D01*
X0028229Y0208135D01*
X0028212Y0207995D01*
X0028199Y0207855D01*
X0028190Y0207714D01*
X0028184Y0207574D01*
X0028182Y0207433D01*
X0031738Y0207433D02*
X0031736Y0207292D01*
X0031730Y0207152D01*
X0031721Y0207011D01*
X0031708Y0206871D01*
X0031691Y0206731D01*
X0031671Y0206592D01*
X0031646Y0206454D01*
X0031618Y0206316D01*
X0031587Y0206179D01*
X0031551Y0206042D01*
X0031512Y0205907D01*
X0031470Y0205773D01*
X0031424Y0205640D01*
X0031374Y0205508D01*
X0031321Y0205378D01*
X0031265Y0205249D01*
X0031205Y0205122D01*
X0028716Y0205122D02*
X0028656Y0205249D01*
X0028600Y0205378D01*
X0028547Y0205508D01*
X0028497Y0205640D01*
X0028451Y0205773D01*
X0028409Y0205907D01*
X0028370Y0206042D01*
X0028334Y0206179D01*
X0028303Y0206316D01*
X0028275Y0206454D01*
X0028250Y0206592D01*
X0028230Y0206731D01*
X0028213Y0206871D01*
X0028200Y0207011D01*
X0028191Y0207152D01*
X0028185Y0207292D01*
X0028183Y0207433D01*
X0024162Y0207789D02*
X0022739Y0207789D01*
X0022028Y0210633D02*
X0024162Y0210633D01*
X0024236Y0210631D01*
X0024311Y0210625D01*
X0024384Y0210615D01*
X0024458Y0210602D01*
X0024530Y0210585D01*
X0024601Y0210563D01*
X0024672Y0210539D01*
X0024740Y0210510D01*
X0024808Y0210478D01*
X0024873Y0210442D01*
X0024936Y0210404D01*
X0024998Y0210361D01*
X0025057Y0210316D01*
X0025114Y0210268D01*
X0025168Y0210217D01*
X0025219Y0210163D01*
X0025267Y0210106D01*
X0025312Y0210047D01*
X0025355Y0209985D01*
X0025393Y0209922D01*
X0025429Y0209857D01*
X0025461Y0209789D01*
X0025490Y0209721D01*
X0025514Y0209650D01*
X0025536Y0209579D01*
X0025553Y0209507D01*
X0025566Y0209433D01*
X0025576Y0209360D01*
X0025582Y0209285D01*
X0025584Y0209211D01*
X0025582Y0209137D01*
X0025576Y0209062D01*
X0025566Y0208989D01*
X0025553Y0208915D01*
X0025536Y0208843D01*
X0025514Y0208772D01*
X0025490Y0208701D01*
X0025461Y0208633D01*
X0025429Y0208565D01*
X0025393Y0208500D01*
X0025355Y0208437D01*
X0025312Y0208375D01*
X0025267Y0208316D01*
X0025219Y0208259D01*
X0025168Y0208205D01*
X0025114Y0208154D01*
X0025057Y0208106D01*
X0024998Y0208061D01*
X0024936Y0208018D01*
X0024873Y0207980D01*
X0024808Y0207944D01*
X0024740Y0207912D01*
X0024672Y0207883D01*
X0024601Y0207859D01*
X0024530Y0207837D01*
X0024458Y0207820D01*
X0024384Y0207807D01*
X0024311Y0207797D01*
X0024236Y0207791D01*
X0024162Y0207789D01*
X0023806Y0207789D02*
X0023889Y0207787D01*
X0023972Y0207781D01*
X0024055Y0207771D01*
X0024138Y0207758D01*
X0024219Y0207740D01*
X0024300Y0207719D01*
X0024379Y0207694D01*
X0024457Y0207665D01*
X0024534Y0207633D01*
X0024609Y0207597D01*
X0024683Y0207558D01*
X0024754Y0207515D01*
X0024824Y0207469D01*
X0024891Y0207419D01*
X0024956Y0207367D01*
X0025018Y0207312D01*
X0025078Y0207253D01*
X0025135Y0207192D01*
X0025189Y0207129D01*
X0025240Y0207063D01*
X0025287Y0206994D01*
X0025332Y0206924D01*
X0025373Y0206851D01*
X0025410Y0206777D01*
X0025445Y0206701D01*
X0025475Y0206623D01*
X0025502Y0206545D01*
X0025525Y0206464D01*
X0025545Y0206383D01*
X0025560Y0206301D01*
X0025572Y0206219D01*
X0025580Y0206136D01*
X0025584Y0206053D01*
X0025584Y0205969D01*
X0025580Y0205886D01*
X0025572Y0205803D01*
X0025560Y0205721D01*
X0025545Y0205639D01*
X0025525Y0205558D01*
X0025502Y0205477D01*
X0025475Y0205399D01*
X0025445Y0205321D01*
X0025410Y0205245D01*
X0025373Y0205171D01*
X0025332Y0205098D01*
X0025287Y0205028D01*
X0025240Y0204959D01*
X0025189Y0204893D01*
X0025135Y0204830D01*
X0025078Y0204769D01*
X0025018Y0204710D01*
X0024956Y0204655D01*
X0024891Y0204603D01*
X0024824Y0204553D01*
X0024754Y0204507D01*
X0024683Y0204464D01*
X0024609Y0204425D01*
X0024534Y0204389D01*
X0024457Y0204357D01*
X0024379Y0204328D01*
X0024300Y0204303D01*
X0024219Y0204282D01*
X0024138Y0204264D01*
X0024055Y0204251D01*
X0023972Y0204241D01*
X0023889Y0204235D01*
X0023806Y0204233D01*
X0022028Y0204233D01*
X0021728Y0203933D02*
X0041728Y0203933D01*
X0041728Y0243933D02*
X0021728Y0243933D01*
X0021728Y0283933D02*
X0041728Y0283933D01*
X0038538Y0285655D02*
X0041382Y0289211D01*
X0041205Y0289745D02*
X0041180Y0289811D01*
X0041152Y0289876D01*
X0041120Y0289940D01*
X0041085Y0290001D01*
X0041046Y0290061D01*
X0041005Y0290119D01*
X0040960Y0290174D01*
X0040912Y0290226D01*
X0040862Y0290276D01*
X0040809Y0290324D01*
X0040754Y0290368D01*
X0040696Y0290409D01*
X0040636Y0290447D01*
X0040574Y0290482D01*
X0040510Y0290513D01*
X0040445Y0290541D01*
X0040378Y0290566D01*
X0040311Y0290586D01*
X0040242Y0290603D01*
X0040172Y0290617D01*
X0040102Y0290626D01*
X0040031Y0290632D01*
X0039960Y0290634D01*
X0039889Y0290632D01*
X0039818Y0290626D01*
X0039748Y0290617D01*
X0039678Y0290603D01*
X0039609Y0290586D01*
X0039542Y0290566D01*
X0039475Y0290541D01*
X0039410Y0290513D01*
X0039346Y0290482D01*
X0039284Y0290447D01*
X0039224Y0290409D01*
X0039166Y0290368D01*
X0039111Y0290324D01*
X0039058Y0290276D01*
X0039008Y0290226D01*
X0038960Y0290174D01*
X0038915Y0290119D01*
X0038874Y0290061D01*
X0038835Y0290001D01*
X0038800Y0289940D01*
X0038768Y0289876D01*
X0038740Y0289811D01*
X0038715Y0289745D01*
X0041205Y0285122D02*
X0041180Y0285056D01*
X0041152Y0284991D01*
X0041120Y0284927D01*
X0041085Y0284866D01*
X0041046Y0284806D01*
X0041005Y0284748D01*
X0040960Y0284693D01*
X0040912Y0284641D01*
X0040862Y0284591D01*
X0040809Y0284543D01*
X0040753Y0284499D01*
X0040696Y0284458D01*
X0040636Y0284420D01*
X0040574Y0284385D01*
X0040510Y0284354D01*
X0040445Y0284326D01*
X0040378Y0284301D01*
X0040311Y0284281D01*
X0040242Y0284264D01*
X0040172Y0284250D01*
X0040102Y0284241D01*
X0040031Y0284235D01*
X0039960Y0284233D01*
X0039889Y0284235D01*
X0039818Y0284241D01*
X0039748Y0284250D01*
X0039678Y0284264D01*
X0039609Y0284281D01*
X0039542Y0284301D01*
X0039475Y0284326D01*
X0039410Y0284354D01*
X0039346Y0284385D01*
X0039284Y0284420D01*
X0039224Y0284458D01*
X0039166Y0284499D01*
X0039111Y0284543D01*
X0039058Y0284591D01*
X0039008Y0284641D01*
X0038960Y0284693D01*
X0038915Y0284748D01*
X0038874Y0284806D01*
X0038835Y0284866D01*
X0038800Y0284927D01*
X0038768Y0284991D01*
X0038740Y0285056D01*
X0038715Y0285122D01*
X0041738Y0287433D02*
X0041736Y0287574D01*
X0041730Y0287714D01*
X0041721Y0287855D01*
X0041708Y0287995D01*
X0041691Y0288135D01*
X0041671Y0288274D01*
X0041646Y0288412D01*
X0041618Y0288550D01*
X0041587Y0288687D01*
X0041551Y0288824D01*
X0041512Y0288959D01*
X0041470Y0289093D01*
X0041424Y0289226D01*
X0041374Y0289358D01*
X0041321Y0289488D01*
X0041265Y0289617D01*
X0041205Y0289744D01*
X0038715Y0289744D02*
X0038655Y0289617D01*
X0038599Y0289488D01*
X0038546Y0289358D01*
X0038496Y0289226D01*
X0038450Y0289093D01*
X0038408Y0288959D01*
X0038369Y0288824D01*
X0038333Y0288687D01*
X0038302Y0288550D01*
X0038274Y0288412D01*
X0038249Y0288274D01*
X0038229Y0288135D01*
X0038212Y0287995D01*
X0038199Y0287855D01*
X0038190Y0287714D01*
X0038184Y0287574D01*
X0038182Y0287433D01*
X0041738Y0287433D02*
X0041736Y0287292D01*
X0041730Y0287152D01*
X0041721Y0287011D01*
X0041708Y0286871D01*
X0041691Y0286731D01*
X0041671Y0286592D01*
X0041646Y0286454D01*
X0041618Y0286316D01*
X0041587Y0286179D01*
X0041551Y0286042D01*
X0041512Y0285907D01*
X0041470Y0285773D01*
X0041424Y0285640D01*
X0041374Y0285508D01*
X0041321Y0285378D01*
X0041265Y0285249D01*
X0041205Y0285122D01*
X0038716Y0285122D02*
X0038656Y0285249D01*
X0038600Y0285378D01*
X0038547Y0285508D01*
X0038497Y0285640D01*
X0038451Y0285773D01*
X0038409Y0285907D01*
X0038370Y0286042D01*
X0038334Y0286179D01*
X0038303Y0286316D01*
X0038275Y0286454D01*
X0038250Y0286592D01*
X0038230Y0286731D01*
X0038213Y0286871D01*
X0038200Y0287011D01*
X0038191Y0287152D01*
X0038185Y0287292D01*
X0038183Y0287433D01*
X0035584Y0284233D02*
X0032028Y0284233D01*
X0032028Y0289211D02*
X0033806Y0290633D01*
X0033806Y0284233D01*
X0035584Y0249033D02*
X0035582Y0248951D01*
X0035576Y0248869D01*
X0035566Y0248788D01*
X0035553Y0248707D01*
X0035535Y0248627D01*
X0035514Y0248548D01*
X0035489Y0248470D01*
X0035461Y0248394D01*
X0035428Y0248318D01*
X0035393Y0248245D01*
X0035353Y0248173D01*
X0035311Y0248103D01*
X0035265Y0248035D01*
X0035216Y0247970D01*
X0035164Y0247907D01*
X0035108Y0247846D01*
X0035051Y0247788D01*
X0035051Y0247789D02*
X0032028Y0244233D01*
X0035584Y0244233D01*
X0041205Y0245122D02*
X0041265Y0245249D01*
X0041321Y0245378D01*
X0041374Y0245508D01*
X0041424Y0245640D01*
X0041470Y0245773D01*
X0041512Y0245907D01*
X0041551Y0246042D01*
X0041587Y0246179D01*
X0041618Y0246316D01*
X0041646Y0246454D01*
X0041671Y0246592D01*
X0041691Y0246731D01*
X0041708Y0246871D01*
X0041721Y0247011D01*
X0041730Y0247152D01*
X0041736Y0247292D01*
X0041738Y0247433D01*
X0041382Y0249211D02*
X0038538Y0245655D01*
X0039960Y0244233D02*
X0040031Y0244235D01*
X0040102Y0244241D01*
X0040172Y0244250D01*
X0040242Y0244264D01*
X0040311Y0244281D01*
X0040378Y0244301D01*
X0040445Y0244326D01*
X0040510Y0244354D01*
X0040574Y0244385D01*
X0040636Y0244420D01*
X0040696Y0244458D01*
X0040753Y0244499D01*
X0040809Y0244543D01*
X0040862Y0244591D01*
X0040912Y0244641D01*
X0040960Y0244693D01*
X0041005Y0244748D01*
X0041046Y0244806D01*
X0041085Y0244866D01*
X0041120Y0244927D01*
X0041152Y0244991D01*
X0041180Y0245056D01*
X0041205Y0245122D01*
X0039960Y0244233D02*
X0039889Y0244235D01*
X0039818Y0244241D01*
X0039748Y0244250D01*
X0039678Y0244264D01*
X0039609Y0244281D01*
X0039542Y0244301D01*
X0039475Y0244326D01*
X0039410Y0244354D01*
X0039346Y0244385D01*
X0039284Y0244420D01*
X0039224Y0244458D01*
X0039166Y0244499D01*
X0039111Y0244543D01*
X0039058Y0244591D01*
X0039008Y0244641D01*
X0038960Y0244693D01*
X0038915Y0244748D01*
X0038874Y0244806D01*
X0038835Y0244866D01*
X0038800Y0244927D01*
X0038768Y0244991D01*
X0038740Y0245056D01*
X0038715Y0245122D01*
X0041205Y0249745D02*
X0041180Y0249811D01*
X0041152Y0249876D01*
X0041120Y0249940D01*
X0041085Y0250001D01*
X0041046Y0250061D01*
X0041005Y0250119D01*
X0040960Y0250174D01*
X0040912Y0250226D01*
X0040862Y0250276D01*
X0040809Y0250324D01*
X0040754Y0250368D01*
X0040696Y0250409D01*
X0040636Y0250447D01*
X0040574Y0250482D01*
X0040510Y0250513D01*
X0040445Y0250541D01*
X0040378Y0250566D01*
X0040311Y0250586D01*
X0040242Y0250603D01*
X0040172Y0250617D01*
X0040102Y0250626D01*
X0040031Y0250632D01*
X0039960Y0250634D01*
X0039889Y0250632D01*
X0039818Y0250626D01*
X0039748Y0250617D01*
X0039678Y0250603D01*
X0039609Y0250586D01*
X0039542Y0250566D01*
X0039475Y0250541D01*
X0039410Y0250513D01*
X0039346Y0250482D01*
X0039284Y0250447D01*
X0039224Y0250409D01*
X0039166Y0250368D01*
X0039111Y0250324D01*
X0039058Y0250276D01*
X0039008Y0250226D01*
X0038960Y0250174D01*
X0038915Y0250119D01*
X0038874Y0250061D01*
X0038835Y0250001D01*
X0038800Y0249940D01*
X0038768Y0249876D01*
X0038740Y0249811D01*
X0038715Y0249745D01*
X0041205Y0249744D02*
X0041265Y0249617D01*
X0041321Y0249488D01*
X0041374Y0249358D01*
X0041424Y0249226D01*
X0041470Y0249093D01*
X0041512Y0248959D01*
X0041551Y0248824D01*
X0041587Y0248687D01*
X0041618Y0248550D01*
X0041646Y0248412D01*
X0041671Y0248274D01*
X0041691Y0248135D01*
X0041708Y0247995D01*
X0041721Y0247855D01*
X0041730Y0247714D01*
X0041736Y0247574D01*
X0041738Y0247433D01*
X0038182Y0247433D02*
X0038184Y0247574D01*
X0038190Y0247714D01*
X0038199Y0247855D01*
X0038212Y0247995D01*
X0038229Y0248135D01*
X0038249Y0248274D01*
X0038274Y0248412D01*
X0038302Y0248550D01*
X0038333Y0248687D01*
X0038369Y0248824D01*
X0038408Y0248959D01*
X0038450Y0249093D01*
X0038496Y0249226D01*
X0038546Y0249358D01*
X0038599Y0249488D01*
X0038655Y0249617D01*
X0038715Y0249744D01*
X0038183Y0247433D02*
X0038185Y0247292D01*
X0038191Y0247152D01*
X0038200Y0247011D01*
X0038213Y0246871D01*
X0038230Y0246731D01*
X0038250Y0246592D01*
X0038275Y0246454D01*
X0038303Y0246316D01*
X0038334Y0246179D01*
X0038370Y0246042D01*
X0038409Y0245907D01*
X0038451Y0245773D01*
X0038497Y0245640D01*
X0038547Y0245508D01*
X0038600Y0245378D01*
X0038656Y0245249D01*
X0038716Y0245122D01*
X0033984Y0250634D02*
X0033895Y0250632D01*
X0033806Y0250626D01*
X0033717Y0250617D01*
X0033629Y0250603D01*
X0033542Y0250586D01*
X0033455Y0250565D01*
X0033369Y0250540D01*
X0033285Y0250512D01*
X0033202Y0250479D01*
X0033120Y0250444D01*
X0033040Y0250404D01*
X0032962Y0250362D01*
X0032885Y0250316D01*
X0032811Y0250267D01*
X0032739Y0250214D01*
X0032669Y0250159D01*
X0032602Y0250100D01*
X0032537Y0250039D01*
X0032475Y0249975D01*
X0032416Y0249908D01*
X0032360Y0249839D01*
X0032307Y0249767D01*
X0032257Y0249693D01*
X0032210Y0249617D01*
X0032167Y0249540D01*
X0032127Y0249460D01*
X0032090Y0249379D01*
X0032057Y0249296D01*
X0032028Y0249211D01*
X0033984Y0250633D02*
X0034063Y0250631D01*
X0034141Y0250625D01*
X0034219Y0250616D01*
X0034296Y0250602D01*
X0034373Y0250585D01*
X0034448Y0250564D01*
X0034523Y0250539D01*
X0034596Y0250511D01*
X0034668Y0250479D01*
X0034738Y0250444D01*
X0034807Y0250405D01*
X0034873Y0250363D01*
X0034937Y0250318D01*
X0034999Y0250270D01*
X0035058Y0250219D01*
X0035115Y0250164D01*
X0035170Y0250107D01*
X0035221Y0250048D01*
X0035269Y0249986D01*
X0035314Y0249922D01*
X0035356Y0249856D01*
X0035395Y0249787D01*
X0035430Y0249717D01*
X0035462Y0249645D01*
X0035490Y0249572D01*
X0035515Y0249497D01*
X0035536Y0249422D01*
X0035553Y0249345D01*
X0035567Y0249268D01*
X0035576Y0249190D01*
X0035582Y0249112D01*
X0035584Y0249033D01*
X0041728Y0323933D02*
X0021728Y0323933D01*
X0040051Y0325122D02*
X0040111Y0325249D01*
X0040167Y0325378D01*
X0040220Y0325508D01*
X0040270Y0325640D01*
X0040316Y0325773D01*
X0040358Y0325907D01*
X0040397Y0326042D01*
X0040433Y0326179D01*
X0040464Y0326316D01*
X0040492Y0326454D01*
X0040517Y0326592D01*
X0040537Y0326731D01*
X0040554Y0326871D01*
X0040567Y0327011D01*
X0040576Y0327152D01*
X0040582Y0327292D01*
X0040584Y0327433D01*
X0040228Y0329211D02*
X0037384Y0325655D01*
X0038806Y0324233D02*
X0038877Y0324235D01*
X0038948Y0324241D01*
X0039018Y0324250D01*
X0039088Y0324264D01*
X0039157Y0324281D01*
X0039224Y0324301D01*
X0039291Y0324326D01*
X0039356Y0324354D01*
X0039420Y0324385D01*
X0039482Y0324420D01*
X0039542Y0324458D01*
X0039599Y0324499D01*
X0039655Y0324543D01*
X0039708Y0324591D01*
X0039758Y0324641D01*
X0039806Y0324693D01*
X0039851Y0324748D01*
X0039892Y0324806D01*
X0039931Y0324866D01*
X0039966Y0324927D01*
X0039998Y0324991D01*
X0040026Y0325056D01*
X0040051Y0325122D01*
X0038806Y0324233D02*
X0038735Y0324235D01*
X0038664Y0324241D01*
X0038594Y0324250D01*
X0038524Y0324264D01*
X0038455Y0324281D01*
X0038388Y0324301D01*
X0038321Y0324326D01*
X0038256Y0324354D01*
X0038192Y0324385D01*
X0038130Y0324420D01*
X0038070Y0324458D01*
X0038012Y0324499D01*
X0037957Y0324543D01*
X0037904Y0324591D01*
X0037854Y0324641D01*
X0037806Y0324693D01*
X0037761Y0324748D01*
X0037720Y0324806D01*
X0037681Y0324866D01*
X0037646Y0324927D01*
X0037614Y0324991D01*
X0037586Y0325056D01*
X0037561Y0325122D01*
X0040051Y0329745D02*
X0040026Y0329811D01*
X0039998Y0329876D01*
X0039966Y0329940D01*
X0039931Y0330001D01*
X0039892Y0330061D01*
X0039851Y0330119D01*
X0039806Y0330174D01*
X0039758Y0330226D01*
X0039708Y0330276D01*
X0039655Y0330324D01*
X0039600Y0330368D01*
X0039542Y0330409D01*
X0039482Y0330447D01*
X0039420Y0330482D01*
X0039356Y0330513D01*
X0039291Y0330541D01*
X0039224Y0330566D01*
X0039157Y0330586D01*
X0039088Y0330603D01*
X0039018Y0330617D01*
X0038948Y0330626D01*
X0038877Y0330632D01*
X0038806Y0330634D01*
X0038735Y0330632D01*
X0038664Y0330626D01*
X0038594Y0330617D01*
X0038524Y0330603D01*
X0038455Y0330586D01*
X0038388Y0330566D01*
X0038321Y0330541D01*
X0038256Y0330513D01*
X0038192Y0330482D01*
X0038130Y0330447D01*
X0038070Y0330409D01*
X0038012Y0330368D01*
X0037957Y0330324D01*
X0037904Y0330276D01*
X0037854Y0330226D01*
X0037806Y0330174D01*
X0037761Y0330119D01*
X0037720Y0330061D01*
X0037681Y0330001D01*
X0037646Y0329940D01*
X0037614Y0329876D01*
X0037586Y0329811D01*
X0037561Y0329745D01*
X0040051Y0329744D02*
X0040111Y0329617D01*
X0040167Y0329488D01*
X0040220Y0329358D01*
X0040270Y0329226D01*
X0040316Y0329093D01*
X0040358Y0328959D01*
X0040397Y0328824D01*
X0040433Y0328687D01*
X0040464Y0328550D01*
X0040492Y0328412D01*
X0040517Y0328274D01*
X0040537Y0328135D01*
X0040554Y0327995D01*
X0040567Y0327855D01*
X0040576Y0327714D01*
X0040582Y0327574D01*
X0040584Y0327433D01*
X0037028Y0327433D02*
X0037030Y0327574D01*
X0037036Y0327714D01*
X0037045Y0327855D01*
X0037058Y0327995D01*
X0037075Y0328135D01*
X0037095Y0328274D01*
X0037120Y0328412D01*
X0037148Y0328550D01*
X0037179Y0328687D01*
X0037215Y0328824D01*
X0037254Y0328959D01*
X0037296Y0329093D01*
X0037342Y0329226D01*
X0037392Y0329358D01*
X0037445Y0329488D01*
X0037501Y0329617D01*
X0037561Y0329744D01*
X0037028Y0327433D02*
X0037030Y0327292D01*
X0037036Y0327152D01*
X0037045Y0327011D01*
X0037058Y0326871D01*
X0037075Y0326731D01*
X0037095Y0326592D01*
X0037120Y0326454D01*
X0037148Y0326316D01*
X0037179Y0326179D01*
X0037215Y0326042D01*
X0037254Y0325907D01*
X0037296Y0325773D01*
X0037342Y0325640D01*
X0037392Y0325508D01*
X0037445Y0325378D01*
X0037501Y0325249D01*
X0037561Y0325122D01*
X0023451Y0170633D02*
X0022028Y0165655D01*
X0022028Y0130633D02*
X0025584Y0130633D01*
X0031738Y0127433D02*
X0031736Y0127292D01*
X0031730Y0127152D01*
X0031721Y0127011D01*
X0031708Y0126871D01*
X0031691Y0126731D01*
X0031671Y0126592D01*
X0031646Y0126454D01*
X0031618Y0126316D01*
X0031587Y0126179D01*
X0031551Y0126042D01*
X0031512Y0125907D01*
X0031470Y0125773D01*
X0031424Y0125640D01*
X0031374Y0125508D01*
X0031321Y0125378D01*
X0031265Y0125249D01*
X0031205Y0125122D01*
X0028538Y0125655D02*
X0031382Y0129211D01*
X0031205Y0129745D02*
X0031180Y0129811D01*
X0031152Y0129876D01*
X0031120Y0129940D01*
X0031085Y0130001D01*
X0031046Y0130061D01*
X0031005Y0130119D01*
X0030960Y0130174D01*
X0030912Y0130226D01*
X0030862Y0130276D01*
X0030809Y0130324D01*
X0030754Y0130368D01*
X0030696Y0130409D01*
X0030636Y0130447D01*
X0030574Y0130482D01*
X0030510Y0130513D01*
X0030445Y0130541D01*
X0030378Y0130566D01*
X0030311Y0130586D01*
X0030242Y0130603D01*
X0030172Y0130617D01*
X0030102Y0130626D01*
X0030031Y0130632D01*
X0029960Y0130634D01*
X0029889Y0130632D01*
X0029818Y0130626D01*
X0029748Y0130617D01*
X0029678Y0130603D01*
X0029609Y0130586D01*
X0029542Y0130566D01*
X0029475Y0130541D01*
X0029410Y0130513D01*
X0029346Y0130482D01*
X0029284Y0130447D01*
X0029224Y0130409D01*
X0029166Y0130368D01*
X0029111Y0130324D01*
X0029058Y0130276D01*
X0029008Y0130226D01*
X0028960Y0130174D01*
X0028915Y0130119D01*
X0028874Y0130061D01*
X0028835Y0130001D01*
X0028800Y0129940D01*
X0028768Y0129876D01*
X0028740Y0129811D01*
X0028715Y0129745D01*
X0031205Y0125122D02*
X0031180Y0125056D01*
X0031152Y0124991D01*
X0031120Y0124927D01*
X0031085Y0124866D01*
X0031046Y0124806D01*
X0031005Y0124748D01*
X0030960Y0124693D01*
X0030912Y0124641D01*
X0030862Y0124591D01*
X0030809Y0124543D01*
X0030753Y0124499D01*
X0030696Y0124458D01*
X0030636Y0124420D01*
X0030574Y0124385D01*
X0030510Y0124354D01*
X0030445Y0124326D01*
X0030378Y0124301D01*
X0030311Y0124281D01*
X0030242Y0124264D01*
X0030172Y0124250D01*
X0030102Y0124241D01*
X0030031Y0124235D01*
X0029960Y0124233D01*
X0029889Y0124235D01*
X0029818Y0124241D01*
X0029748Y0124250D01*
X0029678Y0124264D01*
X0029609Y0124281D01*
X0029542Y0124301D01*
X0029475Y0124326D01*
X0029410Y0124354D01*
X0029346Y0124385D01*
X0029284Y0124420D01*
X0029224Y0124458D01*
X0029166Y0124499D01*
X0029111Y0124543D01*
X0029058Y0124591D01*
X0029008Y0124641D01*
X0028960Y0124693D01*
X0028915Y0124748D01*
X0028874Y0124806D01*
X0028835Y0124866D01*
X0028800Y0124927D01*
X0028768Y0124991D01*
X0028740Y0125056D01*
X0028715Y0125122D01*
X0031738Y0127433D02*
X0031736Y0127574D01*
X0031730Y0127714D01*
X0031721Y0127855D01*
X0031708Y0127995D01*
X0031691Y0128135D01*
X0031671Y0128274D01*
X0031646Y0128412D01*
X0031618Y0128550D01*
X0031587Y0128687D01*
X0031551Y0128824D01*
X0031512Y0128959D01*
X0031470Y0129093D01*
X0031424Y0129226D01*
X0031374Y0129358D01*
X0031321Y0129488D01*
X0031265Y0129617D01*
X0031205Y0129744D01*
X0028715Y0129744D02*
X0028655Y0129617D01*
X0028599Y0129488D01*
X0028546Y0129358D01*
X0028496Y0129226D01*
X0028450Y0129093D01*
X0028408Y0128959D01*
X0028369Y0128824D01*
X0028333Y0128687D01*
X0028302Y0128550D01*
X0028274Y0128412D01*
X0028249Y0128274D01*
X0028229Y0128135D01*
X0028212Y0127995D01*
X0028199Y0127855D01*
X0028190Y0127714D01*
X0028184Y0127574D01*
X0028182Y0127433D01*
X0025584Y0126366D02*
X0025584Y0125655D01*
X0025582Y0125581D01*
X0025576Y0125506D01*
X0025566Y0125433D01*
X0025553Y0125359D01*
X0025536Y0125287D01*
X0025514Y0125216D01*
X0025490Y0125145D01*
X0025461Y0125077D01*
X0025429Y0125009D01*
X0025393Y0124944D01*
X0025355Y0124881D01*
X0025312Y0124819D01*
X0025267Y0124760D01*
X0025219Y0124703D01*
X0025168Y0124649D01*
X0025114Y0124598D01*
X0025057Y0124550D01*
X0024998Y0124505D01*
X0024936Y0124462D01*
X0024873Y0124424D01*
X0024808Y0124388D01*
X0024740Y0124356D01*
X0024672Y0124327D01*
X0024601Y0124303D01*
X0024530Y0124281D01*
X0024458Y0124264D01*
X0024384Y0124251D01*
X0024311Y0124241D01*
X0024236Y0124235D01*
X0024162Y0124233D01*
X0022028Y0124233D01*
X0022028Y0127789D02*
X0022028Y0130633D01*
X0022028Y0127789D02*
X0024162Y0127789D01*
X0024162Y0127788D02*
X0024236Y0127786D01*
X0024311Y0127780D01*
X0024384Y0127770D01*
X0024458Y0127757D01*
X0024530Y0127740D01*
X0024601Y0127718D01*
X0024672Y0127694D01*
X0024740Y0127665D01*
X0024808Y0127633D01*
X0024873Y0127597D01*
X0024936Y0127559D01*
X0024998Y0127516D01*
X0025057Y0127471D01*
X0025114Y0127423D01*
X0025168Y0127372D01*
X0025219Y0127318D01*
X0025267Y0127261D01*
X0025312Y0127202D01*
X0025355Y0127140D01*
X0025393Y0127077D01*
X0025429Y0127012D01*
X0025461Y0126944D01*
X0025490Y0126876D01*
X0025514Y0126805D01*
X0025536Y0126734D01*
X0025553Y0126662D01*
X0025566Y0126588D01*
X0025576Y0126515D01*
X0025582Y0126440D01*
X0025584Y0126366D01*
X0028183Y0127433D02*
X0028185Y0127292D01*
X0028191Y0127152D01*
X0028200Y0127011D01*
X0028213Y0126871D01*
X0028230Y0126731D01*
X0028250Y0126592D01*
X0028275Y0126454D01*
X0028303Y0126316D01*
X0028334Y0126179D01*
X0028370Y0126042D01*
X0028409Y0125907D01*
X0028451Y0125773D01*
X0028497Y0125640D01*
X0028547Y0125508D01*
X0028600Y0125378D01*
X0028656Y0125249D01*
X0028716Y0125122D01*
X0028716Y0165122D02*
X0028656Y0165249D01*
X0028600Y0165378D01*
X0028547Y0165508D01*
X0028497Y0165640D01*
X0028451Y0165773D01*
X0028409Y0165907D01*
X0028370Y0166042D01*
X0028334Y0166179D01*
X0028303Y0166316D01*
X0028275Y0166454D01*
X0028250Y0166592D01*
X0028230Y0166731D01*
X0028213Y0166871D01*
X0028200Y0167011D01*
X0028191Y0167152D01*
X0028185Y0167292D01*
X0028183Y0167433D01*
D11*
X0026728Y0036933D02*
X0026730Y0037074D01*
X0026736Y0037215D01*
X0026746Y0037355D01*
X0026760Y0037495D01*
X0026778Y0037635D01*
X0026799Y0037774D01*
X0026825Y0037913D01*
X0026854Y0038051D01*
X0026888Y0038187D01*
X0026925Y0038323D01*
X0026966Y0038458D01*
X0027011Y0038592D01*
X0027060Y0038724D01*
X0027112Y0038855D01*
X0027168Y0038984D01*
X0027228Y0039111D01*
X0027291Y0039237D01*
X0027357Y0039361D01*
X0027428Y0039484D01*
X0027501Y0039604D01*
X0027578Y0039722D01*
X0027658Y0039838D01*
X0027742Y0039951D01*
X0027828Y0040062D01*
X0027918Y0040171D01*
X0028011Y0040277D01*
X0028106Y0040380D01*
X0028205Y0040481D01*
X0028306Y0040579D01*
X0028410Y0040674D01*
X0028517Y0040766D01*
X0028626Y0040855D01*
X0028738Y0040940D01*
X0028852Y0041023D01*
X0028968Y0041103D01*
X0029087Y0041179D01*
X0029208Y0041251D01*
X0029330Y0041321D01*
X0029455Y0041386D01*
X0029581Y0041449D01*
X0029709Y0041507D01*
X0029839Y0041562D01*
X0029970Y0041614D01*
X0030103Y0041661D01*
X0030237Y0041705D01*
X0030372Y0041746D01*
X0030508Y0041782D01*
X0030645Y0041814D01*
X0030783Y0041843D01*
X0030921Y0041868D01*
X0031061Y0041888D01*
X0031201Y0041905D01*
X0031341Y0041918D01*
X0031482Y0041927D01*
X0031622Y0041932D01*
X0031763Y0041933D01*
X0031904Y0041930D01*
X0032045Y0041923D01*
X0032185Y0041912D01*
X0032325Y0041897D01*
X0032465Y0041878D01*
X0032604Y0041856D01*
X0032742Y0041829D01*
X0032880Y0041799D01*
X0033016Y0041764D01*
X0033152Y0041726D01*
X0033286Y0041684D01*
X0033420Y0041638D01*
X0033552Y0041589D01*
X0033682Y0041535D01*
X0033811Y0041478D01*
X0033938Y0041418D01*
X0034064Y0041354D01*
X0034187Y0041286D01*
X0034309Y0041215D01*
X0034429Y0041141D01*
X0034546Y0041063D01*
X0034661Y0040982D01*
X0034774Y0040898D01*
X0034885Y0040811D01*
X0034993Y0040720D01*
X0035098Y0040627D01*
X0035201Y0040530D01*
X0035301Y0040431D01*
X0035398Y0040329D01*
X0035492Y0040224D01*
X0035583Y0040117D01*
X0035671Y0040007D01*
X0035756Y0039895D01*
X0035838Y0039780D01*
X0035917Y0039663D01*
X0035992Y0039544D01*
X0036064Y0039423D01*
X0036132Y0039300D01*
X0036197Y0039175D01*
X0036259Y0039048D01*
X0036316Y0038919D01*
X0036371Y0038789D01*
X0036421Y0038658D01*
X0036468Y0038525D01*
X0036511Y0038391D01*
X0036550Y0038255D01*
X0036585Y0038119D01*
X0036617Y0037982D01*
X0036644Y0037844D01*
X0036668Y0037705D01*
X0036688Y0037565D01*
X0036704Y0037425D01*
X0036716Y0037285D01*
X0036724Y0037144D01*
X0036728Y0037003D01*
X0036728Y0036863D01*
X0036724Y0036722D01*
X0036716Y0036581D01*
X0036704Y0036441D01*
X0036688Y0036301D01*
X0036668Y0036161D01*
X0036644Y0036022D01*
X0036617Y0035884D01*
X0036585Y0035747D01*
X0036550Y0035611D01*
X0036511Y0035475D01*
X0036468Y0035341D01*
X0036421Y0035208D01*
X0036371Y0035077D01*
X0036316Y0034947D01*
X0036259Y0034818D01*
X0036197Y0034691D01*
X0036132Y0034566D01*
X0036064Y0034443D01*
X0035992Y0034322D01*
X0035917Y0034203D01*
X0035838Y0034086D01*
X0035756Y0033971D01*
X0035671Y0033859D01*
X0035583Y0033749D01*
X0035492Y0033642D01*
X0035398Y0033537D01*
X0035301Y0033435D01*
X0035201Y0033336D01*
X0035098Y0033239D01*
X0034993Y0033146D01*
X0034885Y0033055D01*
X0034774Y0032968D01*
X0034661Y0032884D01*
X0034546Y0032803D01*
X0034429Y0032725D01*
X0034309Y0032651D01*
X0034187Y0032580D01*
X0034064Y0032512D01*
X0033938Y0032448D01*
X0033811Y0032388D01*
X0033682Y0032331D01*
X0033552Y0032277D01*
X0033420Y0032228D01*
X0033286Y0032182D01*
X0033152Y0032140D01*
X0033016Y0032102D01*
X0032880Y0032067D01*
X0032742Y0032037D01*
X0032604Y0032010D01*
X0032465Y0031988D01*
X0032325Y0031969D01*
X0032185Y0031954D01*
X0032045Y0031943D01*
X0031904Y0031936D01*
X0031763Y0031933D01*
X0031622Y0031934D01*
X0031482Y0031939D01*
X0031341Y0031948D01*
X0031201Y0031961D01*
X0031061Y0031978D01*
X0030921Y0031998D01*
X0030783Y0032023D01*
X0030645Y0032052D01*
X0030508Y0032084D01*
X0030372Y0032120D01*
X0030237Y0032161D01*
X0030103Y0032205D01*
X0029970Y0032252D01*
X0029839Y0032304D01*
X0029709Y0032359D01*
X0029581Y0032417D01*
X0029455Y0032480D01*
X0029330Y0032545D01*
X0029208Y0032615D01*
X0029087Y0032687D01*
X0028968Y0032763D01*
X0028852Y0032843D01*
X0028738Y0032926D01*
X0028626Y0033011D01*
X0028517Y0033100D01*
X0028410Y0033192D01*
X0028306Y0033287D01*
X0028205Y0033385D01*
X0028106Y0033486D01*
X0028011Y0033589D01*
X0027918Y0033695D01*
X0027828Y0033804D01*
X0027742Y0033915D01*
X0027658Y0034028D01*
X0027578Y0034144D01*
X0027501Y0034262D01*
X0027428Y0034382D01*
X0027357Y0034505D01*
X0027291Y0034629D01*
X0027228Y0034755D01*
X0027168Y0034882D01*
X0027112Y0035011D01*
X0027060Y0035142D01*
X0027011Y0035274D01*
X0026966Y0035408D01*
X0026925Y0035543D01*
X0026888Y0035679D01*
X0026854Y0035815D01*
X0026825Y0035953D01*
X0026799Y0036092D01*
X0026778Y0036231D01*
X0026760Y0036371D01*
X0026746Y0036511D01*
X0026736Y0036651D01*
X0026730Y0036792D01*
X0026728Y0036933D01*
X0025448Y0028933D02*
X0025450Y0029004D01*
X0025456Y0029075D01*
X0025466Y0029146D01*
X0025480Y0029215D01*
X0025497Y0029284D01*
X0025519Y0029352D01*
X0025544Y0029419D01*
X0025573Y0029484D01*
X0025605Y0029547D01*
X0025641Y0029609D01*
X0025680Y0029668D01*
X0025723Y0029725D01*
X0025768Y0029780D01*
X0025817Y0029832D01*
X0025868Y0029881D01*
X0025922Y0029927D01*
X0025979Y0029971D01*
X0026037Y0030011D01*
X0026098Y0030047D01*
X0026161Y0030081D01*
X0026226Y0030110D01*
X0026292Y0030136D01*
X0026360Y0030159D01*
X0026428Y0030177D01*
X0026498Y0030192D01*
X0026568Y0030203D01*
X0026639Y0030210D01*
X0026710Y0030213D01*
X0026781Y0030212D01*
X0026852Y0030207D01*
X0026923Y0030198D01*
X0026993Y0030185D01*
X0027062Y0030169D01*
X0027130Y0030148D01*
X0027197Y0030124D01*
X0027263Y0030096D01*
X0027326Y0030064D01*
X0027388Y0030029D01*
X0027448Y0029991D01*
X0027506Y0029949D01*
X0027561Y0029905D01*
X0027614Y0029857D01*
X0027664Y0029806D01*
X0027711Y0029753D01*
X0027755Y0029697D01*
X0027796Y0029639D01*
X0027834Y0029578D01*
X0027868Y0029516D01*
X0027898Y0029451D01*
X0027925Y0029386D01*
X0027949Y0029318D01*
X0027968Y0029250D01*
X0027984Y0029181D01*
X0027996Y0029110D01*
X0028004Y0029040D01*
X0028008Y0028969D01*
X0028008Y0028897D01*
X0028004Y0028826D01*
X0027996Y0028756D01*
X0027984Y0028685D01*
X0027968Y0028616D01*
X0027949Y0028548D01*
X0027925Y0028480D01*
X0027898Y0028415D01*
X0027868Y0028350D01*
X0027834Y0028288D01*
X0027796Y0028227D01*
X0027755Y0028169D01*
X0027711Y0028113D01*
X0027664Y0028060D01*
X0027614Y0028009D01*
X0027561Y0027961D01*
X0027506Y0027917D01*
X0027448Y0027875D01*
X0027388Y0027837D01*
X0027326Y0027802D01*
X0027263Y0027770D01*
X0027197Y0027742D01*
X0027130Y0027718D01*
X0027062Y0027697D01*
X0026993Y0027681D01*
X0026923Y0027668D01*
X0026852Y0027659D01*
X0026781Y0027654D01*
X0026710Y0027653D01*
X0026639Y0027656D01*
X0026568Y0027663D01*
X0026498Y0027674D01*
X0026428Y0027689D01*
X0026360Y0027707D01*
X0026292Y0027730D01*
X0026226Y0027756D01*
X0026161Y0027785D01*
X0026098Y0027819D01*
X0026037Y0027855D01*
X0025979Y0027895D01*
X0025922Y0027939D01*
X0025868Y0027985D01*
X0025817Y0028034D01*
X0025768Y0028086D01*
X0025723Y0028141D01*
X0025680Y0028198D01*
X0025641Y0028257D01*
X0025605Y0028319D01*
X0025573Y0028382D01*
X0025544Y0028447D01*
X0025519Y0028514D01*
X0025497Y0028582D01*
X0025480Y0028651D01*
X0025466Y0028720D01*
X0025456Y0028791D01*
X0025450Y0028862D01*
X0025448Y0028933D01*
X0030448Y0028933D02*
X0030450Y0029004D01*
X0030456Y0029075D01*
X0030466Y0029146D01*
X0030480Y0029215D01*
X0030497Y0029284D01*
X0030519Y0029352D01*
X0030544Y0029419D01*
X0030573Y0029484D01*
X0030605Y0029547D01*
X0030641Y0029609D01*
X0030680Y0029668D01*
X0030723Y0029725D01*
X0030768Y0029780D01*
X0030817Y0029832D01*
X0030868Y0029881D01*
X0030922Y0029927D01*
X0030979Y0029971D01*
X0031037Y0030011D01*
X0031098Y0030047D01*
X0031161Y0030081D01*
X0031226Y0030110D01*
X0031292Y0030136D01*
X0031360Y0030159D01*
X0031428Y0030177D01*
X0031498Y0030192D01*
X0031568Y0030203D01*
X0031639Y0030210D01*
X0031710Y0030213D01*
X0031781Y0030212D01*
X0031852Y0030207D01*
X0031923Y0030198D01*
X0031993Y0030185D01*
X0032062Y0030169D01*
X0032130Y0030148D01*
X0032197Y0030124D01*
X0032263Y0030096D01*
X0032326Y0030064D01*
X0032388Y0030029D01*
X0032448Y0029991D01*
X0032506Y0029949D01*
X0032561Y0029905D01*
X0032614Y0029857D01*
X0032664Y0029806D01*
X0032711Y0029753D01*
X0032755Y0029697D01*
X0032796Y0029639D01*
X0032834Y0029578D01*
X0032868Y0029516D01*
X0032898Y0029451D01*
X0032925Y0029386D01*
X0032949Y0029318D01*
X0032968Y0029250D01*
X0032984Y0029181D01*
X0032996Y0029110D01*
X0033004Y0029040D01*
X0033008Y0028969D01*
X0033008Y0028897D01*
X0033004Y0028826D01*
X0032996Y0028756D01*
X0032984Y0028685D01*
X0032968Y0028616D01*
X0032949Y0028548D01*
X0032925Y0028480D01*
X0032898Y0028415D01*
X0032868Y0028350D01*
X0032834Y0028288D01*
X0032796Y0028227D01*
X0032755Y0028169D01*
X0032711Y0028113D01*
X0032664Y0028060D01*
X0032614Y0028009D01*
X0032561Y0027961D01*
X0032506Y0027917D01*
X0032448Y0027875D01*
X0032388Y0027837D01*
X0032326Y0027802D01*
X0032263Y0027770D01*
X0032197Y0027742D01*
X0032130Y0027718D01*
X0032062Y0027697D01*
X0031993Y0027681D01*
X0031923Y0027668D01*
X0031852Y0027659D01*
X0031781Y0027654D01*
X0031710Y0027653D01*
X0031639Y0027656D01*
X0031568Y0027663D01*
X0031498Y0027674D01*
X0031428Y0027689D01*
X0031360Y0027707D01*
X0031292Y0027730D01*
X0031226Y0027756D01*
X0031161Y0027785D01*
X0031098Y0027819D01*
X0031037Y0027855D01*
X0030979Y0027895D01*
X0030922Y0027939D01*
X0030868Y0027985D01*
X0030817Y0028034D01*
X0030768Y0028086D01*
X0030723Y0028141D01*
X0030680Y0028198D01*
X0030641Y0028257D01*
X0030605Y0028319D01*
X0030573Y0028382D01*
X0030544Y0028447D01*
X0030519Y0028514D01*
X0030497Y0028582D01*
X0030480Y0028651D01*
X0030466Y0028720D01*
X0030456Y0028791D01*
X0030450Y0028862D01*
X0030448Y0028933D01*
X0035448Y0028933D02*
X0035450Y0029004D01*
X0035456Y0029075D01*
X0035466Y0029146D01*
X0035480Y0029215D01*
X0035497Y0029284D01*
X0035519Y0029352D01*
X0035544Y0029419D01*
X0035573Y0029484D01*
X0035605Y0029547D01*
X0035641Y0029609D01*
X0035680Y0029668D01*
X0035723Y0029725D01*
X0035768Y0029780D01*
X0035817Y0029832D01*
X0035868Y0029881D01*
X0035922Y0029927D01*
X0035979Y0029971D01*
X0036037Y0030011D01*
X0036098Y0030047D01*
X0036161Y0030081D01*
X0036226Y0030110D01*
X0036292Y0030136D01*
X0036360Y0030159D01*
X0036428Y0030177D01*
X0036498Y0030192D01*
X0036568Y0030203D01*
X0036639Y0030210D01*
X0036710Y0030213D01*
X0036781Y0030212D01*
X0036852Y0030207D01*
X0036923Y0030198D01*
X0036993Y0030185D01*
X0037062Y0030169D01*
X0037130Y0030148D01*
X0037197Y0030124D01*
X0037263Y0030096D01*
X0037326Y0030064D01*
X0037388Y0030029D01*
X0037448Y0029991D01*
X0037506Y0029949D01*
X0037561Y0029905D01*
X0037614Y0029857D01*
X0037664Y0029806D01*
X0037711Y0029753D01*
X0037755Y0029697D01*
X0037796Y0029639D01*
X0037834Y0029578D01*
X0037868Y0029516D01*
X0037898Y0029451D01*
X0037925Y0029386D01*
X0037949Y0029318D01*
X0037968Y0029250D01*
X0037984Y0029181D01*
X0037996Y0029110D01*
X0038004Y0029040D01*
X0038008Y0028969D01*
X0038008Y0028897D01*
X0038004Y0028826D01*
X0037996Y0028756D01*
X0037984Y0028685D01*
X0037968Y0028616D01*
X0037949Y0028548D01*
X0037925Y0028480D01*
X0037898Y0028415D01*
X0037868Y0028350D01*
X0037834Y0028288D01*
X0037796Y0028227D01*
X0037755Y0028169D01*
X0037711Y0028113D01*
X0037664Y0028060D01*
X0037614Y0028009D01*
X0037561Y0027961D01*
X0037506Y0027917D01*
X0037448Y0027875D01*
X0037388Y0027837D01*
X0037326Y0027802D01*
X0037263Y0027770D01*
X0037197Y0027742D01*
X0037130Y0027718D01*
X0037062Y0027697D01*
X0036993Y0027681D01*
X0036923Y0027668D01*
X0036852Y0027659D01*
X0036781Y0027654D01*
X0036710Y0027653D01*
X0036639Y0027656D01*
X0036568Y0027663D01*
X0036498Y0027674D01*
X0036428Y0027689D01*
X0036360Y0027707D01*
X0036292Y0027730D01*
X0036226Y0027756D01*
X0036161Y0027785D01*
X0036098Y0027819D01*
X0036037Y0027855D01*
X0035979Y0027895D01*
X0035922Y0027939D01*
X0035868Y0027985D01*
X0035817Y0028034D01*
X0035768Y0028086D01*
X0035723Y0028141D01*
X0035680Y0028198D01*
X0035641Y0028257D01*
X0035605Y0028319D01*
X0035573Y0028382D01*
X0035544Y0028447D01*
X0035519Y0028514D01*
X0035497Y0028582D01*
X0035480Y0028651D01*
X0035466Y0028720D01*
X0035456Y0028791D01*
X0035450Y0028862D01*
X0035448Y0028933D01*
D12*
X0034428Y0310728D02*
X0034428Y0313283D01*
X0034428Y0312005D02*
X0039028Y0312005D01*
X0039028Y0315078D02*
X0034428Y0315078D01*
X0034428Y0317633D02*
X0039028Y0317633D01*
X0039028Y0319886D02*
X0034428Y0319886D01*
X0034428Y0321931D01*
X0034428Y0323807D02*
X0034428Y0325084D01*
X0034428Y0323807D02*
X0039028Y0323807D01*
X0039028Y0321931D02*
X0039028Y0319886D01*
X0036984Y0325340D02*
X0039028Y0326362D01*
X0039028Y0328472D02*
X0034428Y0328472D01*
X0036984Y0330005D01*
X0034428Y0331539D01*
X0039028Y0331539D01*
X0039028Y0333678D02*
X0039028Y0336233D01*
X0039028Y0334955D02*
X0034428Y0334955D01*
X0035451Y0333678D01*
X0034428Y0325084D02*
X0034430Y0325154D01*
X0034436Y0325225D01*
X0034445Y0325294D01*
X0034459Y0325363D01*
X0034476Y0325432D01*
X0034497Y0325499D01*
X0034522Y0325565D01*
X0034550Y0325629D01*
X0034582Y0325692D01*
X0034617Y0325753D01*
X0034656Y0325812D01*
X0034697Y0325869D01*
X0034742Y0325923D01*
X0034790Y0325975D01*
X0034840Y0326024D01*
X0034894Y0326071D01*
X0034949Y0326114D01*
X0035007Y0326154D01*
X0035067Y0326191D01*
X0035129Y0326224D01*
X0035193Y0326254D01*
X0035258Y0326281D01*
X0035324Y0326304D01*
X0035392Y0326323D01*
X0035461Y0326338D01*
X0035530Y0326350D01*
X0035600Y0326358D01*
X0035671Y0326362D01*
X0035741Y0326362D01*
X0035812Y0326358D01*
X0035882Y0326350D01*
X0035951Y0326338D01*
X0036020Y0326323D01*
X0036088Y0326304D01*
X0036154Y0326281D01*
X0036219Y0326254D01*
X0036283Y0326224D01*
X0036345Y0326191D01*
X0036405Y0326154D01*
X0036463Y0326114D01*
X0036518Y0326071D01*
X0036572Y0326024D01*
X0036622Y0325975D01*
X0036670Y0325923D01*
X0036715Y0325869D01*
X0036756Y0325812D01*
X0036795Y0325753D01*
X0036830Y0325692D01*
X0036862Y0325629D01*
X0036890Y0325565D01*
X0036915Y0325499D01*
X0036936Y0325432D01*
X0036953Y0325363D01*
X0036967Y0325294D01*
X0036976Y0325225D01*
X0036982Y0325154D01*
X0036984Y0325084D01*
X0036984Y0323807D01*
X0036473Y0321420D02*
X0036473Y0319886D01*
X0036473Y0317633D02*
X0036473Y0315078D01*
X0029028Y0346633D02*
X0024428Y0346633D01*
X0024428Y0349189D02*
X0029028Y0349189D01*
X0029028Y0351442D02*
X0024428Y0351442D01*
X0024428Y0353486D01*
X0024428Y0356461D02*
X0029028Y0357994D01*
X0029028Y0360661D02*
X0024428Y0360661D01*
X0024428Y0359383D02*
X0024428Y0361939D01*
X0024428Y0363742D02*
X0024428Y0365786D01*
X0024428Y0367662D02*
X0024428Y0368940D01*
X0024428Y0367662D02*
X0029028Y0367662D01*
X0029028Y0365786D02*
X0029028Y0363742D01*
X0024428Y0363742D01*
X0024428Y0368940D02*
X0024430Y0369010D01*
X0024436Y0369081D01*
X0024445Y0369150D01*
X0024459Y0369219D01*
X0024476Y0369288D01*
X0024497Y0369355D01*
X0024522Y0369421D01*
X0024550Y0369485D01*
X0024582Y0369548D01*
X0024617Y0369609D01*
X0024656Y0369668D01*
X0024697Y0369725D01*
X0024742Y0369779D01*
X0024790Y0369831D01*
X0024840Y0369880D01*
X0024894Y0369927D01*
X0024949Y0369970D01*
X0025007Y0370010D01*
X0025067Y0370047D01*
X0025129Y0370080D01*
X0025193Y0370110D01*
X0025258Y0370137D01*
X0025324Y0370160D01*
X0025392Y0370179D01*
X0025461Y0370194D01*
X0025530Y0370206D01*
X0025600Y0370214D01*
X0025671Y0370218D01*
X0025741Y0370218D01*
X0025812Y0370214D01*
X0025882Y0370206D01*
X0025951Y0370194D01*
X0026020Y0370179D01*
X0026088Y0370160D01*
X0026154Y0370137D01*
X0026219Y0370110D01*
X0026283Y0370080D01*
X0026345Y0370047D01*
X0026405Y0370010D01*
X0026463Y0369970D01*
X0026518Y0369927D01*
X0026572Y0369880D01*
X0026622Y0369831D01*
X0026670Y0369779D01*
X0026715Y0369725D01*
X0026756Y0369668D01*
X0026795Y0369609D01*
X0026830Y0369548D01*
X0026862Y0369485D01*
X0026890Y0369421D01*
X0026915Y0369355D01*
X0026936Y0369288D01*
X0026953Y0369219D01*
X0026967Y0369150D01*
X0026976Y0369081D01*
X0026982Y0369010D01*
X0026984Y0368940D01*
X0026984Y0367662D01*
X0026984Y0369195D02*
X0029028Y0370218D01*
X0029028Y0372133D02*
X0029028Y0374689D01*
X0029028Y0373411D02*
X0024428Y0373411D01*
X0025451Y0372133D01*
X0026473Y0365275D02*
X0026473Y0363742D01*
X0027878Y0357611D02*
X0027878Y0355311D01*
X0029028Y0354928D02*
X0024428Y0356461D01*
X0026473Y0352975D02*
X0026473Y0351442D01*
X0026473Y0349189D02*
X0026473Y0346633D01*
X0029028Y0351442D02*
X0029028Y0353486D01*
D13*
X0042478Y0210683D02*
X0042478Y0208183D01*
X0042478Y0209433D02*
X0037978Y0209433D01*
X0038978Y0208183D01*
X0040603Y0205833D02*
X0039853Y0204458D01*
X0037978Y0204958D02*
X0037980Y0205038D01*
X0037985Y0205119D01*
X0037994Y0205199D01*
X0038006Y0205278D01*
X0038021Y0205357D01*
X0038040Y0205435D01*
X0038062Y0205513D01*
X0038087Y0205589D01*
X0038116Y0205664D01*
X0038148Y0205738D01*
X0038183Y0205810D01*
X0038221Y0205881D01*
X0038262Y0205950D01*
X0038306Y0206018D01*
X0038353Y0206083D01*
X0039853Y0204458D02*
X0039820Y0204406D01*
X0039784Y0204355D01*
X0039745Y0204307D01*
X0039703Y0204262D01*
X0039658Y0204219D01*
X0039610Y0204179D01*
X0039561Y0204142D01*
X0039509Y0204108D01*
X0039455Y0204077D01*
X0039399Y0204049D01*
X0039342Y0204025D01*
X0039283Y0204005D01*
X0039224Y0203988D01*
X0039163Y0203975D01*
X0039102Y0203966D01*
X0039040Y0203960D01*
X0038978Y0203958D01*
X0038918Y0203960D01*
X0038857Y0203965D01*
X0038798Y0203974D01*
X0038739Y0203987D01*
X0038680Y0204003D01*
X0038623Y0204023D01*
X0038568Y0204046D01*
X0038513Y0204073D01*
X0038461Y0204102D01*
X0038410Y0204135D01*
X0038361Y0204171D01*
X0038315Y0204209D01*
X0038271Y0204251D01*
X0038229Y0204295D01*
X0038191Y0204341D01*
X0038155Y0204390D01*
X0038122Y0204441D01*
X0038093Y0204493D01*
X0038066Y0204548D01*
X0038043Y0204603D01*
X0038023Y0204660D01*
X0038007Y0204719D01*
X0037994Y0204778D01*
X0037985Y0204837D01*
X0037980Y0204898D01*
X0037978Y0204958D01*
X0037978Y0200733D02*
X0042478Y0202233D01*
X0042478Y0199233D02*
X0037978Y0200733D01*
X0037978Y0197633D02*
X0037978Y0196633D01*
X0037978Y0197133D02*
X0042478Y0197133D01*
X0042478Y0196633D02*
X0042478Y0197633D01*
X0042478Y0193758D02*
X0042478Y0192508D01*
X0037978Y0192508D01*
X0037978Y0193758D01*
X0037980Y0193820D01*
X0037986Y0193881D01*
X0037995Y0193942D01*
X0038008Y0194002D01*
X0038025Y0194061D01*
X0038046Y0194119D01*
X0038070Y0194176D01*
X0038097Y0194231D01*
X0038128Y0194284D01*
X0038162Y0194336D01*
X0038199Y0194385D01*
X0038239Y0194432D01*
X0038282Y0194476D01*
X0038327Y0194517D01*
X0038375Y0194556D01*
X0038426Y0194592D01*
X0038478Y0194624D01*
X0038532Y0194653D01*
X0038588Y0194679D01*
X0038646Y0194701D01*
X0038704Y0194720D01*
X0038764Y0194735D01*
X0038825Y0194746D01*
X0038886Y0194754D01*
X0038947Y0194758D01*
X0039009Y0194758D01*
X0039070Y0194754D01*
X0039131Y0194746D01*
X0039192Y0194735D01*
X0039252Y0194720D01*
X0039310Y0194701D01*
X0039368Y0194679D01*
X0039424Y0194653D01*
X0039478Y0194624D01*
X0039530Y0194592D01*
X0039581Y0194556D01*
X0039629Y0194517D01*
X0039674Y0194476D01*
X0039717Y0194432D01*
X0039757Y0194385D01*
X0039794Y0194336D01*
X0039828Y0194284D01*
X0039859Y0194231D01*
X0039886Y0194176D01*
X0039910Y0194119D01*
X0039931Y0194061D01*
X0039948Y0194002D01*
X0039961Y0193942D01*
X0039970Y0193881D01*
X0039976Y0193820D01*
X0039978Y0193758D01*
X0039978Y0192508D01*
X0042478Y0186716D02*
X0040478Y0185716D01*
X0040478Y0185466D02*
X0040478Y0184216D01*
X0040478Y0185466D02*
X0040476Y0185535D01*
X0040470Y0185604D01*
X0040461Y0185672D01*
X0040448Y0185739D01*
X0040431Y0185806D01*
X0040410Y0185872D01*
X0040386Y0185936D01*
X0040358Y0185999D01*
X0040327Y0186061D01*
X0040293Y0186121D01*
X0040255Y0186178D01*
X0040214Y0186234D01*
X0040171Y0186287D01*
X0040124Y0186338D01*
X0040075Y0186386D01*
X0040023Y0186431D01*
X0039968Y0186473D01*
X0039912Y0186512D01*
X0039853Y0186549D01*
X0039792Y0186581D01*
X0039730Y0186611D01*
X0039666Y0186637D01*
X0039601Y0186659D01*
X0039535Y0186678D01*
X0039468Y0186693D01*
X0039400Y0186704D01*
X0039331Y0186712D01*
X0039262Y0186716D01*
X0039194Y0186716D01*
X0039125Y0186712D01*
X0039056Y0186704D01*
X0038988Y0186693D01*
X0038921Y0186678D01*
X0038855Y0186659D01*
X0038790Y0186637D01*
X0038726Y0186611D01*
X0038664Y0186581D01*
X0038603Y0186549D01*
X0038544Y0186512D01*
X0038488Y0186473D01*
X0038433Y0186431D01*
X0038381Y0186386D01*
X0038332Y0186338D01*
X0038285Y0186287D01*
X0038242Y0186234D01*
X0038201Y0186178D01*
X0038163Y0186121D01*
X0038129Y0186061D01*
X0038098Y0185999D01*
X0038070Y0185936D01*
X0038046Y0185872D01*
X0038025Y0185806D01*
X0038008Y0185739D01*
X0037995Y0185672D01*
X0037986Y0185604D01*
X0037980Y0185535D01*
X0037978Y0185466D01*
X0037978Y0184216D01*
X0042478Y0184216D01*
X0042978Y0188483D02*
X0042978Y0190483D01*
X0042478Y0193758D02*
X0042476Y0193827D01*
X0042470Y0193896D01*
X0042461Y0193964D01*
X0042448Y0194031D01*
X0042431Y0194098D01*
X0042410Y0194164D01*
X0042386Y0194228D01*
X0042358Y0194291D01*
X0042327Y0194353D01*
X0042293Y0194413D01*
X0042255Y0194470D01*
X0042214Y0194526D01*
X0042171Y0194579D01*
X0042124Y0194630D01*
X0042075Y0194678D01*
X0042023Y0194723D01*
X0041968Y0194765D01*
X0041912Y0194804D01*
X0041853Y0194841D01*
X0041792Y0194873D01*
X0041730Y0194903D01*
X0041666Y0194929D01*
X0041601Y0194951D01*
X0041535Y0194970D01*
X0041468Y0194985D01*
X0041400Y0194996D01*
X0041331Y0195004D01*
X0041262Y0195008D01*
X0041194Y0195008D01*
X0041125Y0195004D01*
X0041056Y0194996D01*
X0040988Y0194985D01*
X0040921Y0194970D01*
X0040855Y0194951D01*
X0040790Y0194929D01*
X0040726Y0194903D01*
X0040664Y0194873D01*
X0040603Y0194841D01*
X0040544Y0194804D01*
X0040488Y0194765D01*
X0040433Y0194723D01*
X0040381Y0194678D01*
X0040332Y0194630D01*
X0040285Y0194579D01*
X0040242Y0194526D01*
X0040201Y0194470D01*
X0040163Y0194413D01*
X0040129Y0194353D01*
X0040098Y0194291D01*
X0040070Y0194228D01*
X0040046Y0194164D01*
X0040025Y0194098D01*
X0040008Y0194031D01*
X0039995Y0193964D01*
X0039986Y0193896D01*
X0039980Y0193827D01*
X0039978Y0193758D01*
X0041353Y0199608D02*
X0041353Y0201858D01*
X0040603Y0205833D02*
X0040636Y0205885D01*
X0040672Y0205936D01*
X0040711Y0205984D01*
X0040753Y0206029D01*
X0040798Y0206072D01*
X0040846Y0206112D01*
X0040895Y0206149D01*
X0040947Y0206183D01*
X0041001Y0206214D01*
X0041057Y0206242D01*
X0041114Y0206266D01*
X0041173Y0206286D01*
X0041232Y0206303D01*
X0041293Y0206316D01*
X0041354Y0206325D01*
X0041416Y0206331D01*
X0041478Y0206333D01*
X0041538Y0206331D01*
X0041599Y0206326D01*
X0041658Y0206317D01*
X0041717Y0206304D01*
X0041776Y0206288D01*
X0041833Y0206268D01*
X0041888Y0206245D01*
X0041943Y0206218D01*
X0041995Y0206189D01*
X0042046Y0206156D01*
X0042095Y0206120D01*
X0042141Y0206082D01*
X0042185Y0206040D01*
X0042227Y0205996D01*
X0042265Y0205950D01*
X0042301Y0205901D01*
X0042334Y0205850D01*
X0042363Y0205798D01*
X0042390Y0205743D01*
X0042413Y0205688D01*
X0042433Y0205631D01*
X0042449Y0205572D01*
X0042462Y0205513D01*
X0042471Y0205454D01*
X0042476Y0205393D01*
X0042478Y0205333D01*
X0042479Y0205333D02*
X0042477Y0205245D01*
X0042472Y0205158D01*
X0042463Y0205070D01*
X0042450Y0204983D01*
X0042434Y0204897D01*
X0042414Y0204812D01*
X0042390Y0204727D01*
X0042363Y0204643D01*
X0042333Y0204561D01*
X0042299Y0204480D01*
X0042262Y0204400D01*
X0042222Y0204322D01*
X0042178Y0204246D01*
X0042131Y0204172D01*
X0042082Y0204100D01*
X0042029Y0204029D01*
X0041973Y0203961D01*
X0041915Y0203896D01*
X0041854Y0203833D01*
X0025978Y0051533D02*
X0025978Y0050477D01*
X0024923Y0051374D01*
X0024079Y0051058D02*
X0024081Y0051010D01*
X0024087Y0050963D01*
X0024096Y0050916D01*
X0024109Y0050869D01*
X0024125Y0050824D01*
X0024146Y0050781D01*
X0024169Y0050739D01*
X0024196Y0050699D01*
X0024225Y0050662D01*
X0024258Y0050626D01*
X0024293Y0050594D01*
X0024331Y0050564D01*
X0024371Y0050538D01*
X0024413Y0050514D01*
X0024456Y0050494D01*
X0024501Y0050478D01*
X0024922Y0051374D02*
X0024893Y0051402D01*
X0024861Y0051429D01*
X0024827Y0051452D01*
X0024791Y0051473D01*
X0024754Y0051491D01*
X0024715Y0051505D01*
X0024676Y0051517D01*
X0024635Y0051525D01*
X0024594Y0051530D01*
X0024553Y0051532D01*
X0024553Y0051533D02*
X0024512Y0051531D01*
X0024471Y0051526D01*
X0024430Y0051517D01*
X0024391Y0051504D01*
X0024352Y0051488D01*
X0024316Y0051469D01*
X0024281Y0051447D01*
X0024248Y0051422D01*
X0024217Y0051394D01*
X0024189Y0051363D01*
X0024164Y0051330D01*
X0024142Y0051296D01*
X0024123Y0051259D01*
X0024107Y0051220D01*
X0024094Y0051181D01*
X0024085Y0051141D01*
X0024080Y0051099D01*
X0024078Y0051058D01*
X0024078Y0049316D02*
X0025556Y0049316D01*
X0025595Y0049314D01*
X0025634Y0049309D01*
X0025671Y0049300D01*
X0025708Y0049288D01*
X0025744Y0049272D01*
X0025778Y0049253D01*
X0025810Y0049231D01*
X0025840Y0049206D01*
X0025868Y0049178D01*
X0025893Y0049148D01*
X0025915Y0049116D01*
X0025934Y0049082D01*
X0025950Y0049046D01*
X0025962Y0049009D01*
X0025971Y0048972D01*
X0025976Y0048933D01*
X0025978Y0048894D01*
X0025978Y0048683D01*
D14*
X0031728Y0184733D03*
X0031728Y0213133D03*
D15*
X0031734Y0201854D03*
X0031734Y0196054D03*
M02*
