G75*
%MOIN*%
%OFA0B0*%
%FSLAX25Y25*%
%IPPOS*%
%LPD*%
%AMOC8*
5,1,8,0,0,1.08239X$1,22.5*
%
%ADD10C,0.00600*%
%ADD11C,0.00591*%
%ADD12C,0.07400*%
%ADD13C,0.01200*%
%ADD14OC8,0.06600*%
%ADD15R,0.05512X0.04724*%
%ADD16R,0.03937X0.04331*%
%ADD17R,0.06102X0.04921*%
%ADD18C,0.01981*%
%ADD19C,0.02178*%
D10*
X0208333Y0065300D02*
X0208333Y0066300D01*
X0217983Y0075950D01*
X0217983Y0356950D01*
X0223333Y0366300D01*
X0228233Y0357150D01*
X0228333Y0356300D02*
X0228233Y0078500D01*
X0228233Y0078650D02*
X0228183Y0076350D01*
X0228333Y0076300D02*
X0238333Y0066300D01*
X0236238Y0065425D02*
X0236238Y0022175D01*
X0236233Y0022170D01*
X0236233Y0021300D01*
X0236155Y0020299D01*
X0235536Y0018394D01*
X0234359Y0016775D01*
X0232739Y0015598D01*
X0230834Y0014979D01*
X0229833Y0014900D01*
X0224463Y0014900D01*
X0224459Y0014895D01*
X0219708Y0014895D01*
X0219703Y0014900D01*
X0216833Y0014900D01*
X0215832Y0014979D01*
X0213928Y0015598D01*
X0212308Y0016775D01*
X0211131Y0018394D01*
X0210512Y0020299D01*
X0210433Y0021300D01*
X0210433Y0022170D01*
X0210429Y0022175D01*
X0210429Y0064425D01*
X0210433Y0064430D01*
X0210433Y0065430D01*
X0213298Y0068295D01*
X0213002Y0067713D01*
X0212758Y0066965D01*
X0212635Y0066187D01*
X0212635Y0066007D01*
X0217330Y0066089D01*
X0217248Y0070794D01*
X0217242Y0070794D01*
X0216464Y0070671D01*
X0215716Y0070428D01*
X0215135Y0070131D01*
X0220083Y0075080D01*
X0220083Y0243734D01*
X0222233Y0243734D01*
X0222233Y0067783D01*
X0221912Y0068414D01*
X0221449Y0069051D01*
X0220892Y0069608D01*
X0220256Y0070070D01*
X0219555Y0070428D01*
X0218806Y0070671D01*
X0218029Y0070794D01*
X0217848Y0070794D01*
X0217930Y0066099D01*
X0217330Y0066089D01*
X0217340Y0065489D01*
X0212635Y0065407D01*
X0212635Y0065400D01*
X0212758Y0064623D01*
X0213002Y0063875D01*
X0213359Y0063173D01*
X0213821Y0062537D01*
X0214378Y0061980D01*
X0215015Y0061518D01*
X0215716Y0061160D01*
X0216464Y0060917D01*
X0217242Y0060794D01*
X0217422Y0060794D01*
X0217341Y0065489D01*
X0217940Y0065499D01*
X0218023Y0060794D01*
X0218029Y0060794D01*
X0218806Y0060917D01*
X0219555Y0061160D01*
X0220256Y0061518D01*
X0220892Y0061980D01*
X0221449Y0062537D01*
X0221912Y0063173D01*
X0222233Y0063805D01*
X0222233Y0061775D01*
X0220154Y0059695D01*
X0218705Y0060295D01*
X0216915Y0060295D01*
X0215261Y0059610D01*
X0213995Y0058344D01*
X0213310Y0056691D01*
X0213310Y0054900D01*
X0213995Y0053246D01*
X0215261Y0051980D01*
X0216915Y0051295D01*
X0218705Y0051295D01*
X0220359Y0051980D01*
X0221625Y0053246D01*
X0222310Y0054900D01*
X0222310Y0056691D01*
X0221710Y0058140D01*
X0224433Y0060863D01*
X0224433Y0243734D01*
X0226193Y0243734D01*
X0226133Y0078676D01*
X0226065Y0075526D01*
X0227268Y0074269D01*
X0227397Y0074267D01*
X0231763Y0069900D01*
X0228635Y0069900D01*
X0226233Y0067498D01*
X0226233Y0064102D01*
X0228635Y0061700D01*
X0228933Y0061700D01*
X0228933Y0052999D01*
X0227246Y0052999D01*
X0226777Y0052531D01*
X0226777Y0047143D01*
X0227246Y0046675D01*
X0233421Y0046675D01*
X0233889Y0047143D01*
X0233889Y0052531D01*
X0233421Y0052999D01*
X0231733Y0052999D01*
X0231733Y0061700D01*
X0232032Y0061700D01*
X0234433Y0064102D01*
X0234433Y0067230D01*
X0236238Y0065425D01*
X0236238Y0065103D02*
X0234433Y0065103D01*
X0234433Y0065701D02*
X0235962Y0065701D01*
X0235363Y0066300D02*
X0234433Y0066300D01*
X0234433Y0066899D02*
X0234765Y0066899D01*
X0234433Y0064504D02*
X0236238Y0064504D01*
X0236238Y0063906D02*
X0234238Y0063906D01*
X0233639Y0063307D02*
X0236238Y0063307D01*
X0236238Y0062709D02*
X0233041Y0062709D01*
X0232442Y0062110D02*
X0236238Y0062110D01*
X0236238Y0061512D02*
X0231733Y0061512D01*
X0231733Y0060913D02*
X0236238Y0060913D01*
X0236238Y0060315D02*
X0231733Y0060315D01*
X0231733Y0059716D02*
X0236238Y0059716D01*
X0236238Y0059118D02*
X0231733Y0059118D01*
X0231733Y0058519D02*
X0236238Y0058519D01*
X0236238Y0057921D02*
X0231733Y0057921D01*
X0231733Y0057322D02*
X0236238Y0057322D01*
X0236238Y0056724D02*
X0231733Y0056724D01*
X0231733Y0056125D02*
X0236238Y0056125D01*
X0236238Y0055527D02*
X0231733Y0055527D01*
X0231733Y0054928D02*
X0236238Y0054928D01*
X0236238Y0054330D02*
X0231733Y0054330D01*
X0231733Y0053731D02*
X0236238Y0053731D01*
X0236238Y0053133D02*
X0231733Y0053133D01*
X0233886Y0052534D02*
X0236238Y0052534D01*
X0236238Y0051936D02*
X0233889Y0051936D01*
X0233889Y0051337D02*
X0236238Y0051337D01*
X0236238Y0050739D02*
X0233889Y0050739D01*
X0233889Y0050140D02*
X0236238Y0050140D01*
X0236238Y0049542D02*
X0233889Y0049542D01*
X0233889Y0048943D02*
X0236238Y0048943D01*
X0236238Y0048345D02*
X0233889Y0048345D01*
X0233889Y0047746D02*
X0236238Y0047746D01*
X0236238Y0047148D02*
X0233889Y0047148D01*
X0233421Y0044925D02*
X0227246Y0044925D01*
X0226777Y0044457D01*
X0226777Y0039069D01*
X0227246Y0038601D01*
X0228933Y0038601D01*
X0228933Y0029900D01*
X0228635Y0029900D01*
X0226233Y0027498D01*
X0226233Y0024102D01*
X0228635Y0021700D01*
X0232032Y0021700D01*
X0234433Y0024102D01*
X0234433Y0027498D01*
X0232032Y0029900D01*
X0231733Y0029900D01*
X0231733Y0038601D01*
X0233421Y0038601D01*
X0233889Y0039069D01*
X0233889Y0044457D01*
X0233421Y0044925D01*
X0233592Y0044754D02*
X0236238Y0044754D01*
X0236238Y0045352D02*
X0222484Y0045352D01*
X0222484Y0044902D02*
X0221799Y0043248D01*
X0220533Y0041982D01*
X0218879Y0041297D01*
X0217089Y0041297D01*
X0215435Y0041982D01*
X0214169Y0043248D01*
X0213484Y0044902D01*
X0213484Y0046692D01*
X0214169Y0048346D01*
X0215435Y0049612D01*
X0217089Y0050297D01*
X0218879Y0050297D01*
X0220533Y0049612D01*
X0221799Y0048346D01*
X0222484Y0046692D01*
X0222484Y0044902D01*
X0222423Y0044754D02*
X0227074Y0044754D01*
X0226777Y0044155D02*
X0222175Y0044155D01*
X0221927Y0043557D02*
X0226777Y0043557D01*
X0226777Y0042958D02*
X0221509Y0042958D01*
X0220911Y0042360D02*
X0226777Y0042360D01*
X0226777Y0041761D02*
X0220000Y0041761D01*
X0219054Y0040298D02*
X0217264Y0040298D01*
X0215610Y0039613D01*
X0214344Y0038348D01*
X0213659Y0036694D01*
X0213659Y0034903D01*
X0214344Y0033249D01*
X0215610Y0031984D01*
X0217264Y0031298D01*
X0219054Y0031298D01*
X0220708Y0031984D01*
X0221974Y0033249D01*
X0222659Y0034903D01*
X0222659Y0036694D01*
X0221974Y0038348D01*
X0220708Y0039613D01*
X0219054Y0040298D01*
X0219858Y0039966D02*
X0226777Y0039966D01*
X0226777Y0040564D02*
X0210429Y0040564D01*
X0210429Y0039966D02*
X0216460Y0039966D01*
X0215363Y0039367D02*
X0210429Y0039367D01*
X0210429Y0038768D02*
X0214765Y0038768D01*
X0214270Y0038170D02*
X0210429Y0038170D01*
X0210429Y0037571D02*
X0214022Y0037571D01*
X0213775Y0036973D02*
X0210429Y0036973D01*
X0210429Y0036374D02*
X0213659Y0036374D01*
X0213659Y0035776D02*
X0210429Y0035776D01*
X0210429Y0035177D02*
X0213659Y0035177D01*
X0213793Y0034579D02*
X0210429Y0034579D01*
X0210429Y0033980D02*
X0214041Y0033980D01*
X0214289Y0033382D02*
X0210429Y0033382D01*
X0210429Y0032783D02*
X0214810Y0032783D01*
X0215408Y0032185D02*
X0210429Y0032185D01*
X0210429Y0031586D02*
X0216569Y0031586D01*
X0217438Y0030300D02*
X0215784Y0029615D01*
X0214518Y0028349D01*
X0213833Y0026695D01*
X0213833Y0024905D01*
X0214518Y0023251D01*
X0215784Y0021985D01*
X0217438Y0021300D01*
X0219228Y0021300D01*
X0220882Y0021985D01*
X0222148Y0023251D01*
X0222833Y0024905D01*
X0222833Y0026695D01*
X0222148Y0028349D01*
X0220882Y0029615D01*
X0219228Y0030300D01*
X0217438Y0030300D01*
X0216209Y0029791D02*
X0210429Y0029791D01*
X0210429Y0030389D02*
X0228933Y0030389D01*
X0228933Y0030988D02*
X0210429Y0030988D01*
X0210429Y0029192D02*
X0215362Y0029192D01*
X0214763Y0028594D02*
X0210429Y0028594D01*
X0210429Y0027995D02*
X0214372Y0027995D01*
X0214124Y0027397D02*
X0210429Y0027397D01*
X0210429Y0026798D02*
X0213876Y0026798D01*
X0213833Y0026200D02*
X0210429Y0026200D01*
X0210429Y0025601D02*
X0213833Y0025601D01*
X0213833Y0025003D02*
X0210429Y0025003D01*
X0210429Y0024404D02*
X0214041Y0024404D01*
X0214289Y0023806D02*
X0210429Y0023806D01*
X0210429Y0023207D02*
X0214562Y0023207D01*
X0215161Y0022609D02*
X0210429Y0022609D01*
X0210433Y0022010D02*
X0215759Y0022010D01*
X0208333Y0021300D02*
X0208335Y0021095D01*
X0208343Y0020889D01*
X0208355Y0020684D01*
X0208373Y0020480D01*
X0208395Y0020275D01*
X0208422Y0020072D01*
X0208454Y0019869D01*
X0208491Y0019667D01*
X0208533Y0019466D01*
X0208580Y0019266D01*
X0208632Y0019067D01*
X0208688Y0018869D01*
X0208749Y0018673D01*
X0208815Y0018479D01*
X0208885Y0018286D01*
X0208961Y0018095D01*
X0209040Y0017905D01*
X0209125Y0017718D01*
X0209213Y0017533D01*
X0209307Y0017350D01*
X0209404Y0017169D01*
X0209506Y0016991D01*
X0209613Y0016815D01*
X0209723Y0016642D01*
X0209838Y0016471D01*
X0209956Y0016304D01*
X0210079Y0016139D01*
X0210206Y0015977D01*
X0210336Y0015819D01*
X0210471Y0015663D01*
X0210609Y0015511D01*
X0210750Y0015363D01*
X0210896Y0015217D01*
X0211044Y0015076D01*
X0211196Y0014938D01*
X0211352Y0014803D01*
X0211510Y0014673D01*
X0211672Y0014546D01*
X0211837Y0014423D01*
X0212004Y0014305D01*
X0212175Y0014190D01*
X0212348Y0014080D01*
X0212524Y0013973D01*
X0212702Y0013871D01*
X0212883Y0013774D01*
X0213066Y0013680D01*
X0213251Y0013592D01*
X0213438Y0013507D01*
X0213628Y0013428D01*
X0213819Y0013352D01*
X0214012Y0013282D01*
X0214206Y0013216D01*
X0214402Y0013155D01*
X0214600Y0013099D01*
X0214799Y0013047D01*
X0214999Y0013000D01*
X0215200Y0012958D01*
X0215402Y0012921D01*
X0215605Y0012889D01*
X0215808Y0012862D01*
X0216013Y0012840D01*
X0216217Y0012822D01*
X0216422Y0012810D01*
X0216628Y0012802D01*
X0216833Y0012800D01*
X0218833Y0012800D01*
X0214454Y0015427D02*
X0232213Y0015427D01*
X0233327Y0016025D02*
X0213339Y0016025D01*
X0212516Y0016624D02*
X0234151Y0016624D01*
X0234684Y0017222D02*
X0211983Y0017222D01*
X0211548Y0017821D02*
X0235119Y0017821D01*
X0235544Y0018419D02*
X0211123Y0018419D01*
X0210928Y0019018D02*
X0235738Y0019018D01*
X0235933Y0019616D02*
X0210734Y0019616D01*
X0210539Y0020215D02*
X0236127Y0020215D01*
X0236195Y0020813D02*
X0210472Y0020813D01*
X0210433Y0021412D02*
X0217169Y0021412D01*
X0219498Y0021412D02*
X0236233Y0021412D01*
X0236233Y0022010D02*
X0232342Y0022010D01*
X0232940Y0022609D02*
X0236238Y0022609D01*
X0236238Y0023207D02*
X0233539Y0023207D01*
X0234137Y0023806D02*
X0236238Y0023806D01*
X0236238Y0024404D02*
X0234433Y0024404D01*
X0234433Y0025003D02*
X0236238Y0025003D01*
X0236238Y0025601D02*
X0234433Y0025601D01*
X0234433Y0026200D02*
X0236238Y0026200D01*
X0236238Y0026798D02*
X0234433Y0026798D01*
X0234433Y0027397D02*
X0236238Y0027397D01*
X0236238Y0027995D02*
X0233936Y0027995D01*
X0233338Y0028594D02*
X0236238Y0028594D01*
X0236238Y0029192D02*
X0232739Y0029192D01*
X0232141Y0029791D02*
X0236238Y0029791D01*
X0236238Y0030389D02*
X0231733Y0030389D01*
X0231733Y0030988D02*
X0236238Y0030988D01*
X0236238Y0031586D02*
X0231733Y0031586D01*
X0231733Y0032185D02*
X0236238Y0032185D01*
X0236238Y0032783D02*
X0231733Y0032783D01*
X0231733Y0033382D02*
X0236238Y0033382D01*
X0236238Y0033980D02*
X0231733Y0033980D01*
X0231733Y0034579D02*
X0236238Y0034579D01*
X0236238Y0035177D02*
X0231733Y0035177D01*
X0231733Y0035776D02*
X0236238Y0035776D01*
X0236238Y0036374D02*
X0231733Y0036374D01*
X0231733Y0036973D02*
X0236238Y0036973D01*
X0236238Y0037571D02*
X0231733Y0037571D01*
X0231733Y0038170D02*
X0236238Y0038170D01*
X0236238Y0038768D02*
X0233588Y0038768D01*
X0233889Y0039367D02*
X0236238Y0039367D01*
X0236238Y0039966D02*
X0233889Y0039966D01*
X0233889Y0040564D02*
X0236238Y0040564D01*
X0236238Y0041163D02*
X0233889Y0041163D01*
X0233889Y0041761D02*
X0236238Y0041761D01*
X0236238Y0042360D02*
X0233889Y0042360D01*
X0233889Y0042958D02*
X0236238Y0042958D01*
X0236238Y0043557D02*
X0233889Y0043557D01*
X0233889Y0044155D02*
X0236238Y0044155D01*
X0236238Y0045951D02*
X0222484Y0045951D01*
X0222484Y0046549D02*
X0236238Y0046549D01*
X0228933Y0053133D02*
X0221511Y0053133D01*
X0221826Y0053731D02*
X0228933Y0053731D01*
X0228933Y0054330D02*
X0222073Y0054330D01*
X0222310Y0054928D02*
X0228933Y0054928D01*
X0228933Y0055527D02*
X0222310Y0055527D01*
X0222310Y0056125D02*
X0228933Y0056125D01*
X0228933Y0056724D02*
X0222296Y0056724D01*
X0222048Y0057322D02*
X0228933Y0057322D01*
X0228933Y0057921D02*
X0221800Y0057921D01*
X0222089Y0058519D02*
X0228933Y0058519D01*
X0228933Y0059118D02*
X0222688Y0059118D01*
X0223286Y0059716D02*
X0228933Y0059716D01*
X0228933Y0060315D02*
X0223885Y0060315D01*
X0224433Y0060913D02*
X0228933Y0060913D01*
X0228933Y0061512D02*
X0224433Y0061512D01*
X0224433Y0062110D02*
X0228225Y0062110D01*
X0227626Y0062709D02*
X0224433Y0062709D01*
X0224433Y0063307D02*
X0227028Y0063307D01*
X0226429Y0063906D02*
X0224433Y0063906D01*
X0224433Y0064504D02*
X0226233Y0064504D01*
X0226233Y0065103D02*
X0224433Y0065103D01*
X0224433Y0065701D02*
X0226233Y0065701D01*
X0226233Y0066300D02*
X0224433Y0066300D01*
X0224433Y0066899D02*
X0226233Y0066899D01*
X0226233Y0067497D02*
X0224433Y0067497D01*
X0224433Y0068096D02*
X0226831Y0068096D01*
X0227429Y0068694D02*
X0224433Y0068694D01*
X0224433Y0069293D02*
X0228028Y0069293D01*
X0228626Y0069891D02*
X0224433Y0069891D01*
X0224433Y0070490D02*
X0231174Y0070490D01*
X0230575Y0071088D02*
X0224433Y0071088D01*
X0224433Y0071687D02*
X0229977Y0071687D01*
X0229378Y0072285D02*
X0224433Y0072285D01*
X0224433Y0072884D02*
X0228780Y0072884D01*
X0228181Y0073482D02*
X0224433Y0073482D01*
X0224433Y0074081D02*
X0227583Y0074081D01*
X0226876Y0074679D02*
X0224433Y0074679D01*
X0224433Y0075278D02*
X0226303Y0075278D01*
X0226073Y0075876D02*
X0224433Y0075876D01*
X0224433Y0076475D02*
X0226086Y0076475D01*
X0226099Y0077073D02*
X0224433Y0077073D01*
X0224433Y0077672D02*
X0226112Y0077672D01*
X0226125Y0078270D02*
X0224433Y0078270D01*
X0224433Y0078869D02*
X0226133Y0078869D01*
X0226134Y0079467D02*
X0224433Y0079467D01*
X0224433Y0080066D02*
X0226134Y0080066D01*
X0226134Y0080664D02*
X0224433Y0080664D01*
X0224433Y0081263D02*
X0226134Y0081263D01*
X0226135Y0081861D02*
X0224433Y0081861D01*
X0224433Y0082460D02*
X0226135Y0082460D01*
X0226135Y0083058D02*
X0224433Y0083058D01*
X0224433Y0083657D02*
X0226135Y0083657D01*
X0226135Y0084255D02*
X0224433Y0084255D01*
X0224433Y0084854D02*
X0226136Y0084854D01*
X0226136Y0085452D02*
X0224433Y0085452D01*
X0224433Y0086051D02*
X0226136Y0086051D01*
X0226136Y0086649D02*
X0224433Y0086649D01*
X0224433Y0087248D02*
X0226136Y0087248D01*
X0226137Y0087846D02*
X0224433Y0087846D01*
X0224433Y0088445D02*
X0226137Y0088445D01*
X0226137Y0089043D02*
X0224433Y0089043D01*
X0224433Y0089642D02*
X0226137Y0089642D01*
X0226138Y0090240D02*
X0224433Y0090240D01*
X0224433Y0090839D02*
X0226138Y0090839D01*
X0226138Y0091437D02*
X0224433Y0091437D01*
X0224433Y0092036D02*
X0226138Y0092036D01*
X0226138Y0092634D02*
X0224433Y0092634D01*
X0224433Y0093233D02*
X0226139Y0093233D01*
X0226139Y0093832D02*
X0224433Y0093832D01*
X0224433Y0094430D02*
X0226139Y0094430D01*
X0226139Y0095029D02*
X0224433Y0095029D01*
X0224433Y0095627D02*
X0226140Y0095627D01*
X0226140Y0096226D02*
X0224433Y0096226D01*
X0224433Y0096824D02*
X0226140Y0096824D01*
X0226140Y0097423D02*
X0224433Y0097423D01*
X0224433Y0098021D02*
X0226140Y0098021D01*
X0226141Y0098620D02*
X0224433Y0098620D01*
X0224433Y0099218D02*
X0226141Y0099218D01*
X0226141Y0099817D02*
X0224433Y0099817D01*
X0224433Y0100415D02*
X0226141Y0100415D01*
X0226141Y0101014D02*
X0224433Y0101014D01*
X0224433Y0101612D02*
X0226142Y0101612D01*
X0226142Y0102211D02*
X0224433Y0102211D01*
X0224433Y0102809D02*
X0226142Y0102809D01*
X0226142Y0103408D02*
X0224433Y0103408D01*
X0224433Y0104006D02*
X0226143Y0104006D01*
X0226143Y0104605D02*
X0224433Y0104605D01*
X0224433Y0105203D02*
X0226143Y0105203D01*
X0226143Y0105802D02*
X0224433Y0105802D01*
X0224433Y0106400D02*
X0226143Y0106400D01*
X0226144Y0106999D02*
X0224433Y0106999D01*
X0224433Y0107597D02*
X0226144Y0107597D01*
X0226144Y0108196D02*
X0224433Y0108196D01*
X0224433Y0108794D02*
X0226144Y0108794D01*
X0226144Y0109393D02*
X0224433Y0109393D01*
X0224433Y0109991D02*
X0226145Y0109991D01*
X0226145Y0110590D02*
X0224433Y0110590D01*
X0224433Y0111188D02*
X0226145Y0111188D01*
X0226145Y0111787D02*
X0224433Y0111787D01*
X0224433Y0112385D02*
X0226146Y0112385D01*
X0226146Y0112984D02*
X0224433Y0112984D01*
X0224433Y0113582D02*
X0226146Y0113582D01*
X0226146Y0114181D02*
X0224433Y0114181D01*
X0224433Y0114779D02*
X0226146Y0114779D01*
X0226147Y0115378D02*
X0224433Y0115378D01*
X0224433Y0115976D02*
X0226147Y0115976D01*
X0226147Y0116575D02*
X0224433Y0116575D01*
X0224433Y0117173D02*
X0226147Y0117173D01*
X0226147Y0117772D02*
X0224433Y0117772D01*
X0224433Y0118370D02*
X0226148Y0118370D01*
X0226148Y0118969D02*
X0224433Y0118969D01*
X0224433Y0119568D02*
X0226148Y0119568D01*
X0226148Y0120166D02*
X0224433Y0120166D01*
X0224433Y0120765D02*
X0226149Y0120765D01*
X0226149Y0121363D02*
X0224433Y0121363D01*
X0224433Y0121962D02*
X0226149Y0121962D01*
X0226149Y0122560D02*
X0224433Y0122560D01*
X0224433Y0123159D02*
X0226149Y0123159D01*
X0226150Y0123757D02*
X0224433Y0123757D01*
X0224433Y0124356D02*
X0226150Y0124356D01*
X0226150Y0124954D02*
X0224433Y0124954D01*
X0224433Y0125553D02*
X0226150Y0125553D01*
X0226150Y0126151D02*
X0224433Y0126151D01*
X0224433Y0126750D02*
X0226151Y0126750D01*
X0226151Y0127348D02*
X0224433Y0127348D01*
X0224433Y0127947D02*
X0226151Y0127947D01*
X0226151Y0128545D02*
X0224433Y0128545D01*
X0224433Y0129144D02*
X0226152Y0129144D01*
X0226152Y0129742D02*
X0224433Y0129742D01*
X0224433Y0130341D02*
X0226152Y0130341D01*
X0226152Y0130939D02*
X0224433Y0130939D01*
X0224433Y0131538D02*
X0226152Y0131538D01*
X0226153Y0132136D02*
X0224433Y0132136D01*
X0224433Y0132735D02*
X0226153Y0132735D01*
X0226153Y0133333D02*
X0224433Y0133333D01*
X0224433Y0133932D02*
X0226153Y0133932D01*
X0226154Y0134530D02*
X0224433Y0134530D01*
X0224433Y0135129D02*
X0226154Y0135129D01*
X0226154Y0135727D02*
X0224433Y0135727D01*
X0224433Y0136326D02*
X0226154Y0136326D01*
X0226154Y0136924D02*
X0224433Y0136924D01*
X0224433Y0137523D02*
X0226155Y0137523D01*
X0226155Y0138121D02*
X0224433Y0138121D01*
X0224433Y0138720D02*
X0226155Y0138720D01*
X0226155Y0139318D02*
X0224433Y0139318D01*
X0224433Y0139917D02*
X0226155Y0139917D01*
X0226156Y0140515D02*
X0224433Y0140515D01*
X0224433Y0141114D02*
X0226156Y0141114D01*
X0226156Y0141712D02*
X0224433Y0141712D01*
X0224433Y0142311D02*
X0226156Y0142311D01*
X0226157Y0142909D02*
X0224433Y0142909D01*
X0224433Y0143508D02*
X0226157Y0143508D01*
X0226157Y0144106D02*
X0224433Y0144106D01*
X0224433Y0144705D02*
X0226157Y0144705D01*
X0226157Y0145303D02*
X0224433Y0145303D01*
X0224433Y0145902D02*
X0226158Y0145902D01*
X0226158Y0146501D02*
X0224433Y0146501D01*
X0224433Y0147099D02*
X0226158Y0147099D01*
X0226158Y0147698D02*
X0224433Y0147698D01*
X0224433Y0148296D02*
X0226158Y0148296D01*
X0226159Y0148895D02*
X0224433Y0148895D01*
X0224433Y0149493D02*
X0226159Y0149493D01*
X0226159Y0150092D02*
X0224433Y0150092D01*
X0224433Y0150690D02*
X0226159Y0150690D01*
X0226160Y0151289D02*
X0224433Y0151289D01*
X0224433Y0151887D02*
X0226160Y0151887D01*
X0226160Y0152486D02*
X0224433Y0152486D01*
X0224433Y0153084D02*
X0226160Y0153084D01*
X0226160Y0153683D02*
X0224433Y0153683D01*
X0224433Y0154281D02*
X0226161Y0154281D01*
X0226161Y0154880D02*
X0224433Y0154880D01*
X0224433Y0155478D02*
X0226161Y0155478D01*
X0226161Y0156077D02*
X0224433Y0156077D01*
X0224433Y0156675D02*
X0226161Y0156675D01*
X0226162Y0157274D02*
X0224433Y0157274D01*
X0224433Y0157872D02*
X0226162Y0157872D01*
X0226162Y0158471D02*
X0224433Y0158471D01*
X0224433Y0159069D02*
X0226162Y0159069D01*
X0226163Y0159668D02*
X0224433Y0159668D01*
X0224433Y0160266D02*
X0226163Y0160266D01*
X0226163Y0160865D02*
X0224433Y0160865D01*
X0224433Y0161463D02*
X0226163Y0161463D01*
X0226163Y0162062D02*
X0224433Y0162062D01*
X0224433Y0162660D02*
X0226164Y0162660D01*
X0226164Y0163259D02*
X0224433Y0163259D01*
X0224433Y0163857D02*
X0226164Y0163857D01*
X0226164Y0164456D02*
X0224433Y0164456D01*
X0224433Y0165054D02*
X0226165Y0165054D01*
X0226165Y0165653D02*
X0224433Y0165653D01*
X0224433Y0166251D02*
X0226165Y0166251D01*
X0226165Y0166850D02*
X0224433Y0166850D01*
X0224433Y0167448D02*
X0226165Y0167448D01*
X0226166Y0168047D02*
X0224433Y0168047D01*
X0224433Y0168645D02*
X0226166Y0168645D01*
X0226166Y0169244D02*
X0224433Y0169244D01*
X0224433Y0169842D02*
X0226166Y0169842D01*
X0226166Y0170441D02*
X0224433Y0170441D01*
X0224433Y0171039D02*
X0226167Y0171039D01*
X0226167Y0171638D02*
X0224433Y0171638D01*
X0224433Y0172237D02*
X0226167Y0172237D01*
X0226167Y0172835D02*
X0224433Y0172835D01*
X0224433Y0173434D02*
X0226168Y0173434D01*
X0226168Y0174032D02*
X0224433Y0174032D01*
X0224433Y0174631D02*
X0226168Y0174631D01*
X0226168Y0175229D02*
X0224433Y0175229D01*
X0224433Y0175828D02*
X0226168Y0175828D01*
X0226169Y0176426D02*
X0224433Y0176426D01*
X0224433Y0177025D02*
X0226169Y0177025D01*
X0226169Y0177623D02*
X0224433Y0177623D01*
X0224433Y0178222D02*
X0226169Y0178222D01*
X0226169Y0178820D02*
X0224433Y0178820D01*
X0224433Y0179419D02*
X0226170Y0179419D01*
X0226170Y0180017D02*
X0224433Y0180017D01*
X0224433Y0180616D02*
X0226170Y0180616D01*
X0226170Y0181214D02*
X0224433Y0181214D01*
X0224433Y0181813D02*
X0226171Y0181813D01*
X0226171Y0182411D02*
X0224433Y0182411D01*
X0224433Y0183010D02*
X0226171Y0183010D01*
X0226171Y0183608D02*
X0224433Y0183608D01*
X0224433Y0184207D02*
X0226171Y0184207D01*
X0226172Y0184805D02*
X0224433Y0184805D01*
X0224433Y0185404D02*
X0226172Y0185404D01*
X0226172Y0186002D02*
X0224433Y0186002D01*
X0224433Y0186601D02*
X0226172Y0186601D01*
X0226172Y0187199D02*
X0224433Y0187199D01*
X0224433Y0187798D02*
X0226173Y0187798D01*
X0226173Y0188396D02*
X0224433Y0188396D01*
X0224433Y0188995D02*
X0226173Y0188995D01*
X0226173Y0189593D02*
X0224433Y0189593D01*
X0224433Y0190192D02*
X0226174Y0190192D01*
X0226174Y0190790D02*
X0224433Y0190790D01*
X0224433Y0191389D02*
X0226174Y0191389D01*
X0226174Y0191987D02*
X0224433Y0191987D01*
X0224433Y0192586D02*
X0226174Y0192586D01*
X0226175Y0193184D02*
X0224433Y0193184D01*
X0224433Y0193783D02*
X0226175Y0193783D01*
X0226175Y0194381D02*
X0224433Y0194381D01*
X0224433Y0194980D02*
X0226175Y0194980D01*
X0226175Y0195578D02*
X0224433Y0195578D01*
X0224433Y0196177D02*
X0226176Y0196177D01*
X0226176Y0196775D02*
X0224433Y0196775D01*
X0224433Y0197374D02*
X0226176Y0197374D01*
X0226176Y0197972D02*
X0224433Y0197972D01*
X0224433Y0198571D02*
X0226177Y0198571D01*
X0226177Y0199170D02*
X0224433Y0199170D01*
X0224433Y0199768D02*
X0226177Y0199768D01*
X0226177Y0200367D02*
X0224433Y0200367D01*
X0224433Y0200965D02*
X0226177Y0200965D01*
X0226178Y0201564D02*
X0224433Y0201564D01*
X0224433Y0202162D02*
X0226178Y0202162D01*
X0226178Y0202761D02*
X0224433Y0202761D01*
X0224433Y0203359D02*
X0226178Y0203359D01*
X0226179Y0203958D02*
X0224433Y0203958D01*
X0224433Y0204556D02*
X0226179Y0204556D01*
X0226179Y0205155D02*
X0224433Y0205155D01*
X0224433Y0205753D02*
X0226179Y0205753D01*
X0226179Y0206352D02*
X0224433Y0206352D01*
X0224433Y0206950D02*
X0226180Y0206950D01*
X0226180Y0207549D02*
X0224433Y0207549D01*
X0224433Y0208147D02*
X0226180Y0208147D01*
X0226180Y0208746D02*
X0224433Y0208746D01*
X0224433Y0209344D02*
X0226180Y0209344D01*
X0226181Y0209943D02*
X0224433Y0209943D01*
X0224433Y0210541D02*
X0226181Y0210541D01*
X0226181Y0211140D02*
X0224433Y0211140D01*
X0224433Y0211738D02*
X0226181Y0211738D01*
X0226182Y0212337D02*
X0224433Y0212337D01*
X0224433Y0212935D02*
X0226182Y0212935D01*
X0226182Y0213534D02*
X0224433Y0213534D01*
X0224433Y0214132D02*
X0226182Y0214132D01*
X0226182Y0214731D02*
X0224433Y0214731D01*
X0224433Y0215329D02*
X0226183Y0215329D01*
X0226183Y0215928D02*
X0224433Y0215928D01*
X0224433Y0216526D02*
X0226183Y0216526D01*
X0226183Y0217125D02*
X0224433Y0217125D01*
X0224433Y0217723D02*
X0226183Y0217723D01*
X0226184Y0218322D02*
X0224433Y0218322D01*
X0224433Y0218920D02*
X0226184Y0218920D01*
X0226184Y0219519D02*
X0224433Y0219519D01*
X0224433Y0220117D02*
X0226184Y0220117D01*
X0226185Y0220716D02*
X0224433Y0220716D01*
X0224433Y0221314D02*
X0226185Y0221314D01*
X0226185Y0221913D02*
X0224433Y0221913D01*
X0224433Y0222511D02*
X0226185Y0222511D01*
X0226185Y0223110D02*
X0224433Y0223110D01*
X0224433Y0223708D02*
X0226186Y0223708D01*
X0226186Y0224307D02*
X0224433Y0224307D01*
X0224433Y0224905D02*
X0226186Y0224905D01*
X0226186Y0225504D02*
X0224433Y0225504D01*
X0224433Y0226103D02*
X0226186Y0226103D01*
X0226187Y0226701D02*
X0224433Y0226701D01*
X0224433Y0227300D02*
X0226187Y0227300D01*
X0226187Y0227898D02*
X0224433Y0227898D01*
X0224433Y0228497D02*
X0226187Y0228497D01*
X0226188Y0229095D02*
X0224433Y0229095D01*
X0224433Y0229694D02*
X0226188Y0229694D01*
X0226188Y0230292D02*
X0224433Y0230292D01*
X0224433Y0230891D02*
X0226188Y0230891D01*
X0226188Y0231489D02*
X0224433Y0231489D01*
X0224433Y0232088D02*
X0226189Y0232088D01*
X0226189Y0232686D02*
X0224433Y0232686D01*
X0224433Y0233285D02*
X0226189Y0233285D01*
X0226189Y0233883D02*
X0224433Y0233883D01*
X0224433Y0234482D02*
X0226189Y0234482D01*
X0226190Y0235080D02*
X0224433Y0235080D01*
X0224433Y0235679D02*
X0226190Y0235679D01*
X0226190Y0236277D02*
X0224433Y0236277D01*
X0224433Y0236876D02*
X0226190Y0236876D01*
X0226191Y0237474D02*
X0224433Y0237474D01*
X0224433Y0238073D02*
X0226191Y0238073D01*
X0226191Y0238671D02*
X0224433Y0238671D01*
X0224433Y0239270D02*
X0226191Y0239270D01*
X0226191Y0239868D02*
X0224433Y0239868D01*
X0224433Y0240467D02*
X0226192Y0240467D01*
X0226192Y0241065D02*
X0224433Y0241065D01*
X0224433Y0241664D02*
X0226192Y0241664D01*
X0226192Y0242262D02*
X0224433Y0242262D01*
X0224433Y0242861D02*
X0226193Y0242861D01*
X0226193Y0243459D02*
X0224433Y0243459D01*
X0222233Y0243459D02*
X0220083Y0243459D01*
X0220083Y0242861D02*
X0222233Y0242861D01*
X0222233Y0242262D02*
X0220083Y0242262D01*
X0220083Y0241664D02*
X0222233Y0241664D01*
X0222233Y0241065D02*
X0220083Y0241065D01*
X0220083Y0240467D02*
X0222233Y0240467D01*
X0222233Y0239868D02*
X0220083Y0239868D01*
X0220083Y0239270D02*
X0222233Y0239270D01*
X0222233Y0238671D02*
X0220083Y0238671D01*
X0220083Y0238073D02*
X0222233Y0238073D01*
X0222233Y0237474D02*
X0220083Y0237474D01*
X0220083Y0236876D02*
X0222233Y0236876D01*
X0222233Y0236277D02*
X0220083Y0236277D01*
X0220083Y0235679D02*
X0222233Y0235679D01*
X0222233Y0235080D02*
X0220083Y0235080D01*
X0220083Y0234482D02*
X0222233Y0234482D01*
X0222233Y0233883D02*
X0220083Y0233883D01*
X0220083Y0233285D02*
X0222233Y0233285D01*
X0222233Y0232686D02*
X0220083Y0232686D01*
X0220083Y0232088D02*
X0222233Y0232088D01*
X0222233Y0231489D02*
X0220083Y0231489D01*
X0220083Y0230891D02*
X0222233Y0230891D01*
X0222233Y0230292D02*
X0220083Y0230292D01*
X0220083Y0229694D02*
X0222233Y0229694D01*
X0222233Y0229095D02*
X0220083Y0229095D01*
X0220083Y0228497D02*
X0222233Y0228497D01*
X0222233Y0227898D02*
X0220083Y0227898D01*
X0220083Y0227300D02*
X0222233Y0227300D01*
X0222233Y0226701D02*
X0220083Y0226701D01*
X0220083Y0226103D02*
X0222233Y0226103D01*
X0222233Y0225504D02*
X0220083Y0225504D01*
X0220083Y0224905D02*
X0222233Y0224905D01*
X0222233Y0224307D02*
X0220083Y0224307D01*
X0220083Y0223708D02*
X0222233Y0223708D01*
X0222233Y0223110D02*
X0220083Y0223110D01*
X0220083Y0222511D02*
X0222233Y0222511D01*
X0222233Y0221913D02*
X0220083Y0221913D01*
X0220083Y0221314D02*
X0222233Y0221314D01*
X0222233Y0220716D02*
X0220083Y0220716D01*
X0220083Y0220117D02*
X0222233Y0220117D01*
X0222233Y0219519D02*
X0220083Y0219519D01*
X0220083Y0218920D02*
X0222233Y0218920D01*
X0222233Y0218322D02*
X0220083Y0218322D01*
X0220083Y0217723D02*
X0222233Y0217723D01*
X0222233Y0217125D02*
X0220083Y0217125D01*
X0220083Y0216526D02*
X0222233Y0216526D01*
X0222233Y0215928D02*
X0220083Y0215928D01*
X0220083Y0215329D02*
X0222233Y0215329D01*
X0222233Y0214731D02*
X0220083Y0214731D01*
X0220083Y0214132D02*
X0222233Y0214132D01*
X0222233Y0213534D02*
X0220083Y0213534D01*
X0220083Y0212935D02*
X0222233Y0212935D01*
X0222233Y0212337D02*
X0220083Y0212337D01*
X0220083Y0211738D02*
X0222233Y0211738D01*
X0222233Y0211140D02*
X0220083Y0211140D01*
X0220083Y0210541D02*
X0222233Y0210541D01*
X0222233Y0209943D02*
X0220083Y0209943D01*
X0220083Y0209344D02*
X0222233Y0209344D01*
X0222233Y0208746D02*
X0220083Y0208746D01*
X0220083Y0208147D02*
X0222233Y0208147D01*
X0222233Y0207549D02*
X0220083Y0207549D01*
X0220083Y0206950D02*
X0222233Y0206950D01*
X0222233Y0206352D02*
X0220083Y0206352D01*
X0220083Y0205753D02*
X0222233Y0205753D01*
X0222233Y0205155D02*
X0220083Y0205155D01*
X0220083Y0204556D02*
X0222233Y0204556D01*
X0222233Y0203958D02*
X0220083Y0203958D01*
X0220083Y0203359D02*
X0222233Y0203359D01*
X0222233Y0202761D02*
X0220083Y0202761D01*
X0220083Y0202162D02*
X0222233Y0202162D01*
X0222233Y0201564D02*
X0220083Y0201564D01*
X0220083Y0200965D02*
X0222233Y0200965D01*
X0222233Y0200367D02*
X0220083Y0200367D01*
X0220083Y0199768D02*
X0222233Y0199768D01*
X0222233Y0199170D02*
X0220083Y0199170D01*
X0220083Y0198571D02*
X0222233Y0198571D01*
X0222233Y0197972D02*
X0220083Y0197972D01*
X0220083Y0197374D02*
X0222233Y0197374D01*
X0222233Y0196775D02*
X0220083Y0196775D01*
X0220083Y0196177D02*
X0222233Y0196177D01*
X0222233Y0195578D02*
X0220083Y0195578D01*
X0220083Y0194980D02*
X0222233Y0194980D01*
X0222233Y0194381D02*
X0220083Y0194381D01*
X0220083Y0193783D02*
X0222233Y0193783D01*
X0222233Y0193184D02*
X0220083Y0193184D01*
X0220083Y0192586D02*
X0222233Y0192586D01*
X0222233Y0191987D02*
X0220083Y0191987D01*
X0220083Y0191389D02*
X0222233Y0191389D01*
X0222233Y0190790D02*
X0220083Y0190790D01*
X0220083Y0190192D02*
X0222233Y0190192D01*
X0222233Y0189593D02*
X0220083Y0189593D01*
X0220083Y0188995D02*
X0222233Y0188995D01*
X0222233Y0188396D02*
X0220083Y0188396D01*
X0220083Y0187798D02*
X0222233Y0187798D01*
X0222233Y0187199D02*
X0220083Y0187199D01*
X0220083Y0186601D02*
X0222233Y0186601D01*
X0222233Y0186002D02*
X0220083Y0186002D01*
X0220083Y0185404D02*
X0222233Y0185404D01*
X0222233Y0184805D02*
X0220083Y0184805D01*
X0220083Y0184207D02*
X0222233Y0184207D01*
X0222233Y0183608D02*
X0220083Y0183608D01*
X0220083Y0183010D02*
X0222233Y0183010D01*
X0222233Y0182411D02*
X0220083Y0182411D01*
X0220083Y0181813D02*
X0222233Y0181813D01*
X0222233Y0181214D02*
X0220083Y0181214D01*
X0220083Y0180616D02*
X0222233Y0180616D01*
X0222233Y0180017D02*
X0220083Y0180017D01*
X0220083Y0179419D02*
X0222233Y0179419D01*
X0222233Y0178820D02*
X0220083Y0178820D01*
X0220083Y0178222D02*
X0222233Y0178222D01*
X0222233Y0177623D02*
X0220083Y0177623D01*
X0220083Y0177025D02*
X0222233Y0177025D01*
X0222233Y0176426D02*
X0220083Y0176426D01*
X0220083Y0175828D02*
X0222233Y0175828D01*
X0222233Y0175229D02*
X0220083Y0175229D01*
X0220083Y0174631D02*
X0222233Y0174631D01*
X0222233Y0174032D02*
X0220083Y0174032D01*
X0220083Y0173434D02*
X0222233Y0173434D01*
X0222233Y0172835D02*
X0220083Y0172835D01*
X0220083Y0172237D02*
X0222233Y0172237D01*
X0222233Y0171638D02*
X0220083Y0171638D01*
X0220083Y0171039D02*
X0222233Y0171039D01*
X0222233Y0170441D02*
X0220083Y0170441D01*
X0220083Y0169842D02*
X0222233Y0169842D01*
X0222233Y0169244D02*
X0220083Y0169244D01*
X0220083Y0168645D02*
X0222233Y0168645D01*
X0222233Y0168047D02*
X0220083Y0168047D01*
X0220083Y0167448D02*
X0222233Y0167448D01*
X0222233Y0166850D02*
X0220083Y0166850D01*
X0220083Y0166251D02*
X0222233Y0166251D01*
X0222233Y0165653D02*
X0220083Y0165653D01*
X0220083Y0165054D02*
X0222233Y0165054D01*
X0222233Y0164456D02*
X0220083Y0164456D01*
X0220083Y0163857D02*
X0222233Y0163857D01*
X0222233Y0163259D02*
X0220083Y0163259D01*
X0220083Y0162660D02*
X0222233Y0162660D01*
X0222233Y0162062D02*
X0220083Y0162062D01*
X0220083Y0161463D02*
X0222233Y0161463D01*
X0222233Y0160865D02*
X0220083Y0160865D01*
X0220083Y0160266D02*
X0222233Y0160266D01*
X0222233Y0159668D02*
X0220083Y0159668D01*
X0220083Y0159069D02*
X0222233Y0159069D01*
X0222233Y0158471D02*
X0220083Y0158471D01*
X0220083Y0157872D02*
X0222233Y0157872D01*
X0222233Y0157274D02*
X0220083Y0157274D01*
X0220083Y0156675D02*
X0222233Y0156675D01*
X0222233Y0156077D02*
X0220083Y0156077D01*
X0220083Y0155478D02*
X0222233Y0155478D01*
X0222233Y0154880D02*
X0220083Y0154880D01*
X0220083Y0154281D02*
X0222233Y0154281D01*
X0222233Y0153683D02*
X0220083Y0153683D01*
X0220083Y0153084D02*
X0222233Y0153084D01*
X0222233Y0152486D02*
X0220083Y0152486D01*
X0220083Y0151887D02*
X0222233Y0151887D01*
X0222233Y0151289D02*
X0220083Y0151289D01*
X0220083Y0150690D02*
X0222233Y0150690D01*
X0222233Y0150092D02*
X0220083Y0150092D01*
X0220083Y0149493D02*
X0222233Y0149493D01*
X0222233Y0148895D02*
X0220083Y0148895D01*
X0220083Y0148296D02*
X0222233Y0148296D01*
X0222233Y0147698D02*
X0220083Y0147698D01*
X0220083Y0147099D02*
X0222233Y0147099D01*
X0222233Y0146501D02*
X0220083Y0146501D01*
X0220083Y0145902D02*
X0222233Y0145902D01*
X0222233Y0145303D02*
X0220083Y0145303D01*
X0220083Y0144705D02*
X0222233Y0144705D01*
X0222233Y0144106D02*
X0220083Y0144106D01*
X0220083Y0143508D02*
X0222233Y0143508D01*
X0222233Y0142909D02*
X0220083Y0142909D01*
X0220083Y0142311D02*
X0222233Y0142311D01*
X0222233Y0141712D02*
X0220083Y0141712D01*
X0220083Y0141114D02*
X0222233Y0141114D01*
X0222233Y0140515D02*
X0220083Y0140515D01*
X0220083Y0139917D02*
X0222233Y0139917D01*
X0222233Y0139318D02*
X0220083Y0139318D01*
X0220083Y0138720D02*
X0222233Y0138720D01*
X0222233Y0138121D02*
X0220083Y0138121D01*
X0220083Y0137523D02*
X0222233Y0137523D01*
X0222233Y0136924D02*
X0220083Y0136924D01*
X0220083Y0136326D02*
X0222233Y0136326D01*
X0222233Y0135727D02*
X0220083Y0135727D01*
X0220083Y0135129D02*
X0222233Y0135129D01*
X0222233Y0134530D02*
X0220083Y0134530D01*
X0220083Y0133932D02*
X0222233Y0133932D01*
X0222233Y0133333D02*
X0220083Y0133333D01*
X0220083Y0132735D02*
X0222233Y0132735D01*
X0222233Y0132136D02*
X0220083Y0132136D01*
X0220083Y0131538D02*
X0222233Y0131538D01*
X0222233Y0130939D02*
X0220083Y0130939D01*
X0220083Y0130341D02*
X0222233Y0130341D01*
X0222233Y0129742D02*
X0220083Y0129742D01*
X0220083Y0129144D02*
X0222233Y0129144D01*
X0222233Y0128545D02*
X0220083Y0128545D01*
X0220083Y0127947D02*
X0222233Y0127947D01*
X0222233Y0127348D02*
X0220083Y0127348D01*
X0220083Y0126750D02*
X0222233Y0126750D01*
X0222233Y0126151D02*
X0220083Y0126151D01*
X0220083Y0125553D02*
X0222233Y0125553D01*
X0222233Y0124954D02*
X0220083Y0124954D01*
X0220083Y0124356D02*
X0222233Y0124356D01*
X0222233Y0123757D02*
X0220083Y0123757D01*
X0220083Y0123159D02*
X0222233Y0123159D01*
X0222233Y0122560D02*
X0220083Y0122560D01*
X0220083Y0121962D02*
X0222233Y0121962D01*
X0222233Y0121363D02*
X0220083Y0121363D01*
X0220083Y0120765D02*
X0222233Y0120765D01*
X0222233Y0120166D02*
X0220083Y0120166D01*
X0220083Y0119568D02*
X0222233Y0119568D01*
X0222233Y0118969D02*
X0220083Y0118969D01*
X0220083Y0118370D02*
X0222233Y0118370D01*
X0222233Y0117772D02*
X0220083Y0117772D01*
X0220083Y0117173D02*
X0222233Y0117173D01*
X0222233Y0116575D02*
X0220083Y0116575D01*
X0220083Y0115976D02*
X0222233Y0115976D01*
X0222233Y0115378D02*
X0220083Y0115378D01*
X0220083Y0114779D02*
X0222233Y0114779D01*
X0222233Y0114181D02*
X0220083Y0114181D01*
X0220083Y0113582D02*
X0222233Y0113582D01*
X0222233Y0112984D02*
X0220083Y0112984D01*
X0220083Y0112385D02*
X0222233Y0112385D01*
X0222233Y0111787D02*
X0220083Y0111787D01*
X0220083Y0111188D02*
X0222233Y0111188D01*
X0222233Y0110590D02*
X0220083Y0110590D01*
X0220083Y0109991D02*
X0222233Y0109991D01*
X0222233Y0109393D02*
X0220083Y0109393D01*
X0220083Y0108794D02*
X0222233Y0108794D01*
X0222233Y0108196D02*
X0220083Y0108196D01*
X0220083Y0107597D02*
X0222233Y0107597D01*
X0222233Y0106999D02*
X0220083Y0106999D01*
X0220083Y0106400D02*
X0222233Y0106400D01*
X0222233Y0105802D02*
X0220083Y0105802D01*
X0220083Y0105203D02*
X0222233Y0105203D01*
X0222233Y0104605D02*
X0220083Y0104605D01*
X0220083Y0104006D02*
X0222233Y0104006D01*
X0222233Y0103408D02*
X0220083Y0103408D01*
X0220083Y0102809D02*
X0222233Y0102809D01*
X0222233Y0102211D02*
X0220083Y0102211D01*
X0220083Y0101612D02*
X0222233Y0101612D01*
X0222233Y0101014D02*
X0220083Y0101014D01*
X0220083Y0100415D02*
X0222233Y0100415D01*
X0222233Y0099817D02*
X0220083Y0099817D01*
X0220083Y0099218D02*
X0222233Y0099218D01*
X0222233Y0098620D02*
X0220083Y0098620D01*
X0220083Y0098021D02*
X0222233Y0098021D01*
X0222233Y0097423D02*
X0220083Y0097423D01*
X0220083Y0096824D02*
X0222233Y0096824D01*
X0222233Y0096226D02*
X0220083Y0096226D01*
X0220083Y0095627D02*
X0222233Y0095627D01*
X0222233Y0095029D02*
X0220083Y0095029D01*
X0220083Y0094430D02*
X0222233Y0094430D01*
X0222233Y0093832D02*
X0220083Y0093832D01*
X0220083Y0093233D02*
X0222233Y0093233D01*
X0222233Y0092634D02*
X0220083Y0092634D01*
X0220083Y0092036D02*
X0222233Y0092036D01*
X0222233Y0091437D02*
X0220083Y0091437D01*
X0220083Y0090839D02*
X0222233Y0090839D01*
X0222233Y0090240D02*
X0220083Y0090240D01*
X0220083Y0089642D02*
X0222233Y0089642D01*
X0222233Y0089043D02*
X0220083Y0089043D01*
X0220083Y0088445D02*
X0222233Y0088445D01*
X0222233Y0087846D02*
X0220083Y0087846D01*
X0220083Y0087248D02*
X0222233Y0087248D01*
X0222233Y0086649D02*
X0220083Y0086649D01*
X0220083Y0086051D02*
X0222233Y0086051D01*
X0222233Y0085452D02*
X0220083Y0085452D01*
X0220083Y0084854D02*
X0222233Y0084854D01*
X0222233Y0084255D02*
X0220083Y0084255D01*
X0220083Y0083657D02*
X0222233Y0083657D01*
X0222233Y0083058D02*
X0220083Y0083058D01*
X0220083Y0082460D02*
X0222233Y0082460D01*
X0222233Y0081861D02*
X0220083Y0081861D01*
X0220083Y0081263D02*
X0222233Y0081263D01*
X0222233Y0080664D02*
X0220083Y0080664D01*
X0220083Y0080066D02*
X0222233Y0080066D01*
X0222233Y0079467D02*
X0220083Y0079467D01*
X0220083Y0078869D02*
X0222233Y0078869D01*
X0222233Y0078270D02*
X0220083Y0078270D01*
X0220083Y0077672D02*
X0222233Y0077672D01*
X0222233Y0077073D02*
X0220083Y0077073D01*
X0220083Y0076475D02*
X0222233Y0076475D01*
X0222233Y0075876D02*
X0220083Y0075876D01*
X0220083Y0075278D02*
X0222233Y0075278D01*
X0222233Y0074679D02*
X0219682Y0074679D01*
X0219084Y0074081D02*
X0222233Y0074081D01*
X0222233Y0073482D02*
X0218485Y0073482D01*
X0217887Y0072884D02*
X0222233Y0072884D01*
X0222233Y0072285D02*
X0217288Y0072285D01*
X0216690Y0071687D02*
X0222233Y0071687D01*
X0222233Y0071088D02*
X0216091Y0071088D01*
X0215907Y0070490D02*
X0215493Y0070490D01*
X0217253Y0070490D02*
X0217853Y0070490D01*
X0217864Y0069891D02*
X0217264Y0069891D01*
X0217274Y0069293D02*
X0217874Y0069293D01*
X0217885Y0068694D02*
X0217285Y0068694D01*
X0217295Y0068096D02*
X0217895Y0068096D01*
X0217905Y0067497D02*
X0217305Y0067497D01*
X0217316Y0066899D02*
X0217916Y0066899D01*
X0217926Y0066300D02*
X0217326Y0066300D01*
X0217337Y0065701D02*
X0210705Y0065701D01*
X0210433Y0065103D02*
X0212682Y0065103D01*
X0212797Y0064504D02*
X0210433Y0064504D01*
X0210429Y0063906D02*
X0212991Y0063906D01*
X0213290Y0063307D02*
X0210429Y0063307D01*
X0210429Y0062709D02*
X0213696Y0062709D01*
X0214248Y0062110D02*
X0210429Y0062110D01*
X0210429Y0061512D02*
X0215026Y0061512D01*
X0216487Y0060913D02*
X0210429Y0060913D01*
X0210429Y0060315D02*
X0220774Y0060315D01*
X0221372Y0060913D02*
X0218783Y0060913D01*
X0218020Y0060913D02*
X0217420Y0060913D01*
X0217410Y0061512D02*
X0218010Y0061512D01*
X0218000Y0062110D02*
X0217399Y0062110D01*
X0217389Y0062709D02*
X0217989Y0062709D01*
X0217979Y0063307D02*
X0217379Y0063307D01*
X0217368Y0063906D02*
X0217968Y0063906D01*
X0217958Y0064504D02*
X0217358Y0064504D01*
X0217347Y0065103D02*
X0217947Y0065103D01*
X0220245Y0061512D02*
X0221971Y0061512D01*
X0222233Y0062110D02*
X0221023Y0062110D01*
X0221574Y0062709D02*
X0222233Y0062709D01*
X0222233Y0063307D02*
X0221980Y0063307D01*
X0223333Y0061319D02*
X0217810Y0055795D01*
X0220913Y0052534D02*
X0226781Y0052534D01*
X0226777Y0051936D02*
X0220251Y0051936D01*
X0218806Y0051337D02*
X0226777Y0051337D01*
X0226777Y0050739D02*
X0210429Y0050739D01*
X0210429Y0051337D02*
X0216814Y0051337D01*
X0216711Y0050140D02*
X0210429Y0050140D01*
X0210429Y0049542D02*
X0215365Y0049542D01*
X0214767Y0048943D02*
X0210429Y0048943D01*
X0210429Y0048345D02*
X0214169Y0048345D01*
X0213921Y0047746D02*
X0210429Y0047746D01*
X0210429Y0047148D02*
X0213673Y0047148D01*
X0213484Y0046549D02*
X0210429Y0046549D01*
X0210429Y0045951D02*
X0213484Y0045951D01*
X0213484Y0045352D02*
X0210429Y0045352D01*
X0210429Y0044754D02*
X0213546Y0044754D01*
X0213794Y0044155D02*
X0210429Y0044155D01*
X0210429Y0043557D02*
X0214041Y0043557D01*
X0214459Y0042958D02*
X0210429Y0042958D01*
X0210429Y0042360D02*
X0215058Y0042360D01*
X0215969Y0041761D02*
X0210429Y0041761D01*
X0210429Y0041163D02*
X0226777Y0041163D01*
X0226777Y0039367D02*
X0220954Y0039367D01*
X0221553Y0038768D02*
X0227078Y0038768D01*
X0228933Y0038170D02*
X0222047Y0038170D01*
X0222295Y0037571D02*
X0228933Y0037571D01*
X0228933Y0036973D02*
X0222543Y0036973D01*
X0222659Y0036374D02*
X0228933Y0036374D01*
X0228933Y0035776D02*
X0222659Y0035776D01*
X0222659Y0035177D02*
X0228933Y0035177D01*
X0228933Y0034579D02*
X0222524Y0034579D01*
X0222276Y0033980D02*
X0228933Y0033980D01*
X0228933Y0033382D02*
X0222029Y0033382D01*
X0221508Y0032783D02*
X0228933Y0032783D01*
X0228933Y0032185D02*
X0220909Y0032185D01*
X0219749Y0031586D02*
X0228933Y0031586D01*
X0228526Y0029791D02*
X0220458Y0029791D01*
X0221305Y0029192D02*
X0227927Y0029192D01*
X0227329Y0028594D02*
X0221903Y0028594D01*
X0222295Y0027995D02*
X0226730Y0027995D01*
X0226233Y0027397D02*
X0222543Y0027397D01*
X0222791Y0026798D02*
X0226233Y0026798D01*
X0226233Y0026200D02*
X0222833Y0026200D01*
X0222833Y0025601D02*
X0226233Y0025601D01*
X0226233Y0025003D02*
X0222833Y0025003D01*
X0222626Y0024404D02*
X0226233Y0024404D01*
X0226529Y0023806D02*
X0222378Y0023806D01*
X0222104Y0023207D02*
X0227128Y0023207D01*
X0227726Y0022609D02*
X0221506Y0022609D01*
X0220907Y0022010D02*
X0228325Y0022010D01*
X0229833Y0012800D02*
X0230038Y0012802D01*
X0230244Y0012810D01*
X0230449Y0012822D01*
X0230653Y0012840D01*
X0230858Y0012862D01*
X0231061Y0012889D01*
X0231264Y0012921D01*
X0231466Y0012958D01*
X0231667Y0013000D01*
X0231867Y0013047D01*
X0232066Y0013099D01*
X0232264Y0013155D01*
X0232460Y0013216D01*
X0232654Y0013282D01*
X0232847Y0013352D01*
X0233038Y0013428D01*
X0233228Y0013507D01*
X0233415Y0013592D01*
X0233600Y0013680D01*
X0233783Y0013774D01*
X0233964Y0013871D01*
X0234142Y0013973D01*
X0234318Y0014080D01*
X0234491Y0014190D01*
X0234662Y0014305D01*
X0234829Y0014423D01*
X0234994Y0014546D01*
X0235156Y0014673D01*
X0235314Y0014803D01*
X0235470Y0014938D01*
X0235622Y0015076D01*
X0235770Y0015217D01*
X0235916Y0015363D01*
X0236057Y0015511D01*
X0236195Y0015663D01*
X0236330Y0015819D01*
X0236460Y0015977D01*
X0236587Y0016139D01*
X0236710Y0016304D01*
X0236828Y0016471D01*
X0236943Y0016642D01*
X0237053Y0016815D01*
X0237160Y0016991D01*
X0237262Y0017169D01*
X0237359Y0017350D01*
X0237453Y0017533D01*
X0237541Y0017718D01*
X0237626Y0017905D01*
X0237705Y0018095D01*
X0237781Y0018286D01*
X0237851Y0018479D01*
X0237917Y0018673D01*
X0237978Y0018869D01*
X0238034Y0019067D01*
X0238086Y0019266D01*
X0238133Y0019466D01*
X0238175Y0019667D01*
X0238212Y0019869D01*
X0238244Y0020072D01*
X0238271Y0020275D01*
X0238293Y0020480D01*
X0238311Y0020684D01*
X0238323Y0020889D01*
X0238331Y0021095D01*
X0238333Y0021300D01*
X0229833Y0012800D02*
X0225333Y0012800D01*
X0226777Y0047148D02*
X0222296Y0047148D01*
X0222048Y0047746D02*
X0226777Y0047746D01*
X0226777Y0048345D02*
X0221800Y0048345D01*
X0221202Y0048943D02*
X0226777Y0048943D01*
X0226777Y0049542D02*
X0220603Y0049542D01*
X0219258Y0050140D02*
X0226777Y0050140D01*
X0220175Y0059716D02*
X0220103Y0059716D01*
X0223333Y0061319D02*
X0223333Y0246994D01*
X0223333Y0249554D01*
X0223333Y0256246D02*
X0223333Y0258806D01*
X0223333Y0256246D02*
X0223333Y0266994D01*
X0223333Y0269554D01*
X0223333Y0276246D02*
X0223333Y0278806D01*
X0223333Y0276246D02*
X0223333Y0286994D01*
X0223333Y0289554D01*
X0223333Y0296246D02*
X0223333Y0298806D01*
X0223333Y0296246D02*
X0223333Y0306994D01*
X0223333Y0309554D01*
X0223333Y0316246D02*
X0223333Y0318806D01*
X0223333Y0325694D01*
X0223333Y0328254D01*
X0220565Y0328955D02*
X0220083Y0328955D01*
X0220083Y0332541D01*
X0220153Y0332279D01*
X0220325Y0331983D01*
X0220567Y0331741D01*
X0220863Y0331570D01*
X0221194Y0331481D01*
X0223033Y0331481D01*
X0223033Y0334646D01*
X0223633Y0334646D01*
X0223633Y0333745D01*
X0223633Y0331481D01*
X0225473Y0331481D01*
X0225804Y0331570D01*
X0226100Y0331741D01*
X0226225Y0331865D01*
X0226223Y0328955D01*
X0226102Y0328955D01*
X0226102Y0330750D01*
X0225633Y0331219D01*
X0221033Y0331219D01*
X0220565Y0330750D01*
X0220565Y0328955D01*
X0220565Y0329046D02*
X0220083Y0329046D01*
X0220083Y0329645D02*
X0220565Y0329645D01*
X0220565Y0330243D02*
X0220083Y0330243D01*
X0220083Y0330842D02*
X0220657Y0330842D01*
X0220083Y0331441D02*
X0226224Y0331441D01*
X0226224Y0330842D02*
X0226010Y0330842D01*
X0226102Y0330243D02*
X0226224Y0330243D01*
X0226224Y0329645D02*
X0226102Y0329645D01*
X0226102Y0329046D02*
X0226224Y0329046D01*
X0223633Y0332039D02*
X0223033Y0332039D01*
X0223033Y0332638D02*
X0223633Y0332638D01*
X0223633Y0333236D02*
X0223033Y0333236D01*
X0223033Y0333835D02*
X0223633Y0333835D01*
X0223633Y0334433D02*
X0223033Y0334433D01*
X0223033Y0335246D02*
X0223033Y0337205D01*
X0223633Y0337205D01*
X0223633Y0335246D01*
X0223033Y0335246D01*
X0223033Y0335630D02*
X0223633Y0335630D01*
X0223633Y0336229D02*
X0223033Y0336229D01*
X0223033Y0336827D02*
X0223633Y0336827D01*
X0223333Y0337506D02*
X0221283Y0339556D01*
X0221283Y0342150D01*
X0222043Y0343058D02*
X0222043Y0344542D01*
X0222233Y0344732D01*
X0222233Y0344988D01*
X0221033Y0344988D01*
X0220565Y0345457D01*
X0220565Y0350450D01*
X0221033Y0350919D01*
X0225633Y0350919D01*
X0226102Y0350450D01*
X0226102Y0345457D01*
X0225633Y0344988D01*
X0225177Y0344988D01*
X0225624Y0344542D01*
X0225624Y0343058D01*
X0224575Y0342009D01*
X0223092Y0342009D01*
X0222043Y0343058D01*
X0222289Y0342812D02*
X0220083Y0342812D01*
X0220083Y0342214D02*
X0222887Y0342214D01*
X0223033Y0341266D02*
X0220111Y0341266D01*
X0220083Y0341259D01*
X0220083Y0356392D01*
X0221394Y0358683D01*
X0221394Y0358418D01*
X0222200Y0357612D01*
X0221033Y0357612D01*
X0220565Y0357143D01*
X0220565Y0352150D01*
X0221033Y0351681D01*
X0225633Y0351681D01*
X0226102Y0352150D01*
X0226102Y0356682D01*
X0226233Y0356436D01*
X0226228Y0341266D01*
X0223633Y0341266D01*
X0223633Y0337806D01*
X0223033Y0337806D01*
X0223033Y0341266D01*
X0223033Y0341017D02*
X0223633Y0341017D01*
X0223633Y0340418D02*
X0223033Y0340418D01*
X0223033Y0339820D02*
X0223633Y0339820D01*
X0223633Y0339221D02*
X0223033Y0339221D01*
X0223033Y0338623D02*
X0223633Y0338623D01*
X0223633Y0338024D02*
X0223033Y0338024D01*
X0224779Y0342214D02*
X0226228Y0342214D01*
X0226228Y0342812D02*
X0225378Y0342812D01*
X0225624Y0343411D02*
X0226229Y0343411D01*
X0226229Y0344009D02*
X0225624Y0344009D01*
X0225558Y0344608D02*
X0226229Y0344608D01*
X0226229Y0345206D02*
X0225851Y0345206D01*
X0226102Y0345805D02*
X0226230Y0345805D01*
X0226230Y0346403D02*
X0226102Y0346403D01*
X0226102Y0347002D02*
X0226230Y0347002D01*
X0226230Y0347600D02*
X0226102Y0347600D01*
X0226102Y0348199D02*
X0226230Y0348199D01*
X0226231Y0348797D02*
X0226102Y0348797D01*
X0226102Y0349396D02*
X0226231Y0349396D01*
X0226231Y0349994D02*
X0226102Y0349994D01*
X0226231Y0350593D02*
X0225959Y0350593D01*
X0226231Y0351191D02*
X0220083Y0351191D01*
X0220083Y0350593D02*
X0220707Y0350593D01*
X0220565Y0349994D02*
X0220083Y0349994D01*
X0220083Y0349396D02*
X0220565Y0349396D01*
X0220565Y0348797D02*
X0220083Y0348797D01*
X0220083Y0348199D02*
X0220565Y0348199D01*
X0220565Y0347600D02*
X0220083Y0347600D01*
X0220083Y0347002D02*
X0220565Y0347002D01*
X0220565Y0346403D02*
X0220083Y0346403D01*
X0220083Y0345805D02*
X0220565Y0345805D01*
X0220815Y0345206D02*
X0220083Y0345206D01*
X0220083Y0344608D02*
X0222109Y0344608D01*
X0222043Y0344009D02*
X0220083Y0344009D01*
X0220083Y0343411D02*
X0222043Y0343411D01*
X0223333Y0344300D02*
X0223833Y0343800D01*
X0223333Y0344300D02*
X0223333Y0347954D01*
X0220925Y0351790D02*
X0220083Y0351790D01*
X0220083Y0352388D02*
X0220565Y0352388D01*
X0220565Y0352987D02*
X0220083Y0352987D01*
X0220083Y0353585D02*
X0220565Y0353585D01*
X0220565Y0354184D02*
X0220083Y0354184D01*
X0220083Y0354782D02*
X0220565Y0354782D01*
X0220565Y0355381D02*
X0220083Y0355381D01*
X0220083Y0355979D02*
X0220565Y0355979D01*
X0220565Y0356578D02*
X0220190Y0356578D01*
X0220532Y0357177D02*
X0220598Y0357177D01*
X0220875Y0357775D02*
X0222037Y0357775D01*
X0221438Y0358374D02*
X0221217Y0358374D01*
X0223283Y0359200D02*
X0223333Y0359150D01*
X0223333Y0354646D01*
X0226102Y0354782D02*
X0226233Y0354782D01*
X0226233Y0354184D02*
X0226102Y0354184D01*
X0226102Y0353585D02*
X0226232Y0353585D01*
X0226232Y0352987D02*
X0226102Y0352987D01*
X0226102Y0352388D02*
X0226232Y0352388D01*
X0226232Y0351790D02*
X0225742Y0351790D01*
X0226102Y0355381D02*
X0226233Y0355381D01*
X0226233Y0355979D02*
X0226102Y0355979D01*
X0226102Y0356578D02*
X0226157Y0356578D01*
X0226228Y0341615D02*
X0220083Y0341615D01*
X0220083Y0332039D02*
X0220292Y0332039D01*
X0219364Y0070490D02*
X0222233Y0070490D01*
X0222233Y0069891D02*
X0220502Y0069891D01*
X0221208Y0069293D02*
X0222233Y0069293D01*
X0222233Y0068694D02*
X0221708Y0068694D01*
X0222074Y0068096D02*
X0222233Y0068096D01*
X0215517Y0059716D02*
X0210429Y0059716D01*
X0210429Y0059118D02*
X0214768Y0059118D01*
X0214170Y0058519D02*
X0210429Y0058519D01*
X0210429Y0057921D02*
X0213819Y0057921D01*
X0213571Y0057322D02*
X0210429Y0057322D01*
X0210429Y0056724D02*
X0213324Y0056724D01*
X0213310Y0056125D02*
X0210429Y0056125D01*
X0210429Y0055527D02*
X0213310Y0055527D01*
X0213310Y0054928D02*
X0210429Y0054928D01*
X0210429Y0054330D02*
X0213546Y0054330D01*
X0213794Y0053731D02*
X0210429Y0053731D01*
X0210429Y0053133D02*
X0214108Y0053133D01*
X0214707Y0052534D02*
X0210429Y0052534D01*
X0210429Y0051936D02*
X0215369Y0051936D01*
X0212653Y0066300D02*
X0211303Y0066300D01*
X0211902Y0066899D02*
X0212748Y0066899D01*
X0212931Y0067497D02*
X0212500Y0067497D01*
X0213099Y0068096D02*
X0213196Y0068096D01*
D11*
X0208333Y0066300D02*
X0208333Y0021300D01*
X0218833Y0012800D02*
X0225333Y0012800D01*
X0238333Y0021300D02*
X0238333Y0066300D01*
D12*
X0217635Y0065794D03*
X0217810Y0055795D03*
X0217984Y0045797D03*
X0218159Y0035798D03*
X0218333Y0025800D03*
D13*
X0230333Y0025721D02*
X0230333Y0041863D01*
X0230333Y0050131D02*
X0230333Y0063517D01*
D14*
X0230333Y0065800D03*
X0230333Y0025800D03*
D15*
X0230333Y0041763D03*
X0230333Y0049837D03*
D16*
X0223333Y0249554D03*
X0223333Y0256246D03*
X0223333Y0269554D03*
X0223333Y0276246D03*
X0223333Y0289554D03*
X0223333Y0296246D03*
X0223333Y0309554D03*
X0223333Y0316246D03*
X0223333Y0328254D03*
X0223333Y0334946D03*
X0223333Y0347954D03*
X0223333Y0354646D03*
D17*
X0223333Y0337506D03*
X0223333Y0325694D03*
X0223333Y0318806D03*
X0223333Y0306994D03*
X0223333Y0298806D03*
X0223333Y0286994D03*
X0223333Y0278806D03*
X0223333Y0266994D03*
X0223333Y0258806D03*
X0223333Y0246994D03*
D18*
X0223833Y0343800D03*
D19*
X0221283Y0342150D03*
X0223283Y0359200D03*
M02*
