G75*
%MOIN*%
%OFA0B0*%
%FSLAX25Y25*%
%IPPOS*%
%LPD*%
%AMOC8*
5,1,8,0,0,1.08239X$1,22.5*
%
%ADD10C,0.00600*%
%ADD11C,0.00591*%
D10*
X0208333Y0065300D02*
X0208333Y0066300D01*
X0217983Y0075950D01*
X0217983Y0356950D01*
X0223333Y0366300D01*
X0228233Y0357150D01*
X0228333Y0356300D02*
X0228233Y0078500D01*
X0228233Y0078650D02*
X0228183Y0076350D01*
X0228333Y0076300D02*
X0238333Y0066300D01*
X0238333Y0021300D02*
X0238331Y0021095D01*
X0238323Y0020889D01*
X0238311Y0020684D01*
X0238293Y0020480D01*
X0238271Y0020275D01*
X0238244Y0020072D01*
X0238212Y0019869D01*
X0238175Y0019667D01*
X0238133Y0019466D01*
X0238086Y0019266D01*
X0238034Y0019067D01*
X0237978Y0018869D01*
X0237917Y0018673D01*
X0237851Y0018479D01*
X0237781Y0018286D01*
X0237705Y0018095D01*
X0237626Y0017905D01*
X0237541Y0017718D01*
X0237453Y0017533D01*
X0237359Y0017350D01*
X0237262Y0017169D01*
X0237160Y0016991D01*
X0237053Y0016815D01*
X0236943Y0016642D01*
X0236828Y0016471D01*
X0236710Y0016304D01*
X0236587Y0016139D01*
X0236460Y0015977D01*
X0236330Y0015819D01*
X0236195Y0015663D01*
X0236057Y0015511D01*
X0235916Y0015363D01*
X0235770Y0015217D01*
X0235622Y0015076D01*
X0235470Y0014938D01*
X0235314Y0014803D01*
X0235156Y0014673D01*
X0234994Y0014546D01*
X0234829Y0014423D01*
X0234662Y0014305D01*
X0234491Y0014190D01*
X0234318Y0014080D01*
X0234142Y0013973D01*
X0233964Y0013871D01*
X0233783Y0013774D01*
X0233600Y0013680D01*
X0233415Y0013592D01*
X0233228Y0013507D01*
X0233038Y0013428D01*
X0232847Y0013352D01*
X0232654Y0013282D01*
X0232460Y0013216D01*
X0232264Y0013155D01*
X0232066Y0013099D01*
X0231867Y0013047D01*
X0231667Y0013000D01*
X0231466Y0012958D01*
X0231264Y0012921D01*
X0231061Y0012889D01*
X0230858Y0012862D01*
X0230653Y0012840D01*
X0230449Y0012822D01*
X0230244Y0012810D01*
X0230038Y0012802D01*
X0229833Y0012800D01*
X0225333Y0012800D01*
X0218833Y0012800D02*
X0216833Y0012800D01*
X0216628Y0012802D01*
X0216422Y0012810D01*
X0216217Y0012822D01*
X0216013Y0012840D01*
X0215808Y0012862D01*
X0215605Y0012889D01*
X0215402Y0012921D01*
X0215200Y0012958D01*
X0214999Y0013000D01*
X0214799Y0013047D01*
X0214600Y0013099D01*
X0214402Y0013155D01*
X0214206Y0013216D01*
X0214012Y0013282D01*
X0213819Y0013352D01*
X0213628Y0013428D01*
X0213438Y0013507D01*
X0213251Y0013592D01*
X0213066Y0013680D01*
X0212883Y0013774D01*
X0212702Y0013871D01*
X0212524Y0013973D01*
X0212348Y0014080D01*
X0212175Y0014190D01*
X0212004Y0014305D01*
X0211837Y0014423D01*
X0211672Y0014546D01*
X0211510Y0014673D01*
X0211352Y0014803D01*
X0211196Y0014938D01*
X0211044Y0015076D01*
X0210896Y0015217D01*
X0210750Y0015363D01*
X0210609Y0015511D01*
X0210471Y0015663D01*
X0210336Y0015819D01*
X0210206Y0015977D01*
X0210079Y0016139D01*
X0209956Y0016304D01*
X0209838Y0016471D01*
X0209723Y0016642D01*
X0209613Y0016815D01*
X0209506Y0016991D01*
X0209404Y0017169D01*
X0209307Y0017350D01*
X0209213Y0017533D01*
X0209125Y0017718D01*
X0209040Y0017905D01*
X0208961Y0018095D01*
X0208885Y0018286D01*
X0208815Y0018479D01*
X0208749Y0018673D01*
X0208688Y0018869D01*
X0208632Y0019067D01*
X0208580Y0019266D01*
X0208533Y0019466D01*
X0208491Y0019667D01*
X0208454Y0019869D01*
X0208422Y0020072D01*
X0208395Y0020275D01*
X0208373Y0020480D01*
X0208355Y0020684D01*
X0208343Y0020889D01*
X0208335Y0021095D01*
X0208333Y0021300D01*
D11*
X0208333Y0066300D01*
X0238333Y0066300D02*
X0238333Y0021300D01*
X0225333Y0012800D02*
X0218833Y0012800D01*
M02*
