G75*
%MOIN*%
%OFA0B0*%
%FSLAX25Y25*%
%IPPOS*%
%LPD*%
%AMOC8*
5,1,8,0,0,1.08239X$1,22.5*
%
%ADD10C,0.07400*%
%ADD11OC8,0.06600*%
%ADD12C,0.02781*%
%ADD13C,0.00600*%
D10*
X0220484Y0045797D03*
X0220659Y0035798D03*
X0220833Y0025800D03*
X0220310Y0055795D03*
X0220135Y0065794D03*
D11*
X0230333Y0065800D03*
X0230333Y0025800D03*
D12*
X0221833Y0339300D03*
X0223833Y0343800D03*
X0223333Y0359300D03*
D13*
X0212929Y0065897D02*
X0212929Y0022395D01*
X0217733Y0022395D01*
X0216934Y0023194D01*
X0216233Y0024885D01*
X0216233Y0026715D01*
X0216934Y0028406D01*
X0218228Y0029700D01*
X0219918Y0030400D01*
X0221748Y0030400D01*
X0223439Y0029700D01*
X0224733Y0028406D01*
X0225433Y0026715D01*
X0225433Y0024885D01*
X0224733Y0023194D01*
X0223934Y0022395D01*
X0227798Y0022395D01*
X0226133Y0024060D01*
X0226133Y0027540D01*
X0228594Y0030000D01*
X0232073Y0030000D01*
X0233738Y0028335D01*
X0233738Y0063265D01*
X0232073Y0061600D01*
X0231533Y0061600D01*
X0231533Y0055149D01*
X0224502Y0048118D01*
X0225084Y0046712D01*
X0225084Y0044882D01*
X0224384Y0043191D01*
X0223090Y0041897D01*
X0221399Y0041197D01*
X0219569Y0041197D01*
X0217879Y0041897D01*
X0216585Y0043191D01*
X0215884Y0044882D01*
X0215884Y0046712D01*
X0216585Y0048403D01*
X0217879Y0049697D01*
X0219569Y0050397D01*
X0221399Y0050397D01*
X0222805Y0049815D01*
X0229133Y0056143D01*
X0229133Y0061600D01*
X0228594Y0061600D01*
X0226133Y0064060D01*
X0226133Y0067540D01*
X0228594Y0070000D01*
X0229635Y0070000D01*
X0225938Y0073697D01*
X0225238Y0075386D01*
X0225238Y0077374D01*
X0225233Y0077385D01*
X0225233Y0236715D01*
X0225934Y0238406D01*
X0226233Y0238705D01*
X0226233Y0241395D01*
X0225934Y0241694D01*
X0225233Y0243385D01*
X0225233Y0248215D01*
X0225934Y0249906D01*
X0226233Y0250205D01*
X0226233Y0253895D01*
X0225934Y0254194D01*
X0225233Y0255885D01*
X0225233Y0257715D01*
X0225934Y0259406D01*
X0226233Y0259705D01*
X0226233Y0261895D01*
X0225934Y0262194D01*
X0225233Y0263885D01*
X0225233Y0268215D01*
X0225934Y0269906D01*
X0226233Y0270205D01*
X0226233Y0273395D01*
X0225934Y0273694D01*
X0225233Y0275385D01*
X0225233Y0277215D01*
X0225934Y0278906D01*
X0226233Y0279205D01*
X0226233Y0281895D01*
X0225934Y0282194D01*
X0225233Y0283885D01*
X0225233Y0288715D01*
X0225934Y0290406D01*
X0226233Y0290705D01*
X0226233Y0293395D01*
X0225934Y0293694D01*
X0225233Y0295385D01*
X0225233Y0297215D01*
X0225934Y0298906D01*
X0226233Y0299205D01*
X0226233Y0302395D01*
X0225934Y0302694D01*
X0225233Y0304385D01*
X0225233Y0308715D01*
X0225934Y0310406D01*
X0226233Y0310705D01*
X0226233Y0313395D01*
X0225934Y0313694D01*
X0225233Y0315385D01*
X0225233Y0317215D01*
X0225934Y0318906D01*
X0226233Y0319205D01*
X0226233Y0322395D01*
X0225934Y0322694D01*
X0225233Y0324385D01*
X0225233Y0328715D01*
X0225934Y0330406D01*
X0226233Y0330705D01*
X0226233Y0333895D01*
X0225934Y0334194D01*
X0225233Y0335885D01*
X0225233Y0337973D01*
X0225150Y0338555D01*
X0225233Y0338880D01*
X0225233Y0339215D01*
X0225458Y0339758D01*
X0225604Y0340328D01*
X0225805Y0340596D01*
X0225934Y0340906D01*
X0226349Y0341321D01*
X0226733Y0341833D01*
X0226733Y0344395D01*
X0225934Y0345194D01*
X0225233Y0346885D01*
X0225233Y0357961D01*
X0224282Y0357009D01*
X0222385Y0357009D01*
X0221433Y0357961D01*
X0221433Y0341385D01*
X0220733Y0339694D01*
X0220433Y0339395D01*
X0220433Y0328705D01*
X0220733Y0328406D01*
X0221433Y0326715D01*
X0221433Y0324885D01*
X0220733Y0323194D01*
X0220433Y0322895D01*
X0220433Y0319705D01*
X0220733Y0319406D01*
X0221433Y0317715D01*
X0221433Y0315885D01*
X0220733Y0314194D01*
X0220433Y0313895D01*
X0220433Y0310705D01*
X0220733Y0310406D01*
X0221433Y0308715D01*
X0221433Y0303885D01*
X0220733Y0302194D01*
X0220433Y0301895D01*
X0220433Y0299705D01*
X0220733Y0299406D01*
X0221433Y0297715D01*
X0221433Y0294385D01*
X0220733Y0292694D01*
X0220433Y0292395D01*
X0220433Y0291205D01*
X0220733Y0290906D01*
X0221433Y0289215D01*
X0221433Y0283885D01*
X0220733Y0282194D01*
X0220433Y0281895D01*
X0220433Y0279705D01*
X0220733Y0279406D01*
X0221433Y0277715D01*
X0221433Y0275385D01*
X0220733Y0273694D01*
X0220433Y0273395D01*
X0220433Y0271205D01*
X0220733Y0270906D01*
X0221433Y0269215D01*
X0221433Y0263385D01*
X0220733Y0261694D01*
X0220433Y0261395D01*
X0220433Y0259205D01*
X0220733Y0258906D01*
X0221433Y0257215D01*
X0221433Y0255385D01*
X0220733Y0253694D01*
X0220433Y0253395D01*
X0220433Y0251205D01*
X0220733Y0250906D01*
X0221433Y0249215D01*
X0221433Y0243385D01*
X0220733Y0241694D01*
X0220433Y0241395D01*
X0220433Y0239705D01*
X0220733Y0239406D01*
X0221433Y0237715D01*
X0221433Y0075385D01*
X0220733Y0073694D01*
X0219439Y0072400D01*
X0219428Y0072396D01*
X0212929Y0065897D01*
X0212929Y0065701D02*
X0219837Y0065701D01*
X0219840Y0065489D02*
X0215135Y0065407D01*
X0215135Y0065400D01*
X0215258Y0064623D01*
X0215502Y0063875D01*
X0215859Y0063173D01*
X0216321Y0062537D01*
X0216878Y0061980D01*
X0217515Y0061518D01*
X0218216Y0061160D01*
X0218964Y0060917D01*
X0219742Y0060794D01*
X0219922Y0060794D01*
X0219841Y0065489D01*
X0220440Y0065499D01*
X0220523Y0060794D01*
X0220529Y0060794D01*
X0221306Y0060917D01*
X0222055Y0061160D01*
X0222756Y0061518D01*
X0223392Y0061980D01*
X0223949Y0062537D01*
X0224412Y0063173D01*
X0224769Y0063875D01*
X0225012Y0064623D01*
X0225135Y0065400D01*
X0225135Y0065581D01*
X0220440Y0065499D01*
X0220430Y0066099D01*
X0225135Y0066181D01*
X0225135Y0066187D01*
X0225012Y0066965D01*
X0224769Y0067713D01*
X0224412Y0068414D01*
X0223949Y0069051D01*
X0223392Y0069608D01*
X0222756Y0070070D01*
X0222055Y0070428D01*
X0221306Y0070671D01*
X0220529Y0070794D01*
X0220348Y0070794D01*
X0220430Y0066099D01*
X0219830Y0066089D01*
X0219748Y0070794D01*
X0219742Y0070794D01*
X0218964Y0070671D01*
X0218216Y0070428D01*
X0217515Y0070070D01*
X0216878Y0069608D01*
X0216321Y0069051D01*
X0215859Y0068414D01*
X0215502Y0067713D01*
X0215258Y0066965D01*
X0215135Y0066187D01*
X0215135Y0066007D01*
X0219830Y0066089D01*
X0219840Y0065489D01*
X0219847Y0065103D02*
X0220447Y0065103D01*
X0220437Y0065701D02*
X0226133Y0065701D01*
X0226133Y0065103D02*
X0225088Y0065103D01*
X0224974Y0064504D02*
X0226133Y0064504D01*
X0226288Y0063906D02*
X0224779Y0063906D01*
X0224480Y0063307D02*
X0226886Y0063307D01*
X0227485Y0062709D02*
X0224074Y0062709D01*
X0223523Y0062110D02*
X0228083Y0062110D01*
X0229133Y0061512D02*
X0222745Y0061512D01*
X0221283Y0060913D02*
X0229133Y0060913D01*
X0229133Y0060315D02*
X0221419Y0060315D01*
X0221225Y0060395D02*
X0219395Y0060395D01*
X0217704Y0059695D01*
X0216410Y0058401D01*
X0215710Y0056710D01*
X0215710Y0054880D01*
X0216410Y0053190D01*
X0217704Y0051896D01*
X0219395Y0051195D01*
X0221225Y0051195D01*
X0222915Y0051896D01*
X0224209Y0053190D01*
X0224910Y0054880D01*
X0224910Y0056710D01*
X0224209Y0058401D01*
X0222915Y0059695D01*
X0221225Y0060395D01*
X0220520Y0060913D02*
X0219920Y0060913D01*
X0219910Y0061512D02*
X0220510Y0061512D01*
X0220500Y0062110D02*
X0219899Y0062110D01*
X0219889Y0062709D02*
X0220489Y0062709D01*
X0220479Y0063307D02*
X0219879Y0063307D01*
X0219868Y0063906D02*
X0220468Y0063906D01*
X0220458Y0064504D02*
X0219858Y0064504D01*
X0220135Y0065794D02*
X0221833Y0067492D01*
X0221833Y0339300D01*
X0220785Y0339820D02*
X0225474Y0339820D01*
X0225672Y0340418D02*
X0221033Y0340418D01*
X0221281Y0341017D02*
X0226045Y0341017D01*
X0226570Y0341615D02*
X0224888Y0341615D01*
X0224782Y0341509D02*
X0226124Y0342851D01*
X0226124Y0344749D01*
X0224782Y0346091D01*
X0222885Y0346091D01*
X0221543Y0344749D01*
X0221543Y0342851D01*
X0222885Y0341509D01*
X0224782Y0341509D01*
X0225486Y0342214D02*
X0226733Y0342214D01*
X0226733Y0342812D02*
X0226085Y0342812D01*
X0226124Y0343411D02*
X0226733Y0343411D01*
X0226733Y0344009D02*
X0226124Y0344009D01*
X0226124Y0344608D02*
X0226520Y0344608D01*
X0225929Y0345206D02*
X0225666Y0345206D01*
X0225681Y0345805D02*
X0225068Y0345805D01*
X0225433Y0346403D02*
X0221433Y0346403D01*
X0221433Y0345805D02*
X0222599Y0345805D01*
X0222000Y0345206D02*
X0221433Y0345206D01*
X0221433Y0344608D02*
X0221543Y0344608D01*
X0221543Y0344009D02*
X0221433Y0344009D01*
X0221433Y0343411D02*
X0221543Y0343411D01*
X0221582Y0342812D02*
X0221433Y0342812D01*
X0221433Y0342214D02*
X0222180Y0342214D01*
X0222779Y0341615D02*
X0221433Y0341615D01*
X0220433Y0339221D02*
X0225236Y0339221D01*
X0225167Y0338623D02*
X0220433Y0338623D01*
X0220433Y0338024D02*
X0225226Y0338024D01*
X0225233Y0337426D02*
X0220433Y0337426D01*
X0220433Y0336827D02*
X0225233Y0336827D01*
X0225233Y0336229D02*
X0220433Y0336229D01*
X0220433Y0335630D02*
X0225339Y0335630D01*
X0225587Y0335032D02*
X0220433Y0335032D01*
X0220433Y0334433D02*
X0225835Y0334433D01*
X0226233Y0333835D02*
X0220433Y0333835D01*
X0220433Y0333236D02*
X0226233Y0333236D01*
X0226233Y0332638D02*
X0220433Y0332638D01*
X0220433Y0332039D02*
X0226233Y0332039D01*
X0226233Y0331441D02*
X0220433Y0331441D01*
X0220433Y0330842D02*
X0226233Y0330842D01*
X0225866Y0330243D02*
X0220433Y0330243D01*
X0220433Y0329645D02*
X0225619Y0329645D01*
X0225371Y0329046D02*
X0220433Y0329046D01*
X0220691Y0328448D02*
X0225233Y0328448D01*
X0225233Y0327849D02*
X0220963Y0327849D01*
X0221211Y0327251D02*
X0225233Y0327251D01*
X0225233Y0326652D02*
X0221433Y0326652D01*
X0221433Y0326054D02*
X0225233Y0326054D01*
X0225233Y0325455D02*
X0221433Y0325455D01*
X0221422Y0324857D02*
X0225233Y0324857D01*
X0225286Y0324258D02*
X0221174Y0324258D01*
X0220926Y0323660D02*
X0225534Y0323660D01*
X0225782Y0323061D02*
X0220600Y0323061D01*
X0220433Y0322463D02*
X0226165Y0322463D01*
X0226233Y0321864D02*
X0220433Y0321864D01*
X0220433Y0321266D02*
X0226233Y0321266D01*
X0226233Y0320667D02*
X0220433Y0320667D01*
X0220433Y0320069D02*
X0226233Y0320069D01*
X0226233Y0319470D02*
X0220668Y0319470D01*
X0220954Y0318872D02*
X0225920Y0318872D01*
X0225672Y0318273D02*
X0221202Y0318273D01*
X0221433Y0317675D02*
X0225424Y0317675D01*
X0225233Y0317076D02*
X0221433Y0317076D01*
X0221433Y0316478D02*
X0225233Y0316478D01*
X0225233Y0315879D02*
X0221431Y0315879D01*
X0221183Y0315281D02*
X0225277Y0315281D01*
X0225524Y0314682D02*
X0220935Y0314682D01*
X0220622Y0314084D02*
X0225772Y0314084D01*
X0226143Y0313485D02*
X0220433Y0313485D01*
X0220433Y0312887D02*
X0226233Y0312887D01*
X0226233Y0312288D02*
X0220433Y0312288D01*
X0220433Y0311690D02*
X0226233Y0311690D01*
X0226233Y0311091D02*
X0220433Y0311091D01*
X0220646Y0310493D02*
X0226021Y0310493D01*
X0225722Y0309894D02*
X0220945Y0309894D01*
X0221193Y0309296D02*
X0225474Y0309296D01*
X0225233Y0308697D02*
X0221433Y0308697D01*
X0221433Y0308099D02*
X0225233Y0308099D01*
X0225233Y0307500D02*
X0221433Y0307500D01*
X0221433Y0306902D02*
X0225233Y0306902D01*
X0225233Y0306303D02*
X0221433Y0306303D01*
X0221433Y0305705D02*
X0225233Y0305705D01*
X0225233Y0305106D02*
X0221433Y0305106D01*
X0221433Y0304508D02*
X0225233Y0304508D01*
X0225430Y0303909D02*
X0221433Y0303909D01*
X0221195Y0303310D02*
X0225678Y0303310D01*
X0225926Y0302712D02*
X0220947Y0302712D01*
X0220652Y0302113D02*
X0226233Y0302113D01*
X0226233Y0301515D02*
X0220433Y0301515D01*
X0220433Y0300916D02*
X0226233Y0300916D01*
X0226233Y0300318D02*
X0220433Y0300318D01*
X0220433Y0299719D02*
X0226233Y0299719D01*
X0226149Y0299121D02*
X0220851Y0299121D01*
X0221099Y0298522D02*
X0225775Y0298522D01*
X0225527Y0297924D02*
X0221347Y0297924D01*
X0221433Y0297325D02*
X0225279Y0297325D01*
X0225233Y0296727D02*
X0221433Y0296727D01*
X0221433Y0296128D02*
X0225233Y0296128D01*
X0225233Y0295530D02*
X0221433Y0295530D01*
X0221433Y0294931D02*
X0225421Y0294931D01*
X0225669Y0294333D02*
X0221412Y0294333D01*
X0221164Y0293734D02*
X0225917Y0293734D01*
X0226233Y0293136D02*
X0220916Y0293136D01*
X0220576Y0292537D02*
X0226233Y0292537D01*
X0226233Y0291939D02*
X0220433Y0291939D01*
X0220433Y0291340D02*
X0226233Y0291340D01*
X0226233Y0290742D02*
X0220801Y0290742D01*
X0221049Y0290143D02*
X0225825Y0290143D01*
X0225577Y0289545D02*
X0221297Y0289545D01*
X0221433Y0288946D02*
X0225329Y0288946D01*
X0225233Y0288348D02*
X0221433Y0288348D01*
X0221433Y0287749D02*
X0225233Y0287749D01*
X0225233Y0287151D02*
X0221433Y0287151D01*
X0221433Y0286552D02*
X0225233Y0286552D01*
X0225233Y0285954D02*
X0221433Y0285954D01*
X0221433Y0285355D02*
X0225233Y0285355D01*
X0225233Y0284757D02*
X0221433Y0284757D01*
X0221433Y0284158D02*
X0225233Y0284158D01*
X0225368Y0283560D02*
X0221299Y0283560D01*
X0221051Y0282961D02*
X0225616Y0282961D01*
X0225864Y0282363D02*
X0220803Y0282363D01*
X0220433Y0281764D02*
X0226233Y0281764D01*
X0226233Y0281166D02*
X0220433Y0281166D01*
X0220433Y0280567D02*
X0226233Y0280567D01*
X0226233Y0279969D02*
X0220433Y0279969D01*
X0220748Y0279370D02*
X0226233Y0279370D01*
X0225878Y0278772D02*
X0220996Y0278772D01*
X0221244Y0278173D02*
X0225630Y0278173D01*
X0225382Y0277574D02*
X0221433Y0277574D01*
X0221433Y0276976D02*
X0225233Y0276976D01*
X0225233Y0276377D02*
X0221433Y0276377D01*
X0221433Y0275779D02*
X0225233Y0275779D01*
X0225318Y0275180D02*
X0221349Y0275180D01*
X0221101Y0274582D02*
X0225566Y0274582D01*
X0225814Y0273983D02*
X0220853Y0273983D01*
X0220433Y0273385D02*
X0226233Y0273385D01*
X0226233Y0272786D02*
X0220433Y0272786D01*
X0220433Y0272188D02*
X0226233Y0272188D01*
X0226233Y0271589D02*
X0220433Y0271589D01*
X0220648Y0270991D02*
X0226233Y0270991D01*
X0226233Y0270392D02*
X0220946Y0270392D01*
X0221194Y0269794D02*
X0225887Y0269794D01*
X0225639Y0269195D02*
X0221433Y0269195D01*
X0221433Y0268597D02*
X0225391Y0268597D01*
X0225233Y0267998D02*
X0221433Y0267998D01*
X0221433Y0267400D02*
X0225233Y0267400D01*
X0225233Y0266801D02*
X0221433Y0266801D01*
X0221433Y0266203D02*
X0225233Y0266203D01*
X0225233Y0265604D02*
X0221433Y0265604D01*
X0221433Y0265006D02*
X0225233Y0265006D01*
X0225233Y0264407D02*
X0221433Y0264407D01*
X0221433Y0263809D02*
X0225265Y0263809D01*
X0225513Y0263210D02*
X0221361Y0263210D01*
X0221113Y0262612D02*
X0225761Y0262612D01*
X0226115Y0262013D02*
X0220865Y0262013D01*
X0220453Y0261415D02*
X0226233Y0261415D01*
X0226233Y0260816D02*
X0220433Y0260816D01*
X0220433Y0260218D02*
X0226233Y0260218D01*
X0226147Y0259619D02*
X0220433Y0259619D01*
X0220618Y0259021D02*
X0225774Y0259021D01*
X0225526Y0258422D02*
X0220933Y0258422D01*
X0221181Y0257824D02*
X0225278Y0257824D01*
X0225233Y0257225D02*
X0221429Y0257225D01*
X0221433Y0256627D02*
X0225233Y0256627D01*
X0225233Y0256028D02*
X0221433Y0256028D01*
X0221433Y0255430D02*
X0225422Y0255430D01*
X0225670Y0254831D02*
X0221204Y0254831D01*
X0220956Y0254233D02*
X0225918Y0254233D01*
X0226233Y0253634D02*
X0220673Y0253634D01*
X0220433Y0253036D02*
X0226233Y0253036D01*
X0226233Y0252437D02*
X0220433Y0252437D01*
X0220433Y0251839D02*
X0226233Y0251839D01*
X0226233Y0251240D02*
X0220433Y0251240D01*
X0220842Y0250641D02*
X0226233Y0250641D01*
X0226071Y0250043D02*
X0221090Y0250043D01*
X0221338Y0249444D02*
X0225743Y0249444D01*
X0225495Y0248846D02*
X0221433Y0248846D01*
X0221433Y0248247D02*
X0225247Y0248247D01*
X0225233Y0247649D02*
X0221433Y0247649D01*
X0221433Y0247050D02*
X0225233Y0247050D01*
X0225233Y0246452D02*
X0221433Y0246452D01*
X0221433Y0245853D02*
X0225233Y0245853D01*
X0225233Y0245255D02*
X0221433Y0245255D01*
X0221433Y0244656D02*
X0225233Y0244656D01*
X0225233Y0244058D02*
X0221433Y0244058D01*
X0221433Y0243459D02*
X0225233Y0243459D01*
X0225450Y0242861D02*
X0221216Y0242861D01*
X0220968Y0242262D02*
X0225698Y0242262D01*
X0225964Y0241664D02*
X0220703Y0241664D01*
X0220433Y0241065D02*
X0226233Y0241065D01*
X0226233Y0240467D02*
X0220433Y0240467D01*
X0220433Y0239868D02*
X0226233Y0239868D01*
X0226233Y0239270D02*
X0220789Y0239270D01*
X0221037Y0238671D02*
X0226199Y0238671D01*
X0225796Y0238073D02*
X0221285Y0238073D01*
X0221433Y0237474D02*
X0225548Y0237474D01*
X0225300Y0236876D02*
X0221433Y0236876D01*
X0221433Y0236277D02*
X0225233Y0236277D01*
X0225233Y0235679D02*
X0221433Y0235679D01*
X0221433Y0235080D02*
X0225233Y0235080D01*
X0225233Y0234482D02*
X0221433Y0234482D01*
X0221433Y0233883D02*
X0225233Y0233883D01*
X0225233Y0233285D02*
X0221433Y0233285D01*
X0221433Y0232686D02*
X0225233Y0232686D01*
X0225233Y0232088D02*
X0221433Y0232088D01*
X0221433Y0231489D02*
X0225233Y0231489D01*
X0225233Y0230891D02*
X0221433Y0230891D01*
X0221433Y0230292D02*
X0225233Y0230292D01*
X0225233Y0229694D02*
X0221433Y0229694D01*
X0221433Y0229095D02*
X0225233Y0229095D01*
X0225233Y0228497D02*
X0221433Y0228497D01*
X0221433Y0227898D02*
X0225233Y0227898D01*
X0225233Y0227300D02*
X0221433Y0227300D01*
X0221433Y0226701D02*
X0225233Y0226701D01*
X0225233Y0226103D02*
X0221433Y0226103D01*
X0221433Y0225504D02*
X0225233Y0225504D01*
X0225233Y0224905D02*
X0221433Y0224905D01*
X0221433Y0224307D02*
X0225233Y0224307D01*
X0225233Y0223708D02*
X0221433Y0223708D01*
X0221433Y0223110D02*
X0225233Y0223110D01*
X0225233Y0222511D02*
X0221433Y0222511D01*
X0221433Y0221913D02*
X0225233Y0221913D01*
X0225233Y0221314D02*
X0221433Y0221314D01*
X0221433Y0220716D02*
X0225233Y0220716D01*
X0225233Y0220117D02*
X0221433Y0220117D01*
X0221433Y0219519D02*
X0225233Y0219519D01*
X0225233Y0218920D02*
X0221433Y0218920D01*
X0221433Y0218322D02*
X0225233Y0218322D01*
X0225233Y0217723D02*
X0221433Y0217723D01*
X0221433Y0217125D02*
X0225233Y0217125D01*
X0225233Y0216526D02*
X0221433Y0216526D01*
X0221433Y0215928D02*
X0225233Y0215928D01*
X0225233Y0215329D02*
X0221433Y0215329D01*
X0221433Y0214731D02*
X0225233Y0214731D01*
X0225233Y0214132D02*
X0221433Y0214132D01*
X0221433Y0213534D02*
X0225233Y0213534D01*
X0225233Y0212935D02*
X0221433Y0212935D01*
X0221433Y0212337D02*
X0225233Y0212337D01*
X0225233Y0211738D02*
X0221433Y0211738D01*
X0221433Y0211140D02*
X0225233Y0211140D01*
X0225233Y0210541D02*
X0221433Y0210541D01*
X0221433Y0209943D02*
X0225233Y0209943D01*
X0225233Y0209344D02*
X0221433Y0209344D01*
X0221433Y0208746D02*
X0225233Y0208746D01*
X0225233Y0208147D02*
X0221433Y0208147D01*
X0221433Y0207549D02*
X0225233Y0207549D01*
X0225233Y0206950D02*
X0221433Y0206950D01*
X0221433Y0206352D02*
X0225233Y0206352D01*
X0225233Y0205753D02*
X0221433Y0205753D01*
X0221433Y0205155D02*
X0225233Y0205155D01*
X0225233Y0204556D02*
X0221433Y0204556D01*
X0221433Y0203958D02*
X0225233Y0203958D01*
X0225233Y0203359D02*
X0221433Y0203359D01*
X0221433Y0202761D02*
X0225233Y0202761D01*
X0225233Y0202162D02*
X0221433Y0202162D01*
X0221433Y0201564D02*
X0225233Y0201564D01*
X0225233Y0200965D02*
X0221433Y0200965D01*
X0221433Y0200367D02*
X0225233Y0200367D01*
X0225233Y0199768D02*
X0221433Y0199768D01*
X0221433Y0199170D02*
X0225233Y0199170D01*
X0225233Y0198571D02*
X0221433Y0198571D01*
X0221433Y0197972D02*
X0225233Y0197972D01*
X0225233Y0197374D02*
X0221433Y0197374D01*
X0221433Y0196775D02*
X0225233Y0196775D01*
X0225233Y0196177D02*
X0221433Y0196177D01*
X0221433Y0195578D02*
X0225233Y0195578D01*
X0225233Y0194980D02*
X0221433Y0194980D01*
X0221433Y0194381D02*
X0225233Y0194381D01*
X0225233Y0193783D02*
X0221433Y0193783D01*
X0221433Y0193184D02*
X0225233Y0193184D01*
X0225233Y0192586D02*
X0221433Y0192586D01*
X0221433Y0191987D02*
X0225233Y0191987D01*
X0225233Y0191389D02*
X0221433Y0191389D01*
X0221433Y0190790D02*
X0225233Y0190790D01*
X0225233Y0190192D02*
X0221433Y0190192D01*
X0221433Y0189593D02*
X0225233Y0189593D01*
X0225233Y0188995D02*
X0221433Y0188995D01*
X0221433Y0188396D02*
X0225233Y0188396D01*
X0225233Y0187798D02*
X0221433Y0187798D01*
X0221433Y0187199D02*
X0225233Y0187199D01*
X0225233Y0186601D02*
X0221433Y0186601D01*
X0221433Y0186002D02*
X0225233Y0186002D01*
X0225233Y0185404D02*
X0221433Y0185404D01*
X0221433Y0184805D02*
X0225233Y0184805D01*
X0225233Y0184207D02*
X0221433Y0184207D01*
X0221433Y0183608D02*
X0225233Y0183608D01*
X0225233Y0183010D02*
X0221433Y0183010D01*
X0221433Y0182411D02*
X0225233Y0182411D01*
X0225233Y0181813D02*
X0221433Y0181813D01*
X0221433Y0181214D02*
X0225233Y0181214D01*
X0225233Y0180616D02*
X0221433Y0180616D01*
X0221433Y0180017D02*
X0225233Y0180017D01*
X0225233Y0179419D02*
X0221433Y0179419D01*
X0221433Y0178820D02*
X0225233Y0178820D01*
X0225233Y0178222D02*
X0221433Y0178222D01*
X0221433Y0177623D02*
X0225233Y0177623D01*
X0225233Y0177025D02*
X0221433Y0177025D01*
X0221433Y0176426D02*
X0225233Y0176426D01*
X0225233Y0175828D02*
X0221433Y0175828D01*
X0221433Y0175229D02*
X0225233Y0175229D01*
X0225233Y0174631D02*
X0221433Y0174631D01*
X0221433Y0174032D02*
X0225233Y0174032D01*
X0225233Y0173434D02*
X0221433Y0173434D01*
X0221433Y0172835D02*
X0225233Y0172835D01*
X0225233Y0172237D02*
X0221433Y0172237D01*
X0221433Y0171638D02*
X0225233Y0171638D01*
X0225233Y0171039D02*
X0221433Y0171039D01*
X0221433Y0170441D02*
X0225233Y0170441D01*
X0225233Y0169842D02*
X0221433Y0169842D01*
X0221433Y0169244D02*
X0225233Y0169244D01*
X0225233Y0168645D02*
X0221433Y0168645D01*
X0221433Y0168047D02*
X0225233Y0168047D01*
X0225233Y0167448D02*
X0221433Y0167448D01*
X0221433Y0166850D02*
X0225233Y0166850D01*
X0225233Y0166251D02*
X0221433Y0166251D01*
X0221433Y0165653D02*
X0225233Y0165653D01*
X0225233Y0165054D02*
X0221433Y0165054D01*
X0221433Y0164456D02*
X0225233Y0164456D01*
X0225233Y0163857D02*
X0221433Y0163857D01*
X0221433Y0163259D02*
X0225233Y0163259D01*
X0225233Y0162660D02*
X0221433Y0162660D01*
X0221433Y0162062D02*
X0225233Y0162062D01*
X0225233Y0161463D02*
X0221433Y0161463D01*
X0221433Y0160865D02*
X0225233Y0160865D01*
X0225233Y0160266D02*
X0221433Y0160266D01*
X0221433Y0159668D02*
X0225233Y0159668D01*
X0225233Y0159069D02*
X0221433Y0159069D01*
X0221433Y0158471D02*
X0225233Y0158471D01*
X0225233Y0157872D02*
X0221433Y0157872D01*
X0221433Y0157274D02*
X0225233Y0157274D01*
X0225233Y0156675D02*
X0221433Y0156675D01*
X0221433Y0156077D02*
X0225233Y0156077D01*
X0225233Y0155478D02*
X0221433Y0155478D01*
X0221433Y0154880D02*
X0225233Y0154880D01*
X0225233Y0154281D02*
X0221433Y0154281D01*
X0221433Y0153683D02*
X0225233Y0153683D01*
X0225233Y0153084D02*
X0221433Y0153084D01*
X0221433Y0152486D02*
X0225233Y0152486D01*
X0225233Y0151887D02*
X0221433Y0151887D01*
X0221433Y0151289D02*
X0225233Y0151289D01*
X0225233Y0150690D02*
X0221433Y0150690D01*
X0221433Y0150092D02*
X0225233Y0150092D01*
X0225233Y0149493D02*
X0221433Y0149493D01*
X0221433Y0148895D02*
X0225233Y0148895D01*
X0225233Y0148296D02*
X0221433Y0148296D01*
X0221433Y0147698D02*
X0225233Y0147698D01*
X0225233Y0147099D02*
X0221433Y0147099D01*
X0221433Y0146501D02*
X0225233Y0146501D01*
X0225233Y0145902D02*
X0221433Y0145902D01*
X0221433Y0145303D02*
X0225233Y0145303D01*
X0225233Y0144705D02*
X0221433Y0144705D01*
X0221433Y0144106D02*
X0225233Y0144106D01*
X0225233Y0143508D02*
X0221433Y0143508D01*
X0221433Y0142909D02*
X0225233Y0142909D01*
X0225233Y0142311D02*
X0221433Y0142311D01*
X0221433Y0141712D02*
X0225233Y0141712D01*
X0225233Y0141114D02*
X0221433Y0141114D01*
X0221433Y0140515D02*
X0225233Y0140515D01*
X0225233Y0139917D02*
X0221433Y0139917D01*
X0221433Y0139318D02*
X0225233Y0139318D01*
X0225233Y0138720D02*
X0221433Y0138720D01*
X0221433Y0138121D02*
X0225233Y0138121D01*
X0225233Y0137523D02*
X0221433Y0137523D01*
X0221433Y0136924D02*
X0225233Y0136924D01*
X0225233Y0136326D02*
X0221433Y0136326D01*
X0221433Y0135727D02*
X0225233Y0135727D01*
X0225233Y0135129D02*
X0221433Y0135129D01*
X0221433Y0134530D02*
X0225233Y0134530D01*
X0225233Y0133932D02*
X0221433Y0133932D01*
X0221433Y0133333D02*
X0225233Y0133333D01*
X0225233Y0132735D02*
X0221433Y0132735D01*
X0221433Y0132136D02*
X0225233Y0132136D01*
X0225233Y0131538D02*
X0221433Y0131538D01*
X0221433Y0130939D02*
X0225233Y0130939D01*
X0225233Y0130341D02*
X0221433Y0130341D01*
X0221433Y0129742D02*
X0225233Y0129742D01*
X0225233Y0129144D02*
X0221433Y0129144D01*
X0221433Y0128545D02*
X0225233Y0128545D01*
X0225233Y0127947D02*
X0221433Y0127947D01*
X0221433Y0127348D02*
X0225233Y0127348D01*
X0225233Y0126750D02*
X0221433Y0126750D01*
X0221433Y0126151D02*
X0225233Y0126151D01*
X0225233Y0125553D02*
X0221433Y0125553D01*
X0221433Y0124954D02*
X0225233Y0124954D01*
X0225233Y0124356D02*
X0221433Y0124356D01*
X0221433Y0123757D02*
X0225233Y0123757D01*
X0225233Y0123159D02*
X0221433Y0123159D01*
X0221433Y0122560D02*
X0225233Y0122560D01*
X0225233Y0121962D02*
X0221433Y0121962D01*
X0221433Y0121363D02*
X0225233Y0121363D01*
X0225233Y0120765D02*
X0221433Y0120765D01*
X0221433Y0120166D02*
X0225233Y0120166D01*
X0225233Y0119568D02*
X0221433Y0119568D01*
X0221433Y0118969D02*
X0225233Y0118969D01*
X0225233Y0118370D02*
X0221433Y0118370D01*
X0221433Y0117772D02*
X0225233Y0117772D01*
X0225233Y0117173D02*
X0221433Y0117173D01*
X0221433Y0116575D02*
X0225233Y0116575D01*
X0225233Y0115976D02*
X0221433Y0115976D01*
X0221433Y0115378D02*
X0225233Y0115378D01*
X0225233Y0114779D02*
X0221433Y0114779D01*
X0221433Y0114181D02*
X0225233Y0114181D01*
X0225233Y0113582D02*
X0221433Y0113582D01*
X0221433Y0112984D02*
X0225233Y0112984D01*
X0225233Y0112385D02*
X0221433Y0112385D01*
X0221433Y0111787D02*
X0225233Y0111787D01*
X0225233Y0111188D02*
X0221433Y0111188D01*
X0221433Y0110590D02*
X0225233Y0110590D01*
X0225233Y0109991D02*
X0221433Y0109991D01*
X0221433Y0109393D02*
X0225233Y0109393D01*
X0225233Y0108794D02*
X0221433Y0108794D01*
X0221433Y0108196D02*
X0225233Y0108196D01*
X0225233Y0107597D02*
X0221433Y0107597D01*
X0221433Y0106999D02*
X0225233Y0106999D01*
X0225233Y0106400D02*
X0221433Y0106400D01*
X0221433Y0105802D02*
X0225233Y0105802D01*
X0225233Y0105203D02*
X0221433Y0105203D01*
X0221433Y0104605D02*
X0225233Y0104605D01*
X0225233Y0104006D02*
X0221433Y0104006D01*
X0221433Y0103408D02*
X0225233Y0103408D01*
X0225233Y0102809D02*
X0221433Y0102809D01*
X0221433Y0102211D02*
X0225233Y0102211D01*
X0225233Y0101612D02*
X0221433Y0101612D01*
X0221433Y0101014D02*
X0225233Y0101014D01*
X0225233Y0100415D02*
X0221433Y0100415D01*
X0221433Y0099817D02*
X0225233Y0099817D01*
X0225233Y0099218D02*
X0221433Y0099218D01*
X0221433Y0098620D02*
X0225233Y0098620D01*
X0225233Y0098021D02*
X0221433Y0098021D01*
X0221433Y0097423D02*
X0225233Y0097423D01*
X0225233Y0096824D02*
X0221433Y0096824D01*
X0221433Y0096226D02*
X0225233Y0096226D01*
X0225233Y0095627D02*
X0221433Y0095627D01*
X0221433Y0095029D02*
X0225233Y0095029D01*
X0225233Y0094430D02*
X0221433Y0094430D01*
X0221433Y0093832D02*
X0225233Y0093832D01*
X0225233Y0093233D02*
X0221433Y0093233D01*
X0221433Y0092634D02*
X0225233Y0092634D01*
X0225233Y0092036D02*
X0221433Y0092036D01*
X0221433Y0091437D02*
X0225233Y0091437D01*
X0225233Y0090839D02*
X0221433Y0090839D01*
X0221433Y0090240D02*
X0225233Y0090240D01*
X0225233Y0089642D02*
X0221433Y0089642D01*
X0221433Y0089043D02*
X0225233Y0089043D01*
X0225233Y0088445D02*
X0221433Y0088445D01*
X0221433Y0087846D02*
X0225233Y0087846D01*
X0225233Y0087248D02*
X0221433Y0087248D01*
X0221433Y0086649D02*
X0225233Y0086649D01*
X0225233Y0086051D02*
X0221433Y0086051D01*
X0221433Y0085452D02*
X0225233Y0085452D01*
X0225233Y0084854D02*
X0221433Y0084854D01*
X0221433Y0084255D02*
X0225233Y0084255D01*
X0225233Y0083657D02*
X0221433Y0083657D01*
X0221433Y0083058D02*
X0225233Y0083058D01*
X0225233Y0082460D02*
X0221433Y0082460D01*
X0221433Y0081861D02*
X0225233Y0081861D01*
X0225233Y0081263D02*
X0221433Y0081263D01*
X0221433Y0080664D02*
X0225233Y0080664D01*
X0225233Y0080066D02*
X0221433Y0080066D01*
X0221433Y0079467D02*
X0225233Y0079467D01*
X0225233Y0078869D02*
X0221433Y0078869D01*
X0221433Y0078270D02*
X0225233Y0078270D01*
X0225233Y0077672D02*
X0221433Y0077672D01*
X0221433Y0077073D02*
X0225238Y0077073D01*
X0225238Y0076475D02*
X0221433Y0076475D01*
X0221433Y0075876D02*
X0225238Y0075876D01*
X0225283Y0075278D02*
X0221389Y0075278D01*
X0221141Y0074679D02*
X0225531Y0074679D01*
X0225779Y0074081D02*
X0220893Y0074081D01*
X0220521Y0073482D02*
X0226152Y0073482D01*
X0226751Y0072884D02*
X0219922Y0072884D01*
X0219317Y0072285D02*
X0227350Y0072285D01*
X0227948Y0071687D02*
X0218719Y0071687D01*
X0218120Y0071088D02*
X0228547Y0071088D01*
X0229145Y0070490D02*
X0221864Y0070490D01*
X0223002Y0069891D02*
X0228485Y0069891D01*
X0227886Y0069293D02*
X0223708Y0069293D01*
X0224208Y0068694D02*
X0227288Y0068694D01*
X0226689Y0068096D02*
X0224574Y0068096D01*
X0224839Y0067497D02*
X0226133Y0067497D01*
X0226133Y0066899D02*
X0225023Y0066899D01*
X0225117Y0066300D02*
X0226133Y0066300D01*
X0230333Y0065800D02*
X0230333Y0055646D01*
X0220484Y0045797D01*
X0216185Y0044155D02*
X0212929Y0044155D01*
X0212929Y0043557D02*
X0216433Y0043557D01*
X0216818Y0042958D02*
X0212929Y0042958D01*
X0212929Y0042360D02*
X0217416Y0042360D01*
X0218207Y0041761D02*
X0212929Y0041761D01*
X0212929Y0041163D02*
X0233738Y0041163D01*
X0233738Y0041761D02*
X0222761Y0041761D01*
X0223552Y0042360D02*
X0233738Y0042360D01*
X0233738Y0042958D02*
X0224151Y0042958D01*
X0224535Y0043557D02*
X0233738Y0043557D01*
X0233738Y0044155D02*
X0224783Y0044155D01*
X0225031Y0044754D02*
X0233738Y0044754D01*
X0233738Y0045352D02*
X0225084Y0045352D01*
X0225084Y0045951D02*
X0233738Y0045951D01*
X0233738Y0046549D02*
X0225084Y0046549D01*
X0224904Y0047148D02*
X0233738Y0047148D01*
X0233738Y0047746D02*
X0224656Y0047746D01*
X0224729Y0048345D02*
X0233738Y0048345D01*
X0233738Y0048943D02*
X0225328Y0048943D01*
X0225926Y0049542D02*
X0233738Y0049542D01*
X0233738Y0050140D02*
X0226525Y0050140D01*
X0227123Y0050739D02*
X0233738Y0050739D01*
X0233738Y0051337D02*
X0227722Y0051337D01*
X0228320Y0051936D02*
X0233738Y0051936D01*
X0233738Y0052534D02*
X0228919Y0052534D01*
X0229517Y0053133D02*
X0233738Y0053133D01*
X0233738Y0053731D02*
X0230116Y0053731D01*
X0230714Y0054330D02*
X0233738Y0054330D01*
X0233738Y0054928D02*
X0231313Y0054928D01*
X0231533Y0055527D02*
X0233738Y0055527D01*
X0233738Y0056125D02*
X0231533Y0056125D01*
X0231533Y0056724D02*
X0233738Y0056724D01*
X0233738Y0057322D02*
X0231533Y0057322D01*
X0231533Y0057921D02*
X0233738Y0057921D01*
X0233738Y0058519D02*
X0231533Y0058519D01*
X0231533Y0059118D02*
X0233738Y0059118D01*
X0233738Y0059716D02*
X0231533Y0059716D01*
X0231533Y0060315D02*
X0233738Y0060315D01*
X0233738Y0060913D02*
X0231533Y0060913D01*
X0231533Y0061512D02*
X0233738Y0061512D01*
X0233738Y0062110D02*
X0232583Y0062110D01*
X0233182Y0062709D02*
X0233738Y0062709D01*
X0229133Y0059716D02*
X0222864Y0059716D01*
X0223493Y0059118D02*
X0229133Y0059118D01*
X0229133Y0058519D02*
X0224091Y0058519D01*
X0224408Y0057921D02*
X0229133Y0057921D01*
X0229133Y0057322D02*
X0224656Y0057322D01*
X0224904Y0056724D02*
X0229133Y0056724D01*
X0229116Y0056125D02*
X0224910Y0056125D01*
X0224910Y0055527D02*
X0228517Y0055527D01*
X0227919Y0054928D02*
X0224910Y0054928D01*
X0224682Y0054330D02*
X0227320Y0054330D01*
X0226722Y0053731D02*
X0224434Y0053731D01*
X0224152Y0053133D02*
X0226123Y0053133D01*
X0225525Y0052534D02*
X0223554Y0052534D01*
X0222955Y0051936D02*
X0224926Y0051936D01*
X0224327Y0051337D02*
X0221567Y0051337D01*
X0222019Y0050140D02*
X0223130Y0050140D01*
X0223729Y0050739D02*
X0212929Y0050739D01*
X0212929Y0051337D02*
X0219052Y0051337D01*
X0218949Y0050140D02*
X0212929Y0050140D01*
X0212929Y0049542D02*
X0217724Y0049542D01*
X0217125Y0048943D02*
X0212929Y0048943D01*
X0212929Y0048345D02*
X0216561Y0048345D01*
X0216313Y0047746D02*
X0212929Y0047746D01*
X0212929Y0047148D02*
X0216065Y0047148D01*
X0215884Y0046549D02*
X0212929Y0046549D01*
X0212929Y0045951D02*
X0215884Y0045951D01*
X0215884Y0045352D02*
X0212929Y0045352D01*
X0212929Y0044754D02*
X0215937Y0044754D01*
X0212929Y0040564D02*
X0233738Y0040564D01*
X0233738Y0039966D02*
X0222619Y0039966D01*
X0223264Y0039698D02*
X0221574Y0040398D01*
X0219744Y0040398D01*
X0218053Y0039698D01*
X0216759Y0038404D01*
X0216059Y0036713D01*
X0216059Y0034883D01*
X0216759Y0033193D01*
X0218053Y0031899D01*
X0219744Y0031198D01*
X0221574Y0031198D01*
X0223264Y0031899D01*
X0224558Y0033193D01*
X0225259Y0034883D01*
X0225259Y0036713D01*
X0224558Y0038404D01*
X0223264Y0039698D01*
X0223596Y0039367D02*
X0233738Y0039367D01*
X0233738Y0038768D02*
X0224194Y0038768D01*
X0224655Y0038170D02*
X0233738Y0038170D01*
X0233738Y0037571D02*
X0224903Y0037571D01*
X0225151Y0036973D02*
X0233738Y0036973D01*
X0233738Y0036374D02*
X0225259Y0036374D01*
X0225259Y0035776D02*
X0233738Y0035776D01*
X0233738Y0035177D02*
X0225259Y0035177D01*
X0225133Y0034579D02*
X0233738Y0034579D01*
X0233738Y0033980D02*
X0224885Y0033980D01*
X0224637Y0033382D02*
X0233738Y0033382D01*
X0233738Y0032783D02*
X0224149Y0032783D01*
X0223551Y0032185D02*
X0233738Y0032185D01*
X0233738Y0031586D02*
X0222510Y0031586D01*
X0221774Y0030389D02*
X0233738Y0030389D01*
X0233738Y0029791D02*
X0232282Y0029791D01*
X0232881Y0029192D02*
X0233738Y0029192D01*
X0233738Y0028594D02*
X0233479Y0028594D01*
X0233738Y0030988D02*
X0212929Y0030988D01*
X0212929Y0031586D02*
X0218807Y0031586D01*
X0217767Y0032185D02*
X0212929Y0032185D01*
X0212929Y0032783D02*
X0217169Y0032783D01*
X0216681Y0033382D02*
X0212929Y0033382D01*
X0212929Y0033980D02*
X0216433Y0033980D01*
X0216185Y0034579D02*
X0212929Y0034579D01*
X0212929Y0035177D02*
X0216059Y0035177D01*
X0216059Y0035776D02*
X0212929Y0035776D01*
X0212929Y0036374D02*
X0216059Y0036374D01*
X0216166Y0036973D02*
X0212929Y0036973D01*
X0212929Y0037571D02*
X0216414Y0037571D01*
X0216662Y0038170D02*
X0212929Y0038170D01*
X0212929Y0038768D02*
X0217123Y0038768D01*
X0217722Y0039367D02*
X0212929Y0039367D01*
X0212929Y0039966D02*
X0218699Y0039966D01*
X0219893Y0030389D02*
X0212929Y0030389D01*
X0212929Y0029791D02*
X0218448Y0029791D01*
X0217720Y0029192D02*
X0212929Y0029192D01*
X0212929Y0028594D02*
X0217122Y0028594D01*
X0216764Y0027995D02*
X0212929Y0027995D01*
X0212929Y0027397D02*
X0216516Y0027397D01*
X0216268Y0026798D02*
X0212929Y0026798D01*
X0212929Y0026200D02*
X0216233Y0026200D01*
X0216233Y0025601D02*
X0212929Y0025601D01*
X0212929Y0025003D02*
X0216233Y0025003D01*
X0216432Y0024404D02*
X0212929Y0024404D01*
X0212929Y0023806D02*
X0216680Y0023806D01*
X0216928Y0023207D02*
X0212929Y0023207D01*
X0212929Y0022609D02*
X0217519Y0022609D01*
X0223219Y0029791D02*
X0228384Y0029791D01*
X0227786Y0029192D02*
X0223946Y0029192D01*
X0224545Y0028594D02*
X0227187Y0028594D01*
X0226589Y0027995D02*
X0224903Y0027995D01*
X0225151Y0027397D02*
X0226133Y0027397D01*
X0226133Y0026798D02*
X0225399Y0026798D01*
X0225433Y0026200D02*
X0226133Y0026200D01*
X0226133Y0025601D02*
X0225433Y0025601D01*
X0225433Y0025003D02*
X0226133Y0025003D01*
X0226133Y0024404D02*
X0225234Y0024404D01*
X0224986Y0023806D02*
X0226388Y0023806D01*
X0226986Y0023207D02*
X0224738Y0023207D01*
X0224147Y0022609D02*
X0227585Y0022609D01*
X0217664Y0051936D02*
X0212929Y0051936D01*
X0212929Y0052534D02*
X0217066Y0052534D01*
X0216467Y0053133D02*
X0212929Y0053133D01*
X0212929Y0053731D02*
X0216186Y0053731D01*
X0215938Y0054330D02*
X0212929Y0054330D01*
X0212929Y0054928D02*
X0215710Y0054928D01*
X0215710Y0055527D02*
X0212929Y0055527D01*
X0212929Y0056125D02*
X0215710Y0056125D01*
X0215715Y0056724D02*
X0212929Y0056724D01*
X0212929Y0057322D02*
X0215963Y0057322D01*
X0216211Y0057921D02*
X0212929Y0057921D01*
X0212929Y0058519D02*
X0216528Y0058519D01*
X0217127Y0059118D02*
X0212929Y0059118D01*
X0212929Y0059716D02*
X0217755Y0059716D01*
X0219200Y0060315D02*
X0212929Y0060315D01*
X0212929Y0060913D02*
X0218987Y0060913D01*
X0217526Y0061512D02*
X0212929Y0061512D01*
X0212929Y0062110D02*
X0216748Y0062110D01*
X0216196Y0062709D02*
X0212929Y0062709D01*
X0212929Y0063307D02*
X0215790Y0063307D01*
X0215491Y0063906D02*
X0212929Y0063906D01*
X0212929Y0064504D02*
X0215297Y0064504D01*
X0215182Y0065103D02*
X0212929Y0065103D01*
X0213332Y0066300D02*
X0215153Y0066300D01*
X0215248Y0066899D02*
X0213931Y0066899D01*
X0214529Y0067497D02*
X0215431Y0067497D01*
X0215696Y0068096D02*
X0215128Y0068096D01*
X0215726Y0068694D02*
X0216062Y0068694D01*
X0216325Y0069293D02*
X0216563Y0069293D01*
X0216923Y0069891D02*
X0217268Y0069891D01*
X0217522Y0070490D02*
X0218407Y0070490D01*
X0219753Y0070490D02*
X0220353Y0070490D01*
X0220364Y0069891D02*
X0219764Y0069891D01*
X0219774Y0069293D02*
X0220374Y0069293D01*
X0220385Y0068694D02*
X0219785Y0068694D01*
X0219795Y0068096D02*
X0220395Y0068096D01*
X0220405Y0067497D02*
X0219805Y0067497D01*
X0219816Y0066899D02*
X0220416Y0066899D01*
X0220426Y0066300D02*
X0219826Y0066300D01*
X0221433Y0347002D02*
X0225233Y0347002D01*
X0225233Y0347600D02*
X0221433Y0347600D01*
X0221433Y0348199D02*
X0225233Y0348199D01*
X0225233Y0348797D02*
X0221433Y0348797D01*
X0221433Y0349396D02*
X0225233Y0349396D01*
X0225233Y0349994D02*
X0221433Y0349994D01*
X0221433Y0350593D02*
X0225233Y0350593D01*
X0225233Y0351191D02*
X0221433Y0351191D01*
X0221433Y0351790D02*
X0225233Y0351790D01*
X0225233Y0352388D02*
X0221433Y0352388D01*
X0221433Y0352987D02*
X0225233Y0352987D01*
X0225233Y0353585D02*
X0221433Y0353585D01*
X0221433Y0354184D02*
X0225233Y0354184D01*
X0225233Y0354782D02*
X0221433Y0354782D01*
X0221433Y0355381D02*
X0225233Y0355381D01*
X0225233Y0355979D02*
X0221433Y0355979D01*
X0221433Y0356578D02*
X0225233Y0356578D01*
X0225233Y0357177D02*
X0224449Y0357177D01*
X0225048Y0357775D02*
X0225233Y0357775D01*
X0222217Y0357177D02*
X0221433Y0357177D01*
X0221433Y0357775D02*
X0221619Y0357775D01*
M02*
