G75*
%MOIN*%
%OFA0B0*%
%FSLAX25Y25*%
%IPPOS*%
%LPD*%
%AMOC8*
5,1,8,0,0,1.08239X$1,22.5*
%
%ADD10C,0.00600*%
%ADD11C,0.00300*%
%ADD12C,0.00591*%
%ADD13C,0.00400*%
%ADD14C,0.00200*%
%ADD15C,0.00500*%
%ADD16R,0.02400X0.03400*%
%ADD17R,0.05512X0.02559*%
D10*
X0208333Y0065300D02*
X0208333Y0066300D01*
X0217983Y0075950D01*
X0217983Y0356950D01*
X0223333Y0366300D01*
X0228233Y0357150D01*
X0228333Y0356300D02*
X0228233Y0078500D01*
X0228233Y0078650D02*
X0228183Y0076350D01*
X0228333Y0076300D02*
X0238333Y0066300D01*
X0233833Y0058300D02*
X0226833Y0058300D01*
X0226773Y0058298D01*
X0226712Y0058293D01*
X0226653Y0058284D01*
X0226594Y0058271D01*
X0226535Y0058255D01*
X0226478Y0058235D01*
X0226423Y0058212D01*
X0226368Y0058185D01*
X0226316Y0058156D01*
X0226265Y0058123D01*
X0226216Y0058087D01*
X0226170Y0058049D01*
X0226126Y0058007D01*
X0226084Y0057963D01*
X0226046Y0057917D01*
X0226010Y0057868D01*
X0225977Y0057817D01*
X0225948Y0057765D01*
X0225921Y0057710D01*
X0225898Y0057655D01*
X0225878Y0057598D01*
X0225862Y0057539D01*
X0225849Y0057480D01*
X0225840Y0057421D01*
X0225835Y0057360D01*
X0225833Y0057300D01*
X0225833Y0055800D01*
X0226333Y0055300D01*
X0226333Y0036300D01*
X0225833Y0035800D01*
X0225833Y0034300D01*
X0225835Y0034240D01*
X0225840Y0034179D01*
X0225849Y0034120D01*
X0225862Y0034061D01*
X0225878Y0034002D01*
X0225898Y0033945D01*
X0225921Y0033890D01*
X0225948Y0033835D01*
X0225977Y0033783D01*
X0226010Y0033732D01*
X0226046Y0033683D01*
X0226084Y0033637D01*
X0226126Y0033593D01*
X0226170Y0033551D01*
X0226216Y0033513D01*
X0226265Y0033477D01*
X0226316Y0033444D01*
X0226368Y0033415D01*
X0226423Y0033388D01*
X0226478Y0033365D01*
X0226535Y0033345D01*
X0226594Y0033329D01*
X0226653Y0033316D01*
X0226712Y0033307D01*
X0226773Y0033302D01*
X0226833Y0033300D01*
X0233833Y0033300D01*
X0233893Y0033302D01*
X0233954Y0033307D01*
X0234013Y0033316D01*
X0234072Y0033329D01*
X0234131Y0033345D01*
X0234188Y0033365D01*
X0234243Y0033388D01*
X0234298Y0033415D01*
X0234350Y0033444D01*
X0234401Y0033477D01*
X0234450Y0033513D01*
X0234496Y0033551D01*
X0234540Y0033593D01*
X0234582Y0033637D01*
X0234620Y0033683D01*
X0234656Y0033732D01*
X0234689Y0033783D01*
X0234718Y0033835D01*
X0234745Y0033890D01*
X0234768Y0033945D01*
X0234788Y0034002D01*
X0234804Y0034061D01*
X0234817Y0034120D01*
X0234826Y0034179D01*
X0234831Y0034240D01*
X0234833Y0034300D01*
X0234833Y0035800D01*
X0234333Y0036300D01*
X0234333Y0055300D01*
X0234833Y0055800D01*
X0234833Y0057300D01*
X0234831Y0057360D01*
X0234826Y0057421D01*
X0234817Y0057480D01*
X0234804Y0057539D01*
X0234788Y0057598D01*
X0234768Y0057655D01*
X0234745Y0057710D01*
X0234718Y0057765D01*
X0234689Y0057817D01*
X0234656Y0057868D01*
X0234620Y0057917D01*
X0234582Y0057963D01*
X0234540Y0058007D01*
X0234496Y0058049D01*
X0234450Y0058087D01*
X0234401Y0058123D01*
X0234350Y0058156D01*
X0234298Y0058185D01*
X0234243Y0058212D01*
X0234188Y0058235D01*
X0234131Y0058255D01*
X0234072Y0058271D01*
X0234013Y0058284D01*
X0233954Y0058293D01*
X0233893Y0058298D01*
X0233833Y0058300D01*
X0238333Y0021300D02*
X0238331Y0021095D01*
X0238323Y0020889D01*
X0238311Y0020684D01*
X0238293Y0020480D01*
X0238271Y0020275D01*
X0238244Y0020072D01*
X0238212Y0019869D01*
X0238175Y0019667D01*
X0238133Y0019466D01*
X0238086Y0019266D01*
X0238034Y0019067D01*
X0237978Y0018869D01*
X0237917Y0018673D01*
X0237851Y0018479D01*
X0237781Y0018286D01*
X0237705Y0018095D01*
X0237626Y0017905D01*
X0237541Y0017718D01*
X0237453Y0017533D01*
X0237359Y0017350D01*
X0237262Y0017169D01*
X0237160Y0016991D01*
X0237053Y0016815D01*
X0236943Y0016642D01*
X0236828Y0016471D01*
X0236710Y0016304D01*
X0236587Y0016139D01*
X0236460Y0015977D01*
X0236330Y0015819D01*
X0236195Y0015663D01*
X0236057Y0015511D01*
X0235916Y0015363D01*
X0235770Y0015217D01*
X0235622Y0015076D01*
X0235470Y0014938D01*
X0235314Y0014803D01*
X0235156Y0014673D01*
X0234994Y0014546D01*
X0234829Y0014423D01*
X0234662Y0014305D01*
X0234491Y0014190D01*
X0234318Y0014080D01*
X0234142Y0013973D01*
X0233964Y0013871D01*
X0233783Y0013774D01*
X0233600Y0013680D01*
X0233415Y0013592D01*
X0233228Y0013507D01*
X0233038Y0013428D01*
X0232847Y0013352D01*
X0232654Y0013282D01*
X0232460Y0013216D01*
X0232264Y0013155D01*
X0232066Y0013099D01*
X0231867Y0013047D01*
X0231667Y0013000D01*
X0231466Y0012958D01*
X0231264Y0012921D01*
X0231061Y0012889D01*
X0230858Y0012862D01*
X0230653Y0012840D01*
X0230449Y0012822D01*
X0230244Y0012810D01*
X0230038Y0012802D01*
X0229833Y0012800D01*
X0225333Y0012800D01*
X0218833Y0012800D02*
X0216833Y0012800D01*
X0216628Y0012802D01*
X0216422Y0012810D01*
X0216217Y0012822D01*
X0216013Y0012840D01*
X0215808Y0012862D01*
X0215605Y0012889D01*
X0215402Y0012921D01*
X0215200Y0012958D01*
X0214999Y0013000D01*
X0214799Y0013047D01*
X0214600Y0013099D01*
X0214402Y0013155D01*
X0214206Y0013216D01*
X0214012Y0013282D01*
X0213819Y0013352D01*
X0213628Y0013428D01*
X0213438Y0013507D01*
X0213251Y0013592D01*
X0213066Y0013680D01*
X0212883Y0013774D01*
X0212702Y0013871D01*
X0212524Y0013973D01*
X0212348Y0014080D01*
X0212175Y0014190D01*
X0212004Y0014305D01*
X0211837Y0014423D01*
X0211672Y0014546D01*
X0211510Y0014673D01*
X0211352Y0014803D01*
X0211196Y0014938D01*
X0211044Y0015076D01*
X0210896Y0015217D01*
X0210750Y0015363D01*
X0210609Y0015511D01*
X0210471Y0015663D01*
X0210336Y0015819D01*
X0210206Y0015977D01*
X0210079Y0016139D01*
X0209956Y0016304D01*
X0209838Y0016471D01*
X0209723Y0016642D01*
X0209613Y0016815D01*
X0209506Y0016991D01*
X0209404Y0017169D01*
X0209307Y0017350D01*
X0209213Y0017533D01*
X0209125Y0017718D01*
X0209040Y0017905D01*
X0208961Y0018095D01*
X0208885Y0018286D01*
X0208815Y0018479D01*
X0208749Y0018673D01*
X0208688Y0018869D01*
X0208632Y0019067D01*
X0208580Y0019266D01*
X0208533Y0019466D01*
X0208491Y0019667D01*
X0208454Y0019869D01*
X0208422Y0020072D01*
X0208395Y0020275D01*
X0208373Y0020480D01*
X0208355Y0020684D01*
X0208343Y0020889D01*
X0208335Y0021095D01*
X0208333Y0021300D01*
X0213333Y0151300D02*
X0233333Y0151300D01*
X0233333Y0191300D02*
X0213333Y0191300D01*
X0213333Y0231300D02*
X0233333Y0231300D01*
X0233333Y0271300D02*
X0213333Y0271300D01*
X0213333Y0311300D02*
X0233333Y0311300D01*
X0233333Y0351300D02*
X0213333Y0351300D01*
D11*
X0227511Y0310650D02*
X0227563Y0310648D01*
X0227616Y0310643D01*
X0227667Y0310634D01*
X0227718Y0310621D01*
X0227768Y0310605D01*
X0227817Y0310586D01*
X0227864Y0310563D01*
X0227910Y0310537D01*
X0227953Y0310508D01*
X0227995Y0310476D01*
X0228034Y0310442D01*
X0228071Y0310404D01*
X0228105Y0310364D01*
X0228137Y0310322D01*
X0228165Y0310278D01*
X0228190Y0310232D01*
X0228212Y0310185D01*
X0228231Y0310136D01*
X0228333Y0309828D02*
X0226689Y0307772D01*
X0227511Y0306950D02*
X0227563Y0306952D01*
X0227616Y0306957D01*
X0227667Y0306966D01*
X0227718Y0306979D01*
X0227768Y0306995D01*
X0227817Y0307014D01*
X0227864Y0307037D01*
X0227910Y0307063D01*
X0227953Y0307092D01*
X0227995Y0307124D01*
X0228034Y0307158D01*
X0228071Y0307196D01*
X0228105Y0307236D01*
X0228137Y0307278D01*
X0228165Y0307322D01*
X0228190Y0307368D01*
X0228212Y0307415D01*
X0228231Y0307464D01*
X0227511Y0306950D02*
X0227459Y0306952D01*
X0227406Y0306957D01*
X0227355Y0306966D01*
X0227304Y0306979D01*
X0227254Y0306995D01*
X0227205Y0307014D01*
X0227158Y0307037D01*
X0227112Y0307063D01*
X0227069Y0307092D01*
X0227027Y0307124D01*
X0226988Y0307158D01*
X0226951Y0307196D01*
X0226917Y0307236D01*
X0226885Y0307278D01*
X0226857Y0307322D01*
X0226832Y0307368D01*
X0226810Y0307415D01*
X0226791Y0307464D01*
X0228539Y0308800D02*
X0228537Y0308906D01*
X0228532Y0309013D01*
X0228522Y0309119D01*
X0228509Y0309224D01*
X0228493Y0309329D01*
X0228472Y0309434D01*
X0228449Y0309537D01*
X0228421Y0309640D01*
X0228390Y0309742D01*
X0228355Y0309842D01*
X0228317Y0309942D01*
X0228276Y0310040D01*
X0228231Y0310136D01*
X0227511Y0310650D02*
X0227459Y0310648D01*
X0227406Y0310643D01*
X0227355Y0310634D01*
X0227304Y0310621D01*
X0227254Y0310605D01*
X0227205Y0310586D01*
X0227158Y0310563D01*
X0227112Y0310537D01*
X0227069Y0310508D01*
X0227027Y0310476D01*
X0226988Y0310442D01*
X0226951Y0310404D01*
X0226917Y0310364D01*
X0226885Y0310322D01*
X0226857Y0310278D01*
X0226832Y0310232D01*
X0226810Y0310185D01*
X0226791Y0310136D01*
X0228539Y0308800D02*
X0228537Y0308694D01*
X0228532Y0308587D01*
X0228522Y0308481D01*
X0228509Y0308376D01*
X0228493Y0308271D01*
X0228472Y0308166D01*
X0228449Y0308063D01*
X0228421Y0307960D01*
X0228390Y0307858D01*
X0228355Y0307758D01*
X0228317Y0307658D01*
X0228276Y0307560D01*
X0228231Y0307464D01*
X0226483Y0308800D02*
X0226485Y0308906D01*
X0226490Y0309013D01*
X0226500Y0309119D01*
X0226513Y0309224D01*
X0226529Y0309329D01*
X0226550Y0309434D01*
X0226573Y0309537D01*
X0226601Y0309640D01*
X0226632Y0309742D01*
X0226667Y0309842D01*
X0226705Y0309942D01*
X0226746Y0310040D01*
X0226791Y0310136D01*
X0226483Y0308800D02*
X0226485Y0308694D01*
X0226490Y0308587D01*
X0226500Y0308481D01*
X0226513Y0308376D01*
X0226529Y0308271D01*
X0226550Y0308166D01*
X0226573Y0308063D01*
X0226601Y0307960D01*
X0226632Y0307858D01*
X0226667Y0307758D01*
X0226705Y0307658D01*
X0226746Y0307560D01*
X0226791Y0307464D01*
X0226461Y0264600D02*
X0226461Y0260900D01*
X0225433Y0260900D02*
X0227489Y0260900D01*
X0225433Y0263778D02*
X0226461Y0264600D01*
X0226014Y0230650D02*
X0226072Y0230648D01*
X0226130Y0230643D01*
X0226187Y0230634D01*
X0226244Y0230621D01*
X0226300Y0230605D01*
X0226355Y0230585D01*
X0226408Y0230562D01*
X0226460Y0230536D01*
X0226510Y0230506D01*
X0226558Y0230473D01*
X0226604Y0230438D01*
X0226647Y0230399D01*
X0226688Y0230358D01*
X0226727Y0230315D01*
X0226762Y0230269D01*
X0226795Y0230221D01*
X0226825Y0230171D01*
X0226851Y0230119D01*
X0226874Y0230066D01*
X0226894Y0230011D01*
X0226910Y0229955D01*
X0226923Y0229898D01*
X0226932Y0229841D01*
X0226937Y0229783D01*
X0226939Y0229725D01*
X0226631Y0229006D02*
X0224883Y0226950D01*
X0226939Y0226950D01*
X0224884Y0229828D02*
X0224907Y0229892D01*
X0224933Y0229955D01*
X0224963Y0230016D01*
X0224996Y0230075D01*
X0225033Y0230132D01*
X0225073Y0230187D01*
X0225116Y0230239D01*
X0225162Y0230289D01*
X0225210Y0230337D01*
X0225262Y0230381D01*
X0225315Y0230423D01*
X0225371Y0230461D01*
X0225429Y0230496D01*
X0225489Y0230528D01*
X0225551Y0230556D01*
X0225614Y0230581D01*
X0225679Y0230602D01*
X0225745Y0230619D01*
X0225811Y0230633D01*
X0225878Y0230642D01*
X0225946Y0230648D01*
X0226014Y0230650D01*
X0226939Y0229725D02*
X0226937Y0229663D01*
X0226931Y0229601D01*
X0226922Y0229540D01*
X0226908Y0229480D01*
X0226891Y0229420D01*
X0226870Y0229362D01*
X0226846Y0229305D01*
X0226818Y0229250D01*
X0226787Y0229196D01*
X0226752Y0229145D01*
X0226715Y0229096D01*
X0226674Y0229049D01*
X0226631Y0229005D01*
X0226267Y0190950D02*
X0225033Y0190950D01*
X0226267Y0190950D02*
X0226323Y0190948D01*
X0226379Y0190942D01*
X0226434Y0190933D01*
X0226489Y0190920D01*
X0226542Y0190903D01*
X0226594Y0190882D01*
X0226645Y0190858D01*
X0226694Y0190830D01*
X0226741Y0190800D01*
X0226786Y0190766D01*
X0226828Y0190729D01*
X0226868Y0190689D01*
X0226905Y0190647D01*
X0226939Y0190602D01*
X0226969Y0190555D01*
X0226997Y0190506D01*
X0227021Y0190455D01*
X0227042Y0190403D01*
X0227059Y0190350D01*
X0227072Y0190295D01*
X0227081Y0190240D01*
X0227087Y0190184D01*
X0227089Y0190128D01*
X0227087Y0190072D01*
X0227081Y0190016D01*
X0227072Y0189961D01*
X0227059Y0189906D01*
X0227042Y0189853D01*
X0227021Y0189801D01*
X0226997Y0189750D01*
X0226969Y0189701D01*
X0226939Y0189654D01*
X0226905Y0189609D01*
X0226868Y0189567D01*
X0226828Y0189527D01*
X0226786Y0189490D01*
X0226741Y0189456D01*
X0226694Y0189426D01*
X0226645Y0189398D01*
X0226594Y0189374D01*
X0226542Y0189353D01*
X0226489Y0189336D01*
X0226434Y0189323D01*
X0226379Y0189314D01*
X0226323Y0189308D01*
X0226267Y0189306D01*
X0225444Y0189306D01*
X0226061Y0189306D02*
X0226124Y0189304D01*
X0226187Y0189298D01*
X0226250Y0189288D01*
X0226312Y0189275D01*
X0226373Y0189258D01*
X0226432Y0189237D01*
X0226491Y0189212D01*
X0226547Y0189184D01*
X0226602Y0189152D01*
X0226655Y0189117D01*
X0226705Y0189079D01*
X0226754Y0189038D01*
X0226799Y0188994D01*
X0226842Y0188947D01*
X0226881Y0188898D01*
X0226918Y0188846D01*
X0226951Y0188792D01*
X0226981Y0188736D01*
X0227008Y0188679D01*
X0227031Y0188620D01*
X0227050Y0188559D01*
X0227065Y0188498D01*
X0227077Y0188436D01*
X0227085Y0188373D01*
X0227089Y0188310D01*
X0227089Y0188246D01*
X0227085Y0188183D01*
X0227077Y0188120D01*
X0227065Y0188058D01*
X0227050Y0187997D01*
X0227031Y0187936D01*
X0227008Y0187877D01*
X0226981Y0187820D01*
X0226951Y0187764D01*
X0226918Y0187710D01*
X0226881Y0187658D01*
X0226842Y0187609D01*
X0226799Y0187562D01*
X0226754Y0187518D01*
X0226705Y0187477D01*
X0226655Y0187439D01*
X0226602Y0187404D01*
X0226547Y0187372D01*
X0226491Y0187344D01*
X0226432Y0187319D01*
X0226373Y0187298D01*
X0226312Y0187281D01*
X0226250Y0187268D01*
X0226187Y0187258D01*
X0226124Y0187252D01*
X0226061Y0187250D01*
X0225033Y0187250D01*
X0225756Y0151150D02*
X0224933Y0148272D01*
X0226989Y0148272D01*
X0226372Y0149094D02*
X0226372Y0147450D01*
X0227039Y0110750D02*
X0224983Y0110750D01*
X0224983Y0109106D01*
X0226217Y0109106D01*
X0226217Y0109105D02*
X0226273Y0109103D01*
X0226329Y0109097D01*
X0226384Y0109088D01*
X0226439Y0109075D01*
X0226492Y0109058D01*
X0226544Y0109037D01*
X0226595Y0109013D01*
X0226644Y0108985D01*
X0226691Y0108955D01*
X0226736Y0108921D01*
X0226778Y0108884D01*
X0226818Y0108844D01*
X0226855Y0108802D01*
X0226889Y0108757D01*
X0226919Y0108710D01*
X0226947Y0108661D01*
X0226971Y0108610D01*
X0226992Y0108558D01*
X0227009Y0108505D01*
X0227022Y0108450D01*
X0227031Y0108395D01*
X0227037Y0108339D01*
X0227039Y0108283D01*
X0227039Y0107872D01*
X0227037Y0107816D01*
X0227031Y0107760D01*
X0227022Y0107705D01*
X0227009Y0107650D01*
X0226992Y0107597D01*
X0226971Y0107545D01*
X0226947Y0107494D01*
X0226919Y0107445D01*
X0226889Y0107398D01*
X0226855Y0107353D01*
X0226818Y0107311D01*
X0226778Y0107271D01*
X0226736Y0107234D01*
X0226691Y0107200D01*
X0226644Y0107170D01*
X0226595Y0107142D01*
X0226544Y0107118D01*
X0226492Y0107097D01*
X0226439Y0107080D01*
X0226384Y0107067D01*
X0226329Y0107058D01*
X0226273Y0107052D01*
X0226217Y0107050D01*
X0224983Y0107050D01*
D12*
X0208333Y0066300D02*
X0208333Y0021300D01*
X0218833Y0012800D02*
X0225333Y0012800D01*
X0238333Y0021300D02*
X0238333Y0066300D01*
D13*
X0238100Y0065789D02*
X0235033Y0065789D01*
X0214100Y0058100D02*
X0212567Y0053500D01*
X0211033Y0058100D01*
X0211556Y0063500D02*
X0213089Y0063500D01*
X0213089Y0066056D01*
X0212322Y0066056D01*
X0210534Y0067078D02*
X0210536Y0067140D01*
X0210541Y0067201D01*
X0210551Y0067262D01*
X0210564Y0067323D01*
X0210580Y0067382D01*
X0210600Y0067440D01*
X0210624Y0067497D01*
X0210651Y0067553D01*
X0210681Y0067607D01*
X0210715Y0067659D01*
X0210751Y0067708D01*
X0210791Y0067756D01*
X0210833Y0067801D01*
X0210878Y0067843D01*
X0210926Y0067882D01*
X0210975Y0067919D01*
X0211027Y0067953D01*
X0211081Y0067983D01*
X0211137Y0068010D01*
X0211194Y0068034D01*
X0211252Y0068054D01*
X0211311Y0068070D01*
X0211372Y0068083D01*
X0211433Y0068093D01*
X0211494Y0068098D01*
X0211556Y0068100D01*
X0213089Y0068100D01*
X0210533Y0067078D02*
X0210533Y0064522D01*
X0210534Y0064522D02*
X0210536Y0064460D01*
X0210541Y0064399D01*
X0210551Y0064338D01*
X0210564Y0064277D01*
X0210580Y0064218D01*
X0210600Y0064160D01*
X0210624Y0064103D01*
X0210651Y0064047D01*
X0210681Y0063993D01*
X0210715Y0063941D01*
X0210751Y0063892D01*
X0210791Y0063844D01*
X0210833Y0063799D01*
X0210878Y0063757D01*
X0210926Y0063717D01*
X0210975Y0063681D01*
X0211027Y0063647D01*
X0211081Y0063617D01*
X0211137Y0063590D01*
X0211194Y0063566D01*
X0211252Y0063546D01*
X0211311Y0063530D01*
X0211372Y0063517D01*
X0211433Y0063507D01*
X0211494Y0063502D01*
X0211556Y0063500D01*
X0212533Y0046289D02*
X0215600Y0046289D01*
X0212567Y0038100D02*
X0214100Y0033500D01*
X0213717Y0034650D02*
X0211417Y0034650D01*
X0211033Y0033500D02*
X0212567Y0038100D01*
X0213067Y0027822D02*
X0213067Y0024756D01*
X0214600Y0026289D02*
X0211533Y0026289D01*
X0233533Y0023500D02*
X0235067Y0028100D01*
X0236600Y0023500D01*
X0236217Y0024650D02*
X0233917Y0024650D01*
X0219067Y0346256D02*
X0219067Y0349322D01*
X0220600Y0347789D02*
X0217533Y0347789D01*
D14*
X0217933Y0353400D02*
X0218867Y0356200D01*
X0219800Y0353400D01*
X0219567Y0354100D02*
X0218167Y0354100D01*
X0226556Y0334700D02*
X0227489Y0334700D01*
X0226556Y0334700D02*
X0226507Y0334698D01*
X0226459Y0334692D01*
X0226411Y0334683D01*
X0226364Y0334670D01*
X0226318Y0334653D01*
X0226274Y0334632D01*
X0226231Y0334608D01*
X0226190Y0334581D01*
X0226152Y0334551D01*
X0226116Y0334518D01*
X0226083Y0334482D01*
X0226053Y0334444D01*
X0226026Y0334403D01*
X0226002Y0334360D01*
X0225981Y0334316D01*
X0225964Y0334270D01*
X0225951Y0334223D01*
X0225942Y0334175D01*
X0225936Y0334127D01*
X0225934Y0334078D01*
X0225933Y0334078D02*
X0225933Y0332522D01*
X0225934Y0332522D02*
X0225936Y0332473D01*
X0225942Y0332425D01*
X0225951Y0332377D01*
X0225964Y0332330D01*
X0225981Y0332284D01*
X0226002Y0332240D01*
X0226026Y0332197D01*
X0226053Y0332156D01*
X0226083Y0332118D01*
X0226116Y0332082D01*
X0226152Y0332049D01*
X0226190Y0332019D01*
X0226231Y0331992D01*
X0226274Y0331968D01*
X0226318Y0331947D01*
X0226364Y0331930D01*
X0226411Y0331917D01*
X0226459Y0331908D01*
X0226507Y0331902D01*
X0226556Y0331900D01*
X0227489Y0331900D01*
X0227489Y0333456D01*
X0227022Y0333456D01*
X0226433Y0238700D02*
X0227367Y0235900D01*
X0228300Y0238700D01*
D15*
X0226583Y0347467D02*
X0226583Y0348523D01*
X0226583Y0347995D02*
X0228483Y0347995D01*
X0228483Y0349563D02*
X0226583Y0349563D01*
X0226583Y0350408D01*
X0227428Y0350196D02*
X0227428Y0349563D01*
X0228483Y0349563D02*
X0228483Y0350408D01*
X0228483Y0351466D02*
X0226583Y0351466D01*
X0227639Y0352099D01*
X0226583Y0352732D01*
X0228483Y0352732D01*
X0228483Y0354077D02*
X0226583Y0354077D01*
X0226583Y0354605D01*
X0226585Y0354650D01*
X0226591Y0354694D01*
X0226600Y0354738D01*
X0226613Y0354781D01*
X0226630Y0354822D01*
X0226650Y0354863D01*
X0226674Y0354901D01*
X0226700Y0354937D01*
X0226730Y0354970D01*
X0226762Y0355001D01*
X0226797Y0355030D01*
X0226834Y0355055D01*
X0226873Y0355076D01*
X0226914Y0355095D01*
X0226956Y0355110D01*
X0227000Y0355121D01*
X0227044Y0355129D01*
X0227089Y0355133D01*
X0227133Y0355133D01*
X0227178Y0355129D01*
X0227222Y0355121D01*
X0227266Y0355110D01*
X0227308Y0355095D01*
X0227349Y0355076D01*
X0227388Y0355055D01*
X0227425Y0355030D01*
X0227460Y0355001D01*
X0227492Y0354970D01*
X0227522Y0354937D01*
X0227548Y0354901D01*
X0227572Y0354863D01*
X0227592Y0354822D01*
X0227609Y0354781D01*
X0227622Y0354738D01*
X0227631Y0354694D01*
X0227637Y0354650D01*
X0227639Y0354605D01*
X0227639Y0354077D01*
X0241083Y0057550D02*
X0241083Y0055050D01*
X0241083Y0056300D02*
X0236583Y0056300D01*
X0237583Y0055050D01*
X0239208Y0052700D02*
X0238458Y0051325D01*
X0236583Y0051825D02*
X0236585Y0051905D01*
X0236590Y0051986D01*
X0236599Y0052066D01*
X0236611Y0052145D01*
X0236626Y0052224D01*
X0236645Y0052302D01*
X0236667Y0052380D01*
X0236692Y0052456D01*
X0236721Y0052531D01*
X0236753Y0052605D01*
X0236788Y0052677D01*
X0236826Y0052748D01*
X0236867Y0052817D01*
X0236911Y0052885D01*
X0236958Y0052950D01*
X0238458Y0051325D02*
X0238425Y0051273D01*
X0238389Y0051222D01*
X0238350Y0051174D01*
X0238308Y0051129D01*
X0238263Y0051086D01*
X0238215Y0051046D01*
X0238166Y0051009D01*
X0238114Y0050975D01*
X0238060Y0050944D01*
X0238004Y0050916D01*
X0237947Y0050892D01*
X0237888Y0050872D01*
X0237829Y0050855D01*
X0237768Y0050842D01*
X0237707Y0050833D01*
X0237645Y0050827D01*
X0237583Y0050825D01*
X0237523Y0050827D01*
X0237462Y0050832D01*
X0237403Y0050841D01*
X0237344Y0050854D01*
X0237285Y0050870D01*
X0237228Y0050890D01*
X0237173Y0050913D01*
X0237118Y0050940D01*
X0237066Y0050969D01*
X0237015Y0051002D01*
X0236966Y0051038D01*
X0236920Y0051076D01*
X0236876Y0051118D01*
X0236834Y0051162D01*
X0236796Y0051208D01*
X0236760Y0051257D01*
X0236727Y0051308D01*
X0236698Y0051360D01*
X0236671Y0051415D01*
X0236648Y0051470D01*
X0236628Y0051527D01*
X0236612Y0051586D01*
X0236599Y0051645D01*
X0236590Y0051704D01*
X0236585Y0051765D01*
X0236583Y0051825D01*
X0240459Y0050700D02*
X0240520Y0050763D01*
X0240578Y0050828D01*
X0240634Y0050896D01*
X0240687Y0050967D01*
X0240736Y0051039D01*
X0240783Y0051113D01*
X0240827Y0051189D01*
X0240867Y0051267D01*
X0240904Y0051347D01*
X0240938Y0051428D01*
X0240968Y0051510D01*
X0240995Y0051594D01*
X0241019Y0051679D01*
X0241039Y0051764D01*
X0241055Y0051850D01*
X0241068Y0051937D01*
X0241077Y0052025D01*
X0241082Y0052112D01*
X0241084Y0052200D01*
X0241083Y0052200D02*
X0241081Y0052260D01*
X0241076Y0052321D01*
X0241067Y0052380D01*
X0241054Y0052439D01*
X0241038Y0052498D01*
X0241018Y0052555D01*
X0240995Y0052610D01*
X0240968Y0052665D01*
X0240939Y0052717D01*
X0240906Y0052768D01*
X0240870Y0052817D01*
X0240832Y0052863D01*
X0240790Y0052907D01*
X0240746Y0052949D01*
X0240700Y0052987D01*
X0240651Y0053023D01*
X0240600Y0053056D01*
X0240548Y0053085D01*
X0240493Y0053112D01*
X0240438Y0053135D01*
X0240381Y0053155D01*
X0240322Y0053171D01*
X0240263Y0053184D01*
X0240204Y0053193D01*
X0240143Y0053198D01*
X0240083Y0053200D01*
X0240021Y0053198D01*
X0239959Y0053192D01*
X0239898Y0053183D01*
X0239837Y0053170D01*
X0239778Y0053153D01*
X0239719Y0053133D01*
X0239662Y0053109D01*
X0239606Y0053081D01*
X0239552Y0053050D01*
X0239500Y0053016D01*
X0239451Y0052979D01*
X0239403Y0052939D01*
X0239358Y0052896D01*
X0239316Y0052851D01*
X0239277Y0052803D01*
X0239241Y0052752D01*
X0239208Y0052700D01*
X0239958Y0048725D02*
X0239958Y0046475D01*
X0241083Y0046100D02*
X0236583Y0047600D01*
X0241083Y0049100D01*
X0241083Y0044500D02*
X0241083Y0043500D01*
X0241083Y0044000D02*
X0236583Y0044000D01*
X0236583Y0043500D02*
X0236583Y0044500D01*
X0236583Y0040625D02*
X0236583Y0039375D01*
X0241083Y0039375D01*
X0241083Y0040625D01*
X0241081Y0040694D01*
X0241075Y0040763D01*
X0241066Y0040831D01*
X0241053Y0040898D01*
X0241036Y0040965D01*
X0241015Y0041031D01*
X0240991Y0041095D01*
X0240963Y0041158D01*
X0240932Y0041220D01*
X0240898Y0041280D01*
X0240860Y0041337D01*
X0240819Y0041393D01*
X0240776Y0041446D01*
X0240729Y0041497D01*
X0240680Y0041545D01*
X0240628Y0041590D01*
X0240573Y0041632D01*
X0240517Y0041671D01*
X0240458Y0041708D01*
X0240397Y0041740D01*
X0240335Y0041770D01*
X0240271Y0041796D01*
X0240206Y0041818D01*
X0240140Y0041837D01*
X0240073Y0041852D01*
X0240005Y0041863D01*
X0239936Y0041871D01*
X0239867Y0041875D01*
X0239799Y0041875D01*
X0239730Y0041871D01*
X0239661Y0041863D01*
X0239593Y0041852D01*
X0239526Y0041837D01*
X0239460Y0041818D01*
X0239395Y0041796D01*
X0239331Y0041770D01*
X0239269Y0041740D01*
X0239208Y0041708D01*
X0239149Y0041671D01*
X0239093Y0041632D01*
X0239038Y0041590D01*
X0238986Y0041545D01*
X0238937Y0041497D01*
X0238890Y0041446D01*
X0238847Y0041393D01*
X0238806Y0041337D01*
X0238768Y0041280D01*
X0238734Y0041220D01*
X0238703Y0041158D01*
X0238675Y0041095D01*
X0238651Y0041031D01*
X0238630Y0040965D01*
X0238613Y0040898D01*
X0238600Y0040831D01*
X0238591Y0040763D01*
X0238585Y0040694D01*
X0238583Y0040625D01*
X0238583Y0039375D01*
X0238583Y0040625D02*
X0238581Y0040687D01*
X0238575Y0040748D01*
X0238566Y0040809D01*
X0238553Y0040869D01*
X0238536Y0040928D01*
X0238515Y0040986D01*
X0238491Y0041043D01*
X0238464Y0041098D01*
X0238433Y0041151D01*
X0238399Y0041203D01*
X0238362Y0041252D01*
X0238322Y0041299D01*
X0238279Y0041343D01*
X0238234Y0041384D01*
X0238186Y0041423D01*
X0238135Y0041459D01*
X0238083Y0041491D01*
X0238029Y0041520D01*
X0237973Y0041546D01*
X0237915Y0041568D01*
X0237857Y0041587D01*
X0237797Y0041602D01*
X0237736Y0041613D01*
X0237675Y0041621D01*
X0237614Y0041625D01*
X0237552Y0041625D01*
X0237491Y0041621D01*
X0237430Y0041613D01*
X0237369Y0041602D01*
X0237309Y0041587D01*
X0237251Y0041568D01*
X0237193Y0041546D01*
X0237137Y0041520D01*
X0237083Y0041491D01*
X0237031Y0041459D01*
X0236980Y0041423D01*
X0236932Y0041384D01*
X0236887Y0041343D01*
X0236844Y0041299D01*
X0236804Y0041252D01*
X0236767Y0041203D01*
X0236733Y0041151D01*
X0236702Y0041098D01*
X0236675Y0041043D01*
X0236651Y0040986D01*
X0236630Y0040928D01*
X0236613Y0040869D01*
X0236600Y0040809D01*
X0236591Y0040748D01*
X0236585Y0040687D01*
X0236583Y0040625D01*
X0241583Y0037350D02*
X0241583Y0035350D01*
X0241083Y0033583D02*
X0239083Y0032583D01*
X0239083Y0032333D02*
X0239083Y0031083D01*
X0239083Y0032333D02*
X0239081Y0032402D01*
X0239075Y0032471D01*
X0239066Y0032539D01*
X0239053Y0032606D01*
X0239036Y0032673D01*
X0239015Y0032739D01*
X0238991Y0032803D01*
X0238963Y0032866D01*
X0238932Y0032928D01*
X0238898Y0032988D01*
X0238860Y0033045D01*
X0238819Y0033101D01*
X0238776Y0033154D01*
X0238729Y0033205D01*
X0238680Y0033253D01*
X0238628Y0033298D01*
X0238573Y0033340D01*
X0238517Y0033379D01*
X0238458Y0033416D01*
X0238397Y0033448D01*
X0238335Y0033478D01*
X0238271Y0033504D01*
X0238206Y0033526D01*
X0238140Y0033545D01*
X0238073Y0033560D01*
X0238005Y0033571D01*
X0237936Y0033579D01*
X0237867Y0033583D01*
X0237799Y0033583D01*
X0237730Y0033579D01*
X0237661Y0033571D01*
X0237593Y0033560D01*
X0237526Y0033545D01*
X0237460Y0033526D01*
X0237395Y0033504D01*
X0237331Y0033478D01*
X0237269Y0033448D01*
X0237208Y0033416D01*
X0237149Y0033379D01*
X0237093Y0033340D01*
X0237038Y0033298D01*
X0236986Y0033253D01*
X0236937Y0033205D01*
X0236890Y0033154D01*
X0236847Y0033101D01*
X0236806Y0033045D01*
X0236768Y0032988D01*
X0236734Y0032928D01*
X0236703Y0032866D01*
X0236675Y0032803D01*
X0236651Y0032739D01*
X0236630Y0032673D01*
X0236613Y0032606D01*
X0236600Y0032539D01*
X0236591Y0032471D01*
X0236585Y0032402D01*
X0236583Y0032333D01*
X0236583Y0031083D01*
X0241083Y0031083D01*
X0210871Y0021025D02*
X0210873Y0020919D01*
X0210767Y0020917D01*
X0210766Y0021023D01*
X0210871Y0021025D01*
D16*
X0230333Y0031600D03*
X0230333Y0060000D03*
D17*
X0230339Y0048720D03*
X0230339Y0042920D03*
M02*
