G75*
%MOIN*%
%OFA0B0*%
%FSLAX25Y25*%
%IPPOS*%
%LPD*%
%AMOC8*
5,1,8,0,0,1.08239X$1,22.5*
%
%ADD10C,0.00600*%
%ADD11C,0.00591*%
%ADD12C,0.06000*%
%ADD13C,0.04800*%
%ADD14C,0.01981*%
%ADD15C,0.02178*%
D10*
X0208333Y0065300D02*
X0208333Y0066300D01*
X0217983Y0075950D01*
X0217983Y0356950D01*
X0223333Y0366300D01*
X0228233Y0357150D01*
X0228333Y0356300D02*
X0228233Y0078500D01*
X0228233Y0078650D02*
X0228183Y0076350D01*
X0228333Y0076300D02*
X0238333Y0066300D01*
X0236238Y0065425D02*
X0236238Y0022175D01*
X0236233Y0022170D01*
X0236233Y0021300D01*
X0236155Y0020299D01*
X0235536Y0018394D01*
X0234359Y0016775D01*
X0232739Y0015598D01*
X0230834Y0014979D01*
X0229833Y0014900D01*
X0224463Y0014900D01*
X0224459Y0014895D01*
X0219708Y0014895D01*
X0219703Y0014900D01*
X0216833Y0014900D01*
X0215832Y0014979D01*
X0213928Y0015598D01*
X0212308Y0016775D01*
X0211131Y0018394D01*
X0210512Y0020299D01*
X0210433Y0021300D01*
X0210433Y0022170D01*
X0210429Y0022175D01*
X0210429Y0064425D01*
X0210433Y0064430D01*
X0210433Y0065430D01*
X0220083Y0075080D01*
X0220083Y0356392D01*
X0220989Y0357974D01*
X0221088Y0357733D01*
X0221483Y0357339D01*
X0221483Y0346137D01*
X0222066Y0345554D01*
X0221722Y0345211D01*
X0221343Y0344295D01*
X0221343Y0343305D01*
X0221722Y0342389D01*
X0222423Y0341689D01*
X0223338Y0341309D01*
X0223824Y0341309D01*
X0223824Y0044009D01*
X0219803Y0039988D01*
X0219054Y0040298D01*
X0217264Y0040298D01*
X0215610Y0039613D01*
X0214344Y0038348D01*
X0213659Y0036694D01*
X0213659Y0034903D01*
X0214344Y0033249D01*
X0215610Y0031984D01*
X0217264Y0031298D01*
X0219054Y0031298D01*
X0220708Y0031984D01*
X0221156Y0032432D01*
X0226603Y0026985D01*
X0226433Y0026576D01*
X0226433Y0025024D01*
X0227027Y0023591D01*
X0228124Y0022494D01*
X0229558Y0021900D01*
X0231109Y0021900D01*
X0232542Y0022494D01*
X0233640Y0023591D01*
X0234233Y0025024D01*
X0234233Y0026576D01*
X0233640Y0028009D01*
X0232542Y0029106D01*
X0231109Y0029700D01*
X0229558Y0029700D01*
X0229148Y0029530D01*
X0222659Y0036020D01*
X0222659Y0036694D01*
X0222349Y0037443D01*
X0226369Y0041464D01*
X0227424Y0042518D01*
X0227424Y0063194D01*
X0228124Y0062494D01*
X0229558Y0061900D01*
X0231109Y0061900D01*
X0232542Y0062494D01*
X0233640Y0063591D01*
X0234233Y0065024D01*
X0234233Y0066576D01*
X0233640Y0068009D01*
X0232542Y0069106D01*
X0231109Y0069700D01*
X0229558Y0069700D01*
X0228124Y0069106D01*
X0227424Y0068406D01*
X0227424Y0074240D01*
X0236238Y0065425D01*
X0236238Y0065103D02*
X0234233Y0065103D01*
X0234233Y0065701D02*
X0235962Y0065701D01*
X0235363Y0066300D02*
X0234233Y0066300D01*
X0234100Y0066899D02*
X0234765Y0066899D01*
X0234166Y0067497D02*
X0233852Y0067497D01*
X0233568Y0068096D02*
X0233553Y0068096D01*
X0232969Y0068694D02*
X0232955Y0068694D01*
X0232371Y0069293D02*
X0232093Y0069293D01*
X0231772Y0069891D02*
X0227424Y0069891D01*
X0227424Y0069293D02*
X0228574Y0069293D01*
X0227712Y0068694D02*
X0227424Y0068694D01*
X0227424Y0070490D02*
X0231174Y0070490D01*
X0230575Y0071088D02*
X0227424Y0071088D01*
X0227424Y0071687D02*
X0229977Y0071687D01*
X0229378Y0072285D02*
X0227424Y0072285D01*
X0227424Y0072884D02*
X0228780Y0072884D01*
X0228181Y0073482D02*
X0227424Y0073482D01*
X0227424Y0074081D02*
X0227583Y0074081D01*
X0223824Y0074081D02*
X0219084Y0074081D01*
X0219682Y0074679D02*
X0223824Y0074679D01*
X0223824Y0075278D02*
X0220083Y0075278D01*
X0220083Y0075876D02*
X0223824Y0075876D01*
X0223824Y0076475D02*
X0220083Y0076475D01*
X0220083Y0077073D02*
X0223824Y0077073D01*
X0223824Y0077672D02*
X0220083Y0077672D01*
X0220083Y0078270D02*
X0223824Y0078270D01*
X0223824Y0078869D02*
X0220083Y0078869D01*
X0220083Y0079467D02*
X0223824Y0079467D01*
X0223824Y0080066D02*
X0220083Y0080066D01*
X0220083Y0080664D02*
X0223824Y0080664D01*
X0223824Y0081263D02*
X0220083Y0081263D01*
X0220083Y0081861D02*
X0223824Y0081861D01*
X0223824Y0082460D02*
X0220083Y0082460D01*
X0220083Y0083058D02*
X0223824Y0083058D01*
X0223824Y0083657D02*
X0220083Y0083657D01*
X0220083Y0084255D02*
X0223824Y0084255D01*
X0223824Y0084854D02*
X0220083Y0084854D01*
X0220083Y0085452D02*
X0223824Y0085452D01*
X0223824Y0086051D02*
X0220083Y0086051D01*
X0220083Y0086649D02*
X0223824Y0086649D01*
X0223824Y0087248D02*
X0220083Y0087248D01*
X0220083Y0087846D02*
X0223824Y0087846D01*
X0223824Y0088445D02*
X0220083Y0088445D01*
X0220083Y0089043D02*
X0223824Y0089043D01*
X0223824Y0089642D02*
X0220083Y0089642D01*
X0220083Y0090240D02*
X0223824Y0090240D01*
X0223824Y0090839D02*
X0220083Y0090839D01*
X0220083Y0091437D02*
X0223824Y0091437D01*
X0223824Y0092036D02*
X0220083Y0092036D01*
X0220083Y0092634D02*
X0223824Y0092634D01*
X0223824Y0093233D02*
X0220083Y0093233D01*
X0220083Y0093832D02*
X0223824Y0093832D01*
X0223824Y0094430D02*
X0220083Y0094430D01*
X0220083Y0095029D02*
X0223824Y0095029D01*
X0223824Y0095627D02*
X0220083Y0095627D01*
X0220083Y0096226D02*
X0223824Y0096226D01*
X0223824Y0096824D02*
X0220083Y0096824D01*
X0220083Y0097423D02*
X0223824Y0097423D01*
X0223824Y0098021D02*
X0220083Y0098021D01*
X0220083Y0098620D02*
X0223824Y0098620D01*
X0223824Y0099218D02*
X0220083Y0099218D01*
X0220083Y0099817D02*
X0223824Y0099817D01*
X0223824Y0100415D02*
X0220083Y0100415D01*
X0220083Y0101014D02*
X0223824Y0101014D01*
X0223824Y0101612D02*
X0220083Y0101612D01*
X0220083Y0102211D02*
X0223824Y0102211D01*
X0223824Y0102809D02*
X0220083Y0102809D01*
X0220083Y0103408D02*
X0223824Y0103408D01*
X0223824Y0104006D02*
X0220083Y0104006D01*
X0220083Y0104605D02*
X0223824Y0104605D01*
X0223824Y0105203D02*
X0220083Y0105203D01*
X0220083Y0105802D02*
X0223824Y0105802D01*
X0223824Y0106400D02*
X0220083Y0106400D01*
X0220083Y0106999D02*
X0223824Y0106999D01*
X0223824Y0107597D02*
X0220083Y0107597D01*
X0220083Y0108196D02*
X0223824Y0108196D01*
X0223824Y0108794D02*
X0220083Y0108794D01*
X0220083Y0109393D02*
X0223824Y0109393D01*
X0223824Y0109991D02*
X0220083Y0109991D01*
X0220083Y0110590D02*
X0223824Y0110590D01*
X0223824Y0111188D02*
X0220083Y0111188D01*
X0220083Y0111787D02*
X0223824Y0111787D01*
X0223824Y0112385D02*
X0220083Y0112385D01*
X0220083Y0112984D02*
X0223824Y0112984D01*
X0223824Y0113582D02*
X0220083Y0113582D01*
X0220083Y0114181D02*
X0223824Y0114181D01*
X0223824Y0114779D02*
X0220083Y0114779D01*
X0220083Y0115378D02*
X0223824Y0115378D01*
X0223824Y0115976D02*
X0220083Y0115976D01*
X0220083Y0116575D02*
X0223824Y0116575D01*
X0223824Y0117173D02*
X0220083Y0117173D01*
X0220083Y0117772D02*
X0223824Y0117772D01*
X0223824Y0118370D02*
X0220083Y0118370D01*
X0220083Y0118969D02*
X0223824Y0118969D01*
X0223824Y0119568D02*
X0220083Y0119568D01*
X0220083Y0120166D02*
X0223824Y0120166D01*
X0223824Y0120765D02*
X0220083Y0120765D01*
X0220083Y0121363D02*
X0223824Y0121363D01*
X0223824Y0121962D02*
X0220083Y0121962D01*
X0220083Y0122560D02*
X0223824Y0122560D01*
X0223824Y0123159D02*
X0220083Y0123159D01*
X0220083Y0123757D02*
X0223824Y0123757D01*
X0223824Y0124356D02*
X0220083Y0124356D01*
X0220083Y0124954D02*
X0223824Y0124954D01*
X0223824Y0125553D02*
X0220083Y0125553D01*
X0220083Y0126151D02*
X0223824Y0126151D01*
X0223824Y0126750D02*
X0220083Y0126750D01*
X0220083Y0127348D02*
X0223824Y0127348D01*
X0223824Y0127947D02*
X0220083Y0127947D01*
X0220083Y0128545D02*
X0223824Y0128545D01*
X0223824Y0129144D02*
X0220083Y0129144D01*
X0220083Y0129742D02*
X0223824Y0129742D01*
X0223824Y0130341D02*
X0220083Y0130341D01*
X0220083Y0130939D02*
X0223824Y0130939D01*
X0223824Y0131538D02*
X0220083Y0131538D01*
X0220083Y0132136D02*
X0223824Y0132136D01*
X0223824Y0132735D02*
X0220083Y0132735D01*
X0220083Y0133333D02*
X0223824Y0133333D01*
X0223824Y0133932D02*
X0220083Y0133932D01*
X0220083Y0134530D02*
X0223824Y0134530D01*
X0223824Y0135129D02*
X0220083Y0135129D01*
X0220083Y0135727D02*
X0223824Y0135727D01*
X0223824Y0136326D02*
X0220083Y0136326D01*
X0220083Y0136924D02*
X0223824Y0136924D01*
X0223824Y0137523D02*
X0220083Y0137523D01*
X0220083Y0138121D02*
X0223824Y0138121D01*
X0223824Y0138720D02*
X0220083Y0138720D01*
X0220083Y0139318D02*
X0223824Y0139318D01*
X0223824Y0139917D02*
X0220083Y0139917D01*
X0220083Y0140515D02*
X0223824Y0140515D01*
X0223824Y0141114D02*
X0220083Y0141114D01*
X0220083Y0141712D02*
X0223824Y0141712D01*
X0223824Y0142311D02*
X0220083Y0142311D01*
X0220083Y0142909D02*
X0223824Y0142909D01*
X0223824Y0143508D02*
X0220083Y0143508D01*
X0220083Y0144106D02*
X0223824Y0144106D01*
X0223824Y0144705D02*
X0220083Y0144705D01*
X0220083Y0145303D02*
X0223824Y0145303D01*
X0223824Y0145902D02*
X0220083Y0145902D01*
X0220083Y0146501D02*
X0223824Y0146501D01*
X0223824Y0147099D02*
X0220083Y0147099D01*
X0220083Y0147698D02*
X0223824Y0147698D01*
X0223824Y0148296D02*
X0220083Y0148296D01*
X0220083Y0148895D02*
X0223824Y0148895D01*
X0223824Y0149493D02*
X0220083Y0149493D01*
X0220083Y0150092D02*
X0223824Y0150092D01*
X0223824Y0150690D02*
X0220083Y0150690D01*
X0220083Y0151289D02*
X0223824Y0151289D01*
X0223824Y0151887D02*
X0220083Y0151887D01*
X0220083Y0152486D02*
X0223824Y0152486D01*
X0223824Y0153084D02*
X0220083Y0153084D01*
X0220083Y0153683D02*
X0223824Y0153683D01*
X0223824Y0154281D02*
X0220083Y0154281D01*
X0220083Y0154880D02*
X0223824Y0154880D01*
X0223824Y0155478D02*
X0220083Y0155478D01*
X0220083Y0156077D02*
X0223824Y0156077D01*
X0223824Y0156675D02*
X0220083Y0156675D01*
X0220083Y0157274D02*
X0223824Y0157274D01*
X0223824Y0157872D02*
X0220083Y0157872D01*
X0220083Y0158471D02*
X0223824Y0158471D01*
X0223824Y0159069D02*
X0220083Y0159069D01*
X0220083Y0159668D02*
X0223824Y0159668D01*
X0223824Y0160266D02*
X0220083Y0160266D01*
X0220083Y0160865D02*
X0223824Y0160865D01*
X0223824Y0161463D02*
X0220083Y0161463D01*
X0220083Y0162062D02*
X0223824Y0162062D01*
X0223824Y0162660D02*
X0220083Y0162660D01*
X0220083Y0163259D02*
X0223824Y0163259D01*
X0223824Y0163857D02*
X0220083Y0163857D01*
X0220083Y0164456D02*
X0223824Y0164456D01*
X0223824Y0165054D02*
X0220083Y0165054D01*
X0220083Y0165653D02*
X0223824Y0165653D01*
X0223824Y0166251D02*
X0220083Y0166251D01*
X0220083Y0166850D02*
X0223824Y0166850D01*
X0223824Y0167448D02*
X0220083Y0167448D01*
X0220083Y0168047D02*
X0223824Y0168047D01*
X0223824Y0168645D02*
X0220083Y0168645D01*
X0220083Y0169244D02*
X0223824Y0169244D01*
X0223824Y0169842D02*
X0220083Y0169842D01*
X0220083Y0170441D02*
X0223824Y0170441D01*
X0223824Y0171039D02*
X0220083Y0171039D01*
X0220083Y0171638D02*
X0223824Y0171638D01*
X0223824Y0172237D02*
X0220083Y0172237D01*
X0220083Y0172835D02*
X0223824Y0172835D01*
X0223824Y0173434D02*
X0220083Y0173434D01*
X0220083Y0174032D02*
X0223824Y0174032D01*
X0223824Y0174631D02*
X0220083Y0174631D01*
X0220083Y0175229D02*
X0223824Y0175229D01*
X0223824Y0175828D02*
X0220083Y0175828D01*
X0220083Y0176426D02*
X0223824Y0176426D01*
X0223824Y0177025D02*
X0220083Y0177025D01*
X0220083Y0177623D02*
X0223824Y0177623D01*
X0223824Y0178222D02*
X0220083Y0178222D01*
X0220083Y0178820D02*
X0223824Y0178820D01*
X0223824Y0179419D02*
X0220083Y0179419D01*
X0220083Y0180017D02*
X0223824Y0180017D01*
X0223824Y0180616D02*
X0220083Y0180616D01*
X0220083Y0181214D02*
X0223824Y0181214D01*
X0223824Y0181813D02*
X0220083Y0181813D01*
X0220083Y0182411D02*
X0223824Y0182411D01*
X0223824Y0183010D02*
X0220083Y0183010D01*
X0220083Y0183608D02*
X0223824Y0183608D01*
X0223824Y0184207D02*
X0220083Y0184207D01*
X0220083Y0184805D02*
X0223824Y0184805D01*
X0223824Y0185404D02*
X0220083Y0185404D01*
X0220083Y0186002D02*
X0223824Y0186002D01*
X0223824Y0186601D02*
X0220083Y0186601D01*
X0220083Y0187199D02*
X0223824Y0187199D01*
X0223824Y0187798D02*
X0220083Y0187798D01*
X0220083Y0188396D02*
X0223824Y0188396D01*
X0223824Y0188995D02*
X0220083Y0188995D01*
X0220083Y0189593D02*
X0223824Y0189593D01*
X0223824Y0190192D02*
X0220083Y0190192D01*
X0220083Y0190790D02*
X0223824Y0190790D01*
X0223824Y0191389D02*
X0220083Y0191389D01*
X0220083Y0191987D02*
X0223824Y0191987D01*
X0223824Y0192586D02*
X0220083Y0192586D01*
X0220083Y0193184D02*
X0223824Y0193184D01*
X0223824Y0193783D02*
X0220083Y0193783D01*
X0220083Y0194381D02*
X0223824Y0194381D01*
X0223824Y0194980D02*
X0220083Y0194980D01*
X0220083Y0195578D02*
X0223824Y0195578D01*
X0223824Y0196177D02*
X0220083Y0196177D01*
X0220083Y0196775D02*
X0223824Y0196775D01*
X0223824Y0197374D02*
X0220083Y0197374D01*
X0220083Y0197972D02*
X0223824Y0197972D01*
X0223824Y0198571D02*
X0220083Y0198571D01*
X0220083Y0199170D02*
X0223824Y0199170D01*
X0223824Y0199768D02*
X0220083Y0199768D01*
X0220083Y0200367D02*
X0223824Y0200367D01*
X0223824Y0200965D02*
X0220083Y0200965D01*
X0220083Y0201564D02*
X0223824Y0201564D01*
X0223824Y0202162D02*
X0220083Y0202162D01*
X0220083Y0202761D02*
X0223824Y0202761D01*
X0223824Y0203359D02*
X0220083Y0203359D01*
X0220083Y0203958D02*
X0223824Y0203958D01*
X0223824Y0204556D02*
X0220083Y0204556D01*
X0220083Y0205155D02*
X0223824Y0205155D01*
X0223824Y0205753D02*
X0220083Y0205753D01*
X0220083Y0206352D02*
X0223824Y0206352D01*
X0223824Y0206950D02*
X0220083Y0206950D01*
X0220083Y0207549D02*
X0223824Y0207549D01*
X0223824Y0208147D02*
X0220083Y0208147D01*
X0220083Y0208746D02*
X0223824Y0208746D01*
X0223824Y0209344D02*
X0220083Y0209344D01*
X0220083Y0209943D02*
X0223824Y0209943D01*
X0223824Y0210541D02*
X0220083Y0210541D01*
X0220083Y0211140D02*
X0223824Y0211140D01*
X0223824Y0211738D02*
X0220083Y0211738D01*
X0220083Y0212337D02*
X0223824Y0212337D01*
X0223824Y0212935D02*
X0220083Y0212935D01*
X0220083Y0213534D02*
X0223824Y0213534D01*
X0223824Y0214132D02*
X0220083Y0214132D01*
X0220083Y0214731D02*
X0223824Y0214731D01*
X0223824Y0215329D02*
X0220083Y0215329D01*
X0220083Y0215928D02*
X0223824Y0215928D01*
X0223824Y0216526D02*
X0220083Y0216526D01*
X0220083Y0217125D02*
X0223824Y0217125D01*
X0223824Y0217723D02*
X0220083Y0217723D01*
X0220083Y0218322D02*
X0223824Y0218322D01*
X0223824Y0218920D02*
X0220083Y0218920D01*
X0220083Y0219519D02*
X0223824Y0219519D01*
X0223824Y0220117D02*
X0220083Y0220117D01*
X0220083Y0220716D02*
X0223824Y0220716D01*
X0223824Y0221314D02*
X0220083Y0221314D01*
X0220083Y0221913D02*
X0223824Y0221913D01*
X0223824Y0222511D02*
X0220083Y0222511D01*
X0220083Y0223110D02*
X0223824Y0223110D01*
X0223824Y0223708D02*
X0220083Y0223708D01*
X0220083Y0224307D02*
X0223824Y0224307D01*
X0223824Y0224905D02*
X0220083Y0224905D01*
X0220083Y0225504D02*
X0223824Y0225504D01*
X0223824Y0226103D02*
X0220083Y0226103D01*
X0220083Y0226701D02*
X0223824Y0226701D01*
X0223824Y0227300D02*
X0220083Y0227300D01*
X0220083Y0227898D02*
X0223824Y0227898D01*
X0223824Y0228497D02*
X0220083Y0228497D01*
X0220083Y0229095D02*
X0223824Y0229095D01*
X0223824Y0229694D02*
X0220083Y0229694D01*
X0220083Y0230292D02*
X0223824Y0230292D01*
X0223824Y0230891D02*
X0220083Y0230891D01*
X0220083Y0231489D02*
X0223824Y0231489D01*
X0223824Y0232088D02*
X0220083Y0232088D01*
X0220083Y0232686D02*
X0223824Y0232686D01*
X0223824Y0233285D02*
X0220083Y0233285D01*
X0220083Y0233883D02*
X0223824Y0233883D01*
X0223824Y0234482D02*
X0220083Y0234482D01*
X0220083Y0235080D02*
X0223824Y0235080D01*
X0223824Y0235679D02*
X0220083Y0235679D01*
X0220083Y0236277D02*
X0223824Y0236277D01*
X0223824Y0236876D02*
X0220083Y0236876D01*
X0220083Y0237474D02*
X0223824Y0237474D01*
X0223824Y0238073D02*
X0220083Y0238073D01*
X0220083Y0238671D02*
X0223824Y0238671D01*
X0223824Y0239270D02*
X0220083Y0239270D01*
X0220083Y0239868D02*
X0223824Y0239868D01*
X0223824Y0240467D02*
X0220083Y0240467D01*
X0220083Y0241065D02*
X0223824Y0241065D01*
X0223824Y0241664D02*
X0220083Y0241664D01*
X0220083Y0242262D02*
X0223824Y0242262D01*
X0223824Y0242861D02*
X0220083Y0242861D01*
X0220083Y0243459D02*
X0223824Y0243459D01*
X0223824Y0244058D02*
X0220083Y0244058D01*
X0220083Y0244656D02*
X0223824Y0244656D01*
X0223824Y0245255D02*
X0220083Y0245255D01*
X0220083Y0245853D02*
X0223824Y0245853D01*
X0223824Y0246452D02*
X0220083Y0246452D01*
X0220083Y0247050D02*
X0223824Y0247050D01*
X0223824Y0247649D02*
X0220083Y0247649D01*
X0220083Y0248247D02*
X0223824Y0248247D01*
X0223824Y0248846D02*
X0220083Y0248846D01*
X0220083Y0249444D02*
X0223824Y0249444D01*
X0223824Y0250043D02*
X0220083Y0250043D01*
X0220083Y0250641D02*
X0223824Y0250641D01*
X0223824Y0251240D02*
X0220083Y0251240D01*
X0220083Y0251839D02*
X0223824Y0251839D01*
X0223824Y0252437D02*
X0220083Y0252437D01*
X0220083Y0253036D02*
X0223824Y0253036D01*
X0223824Y0253634D02*
X0220083Y0253634D01*
X0220083Y0254233D02*
X0223824Y0254233D01*
X0223824Y0254831D02*
X0220083Y0254831D01*
X0220083Y0255430D02*
X0223824Y0255430D01*
X0223824Y0256028D02*
X0220083Y0256028D01*
X0220083Y0256627D02*
X0223824Y0256627D01*
X0223824Y0257225D02*
X0220083Y0257225D01*
X0220083Y0257824D02*
X0223824Y0257824D01*
X0223824Y0258422D02*
X0220083Y0258422D01*
X0220083Y0259021D02*
X0223824Y0259021D01*
X0223824Y0259619D02*
X0220083Y0259619D01*
X0220083Y0260218D02*
X0223824Y0260218D01*
X0223824Y0260816D02*
X0220083Y0260816D01*
X0220083Y0261415D02*
X0223824Y0261415D01*
X0223824Y0262013D02*
X0220083Y0262013D01*
X0220083Y0262612D02*
X0223824Y0262612D01*
X0223824Y0263210D02*
X0220083Y0263210D01*
X0220083Y0263809D02*
X0223824Y0263809D01*
X0223824Y0264407D02*
X0220083Y0264407D01*
X0220083Y0265006D02*
X0223824Y0265006D01*
X0223824Y0265604D02*
X0220083Y0265604D01*
X0220083Y0266203D02*
X0223824Y0266203D01*
X0223824Y0266801D02*
X0220083Y0266801D01*
X0220083Y0267400D02*
X0223824Y0267400D01*
X0223824Y0267998D02*
X0220083Y0267998D01*
X0220083Y0268597D02*
X0223824Y0268597D01*
X0223824Y0269195D02*
X0220083Y0269195D01*
X0220083Y0269794D02*
X0223824Y0269794D01*
X0223824Y0270392D02*
X0220083Y0270392D01*
X0220083Y0270991D02*
X0223824Y0270991D01*
X0223824Y0271589D02*
X0220083Y0271589D01*
X0220083Y0272188D02*
X0223824Y0272188D01*
X0223824Y0272786D02*
X0220083Y0272786D01*
X0220083Y0273385D02*
X0223824Y0273385D01*
X0223824Y0273983D02*
X0220083Y0273983D01*
X0220083Y0274582D02*
X0223824Y0274582D01*
X0223824Y0275180D02*
X0220083Y0275180D01*
X0220083Y0275779D02*
X0223824Y0275779D01*
X0223824Y0276377D02*
X0220083Y0276377D01*
X0220083Y0276976D02*
X0223824Y0276976D01*
X0223824Y0277574D02*
X0220083Y0277574D01*
X0220083Y0278173D02*
X0223824Y0278173D01*
X0223824Y0278772D02*
X0220083Y0278772D01*
X0220083Y0279370D02*
X0223824Y0279370D01*
X0223824Y0279969D02*
X0220083Y0279969D01*
X0220083Y0280567D02*
X0223824Y0280567D01*
X0223824Y0281166D02*
X0220083Y0281166D01*
X0220083Y0281764D02*
X0223824Y0281764D01*
X0223824Y0282363D02*
X0220083Y0282363D01*
X0220083Y0282961D02*
X0223824Y0282961D01*
X0223824Y0283560D02*
X0220083Y0283560D01*
X0220083Y0284158D02*
X0223824Y0284158D01*
X0223824Y0284757D02*
X0220083Y0284757D01*
X0220083Y0285355D02*
X0223824Y0285355D01*
X0223824Y0285954D02*
X0220083Y0285954D01*
X0220083Y0286552D02*
X0223824Y0286552D01*
X0223824Y0287151D02*
X0220083Y0287151D01*
X0220083Y0287749D02*
X0223824Y0287749D01*
X0223824Y0288348D02*
X0220083Y0288348D01*
X0220083Y0288946D02*
X0223824Y0288946D01*
X0223824Y0289545D02*
X0220083Y0289545D01*
X0220083Y0290143D02*
X0223824Y0290143D01*
X0223824Y0290742D02*
X0220083Y0290742D01*
X0220083Y0291340D02*
X0223824Y0291340D01*
X0223824Y0291939D02*
X0220083Y0291939D01*
X0220083Y0292537D02*
X0223824Y0292537D01*
X0223824Y0293136D02*
X0220083Y0293136D01*
X0220083Y0293734D02*
X0223824Y0293734D01*
X0223824Y0294333D02*
X0220083Y0294333D01*
X0220083Y0294931D02*
X0223824Y0294931D01*
X0223824Y0295530D02*
X0220083Y0295530D01*
X0220083Y0296128D02*
X0223824Y0296128D01*
X0223824Y0296727D02*
X0220083Y0296727D01*
X0220083Y0297325D02*
X0223824Y0297325D01*
X0223824Y0297924D02*
X0220083Y0297924D01*
X0220083Y0298522D02*
X0223824Y0298522D01*
X0223824Y0299121D02*
X0220083Y0299121D01*
X0220083Y0299719D02*
X0223824Y0299719D01*
X0223824Y0300318D02*
X0220083Y0300318D01*
X0220083Y0300916D02*
X0223824Y0300916D01*
X0223824Y0301515D02*
X0220083Y0301515D01*
X0220083Y0302113D02*
X0223824Y0302113D01*
X0223824Y0302712D02*
X0220083Y0302712D01*
X0220083Y0303310D02*
X0223824Y0303310D01*
X0223824Y0303909D02*
X0220083Y0303909D01*
X0220083Y0304508D02*
X0223824Y0304508D01*
X0223824Y0305106D02*
X0220083Y0305106D01*
X0220083Y0305705D02*
X0223824Y0305705D01*
X0223824Y0306303D02*
X0220083Y0306303D01*
X0220083Y0306902D02*
X0223824Y0306902D01*
X0223824Y0307500D02*
X0220083Y0307500D01*
X0220083Y0308099D02*
X0223824Y0308099D01*
X0223824Y0308697D02*
X0220083Y0308697D01*
X0220083Y0309296D02*
X0223824Y0309296D01*
X0223824Y0309894D02*
X0220083Y0309894D01*
X0220083Y0310493D02*
X0223824Y0310493D01*
X0223824Y0311091D02*
X0220083Y0311091D01*
X0220083Y0311690D02*
X0223824Y0311690D01*
X0223824Y0312288D02*
X0220083Y0312288D01*
X0220083Y0312887D02*
X0223824Y0312887D01*
X0223824Y0313485D02*
X0220083Y0313485D01*
X0220083Y0314084D02*
X0223824Y0314084D01*
X0223824Y0314682D02*
X0220083Y0314682D01*
X0220083Y0315281D02*
X0223824Y0315281D01*
X0223824Y0315879D02*
X0220083Y0315879D01*
X0220083Y0316478D02*
X0223824Y0316478D01*
X0223824Y0317076D02*
X0220083Y0317076D01*
X0220083Y0317675D02*
X0223824Y0317675D01*
X0223824Y0318273D02*
X0220083Y0318273D01*
X0220083Y0318872D02*
X0223824Y0318872D01*
X0223824Y0319470D02*
X0220083Y0319470D01*
X0220083Y0320069D02*
X0223824Y0320069D01*
X0223824Y0320667D02*
X0220083Y0320667D01*
X0220083Y0321266D02*
X0223824Y0321266D01*
X0223824Y0321864D02*
X0220083Y0321864D01*
X0220083Y0322463D02*
X0223824Y0322463D01*
X0223824Y0323061D02*
X0220083Y0323061D01*
X0220083Y0323660D02*
X0223824Y0323660D01*
X0223824Y0324258D02*
X0220083Y0324258D01*
X0220083Y0324857D02*
X0223824Y0324857D01*
X0223824Y0325455D02*
X0220083Y0325455D01*
X0220083Y0326054D02*
X0223824Y0326054D01*
X0223824Y0326652D02*
X0220083Y0326652D01*
X0220083Y0327251D02*
X0223824Y0327251D01*
X0223824Y0327849D02*
X0220083Y0327849D01*
X0220083Y0328448D02*
X0223824Y0328448D01*
X0223824Y0329046D02*
X0220083Y0329046D01*
X0220083Y0329645D02*
X0223824Y0329645D01*
X0223824Y0330243D02*
X0220083Y0330243D01*
X0220083Y0330842D02*
X0223824Y0330842D01*
X0223824Y0331441D02*
X0220083Y0331441D01*
X0220083Y0332039D02*
X0223824Y0332039D01*
X0223824Y0332638D02*
X0220083Y0332638D01*
X0220083Y0333236D02*
X0223824Y0333236D01*
X0223824Y0333835D02*
X0220083Y0333835D01*
X0220083Y0334433D02*
X0223824Y0334433D01*
X0223824Y0335032D02*
X0220083Y0335032D01*
X0220083Y0335630D02*
X0223824Y0335630D01*
X0223824Y0336229D02*
X0220083Y0336229D01*
X0220083Y0336827D02*
X0223824Y0336827D01*
X0223824Y0337426D02*
X0220083Y0337426D01*
X0220083Y0338024D02*
X0223824Y0338024D01*
X0223824Y0338623D02*
X0220083Y0338623D01*
X0220083Y0339221D02*
X0223824Y0339221D01*
X0223824Y0339820D02*
X0220083Y0339820D01*
X0220083Y0340418D02*
X0223824Y0340418D01*
X0223824Y0341017D02*
X0220083Y0341017D01*
X0220083Y0341615D02*
X0222600Y0341615D01*
X0221897Y0342214D02*
X0220083Y0342214D01*
X0220083Y0342812D02*
X0221547Y0342812D01*
X0221343Y0343411D02*
X0220083Y0343411D01*
X0220083Y0344009D02*
X0221343Y0344009D01*
X0221472Y0344608D02*
X0220083Y0344608D01*
X0220083Y0345206D02*
X0221720Y0345206D01*
X0221815Y0345805D02*
X0220083Y0345805D01*
X0220083Y0346403D02*
X0221483Y0346403D01*
X0221483Y0347002D02*
X0220083Y0347002D01*
X0220083Y0347600D02*
X0221483Y0347600D01*
X0221483Y0348199D02*
X0220083Y0348199D01*
X0220083Y0348797D02*
X0221483Y0348797D01*
X0221483Y0349396D02*
X0220083Y0349396D01*
X0220083Y0349994D02*
X0221483Y0349994D01*
X0221483Y0350593D02*
X0220083Y0350593D01*
X0220083Y0351191D02*
X0221483Y0351191D01*
X0221483Y0351790D02*
X0220083Y0351790D01*
X0220083Y0352388D02*
X0221483Y0352388D01*
X0221483Y0352987D02*
X0220083Y0352987D01*
X0220083Y0353585D02*
X0221483Y0353585D01*
X0221483Y0354184D02*
X0220083Y0354184D01*
X0220083Y0354782D02*
X0221483Y0354782D01*
X0221483Y0355381D02*
X0220083Y0355381D01*
X0220083Y0355979D02*
X0221483Y0355979D01*
X0221483Y0356578D02*
X0220190Y0356578D01*
X0220532Y0357177D02*
X0221483Y0357177D01*
X0221071Y0357775D02*
X0220875Y0357775D01*
X0223283Y0359200D02*
X0223283Y0359250D01*
X0223283Y0359200D02*
X0223283Y0346882D01*
X0225624Y0344542D01*
X0225624Y0043264D01*
X0218159Y0035798D01*
X0220335Y0035798D01*
X0230333Y0025800D01*
X0233055Y0028594D02*
X0236238Y0028594D01*
X0236238Y0029192D02*
X0232335Y0029192D01*
X0233645Y0027995D02*
X0236238Y0027995D01*
X0236238Y0027397D02*
X0233893Y0027397D01*
X0234141Y0026798D02*
X0236238Y0026798D01*
X0236238Y0026200D02*
X0234233Y0026200D01*
X0234233Y0025601D02*
X0236238Y0025601D01*
X0236238Y0025003D02*
X0234224Y0025003D01*
X0233976Y0024404D02*
X0236238Y0024404D01*
X0236238Y0023806D02*
X0233729Y0023806D01*
X0233256Y0023207D02*
X0236238Y0023207D01*
X0236238Y0022609D02*
X0232657Y0022609D01*
X0231375Y0022010D02*
X0236233Y0022010D01*
X0236233Y0021412D02*
X0219498Y0021412D01*
X0219228Y0021300D02*
X0220882Y0021985D01*
X0222148Y0023251D01*
X0222833Y0024905D01*
X0222833Y0026695D01*
X0222148Y0028349D01*
X0220882Y0029615D01*
X0219228Y0030300D01*
X0217438Y0030300D01*
X0215784Y0029615D01*
X0214518Y0028349D01*
X0213833Y0026695D01*
X0213833Y0024905D01*
X0214518Y0023251D01*
X0215784Y0021985D01*
X0217438Y0021300D01*
X0219228Y0021300D01*
X0220907Y0022010D02*
X0229292Y0022010D01*
X0238333Y0021300D02*
X0238331Y0021095D01*
X0238323Y0020889D01*
X0238311Y0020684D01*
X0238293Y0020480D01*
X0238271Y0020275D01*
X0238244Y0020072D01*
X0238212Y0019869D01*
X0238175Y0019667D01*
X0238133Y0019466D01*
X0238086Y0019266D01*
X0238034Y0019067D01*
X0237978Y0018869D01*
X0237917Y0018673D01*
X0237851Y0018479D01*
X0237781Y0018286D01*
X0237705Y0018095D01*
X0237626Y0017905D01*
X0237541Y0017718D01*
X0237453Y0017533D01*
X0237359Y0017350D01*
X0237262Y0017169D01*
X0237160Y0016991D01*
X0237053Y0016815D01*
X0236943Y0016642D01*
X0236828Y0016471D01*
X0236710Y0016304D01*
X0236587Y0016139D01*
X0236460Y0015977D01*
X0236330Y0015819D01*
X0236195Y0015663D01*
X0236057Y0015511D01*
X0235916Y0015363D01*
X0235770Y0015217D01*
X0235622Y0015076D01*
X0235470Y0014938D01*
X0235314Y0014803D01*
X0235156Y0014673D01*
X0234994Y0014546D01*
X0234829Y0014423D01*
X0234662Y0014305D01*
X0234491Y0014190D01*
X0234318Y0014080D01*
X0234142Y0013973D01*
X0233964Y0013871D01*
X0233783Y0013774D01*
X0233600Y0013680D01*
X0233415Y0013592D01*
X0233228Y0013507D01*
X0233038Y0013428D01*
X0232847Y0013352D01*
X0232654Y0013282D01*
X0232460Y0013216D01*
X0232264Y0013155D01*
X0232066Y0013099D01*
X0231867Y0013047D01*
X0231667Y0013000D01*
X0231466Y0012958D01*
X0231264Y0012921D01*
X0231061Y0012889D01*
X0230858Y0012862D01*
X0230653Y0012840D01*
X0230449Y0012822D01*
X0230244Y0012810D01*
X0230038Y0012802D01*
X0229833Y0012800D01*
X0225333Y0012800D01*
X0228009Y0022609D02*
X0221506Y0022609D01*
X0222104Y0023207D02*
X0227411Y0023207D01*
X0226938Y0023806D02*
X0222378Y0023806D01*
X0222626Y0024404D02*
X0226690Y0024404D01*
X0226442Y0025003D02*
X0222833Y0025003D01*
X0222833Y0025601D02*
X0226433Y0025601D01*
X0226433Y0026200D02*
X0222833Y0026200D01*
X0222791Y0026798D02*
X0226526Y0026798D01*
X0226191Y0027397D02*
X0222543Y0027397D01*
X0222295Y0027995D02*
X0225592Y0027995D01*
X0224994Y0028594D02*
X0221903Y0028594D01*
X0221305Y0029192D02*
X0224395Y0029192D01*
X0223797Y0029791D02*
X0220458Y0029791D01*
X0219749Y0031586D02*
X0222001Y0031586D01*
X0221403Y0032185D02*
X0220909Y0032185D01*
X0222600Y0030988D02*
X0210429Y0030988D01*
X0210429Y0031586D02*
X0216569Y0031586D01*
X0215408Y0032185D02*
X0210429Y0032185D01*
X0210429Y0032783D02*
X0214810Y0032783D01*
X0214289Y0033382D02*
X0210429Y0033382D01*
X0210429Y0033980D02*
X0214041Y0033980D01*
X0213793Y0034579D02*
X0210429Y0034579D01*
X0210429Y0035177D02*
X0213659Y0035177D01*
X0213659Y0035776D02*
X0210429Y0035776D01*
X0210429Y0036374D02*
X0213659Y0036374D01*
X0213775Y0036973D02*
X0210429Y0036973D01*
X0210429Y0037571D02*
X0214022Y0037571D01*
X0214270Y0038170D02*
X0210429Y0038170D01*
X0210429Y0038768D02*
X0214765Y0038768D01*
X0215363Y0039367D02*
X0210429Y0039367D01*
X0210429Y0039966D02*
X0216460Y0039966D01*
X0217089Y0041297D02*
X0218879Y0041297D01*
X0220533Y0041982D01*
X0221799Y0043248D01*
X0222484Y0044902D01*
X0222484Y0046692D01*
X0221799Y0048346D01*
X0220533Y0049612D01*
X0218879Y0050297D01*
X0217089Y0050297D01*
X0215435Y0049612D01*
X0214169Y0048346D01*
X0213484Y0046692D01*
X0213484Y0044902D01*
X0214169Y0043248D01*
X0215435Y0041982D01*
X0217089Y0041297D01*
X0215969Y0041761D02*
X0210429Y0041761D01*
X0210429Y0041163D02*
X0220977Y0041163D01*
X0221576Y0041761D02*
X0220000Y0041761D01*
X0220911Y0042360D02*
X0222174Y0042360D01*
X0222773Y0042958D02*
X0221509Y0042958D01*
X0221927Y0043557D02*
X0223371Y0043557D01*
X0223824Y0044155D02*
X0222175Y0044155D01*
X0222423Y0044754D02*
X0223824Y0044754D01*
X0223824Y0045352D02*
X0222484Y0045352D01*
X0222484Y0045951D02*
X0223824Y0045951D01*
X0223824Y0046549D02*
X0222484Y0046549D01*
X0222296Y0047148D02*
X0223824Y0047148D01*
X0223824Y0047746D02*
X0222048Y0047746D01*
X0221800Y0048345D02*
X0223824Y0048345D01*
X0223824Y0048943D02*
X0221202Y0048943D01*
X0220603Y0049542D02*
X0223824Y0049542D01*
X0223824Y0050140D02*
X0219258Y0050140D01*
X0218806Y0051337D02*
X0223824Y0051337D01*
X0223824Y0050739D02*
X0210429Y0050739D01*
X0210429Y0051337D02*
X0216814Y0051337D01*
X0216915Y0051295D02*
X0218705Y0051295D01*
X0220359Y0051980D01*
X0221625Y0053246D01*
X0222310Y0054900D01*
X0222310Y0056691D01*
X0221625Y0058344D01*
X0220359Y0059610D01*
X0218705Y0060295D01*
X0216915Y0060295D01*
X0215261Y0059610D01*
X0213995Y0058344D01*
X0213310Y0056691D01*
X0213310Y0054900D01*
X0213995Y0053246D01*
X0215261Y0051980D01*
X0216915Y0051295D01*
X0216711Y0050140D02*
X0210429Y0050140D01*
X0210429Y0049542D02*
X0215365Y0049542D01*
X0214767Y0048943D02*
X0210429Y0048943D01*
X0210429Y0048345D02*
X0214169Y0048345D01*
X0213921Y0047746D02*
X0210429Y0047746D01*
X0210429Y0047148D02*
X0213673Y0047148D01*
X0213484Y0046549D02*
X0210429Y0046549D01*
X0210429Y0045951D02*
X0213484Y0045951D01*
X0213484Y0045352D02*
X0210429Y0045352D01*
X0210429Y0044754D02*
X0213546Y0044754D01*
X0213794Y0044155D02*
X0210429Y0044155D01*
X0210429Y0043557D02*
X0214041Y0043557D01*
X0214459Y0042958D02*
X0210429Y0042958D01*
X0210429Y0042360D02*
X0215058Y0042360D01*
X0210429Y0040564D02*
X0220379Y0040564D01*
X0223076Y0038170D02*
X0236238Y0038170D01*
X0236238Y0038768D02*
X0223674Y0038768D01*
X0224273Y0039367D02*
X0236238Y0039367D01*
X0236238Y0039966D02*
X0224871Y0039966D01*
X0225470Y0040564D02*
X0236238Y0040564D01*
X0236238Y0041163D02*
X0226068Y0041163D01*
X0226667Y0041761D02*
X0236238Y0041761D01*
X0236238Y0042360D02*
X0227265Y0042360D01*
X0227424Y0042958D02*
X0236238Y0042958D01*
X0236238Y0043557D02*
X0227424Y0043557D01*
X0227424Y0044155D02*
X0236238Y0044155D01*
X0236238Y0044754D02*
X0227424Y0044754D01*
X0227424Y0045352D02*
X0236238Y0045352D01*
X0236238Y0045951D02*
X0227424Y0045951D01*
X0227424Y0046549D02*
X0236238Y0046549D01*
X0236238Y0047148D02*
X0227424Y0047148D01*
X0227424Y0047746D02*
X0236238Y0047746D01*
X0236238Y0048345D02*
X0227424Y0048345D01*
X0227424Y0048943D02*
X0236238Y0048943D01*
X0236238Y0049542D02*
X0227424Y0049542D01*
X0227424Y0050140D02*
X0236238Y0050140D01*
X0236238Y0050739D02*
X0227424Y0050739D01*
X0227424Y0051337D02*
X0236238Y0051337D01*
X0236238Y0051936D02*
X0227424Y0051936D01*
X0227424Y0052534D02*
X0236238Y0052534D01*
X0236238Y0053133D02*
X0227424Y0053133D01*
X0227424Y0053731D02*
X0236238Y0053731D01*
X0236238Y0054330D02*
X0227424Y0054330D01*
X0227424Y0054928D02*
X0236238Y0054928D01*
X0236238Y0055527D02*
X0227424Y0055527D01*
X0227424Y0056125D02*
X0236238Y0056125D01*
X0236238Y0056724D02*
X0227424Y0056724D01*
X0227424Y0057322D02*
X0236238Y0057322D01*
X0236238Y0057921D02*
X0227424Y0057921D01*
X0227424Y0058519D02*
X0236238Y0058519D01*
X0236238Y0059118D02*
X0227424Y0059118D01*
X0227424Y0059716D02*
X0236238Y0059716D01*
X0236238Y0060315D02*
X0227424Y0060315D01*
X0227424Y0060913D02*
X0236238Y0060913D01*
X0236238Y0061512D02*
X0227424Y0061512D01*
X0227424Y0062110D02*
X0229050Y0062110D01*
X0227909Y0062709D02*
X0227424Y0062709D01*
X0231617Y0062110D02*
X0236238Y0062110D01*
X0236238Y0062709D02*
X0232758Y0062709D01*
X0233356Y0063307D02*
X0236238Y0063307D01*
X0236238Y0063906D02*
X0233770Y0063906D01*
X0234018Y0064504D02*
X0236238Y0064504D01*
X0223824Y0064504D02*
X0221738Y0064504D01*
X0221829Y0064787D02*
X0221935Y0065455D01*
X0221935Y0065569D01*
X0217940Y0065499D01*
X0218010Y0061500D01*
X0218642Y0061600D01*
X0219286Y0061809D01*
X0219889Y0062116D01*
X0220436Y0062514D01*
X0220915Y0062993D01*
X0221313Y0063540D01*
X0221620Y0064143D01*
X0221829Y0064787D01*
X0221879Y0065103D02*
X0223824Y0065103D01*
X0223824Y0065701D02*
X0217937Y0065701D01*
X0217940Y0065499D02*
X0217930Y0066099D01*
X0221929Y0066169D01*
X0221829Y0066801D01*
X0221620Y0067445D01*
X0221313Y0068048D01*
X0220915Y0068595D01*
X0220436Y0069074D01*
X0219889Y0069472D01*
X0219286Y0069779D01*
X0218642Y0069988D01*
X0217974Y0070094D01*
X0217860Y0070094D01*
X0217930Y0066099D01*
X0217330Y0066089D01*
X0217260Y0070088D01*
X0216628Y0069988D01*
X0215985Y0069779D01*
X0215382Y0069472D01*
X0214834Y0069074D01*
X0214355Y0068595D01*
X0213958Y0068048D01*
X0213650Y0067445D01*
X0213441Y0066801D01*
X0213335Y0066132D01*
X0213335Y0066019D01*
X0217330Y0066089D01*
X0217340Y0065489D01*
X0213341Y0065419D01*
X0213441Y0064787D01*
X0213650Y0064143D01*
X0213958Y0063540D01*
X0214355Y0062993D01*
X0214834Y0062514D01*
X0215382Y0062116D01*
X0215985Y0061809D01*
X0216628Y0061600D01*
X0217297Y0061494D01*
X0217410Y0061494D01*
X0217341Y0065489D01*
X0217940Y0065499D01*
X0217947Y0065103D02*
X0217347Y0065103D01*
X0217337Y0065701D02*
X0210705Y0065701D01*
X0210433Y0065103D02*
X0213391Y0065103D01*
X0213533Y0064504D02*
X0210433Y0064504D01*
X0210429Y0063906D02*
X0213771Y0063906D01*
X0214127Y0063307D02*
X0210429Y0063307D01*
X0210429Y0062709D02*
X0214639Y0062709D01*
X0215393Y0062110D02*
X0210429Y0062110D01*
X0210429Y0061512D02*
X0217183Y0061512D01*
X0217410Y0061512D02*
X0218010Y0061512D01*
X0218087Y0061512D02*
X0223824Y0061512D01*
X0223824Y0062110D02*
X0219878Y0062110D01*
X0220631Y0062709D02*
X0223824Y0062709D01*
X0223824Y0063307D02*
X0221144Y0063307D01*
X0221499Y0063906D02*
X0223824Y0063906D01*
X0223824Y0066300D02*
X0221909Y0066300D01*
X0221798Y0066899D02*
X0223824Y0066899D01*
X0223824Y0067497D02*
X0221593Y0067497D01*
X0221278Y0068096D02*
X0223824Y0068096D01*
X0223824Y0068694D02*
X0220816Y0068694D01*
X0220135Y0069293D02*
X0223824Y0069293D01*
X0223824Y0069891D02*
X0218940Y0069891D01*
X0217864Y0069891D02*
X0217264Y0069891D01*
X0217274Y0069293D02*
X0217874Y0069293D01*
X0217885Y0068694D02*
X0217285Y0068694D01*
X0217295Y0068096D02*
X0217895Y0068096D01*
X0217905Y0067497D02*
X0217305Y0067497D01*
X0217316Y0066899D02*
X0217916Y0066899D01*
X0217926Y0066300D02*
X0217326Y0066300D01*
X0217358Y0064504D02*
X0217958Y0064504D01*
X0217968Y0063906D02*
X0217368Y0063906D01*
X0217379Y0063307D02*
X0217979Y0063307D01*
X0217989Y0062709D02*
X0217389Y0062709D01*
X0217399Y0062110D02*
X0218000Y0062110D01*
X0220103Y0059716D02*
X0223824Y0059716D01*
X0223824Y0059118D02*
X0220851Y0059118D01*
X0221450Y0058519D02*
X0223824Y0058519D01*
X0223824Y0057921D02*
X0221800Y0057921D01*
X0222048Y0057322D02*
X0223824Y0057322D01*
X0223824Y0056724D02*
X0222296Y0056724D01*
X0222310Y0056125D02*
X0223824Y0056125D01*
X0223824Y0055527D02*
X0222310Y0055527D01*
X0222310Y0054928D02*
X0223824Y0054928D01*
X0223824Y0054330D02*
X0222073Y0054330D01*
X0221826Y0053731D02*
X0223824Y0053731D01*
X0223824Y0053133D02*
X0221511Y0053133D01*
X0220913Y0052534D02*
X0223824Y0052534D01*
X0223824Y0051936D02*
X0220251Y0051936D01*
X0215369Y0051936D02*
X0210429Y0051936D01*
X0210429Y0052534D02*
X0214707Y0052534D01*
X0214108Y0053133D02*
X0210429Y0053133D01*
X0210429Y0053731D02*
X0213794Y0053731D01*
X0213546Y0054330D02*
X0210429Y0054330D01*
X0210429Y0054928D02*
X0213310Y0054928D01*
X0213310Y0055527D02*
X0210429Y0055527D01*
X0210429Y0056125D02*
X0213310Y0056125D01*
X0213324Y0056724D02*
X0210429Y0056724D01*
X0210429Y0057322D02*
X0213571Y0057322D01*
X0213819Y0057921D02*
X0210429Y0057921D01*
X0210429Y0058519D02*
X0214170Y0058519D01*
X0214768Y0059118D02*
X0210429Y0059118D01*
X0210429Y0059716D02*
X0215517Y0059716D01*
X0213362Y0066300D02*
X0211303Y0066300D01*
X0211902Y0066899D02*
X0213473Y0066899D01*
X0213677Y0067497D02*
X0212500Y0067497D01*
X0213099Y0068096D02*
X0213992Y0068096D01*
X0213697Y0068694D02*
X0214454Y0068694D01*
X0214296Y0069293D02*
X0215135Y0069293D01*
X0214894Y0069891D02*
X0216330Y0069891D01*
X0215493Y0070490D02*
X0223824Y0070490D01*
X0223824Y0071088D02*
X0216091Y0071088D01*
X0216690Y0071687D02*
X0223824Y0071687D01*
X0223824Y0072285D02*
X0217288Y0072285D01*
X0217887Y0072884D02*
X0223824Y0072884D01*
X0223824Y0073482D02*
X0218485Y0073482D01*
X0223824Y0060913D02*
X0210429Y0060913D01*
X0210429Y0060315D02*
X0223824Y0060315D01*
X0222477Y0037571D02*
X0236238Y0037571D01*
X0236238Y0036973D02*
X0222543Y0036973D01*
X0222659Y0036374D02*
X0236238Y0036374D01*
X0236238Y0035776D02*
X0222903Y0035776D01*
X0223501Y0035177D02*
X0236238Y0035177D01*
X0236238Y0034579D02*
X0224100Y0034579D01*
X0224698Y0033980D02*
X0236238Y0033980D01*
X0236238Y0033382D02*
X0225297Y0033382D01*
X0225896Y0032783D02*
X0236238Y0032783D01*
X0236238Y0032185D02*
X0226494Y0032185D01*
X0227093Y0031586D02*
X0236238Y0031586D01*
X0236238Y0030988D02*
X0227691Y0030988D01*
X0228290Y0030389D02*
X0236238Y0030389D01*
X0236238Y0029791D02*
X0228888Y0029791D01*
X0223198Y0030389D02*
X0210429Y0030389D01*
X0210429Y0029791D02*
X0216209Y0029791D01*
X0215362Y0029192D02*
X0210429Y0029192D01*
X0210429Y0028594D02*
X0214763Y0028594D01*
X0214372Y0027995D02*
X0210429Y0027995D01*
X0210429Y0027397D02*
X0214124Y0027397D01*
X0213876Y0026798D02*
X0210429Y0026798D01*
X0210429Y0026200D02*
X0213833Y0026200D01*
X0213833Y0025601D02*
X0210429Y0025601D01*
X0210429Y0025003D02*
X0213833Y0025003D01*
X0214041Y0024404D02*
X0210429Y0024404D01*
X0210429Y0023806D02*
X0214289Y0023806D01*
X0214562Y0023207D02*
X0210429Y0023207D01*
X0210429Y0022609D02*
X0215161Y0022609D01*
X0215759Y0022010D02*
X0210433Y0022010D01*
X0210433Y0021412D02*
X0217169Y0021412D01*
X0216833Y0012800D02*
X0216628Y0012802D01*
X0216422Y0012810D01*
X0216217Y0012822D01*
X0216013Y0012840D01*
X0215808Y0012862D01*
X0215605Y0012889D01*
X0215402Y0012921D01*
X0215200Y0012958D01*
X0214999Y0013000D01*
X0214799Y0013047D01*
X0214600Y0013099D01*
X0214402Y0013155D01*
X0214206Y0013216D01*
X0214012Y0013282D01*
X0213819Y0013352D01*
X0213628Y0013428D01*
X0213438Y0013507D01*
X0213251Y0013592D01*
X0213066Y0013680D01*
X0212883Y0013774D01*
X0212702Y0013871D01*
X0212524Y0013973D01*
X0212348Y0014080D01*
X0212175Y0014190D01*
X0212004Y0014305D01*
X0211837Y0014423D01*
X0211672Y0014546D01*
X0211510Y0014673D01*
X0211352Y0014803D01*
X0211196Y0014938D01*
X0211044Y0015076D01*
X0210896Y0015217D01*
X0210750Y0015363D01*
X0210609Y0015511D01*
X0210471Y0015663D01*
X0210336Y0015819D01*
X0210206Y0015977D01*
X0210079Y0016139D01*
X0209956Y0016304D01*
X0209838Y0016471D01*
X0209723Y0016642D01*
X0209613Y0016815D01*
X0209506Y0016991D01*
X0209404Y0017169D01*
X0209307Y0017350D01*
X0209213Y0017533D01*
X0209125Y0017718D01*
X0209040Y0017905D01*
X0208961Y0018095D01*
X0208885Y0018286D01*
X0208815Y0018479D01*
X0208749Y0018673D01*
X0208688Y0018869D01*
X0208632Y0019067D01*
X0208580Y0019266D01*
X0208533Y0019466D01*
X0208491Y0019667D01*
X0208454Y0019869D01*
X0208422Y0020072D01*
X0208395Y0020275D01*
X0208373Y0020480D01*
X0208355Y0020684D01*
X0208343Y0020889D01*
X0208335Y0021095D01*
X0208333Y0021300D01*
X0210472Y0020813D02*
X0236195Y0020813D01*
X0236127Y0020215D02*
X0210539Y0020215D01*
X0210734Y0019616D02*
X0235933Y0019616D01*
X0235738Y0019018D02*
X0210928Y0019018D01*
X0211123Y0018419D02*
X0235544Y0018419D01*
X0235119Y0017821D02*
X0211548Y0017821D01*
X0211983Y0017222D02*
X0234684Y0017222D01*
X0234151Y0016624D02*
X0212516Y0016624D01*
X0213339Y0016025D02*
X0233327Y0016025D01*
X0232213Y0015427D02*
X0214454Y0015427D01*
X0216833Y0012800D02*
X0218833Y0012800D01*
D11*
X0208333Y0021300D02*
X0208333Y0066300D01*
X0238333Y0066300D02*
X0238333Y0021300D01*
X0225333Y0012800D02*
X0218833Y0012800D01*
D12*
X0218333Y0025800D03*
X0218159Y0035798D03*
X0217984Y0045797D03*
X0217810Y0055795D03*
X0217635Y0065794D03*
D13*
X0230333Y0065800D03*
X0230333Y0025800D03*
D14*
X0223833Y0343800D03*
D15*
X0221283Y0342150D03*
X0223283Y0359200D03*
M02*
