G75*
%MOIN*%
%OFA0B0*%
%FSLAX25Y25*%
%IPPOS*%
%LPD*%
%AMOC8*
5,1,8,0,0,1.08239X$1,22.5*
%
%ADD10C,0.00000*%
%ADD11C,0.00600*%
%ADD12C,0.07400*%
%ADD13R,0.04331X0.03937*%
%ADD14C,0.06496*%
%ADD15C,0.01000*%
%ADD16C,0.02378*%
%ADD17C,0.02000*%
D10*
X0438333Y0038933D02*
X0438335Y0039074D01*
X0438341Y0039215D01*
X0438351Y0039355D01*
X0438365Y0039495D01*
X0438383Y0039635D01*
X0438404Y0039774D01*
X0438430Y0039913D01*
X0438459Y0040051D01*
X0438493Y0040187D01*
X0438530Y0040323D01*
X0438571Y0040458D01*
X0438616Y0040592D01*
X0438665Y0040724D01*
X0438717Y0040855D01*
X0438773Y0040984D01*
X0438833Y0041111D01*
X0438896Y0041237D01*
X0438962Y0041361D01*
X0439033Y0041484D01*
X0439106Y0041604D01*
X0439183Y0041722D01*
X0439263Y0041838D01*
X0439347Y0041951D01*
X0439433Y0042062D01*
X0439523Y0042171D01*
X0439616Y0042277D01*
X0439711Y0042380D01*
X0439810Y0042481D01*
X0439911Y0042579D01*
X0440015Y0042674D01*
X0440122Y0042766D01*
X0440231Y0042855D01*
X0440343Y0042940D01*
X0440457Y0043023D01*
X0440573Y0043103D01*
X0440692Y0043179D01*
X0440813Y0043251D01*
X0440935Y0043321D01*
X0441060Y0043386D01*
X0441186Y0043449D01*
X0441314Y0043507D01*
X0441444Y0043562D01*
X0441575Y0043614D01*
X0441708Y0043661D01*
X0441842Y0043705D01*
X0441977Y0043746D01*
X0442113Y0043782D01*
X0442250Y0043814D01*
X0442388Y0043843D01*
X0442526Y0043868D01*
X0442666Y0043888D01*
X0442806Y0043905D01*
X0442946Y0043918D01*
X0443087Y0043927D01*
X0443227Y0043932D01*
X0443368Y0043933D01*
X0443509Y0043930D01*
X0443650Y0043923D01*
X0443790Y0043912D01*
X0443930Y0043897D01*
X0444070Y0043878D01*
X0444209Y0043856D01*
X0444347Y0043829D01*
X0444485Y0043799D01*
X0444621Y0043764D01*
X0444757Y0043726D01*
X0444891Y0043684D01*
X0445025Y0043638D01*
X0445157Y0043589D01*
X0445287Y0043535D01*
X0445416Y0043478D01*
X0445543Y0043418D01*
X0445669Y0043354D01*
X0445792Y0043286D01*
X0445914Y0043215D01*
X0446034Y0043141D01*
X0446151Y0043063D01*
X0446266Y0042982D01*
X0446379Y0042898D01*
X0446490Y0042811D01*
X0446598Y0042720D01*
X0446703Y0042627D01*
X0446806Y0042530D01*
X0446906Y0042431D01*
X0447003Y0042329D01*
X0447097Y0042224D01*
X0447188Y0042117D01*
X0447276Y0042007D01*
X0447361Y0041895D01*
X0447443Y0041780D01*
X0447522Y0041663D01*
X0447597Y0041544D01*
X0447669Y0041423D01*
X0447737Y0041300D01*
X0447802Y0041175D01*
X0447864Y0041048D01*
X0447921Y0040919D01*
X0447976Y0040789D01*
X0448026Y0040658D01*
X0448073Y0040525D01*
X0448116Y0040391D01*
X0448155Y0040255D01*
X0448190Y0040119D01*
X0448222Y0039982D01*
X0448249Y0039844D01*
X0448273Y0039705D01*
X0448293Y0039565D01*
X0448309Y0039425D01*
X0448321Y0039285D01*
X0448329Y0039144D01*
X0448333Y0039003D01*
X0448333Y0038863D01*
X0448329Y0038722D01*
X0448321Y0038581D01*
X0448309Y0038441D01*
X0448293Y0038301D01*
X0448273Y0038161D01*
X0448249Y0038022D01*
X0448222Y0037884D01*
X0448190Y0037747D01*
X0448155Y0037611D01*
X0448116Y0037475D01*
X0448073Y0037341D01*
X0448026Y0037208D01*
X0447976Y0037077D01*
X0447921Y0036947D01*
X0447864Y0036818D01*
X0447802Y0036691D01*
X0447737Y0036566D01*
X0447669Y0036443D01*
X0447597Y0036322D01*
X0447522Y0036203D01*
X0447443Y0036086D01*
X0447361Y0035971D01*
X0447276Y0035859D01*
X0447188Y0035749D01*
X0447097Y0035642D01*
X0447003Y0035537D01*
X0446906Y0035435D01*
X0446806Y0035336D01*
X0446703Y0035239D01*
X0446598Y0035146D01*
X0446490Y0035055D01*
X0446379Y0034968D01*
X0446266Y0034884D01*
X0446151Y0034803D01*
X0446034Y0034725D01*
X0445914Y0034651D01*
X0445792Y0034580D01*
X0445669Y0034512D01*
X0445543Y0034448D01*
X0445416Y0034388D01*
X0445287Y0034331D01*
X0445157Y0034277D01*
X0445025Y0034228D01*
X0444891Y0034182D01*
X0444757Y0034140D01*
X0444621Y0034102D01*
X0444485Y0034067D01*
X0444347Y0034037D01*
X0444209Y0034010D01*
X0444070Y0033988D01*
X0443930Y0033969D01*
X0443790Y0033954D01*
X0443650Y0033943D01*
X0443509Y0033936D01*
X0443368Y0033933D01*
X0443227Y0033934D01*
X0443087Y0033939D01*
X0442946Y0033948D01*
X0442806Y0033961D01*
X0442666Y0033978D01*
X0442526Y0033998D01*
X0442388Y0034023D01*
X0442250Y0034052D01*
X0442113Y0034084D01*
X0441977Y0034120D01*
X0441842Y0034161D01*
X0441708Y0034205D01*
X0441575Y0034252D01*
X0441444Y0034304D01*
X0441314Y0034359D01*
X0441186Y0034417D01*
X0441060Y0034480D01*
X0440935Y0034545D01*
X0440813Y0034615D01*
X0440692Y0034687D01*
X0440573Y0034763D01*
X0440457Y0034843D01*
X0440343Y0034926D01*
X0440231Y0035011D01*
X0440122Y0035100D01*
X0440015Y0035192D01*
X0439911Y0035287D01*
X0439810Y0035385D01*
X0439711Y0035486D01*
X0439616Y0035589D01*
X0439523Y0035695D01*
X0439433Y0035804D01*
X0439347Y0035915D01*
X0439263Y0036028D01*
X0439183Y0036144D01*
X0439106Y0036262D01*
X0439033Y0036382D01*
X0438962Y0036505D01*
X0438896Y0036629D01*
X0438833Y0036755D01*
X0438773Y0036882D01*
X0438717Y0037011D01*
X0438665Y0037142D01*
X0438616Y0037274D01*
X0438571Y0037408D01*
X0438530Y0037543D01*
X0438493Y0037679D01*
X0438459Y0037815D01*
X0438430Y0037953D01*
X0438404Y0038092D01*
X0438383Y0038231D01*
X0438365Y0038371D01*
X0438351Y0038511D01*
X0438341Y0038651D01*
X0438335Y0038792D01*
X0438333Y0038933D01*
X0618333Y0038933D02*
X0618335Y0039074D01*
X0618341Y0039215D01*
X0618351Y0039355D01*
X0618365Y0039495D01*
X0618383Y0039635D01*
X0618404Y0039774D01*
X0618430Y0039913D01*
X0618459Y0040051D01*
X0618493Y0040187D01*
X0618530Y0040323D01*
X0618571Y0040458D01*
X0618616Y0040592D01*
X0618665Y0040724D01*
X0618717Y0040855D01*
X0618773Y0040984D01*
X0618833Y0041111D01*
X0618896Y0041237D01*
X0618962Y0041361D01*
X0619033Y0041484D01*
X0619106Y0041604D01*
X0619183Y0041722D01*
X0619263Y0041838D01*
X0619347Y0041951D01*
X0619433Y0042062D01*
X0619523Y0042171D01*
X0619616Y0042277D01*
X0619711Y0042380D01*
X0619810Y0042481D01*
X0619911Y0042579D01*
X0620015Y0042674D01*
X0620122Y0042766D01*
X0620231Y0042855D01*
X0620343Y0042940D01*
X0620457Y0043023D01*
X0620573Y0043103D01*
X0620692Y0043179D01*
X0620813Y0043251D01*
X0620935Y0043321D01*
X0621060Y0043386D01*
X0621186Y0043449D01*
X0621314Y0043507D01*
X0621444Y0043562D01*
X0621575Y0043614D01*
X0621708Y0043661D01*
X0621842Y0043705D01*
X0621977Y0043746D01*
X0622113Y0043782D01*
X0622250Y0043814D01*
X0622388Y0043843D01*
X0622526Y0043868D01*
X0622666Y0043888D01*
X0622806Y0043905D01*
X0622946Y0043918D01*
X0623087Y0043927D01*
X0623227Y0043932D01*
X0623368Y0043933D01*
X0623509Y0043930D01*
X0623650Y0043923D01*
X0623790Y0043912D01*
X0623930Y0043897D01*
X0624070Y0043878D01*
X0624209Y0043856D01*
X0624347Y0043829D01*
X0624485Y0043799D01*
X0624621Y0043764D01*
X0624757Y0043726D01*
X0624891Y0043684D01*
X0625025Y0043638D01*
X0625157Y0043589D01*
X0625287Y0043535D01*
X0625416Y0043478D01*
X0625543Y0043418D01*
X0625669Y0043354D01*
X0625792Y0043286D01*
X0625914Y0043215D01*
X0626034Y0043141D01*
X0626151Y0043063D01*
X0626266Y0042982D01*
X0626379Y0042898D01*
X0626490Y0042811D01*
X0626598Y0042720D01*
X0626703Y0042627D01*
X0626806Y0042530D01*
X0626906Y0042431D01*
X0627003Y0042329D01*
X0627097Y0042224D01*
X0627188Y0042117D01*
X0627276Y0042007D01*
X0627361Y0041895D01*
X0627443Y0041780D01*
X0627522Y0041663D01*
X0627597Y0041544D01*
X0627669Y0041423D01*
X0627737Y0041300D01*
X0627802Y0041175D01*
X0627864Y0041048D01*
X0627921Y0040919D01*
X0627976Y0040789D01*
X0628026Y0040658D01*
X0628073Y0040525D01*
X0628116Y0040391D01*
X0628155Y0040255D01*
X0628190Y0040119D01*
X0628222Y0039982D01*
X0628249Y0039844D01*
X0628273Y0039705D01*
X0628293Y0039565D01*
X0628309Y0039425D01*
X0628321Y0039285D01*
X0628329Y0039144D01*
X0628333Y0039003D01*
X0628333Y0038863D01*
X0628329Y0038722D01*
X0628321Y0038581D01*
X0628309Y0038441D01*
X0628293Y0038301D01*
X0628273Y0038161D01*
X0628249Y0038022D01*
X0628222Y0037884D01*
X0628190Y0037747D01*
X0628155Y0037611D01*
X0628116Y0037475D01*
X0628073Y0037341D01*
X0628026Y0037208D01*
X0627976Y0037077D01*
X0627921Y0036947D01*
X0627864Y0036818D01*
X0627802Y0036691D01*
X0627737Y0036566D01*
X0627669Y0036443D01*
X0627597Y0036322D01*
X0627522Y0036203D01*
X0627443Y0036086D01*
X0627361Y0035971D01*
X0627276Y0035859D01*
X0627188Y0035749D01*
X0627097Y0035642D01*
X0627003Y0035537D01*
X0626906Y0035435D01*
X0626806Y0035336D01*
X0626703Y0035239D01*
X0626598Y0035146D01*
X0626490Y0035055D01*
X0626379Y0034968D01*
X0626266Y0034884D01*
X0626151Y0034803D01*
X0626034Y0034725D01*
X0625914Y0034651D01*
X0625792Y0034580D01*
X0625669Y0034512D01*
X0625543Y0034448D01*
X0625416Y0034388D01*
X0625287Y0034331D01*
X0625157Y0034277D01*
X0625025Y0034228D01*
X0624891Y0034182D01*
X0624757Y0034140D01*
X0624621Y0034102D01*
X0624485Y0034067D01*
X0624347Y0034037D01*
X0624209Y0034010D01*
X0624070Y0033988D01*
X0623930Y0033969D01*
X0623790Y0033954D01*
X0623650Y0033943D01*
X0623509Y0033936D01*
X0623368Y0033933D01*
X0623227Y0033934D01*
X0623087Y0033939D01*
X0622946Y0033948D01*
X0622806Y0033961D01*
X0622666Y0033978D01*
X0622526Y0033998D01*
X0622388Y0034023D01*
X0622250Y0034052D01*
X0622113Y0034084D01*
X0621977Y0034120D01*
X0621842Y0034161D01*
X0621708Y0034205D01*
X0621575Y0034252D01*
X0621444Y0034304D01*
X0621314Y0034359D01*
X0621186Y0034417D01*
X0621060Y0034480D01*
X0620935Y0034545D01*
X0620813Y0034615D01*
X0620692Y0034687D01*
X0620573Y0034763D01*
X0620457Y0034843D01*
X0620343Y0034926D01*
X0620231Y0035011D01*
X0620122Y0035100D01*
X0620015Y0035192D01*
X0619911Y0035287D01*
X0619810Y0035385D01*
X0619711Y0035486D01*
X0619616Y0035589D01*
X0619523Y0035695D01*
X0619433Y0035804D01*
X0619347Y0035915D01*
X0619263Y0036028D01*
X0619183Y0036144D01*
X0619106Y0036262D01*
X0619033Y0036382D01*
X0618962Y0036505D01*
X0618896Y0036629D01*
X0618833Y0036755D01*
X0618773Y0036882D01*
X0618717Y0037011D01*
X0618665Y0037142D01*
X0618616Y0037274D01*
X0618571Y0037408D01*
X0618530Y0037543D01*
X0618493Y0037679D01*
X0618459Y0037815D01*
X0618430Y0037953D01*
X0618404Y0038092D01*
X0618383Y0038231D01*
X0618365Y0038371D01*
X0618351Y0038511D01*
X0618341Y0038651D01*
X0618335Y0038792D01*
X0618333Y0038933D01*
X0663845Y0054248D02*
X0663847Y0054345D01*
X0663853Y0054442D01*
X0663863Y0054538D01*
X0663877Y0054634D01*
X0663895Y0054730D01*
X0663916Y0054824D01*
X0663942Y0054918D01*
X0663971Y0055010D01*
X0664005Y0055101D01*
X0664041Y0055191D01*
X0664082Y0055279D01*
X0664126Y0055365D01*
X0664174Y0055450D01*
X0664225Y0055532D01*
X0664279Y0055613D01*
X0664337Y0055691D01*
X0664398Y0055766D01*
X0664461Y0055839D01*
X0664528Y0055910D01*
X0664598Y0055977D01*
X0664670Y0056042D01*
X0664745Y0056103D01*
X0664823Y0056162D01*
X0664902Y0056217D01*
X0664984Y0056269D01*
X0665068Y0056317D01*
X0665154Y0056362D01*
X0665242Y0056404D01*
X0665331Y0056442D01*
X0665422Y0056476D01*
X0665514Y0056506D01*
X0665607Y0056533D01*
X0665702Y0056555D01*
X0665797Y0056574D01*
X0665893Y0056589D01*
X0665989Y0056600D01*
X0666086Y0056607D01*
X0666183Y0056610D01*
X0666280Y0056609D01*
X0666377Y0056604D01*
X0666473Y0056595D01*
X0666569Y0056582D01*
X0666665Y0056565D01*
X0666760Y0056544D01*
X0666853Y0056520D01*
X0666946Y0056491D01*
X0667038Y0056459D01*
X0667128Y0056423D01*
X0667216Y0056384D01*
X0667303Y0056340D01*
X0667388Y0056294D01*
X0667471Y0056243D01*
X0667552Y0056190D01*
X0667630Y0056133D01*
X0667707Y0056073D01*
X0667780Y0056010D01*
X0667851Y0055944D01*
X0667919Y0055875D01*
X0667985Y0055803D01*
X0668047Y0055729D01*
X0668106Y0055652D01*
X0668162Y0055573D01*
X0668215Y0055491D01*
X0668265Y0055408D01*
X0668310Y0055322D01*
X0668353Y0055235D01*
X0668392Y0055146D01*
X0668427Y0055056D01*
X0668458Y0054964D01*
X0668485Y0054871D01*
X0668509Y0054777D01*
X0668529Y0054682D01*
X0668545Y0054586D01*
X0668557Y0054490D01*
X0668565Y0054393D01*
X0668569Y0054296D01*
X0668569Y0054200D01*
X0668565Y0054103D01*
X0668557Y0054006D01*
X0668545Y0053910D01*
X0668529Y0053814D01*
X0668509Y0053719D01*
X0668485Y0053625D01*
X0668458Y0053532D01*
X0668427Y0053440D01*
X0668392Y0053350D01*
X0668353Y0053261D01*
X0668310Y0053174D01*
X0668265Y0053088D01*
X0668215Y0053005D01*
X0668162Y0052923D01*
X0668106Y0052844D01*
X0668047Y0052767D01*
X0667985Y0052693D01*
X0667919Y0052621D01*
X0667851Y0052552D01*
X0667780Y0052486D01*
X0667707Y0052423D01*
X0667630Y0052363D01*
X0667552Y0052306D01*
X0667471Y0052253D01*
X0667388Y0052202D01*
X0667303Y0052156D01*
X0667216Y0052112D01*
X0667128Y0052073D01*
X0667038Y0052037D01*
X0666946Y0052005D01*
X0666853Y0051976D01*
X0666760Y0051952D01*
X0666665Y0051931D01*
X0666569Y0051914D01*
X0666473Y0051901D01*
X0666377Y0051892D01*
X0666280Y0051887D01*
X0666183Y0051886D01*
X0666086Y0051889D01*
X0665989Y0051896D01*
X0665893Y0051907D01*
X0665797Y0051922D01*
X0665702Y0051941D01*
X0665607Y0051963D01*
X0665514Y0051990D01*
X0665422Y0052020D01*
X0665331Y0052054D01*
X0665242Y0052092D01*
X0665154Y0052134D01*
X0665068Y0052179D01*
X0664984Y0052227D01*
X0664902Y0052279D01*
X0664823Y0052334D01*
X0664745Y0052393D01*
X0664670Y0052454D01*
X0664598Y0052519D01*
X0664528Y0052586D01*
X0664461Y0052657D01*
X0664398Y0052730D01*
X0664337Y0052805D01*
X0664279Y0052883D01*
X0664225Y0052964D01*
X0664174Y0053046D01*
X0664126Y0053131D01*
X0664082Y0053217D01*
X0664041Y0053305D01*
X0664005Y0053395D01*
X0663971Y0053486D01*
X0663942Y0053578D01*
X0663916Y0053672D01*
X0663895Y0053766D01*
X0663877Y0053862D01*
X0663863Y0053958D01*
X0663853Y0054054D01*
X0663847Y0054151D01*
X0663845Y0054248D01*
X0673688Y0054248D02*
X0673690Y0054345D01*
X0673696Y0054442D01*
X0673706Y0054538D01*
X0673720Y0054634D01*
X0673738Y0054730D01*
X0673759Y0054824D01*
X0673785Y0054918D01*
X0673814Y0055010D01*
X0673848Y0055101D01*
X0673884Y0055191D01*
X0673925Y0055279D01*
X0673969Y0055365D01*
X0674017Y0055450D01*
X0674068Y0055532D01*
X0674122Y0055613D01*
X0674180Y0055691D01*
X0674241Y0055766D01*
X0674304Y0055839D01*
X0674371Y0055910D01*
X0674441Y0055977D01*
X0674513Y0056042D01*
X0674588Y0056103D01*
X0674666Y0056162D01*
X0674745Y0056217D01*
X0674827Y0056269D01*
X0674911Y0056317D01*
X0674997Y0056362D01*
X0675085Y0056404D01*
X0675174Y0056442D01*
X0675265Y0056476D01*
X0675357Y0056506D01*
X0675450Y0056533D01*
X0675545Y0056555D01*
X0675640Y0056574D01*
X0675736Y0056589D01*
X0675832Y0056600D01*
X0675929Y0056607D01*
X0676026Y0056610D01*
X0676123Y0056609D01*
X0676220Y0056604D01*
X0676316Y0056595D01*
X0676412Y0056582D01*
X0676508Y0056565D01*
X0676603Y0056544D01*
X0676696Y0056520D01*
X0676789Y0056491D01*
X0676881Y0056459D01*
X0676971Y0056423D01*
X0677059Y0056384D01*
X0677146Y0056340D01*
X0677231Y0056294D01*
X0677314Y0056243D01*
X0677395Y0056190D01*
X0677473Y0056133D01*
X0677550Y0056073D01*
X0677623Y0056010D01*
X0677694Y0055944D01*
X0677762Y0055875D01*
X0677828Y0055803D01*
X0677890Y0055729D01*
X0677949Y0055652D01*
X0678005Y0055573D01*
X0678058Y0055491D01*
X0678108Y0055408D01*
X0678153Y0055322D01*
X0678196Y0055235D01*
X0678235Y0055146D01*
X0678270Y0055056D01*
X0678301Y0054964D01*
X0678328Y0054871D01*
X0678352Y0054777D01*
X0678372Y0054682D01*
X0678388Y0054586D01*
X0678400Y0054490D01*
X0678408Y0054393D01*
X0678412Y0054296D01*
X0678412Y0054200D01*
X0678408Y0054103D01*
X0678400Y0054006D01*
X0678388Y0053910D01*
X0678372Y0053814D01*
X0678352Y0053719D01*
X0678328Y0053625D01*
X0678301Y0053532D01*
X0678270Y0053440D01*
X0678235Y0053350D01*
X0678196Y0053261D01*
X0678153Y0053174D01*
X0678108Y0053088D01*
X0678058Y0053005D01*
X0678005Y0052923D01*
X0677949Y0052844D01*
X0677890Y0052767D01*
X0677828Y0052693D01*
X0677762Y0052621D01*
X0677694Y0052552D01*
X0677623Y0052486D01*
X0677550Y0052423D01*
X0677473Y0052363D01*
X0677395Y0052306D01*
X0677314Y0052253D01*
X0677231Y0052202D01*
X0677146Y0052156D01*
X0677059Y0052112D01*
X0676971Y0052073D01*
X0676881Y0052037D01*
X0676789Y0052005D01*
X0676696Y0051976D01*
X0676603Y0051952D01*
X0676508Y0051931D01*
X0676412Y0051914D01*
X0676316Y0051901D01*
X0676220Y0051892D01*
X0676123Y0051887D01*
X0676026Y0051886D01*
X0675929Y0051889D01*
X0675832Y0051896D01*
X0675736Y0051907D01*
X0675640Y0051922D01*
X0675545Y0051941D01*
X0675450Y0051963D01*
X0675357Y0051990D01*
X0675265Y0052020D01*
X0675174Y0052054D01*
X0675085Y0052092D01*
X0674997Y0052134D01*
X0674911Y0052179D01*
X0674827Y0052227D01*
X0674745Y0052279D01*
X0674666Y0052334D01*
X0674588Y0052393D01*
X0674513Y0052454D01*
X0674441Y0052519D01*
X0674371Y0052586D01*
X0674304Y0052657D01*
X0674241Y0052730D01*
X0674180Y0052805D01*
X0674122Y0052883D01*
X0674068Y0052964D01*
X0674017Y0053046D01*
X0673969Y0053131D01*
X0673925Y0053217D01*
X0673884Y0053305D01*
X0673848Y0053395D01*
X0673814Y0053486D01*
X0673785Y0053578D01*
X0673759Y0053672D01*
X0673738Y0053766D01*
X0673720Y0053862D01*
X0673706Y0053958D01*
X0673696Y0054054D01*
X0673690Y0054151D01*
X0673688Y0054248D01*
X0644160Y0073933D02*
X0644162Y0074030D01*
X0644168Y0074127D01*
X0644178Y0074223D01*
X0644192Y0074319D01*
X0644210Y0074415D01*
X0644231Y0074509D01*
X0644257Y0074603D01*
X0644286Y0074695D01*
X0644320Y0074786D01*
X0644356Y0074876D01*
X0644397Y0074964D01*
X0644441Y0075050D01*
X0644489Y0075135D01*
X0644540Y0075217D01*
X0644594Y0075298D01*
X0644652Y0075376D01*
X0644713Y0075451D01*
X0644776Y0075524D01*
X0644843Y0075595D01*
X0644913Y0075662D01*
X0644985Y0075727D01*
X0645060Y0075788D01*
X0645138Y0075847D01*
X0645217Y0075902D01*
X0645299Y0075954D01*
X0645383Y0076002D01*
X0645469Y0076047D01*
X0645557Y0076089D01*
X0645646Y0076127D01*
X0645737Y0076161D01*
X0645829Y0076191D01*
X0645922Y0076218D01*
X0646017Y0076240D01*
X0646112Y0076259D01*
X0646208Y0076274D01*
X0646304Y0076285D01*
X0646401Y0076292D01*
X0646498Y0076295D01*
X0646595Y0076294D01*
X0646692Y0076289D01*
X0646788Y0076280D01*
X0646884Y0076267D01*
X0646980Y0076250D01*
X0647075Y0076229D01*
X0647168Y0076205D01*
X0647261Y0076176D01*
X0647353Y0076144D01*
X0647443Y0076108D01*
X0647531Y0076069D01*
X0647618Y0076025D01*
X0647703Y0075979D01*
X0647786Y0075928D01*
X0647867Y0075875D01*
X0647945Y0075818D01*
X0648022Y0075758D01*
X0648095Y0075695D01*
X0648166Y0075629D01*
X0648234Y0075560D01*
X0648300Y0075488D01*
X0648362Y0075414D01*
X0648421Y0075337D01*
X0648477Y0075258D01*
X0648530Y0075176D01*
X0648580Y0075093D01*
X0648625Y0075007D01*
X0648668Y0074920D01*
X0648707Y0074831D01*
X0648742Y0074741D01*
X0648773Y0074649D01*
X0648800Y0074556D01*
X0648824Y0074462D01*
X0648844Y0074367D01*
X0648860Y0074271D01*
X0648872Y0074175D01*
X0648880Y0074078D01*
X0648884Y0073981D01*
X0648884Y0073885D01*
X0648880Y0073788D01*
X0648872Y0073691D01*
X0648860Y0073595D01*
X0648844Y0073499D01*
X0648824Y0073404D01*
X0648800Y0073310D01*
X0648773Y0073217D01*
X0648742Y0073125D01*
X0648707Y0073035D01*
X0648668Y0072946D01*
X0648625Y0072859D01*
X0648580Y0072773D01*
X0648530Y0072690D01*
X0648477Y0072608D01*
X0648421Y0072529D01*
X0648362Y0072452D01*
X0648300Y0072378D01*
X0648234Y0072306D01*
X0648166Y0072237D01*
X0648095Y0072171D01*
X0648022Y0072108D01*
X0647945Y0072048D01*
X0647867Y0071991D01*
X0647786Y0071938D01*
X0647703Y0071887D01*
X0647618Y0071841D01*
X0647531Y0071797D01*
X0647443Y0071758D01*
X0647353Y0071722D01*
X0647261Y0071690D01*
X0647168Y0071661D01*
X0647075Y0071637D01*
X0646980Y0071616D01*
X0646884Y0071599D01*
X0646788Y0071586D01*
X0646692Y0071577D01*
X0646595Y0071572D01*
X0646498Y0071571D01*
X0646401Y0071574D01*
X0646304Y0071581D01*
X0646208Y0071592D01*
X0646112Y0071607D01*
X0646017Y0071626D01*
X0645922Y0071648D01*
X0645829Y0071675D01*
X0645737Y0071705D01*
X0645646Y0071739D01*
X0645557Y0071777D01*
X0645469Y0071819D01*
X0645383Y0071864D01*
X0645299Y0071912D01*
X0645217Y0071964D01*
X0645138Y0072019D01*
X0645060Y0072078D01*
X0644985Y0072139D01*
X0644913Y0072204D01*
X0644843Y0072271D01*
X0644776Y0072342D01*
X0644713Y0072415D01*
X0644652Y0072490D01*
X0644594Y0072568D01*
X0644540Y0072649D01*
X0644489Y0072731D01*
X0644441Y0072816D01*
X0644397Y0072902D01*
X0644356Y0072990D01*
X0644320Y0073080D01*
X0644286Y0073171D01*
X0644257Y0073263D01*
X0644231Y0073357D01*
X0644210Y0073451D01*
X0644192Y0073547D01*
X0644178Y0073643D01*
X0644168Y0073739D01*
X0644162Y0073836D01*
X0644160Y0073933D01*
X0663845Y0093618D02*
X0663847Y0093715D01*
X0663853Y0093812D01*
X0663863Y0093908D01*
X0663877Y0094004D01*
X0663895Y0094100D01*
X0663916Y0094194D01*
X0663942Y0094288D01*
X0663971Y0094380D01*
X0664005Y0094471D01*
X0664041Y0094561D01*
X0664082Y0094649D01*
X0664126Y0094735D01*
X0664174Y0094820D01*
X0664225Y0094902D01*
X0664279Y0094983D01*
X0664337Y0095061D01*
X0664398Y0095136D01*
X0664461Y0095209D01*
X0664528Y0095280D01*
X0664598Y0095347D01*
X0664670Y0095412D01*
X0664745Y0095473D01*
X0664823Y0095532D01*
X0664902Y0095587D01*
X0664984Y0095639D01*
X0665068Y0095687D01*
X0665154Y0095732D01*
X0665242Y0095774D01*
X0665331Y0095812D01*
X0665422Y0095846D01*
X0665514Y0095876D01*
X0665607Y0095903D01*
X0665702Y0095925D01*
X0665797Y0095944D01*
X0665893Y0095959D01*
X0665989Y0095970D01*
X0666086Y0095977D01*
X0666183Y0095980D01*
X0666280Y0095979D01*
X0666377Y0095974D01*
X0666473Y0095965D01*
X0666569Y0095952D01*
X0666665Y0095935D01*
X0666760Y0095914D01*
X0666853Y0095890D01*
X0666946Y0095861D01*
X0667038Y0095829D01*
X0667128Y0095793D01*
X0667216Y0095754D01*
X0667303Y0095710D01*
X0667388Y0095664D01*
X0667471Y0095613D01*
X0667552Y0095560D01*
X0667630Y0095503D01*
X0667707Y0095443D01*
X0667780Y0095380D01*
X0667851Y0095314D01*
X0667919Y0095245D01*
X0667985Y0095173D01*
X0668047Y0095099D01*
X0668106Y0095022D01*
X0668162Y0094943D01*
X0668215Y0094861D01*
X0668265Y0094778D01*
X0668310Y0094692D01*
X0668353Y0094605D01*
X0668392Y0094516D01*
X0668427Y0094426D01*
X0668458Y0094334D01*
X0668485Y0094241D01*
X0668509Y0094147D01*
X0668529Y0094052D01*
X0668545Y0093956D01*
X0668557Y0093860D01*
X0668565Y0093763D01*
X0668569Y0093666D01*
X0668569Y0093570D01*
X0668565Y0093473D01*
X0668557Y0093376D01*
X0668545Y0093280D01*
X0668529Y0093184D01*
X0668509Y0093089D01*
X0668485Y0092995D01*
X0668458Y0092902D01*
X0668427Y0092810D01*
X0668392Y0092720D01*
X0668353Y0092631D01*
X0668310Y0092544D01*
X0668265Y0092458D01*
X0668215Y0092375D01*
X0668162Y0092293D01*
X0668106Y0092214D01*
X0668047Y0092137D01*
X0667985Y0092063D01*
X0667919Y0091991D01*
X0667851Y0091922D01*
X0667780Y0091856D01*
X0667707Y0091793D01*
X0667630Y0091733D01*
X0667552Y0091676D01*
X0667471Y0091623D01*
X0667388Y0091572D01*
X0667303Y0091526D01*
X0667216Y0091482D01*
X0667128Y0091443D01*
X0667038Y0091407D01*
X0666946Y0091375D01*
X0666853Y0091346D01*
X0666760Y0091322D01*
X0666665Y0091301D01*
X0666569Y0091284D01*
X0666473Y0091271D01*
X0666377Y0091262D01*
X0666280Y0091257D01*
X0666183Y0091256D01*
X0666086Y0091259D01*
X0665989Y0091266D01*
X0665893Y0091277D01*
X0665797Y0091292D01*
X0665702Y0091311D01*
X0665607Y0091333D01*
X0665514Y0091360D01*
X0665422Y0091390D01*
X0665331Y0091424D01*
X0665242Y0091462D01*
X0665154Y0091504D01*
X0665068Y0091549D01*
X0664984Y0091597D01*
X0664902Y0091649D01*
X0664823Y0091704D01*
X0664745Y0091763D01*
X0664670Y0091824D01*
X0664598Y0091889D01*
X0664528Y0091956D01*
X0664461Y0092027D01*
X0664398Y0092100D01*
X0664337Y0092175D01*
X0664279Y0092253D01*
X0664225Y0092334D01*
X0664174Y0092416D01*
X0664126Y0092501D01*
X0664082Y0092587D01*
X0664041Y0092675D01*
X0664005Y0092765D01*
X0663971Y0092856D01*
X0663942Y0092948D01*
X0663916Y0093042D01*
X0663895Y0093136D01*
X0663877Y0093232D01*
X0663863Y0093328D01*
X0663853Y0093424D01*
X0663847Y0093521D01*
X0663845Y0093618D01*
X0673688Y0093618D02*
X0673690Y0093715D01*
X0673696Y0093812D01*
X0673706Y0093908D01*
X0673720Y0094004D01*
X0673738Y0094100D01*
X0673759Y0094194D01*
X0673785Y0094288D01*
X0673814Y0094380D01*
X0673848Y0094471D01*
X0673884Y0094561D01*
X0673925Y0094649D01*
X0673969Y0094735D01*
X0674017Y0094820D01*
X0674068Y0094902D01*
X0674122Y0094983D01*
X0674180Y0095061D01*
X0674241Y0095136D01*
X0674304Y0095209D01*
X0674371Y0095280D01*
X0674441Y0095347D01*
X0674513Y0095412D01*
X0674588Y0095473D01*
X0674666Y0095532D01*
X0674745Y0095587D01*
X0674827Y0095639D01*
X0674911Y0095687D01*
X0674997Y0095732D01*
X0675085Y0095774D01*
X0675174Y0095812D01*
X0675265Y0095846D01*
X0675357Y0095876D01*
X0675450Y0095903D01*
X0675545Y0095925D01*
X0675640Y0095944D01*
X0675736Y0095959D01*
X0675832Y0095970D01*
X0675929Y0095977D01*
X0676026Y0095980D01*
X0676123Y0095979D01*
X0676220Y0095974D01*
X0676316Y0095965D01*
X0676412Y0095952D01*
X0676508Y0095935D01*
X0676603Y0095914D01*
X0676696Y0095890D01*
X0676789Y0095861D01*
X0676881Y0095829D01*
X0676971Y0095793D01*
X0677059Y0095754D01*
X0677146Y0095710D01*
X0677231Y0095664D01*
X0677314Y0095613D01*
X0677395Y0095560D01*
X0677473Y0095503D01*
X0677550Y0095443D01*
X0677623Y0095380D01*
X0677694Y0095314D01*
X0677762Y0095245D01*
X0677828Y0095173D01*
X0677890Y0095099D01*
X0677949Y0095022D01*
X0678005Y0094943D01*
X0678058Y0094861D01*
X0678108Y0094778D01*
X0678153Y0094692D01*
X0678196Y0094605D01*
X0678235Y0094516D01*
X0678270Y0094426D01*
X0678301Y0094334D01*
X0678328Y0094241D01*
X0678352Y0094147D01*
X0678372Y0094052D01*
X0678388Y0093956D01*
X0678400Y0093860D01*
X0678408Y0093763D01*
X0678412Y0093666D01*
X0678412Y0093570D01*
X0678408Y0093473D01*
X0678400Y0093376D01*
X0678388Y0093280D01*
X0678372Y0093184D01*
X0678352Y0093089D01*
X0678328Y0092995D01*
X0678301Y0092902D01*
X0678270Y0092810D01*
X0678235Y0092720D01*
X0678196Y0092631D01*
X0678153Y0092544D01*
X0678108Y0092458D01*
X0678058Y0092375D01*
X0678005Y0092293D01*
X0677949Y0092214D01*
X0677890Y0092137D01*
X0677828Y0092063D01*
X0677762Y0091991D01*
X0677694Y0091922D01*
X0677623Y0091856D01*
X0677550Y0091793D01*
X0677473Y0091733D01*
X0677395Y0091676D01*
X0677314Y0091623D01*
X0677231Y0091572D01*
X0677146Y0091526D01*
X0677059Y0091482D01*
X0676971Y0091443D01*
X0676881Y0091407D01*
X0676789Y0091375D01*
X0676696Y0091346D01*
X0676603Y0091322D01*
X0676508Y0091301D01*
X0676412Y0091284D01*
X0676316Y0091271D01*
X0676220Y0091262D01*
X0676123Y0091257D01*
X0676026Y0091256D01*
X0675929Y0091259D01*
X0675832Y0091266D01*
X0675736Y0091277D01*
X0675640Y0091292D01*
X0675545Y0091311D01*
X0675450Y0091333D01*
X0675357Y0091360D01*
X0675265Y0091390D01*
X0675174Y0091424D01*
X0675085Y0091462D01*
X0674997Y0091504D01*
X0674911Y0091549D01*
X0674827Y0091597D01*
X0674745Y0091649D01*
X0674666Y0091704D01*
X0674588Y0091763D01*
X0674513Y0091824D01*
X0674441Y0091889D01*
X0674371Y0091956D01*
X0674304Y0092027D01*
X0674241Y0092100D01*
X0674180Y0092175D01*
X0674122Y0092253D01*
X0674068Y0092334D01*
X0674017Y0092416D01*
X0673969Y0092501D01*
X0673925Y0092587D01*
X0673884Y0092675D01*
X0673848Y0092765D01*
X0673814Y0092856D01*
X0673785Y0092948D01*
X0673759Y0093042D01*
X0673738Y0093136D01*
X0673720Y0093232D01*
X0673706Y0093328D01*
X0673696Y0093424D01*
X0673690Y0093521D01*
X0673688Y0093618D01*
X0618333Y0108933D02*
X0618335Y0109074D01*
X0618341Y0109215D01*
X0618351Y0109355D01*
X0618365Y0109495D01*
X0618383Y0109635D01*
X0618404Y0109774D01*
X0618430Y0109913D01*
X0618459Y0110051D01*
X0618493Y0110187D01*
X0618530Y0110323D01*
X0618571Y0110458D01*
X0618616Y0110592D01*
X0618665Y0110724D01*
X0618717Y0110855D01*
X0618773Y0110984D01*
X0618833Y0111111D01*
X0618896Y0111237D01*
X0618962Y0111361D01*
X0619033Y0111484D01*
X0619106Y0111604D01*
X0619183Y0111722D01*
X0619263Y0111838D01*
X0619347Y0111951D01*
X0619433Y0112062D01*
X0619523Y0112171D01*
X0619616Y0112277D01*
X0619711Y0112380D01*
X0619810Y0112481D01*
X0619911Y0112579D01*
X0620015Y0112674D01*
X0620122Y0112766D01*
X0620231Y0112855D01*
X0620343Y0112940D01*
X0620457Y0113023D01*
X0620573Y0113103D01*
X0620692Y0113179D01*
X0620813Y0113251D01*
X0620935Y0113321D01*
X0621060Y0113386D01*
X0621186Y0113449D01*
X0621314Y0113507D01*
X0621444Y0113562D01*
X0621575Y0113614D01*
X0621708Y0113661D01*
X0621842Y0113705D01*
X0621977Y0113746D01*
X0622113Y0113782D01*
X0622250Y0113814D01*
X0622388Y0113843D01*
X0622526Y0113868D01*
X0622666Y0113888D01*
X0622806Y0113905D01*
X0622946Y0113918D01*
X0623087Y0113927D01*
X0623227Y0113932D01*
X0623368Y0113933D01*
X0623509Y0113930D01*
X0623650Y0113923D01*
X0623790Y0113912D01*
X0623930Y0113897D01*
X0624070Y0113878D01*
X0624209Y0113856D01*
X0624347Y0113829D01*
X0624485Y0113799D01*
X0624621Y0113764D01*
X0624757Y0113726D01*
X0624891Y0113684D01*
X0625025Y0113638D01*
X0625157Y0113589D01*
X0625287Y0113535D01*
X0625416Y0113478D01*
X0625543Y0113418D01*
X0625669Y0113354D01*
X0625792Y0113286D01*
X0625914Y0113215D01*
X0626034Y0113141D01*
X0626151Y0113063D01*
X0626266Y0112982D01*
X0626379Y0112898D01*
X0626490Y0112811D01*
X0626598Y0112720D01*
X0626703Y0112627D01*
X0626806Y0112530D01*
X0626906Y0112431D01*
X0627003Y0112329D01*
X0627097Y0112224D01*
X0627188Y0112117D01*
X0627276Y0112007D01*
X0627361Y0111895D01*
X0627443Y0111780D01*
X0627522Y0111663D01*
X0627597Y0111544D01*
X0627669Y0111423D01*
X0627737Y0111300D01*
X0627802Y0111175D01*
X0627864Y0111048D01*
X0627921Y0110919D01*
X0627976Y0110789D01*
X0628026Y0110658D01*
X0628073Y0110525D01*
X0628116Y0110391D01*
X0628155Y0110255D01*
X0628190Y0110119D01*
X0628222Y0109982D01*
X0628249Y0109844D01*
X0628273Y0109705D01*
X0628293Y0109565D01*
X0628309Y0109425D01*
X0628321Y0109285D01*
X0628329Y0109144D01*
X0628333Y0109003D01*
X0628333Y0108863D01*
X0628329Y0108722D01*
X0628321Y0108581D01*
X0628309Y0108441D01*
X0628293Y0108301D01*
X0628273Y0108161D01*
X0628249Y0108022D01*
X0628222Y0107884D01*
X0628190Y0107747D01*
X0628155Y0107611D01*
X0628116Y0107475D01*
X0628073Y0107341D01*
X0628026Y0107208D01*
X0627976Y0107077D01*
X0627921Y0106947D01*
X0627864Y0106818D01*
X0627802Y0106691D01*
X0627737Y0106566D01*
X0627669Y0106443D01*
X0627597Y0106322D01*
X0627522Y0106203D01*
X0627443Y0106086D01*
X0627361Y0105971D01*
X0627276Y0105859D01*
X0627188Y0105749D01*
X0627097Y0105642D01*
X0627003Y0105537D01*
X0626906Y0105435D01*
X0626806Y0105336D01*
X0626703Y0105239D01*
X0626598Y0105146D01*
X0626490Y0105055D01*
X0626379Y0104968D01*
X0626266Y0104884D01*
X0626151Y0104803D01*
X0626034Y0104725D01*
X0625914Y0104651D01*
X0625792Y0104580D01*
X0625669Y0104512D01*
X0625543Y0104448D01*
X0625416Y0104388D01*
X0625287Y0104331D01*
X0625157Y0104277D01*
X0625025Y0104228D01*
X0624891Y0104182D01*
X0624757Y0104140D01*
X0624621Y0104102D01*
X0624485Y0104067D01*
X0624347Y0104037D01*
X0624209Y0104010D01*
X0624070Y0103988D01*
X0623930Y0103969D01*
X0623790Y0103954D01*
X0623650Y0103943D01*
X0623509Y0103936D01*
X0623368Y0103933D01*
X0623227Y0103934D01*
X0623087Y0103939D01*
X0622946Y0103948D01*
X0622806Y0103961D01*
X0622666Y0103978D01*
X0622526Y0103998D01*
X0622388Y0104023D01*
X0622250Y0104052D01*
X0622113Y0104084D01*
X0621977Y0104120D01*
X0621842Y0104161D01*
X0621708Y0104205D01*
X0621575Y0104252D01*
X0621444Y0104304D01*
X0621314Y0104359D01*
X0621186Y0104417D01*
X0621060Y0104480D01*
X0620935Y0104545D01*
X0620813Y0104615D01*
X0620692Y0104687D01*
X0620573Y0104763D01*
X0620457Y0104843D01*
X0620343Y0104926D01*
X0620231Y0105011D01*
X0620122Y0105100D01*
X0620015Y0105192D01*
X0619911Y0105287D01*
X0619810Y0105385D01*
X0619711Y0105486D01*
X0619616Y0105589D01*
X0619523Y0105695D01*
X0619433Y0105804D01*
X0619347Y0105915D01*
X0619263Y0106028D01*
X0619183Y0106144D01*
X0619106Y0106262D01*
X0619033Y0106382D01*
X0618962Y0106505D01*
X0618896Y0106629D01*
X0618833Y0106755D01*
X0618773Y0106882D01*
X0618717Y0107011D01*
X0618665Y0107142D01*
X0618616Y0107274D01*
X0618571Y0107408D01*
X0618530Y0107543D01*
X0618493Y0107679D01*
X0618459Y0107815D01*
X0618430Y0107953D01*
X0618404Y0108092D01*
X0618383Y0108231D01*
X0618365Y0108371D01*
X0618351Y0108511D01*
X0618341Y0108651D01*
X0618335Y0108792D01*
X0618333Y0108933D01*
X0438333Y0108933D02*
X0438335Y0109074D01*
X0438341Y0109215D01*
X0438351Y0109355D01*
X0438365Y0109495D01*
X0438383Y0109635D01*
X0438404Y0109774D01*
X0438430Y0109913D01*
X0438459Y0110051D01*
X0438493Y0110187D01*
X0438530Y0110323D01*
X0438571Y0110458D01*
X0438616Y0110592D01*
X0438665Y0110724D01*
X0438717Y0110855D01*
X0438773Y0110984D01*
X0438833Y0111111D01*
X0438896Y0111237D01*
X0438962Y0111361D01*
X0439033Y0111484D01*
X0439106Y0111604D01*
X0439183Y0111722D01*
X0439263Y0111838D01*
X0439347Y0111951D01*
X0439433Y0112062D01*
X0439523Y0112171D01*
X0439616Y0112277D01*
X0439711Y0112380D01*
X0439810Y0112481D01*
X0439911Y0112579D01*
X0440015Y0112674D01*
X0440122Y0112766D01*
X0440231Y0112855D01*
X0440343Y0112940D01*
X0440457Y0113023D01*
X0440573Y0113103D01*
X0440692Y0113179D01*
X0440813Y0113251D01*
X0440935Y0113321D01*
X0441060Y0113386D01*
X0441186Y0113449D01*
X0441314Y0113507D01*
X0441444Y0113562D01*
X0441575Y0113614D01*
X0441708Y0113661D01*
X0441842Y0113705D01*
X0441977Y0113746D01*
X0442113Y0113782D01*
X0442250Y0113814D01*
X0442388Y0113843D01*
X0442526Y0113868D01*
X0442666Y0113888D01*
X0442806Y0113905D01*
X0442946Y0113918D01*
X0443087Y0113927D01*
X0443227Y0113932D01*
X0443368Y0113933D01*
X0443509Y0113930D01*
X0443650Y0113923D01*
X0443790Y0113912D01*
X0443930Y0113897D01*
X0444070Y0113878D01*
X0444209Y0113856D01*
X0444347Y0113829D01*
X0444485Y0113799D01*
X0444621Y0113764D01*
X0444757Y0113726D01*
X0444891Y0113684D01*
X0445025Y0113638D01*
X0445157Y0113589D01*
X0445287Y0113535D01*
X0445416Y0113478D01*
X0445543Y0113418D01*
X0445669Y0113354D01*
X0445792Y0113286D01*
X0445914Y0113215D01*
X0446034Y0113141D01*
X0446151Y0113063D01*
X0446266Y0112982D01*
X0446379Y0112898D01*
X0446490Y0112811D01*
X0446598Y0112720D01*
X0446703Y0112627D01*
X0446806Y0112530D01*
X0446906Y0112431D01*
X0447003Y0112329D01*
X0447097Y0112224D01*
X0447188Y0112117D01*
X0447276Y0112007D01*
X0447361Y0111895D01*
X0447443Y0111780D01*
X0447522Y0111663D01*
X0447597Y0111544D01*
X0447669Y0111423D01*
X0447737Y0111300D01*
X0447802Y0111175D01*
X0447864Y0111048D01*
X0447921Y0110919D01*
X0447976Y0110789D01*
X0448026Y0110658D01*
X0448073Y0110525D01*
X0448116Y0110391D01*
X0448155Y0110255D01*
X0448190Y0110119D01*
X0448222Y0109982D01*
X0448249Y0109844D01*
X0448273Y0109705D01*
X0448293Y0109565D01*
X0448309Y0109425D01*
X0448321Y0109285D01*
X0448329Y0109144D01*
X0448333Y0109003D01*
X0448333Y0108863D01*
X0448329Y0108722D01*
X0448321Y0108581D01*
X0448309Y0108441D01*
X0448293Y0108301D01*
X0448273Y0108161D01*
X0448249Y0108022D01*
X0448222Y0107884D01*
X0448190Y0107747D01*
X0448155Y0107611D01*
X0448116Y0107475D01*
X0448073Y0107341D01*
X0448026Y0107208D01*
X0447976Y0107077D01*
X0447921Y0106947D01*
X0447864Y0106818D01*
X0447802Y0106691D01*
X0447737Y0106566D01*
X0447669Y0106443D01*
X0447597Y0106322D01*
X0447522Y0106203D01*
X0447443Y0106086D01*
X0447361Y0105971D01*
X0447276Y0105859D01*
X0447188Y0105749D01*
X0447097Y0105642D01*
X0447003Y0105537D01*
X0446906Y0105435D01*
X0446806Y0105336D01*
X0446703Y0105239D01*
X0446598Y0105146D01*
X0446490Y0105055D01*
X0446379Y0104968D01*
X0446266Y0104884D01*
X0446151Y0104803D01*
X0446034Y0104725D01*
X0445914Y0104651D01*
X0445792Y0104580D01*
X0445669Y0104512D01*
X0445543Y0104448D01*
X0445416Y0104388D01*
X0445287Y0104331D01*
X0445157Y0104277D01*
X0445025Y0104228D01*
X0444891Y0104182D01*
X0444757Y0104140D01*
X0444621Y0104102D01*
X0444485Y0104067D01*
X0444347Y0104037D01*
X0444209Y0104010D01*
X0444070Y0103988D01*
X0443930Y0103969D01*
X0443790Y0103954D01*
X0443650Y0103943D01*
X0443509Y0103936D01*
X0443368Y0103933D01*
X0443227Y0103934D01*
X0443087Y0103939D01*
X0442946Y0103948D01*
X0442806Y0103961D01*
X0442666Y0103978D01*
X0442526Y0103998D01*
X0442388Y0104023D01*
X0442250Y0104052D01*
X0442113Y0104084D01*
X0441977Y0104120D01*
X0441842Y0104161D01*
X0441708Y0104205D01*
X0441575Y0104252D01*
X0441444Y0104304D01*
X0441314Y0104359D01*
X0441186Y0104417D01*
X0441060Y0104480D01*
X0440935Y0104545D01*
X0440813Y0104615D01*
X0440692Y0104687D01*
X0440573Y0104763D01*
X0440457Y0104843D01*
X0440343Y0104926D01*
X0440231Y0105011D01*
X0440122Y0105100D01*
X0440015Y0105192D01*
X0439911Y0105287D01*
X0439810Y0105385D01*
X0439711Y0105486D01*
X0439616Y0105589D01*
X0439523Y0105695D01*
X0439433Y0105804D01*
X0439347Y0105915D01*
X0439263Y0106028D01*
X0439183Y0106144D01*
X0439106Y0106262D01*
X0439033Y0106382D01*
X0438962Y0106505D01*
X0438896Y0106629D01*
X0438833Y0106755D01*
X0438773Y0106882D01*
X0438717Y0107011D01*
X0438665Y0107142D01*
X0438616Y0107274D01*
X0438571Y0107408D01*
X0438530Y0107543D01*
X0438493Y0107679D01*
X0438459Y0107815D01*
X0438430Y0107953D01*
X0438404Y0108092D01*
X0438383Y0108231D01*
X0438365Y0108371D01*
X0438351Y0108511D01*
X0438341Y0108651D01*
X0438335Y0108792D01*
X0438333Y0108933D01*
D11*
X0433333Y0113933D02*
X0433333Y0033933D01*
X0433336Y0033691D01*
X0433345Y0033450D01*
X0433359Y0033209D01*
X0433380Y0032968D01*
X0433406Y0032728D01*
X0433438Y0032488D01*
X0433476Y0032249D01*
X0433519Y0032012D01*
X0433569Y0031775D01*
X0433624Y0031540D01*
X0433684Y0031306D01*
X0433751Y0031074D01*
X0433822Y0030843D01*
X0433900Y0030614D01*
X0433983Y0030387D01*
X0434071Y0030162D01*
X0434165Y0029939D01*
X0434264Y0029719D01*
X0434369Y0029501D01*
X0434478Y0029286D01*
X0434593Y0029073D01*
X0434713Y0028863D01*
X0434838Y0028657D01*
X0434968Y0028453D01*
X0435103Y0028252D01*
X0435243Y0028055D01*
X0435387Y0027861D01*
X0435536Y0027671D01*
X0435690Y0027485D01*
X0435848Y0027302D01*
X0436010Y0027123D01*
X0436177Y0026948D01*
X0436348Y0026777D01*
X0436523Y0026610D01*
X0436702Y0026448D01*
X0436885Y0026290D01*
X0437071Y0026136D01*
X0437261Y0025987D01*
X0437455Y0025843D01*
X0437652Y0025703D01*
X0437853Y0025568D01*
X0438057Y0025438D01*
X0438263Y0025313D01*
X0438473Y0025193D01*
X0438686Y0025078D01*
X0438901Y0024969D01*
X0439119Y0024864D01*
X0439339Y0024765D01*
X0439562Y0024671D01*
X0439787Y0024583D01*
X0440014Y0024500D01*
X0440243Y0024422D01*
X0440474Y0024351D01*
X0440706Y0024284D01*
X0440940Y0024224D01*
X0441175Y0024169D01*
X0441412Y0024119D01*
X0441649Y0024076D01*
X0441888Y0024038D01*
X0442128Y0024006D01*
X0442368Y0023980D01*
X0442609Y0023959D01*
X0442850Y0023945D01*
X0443091Y0023936D01*
X0443333Y0023933D01*
X0658333Y0023933D01*
X0668333Y0023933D01*
X0668695Y0023937D01*
X0669058Y0023951D01*
X0669420Y0023972D01*
X0669781Y0024003D01*
X0670141Y0024042D01*
X0670500Y0024090D01*
X0670858Y0024147D01*
X0671215Y0024212D01*
X0671570Y0024286D01*
X0671923Y0024369D01*
X0672274Y0024460D01*
X0672622Y0024559D01*
X0672968Y0024667D01*
X0673312Y0024783D01*
X0673652Y0024908D01*
X0673989Y0025040D01*
X0674323Y0025181D01*
X0674654Y0025330D01*
X0674981Y0025487D01*
X0675304Y0025651D01*
X0675623Y0025823D01*
X0675937Y0026003D01*
X0676248Y0026191D01*
X0676553Y0026386D01*
X0676854Y0026588D01*
X0677150Y0026798D01*
X0677440Y0027014D01*
X0677726Y0027238D01*
X0678006Y0027468D01*
X0678280Y0027705D01*
X0678548Y0027949D01*
X0678811Y0028199D01*
X0679067Y0028455D01*
X0679317Y0028718D01*
X0679561Y0028986D01*
X0679798Y0029260D01*
X0680028Y0029540D01*
X0680252Y0029826D01*
X0680468Y0030116D01*
X0680678Y0030412D01*
X0680880Y0030713D01*
X0681075Y0031018D01*
X0681263Y0031329D01*
X0681443Y0031643D01*
X0681615Y0031962D01*
X0681779Y0032285D01*
X0681936Y0032612D01*
X0682085Y0032943D01*
X0682226Y0033277D01*
X0682358Y0033614D01*
X0682483Y0033954D01*
X0682599Y0034298D01*
X0682707Y0034644D01*
X0682806Y0034992D01*
X0682897Y0035343D01*
X0682980Y0035696D01*
X0683054Y0036051D01*
X0683119Y0036408D01*
X0683176Y0036766D01*
X0683224Y0037125D01*
X0683263Y0037485D01*
X0683294Y0037846D01*
X0683315Y0038208D01*
X0683329Y0038571D01*
X0683333Y0038933D01*
X0683333Y0108933D01*
X0683329Y0109295D01*
X0683315Y0109658D01*
X0683294Y0110020D01*
X0683263Y0110381D01*
X0683224Y0110741D01*
X0683176Y0111100D01*
X0683119Y0111458D01*
X0683054Y0111815D01*
X0682980Y0112170D01*
X0682897Y0112523D01*
X0682806Y0112874D01*
X0682707Y0113222D01*
X0682599Y0113568D01*
X0682483Y0113912D01*
X0682358Y0114252D01*
X0682226Y0114589D01*
X0682085Y0114923D01*
X0681936Y0115254D01*
X0681779Y0115581D01*
X0681615Y0115904D01*
X0681443Y0116223D01*
X0681263Y0116537D01*
X0681075Y0116848D01*
X0680880Y0117153D01*
X0680678Y0117454D01*
X0680468Y0117750D01*
X0680252Y0118040D01*
X0680028Y0118326D01*
X0679798Y0118606D01*
X0679561Y0118880D01*
X0679317Y0119148D01*
X0679067Y0119411D01*
X0678811Y0119667D01*
X0678548Y0119917D01*
X0678280Y0120161D01*
X0678006Y0120398D01*
X0677726Y0120628D01*
X0677440Y0120852D01*
X0677150Y0121068D01*
X0676854Y0121278D01*
X0676553Y0121480D01*
X0676248Y0121675D01*
X0675937Y0121863D01*
X0675623Y0122043D01*
X0675304Y0122215D01*
X0674981Y0122379D01*
X0674654Y0122536D01*
X0674323Y0122685D01*
X0673989Y0122826D01*
X0673652Y0122958D01*
X0673312Y0123083D01*
X0672968Y0123199D01*
X0672622Y0123307D01*
X0672274Y0123406D01*
X0671923Y0123497D01*
X0671570Y0123580D01*
X0671215Y0123654D01*
X0670858Y0123719D01*
X0670500Y0123776D01*
X0670141Y0123824D01*
X0669781Y0123863D01*
X0669420Y0123894D01*
X0669058Y0123915D01*
X0668695Y0123929D01*
X0668333Y0123933D01*
X0443333Y0123933D01*
X0443091Y0123930D01*
X0442850Y0123921D01*
X0442609Y0123907D01*
X0442368Y0123886D01*
X0442128Y0123860D01*
X0441888Y0123828D01*
X0441649Y0123790D01*
X0441412Y0123747D01*
X0441175Y0123697D01*
X0440940Y0123642D01*
X0440706Y0123582D01*
X0440474Y0123515D01*
X0440243Y0123444D01*
X0440014Y0123366D01*
X0439787Y0123283D01*
X0439562Y0123195D01*
X0439339Y0123101D01*
X0439119Y0123002D01*
X0438901Y0122897D01*
X0438686Y0122788D01*
X0438473Y0122673D01*
X0438263Y0122553D01*
X0438057Y0122428D01*
X0437853Y0122298D01*
X0437652Y0122163D01*
X0437455Y0122023D01*
X0437261Y0121879D01*
X0437071Y0121730D01*
X0436885Y0121576D01*
X0436702Y0121418D01*
X0436523Y0121256D01*
X0436348Y0121089D01*
X0436177Y0120918D01*
X0436010Y0120743D01*
X0435848Y0120564D01*
X0435690Y0120381D01*
X0435536Y0120195D01*
X0435387Y0120005D01*
X0435243Y0119811D01*
X0435103Y0119614D01*
X0434968Y0119413D01*
X0434838Y0119209D01*
X0434713Y0119003D01*
X0434593Y0118793D01*
X0434478Y0118580D01*
X0434369Y0118365D01*
X0434264Y0118147D01*
X0434165Y0117927D01*
X0434071Y0117704D01*
X0433983Y0117479D01*
X0433900Y0117252D01*
X0433822Y0117023D01*
X0433751Y0116792D01*
X0433684Y0116560D01*
X0433624Y0116326D01*
X0433569Y0116091D01*
X0433519Y0115854D01*
X0433476Y0115617D01*
X0433438Y0115378D01*
X0433406Y0115138D01*
X0433380Y0114898D01*
X0433359Y0114657D01*
X0433345Y0114416D01*
X0433336Y0114175D01*
X0433333Y0113933D01*
D12*
X0498333Y0113933D03*
X0508333Y0113933D03*
X0518333Y0113933D03*
X0528333Y0113933D03*
X0538333Y0113933D03*
X0548333Y0113933D03*
X0558333Y0113933D03*
X0568333Y0113933D03*
X0578333Y0113933D03*
X0588333Y0113933D03*
X0598333Y0113933D03*
X0608333Y0113933D03*
X0611333Y0053933D03*
X0601333Y0053933D03*
X0591333Y0053933D03*
X0581333Y0053933D03*
X0571333Y0053933D03*
X0561333Y0053933D03*
X0551333Y0053933D03*
X0515833Y0053933D03*
X0505833Y0053933D03*
X0495833Y0053933D03*
X0485833Y0053933D03*
X0475833Y0053933D03*
X0465833Y0053933D03*
X0455833Y0053933D03*
X0445833Y0053933D03*
X0458333Y0033933D03*
X0468333Y0033933D03*
X0478333Y0033933D03*
X0488333Y0033933D03*
X0498333Y0033933D03*
X0508333Y0033933D03*
X0518333Y0033933D03*
X0528333Y0033933D03*
X0538333Y0033933D03*
X0548333Y0033933D03*
X0558333Y0033933D03*
X0568333Y0033933D03*
X0578333Y0033933D03*
X0588333Y0033933D03*
X0598333Y0033933D03*
X0608333Y0033933D03*
X0621333Y0053933D03*
D13*
X0608333Y0070587D03*
X0593333Y0070587D03*
X0578333Y0070587D03*
X0563333Y0070587D03*
X0563333Y0077280D03*
X0578333Y0077280D03*
X0593333Y0077280D03*
X0608333Y0077280D03*
X0508333Y0077280D03*
X0493333Y0077280D03*
X0478333Y0077280D03*
X0463333Y0077280D03*
X0463333Y0070587D03*
X0478333Y0070587D03*
X0493333Y0070587D03*
X0508333Y0070587D03*
D14*
X0643274Y0064091D02*
X0649770Y0064091D01*
X0666207Y0070685D02*
X0666207Y0077181D01*
X0649770Y0083776D02*
X0643274Y0083776D01*
X0643274Y0093618D02*
X0649770Y0093618D01*
X0649770Y0054248D02*
X0643274Y0054248D01*
D15*
X0639022Y0055885D02*
X0625944Y0055885D01*
X0625578Y0056769D02*
X0626340Y0054929D01*
X0626340Y0052937D01*
X0625578Y0051097D01*
X0624170Y0049688D01*
X0622329Y0048926D01*
X0620337Y0048926D01*
X0618497Y0049688D01*
X0617089Y0051097D01*
X0616333Y0052920D01*
X0615578Y0051097D01*
X0614170Y0049688D01*
X0612329Y0048926D01*
X0610337Y0048926D01*
X0608497Y0049688D01*
X0607089Y0051097D01*
X0606333Y0052920D01*
X0605578Y0051097D01*
X0604170Y0049688D01*
X0602329Y0048926D01*
X0600337Y0048926D01*
X0598497Y0049688D01*
X0597089Y0051097D01*
X0596333Y0052920D01*
X0595578Y0051097D01*
X0594170Y0049688D01*
X0592329Y0048926D01*
X0590337Y0048926D01*
X0588955Y0049499D01*
X0580140Y0040685D01*
X0580140Y0038604D01*
X0581170Y0038178D01*
X0582578Y0036769D01*
X0583333Y0034946D01*
X0584089Y0036769D01*
X0585497Y0038178D01*
X0587337Y0038940D01*
X0589329Y0038940D01*
X0591170Y0038178D01*
X0592578Y0036769D01*
X0593333Y0034946D01*
X0594089Y0036769D01*
X0595497Y0038178D01*
X0597337Y0038940D01*
X0599329Y0038940D01*
X0601170Y0038178D01*
X0602578Y0036769D01*
X0603333Y0034946D01*
X0604089Y0036769D01*
X0605497Y0038178D01*
X0607337Y0038940D01*
X0609329Y0038940D01*
X0611170Y0038178D01*
X0612578Y0036769D01*
X0613340Y0034929D01*
X0613340Y0032937D01*
X0612578Y0031097D01*
X0611170Y0029688D01*
X0609329Y0028926D01*
X0607337Y0028926D01*
X0605497Y0029688D01*
X0604089Y0031097D01*
X0603333Y0032920D01*
X0602578Y0031097D01*
X0601170Y0029688D01*
X0599329Y0028926D01*
X0597337Y0028926D01*
X0595497Y0029688D01*
X0594089Y0031097D01*
X0593333Y0032920D01*
X0592578Y0031097D01*
X0591170Y0029688D01*
X0589329Y0028926D01*
X0587337Y0028926D01*
X0585497Y0029688D01*
X0584089Y0031097D01*
X0583333Y0032920D01*
X0582578Y0031097D01*
X0581170Y0029688D01*
X0579329Y0028926D01*
X0577337Y0028926D01*
X0575497Y0029688D01*
X0574089Y0031097D01*
X0573333Y0032920D01*
X0572578Y0031097D01*
X0571170Y0029688D01*
X0569329Y0028926D01*
X0567337Y0028926D01*
X0565497Y0029688D01*
X0564089Y0031097D01*
X0563333Y0032920D01*
X0562578Y0031097D01*
X0561170Y0029688D01*
X0559329Y0028926D01*
X0557337Y0028926D01*
X0555497Y0029688D01*
X0554089Y0031097D01*
X0553333Y0032920D01*
X0552578Y0031097D01*
X0551170Y0029688D01*
X0549329Y0028926D01*
X0547337Y0028926D01*
X0545497Y0029688D01*
X0544089Y0031097D01*
X0543333Y0032920D01*
X0542578Y0031097D01*
X0541170Y0029688D01*
X0539329Y0028926D01*
X0537337Y0028926D01*
X0535497Y0029688D01*
X0534089Y0031097D01*
X0533333Y0032920D01*
X0532578Y0031097D01*
X0531170Y0029688D01*
X0529329Y0028926D01*
X0527337Y0028926D01*
X0525497Y0029688D01*
X0524089Y0031097D01*
X0523333Y0032920D01*
X0522578Y0031097D01*
X0521170Y0029688D01*
X0519329Y0028926D01*
X0517337Y0028926D01*
X0515497Y0029688D01*
X0514089Y0031097D01*
X0513333Y0032920D01*
X0512578Y0031097D01*
X0511170Y0029688D01*
X0509329Y0028926D01*
X0507337Y0028926D01*
X0505497Y0029688D01*
X0504089Y0031097D01*
X0503333Y0032920D01*
X0502578Y0031097D01*
X0501170Y0029688D01*
X0499329Y0028926D01*
X0497337Y0028926D01*
X0495497Y0029688D01*
X0494089Y0031097D01*
X0493409Y0032738D01*
X0493405Y0032715D01*
X0493152Y0031937D01*
X0492781Y0031208D01*
X0492300Y0030545D01*
X0491721Y0029967D01*
X0491059Y0029486D01*
X0490329Y0029114D01*
X0489551Y0028861D01*
X0488833Y0028747D01*
X0488833Y0033433D01*
X0487833Y0033433D01*
X0487833Y0028747D01*
X0487116Y0028861D01*
X0486337Y0029114D01*
X0485608Y0029486D01*
X0484946Y0029967D01*
X0484367Y0030545D01*
X0483886Y0031208D01*
X0483514Y0031937D01*
X0483261Y0032715D01*
X0483258Y0032738D01*
X0482578Y0031097D01*
X0481170Y0029688D01*
X0479329Y0028926D01*
X0477337Y0028926D01*
X0475497Y0029688D01*
X0474089Y0031097D01*
X0473333Y0032920D01*
X0472578Y0031097D01*
X0471170Y0029688D01*
X0469329Y0028926D01*
X0467337Y0028926D01*
X0465497Y0029688D01*
X0464089Y0031097D01*
X0463333Y0032920D01*
X0462578Y0031097D01*
X0461170Y0029688D01*
X0459329Y0028926D01*
X0457337Y0028926D01*
X0455497Y0029688D01*
X0454089Y0031097D01*
X0453326Y0032937D01*
X0453326Y0034929D01*
X0454089Y0036769D01*
X0455497Y0038178D01*
X0457337Y0038940D01*
X0459329Y0038940D01*
X0461170Y0038178D01*
X0462578Y0036769D01*
X0463333Y0034946D01*
X0464089Y0036769D01*
X0465497Y0038178D01*
X0467337Y0038940D01*
X0469329Y0038940D01*
X0471170Y0038178D01*
X0472578Y0036769D01*
X0473333Y0034946D01*
X0474089Y0036769D01*
X0475497Y0038178D01*
X0477337Y0038940D01*
X0479329Y0038940D01*
X0481170Y0038178D01*
X0482578Y0036769D01*
X0483258Y0035128D01*
X0483261Y0035151D01*
X0483514Y0035929D01*
X0483886Y0036658D01*
X0484367Y0037321D01*
X0484946Y0037899D01*
X0485608Y0038380D01*
X0486337Y0038752D01*
X0487116Y0039005D01*
X0487833Y0039119D01*
X0487833Y0034433D01*
X0488833Y0034433D01*
X0488833Y0039119D01*
X0489551Y0039005D01*
X0490329Y0038752D01*
X0491059Y0038380D01*
X0491721Y0037899D01*
X0492300Y0037321D01*
X0492781Y0036658D01*
X0493152Y0035929D01*
X0493405Y0035151D01*
X0493409Y0035128D01*
X0494089Y0036769D01*
X0495497Y0038178D01*
X0497337Y0038940D01*
X0499329Y0038940D01*
X0501170Y0038178D01*
X0502578Y0036769D01*
X0503333Y0034946D01*
X0504089Y0036769D01*
X0505497Y0038178D01*
X0507337Y0038940D01*
X0509329Y0038940D01*
X0511170Y0038178D01*
X0512578Y0036769D01*
X0513333Y0034946D01*
X0514089Y0036769D01*
X0515497Y0038178D01*
X0517337Y0038940D01*
X0519329Y0038940D01*
X0521170Y0038178D01*
X0522578Y0036769D01*
X0523333Y0034946D01*
X0524089Y0036769D01*
X0525497Y0038178D01*
X0526230Y0038481D01*
X0520085Y0044626D01*
X0447540Y0044626D01*
X0449268Y0042898D01*
X0450333Y0040325D01*
X0450333Y0037541D01*
X0449268Y0034968D01*
X0447298Y0032999D01*
X0444726Y0031933D01*
X0441941Y0031933D01*
X0439368Y0032999D01*
X0437399Y0034968D01*
X0436333Y0037541D01*
X0436333Y0040325D01*
X0437399Y0042898D01*
X0439368Y0044867D01*
X0441941Y0045933D01*
X0443778Y0045933D01*
X0437585Y0052126D01*
X0436526Y0053185D01*
X0436526Y0067182D01*
X0437585Y0068240D01*
X0447585Y0078240D01*
X0459861Y0078240D01*
X0459861Y0079789D01*
X0460627Y0080555D01*
X0466040Y0080555D01*
X0466806Y0079789D01*
X0466806Y0074770D01*
X0466040Y0074004D01*
X0460627Y0074004D01*
X0460005Y0074626D01*
X0449082Y0074626D01*
X0440140Y0065685D01*
X0440140Y0054682D01*
X0440826Y0053996D01*
X0440826Y0054929D01*
X0441589Y0056769D01*
X0442997Y0058178D01*
X0444837Y0058940D01*
X0446829Y0058940D01*
X0448670Y0058178D01*
X0450078Y0056769D01*
X0450758Y0055128D01*
X0450761Y0055151D01*
X0451014Y0055929D01*
X0451386Y0056658D01*
X0451867Y0057321D01*
X0452446Y0057899D01*
X0453108Y0058380D01*
X0453837Y0058752D01*
X0454616Y0059005D01*
X0455333Y0059119D01*
X0455333Y0054433D01*
X0456333Y0054433D01*
X0456333Y0059119D01*
X0457051Y0059005D01*
X0457829Y0058752D01*
X0458559Y0058380D01*
X0459221Y0057899D01*
X0459800Y0057321D01*
X0460281Y0056658D01*
X0460652Y0055929D01*
X0460905Y0055151D01*
X0460909Y0055128D01*
X0461589Y0056769D01*
X0462997Y0058178D01*
X0464837Y0058940D01*
X0466829Y0058940D01*
X0468670Y0058178D01*
X0470078Y0056769D01*
X0470833Y0054946D01*
X0471589Y0056769D01*
X0472997Y0058178D01*
X0474837Y0058940D01*
X0476829Y0058940D01*
X0478670Y0058178D01*
X0480078Y0056769D01*
X0480833Y0054946D01*
X0481589Y0056769D01*
X0482997Y0058178D01*
X0484837Y0058940D01*
X0486829Y0058940D01*
X0488670Y0058178D01*
X0490078Y0056769D01*
X0490833Y0054946D01*
X0491589Y0056769D01*
X0492997Y0058178D01*
X0494837Y0058940D01*
X0496829Y0058940D01*
X0498670Y0058178D01*
X0500078Y0056769D01*
X0500833Y0054946D01*
X0501253Y0055958D01*
X0500085Y0057126D01*
X0500085Y0057126D01*
X0499026Y0058185D01*
X0499026Y0069626D01*
X0496806Y0069626D01*
X0496806Y0068077D01*
X0496040Y0067311D01*
X0490627Y0067311D01*
X0489861Y0068077D01*
X0489861Y0069626D01*
X0481806Y0069626D01*
X0481806Y0068077D01*
X0481040Y0067311D01*
X0475627Y0067311D01*
X0474861Y0068077D01*
X0474861Y0069626D01*
X0466806Y0069626D01*
X0466806Y0068077D01*
X0466040Y0067311D01*
X0460627Y0067311D01*
X0459861Y0068077D01*
X0459861Y0073097D01*
X0460627Y0073862D01*
X0466040Y0073862D01*
X0466662Y0073240D01*
X0475005Y0073240D01*
X0475627Y0073862D01*
X0481040Y0073862D01*
X0481662Y0073240D01*
X0490005Y0073240D01*
X0490627Y0073862D01*
X0496040Y0073862D01*
X0496662Y0073240D01*
X0505005Y0073240D01*
X0505627Y0073862D01*
X0511040Y0073862D01*
X0511806Y0073097D01*
X0511806Y0068077D01*
X0511040Y0067311D01*
X0505627Y0067311D01*
X0504861Y0068077D01*
X0504861Y0069626D01*
X0502640Y0069626D01*
X0502640Y0059682D01*
X0503808Y0058514D01*
X0504837Y0058940D01*
X0506829Y0058940D01*
X0508670Y0058178D01*
X0510078Y0056769D01*
X0510833Y0054946D01*
X0511589Y0056769D01*
X0512997Y0058178D01*
X0514837Y0058940D01*
X0516829Y0058940D01*
X0518670Y0058178D01*
X0520078Y0056769D01*
X0520840Y0054929D01*
X0520840Y0052937D01*
X0520078Y0051097D01*
X0518670Y0049688D01*
X0516829Y0048926D01*
X0514837Y0048926D01*
X0512997Y0049688D01*
X0511589Y0051097D01*
X0510833Y0052920D01*
X0510078Y0051097D01*
X0508670Y0049688D01*
X0506829Y0048926D01*
X0504837Y0048926D01*
X0502997Y0049688D01*
X0501589Y0051097D01*
X0500833Y0052920D01*
X0500078Y0051097D01*
X0498670Y0049688D01*
X0496829Y0048926D01*
X0494837Y0048926D01*
X0492997Y0049688D01*
X0491589Y0051097D01*
X0490833Y0052920D01*
X0490078Y0051097D01*
X0488670Y0049688D01*
X0486829Y0048926D01*
X0484837Y0048926D01*
X0482997Y0049688D01*
X0481589Y0051097D01*
X0480833Y0052920D01*
X0480078Y0051097D01*
X0478670Y0049688D01*
X0476829Y0048926D01*
X0474837Y0048926D01*
X0472997Y0049688D01*
X0471589Y0051097D01*
X0470833Y0052920D01*
X0470078Y0051097D01*
X0468670Y0049688D01*
X0466829Y0048926D01*
X0464837Y0048926D01*
X0462997Y0049688D01*
X0461589Y0051097D01*
X0460909Y0052738D01*
X0460905Y0052715D01*
X0460652Y0051937D01*
X0460281Y0051208D01*
X0459800Y0050545D01*
X0459221Y0049967D01*
X0458559Y0049486D01*
X0457829Y0049114D01*
X0457051Y0048861D01*
X0456333Y0048747D01*
X0456333Y0053433D01*
X0455333Y0053433D01*
X0455333Y0048747D01*
X0454616Y0048861D01*
X0453837Y0049114D01*
X0453108Y0049486D01*
X0452446Y0049967D01*
X0451867Y0050545D01*
X0451386Y0051208D01*
X0451014Y0051937D01*
X0450761Y0052715D01*
X0450758Y0052738D01*
X0450078Y0051097D01*
X0448670Y0049688D01*
X0446829Y0048926D01*
X0445896Y0048926D01*
X0446582Y0048240D01*
X0521582Y0048240D01*
X0522640Y0047182D01*
X0530140Y0039682D01*
X0530140Y0038604D01*
X0531170Y0038178D01*
X0532578Y0036769D01*
X0533333Y0034946D01*
X0534089Y0036769D01*
X0535497Y0038178D01*
X0537337Y0038940D01*
X0539329Y0038940D01*
X0541170Y0038178D01*
X0542578Y0036769D01*
X0543333Y0034946D01*
X0544089Y0036769D01*
X0545497Y0038178D01*
X0546230Y0038481D01*
X0541526Y0043185D01*
X0541526Y0064682D01*
X0547585Y0070740D01*
X0554238Y0070740D01*
X0559861Y0076363D01*
X0559861Y0079789D01*
X0560627Y0080555D01*
X0566040Y0080555D01*
X0566806Y0079789D01*
X0566806Y0074770D01*
X0566040Y0074004D01*
X0562613Y0074004D01*
X0562472Y0073862D01*
X0566040Y0073862D01*
X0566662Y0073240D01*
X0575005Y0073240D01*
X0575627Y0073862D01*
X0581040Y0073862D01*
X0581662Y0073240D01*
X0590005Y0073240D01*
X0590627Y0073862D01*
X0596040Y0073862D01*
X0596662Y0073240D01*
X0605005Y0073240D01*
X0605627Y0073862D01*
X0611040Y0073862D01*
X0611806Y0073097D01*
X0611806Y0068077D01*
X0611040Y0067311D01*
X0605627Y0067311D01*
X0604861Y0068077D01*
X0604861Y0069626D01*
X0602640Y0069626D01*
X0602640Y0064682D01*
X0608955Y0058367D01*
X0610337Y0058940D01*
X0612329Y0058940D01*
X0614170Y0058178D01*
X0615578Y0056769D01*
X0616333Y0054946D01*
X0617089Y0056769D01*
X0618497Y0058178D01*
X0620337Y0058940D01*
X0622329Y0058940D01*
X0624170Y0058178D01*
X0625578Y0056769D01*
X0625464Y0056884D02*
X0639468Y0056884D01*
X0639413Y0056828D02*
X0638719Y0055154D01*
X0638719Y0053342D01*
X0639413Y0051668D01*
X0640694Y0050386D01*
X0642368Y0049693D01*
X0650676Y0049693D01*
X0652351Y0050386D01*
X0653632Y0051668D01*
X0654325Y0053342D01*
X0654325Y0055154D01*
X0653632Y0056828D01*
X0652351Y0058110D01*
X0650676Y0058803D01*
X0642368Y0058803D01*
X0640694Y0058110D01*
X0639413Y0056828D01*
X0640467Y0057882D02*
X0624465Y0057882D01*
X0622472Y0058881D02*
X0681033Y0058881D01*
X0681033Y0059879D02*
X0651507Y0059879D01*
X0650676Y0059535D02*
X0652351Y0060229D01*
X0653632Y0061510D01*
X0654325Y0063184D01*
X0654325Y0064997D01*
X0653632Y0066671D01*
X0652351Y0067952D01*
X0650676Y0068646D01*
X0642368Y0068646D01*
X0640694Y0067952D01*
X0639413Y0066671D01*
X0638719Y0064997D01*
X0638719Y0063184D01*
X0639413Y0061510D01*
X0640694Y0060229D01*
X0642368Y0059535D01*
X0650676Y0059535D01*
X0652578Y0057882D02*
X0663673Y0057882D01*
X0663736Y0057946D02*
X0662509Y0056719D01*
X0661845Y0055116D01*
X0661845Y0053380D01*
X0662509Y0051777D01*
X0663736Y0050550D01*
X0665340Y0049886D01*
X0667075Y0049886D01*
X0668678Y0050550D01*
X0669905Y0051777D01*
X0670570Y0053380D01*
X0670570Y0055116D01*
X0669905Y0056719D01*
X0668678Y0057946D01*
X0667075Y0058610D01*
X0665340Y0058610D01*
X0663736Y0057946D01*
X0662674Y0056884D02*
X0653576Y0056884D01*
X0654023Y0055885D02*
X0662164Y0055885D01*
X0661845Y0054887D02*
X0654325Y0054887D01*
X0654325Y0053888D02*
X0661845Y0053888D01*
X0662048Y0052890D02*
X0654138Y0052890D01*
X0653725Y0051891D02*
X0662462Y0051891D01*
X0663393Y0050893D02*
X0652857Y0050893D01*
X0651163Y0049894D02*
X0665319Y0049894D01*
X0667096Y0049894D02*
X0675162Y0049894D01*
X0675182Y0049886D02*
X0676918Y0049886D01*
X0678521Y0050550D01*
X0679748Y0051777D01*
X0680412Y0053380D01*
X0680412Y0055116D01*
X0679748Y0056719D01*
X0678521Y0057946D01*
X0676918Y0058610D01*
X0675182Y0058610D01*
X0673579Y0057946D01*
X0672352Y0056719D01*
X0671688Y0055116D01*
X0671688Y0053380D01*
X0672352Y0051777D01*
X0673579Y0050550D01*
X0675182Y0049886D01*
X0676938Y0049894D02*
X0681033Y0049894D01*
X0681033Y0048896D02*
X0588352Y0048896D01*
X0587353Y0047897D02*
X0681033Y0047897D01*
X0681033Y0046899D02*
X0586355Y0046899D01*
X0585356Y0045900D02*
X0621862Y0045900D01*
X0621941Y0045933D02*
X0619368Y0044867D01*
X0617399Y0042898D01*
X0616333Y0040325D01*
X0616333Y0037541D01*
X0617399Y0034968D01*
X0619368Y0032999D01*
X0621941Y0031933D01*
X0624726Y0031933D01*
X0627298Y0032999D01*
X0629268Y0034968D01*
X0630333Y0037541D01*
X0630333Y0040325D01*
X0629268Y0042898D01*
X0627298Y0044867D01*
X0624726Y0045933D01*
X0621941Y0045933D01*
X0619451Y0044902D02*
X0584358Y0044902D01*
X0583359Y0043903D02*
X0618404Y0043903D01*
X0617406Y0042905D02*
X0582361Y0042905D01*
X0581362Y0041906D02*
X0616988Y0041906D01*
X0616575Y0040908D02*
X0580364Y0040908D01*
X0580140Y0039909D02*
X0616333Y0039909D01*
X0616333Y0038911D02*
X0609400Y0038911D01*
X0607266Y0038911D02*
X0599400Y0038911D01*
X0597266Y0038911D02*
X0589400Y0038911D01*
X0587266Y0038911D02*
X0580140Y0038911D01*
X0581435Y0037912D02*
X0585231Y0037912D01*
X0584233Y0036914D02*
X0582434Y0036914D01*
X0582932Y0035915D02*
X0583735Y0035915D01*
X0578333Y0033933D02*
X0578333Y0041433D01*
X0590833Y0053933D01*
X0591333Y0053933D01*
X0586722Y0055885D02*
X0585944Y0055885D01*
X0585578Y0056769D02*
X0586333Y0054946D01*
X0587089Y0056769D01*
X0588497Y0058178D01*
X0590337Y0058940D01*
X0592329Y0058940D01*
X0594170Y0058178D01*
X0595578Y0056769D01*
X0596333Y0054946D01*
X0597089Y0056769D01*
X0598497Y0058178D01*
X0600337Y0058940D01*
X0602329Y0058940D01*
X0603936Y0058275D01*
X0600085Y0062126D01*
X0599026Y0063185D01*
X0599026Y0069626D01*
X0596806Y0069626D01*
X0596806Y0068077D01*
X0596040Y0067311D01*
X0590627Y0067311D01*
X0589861Y0068077D01*
X0589861Y0069626D01*
X0581806Y0069626D01*
X0581806Y0068077D01*
X0581040Y0067311D01*
X0575627Y0067311D01*
X0574861Y0068077D01*
X0574861Y0069626D01*
X0566806Y0069626D01*
X0566806Y0068077D01*
X0566040Y0067311D01*
X0560627Y0067311D01*
X0559861Y0068077D01*
X0559861Y0071252D01*
X0556794Y0068185D01*
X0555735Y0067126D01*
X0549082Y0067126D01*
X0545140Y0063185D01*
X0545140Y0044682D01*
X0549082Y0040740D01*
X0550140Y0039682D01*
X0550140Y0038604D01*
X0551170Y0038178D01*
X0552578Y0036769D01*
X0553333Y0034946D01*
X0554089Y0036769D01*
X0555497Y0038178D01*
X0557337Y0038940D01*
X0559329Y0038940D01*
X0561170Y0038178D01*
X0562056Y0037292D01*
X0564452Y0039689D01*
X0564452Y0039689D01*
X0565511Y0040747D01*
X0565592Y0040747D01*
X0576753Y0051908D01*
X0576333Y0052920D01*
X0575578Y0051097D01*
X0574170Y0049688D01*
X0572329Y0048926D01*
X0570337Y0048926D01*
X0568497Y0049688D01*
X0567089Y0051097D01*
X0566409Y0052738D01*
X0566405Y0052715D01*
X0566152Y0051937D01*
X0565781Y0051208D01*
X0565300Y0050545D01*
X0564721Y0049967D01*
X0564059Y0049486D01*
X0563329Y0049114D01*
X0562551Y0048861D01*
X0561833Y0048747D01*
X0561833Y0053433D01*
X0560833Y0053433D01*
X0560833Y0048747D01*
X0560116Y0048861D01*
X0559337Y0049114D01*
X0558608Y0049486D01*
X0557946Y0049967D01*
X0557367Y0050545D01*
X0556886Y0051208D01*
X0556514Y0051937D01*
X0556261Y0052715D01*
X0556258Y0052738D01*
X0555578Y0051097D01*
X0554170Y0049688D01*
X0552329Y0048926D01*
X0550337Y0048926D01*
X0548497Y0049688D01*
X0547089Y0051097D01*
X0546326Y0052937D01*
X0546326Y0054929D01*
X0547089Y0056769D01*
X0548497Y0058178D01*
X0550337Y0058940D01*
X0552329Y0058940D01*
X0554170Y0058178D01*
X0555578Y0056769D01*
X0556258Y0055128D01*
X0556261Y0055151D01*
X0556514Y0055929D01*
X0556886Y0056658D01*
X0557367Y0057321D01*
X0557946Y0057899D01*
X0558608Y0058380D01*
X0559337Y0058752D01*
X0560116Y0059005D01*
X0560833Y0059119D01*
X0560833Y0054433D01*
X0561833Y0054433D01*
X0561833Y0059119D01*
X0562551Y0059005D01*
X0563329Y0058752D01*
X0564059Y0058380D01*
X0564721Y0057899D01*
X0565300Y0057321D01*
X0565781Y0056658D01*
X0566152Y0055929D01*
X0566405Y0055151D01*
X0566409Y0055128D01*
X0567089Y0056769D01*
X0568497Y0058178D01*
X0570337Y0058940D01*
X0572329Y0058940D01*
X0574170Y0058178D01*
X0575578Y0056769D01*
X0576333Y0054946D01*
X0577089Y0056769D01*
X0578497Y0058178D01*
X0580337Y0058940D01*
X0582329Y0058940D01*
X0584170Y0058178D01*
X0585578Y0056769D01*
X0585464Y0056884D02*
X0587203Y0056884D01*
X0588202Y0057882D02*
X0584465Y0057882D01*
X0582472Y0058881D02*
X0590194Y0058881D01*
X0592472Y0058881D02*
X0600194Y0058881D01*
X0598202Y0057882D02*
X0594465Y0057882D01*
X0595464Y0056884D02*
X0597203Y0056884D01*
X0596722Y0055885D02*
X0595944Y0055885D01*
X0596321Y0052890D02*
X0596346Y0052890D01*
X0596759Y0051891D02*
X0595907Y0051891D01*
X0595374Y0050893D02*
X0597292Y0050893D01*
X0598291Y0049894D02*
X0594376Y0049894D01*
X0604376Y0049894D02*
X0608291Y0049894D01*
X0607292Y0050893D02*
X0605374Y0050893D01*
X0605907Y0051891D02*
X0606759Y0051891D01*
X0606346Y0052890D02*
X0606321Y0052890D01*
X0610833Y0053933D02*
X0611333Y0053933D01*
X0610833Y0053933D02*
X0600833Y0063933D01*
X0600833Y0071433D01*
X0608333Y0071433D01*
X0608333Y0070587D01*
X0611806Y0070863D02*
X0643423Y0070863D01*
X0642824Y0071462D02*
X0644051Y0070235D01*
X0645655Y0069571D01*
X0647390Y0069571D01*
X0648993Y0070235D01*
X0650220Y0071462D01*
X0650884Y0073065D01*
X0650884Y0074801D01*
X0650220Y0076404D01*
X0648993Y0077631D01*
X0647390Y0078295D01*
X0645655Y0078295D01*
X0644051Y0077631D01*
X0642824Y0076404D01*
X0642160Y0074801D01*
X0642160Y0073065D01*
X0642824Y0071462D01*
X0642659Y0071862D02*
X0611806Y0071862D01*
X0611806Y0072860D02*
X0642245Y0072860D01*
X0642160Y0073859D02*
X0611044Y0073859D01*
X0611040Y0074004D02*
X0611806Y0074770D01*
X0611806Y0079789D01*
X0611040Y0080555D01*
X0609267Y0080555D01*
X0609082Y0080740D01*
X0590140Y0099682D01*
X0590140Y0109262D01*
X0591170Y0109688D01*
X0592578Y0111097D01*
X0593333Y0112920D01*
X0594089Y0111097D01*
X0595497Y0109688D01*
X0597337Y0108926D01*
X0599329Y0108926D01*
X0601170Y0109688D01*
X0602578Y0111097D01*
X0603333Y0112920D01*
X0604089Y0111097D01*
X0605497Y0109688D01*
X0607337Y0108926D01*
X0609329Y0108926D01*
X0611170Y0109688D01*
X0612578Y0111097D01*
X0613340Y0112937D01*
X0613340Y0114929D01*
X0612578Y0116769D01*
X0611170Y0118178D01*
X0609329Y0118940D01*
X0607337Y0118940D01*
X0605497Y0118178D01*
X0604089Y0116769D01*
X0603333Y0114946D01*
X0602578Y0116769D01*
X0601170Y0118178D01*
X0599329Y0118940D01*
X0597337Y0118940D01*
X0595497Y0118178D01*
X0594089Y0116769D01*
X0593333Y0114946D01*
X0592578Y0116769D01*
X0591170Y0118178D01*
X0589329Y0118940D01*
X0587337Y0118940D01*
X0585497Y0118178D01*
X0584089Y0116769D01*
X0583333Y0114946D01*
X0582578Y0116769D01*
X0581170Y0118178D01*
X0579329Y0118940D01*
X0577337Y0118940D01*
X0575497Y0118178D01*
X0574089Y0116769D01*
X0573333Y0114946D01*
X0572578Y0116769D01*
X0571170Y0118178D01*
X0569329Y0118940D01*
X0567337Y0118940D01*
X0565497Y0118178D01*
X0564089Y0116769D01*
X0563333Y0114946D01*
X0562578Y0116769D01*
X0561170Y0118178D01*
X0559329Y0118940D01*
X0557337Y0118940D01*
X0555497Y0118178D01*
X0554089Y0116769D01*
X0553333Y0114946D01*
X0552578Y0116769D01*
X0551170Y0118178D01*
X0549329Y0118940D01*
X0547337Y0118940D01*
X0545497Y0118178D01*
X0544089Y0116769D01*
X0543333Y0114946D01*
X0542578Y0116769D01*
X0541170Y0118178D01*
X0539329Y0118940D01*
X0537337Y0118940D01*
X0535497Y0118178D01*
X0534089Y0116769D01*
X0533333Y0114946D01*
X0532578Y0116769D01*
X0531170Y0118178D01*
X0529329Y0118940D01*
X0527337Y0118940D01*
X0525497Y0118178D01*
X0524089Y0116769D01*
X0523333Y0114946D01*
X0522578Y0116769D01*
X0521170Y0118178D01*
X0519329Y0118940D01*
X0517337Y0118940D01*
X0515497Y0118178D01*
X0514089Y0116769D01*
X0513333Y0114946D01*
X0512578Y0116769D01*
X0511170Y0118178D01*
X0509329Y0118940D01*
X0507337Y0118940D01*
X0505497Y0118178D01*
X0504089Y0116769D01*
X0503333Y0114946D01*
X0502578Y0116769D01*
X0501170Y0118178D01*
X0499329Y0118940D01*
X0497337Y0118940D01*
X0495497Y0118178D01*
X0494089Y0116769D01*
X0493326Y0114929D01*
X0493326Y0112937D01*
X0494089Y0111097D01*
X0495497Y0109688D01*
X0497337Y0108926D01*
X0499329Y0108926D01*
X0501170Y0109688D01*
X0502578Y0111097D01*
X0503333Y0112920D01*
X0504089Y0111097D01*
X0505497Y0109688D01*
X0507337Y0108926D01*
X0509329Y0108926D01*
X0511170Y0109688D01*
X0512578Y0111097D01*
X0513333Y0112920D01*
X0514089Y0111097D01*
X0515497Y0109688D01*
X0517337Y0108926D01*
X0519329Y0108926D01*
X0521170Y0109688D01*
X0522578Y0111097D01*
X0523333Y0112920D01*
X0523753Y0111908D01*
X0519392Y0107547D01*
X0504392Y0107547D01*
X0477400Y0080555D01*
X0475627Y0080555D01*
X0474861Y0079789D01*
X0474861Y0074770D01*
X0475627Y0074004D01*
X0481040Y0074004D01*
X0481806Y0074770D01*
X0481806Y0079789D01*
X0481776Y0079820D01*
X0505889Y0103933D01*
X0520889Y0103933D01*
X0521947Y0104992D01*
X0526308Y0109352D01*
X0527337Y0108926D01*
X0529329Y0108926D01*
X0531170Y0109688D01*
X0532578Y0111097D01*
X0533333Y0112920D01*
X0534089Y0111097D01*
X0535497Y0109688D01*
X0537337Y0108926D01*
X0539329Y0108926D01*
X0541170Y0109688D01*
X0542578Y0111097D01*
X0543333Y0112920D01*
X0543753Y0111908D01*
X0532585Y0100740D01*
X0512585Y0100740D01*
X0511526Y0099682D01*
X0492585Y0080740D01*
X0492400Y0080555D01*
X0490627Y0080555D01*
X0489861Y0079789D01*
X0489861Y0074770D01*
X0490627Y0074004D01*
X0496040Y0074004D01*
X0496806Y0074770D01*
X0496806Y0079789D01*
X0496776Y0079820D01*
X0514082Y0097126D01*
X0534082Y0097126D01*
X0535140Y0098185D01*
X0546308Y0109352D01*
X0547337Y0108926D01*
X0549329Y0108926D01*
X0551170Y0109688D01*
X0552578Y0111097D01*
X0553333Y0112920D01*
X0554089Y0111097D01*
X0555497Y0109688D01*
X0557337Y0108926D01*
X0559329Y0108926D01*
X0560359Y0109352D01*
X0589891Y0079820D01*
X0589861Y0079789D01*
X0589861Y0074770D01*
X0590627Y0074004D01*
X0596040Y0074004D01*
X0596806Y0074770D01*
X0596806Y0079789D01*
X0596040Y0080555D01*
X0594267Y0080555D01*
X0594082Y0080740D01*
X0562914Y0111908D01*
X0563333Y0112920D01*
X0564089Y0111097D01*
X0565497Y0109688D01*
X0567337Y0108926D01*
X0569329Y0108926D01*
X0571170Y0109688D01*
X0572578Y0111097D01*
X0573333Y0112920D01*
X0574089Y0111097D01*
X0575497Y0109688D01*
X0577337Y0108926D01*
X0579329Y0108926D01*
X0581170Y0109688D01*
X0582578Y0111097D01*
X0583333Y0112920D01*
X0584089Y0111097D01*
X0585497Y0109688D01*
X0586526Y0109262D01*
X0586526Y0098185D01*
X0587585Y0097126D01*
X0604891Y0079820D01*
X0604861Y0079789D01*
X0604861Y0074770D01*
X0605627Y0074004D01*
X0611040Y0074004D01*
X0611806Y0074857D02*
X0642183Y0074857D01*
X0642597Y0075856D02*
X0611806Y0075856D01*
X0611806Y0076854D02*
X0643274Y0076854D01*
X0644586Y0077853D02*
X0611806Y0077853D01*
X0611806Y0078851D02*
X0661758Y0078851D01*
X0661807Y0079004D02*
X0661576Y0078293D01*
X0661459Y0077555D01*
X0661459Y0074433D01*
X0665707Y0074433D01*
X0665707Y0073433D01*
X0661459Y0073433D01*
X0661459Y0070311D01*
X0661576Y0069573D01*
X0661807Y0068862D01*
X0662146Y0068197D01*
X0662586Y0067592D01*
X0663114Y0067063D01*
X0663719Y0066624D01*
X0664385Y0066285D01*
X0665095Y0066054D01*
X0665707Y0065957D01*
X0665707Y0073433D01*
X0666707Y0073433D01*
X0666707Y0065957D01*
X0667319Y0066054D01*
X0668030Y0066285D01*
X0668696Y0066624D01*
X0669300Y0067063D01*
X0669829Y0067592D01*
X0670268Y0068197D01*
X0670608Y0068862D01*
X0670838Y0069573D01*
X0670955Y0070311D01*
X0670955Y0073433D01*
X0666707Y0073433D01*
X0666707Y0074433D01*
X0665707Y0074433D01*
X0665707Y0081909D01*
X0665095Y0081812D01*
X0664385Y0081581D01*
X0663719Y0081242D01*
X0663114Y0080803D01*
X0662586Y0080274D01*
X0662146Y0079670D01*
X0661807Y0079004D01*
X0662277Y0079850D02*
X0652195Y0079850D01*
X0652351Y0079914D02*
X0650676Y0079220D01*
X0642368Y0079220D01*
X0640694Y0079914D01*
X0639413Y0081195D01*
X0638719Y0082870D01*
X0638719Y0084682D01*
X0639413Y0086356D01*
X0640694Y0087637D01*
X0642368Y0088331D01*
X0650676Y0088331D01*
X0652351Y0087637D01*
X0653632Y0086356D01*
X0654325Y0084682D01*
X0654325Y0082870D01*
X0653632Y0081195D01*
X0652351Y0079914D01*
X0653285Y0080848D02*
X0663177Y0080848D01*
X0665313Y0081847D02*
X0653902Y0081847D01*
X0654315Y0082845D02*
X0681033Y0082845D01*
X0681033Y0081847D02*
X0667101Y0081847D01*
X0667319Y0081812D02*
X0666707Y0081909D01*
X0666707Y0074433D01*
X0670955Y0074433D01*
X0670955Y0077555D01*
X0670838Y0078293D01*
X0670608Y0079004D01*
X0670268Y0079670D01*
X0669829Y0080274D01*
X0669300Y0080803D01*
X0668696Y0081242D01*
X0668030Y0081581D01*
X0667319Y0081812D01*
X0666707Y0081847D02*
X0665707Y0081847D01*
X0665707Y0080848D02*
X0666707Y0080848D01*
X0666707Y0079850D02*
X0665707Y0079850D01*
X0665707Y0078851D02*
X0666707Y0078851D01*
X0666707Y0077853D02*
X0665707Y0077853D01*
X0665707Y0076854D02*
X0666707Y0076854D01*
X0666707Y0075856D02*
X0665707Y0075856D01*
X0665707Y0074857D02*
X0666707Y0074857D01*
X0666707Y0073859D02*
X0681033Y0073859D01*
X0681033Y0074857D02*
X0670955Y0074857D01*
X0670955Y0075856D02*
X0681033Y0075856D01*
X0681033Y0076854D02*
X0670955Y0076854D01*
X0670908Y0077853D02*
X0681033Y0077853D01*
X0681033Y0078851D02*
X0670657Y0078851D01*
X0670137Y0079850D02*
X0681033Y0079850D01*
X0681033Y0080848D02*
X0669238Y0080848D01*
X0661507Y0077853D02*
X0648459Y0077853D01*
X0649770Y0076854D02*
X0661459Y0076854D01*
X0661459Y0075856D02*
X0650448Y0075856D01*
X0650861Y0074857D02*
X0661459Y0074857D01*
X0665707Y0073859D02*
X0650884Y0073859D01*
X0650799Y0072860D02*
X0661459Y0072860D01*
X0661459Y0071862D02*
X0650386Y0071862D01*
X0649621Y0070863D02*
X0661459Y0070863D01*
X0661530Y0069865D02*
X0648099Y0069865D01*
X0644945Y0069865D02*
X0611806Y0069865D01*
X0611806Y0068866D02*
X0661806Y0068866D01*
X0662385Y0067868D02*
X0652435Y0067868D01*
X0653434Y0066869D02*
X0663382Y0066869D01*
X0665707Y0066869D02*
X0666707Y0066869D01*
X0666707Y0067868D02*
X0665707Y0067868D01*
X0665707Y0068866D02*
X0666707Y0068866D01*
X0666707Y0069865D02*
X0665707Y0069865D01*
X0665707Y0070863D02*
X0666707Y0070863D01*
X0666707Y0071862D02*
X0665707Y0071862D01*
X0665707Y0072860D02*
X0666707Y0072860D01*
X0670955Y0072860D02*
X0681033Y0072860D01*
X0681033Y0071862D02*
X0670955Y0071862D01*
X0670955Y0070863D02*
X0681033Y0070863D01*
X0681033Y0069865D02*
X0670885Y0069865D01*
X0670609Y0068866D02*
X0681033Y0068866D01*
X0681033Y0067868D02*
X0670029Y0067868D01*
X0669033Y0066869D02*
X0681033Y0066869D01*
X0681033Y0065871D02*
X0653963Y0065871D01*
X0654325Y0064872D02*
X0681033Y0064872D01*
X0681033Y0063874D02*
X0654325Y0063874D01*
X0654197Y0062875D02*
X0681033Y0062875D01*
X0681033Y0061877D02*
X0653784Y0061877D01*
X0653000Y0060878D02*
X0681033Y0060878D01*
X0681033Y0057882D02*
X0678585Y0057882D01*
X0679583Y0056884D02*
X0681033Y0056884D01*
X0681033Y0055885D02*
X0680093Y0055885D01*
X0680412Y0054887D02*
X0681033Y0054887D01*
X0681033Y0053888D02*
X0680412Y0053888D01*
X0680209Y0052890D02*
X0681033Y0052890D01*
X0681033Y0051891D02*
X0679795Y0051891D01*
X0678864Y0050893D02*
X0681033Y0050893D01*
X0673236Y0050893D02*
X0669021Y0050893D01*
X0669953Y0051891D02*
X0672304Y0051891D01*
X0671891Y0052890D02*
X0670366Y0052890D01*
X0670570Y0053888D02*
X0671688Y0053888D01*
X0671688Y0054887D02*
X0670570Y0054887D01*
X0670251Y0055885D02*
X0672006Y0055885D01*
X0672517Y0056884D02*
X0669741Y0056884D01*
X0668742Y0057882D02*
X0673515Y0057882D01*
X0641538Y0059879D02*
X0607443Y0059879D01*
X0608441Y0058881D02*
X0610194Y0058881D01*
X0612472Y0058881D02*
X0620194Y0058881D01*
X0618202Y0057882D02*
X0614465Y0057882D01*
X0615464Y0056884D02*
X0617203Y0056884D01*
X0616722Y0055885D02*
X0615944Y0055885D01*
X0626340Y0054887D02*
X0638719Y0054887D01*
X0638719Y0053888D02*
X0626340Y0053888D01*
X0626321Y0052890D02*
X0638906Y0052890D01*
X0639320Y0051891D02*
X0625907Y0051891D01*
X0625374Y0050893D02*
X0640188Y0050893D01*
X0641882Y0049894D02*
X0624376Y0049894D01*
X0618291Y0049894D02*
X0614376Y0049894D01*
X0615374Y0050893D02*
X0617292Y0050893D01*
X0616759Y0051891D02*
X0615907Y0051891D01*
X0616321Y0052890D02*
X0616346Y0052890D01*
X0624805Y0045900D02*
X0681033Y0045900D01*
X0681033Y0044902D02*
X0627215Y0044902D01*
X0628263Y0043903D02*
X0681033Y0043903D01*
X0681033Y0042905D02*
X0629261Y0042905D01*
X0629679Y0041906D02*
X0681033Y0041906D01*
X0681033Y0040908D02*
X0630092Y0040908D01*
X0630333Y0039909D02*
X0681033Y0039909D01*
X0681033Y0038933D02*
X0680925Y0037275D01*
X0680067Y0034073D01*
X0678409Y0031202D01*
X0676065Y0028857D01*
X0673193Y0027200D01*
X0669991Y0026342D01*
X0668333Y0026233D01*
X0443333Y0026233D01*
X0442129Y0026328D01*
X0440366Y0026901D01*
X0436301Y0030965D01*
X0435728Y0032729D01*
X0435633Y0033933D01*
X0435633Y0113933D01*
X0435728Y0115138D01*
X0436301Y0116901D01*
X0440366Y0120965D01*
X0442129Y0121538D01*
X0443333Y0121633D01*
X0656583Y0121633D01*
X0680533Y0112053D01*
X0680925Y0110591D01*
X0681033Y0108933D01*
X0681033Y0038933D01*
X0681032Y0038911D02*
X0630333Y0038911D01*
X0630333Y0037912D02*
X0680966Y0037912D01*
X0680828Y0036914D02*
X0630074Y0036914D01*
X0629660Y0035915D02*
X0680560Y0035915D01*
X0680293Y0034917D02*
X0629216Y0034917D01*
X0628218Y0033918D02*
X0679977Y0033918D01*
X0679401Y0032920D02*
X0627108Y0032920D01*
X0619559Y0032920D02*
X0613333Y0032920D01*
X0613340Y0033918D02*
X0618449Y0033918D01*
X0617450Y0034917D02*
X0613340Y0034917D01*
X0612932Y0035915D02*
X0617007Y0035915D01*
X0616593Y0036914D02*
X0612434Y0036914D01*
X0611435Y0037912D02*
X0616333Y0037912D01*
X0605231Y0037912D02*
X0601435Y0037912D01*
X0602434Y0036914D02*
X0604233Y0036914D01*
X0603735Y0035915D02*
X0602932Y0035915D01*
X0594233Y0036914D02*
X0592434Y0036914D01*
X0592932Y0035915D02*
X0593735Y0035915D01*
X0595231Y0037912D02*
X0591435Y0037912D01*
X0577307Y0043937D02*
X0568333Y0034963D01*
X0568333Y0033933D01*
X0563333Y0032920D02*
X0563333Y0032920D01*
X0562920Y0031921D02*
X0563747Y0031921D01*
X0564263Y0030923D02*
X0562404Y0030923D01*
X0561405Y0029924D02*
X0565261Y0029924D01*
X0571405Y0029924D02*
X0575261Y0029924D01*
X0574263Y0030923D02*
X0572404Y0030923D01*
X0572920Y0031921D02*
X0573747Y0031921D01*
X0573333Y0032920D02*
X0573333Y0032920D01*
X0582404Y0030923D02*
X0584263Y0030923D01*
X0583747Y0031921D02*
X0582920Y0031921D01*
X0583333Y0032920D02*
X0583333Y0032920D01*
X0592404Y0030923D02*
X0594263Y0030923D01*
X0593747Y0031921D02*
X0592920Y0031921D01*
X0593333Y0032920D02*
X0593333Y0032920D01*
X0602404Y0030923D02*
X0604263Y0030923D01*
X0603747Y0031921D02*
X0602920Y0031921D01*
X0603333Y0032920D02*
X0603333Y0032920D01*
X0612404Y0030923D02*
X0678130Y0030923D01*
X0678824Y0031921D02*
X0612920Y0031921D01*
X0611405Y0029924D02*
X0677131Y0029924D01*
X0676133Y0028926D02*
X0489750Y0028926D01*
X0488833Y0028926D02*
X0487833Y0028926D01*
X0486917Y0028926D02*
X0438341Y0028926D01*
X0437342Y0029924D02*
X0455261Y0029924D01*
X0454263Y0030923D02*
X0436344Y0030923D01*
X0435990Y0031921D02*
X0453747Y0031921D01*
X0453333Y0032920D02*
X0447108Y0032920D01*
X0448218Y0033918D02*
X0453326Y0033918D01*
X0453326Y0034917D02*
X0449216Y0034917D01*
X0449660Y0035915D02*
X0453735Y0035915D01*
X0454233Y0036914D02*
X0450074Y0036914D01*
X0450333Y0037912D02*
X0455231Y0037912D01*
X0457266Y0038911D02*
X0450333Y0038911D01*
X0450333Y0039909D02*
X0524802Y0039909D01*
X0525800Y0038911D02*
X0519400Y0038911D01*
X0517266Y0038911D02*
X0509400Y0038911D01*
X0507266Y0038911D02*
X0499400Y0038911D01*
X0497266Y0038911D02*
X0489841Y0038911D01*
X0488833Y0038911D02*
X0487833Y0038911D01*
X0487833Y0037912D02*
X0488833Y0037912D01*
X0488833Y0036914D02*
X0487833Y0036914D01*
X0487833Y0035915D02*
X0488833Y0035915D01*
X0488833Y0034917D02*
X0487833Y0034917D01*
X0487833Y0032920D02*
X0488833Y0032920D01*
X0488833Y0031921D02*
X0487833Y0031921D01*
X0487833Y0030923D02*
X0488833Y0030923D01*
X0488833Y0029924D02*
X0487833Y0029924D01*
X0485004Y0029924D02*
X0481405Y0029924D01*
X0482404Y0030923D02*
X0484093Y0030923D01*
X0483522Y0031921D02*
X0482920Y0031921D01*
X0491662Y0029924D02*
X0495261Y0029924D01*
X0494263Y0030923D02*
X0492574Y0030923D01*
X0493144Y0031921D02*
X0493747Y0031921D01*
X0501405Y0029924D02*
X0505261Y0029924D01*
X0504263Y0030923D02*
X0502404Y0030923D01*
X0502920Y0031921D02*
X0503747Y0031921D01*
X0503333Y0032920D02*
X0503333Y0032920D01*
X0502932Y0035915D02*
X0503735Y0035915D01*
X0504233Y0036914D02*
X0502434Y0036914D01*
X0501435Y0037912D02*
X0505231Y0037912D01*
X0511435Y0037912D02*
X0515231Y0037912D01*
X0514233Y0036914D02*
X0512434Y0036914D01*
X0512932Y0035915D02*
X0513735Y0035915D01*
X0522434Y0036914D02*
X0524233Y0036914D01*
X0523735Y0035915D02*
X0522932Y0035915D01*
X0528333Y0033933D02*
X0528333Y0038933D01*
X0520833Y0046433D01*
X0445833Y0046433D01*
X0438333Y0053933D01*
X0438333Y0066433D01*
X0448333Y0076433D01*
X0462487Y0076433D01*
X0463333Y0077280D01*
X0466806Y0076854D02*
X0474861Y0076854D01*
X0474861Y0075856D02*
X0466806Y0075856D01*
X0466806Y0074857D02*
X0474861Y0074857D01*
X0475623Y0073859D02*
X0466044Y0073859D01*
X0460623Y0073859D02*
X0448314Y0073859D01*
X0447316Y0072860D02*
X0459861Y0072860D01*
X0459861Y0071862D02*
X0446317Y0071862D01*
X0445319Y0070863D02*
X0459861Y0070863D01*
X0459861Y0069865D02*
X0444320Y0069865D01*
X0443322Y0068866D02*
X0459861Y0068866D01*
X0460070Y0067868D02*
X0442323Y0067868D01*
X0441325Y0066869D02*
X0499026Y0066869D01*
X0499026Y0065871D02*
X0440326Y0065871D01*
X0440140Y0064872D02*
X0499026Y0064872D01*
X0499026Y0063874D02*
X0440140Y0063874D01*
X0440140Y0062875D02*
X0499026Y0062875D01*
X0499026Y0061877D02*
X0440140Y0061877D01*
X0440140Y0060878D02*
X0499026Y0060878D01*
X0499026Y0059879D02*
X0440140Y0059879D01*
X0440140Y0058881D02*
X0444694Y0058881D01*
X0442702Y0057882D02*
X0440140Y0057882D01*
X0440140Y0056884D02*
X0441703Y0056884D01*
X0441222Y0055885D02*
X0440140Y0055885D01*
X0440140Y0054887D02*
X0440826Y0054887D01*
X0436526Y0054887D02*
X0435633Y0054887D01*
X0435633Y0055885D02*
X0436526Y0055885D01*
X0436526Y0056884D02*
X0435633Y0056884D01*
X0435633Y0057882D02*
X0436526Y0057882D01*
X0436526Y0058881D02*
X0435633Y0058881D01*
X0435633Y0059879D02*
X0436526Y0059879D01*
X0436526Y0060878D02*
X0435633Y0060878D01*
X0435633Y0061877D02*
X0436526Y0061877D01*
X0436526Y0062875D02*
X0435633Y0062875D01*
X0435633Y0063874D02*
X0436526Y0063874D01*
X0436526Y0064872D02*
X0435633Y0064872D01*
X0435633Y0065871D02*
X0436526Y0065871D01*
X0436526Y0066869D02*
X0435633Y0066869D01*
X0435633Y0067868D02*
X0437212Y0067868D01*
X0438211Y0068866D02*
X0435633Y0068866D01*
X0435633Y0069865D02*
X0439209Y0069865D01*
X0440208Y0070863D02*
X0435633Y0070863D01*
X0435633Y0071862D02*
X0441206Y0071862D01*
X0442205Y0072860D02*
X0435633Y0072860D01*
X0435633Y0073859D02*
X0443203Y0073859D01*
X0444202Y0074857D02*
X0435633Y0074857D01*
X0435633Y0075856D02*
X0445200Y0075856D01*
X0446199Y0076854D02*
X0435633Y0076854D01*
X0435633Y0077853D02*
X0447197Y0077853D01*
X0435633Y0078851D02*
X0459861Y0078851D01*
X0459921Y0079850D02*
X0435633Y0079850D01*
X0435633Y0080848D02*
X0477693Y0080848D01*
X0478691Y0081847D02*
X0435633Y0081847D01*
X0435633Y0082845D02*
X0479690Y0082845D01*
X0480688Y0083844D02*
X0435633Y0083844D01*
X0435633Y0084842D02*
X0481687Y0084842D01*
X0482685Y0085841D02*
X0435633Y0085841D01*
X0435633Y0086839D02*
X0483684Y0086839D01*
X0484682Y0087838D02*
X0435633Y0087838D01*
X0435633Y0088836D02*
X0485681Y0088836D01*
X0486679Y0089835D02*
X0435633Y0089835D01*
X0435633Y0090833D02*
X0487678Y0090833D01*
X0488677Y0091832D02*
X0435633Y0091832D01*
X0435633Y0092830D02*
X0489675Y0092830D01*
X0490674Y0093829D02*
X0435633Y0093829D01*
X0435633Y0094827D02*
X0491672Y0094827D01*
X0492671Y0095826D02*
X0435633Y0095826D01*
X0435633Y0096824D02*
X0493669Y0096824D01*
X0494668Y0097823D02*
X0435633Y0097823D01*
X0435633Y0098821D02*
X0495666Y0098821D01*
X0496665Y0099820D02*
X0435633Y0099820D01*
X0435633Y0100818D02*
X0497663Y0100818D01*
X0498662Y0101817D02*
X0435633Y0101817D01*
X0435633Y0102815D02*
X0439811Y0102815D01*
X0439368Y0102999D02*
X0441941Y0101933D01*
X0444726Y0101933D01*
X0447298Y0102999D01*
X0449268Y0104968D01*
X0450333Y0107541D01*
X0450333Y0110325D01*
X0449268Y0112898D01*
X0447298Y0114867D01*
X0444726Y0115933D01*
X0441941Y0115933D01*
X0439368Y0114867D01*
X0437399Y0112898D01*
X0436333Y0110325D01*
X0436333Y0107541D01*
X0437399Y0104968D01*
X0439368Y0102999D01*
X0438553Y0103814D02*
X0435633Y0103814D01*
X0435633Y0104812D02*
X0437554Y0104812D01*
X0437050Y0105811D02*
X0435633Y0105811D01*
X0435633Y0106810D02*
X0436636Y0106810D01*
X0436333Y0107808D02*
X0435633Y0107808D01*
X0435633Y0108807D02*
X0436333Y0108807D01*
X0436333Y0109805D02*
X0435633Y0109805D01*
X0435633Y0110804D02*
X0436531Y0110804D01*
X0436945Y0111802D02*
X0435633Y0111802D01*
X0435633Y0112801D02*
X0437359Y0112801D01*
X0438300Y0113799D02*
X0435633Y0113799D01*
X0435701Y0114798D02*
X0439298Y0114798D01*
X0441610Y0115796D02*
X0435942Y0115796D01*
X0436266Y0116795D02*
X0494114Y0116795D01*
X0493685Y0115796D02*
X0445056Y0115796D01*
X0447368Y0114798D02*
X0493326Y0114798D01*
X0493326Y0113799D02*
X0448367Y0113799D01*
X0449308Y0112801D02*
X0493383Y0112801D01*
X0493796Y0111802D02*
X0449722Y0111802D01*
X0450135Y0110804D02*
X0494382Y0110804D01*
X0495380Y0109805D02*
X0450333Y0109805D01*
X0450333Y0108807D02*
X0520651Y0108807D01*
X0521286Y0109805D02*
X0521650Y0109805D01*
X0522285Y0110804D02*
X0522648Y0110804D01*
X0522870Y0111802D02*
X0523647Y0111802D01*
X0523383Y0112801D02*
X0523284Y0112801D01*
X0528333Y0113933D02*
X0520140Y0105740D01*
X0505140Y0105740D01*
X0478333Y0078933D01*
X0478333Y0077280D01*
X0481806Y0076854D02*
X0489861Y0076854D01*
X0489861Y0075856D02*
X0481806Y0075856D01*
X0481806Y0074857D02*
X0489861Y0074857D01*
X0490623Y0073859D02*
X0481044Y0073859D01*
X0478333Y0071433D02*
X0463333Y0071433D01*
X0463333Y0070587D01*
X0466806Y0068866D02*
X0474861Y0068866D01*
X0475070Y0067868D02*
X0466597Y0067868D01*
X0478333Y0070587D02*
X0478333Y0071433D01*
X0493333Y0071433D01*
X0493333Y0070587D01*
X0493333Y0071433D02*
X0500833Y0071433D01*
X0500833Y0058933D01*
X0505833Y0053933D01*
X0501222Y0055885D02*
X0500444Y0055885D01*
X0500327Y0056884D02*
X0499964Y0056884D01*
X0499328Y0057882D02*
X0498965Y0057882D01*
X0499026Y0058881D02*
X0496972Y0058881D01*
X0494694Y0058881D02*
X0486972Y0058881D01*
X0488965Y0057882D02*
X0492702Y0057882D01*
X0491703Y0056884D02*
X0489964Y0056884D01*
X0490444Y0055885D02*
X0491222Y0055885D01*
X0490846Y0052890D02*
X0490821Y0052890D01*
X0490407Y0051891D02*
X0491259Y0051891D01*
X0491792Y0050893D02*
X0489874Y0050893D01*
X0488876Y0049894D02*
X0492791Y0049894D01*
X0498876Y0049894D02*
X0502791Y0049894D01*
X0501792Y0050893D02*
X0499874Y0050893D01*
X0500407Y0051891D02*
X0501259Y0051891D01*
X0500846Y0052890D02*
X0500821Y0052890D01*
X0509874Y0050893D02*
X0511792Y0050893D01*
X0511259Y0051891D02*
X0510407Y0051891D01*
X0510821Y0052890D02*
X0510846Y0052890D01*
X0519874Y0050893D02*
X0541526Y0050893D01*
X0541526Y0051891D02*
X0520407Y0051891D01*
X0520821Y0052890D02*
X0541526Y0052890D01*
X0541526Y0053888D02*
X0520840Y0053888D01*
X0520840Y0054887D02*
X0541526Y0054887D01*
X0541526Y0055885D02*
X0520444Y0055885D01*
X0519964Y0056884D02*
X0541526Y0056884D01*
X0541526Y0057882D02*
X0518965Y0057882D01*
X0516972Y0058881D02*
X0541526Y0058881D01*
X0541526Y0059879D02*
X0502640Y0059879D01*
X0502640Y0060878D02*
X0541526Y0060878D01*
X0541526Y0061877D02*
X0502640Y0061877D01*
X0502640Y0062875D02*
X0541526Y0062875D01*
X0541526Y0063874D02*
X0502640Y0063874D01*
X0502640Y0064872D02*
X0541717Y0064872D01*
X0542715Y0065871D02*
X0502640Y0065871D01*
X0502640Y0066869D02*
X0543714Y0066869D01*
X0544712Y0067868D02*
X0511597Y0067868D01*
X0511806Y0068866D02*
X0545711Y0068866D01*
X0546709Y0069865D02*
X0511806Y0069865D01*
X0511806Y0070863D02*
X0554361Y0070863D01*
X0555360Y0071862D02*
X0511806Y0071862D01*
X0511806Y0072860D02*
X0556358Y0072860D01*
X0557357Y0073859D02*
X0511044Y0073859D01*
X0511040Y0074004D02*
X0511806Y0074770D01*
X0511806Y0078196D01*
X0525735Y0092126D01*
X0561610Y0092126D01*
X0561919Y0091817D01*
X0562837Y0091437D01*
X0563830Y0091437D01*
X0564747Y0091817D01*
X0565449Y0092519D01*
X0565829Y0093437D01*
X0565829Y0094430D01*
X0565449Y0095347D01*
X0564747Y0096049D01*
X0563830Y0096429D01*
X0562837Y0096429D01*
X0561919Y0096049D01*
X0561610Y0095740D01*
X0524238Y0095740D01*
X0523180Y0094682D01*
X0509053Y0080555D01*
X0505627Y0080555D01*
X0504861Y0079789D01*
X0504861Y0074770D01*
X0505627Y0074004D01*
X0511040Y0074004D01*
X0511806Y0074857D02*
X0558355Y0074857D01*
X0559354Y0075856D02*
X0511806Y0075856D01*
X0511806Y0076854D02*
X0559861Y0076854D01*
X0559861Y0077853D02*
X0511806Y0077853D01*
X0512461Y0078851D02*
X0559861Y0078851D01*
X0559921Y0079850D02*
X0513459Y0079850D01*
X0514458Y0080848D02*
X0588863Y0080848D01*
X0589861Y0079850D02*
X0581745Y0079850D01*
X0581806Y0079789D02*
X0581040Y0080555D01*
X0575627Y0080555D01*
X0574861Y0079789D01*
X0574861Y0078240D01*
X0572289Y0078240D01*
X0571789Y0078740D01*
X0569878Y0078740D01*
X0568526Y0077389D01*
X0568526Y0075477D01*
X0569878Y0074126D01*
X0571789Y0074126D01*
X0572289Y0074626D01*
X0575005Y0074626D01*
X0575627Y0074004D01*
X0581040Y0074004D01*
X0581806Y0074770D01*
X0581806Y0079789D01*
X0581806Y0078851D02*
X0589861Y0078851D01*
X0589861Y0077853D02*
X0581806Y0077853D01*
X0581806Y0076854D02*
X0589861Y0076854D01*
X0589861Y0075856D02*
X0581806Y0075856D01*
X0581806Y0074857D02*
X0589861Y0074857D01*
X0590623Y0073859D02*
X0581044Y0073859D01*
X0575623Y0073859D02*
X0566044Y0073859D01*
X0566806Y0074857D02*
X0569147Y0074857D01*
X0568526Y0075856D02*
X0566806Y0075856D01*
X0566806Y0076854D02*
X0568526Y0076854D01*
X0568990Y0077853D02*
X0566806Y0077853D01*
X0566806Y0078851D02*
X0574861Y0078851D01*
X0574921Y0079850D02*
X0566745Y0079850D01*
X0563333Y0077280D02*
X0554987Y0068933D01*
X0548333Y0068933D01*
X0543333Y0063933D01*
X0543333Y0043933D01*
X0548333Y0038933D01*
X0548333Y0033933D01*
X0543735Y0035915D02*
X0542932Y0035915D01*
X0542434Y0036914D02*
X0544233Y0036914D01*
X0545231Y0037912D02*
X0541435Y0037912D01*
X0539400Y0038911D02*
X0545800Y0038911D01*
X0544802Y0039909D02*
X0529913Y0039909D01*
X0530140Y0038911D02*
X0537266Y0038911D01*
X0535231Y0037912D02*
X0531435Y0037912D01*
X0532434Y0036914D02*
X0534233Y0036914D01*
X0533735Y0035915D02*
X0532932Y0035915D01*
X0533333Y0032920D02*
X0533333Y0032920D01*
X0532920Y0031921D02*
X0533747Y0031921D01*
X0534263Y0030923D02*
X0532404Y0030923D01*
X0531405Y0029924D02*
X0535261Y0029924D01*
X0541405Y0029924D02*
X0545261Y0029924D01*
X0544263Y0030923D02*
X0542404Y0030923D01*
X0542920Y0031921D02*
X0543747Y0031921D01*
X0543333Y0032920D02*
X0543333Y0032920D01*
X0551405Y0029924D02*
X0555261Y0029924D01*
X0554263Y0030923D02*
X0552404Y0030923D01*
X0552920Y0031921D02*
X0553747Y0031921D01*
X0553333Y0032920D02*
X0553333Y0032920D01*
X0558333Y0033933D02*
X0561252Y0033933D01*
X0566259Y0038940D01*
X0566340Y0038940D01*
X0581333Y0053933D01*
X0576722Y0055885D02*
X0575944Y0055885D01*
X0575464Y0056884D02*
X0577203Y0056884D01*
X0578202Y0057882D02*
X0574465Y0057882D01*
X0572472Y0058881D02*
X0580194Y0058881D01*
X0570194Y0058881D02*
X0562933Y0058881D01*
X0561833Y0058881D02*
X0560833Y0058881D01*
X0560833Y0057882D02*
X0561833Y0057882D01*
X0561833Y0056884D02*
X0560833Y0056884D01*
X0560833Y0055885D02*
X0561833Y0055885D01*
X0561833Y0054887D02*
X0560833Y0054887D01*
X0557050Y0056884D02*
X0555464Y0056884D01*
X0555944Y0055885D02*
X0556500Y0055885D01*
X0565617Y0056884D02*
X0567203Y0056884D01*
X0566722Y0055885D02*
X0566167Y0055885D01*
X0564738Y0057882D02*
X0568202Y0057882D01*
X0559734Y0058881D02*
X0552472Y0058881D01*
X0554465Y0057882D02*
X0557929Y0057882D01*
X0550194Y0058881D02*
X0545140Y0058881D01*
X0545140Y0059879D02*
X0602331Y0059879D01*
X0602472Y0058881D02*
X0603330Y0058881D01*
X0601333Y0060878D02*
X0545140Y0060878D01*
X0545140Y0061877D02*
X0600334Y0061877D01*
X0599336Y0062875D02*
X0545140Y0062875D01*
X0545829Y0063874D02*
X0599026Y0063874D01*
X0599026Y0064872D02*
X0546828Y0064872D01*
X0547826Y0065871D02*
X0599026Y0065871D01*
X0599026Y0066869D02*
X0548825Y0066869D01*
X0556477Y0067868D02*
X0560070Y0067868D01*
X0559861Y0068866D02*
X0557475Y0068866D01*
X0558474Y0069865D02*
X0559861Y0069865D01*
X0559861Y0070863D02*
X0559472Y0070863D01*
X0563333Y0070587D02*
X0563333Y0071433D01*
X0578333Y0071433D01*
X0578333Y0070587D01*
X0578333Y0071433D02*
X0593333Y0071433D01*
X0593333Y0070587D01*
X0593333Y0071433D02*
X0600833Y0071433D01*
X0599026Y0068866D02*
X0596806Y0068866D01*
X0596597Y0067868D02*
X0599026Y0067868D01*
X0602640Y0067868D02*
X0605070Y0067868D01*
X0604861Y0068866D02*
X0602640Y0068866D01*
X0611597Y0067868D02*
X0640609Y0067868D01*
X0639611Y0066869D02*
X0602640Y0066869D01*
X0602640Y0065871D02*
X0639081Y0065871D01*
X0638719Y0064872D02*
X0602640Y0064872D01*
X0603448Y0063874D02*
X0638719Y0063874D01*
X0638847Y0062875D02*
X0604447Y0062875D01*
X0605445Y0061877D02*
X0639261Y0061877D01*
X0640045Y0060878D02*
X0606444Y0060878D01*
X0590070Y0067868D02*
X0581597Y0067868D01*
X0581806Y0068866D02*
X0589861Y0068866D01*
X0575070Y0067868D02*
X0566597Y0067868D01*
X0566806Y0068866D02*
X0574861Y0068866D01*
X0596044Y0073859D02*
X0605623Y0073859D01*
X0604861Y0074857D02*
X0596806Y0074857D01*
X0596806Y0075856D02*
X0604861Y0075856D01*
X0604861Y0076854D02*
X0596806Y0076854D01*
X0596806Y0077853D02*
X0604861Y0077853D01*
X0604861Y0078851D02*
X0596806Y0078851D01*
X0596745Y0079850D02*
X0604861Y0079850D01*
X0603863Y0080848D02*
X0593974Y0080848D01*
X0592975Y0081847D02*
X0602864Y0081847D01*
X0601866Y0082845D02*
X0591977Y0082845D01*
X0590978Y0083844D02*
X0600867Y0083844D01*
X0599869Y0084842D02*
X0589980Y0084842D01*
X0588981Y0085841D02*
X0598870Y0085841D01*
X0597872Y0086839D02*
X0587983Y0086839D01*
X0586984Y0087838D02*
X0596873Y0087838D01*
X0595874Y0088836D02*
X0585986Y0088836D01*
X0584987Y0089835D02*
X0594876Y0089835D01*
X0593877Y0090833D02*
X0583989Y0090833D01*
X0582990Y0091832D02*
X0592879Y0091832D01*
X0591880Y0092830D02*
X0581992Y0092830D01*
X0580993Y0093829D02*
X0590882Y0093829D01*
X0589883Y0094827D02*
X0579995Y0094827D01*
X0578996Y0095826D02*
X0588885Y0095826D01*
X0587886Y0096824D02*
X0577998Y0096824D01*
X0576999Y0097823D02*
X0586888Y0097823D01*
X0586526Y0098821D02*
X0576001Y0098821D01*
X0575002Y0099820D02*
X0586526Y0099820D01*
X0586526Y0100818D02*
X0574004Y0100818D01*
X0573005Y0101817D02*
X0586526Y0101817D01*
X0586526Y0102815D02*
X0572007Y0102815D01*
X0571008Y0103814D02*
X0586526Y0103814D01*
X0586526Y0104812D02*
X0570009Y0104812D01*
X0569011Y0105811D02*
X0586526Y0105811D01*
X0586526Y0106810D02*
X0568012Y0106810D01*
X0567014Y0107808D02*
X0586526Y0107808D01*
X0586526Y0108807D02*
X0566015Y0108807D01*
X0565380Y0109805D02*
X0565017Y0109805D01*
X0564382Y0110804D02*
X0564018Y0110804D01*
X0563796Y0111802D02*
X0563020Y0111802D01*
X0563284Y0112801D02*
X0563383Y0112801D01*
X0560833Y0111433D02*
X0558333Y0111433D01*
X0558333Y0113933D01*
X0553685Y0115796D02*
X0552981Y0115796D01*
X0552553Y0116795D02*
X0554114Y0116795D01*
X0555112Y0117793D02*
X0551554Y0117793D01*
X0549688Y0118792D02*
X0556979Y0118792D01*
X0559688Y0118792D02*
X0566979Y0118792D01*
X0565112Y0117793D02*
X0561554Y0117793D01*
X0562553Y0116795D02*
X0564114Y0116795D01*
X0563685Y0115796D02*
X0562981Y0115796D01*
X0572553Y0116795D02*
X0574114Y0116795D01*
X0573685Y0115796D02*
X0572981Y0115796D01*
X0582553Y0116795D02*
X0584114Y0116795D01*
X0583685Y0115796D02*
X0582981Y0115796D01*
X0588333Y0113933D02*
X0588333Y0098933D01*
X0608333Y0078933D01*
X0608333Y0077280D01*
X0611745Y0079850D02*
X0640849Y0079850D01*
X0639760Y0080848D02*
X0608974Y0080848D01*
X0607975Y0081847D02*
X0639143Y0081847D01*
X0638729Y0082845D02*
X0606977Y0082845D01*
X0605978Y0083844D02*
X0638719Y0083844D01*
X0638786Y0084842D02*
X0604980Y0084842D01*
X0603981Y0085841D02*
X0639199Y0085841D01*
X0639896Y0086839D02*
X0602983Y0086839D01*
X0601984Y0087838D02*
X0641178Y0087838D01*
X0642368Y0089063D02*
X0640694Y0089756D01*
X0639413Y0091038D01*
X0638719Y0092712D01*
X0638719Y0094524D01*
X0639413Y0096198D01*
X0640694Y0097480D01*
X0642368Y0098173D01*
X0650676Y0098173D01*
X0652351Y0097480D01*
X0653632Y0096198D01*
X0654325Y0094524D01*
X0654325Y0092712D01*
X0653632Y0091038D01*
X0652351Y0089756D01*
X0650676Y0089063D01*
X0642368Y0089063D01*
X0640616Y0089835D02*
X0599987Y0089835D01*
X0598989Y0090833D02*
X0639617Y0090833D01*
X0639084Y0091832D02*
X0597990Y0091832D01*
X0596992Y0092830D02*
X0638719Y0092830D01*
X0638719Y0093829D02*
X0595993Y0093829D01*
X0594995Y0094827D02*
X0638845Y0094827D01*
X0639258Y0095826D02*
X0593996Y0095826D01*
X0592998Y0096824D02*
X0640039Y0096824D01*
X0641522Y0097823D02*
X0591999Y0097823D01*
X0591001Y0098821D02*
X0681033Y0098821D01*
X0681033Y0097823D02*
X0677298Y0097823D01*
X0676918Y0097980D02*
X0675182Y0097980D01*
X0673579Y0097316D01*
X0672352Y0096089D01*
X0671688Y0094486D01*
X0671688Y0092750D01*
X0672352Y0091147D01*
X0673579Y0089920D01*
X0675182Y0089256D01*
X0676918Y0089256D01*
X0678521Y0089920D01*
X0679748Y0091147D01*
X0680412Y0092750D01*
X0680412Y0094486D01*
X0679748Y0096089D01*
X0678521Y0097316D01*
X0676918Y0097980D01*
X0674802Y0097823D02*
X0667455Y0097823D01*
X0667075Y0097980D02*
X0665340Y0097980D01*
X0663736Y0097316D01*
X0662509Y0096089D01*
X0661845Y0094486D01*
X0661845Y0092750D01*
X0662509Y0091147D01*
X0663736Y0089920D01*
X0665340Y0089256D01*
X0667075Y0089256D01*
X0668678Y0089920D01*
X0669905Y0091147D01*
X0670570Y0092750D01*
X0670570Y0094486D01*
X0669905Y0096089D01*
X0668678Y0097316D01*
X0667075Y0097980D01*
X0664960Y0097823D02*
X0651522Y0097823D01*
X0653006Y0096824D02*
X0663245Y0096824D01*
X0662400Y0095826D02*
X0653786Y0095826D01*
X0654200Y0094827D02*
X0661987Y0094827D01*
X0661845Y0093829D02*
X0654325Y0093829D01*
X0654325Y0092830D02*
X0661845Y0092830D01*
X0662226Y0091832D02*
X0653961Y0091832D01*
X0653427Y0090833D02*
X0662823Y0090833D01*
X0663942Y0089835D02*
X0652429Y0089835D01*
X0651866Y0087838D02*
X0681033Y0087838D01*
X0681033Y0088836D02*
X0600986Y0088836D01*
X0584869Y0084842D02*
X0518452Y0084842D01*
X0519450Y0085841D02*
X0583870Y0085841D01*
X0582872Y0086839D02*
X0520449Y0086839D01*
X0521447Y0087838D02*
X0581873Y0087838D01*
X0580874Y0088836D02*
X0522446Y0088836D01*
X0523444Y0089835D02*
X0579876Y0089835D01*
X0578877Y0090833D02*
X0524443Y0090833D01*
X0525441Y0091832D02*
X0561905Y0091832D01*
X0564762Y0091832D02*
X0577879Y0091832D01*
X0576880Y0092830D02*
X0565578Y0092830D01*
X0565829Y0093829D02*
X0575882Y0093829D01*
X0574883Y0094827D02*
X0565665Y0094827D01*
X0564970Y0095826D02*
X0573885Y0095826D01*
X0572886Y0096824D02*
X0513780Y0096824D01*
X0512782Y0095826D02*
X0561696Y0095826D01*
X0563333Y0093933D02*
X0524987Y0093933D01*
X0508333Y0077280D01*
X0504861Y0076854D02*
X0496806Y0076854D01*
X0496806Y0075856D02*
X0504861Y0075856D01*
X0504861Y0074857D02*
X0496806Y0074857D01*
X0496044Y0073859D02*
X0505623Y0073859D01*
X0508333Y0071433D02*
X0500833Y0071433D01*
X0499026Y0068866D02*
X0496806Y0068866D01*
X0496597Y0067868D02*
X0499026Y0067868D01*
X0502640Y0067868D02*
X0505070Y0067868D01*
X0504861Y0068866D02*
X0502640Y0068866D01*
X0508333Y0070587D02*
X0508333Y0071433D01*
X0490070Y0067868D02*
X0481597Y0067868D01*
X0481806Y0068866D02*
X0489861Y0068866D01*
X0489861Y0077853D02*
X0481806Y0077853D01*
X0481806Y0078851D02*
X0489861Y0078851D01*
X0489921Y0079850D02*
X0481806Y0079850D01*
X0482804Y0080848D02*
X0492693Y0080848D01*
X0493691Y0081847D02*
X0483803Y0081847D01*
X0484801Y0082845D02*
X0494690Y0082845D01*
X0495688Y0083844D02*
X0485800Y0083844D01*
X0486798Y0084842D02*
X0496687Y0084842D01*
X0497685Y0085841D02*
X0487797Y0085841D01*
X0488795Y0086839D02*
X0498684Y0086839D01*
X0499682Y0087838D02*
X0489794Y0087838D01*
X0490792Y0088836D02*
X0500681Y0088836D01*
X0501679Y0089835D02*
X0491791Y0089835D01*
X0492789Y0090833D02*
X0502678Y0090833D01*
X0503677Y0091832D02*
X0493788Y0091832D01*
X0494786Y0092830D02*
X0504675Y0092830D01*
X0505674Y0093829D02*
X0495785Y0093829D01*
X0496783Y0094827D02*
X0506672Y0094827D01*
X0507671Y0095826D02*
X0497782Y0095826D01*
X0498780Y0096824D02*
X0508669Y0096824D01*
X0509668Y0097823D02*
X0499779Y0097823D01*
X0500777Y0098821D02*
X0510666Y0098821D01*
X0511665Y0099820D02*
X0501776Y0099820D01*
X0502774Y0100818D02*
X0532663Y0100818D01*
X0533662Y0101817D02*
X0503773Y0101817D01*
X0504771Y0102815D02*
X0534660Y0102815D01*
X0535659Y0103814D02*
X0505770Y0103814D01*
X0502656Y0105811D02*
X0449617Y0105811D01*
X0450030Y0106810D02*
X0503654Y0106810D01*
X0501657Y0104812D02*
X0449112Y0104812D01*
X0448114Y0103814D02*
X0500659Y0103814D01*
X0499660Y0102815D02*
X0446856Y0102815D01*
X0450333Y0107808D02*
X0519653Y0107808D01*
X0522767Y0105811D02*
X0537656Y0105811D01*
X0538654Y0106810D02*
X0523765Y0106810D01*
X0524764Y0107808D02*
X0539653Y0107808D01*
X0540651Y0108807D02*
X0525762Y0108807D01*
X0531286Y0109805D02*
X0535380Y0109805D01*
X0534382Y0110804D02*
X0532285Y0110804D01*
X0532870Y0111802D02*
X0533796Y0111802D01*
X0533383Y0112801D02*
X0533284Y0112801D01*
X0542285Y0110804D02*
X0542648Y0110804D01*
X0542870Y0111802D02*
X0543647Y0111802D01*
X0543383Y0112801D02*
X0543284Y0112801D01*
X0548333Y0113933D02*
X0533333Y0098933D01*
X0513333Y0098933D01*
X0493333Y0078933D01*
X0493333Y0077280D01*
X0496806Y0077853D02*
X0504861Y0077853D01*
X0504861Y0078851D02*
X0496806Y0078851D01*
X0496806Y0079850D02*
X0504921Y0079850D01*
X0509346Y0080848D02*
X0497804Y0080848D01*
X0498803Y0081847D02*
X0510345Y0081847D01*
X0511343Y0082845D02*
X0499801Y0082845D01*
X0500800Y0083844D02*
X0512342Y0083844D01*
X0513340Y0084842D02*
X0501798Y0084842D01*
X0502797Y0085841D02*
X0514339Y0085841D01*
X0515337Y0086839D02*
X0503795Y0086839D01*
X0504794Y0087838D02*
X0516336Y0087838D01*
X0517335Y0088836D02*
X0505792Y0088836D01*
X0506791Y0089835D02*
X0518333Y0089835D01*
X0519332Y0090833D02*
X0507789Y0090833D01*
X0508788Y0091832D02*
X0520330Y0091832D01*
X0521329Y0092830D02*
X0509786Y0092830D01*
X0510785Y0093829D02*
X0522327Y0093829D01*
X0523326Y0094827D02*
X0511783Y0094827D01*
X0534779Y0097823D02*
X0571888Y0097823D01*
X0570889Y0098821D02*
X0535777Y0098821D01*
X0536776Y0099820D02*
X0569891Y0099820D01*
X0568892Y0100818D02*
X0537774Y0100818D01*
X0538773Y0101817D02*
X0567894Y0101817D01*
X0566895Y0102815D02*
X0539771Y0102815D01*
X0540770Y0103814D02*
X0565897Y0103814D01*
X0564898Y0104812D02*
X0541768Y0104812D01*
X0542767Y0105811D02*
X0563900Y0105811D01*
X0562901Y0106810D02*
X0543765Y0106810D01*
X0544764Y0107808D02*
X0561903Y0107808D01*
X0560904Y0108807D02*
X0545762Y0108807D01*
X0541650Y0109805D02*
X0541286Y0109805D01*
X0551286Y0109805D02*
X0555380Y0109805D01*
X0554382Y0110804D02*
X0552285Y0110804D01*
X0552870Y0111802D02*
X0553796Y0111802D01*
X0553383Y0112801D02*
X0553284Y0112801D01*
X0560833Y0111433D02*
X0593333Y0078933D01*
X0593333Y0077280D01*
X0587864Y0081847D02*
X0515456Y0081847D01*
X0516455Y0082845D02*
X0586866Y0082845D01*
X0585867Y0083844D02*
X0517453Y0083844D01*
X0474921Y0079850D02*
X0466745Y0079850D01*
X0466806Y0078851D02*
X0474861Y0078851D01*
X0474861Y0077853D02*
X0466806Y0077853D01*
X0466972Y0058881D02*
X0474694Y0058881D01*
X0472702Y0057882D02*
X0468965Y0057882D01*
X0469964Y0056884D02*
X0471703Y0056884D01*
X0471222Y0055885D02*
X0470444Y0055885D01*
X0479964Y0056884D02*
X0481703Y0056884D01*
X0481222Y0055885D02*
X0480444Y0055885D01*
X0478965Y0057882D02*
X0482702Y0057882D01*
X0484694Y0058881D02*
X0476972Y0058881D01*
X0464694Y0058881D02*
X0457433Y0058881D01*
X0456333Y0058881D02*
X0455333Y0058881D01*
X0455333Y0057882D02*
X0456333Y0057882D01*
X0456333Y0056884D02*
X0455333Y0056884D01*
X0455333Y0055885D02*
X0456333Y0055885D01*
X0456333Y0054887D02*
X0455333Y0054887D01*
X0451550Y0056884D02*
X0449964Y0056884D01*
X0450444Y0055885D02*
X0451000Y0055885D01*
X0460117Y0056884D02*
X0461703Y0056884D01*
X0461222Y0055885D02*
X0460667Y0055885D01*
X0459238Y0057882D02*
X0462702Y0057882D01*
X0454234Y0058881D02*
X0446972Y0058881D01*
X0448965Y0057882D02*
X0452429Y0057882D01*
X0436526Y0053888D02*
X0435633Y0053888D01*
X0435633Y0052890D02*
X0436821Y0052890D01*
X0437819Y0051891D02*
X0435633Y0051891D01*
X0435633Y0050893D02*
X0438818Y0050893D01*
X0439816Y0049894D02*
X0435633Y0049894D01*
X0435633Y0048896D02*
X0440815Y0048896D01*
X0441813Y0047897D02*
X0435633Y0047897D01*
X0435633Y0046899D02*
X0442812Y0046899D01*
X0441862Y0045900D02*
X0435633Y0045900D01*
X0435633Y0044902D02*
X0439451Y0044902D01*
X0438404Y0043903D02*
X0435633Y0043903D01*
X0435633Y0042905D02*
X0437406Y0042905D01*
X0436988Y0041906D02*
X0435633Y0041906D01*
X0435633Y0040908D02*
X0436575Y0040908D01*
X0436333Y0039909D02*
X0435633Y0039909D01*
X0435633Y0038911D02*
X0436333Y0038911D01*
X0436333Y0037912D02*
X0435633Y0037912D01*
X0435633Y0036914D02*
X0436593Y0036914D01*
X0437007Y0035915D02*
X0435633Y0035915D01*
X0435633Y0034917D02*
X0437450Y0034917D01*
X0438449Y0033918D02*
X0435634Y0033918D01*
X0435713Y0032920D02*
X0439559Y0032920D01*
X0461405Y0029924D02*
X0465261Y0029924D01*
X0464263Y0030923D02*
X0462404Y0030923D01*
X0462920Y0031921D02*
X0463747Y0031921D01*
X0463333Y0032920D02*
X0463333Y0032920D01*
X0472404Y0030923D02*
X0474263Y0030923D01*
X0473747Y0031921D02*
X0472920Y0031921D01*
X0473333Y0032920D02*
X0473333Y0032920D01*
X0472932Y0035915D02*
X0473735Y0035915D01*
X0474233Y0036914D02*
X0472434Y0036914D01*
X0471435Y0037912D02*
X0475231Y0037912D01*
X0477266Y0038911D02*
X0469400Y0038911D01*
X0467266Y0038911D02*
X0459400Y0038911D01*
X0461435Y0037912D02*
X0465231Y0037912D01*
X0464233Y0036914D02*
X0462434Y0036914D01*
X0462932Y0035915D02*
X0463735Y0035915D01*
X0479400Y0038911D02*
X0486825Y0038911D01*
X0484963Y0037912D02*
X0481435Y0037912D01*
X0482434Y0036914D02*
X0484071Y0036914D01*
X0483510Y0035915D02*
X0482932Y0035915D01*
X0492595Y0036914D02*
X0494233Y0036914D01*
X0493735Y0035915D02*
X0493157Y0035915D01*
X0491703Y0037912D02*
X0495231Y0037912D01*
X0513333Y0032920D02*
X0513333Y0032920D01*
X0512920Y0031921D02*
X0513747Y0031921D01*
X0514263Y0030923D02*
X0512404Y0030923D01*
X0511405Y0029924D02*
X0515261Y0029924D01*
X0521405Y0029924D02*
X0525261Y0029924D01*
X0524263Y0030923D02*
X0522404Y0030923D01*
X0522920Y0031921D02*
X0523747Y0031921D01*
X0523333Y0032920D02*
X0523333Y0032920D01*
X0521435Y0037912D02*
X0525231Y0037912D01*
X0523803Y0040908D02*
X0450092Y0040908D01*
X0449679Y0041906D02*
X0522805Y0041906D01*
X0521806Y0042905D02*
X0449261Y0042905D01*
X0448263Y0043903D02*
X0520807Y0043903D01*
X0523922Y0045900D02*
X0541526Y0045900D01*
X0541526Y0044902D02*
X0524920Y0044902D01*
X0525919Y0043903D02*
X0541526Y0043903D01*
X0541806Y0042905D02*
X0526917Y0042905D01*
X0527916Y0041906D02*
X0542805Y0041906D01*
X0543803Y0040908D02*
X0528914Y0040908D01*
X0545140Y0044902D02*
X0569746Y0044902D01*
X0568748Y0043903D02*
X0545919Y0043903D01*
X0546917Y0042905D02*
X0567749Y0042905D01*
X0566751Y0041906D02*
X0547916Y0041906D01*
X0548914Y0040908D02*
X0565752Y0040908D01*
X0564673Y0039909D02*
X0549913Y0039909D01*
X0550140Y0038911D02*
X0557266Y0038911D01*
X0559400Y0038911D02*
X0563674Y0038911D01*
X0562676Y0037912D02*
X0561435Y0037912D01*
X0555231Y0037912D02*
X0551435Y0037912D01*
X0552434Y0036914D02*
X0554233Y0036914D01*
X0553735Y0035915D02*
X0552932Y0035915D01*
X0581405Y0029924D02*
X0585261Y0029924D01*
X0591405Y0029924D02*
X0595261Y0029924D01*
X0601405Y0029924D02*
X0605261Y0029924D01*
X0672181Y0026929D02*
X0440338Y0026929D01*
X0439339Y0027927D02*
X0674453Y0027927D01*
X0573741Y0048896D02*
X0562658Y0048896D01*
X0561833Y0048896D02*
X0560833Y0048896D01*
X0560009Y0048896D02*
X0545140Y0048896D01*
X0545140Y0049894D02*
X0548291Y0049894D01*
X0547292Y0050893D02*
X0545140Y0050893D01*
X0545140Y0051891D02*
X0546759Y0051891D01*
X0546346Y0052890D02*
X0545140Y0052890D01*
X0545140Y0053888D02*
X0546326Y0053888D01*
X0546326Y0054887D02*
X0545140Y0054887D01*
X0545140Y0055885D02*
X0546722Y0055885D01*
X0547203Y0056884D02*
X0545140Y0056884D01*
X0545140Y0057882D02*
X0548202Y0057882D01*
X0555907Y0051891D02*
X0556538Y0051891D01*
X0557115Y0050893D02*
X0555374Y0050893D01*
X0554376Y0049894D02*
X0558045Y0049894D01*
X0560833Y0049894D02*
X0561833Y0049894D01*
X0561833Y0050893D02*
X0560833Y0050893D01*
X0560833Y0051891D02*
X0561833Y0051891D01*
X0561833Y0052890D02*
X0560833Y0052890D01*
X0565552Y0050893D02*
X0567292Y0050893D01*
X0566759Y0051891D02*
X0566129Y0051891D01*
X0575374Y0050893D02*
X0575738Y0050893D01*
X0575907Y0051891D02*
X0576736Y0051891D01*
X0576346Y0052890D02*
X0576321Y0052890D01*
X0574739Y0049894D02*
X0574376Y0049894D01*
X0572742Y0047897D02*
X0545140Y0047897D01*
X0545140Y0046899D02*
X0571744Y0046899D01*
X0570745Y0045900D02*
X0545140Y0045900D01*
X0541526Y0046899D02*
X0522923Y0046899D01*
X0521925Y0047897D02*
X0541526Y0047897D01*
X0541526Y0048896D02*
X0457158Y0048896D01*
X0456333Y0048896D02*
X0455333Y0048896D01*
X0454509Y0048896D02*
X0445926Y0048896D01*
X0448876Y0049894D02*
X0452545Y0049894D01*
X0451615Y0050893D02*
X0449874Y0050893D01*
X0450407Y0051891D02*
X0451038Y0051891D01*
X0455333Y0051891D02*
X0456333Y0051891D01*
X0456333Y0050893D02*
X0455333Y0050893D01*
X0455333Y0049894D02*
X0456333Y0049894D01*
X0459121Y0049894D02*
X0462791Y0049894D01*
X0461792Y0050893D02*
X0460052Y0050893D01*
X0460629Y0051891D02*
X0461259Y0051891D01*
X0456333Y0052890D02*
X0455333Y0052890D01*
X0468876Y0049894D02*
X0472791Y0049894D01*
X0471792Y0050893D02*
X0469874Y0050893D01*
X0470407Y0051891D02*
X0471259Y0051891D01*
X0470846Y0052890D02*
X0470821Y0052890D01*
X0479874Y0050893D02*
X0481792Y0050893D01*
X0481259Y0051891D02*
X0480407Y0051891D01*
X0480821Y0052890D02*
X0480846Y0052890D01*
X0482791Y0049894D02*
X0478876Y0049894D01*
X0508876Y0049894D02*
X0512791Y0049894D01*
X0518876Y0049894D02*
X0541526Y0049894D01*
X0564621Y0049894D02*
X0568291Y0049894D01*
X0514694Y0058881D02*
X0506972Y0058881D01*
X0508965Y0057882D02*
X0512702Y0057882D01*
X0511703Y0056884D02*
X0509964Y0056884D01*
X0510444Y0055885D02*
X0511222Y0055885D01*
X0504694Y0058881D02*
X0503441Y0058881D01*
X0570833Y0076433D02*
X0578333Y0076433D01*
X0578333Y0077280D01*
X0653149Y0086839D02*
X0681033Y0086839D01*
X0681033Y0085841D02*
X0653845Y0085841D01*
X0654259Y0084842D02*
X0681033Y0084842D01*
X0681033Y0083844D02*
X0654325Y0083844D01*
X0668473Y0089835D02*
X0673785Y0089835D01*
X0672666Y0090833D02*
X0669592Y0090833D01*
X0670189Y0091832D02*
X0672068Y0091832D01*
X0671688Y0092830D02*
X0670570Y0092830D01*
X0670570Y0093829D02*
X0671688Y0093829D01*
X0671829Y0094827D02*
X0670428Y0094827D01*
X0670014Y0095826D02*
X0672243Y0095826D01*
X0673087Y0096824D02*
X0669170Y0096824D01*
X0679013Y0096824D02*
X0681033Y0096824D01*
X0681033Y0095826D02*
X0679857Y0095826D01*
X0680271Y0094827D02*
X0681033Y0094827D01*
X0681033Y0093829D02*
X0680412Y0093829D01*
X0680412Y0092830D02*
X0681033Y0092830D01*
X0681033Y0091832D02*
X0680032Y0091832D01*
X0679434Y0090833D02*
X0681033Y0090833D01*
X0681033Y0089835D02*
X0678315Y0089835D01*
X0681033Y0099820D02*
X0590140Y0099820D01*
X0590140Y0100818D02*
X0681033Y0100818D01*
X0681033Y0101817D02*
X0590140Y0101817D01*
X0590140Y0102815D02*
X0619811Y0102815D01*
X0619368Y0102999D02*
X0621941Y0101933D01*
X0624726Y0101933D01*
X0627298Y0102999D01*
X0629268Y0104968D01*
X0630333Y0107541D01*
X0630333Y0110325D01*
X0629268Y0112898D01*
X0627298Y0114867D01*
X0624726Y0115933D01*
X0621941Y0115933D01*
X0619368Y0114867D01*
X0617399Y0112898D01*
X0616333Y0110325D01*
X0616333Y0107541D01*
X0617399Y0104968D01*
X0619368Y0102999D01*
X0618553Y0103814D02*
X0590140Y0103814D01*
X0590140Y0104812D02*
X0617554Y0104812D01*
X0617050Y0105811D02*
X0590140Y0105811D01*
X0590140Y0106810D02*
X0616636Y0106810D01*
X0616333Y0107808D02*
X0590140Y0107808D01*
X0590140Y0108807D02*
X0616333Y0108807D01*
X0616333Y0109805D02*
X0611286Y0109805D01*
X0612285Y0110804D02*
X0616531Y0110804D01*
X0616945Y0111802D02*
X0612870Y0111802D01*
X0613284Y0112801D02*
X0617359Y0112801D01*
X0618300Y0113799D02*
X0613340Y0113799D01*
X0613340Y0114798D02*
X0619298Y0114798D01*
X0621610Y0115796D02*
X0612981Y0115796D01*
X0612553Y0116795D02*
X0668679Y0116795D01*
X0666183Y0117793D02*
X0611554Y0117793D01*
X0609688Y0118792D02*
X0663687Y0118792D01*
X0661191Y0119790D02*
X0439190Y0119790D01*
X0438192Y0118792D02*
X0496979Y0118792D01*
X0495112Y0117793D02*
X0437193Y0117793D01*
X0440189Y0120789D02*
X0658694Y0120789D01*
X0671176Y0115796D02*
X0625056Y0115796D01*
X0627368Y0114798D02*
X0673672Y0114798D01*
X0676168Y0113799D02*
X0628367Y0113799D01*
X0629308Y0112801D02*
X0678665Y0112801D01*
X0680600Y0111802D02*
X0629722Y0111802D01*
X0630135Y0110804D02*
X0680868Y0110804D01*
X0680976Y0109805D02*
X0630333Y0109805D01*
X0630333Y0108807D02*
X0681033Y0108807D01*
X0681033Y0107808D02*
X0630333Y0107808D01*
X0630030Y0106810D02*
X0681033Y0106810D01*
X0681033Y0105811D02*
X0629617Y0105811D01*
X0629112Y0104812D02*
X0681033Y0104812D01*
X0681033Y0103814D02*
X0628114Y0103814D01*
X0626856Y0102815D02*
X0681033Y0102815D01*
X0606979Y0118792D02*
X0599688Y0118792D01*
X0601554Y0117793D02*
X0605112Y0117793D01*
X0604114Y0116795D02*
X0602553Y0116795D01*
X0602981Y0115796D02*
X0603685Y0115796D01*
X0594114Y0116795D02*
X0592553Y0116795D01*
X0592981Y0115796D02*
X0593685Y0115796D01*
X0595112Y0117793D02*
X0591554Y0117793D01*
X0589688Y0118792D02*
X0596979Y0118792D01*
X0586979Y0118792D02*
X0579688Y0118792D01*
X0581554Y0117793D02*
X0585112Y0117793D01*
X0576979Y0118792D02*
X0569688Y0118792D01*
X0571554Y0117793D02*
X0575112Y0117793D01*
X0573383Y0112801D02*
X0573284Y0112801D01*
X0572870Y0111802D02*
X0573796Y0111802D01*
X0574382Y0110804D02*
X0572285Y0110804D01*
X0571286Y0109805D02*
X0575380Y0109805D01*
X0581286Y0109805D02*
X0585380Y0109805D01*
X0584382Y0110804D02*
X0582285Y0110804D01*
X0582870Y0111802D02*
X0583796Y0111802D01*
X0583383Y0112801D02*
X0583284Y0112801D01*
X0592285Y0110804D02*
X0594382Y0110804D01*
X0593796Y0111802D02*
X0592870Y0111802D01*
X0593284Y0112801D02*
X0593383Y0112801D01*
X0602285Y0110804D02*
X0604382Y0110804D01*
X0603796Y0111802D02*
X0602870Y0111802D01*
X0603284Y0112801D02*
X0603383Y0112801D01*
X0605380Y0109805D02*
X0601286Y0109805D01*
X0595380Y0109805D02*
X0591286Y0109805D01*
X0546979Y0118792D02*
X0539688Y0118792D01*
X0541554Y0117793D02*
X0545112Y0117793D01*
X0544114Y0116795D02*
X0542553Y0116795D01*
X0542981Y0115796D02*
X0543685Y0115796D01*
X0534114Y0116795D02*
X0532553Y0116795D01*
X0532981Y0115796D02*
X0533685Y0115796D01*
X0535112Y0117793D02*
X0531554Y0117793D01*
X0529688Y0118792D02*
X0536979Y0118792D01*
X0526979Y0118792D02*
X0519688Y0118792D01*
X0521554Y0117793D02*
X0525112Y0117793D01*
X0524114Y0116795D02*
X0522553Y0116795D01*
X0522981Y0115796D02*
X0523685Y0115796D01*
X0514114Y0116795D02*
X0512553Y0116795D01*
X0512981Y0115796D02*
X0513685Y0115796D01*
X0504114Y0116795D02*
X0502553Y0116795D01*
X0502981Y0115796D02*
X0503685Y0115796D01*
X0505112Y0117793D02*
X0501554Y0117793D01*
X0499688Y0118792D02*
X0506979Y0118792D01*
X0509688Y0118792D02*
X0516979Y0118792D01*
X0515112Y0117793D02*
X0511554Y0117793D01*
X0513284Y0112801D02*
X0513383Y0112801D01*
X0513796Y0111802D02*
X0512870Y0111802D01*
X0512285Y0110804D02*
X0514382Y0110804D01*
X0515380Y0109805D02*
X0511286Y0109805D01*
X0505380Y0109805D02*
X0501286Y0109805D01*
X0502285Y0110804D02*
X0504382Y0110804D01*
X0503796Y0111802D02*
X0502870Y0111802D01*
X0503284Y0112801D02*
X0503383Y0112801D01*
X0521768Y0104812D02*
X0536657Y0104812D01*
X0475261Y0029924D02*
X0471405Y0029924D01*
D16*
X0577307Y0043937D03*
X0563333Y0093933D03*
D17*
X0570833Y0076433D03*
M02*
