G75*
%MOIN*%
%OFA0B0*%
%FSLAX25Y25*%
%IPPOS*%
%LPD*%
%AMOC8*
5,1,8,0,0,1.08239X$1,22.5*
%
%ADD10C,0.00000*%
%ADD11C,0.00600*%
D10*
X0438333Y0038933D02*
X0438335Y0039074D01*
X0438341Y0039215D01*
X0438351Y0039355D01*
X0438365Y0039495D01*
X0438383Y0039635D01*
X0438404Y0039774D01*
X0438430Y0039913D01*
X0438459Y0040051D01*
X0438493Y0040187D01*
X0438530Y0040323D01*
X0438571Y0040458D01*
X0438616Y0040592D01*
X0438665Y0040724D01*
X0438717Y0040855D01*
X0438773Y0040984D01*
X0438833Y0041111D01*
X0438896Y0041237D01*
X0438962Y0041361D01*
X0439033Y0041484D01*
X0439106Y0041604D01*
X0439183Y0041722D01*
X0439263Y0041838D01*
X0439347Y0041951D01*
X0439433Y0042062D01*
X0439523Y0042171D01*
X0439616Y0042277D01*
X0439711Y0042380D01*
X0439810Y0042481D01*
X0439911Y0042579D01*
X0440015Y0042674D01*
X0440122Y0042766D01*
X0440231Y0042855D01*
X0440343Y0042940D01*
X0440457Y0043023D01*
X0440573Y0043103D01*
X0440692Y0043179D01*
X0440813Y0043251D01*
X0440935Y0043321D01*
X0441060Y0043386D01*
X0441186Y0043449D01*
X0441314Y0043507D01*
X0441444Y0043562D01*
X0441575Y0043614D01*
X0441708Y0043661D01*
X0441842Y0043705D01*
X0441977Y0043746D01*
X0442113Y0043782D01*
X0442250Y0043814D01*
X0442388Y0043843D01*
X0442526Y0043868D01*
X0442666Y0043888D01*
X0442806Y0043905D01*
X0442946Y0043918D01*
X0443087Y0043927D01*
X0443227Y0043932D01*
X0443368Y0043933D01*
X0443509Y0043930D01*
X0443650Y0043923D01*
X0443790Y0043912D01*
X0443930Y0043897D01*
X0444070Y0043878D01*
X0444209Y0043856D01*
X0444347Y0043829D01*
X0444485Y0043799D01*
X0444621Y0043764D01*
X0444757Y0043726D01*
X0444891Y0043684D01*
X0445025Y0043638D01*
X0445157Y0043589D01*
X0445287Y0043535D01*
X0445416Y0043478D01*
X0445543Y0043418D01*
X0445669Y0043354D01*
X0445792Y0043286D01*
X0445914Y0043215D01*
X0446034Y0043141D01*
X0446151Y0043063D01*
X0446266Y0042982D01*
X0446379Y0042898D01*
X0446490Y0042811D01*
X0446598Y0042720D01*
X0446703Y0042627D01*
X0446806Y0042530D01*
X0446906Y0042431D01*
X0447003Y0042329D01*
X0447097Y0042224D01*
X0447188Y0042117D01*
X0447276Y0042007D01*
X0447361Y0041895D01*
X0447443Y0041780D01*
X0447522Y0041663D01*
X0447597Y0041544D01*
X0447669Y0041423D01*
X0447737Y0041300D01*
X0447802Y0041175D01*
X0447864Y0041048D01*
X0447921Y0040919D01*
X0447976Y0040789D01*
X0448026Y0040658D01*
X0448073Y0040525D01*
X0448116Y0040391D01*
X0448155Y0040255D01*
X0448190Y0040119D01*
X0448222Y0039982D01*
X0448249Y0039844D01*
X0448273Y0039705D01*
X0448293Y0039565D01*
X0448309Y0039425D01*
X0448321Y0039285D01*
X0448329Y0039144D01*
X0448333Y0039003D01*
X0448333Y0038863D01*
X0448329Y0038722D01*
X0448321Y0038581D01*
X0448309Y0038441D01*
X0448293Y0038301D01*
X0448273Y0038161D01*
X0448249Y0038022D01*
X0448222Y0037884D01*
X0448190Y0037747D01*
X0448155Y0037611D01*
X0448116Y0037475D01*
X0448073Y0037341D01*
X0448026Y0037208D01*
X0447976Y0037077D01*
X0447921Y0036947D01*
X0447864Y0036818D01*
X0447802Y0036691D01*
X0447737Y0036566D01*
X0447669Y0036443D01*
X0447597Y0036322D01*
X0447522Y0036203D01*
X0447443Y0036086D01*
X0447361Y0035971D01*
X0447276Y0035859D01*
X0447188Y0035749D01*
X0447097Y0035642D01*
X0447003Y0035537D01*
X0446906Y0035435D01*
X0446806Y0035336D01*
X0446703Y0035239D01*
X0446598Y0035146D01*
X0446490Y0035055D01*
X0446379Y0034968D01*
X0446266Y0034884D01*
X0446151Y0034803D01*
X0446034Y0034725D01*
X0445914Y0034651D01*
X0445792Y0034580D01*
X0445669Y0034512D01*
X0445543Y0034448D01*
X0445416Y0034388D01*
X0445287Y0034331D01*
X0445157Y0034277D01*
X0445025Y0034228D01*
X0444891Y0034182D01*
X0444757Y0034140D01*
X0444621Y0034102D01*
X0444485Y0034067D01*
X0444347Y0034037D01*
X0444209Y0034010D01*
X0444070Y0033988D01*
X0443930Y0033969D01*
X0443790Y0033954D01*
X0443650Y0033943D01*
X0443509Y0033936D01*
X0443368Y0033933D01*
X0443227Y0033934D01*
X0443087Y0033939D01*
X0442946Y0033948D01*
X0442806Y0033961D01*
X0442666Y0033978D01*
X0442526Y0033998D01*
X0442388Y0034023D01*
X0442250Y0034052D01*
X0442113Y0034084D01*
X0441977Y0034120D01*
X0441842Y0034161D01*
X0441708Y0034205D01*
X0441575Y0034252D01*
X0441444Y0034304D01*
X0441314Y0034359D01*
X0441186Y0034417D01*
X0441060Y0034480D01*
X0440935Y0034545D01*
X0440813Y0034615D01*
X0440692Y0034687D01*
X0440573Y0034763D01*
X0440457Y0034843D01*
X0440343Y0034926D01*
X0440231Y0035011D01*
X0440122Y0035100D01*
X0440015Y0035192D01*
X0439911Y0035287D01*
X0439810Y0035385D01*
X0439711Y0035486D01*
X0439616Y0035589D01*
X0439523Y0035695D01*
X0439433Y0035804D01*
X0439347Y0035915D01*
X0439263Y0036028D01*
X0439183Y0036144D01*
X0439106Y0036262D01*
X0439033Y0036382D01*
X0438962Y0036505D01*
X0438896Y0036629D01*
X0438833Y0036755D01*
X0438773Y0036882D01*
X0438717Y0037011D01*
X0438665Y0037142D01*
X0438616Y0037274D01*
X0438571Y0037408D01*
X0438530Y0037543D01*
X0438493Y0037679D01*
X0438459Y0037815D01*
X0438430Y0037953D01*
X0438404Y0038092D01*
X0438383Y0038231D01*
X0438365Y0038371D01*
X0438351Y0038511D01*
X0438341Y0038651D01*
X0438335Y0038792D01*
X0438333Y0038933D01*
X0618333Y0038933D02*
X0618335Y0039074D01*
X0618341Y0039215D01*
X0618351Y0039355D01*
X0618365Y0039495D01*
X0618383Y0039635D01*
X0618404Y0039774D01*
X0618430Y0039913D01*
X0618459Y0040051D01*
X0618493Y0040187D01*
X0618530Y0040323D01*
X0618571Y0040458D01*
X0618616Y0040592D01*
X0618665Y0040724D01*
X0618717Y0040855D01*
X0618773Y0040984D01*
X0618833Y0041111D01*
X0618896Y0041237D01*
X0618962Y0041361D01*
X0619033Y0041484D01*
X0619106Y0041604D01*
X0619183Y0041722D01*
X0619263Y0041838D01*
X0619347Y0041951D01*
X0619433Y0042062D01*
X0619523Y0042171D01*
X0619616Y0042277D01*
X0619711Y0042380D01*
X0619810Y0042481D01*
X0619911Y0042579D01*
X0620015Y0042674D01*
X0620122Y0042766D01*
X0620231Y0042855D01*
X0620343Y0042940D01*
X0620457Y0043023D01*
X0620573Y0043103D01*
X0620692Y0043179D01*
X0620813Y0043251D01*
X0620935Y0043321D01*
X0621060Y0043386D01*
X0621186Y0043449D01*
X0621314Y0043507D01*
X0621444Y0043562D01*
X0621575Y0043614D01*
X0621708Y0043661D01*
X0621842Y0043705D01*
X0621977Y0043746D01*
X0622113Y0043782D01*
X0622250Y0043814D01*
X0622388Y0043843D01*
X0622526Y0043868D01*
X0622666Y0043888D01*
X0622806Y0043905D01*
X0622946Y0043918D01*
X0623087Y0043927D01*
X0623227Y0043932D01*
X0623368Y0043933D01*
X0623509Y0043930D01*
X0623650Y0043923D01*
X0623790Y0043912D01*
X0623930Y0043897D01*
X0624070Y0043878D01*
X0624209Y0043856D01*
X0624347Y0043829D01*
X0624485Y0043799D01*
X0624621Y0043764D01*
X0624757Y0043726D01*
X0624891Y0043684D01*
X0625025Y0043638D01*
X0625157Y0043589D01*
X0625287Y0043535D01*
X0625416Y0043478D01*
X0625543Y0043418D01*
X0625669Y0043354D01*
X0625792Y0043286D01*
X0625914Y0043215D01*
X0626034Y0043141D01*
X0626151Y0043063D01*
X0626266Y0042982D01*
X0626379Y0042898D01*
X0626490Y0042811D01*
X0626598Y0042720D01*
X0626703Y0042627D01*
X0626806Y0042530D01*
X0626906Y0042431D01*
X0627003Y0042329D01*
X0627097Y0042224D01*
X0627188Y0042117D01*
X0627276Y0042007D01*
X0627361Y0041895D01*
X0627443Y0041780D01*
X0627522Y0041663D01*
X0627597Y0041544D01*
X0627669Y0041423D01*
X0627737Y0041300D01*
X0627802Y0041175D01*
X0627864Y0041048D01*
X0627921Y0040919D01*
X0627976Y0040789D01*
X0628026Y0040658D01*
X0628073Y0040525D01*
X0628116Y0040391D01*
X0628155Y0040255D01*
X0628190Y0040119D01*
X0628222Y0039982D01*
X0628249Y0039844D01*
X0628273Y0039705D01*
X0628293Y0039565D01*
X0628309Y0039425D01*
X0628321Y0039285D01*
X0628329Y0039144D01*
X0628333Y0039003D01*
X0628333Y0038863D01*
X0628329Y0038722D01*
X0628321Y0038581D01*
X0628309Y0038441D01*
X0628293Y0038301D01*
X0628273Y0038161D01*
X0628249Y0038022D01*
X0628222Y0037884D01*
X0628190Y0037747D01*
X0628155Y0037611D01*
X0628116Y0037475D01*
X0628073Y0037341D01*
X0628026Y0037208D01*
X0627976Y0037077D01*
X0627921Y0036947D01*
X0627864Y0036818D01*
X0627802Y0036691D01*
X0627737Y0036566D01*
X0627669Y0036443D01*
X0627597Y0036322D01*
X0627522Y0036203D01*
X0627443Y0036086D01*
X0627361Y0035971D01*
X0627276Y0035859D01*
X0627188Y0035749D01*
X0627097Y0035642D01*
X0627003Y0035537D01*
X0626906Y0035435D01*
X0626806Y0035336D01*
X0626703Y0035239D01*
X0626598Y0035146D01*
X0626490Y0035055D01*
X0626379Y0034968D01*
X0626266Y0034884D01*
X0626151Y0034803D01*
X0626034Y0034725D01*
X0625914Y0034651D01*
X0625792Y0034580D01*
X0625669Y0034512D01*
X0625543Y0034448D01*
X0625416Y0034388D01*
X0625287Y0034331D01*
X0625157Y0034277D01*
X0625025Y0034228D01*
X0624891Y0034182D01*
X0624757Y0034140D01*
X0624621Y0034102D01*
X0624485Y0034067D01*
X0624347Y0034037D01*
X0624209Y0034010D01*
X0624070Y0033988D01*
X0623930Y0033969D01*
X0623790Y0033954D01*
X0623650Y0033943D01*
X0623509Y0033936D01*
X0623368Y0033933D01*
X0623227Y0033934D01*
X0623087Y0033939D01*
X0622946Y0033948D01*
X0622806Y0033961D01*
X0622666Y0033978D01*
X0622526Y0033998D01*
X0622388Y0034023D01*
X0622250Y0034052D01*
X0622113Y0034084D01*
X0621977Y0034120D01*
X0621842Y0034161D01*
X0621708Y0034205D01*
X0621575Y0034252D01*
X0621444Y0034304D01*
X0621314Y0034359D01*
X0621186Y0034417D01*
X0621060Y0034480D01*
X0620935Y0034545D01*
X0620813Y0034615D01*
X0620692Y0034687D01*
X0620573Y0034763D01*
X0620457Y0034843D01*
X0620343Y0034926D01*
X0620231Y0035011D01*
X0620122Y0035100D01*
X0620015Y0035192D01*
X0619911Y0035287D01*
X0619810Y0035385D01*
X0619711Y0035486D01*
X0619616Y0035589D01*
X0619523Y0035695D01*
X0619433Y0035804D01*
X0619347Y0035915D01*
X0619263Y0036028D01*
X0619183Y0036144D01*
X0619106Y0036262D01*
X0619033Y0036382D01*
X0618962Y0036505D01*
X0618896Y0036629D01*
X0618833Y0036755D01*
X0618773Y0036882D01*
X0618717Y0037011D01*
X0618665Y0037142D01*
X0618616Y0037274D01*
X0618571Y0037408D01*
X0618530Y0037543D01*
X0618493Y0037679D01*
X0618459Y0037815D01*
X0618430Y0037953D01*
X0618404Y0038092D01*
X0618383Y0038231D01*
X0618365Y0038371D01*
X0618351Y0038511D01*
X0618341Y0038651D01*
X0618335Y0038792D01*
X0618333Y0038933D01*
X0663845Y0054248D02*
X0663847Y0054345D01*
X0663853Y0054442D01*
X0663863Y0054538D01*
X0663877Y0054634D01*
X0663895Y0054730D01*
X0663916Y0054824D01*
X0663942Y0054918D01*
X0663971Y0055010D01*
X0664005Y0055101D01*
X0664041Y0055191D01*
X0664082Y0055279D01*
X0664126Y0055365D01*
X0664174Y0055450D01*
X0664225Y0055532D01*
X0664279Y0055613D01*
X0664337Y0055691D01*
X0664398Y0055766D01*
X0664461Y0055839D01*
X0664528Y0055910D01*
X0664598Y0055977D01*
X0664670Y0056042D01*
X0664745Y0056103D01*
X0664823Y0056162D01*
X0664902Y0056217D01*
X0664984Y0056269D01*
X0665068Y0056317D01*
X0665154Y0056362D01*
X0665242Y0056404D01*
X0665331Y0056442D01*
X0665422Y0056476D01*
X0665514Y0056506D01*
X0665607Y0056533D01*
X0665702Y0056555D01*
X0665797Y0056574D01*
X0665893Y0056589D01*
X0665989Y0056600D01*
X0666086Y0056607D01*
X0666183Y0056610D01*
X0666280Y0056609D01*
X0666377Y0056604D01*
X0666473Y0056595D01*
X0666569Y0056582D01*
X0666665Y0056565D01*
X0666760Y0056544D01*
X0666853Y0056520D01*
X0666946Y0056491D01*
X0667038Y0056459D01*
X0667128Y0056423D01*
X0667216Y0056384D01*
X0667303Y0056340D01*
X0667388Y0056294D01*
X0667471Y0056243D01*
X0667552Y0056190D01*
X0667630Y0056133D01*
X0667707Y0056073D01*
X0667780Y0056010D01*
X0667851Y0055944D01*
X0667919Y0055875D01*
X0667985Y0055803D01*
X0668047Y0055729D01*
X0668106Y0055652D01*
X0668162Y0055573D01*
X0668215Y0055491D01*
X0668265Y0055408D01*
X0668310Y0055322D01*
X0668353Y0055235D01*
X0668392Y0055146D01*
X0668427Y0055056D01*
X0668458Y0054964D01*
X0668485Y0054871D01*
X0668509Y0054777D01*
X0668529Y0054682D01*
X0668545Y0054586D01*
X0668557Y0054490D01*
X0668565Y0054393D01*
X0668569Y0054296D01*
X0668569Y0054200D01*
X0668565Y0054103D01*
X0668557Y0054006D01*
X0668545Y0053910D01*
X0668529Y0053814D01*
X0668509Y0053719D01*
X0668485Y0053625D01*
X0668458Y0053532D01*
X0668427Y0053440D01*
X0668392Y0053350D01*
X0668353Y0053261D01*
X0668310Y0053174D01*
X0668265Y0053088D01*
X0668215Y0053005D01*
X0668162Y0052923D01*
X0668106Y0052844D01*
X0668047Y0052767D01*
X0667985Y0052693D01*
X0667919Y0052621D01*
X0667851Y0052552D01*
X0667780Y0052486D01*
X0667707Y0052423D01*
X0667630Y0052363D01*
X0667552Y0052306D01*
X0667471Y0052253D01*
X0667388Y0052202D01*
X0667303Y0052156D01*
X0667216Y0052112D01*
X0667128Y0052073D01*
X0667038Y0052037D01*
X0666946Y0052005D01*
X0666853Y0051976D01*
X0666760Y0051952D01*
X0666665Y0051931D01*
X0666569Y0051914D01*
X0666473Y0051901D01*
X0666377Y0051892D01*
X0666280Y0051887D01*
X0666183Y0051886D01*
X0666086Y0051889D01*
X0665989Y0051896D01*
X0665893Y0051907D01*
X0665797Y0051922D01*
X0665702Y0051941D01*
X0665607Y0051963D01*
X0665514Y0051990D01*
X0665422Y0052020D01*
X0665331Y0052054D01*
X0665242Y0052092D01*
X0665154Y0052134D01*
X0665068Y0052179D01*
X0664984Y0052227D01*
X0664902Y0052279D01*
X0664823Y0052334D01*
X0664745Y0052393D01*
X0664670Y0052454D01*
X0664598Y0052519D01*
X0664528Y0052586D01*
X0664461Y0052657D01*
X0664398Y0052730D01*
X0664337Y0052805D01*
X0664279Y0052883D01*
X0664225Y0052964D01*
X0664174Y0053046D01*
X0664126Y0053131D01*
X0664082Y0053217D01*
X0664041Y0053305D01*
X0664005Y0053395D01*
X0663971Y0053486D01*
X0663942Y0053578D01*
X0663916Y0053672D01*
X0663895Y0053766D01*
X0663877Y0053862D01*
X0663863Y0053958D01*
X0663853Y0054054D01*
X0663847Y0054151D01*
X0663845Y0054248D01*
X0673688Y0054248D02*
X0673690Y0054345D01*
X0673696Y0054442D01*
X0673706Y0054538D01*
X0673720Y0054634D01*
X0673738Y0054730D01*
X0673759Y0054824D01*
X0673785Y0054918D01*
X0673814Y0055010D01*
X0673848Y0055101D01*
X0673884Y0055191D01*
X0673925Y0055279D01*
X0673969Y0055365D01*
X0674017Y0055450D01*
X0674068Y0055532D01*
X0674122Y0055613D01*
X0674180Y0055691D01*
X0674241Y0055766D01*
X0674304Y0055839D01*
X0674371Y0055910D01*
X0674441Y0055977D01*
X0674513Y0056042D01*
X0674588Y0056103D01*
X0674666Y0056162D01*
X0674745Y0056217D01*
X0674827Y0056269D01*
X0674911Y0056317D01*
X0674997Y0056362D01*
X0675085Y0056404D01*
X0675174Y0056442D01*
X0675265Y0056476D01*
X0675357Y0056506D01*
X0675450Y0056533D01*
X0675545Y0056555D01*
X0675640Y0056574D01*
X0675736Y0056589D01*
X0675832Y0056600D01*
X0675929Y0056607D01*
X0676026Y0056610D01*
X0676123Y0056609D01*
X0676220Y0056604D01*
X0676316Y0056595D01*
X0676412Y0056582D01*
X0676508Y0056565D01*
X0676603Y0056544D01*
X0676696Y0056520D01*
X0676789Y0056491D01*
X0676881Y0056459D01*
X0676971Y0056423D01*
X0677059Y0056384D01*
X0677146Y0056340D01*
X0677231Y0056294D01*
X0677314Y0056243D01*
X0677395Y0056190D01*
X0677473Y0056133D01*
X0677550Y0056073D01*
X0677623Y0056010D01*
X0677694Y0055944D01*
X0677762Y0055875D01*
X0677828Y0055803D01*
X0677890Y0055729D01*
X0677949Y0055652D01*
X0678005Y0055573D01*
X0678058Y0055491D01*
X0678108Y0055408D01*
X0678153Y0055322D01*
X0678196Y0055235D01*
X0678235Y0055146D01*
X0678270Y0055056D01*
X0678301Y0054964D01*
X0678328Y0054871D01*
X0678352Y0054777D01*
X0678372Y0054682D01*
X0678388Y0054586D01*
X0678400Y0054490D01*
X0678408Y0054393D01*
X0678412Y0054296D01*
X0678412Y0054200D01*
X0678408Y0054103D01*
X0678400Y0054006D01*
X0678388Y0053910D01*
X0678372Y0053814D01*
X0678352Y0053719D01*
X0678328Y0053625D01*
X0678301Y0053532D01*
X0678270Y0053440D01*
X0678235Y0053350D01*
X0678196Y0053261D01*
X0678153Y0053174D01*
X0678108Y0053088D01*
X0678058Y0053005D01*
X0678005Y0052923D01*
X0677949Y0052844D01*
X0677890Y0052767D01*
X0677828Y0052693D01*
X0677762Y0052621D01*
X0677694Y0052552D01*
X0677623Y0052486D01*
X0677550Y0052423D01*
X0677473Y0052363D01*
X0677395Y0052306D01*
X0677314Y0052253D01*
X0677231Y0052202D01*
X0677146Y0052156D01*
X0677059Y0052112D01*
X0676971Y0052073D01*
X0676881Y0052037D01*
X0676789Y0052005D01*
X0676696Y0051976D01*
X0676603Y0051952D01*
X0676508Y0051931D01*
X0676412Y0051914D01*
X0676316Y0051901D01*
X0676220Y0051892D01*
X0676123Y0051887D01*
X0676026Y0051886D01*
X0675929Y0051889D01*
X0675832Y0051896D01*
X0675736Y0051907D01*
X0675640Y0051922D01*
X0675545Y0051941D01*
X0675450Y0051963D01*
X0675357Y0051990D01*
X0675265Y0052020D01*
X0675174Y0052054D01*
X0675085Y0052092D01*
X0674997Y0052134D01*
X0674911Y0052179D01*
X0674827Y0052227D01*
X0674745Y0052279D01*
X0674666Y0052334D01*
X0674588Y0052393D01*
X0674513Y0052454D01*
X0674441Y0052519D01*
X0674371Y0052586D01*
X0674304Y0052657D01*
X0674241Y0052730D01*
X0674180Y0052805D01*
X0674122Y0052883D01*
X0674068Y0052964D01*
X0674017Y0053046D01*
X0673969Y0053131D01*
X0673925Y0053217D01*
X0673884Y0053305D01*
X0673848Y0053395D01*
X0673814Y0053486D01*
X0673785Y0053578D01*
X0673759Y0053672D01*
X0673738Y0053766D01*
X0673720Y0053862D01*
X0673706Y0053958D01*
X0673696Y0054054D01*
X0673690Y0054151D01*
X0673688Y0054248D01*
X0644160Y0073933D02*
X0644162Y0074030D01*
X0644168Y0074127D01*
X0644178Y0074223D01*
X0644192Y0074319D01*
X0644210Y0074415D01*
X0644231Y0074509D01*
X0644257Y0074603D01*
X0644286Y0074695D01*
X0644320Y0074786D01*
X0644356Y0074876D01*
X0644397Y0074964D01*
X0644441Y0075050D01*
X0644489Y0075135D01*
X0644540Y0075217D01*
X0644594Y0075298D01*
X0644652Y0075376D01*
X0644713Y0075451D01*
X0644776Y0075524D01*
X0644843Y0075595D01*
X0644913Y0075662D01*
X0644985Y0075727D01*
X0645060Y0075788D01*
X0645138Y0075847D01*
X0645217Y0075902D01*
X0645299Y0075954D01*
X0645383Y0076002D01*
X0645469Y0076047D01*
X0645557Y0076089D01*
X0645646Y0076127D01*
X0645737Y0076161D01*
X0645829Y0076191D01*
X0645922Y0076218D01*
X0646017Y0076240D01*
X0646112Y0076259D01*
X0646208Y0076274D01*
X0646304Y0076285D01*
X0646401Y0076292D01*
X0646498Y0076295D01*
X0646595Y0076294D01*
X0646692Y0076289D01*
X0646788Y0076280D01*
X0646884Y0076267D01*
X0646980Y0076250D01*
X0647075Y0076229D01*
X0647168Y0076205D01*
X0647261Y0076176D01*
X0647353Y0076144D01*
X0647443Y0076108D01*
X0647531Y0076069D01*
X0647618Y0076025D01*
X0647703Y0075979D01*
X0647786Y0075928D01*
X0647867Y0075875D01*
X0647945Y0075818D01*
X0648022Y0075758D01*
X0648095Y0075695D01*
X0648166Y0075629D01*
X0648234Y0075560D01*
X0648300Y0075488D01*
X0648362Y0075414D01*
X0648421Y0075337D01*
X0648477Y0075258D01*
X0648530Y0075176D01*
X0648580Y0075093D01*
X0648625Y0075007D01*
X0648668Y0074920D01*
X0648707Y0074831D01*
X0648742Y0074741D01*
X0648773Y0074649D01*
X0648800Y0074556D01*
X0648824Y0074462D01*
X0648844Y0074367D01*
X0648860Y0074271D01*
X0648872Y0074175D01*
X0648880Y0074078D01*
X0648884Y0073981D01*
X0648884Y0073885D01*
X0648880Y0073788D01*
X0648872Y0073691D01*
X0648860Y0073595D01*
X0648844Y0073499D01*
X0648824Y0073404D01*
X0648800Y0073310D01*
X0648773Y0073217D01*
X0648742Y0073125D01*
X0648707Y0073035D01*
X0648668Y0072946D01*
X0648625Y0072859D01*
X0648580Y0072773D01*
X0648530Y0072690D01*
X0648477Y0072608D01*
X0648421Y0072529D01*
X0648362Y0072452D01*
X0648300Y0072378D01*
X0648234Y0072306D01*
X0648166Y0072237D01*
X0648095Y0072171D01*
X0648022Y0072108D01*
X0647945Y0072048D01*
X0647867Y0071991D01*
X0647786Y0071938D01*
X0647703Y0071887D01*
X0647618Y0071841D01*
X0647531Y0071797D01*
X0647443Y0071758D01*
X0647353Y0071722D01*
X0647261Y0071690D01*
X0647168Y0071661D01*
X0647075Y0071637D01*
X0646980Y0071616D01*
X0646884Y0071599D01*
X0646788Y0071586D01*
X0646692Y0071577D01*
X0646595Y0071572D01*
X0646498Y0071571D01*
X0646401Y0071574D01*
X0646304Y0071581D01*
X0646208Y0071592D01*
X0646112Y0071607D01*
X0646017Y0071626D01*
X0645922Y0071648D01*
X0645829Y0071675D01*
X0645737Y0071705D01*
X0645646Y0071739D01*
X0645557Y0071777D01*
X0645469Y0071819D01*
X0645383Y0071864D01*
X0645299Y0071912D01*
X0645217Y0071964D01*
X0645138Y0072019D01*
X0645060Y0072078D01*
X0644985Y0072139D01*
X0644913Y0072204D01*
X0644843Y0072271D01*
X0644776Y0072342D01*
X0644713Y0072415D01*
X0644652Y0072490D01*
X0644594Y0072568D01*
X0644540Y0072649D01*
X0644489Y0072731D01*
X0644441Y0072816D01*
X0644397Y0072902D01*
X0644356Y0072990D01*
X0644320Y0073080D01*
X0644286Y0073171D01*
X0644257Y0073263D01*
X0644231Y0073357D01*
X0644210Y0073451D01*
X0644192Y0073547D01*
X0644178Y0073643D01*
X0644168Y0073739D01*
X0644162Y0073836D01*
X0644160Y0073933D01*
X0663845Y0093618D02*
X0663847Y0093715D01*
X0663853Y0093812D01*
X0663863Y0093908D01*
X0663877Y0094004D01*
X0663895Y0094100D01*
X0663916Y0094194D01*
X0663942Y0094288D01*
X0663971Y0094380D01*
X0664005Y0094471D01*
X0664041Y0094561D01*
X0664082Y0094649D01*
X0664126Y0094735D01*
X0664174Y0094820D01*
X0664225Y0094902D01*
X0664279Y0094983D01*
X0664337Y0095061D01*
X0664398Y0095136D01*
X0664461Y0095209D01*
X0664528Y0095280D01*
X0664598Y0095347D01*
X0664670Y0095412D01*
X0664745Y0095473D01*
X0664823Y0095532D01*
X0664902Y0095587D01*
X0664984Y0095639D01*
X0665068Y0095687D01*
X0665154Y0095732D01*
X0665242Y0095774D01*
X0665331Y0095812D01*
X0665422Y0095846D01*
X0665514Y0095876D01*
X0665607Y0095903D01*
X0665702Y0095925D01*
X0665797Y0095944D01*
X0665893Y0095959D01*
X0665989Y0095970D01*
X0666086Y0095977D01*
X0666183Y0095980D01*
X0666280Y0095979D01*
X0666377Y0095974D01*
X0666473Y0095965D01*
X0666569Y0095952D01*
X0666665Y0095935D01*
X0666760Y0095914D01*
X0666853Y0095890D01*
X0666946Y0095861D01*
X0667038Y0095829D01*
X0667128Y0095793D01*
X0667216Y0095754D01*
X0667303Y0095710D01*
X0667388Y0095664D01*
X0667471Y0095613D01*
X0667552Y0095560D01*
X0667630Y0095503D01*
X0667707Y0095443D01*
X0667780Y0095380D01*
X0667851Y0095314D01*
X0667919Y0095245D01*
X0667985Y0095173D01*
X0668047Y0095099D01*
X0668106Y0095022D01*
X0668162Y0094943D01*
X0668215Y0094861D01*
X0668265Y0094778D01*
X0668310Y0094692D01*
X0668353Y0094605D01*
X0668392Y0094516D01*
X0668427Y0094426D01*
X0668458Y0094334D01*
X0668485Y0094241D01*
X0668509Y0094147D01*
X0668529Y0094052D01*
X0668545Y0093956D01*
X0668557Y0093860D01*
X0668565Y0093763D01*
X0668569Y0093666D01*
X0668569Y0093570D01*
X0668565Y0093473D01*
X0668557Y0093376D01*
X0668545Y0093280D01*
X0668529Y0093184D01*
X0668509Y0093089D01*
X0668485Y0092995D01*
X0668458Y0092902D01*
X0668427Y0092810D01*
X0668392Y0092720D01*
X0668353Y0092631D01*
X0668310Y0092544D01*
X0668265Y0092458D01*
X0668215Y0092375D01*
X0668162Y0092293D01*
X0668106Y0092214D01*
X0668047Y0092137D01*
X0667985Y0092063D01*
X0667919Y0091991D01*
X0667851Y0091922D01*
X0667780Y0091856D01*
X0667707Y0091793D01*
X0667630Y0091733D01*
X0667552Y0091676D01*
X0667471Y0091623D01*
X0667388Y0091572D01*
X0667303Y0091526D01*
X0667216Y0091482D01*
X0667128Y0091443D01*
X0667038Y0091407D01*
X0666946Y0091375D01*
X0666853Y0091346D01*
X0666760Y0091322D01*
X0666665Y0091301D01*
X0666569Y0091284D01*
X0666473Y0091271D01*
X0666377Y0091262D01*
X0666280Y0091257D01*
X0666183Y0091256D01*
X0666086Y0091259D01*
X0665989Y0091266D01*
X0665893Y0091277D01*
X0665797Y0091292D01*
X0665702Y0091311D01*
X0665607Y0091333D01*
X0665514Y0091360D01*
X0665422Y0091390D01*
X0665331Y0091424D01*
X0665242Y0091462D01*
X0665154Y0091504D01*
X0665068Y0091549D01*
X0664984Y0091597D01*
X0664902Y0091649D01*
X0664823Y0091704D01*
X0664745Y0091763D01*
X0664670Y0091824D01*
X0664598Y0091889D01*
X0664528Y0091956D01*
X0664461Y0092027D01*
X0664398Y0092100D01*
X0664337Y0092175D01*
X0664279Y0092253D01*
X0664225Y0092334D01*
X0664174Y0092416D01*
X0664126Y0092501D01*
X0664082Y0092587D01*
X0664041Y0092675D01*
X0664005Y0092765D01*
X0663971Y0092856D01*
X0663942Y0092948D01*
X0663916Y0093042D01*
X0663895Y0093136D01*
X0663877Y0093232D01*
X0663863Y0093328D01*
X0663853Y0093424D01*
X0663847Y0093521D01*
X0663845Y0093618D01*
X0673688Y0093618D02*
X0673690Y0093715D01*
X0673696Y0093812D01*
X0673706Y0093908D01*
X0673720Y0094004D01*
X0673738Y0094100D01*
X0673759Y0094194D01*
X0673785Y0094288D01*
X0673814Y0094380D01*
X0673848Y0094471D01*
X0673884Y0094561D01*
X0673925Y0094649D01*
X0673969Y0094735D01*
X0674017Y0094820D01*
X0674068Y0094902D01*
X0674122Y0094983D01*
X0674180Y0095061D01*
X0674241Y0095136D01*
X0674304Y0095209D01*
X0674371Y0095280D01*
X0674441Y0095347D01*
X0674513Y0095412D01*
X0674588Y0095473D01*
X0674666Y0095532D01*
X0674745Y0095587D01*
X0674827Y0095639D01*
X0674911Y0095687D01*
X0674997Y0095732D01*
X0675085Y0095774D01*
X0675174Y0095812D01*
X0675265Y0095846D01*
X0675357Y0095876D01*
X0675450Y0095903D01*
X0675545Y0095925D01*
X0675640Y0095944D01*
X0675736Y0095959D01*
X0675832Y0095970D01*
X0675929Y0095977D01*
X0676026Y0095980D01*
X0676123Y0095979D01*
X0676220Y0095974D01*
X0676316Y0095965D01*
X0676412Y0095952D01*
X0676508Y0095935D01*
X0676603Y0095914D01*
X0676696Y0095890D01*
X0676789Y0095861D01*
X0676881Y0095829D01*
X0676971Y0095793D01*
X0677059Y0095754D01*
X0677146Y0095710D01*
X0677231Y0095664D01*
X0677314Y0095613D01*
X0677395Y0095560D01*
X0677473Y0095503D01*
X0677550Y0095443D01*
X0677623Y0095380D01*
X0677694Y0095314D01*
X0677762Y0095245D01*
X0677828Y0095173D01*
X0677890Y0095099D01*
X0677949Y0095022D01*
X0678005Y0094943D01*
X0678058Y0094861D01*
X0678108Y0094778D01*
X0678153Y0094692D01*
X0678196Y0094605D01*
X0678235Y0094516D01*
X0678270Y0094426D01*
X0678301Y0094334D01*
X0678328Y0094241D01*
X0678352Y0094147D01*
X0678372Y0094052D01*
X0678388Y0093956D01*
X0678400Y0093860D01*
X0678408Y0093763D01*
X0678412Y0093666D01*
X0678412Y0093570D01*
X0678408Y0093473D01*
X0678400Y0093376D01*
X0678388Y0093280D01*
X0678372Y0093184D01*
X0678352Y0093089D01*
X0678328Y0092995D01*
X0678301Y0092902D01*
X0678270Y0092810D01*
X0678235Y0092720D01*
X0678196Y0092631D01*
X0678153Y0092544D01*
X0678108Y0092458D01*
X0678058Y0092375D01*
X0678005Y0092293D01*
X0677949Y0092214D01*
X0677890Y0092137D01*
X0677828Y0092063D01*
X0677762Y0091991D01*
X0677694Y0091922D01*
X0677623Y0091856D01*
X0677550Y0091793D01*
X0677473Y0091733D01*
X0677395Y0091676D01*
X0677314Y0091623D01*
X0677231Y0091572D01*
X0677146Y0091526D01*
X0677059Y0091482D01*
X0676971Y0091443D01*
X0676881Y0091407D01*
X0676789Y0091375D01*
X0676696Y0091346D01*
X0676603Y0091322D01*
X0676508Y0091301D01*
X0676412Y0091284D01*
X0676316Y0091271D01*
X0676220Y0091262D01*
X0676123Y0091257D01*
X0676026Y0091256D01*
X0675929Y0091259D01*
X0675832Y0091266D01*
X0675736Y0091277D01*
X0675640Y0091292D01*
X0675545Y0091311D01*
X0675450Y0091333D01*
X0675357Y0091360D01*
X0675265Y0091390D01*
X0675174Y0091424D01*
X0675085Y0091462D01*
X0674997Y0091504D01*
X0674911Y0091549D01*
X0674827Y0091597D01*
X0674745Y0091649D01*
X0674666Y0091704D01*
X0674588Y0091763D01*
X0674513Y0091824D01*
X0674441Y0091889D01*
X0674371Y0091956D01*
X0674304Y0092027D01*
X0674241Y0092100D01*
X0674180Y0092175D01*
X0674122Y0092253D01*
X0674068Y0092334D01*
X0674017Y0092416D01*
X0673969Y0092501D01*
X0673925Y0092587D01*
X0673884Y0092675D01*
X0673848Y0092765D01*
X0673814Y0092856D01*
X0673785Y0092948D01*
X0673759Y0093042D01*
X0673738Y0093136D01*
X0673720Y0093232D01*
X0673706Y0093328D01*
X0673696Y0093424D01*
X0673690Y0093521D01*
X0673688Y0093618D01*
X0618333Y0108933D02*
X0618335Y0109074D01*
X0618341Y0109215D01*
X0618351Y0109355D01*
X0618365Y0109495D01*
X0618383Y0109635D01*
X0618404Y0109774D01*
X0618430Y0109913D01*
X0618459Y0110051D01*
X0618493Y0110187D01*
X0618530Y0110323D01*
X0618571Y0110458D01*
X0618616Y0110592D01*
X0618665Y0110724D01*
X0618717Y0110855D01*
X0618773Y0110984D01*
X0618833Y0111111D01*
X0618896Y0111237D01*
X0618962Y0111361D01*
X0619033Y0111484D01*
X0619106Y0111604D01*
X0619183Y0111722D01*
X0619263Y0111838D01*
X0619347Y0111951D01*
X0619433Y0112062D01*
X0619523Y0112171D01*
X0619616Y0112277D01*
X0619711Y0112380D01*
X0619810Y0112481D01*
X0619911Y0112579D01*
X0620015Y0112674D01*
X0620122Y0112766D01*
X0620231Y0112855D01*
X0620343Y0112940D01*
X0620457Y0113023D01*
X0620573Y0113103D01*
X0620692Y0113179D01*
X0620813Y0113251D01*
X0620935Y0113321D01*
X0621060Y0113386D01*
X0621186Y0113449D01*
X0621314Y0113507D01*
X0621444Y0113562D01*
X0621575Y0113614D01*
X0621708Y0113661D01*
X0621842Y0113705D01*
X0621977Y0113746D01*
X0622113Y0113782D01*
X0622250Y0113814D01*
X0622388Y0113843D01*
X0622526Y0113868D01*
X0622666Y0113888D01*
X0622806Y0113905D01*
X0622946Y0113918D01*
X0623087Y0113927D01*
X0623227Y0113932D01*
X0623368Y0113933D01*
X0623509Y0113930D01*
X0623650Y0113923D01*
X0623790Y0113912D01*
X0623930Y0113897D01*
X0624070Y0113878D01*
X0624209Y0113856D01*
X0624347Y0113829D01*
X0624485Y0113799D01*
X0624621Y0113764D01*
X0624757Y0113726D01*
X0624891Y0113684D01*
X0625025Y0113638D01*
X0625157Y0113589D01*
X0625287Y0113535D01*
X0625416Y0113478D01*
X0625543Y0113418D01*
X0625669Y0113354D01*
X0625792Y0113286D01*
X0625914Y0113215D01*
X0626034Y0113141D01*
X0626151Y0113063D01*
X0626266Y0112982D01*
X0626379Y0112898D01*
X0626490Y0112811D01*
X0626598Y0112720D01*
X0626703Y0112627D01*
X0626806Y0112530D01*
X0626906Y0112431D01*
X0627003Y0112329D01*
X0627097Y0112224D01*
X0627188Y0112117D01*
X0627276Y0112007D01*
X0627361Y0111895D01*
X0627443Y0111780D01*
X0627522Y0111663D01*
X0627597Y0111544D01*
X0627669Y0111423D01*
X0627737Y0111300D01*
X0627802Y0111175D01*
X0627864Y0111048D01*
X0627921Y0110919D01*
X0627976Y0110789D01*
X0628026Y0110658D01*
X0628073Y0110525D01*
X0628116Y0110391D01*
X0628155Y0110255D01*
X0628190Y0110119D01*
X0628222Y0109982D01*
X0628249Y0109844D01*
X0628273Y0109705D01*
X0628293Y0109565D01*
X0628309Y0109425D01*
X0628321Y0109285D01*
X0628329Y0109144D01*
X0628333Y0109003D01*
X0628333Y0108863D01*
X0628329Y0108722D01*
X0628321Y0108581D01*
X0628309Y0108441D01*
X0628293Y0108301D01*
X0628273Y0108161D01*
X0628249Y0108022D01*
X0628222Y0107884D01*
X0628190Y0107747D01*
X0628155Y0107611D01*
X0628116Y0107475D01*
X0628073Y0107341D01*
X0628026Y0107208D01*
X0627976Y0107077D01*
X0627921Y0106947D01*
X0627864Y0106818D01*
X0627802Y0106691D01*
X0627737Y0106566D01*
X0627669Y0106443D01*
X0627597Y0106322D01*
X0627522Y0106203D01*
X0627443Y0106086D01*
X0627361Y0105971D01*
X0627276Y0105859D01*
X0627188Y0105749D01*
X0627097Y0105642D01*
X0627003Y0105537D01*
X0626906Y0105435D01*
X0626806Y0105336D01*
X0626703Y0105239D01*
X0626598Y0105146D01*
X0626490Y0105055D01*
X0626379Y0104968D01*
X0626266Y0104884D01*
X0626151Y0104803D01*
X0626034Y0104725D01*
X0625914Y0104651D01*
X0625792Y0104580D01*
X0625669Y0104512D01*
X0625543Y0104448D01*
X0625416Y0104388D01*
X0625287Y0104331D01*
X0625157Y0104277D01*
X0625025Y0104228D01*
X0624891Y0104182D01*
X0624757Y0104140D01*
X0624621Y0104102D01*
X0624485Y0104067D01*
X0624347Y0104037D01*
X0624209Y0104010D01*
X0624070Y0103988D01*
X0623930Y0103969D01*
X0623790Y0103954D01*
X0623650Y0103943D01*
X0623509Y0103936D01*
X0623368Y0103933D01*
X0623227Y0103934D01*
X0623087Y0103939D01*
X0622946Y0103948D01*
X0622806Y0103961D01*
X0622666Y0103978D01*
X0622526Y0103998D01*
X0622388Y0104023D01*
X0622250Y0104052D01*
X0622113Y0104084D01*
X0621977Y0104120D01*
X0621842Y0104161D01*
X0621708Y0104205D01*
X0621575Y0104252D01*
X0621444Y0104304D01*
X0621314Y0104359D01*
X0621186Y0104417D01*
X0621060Y0104480D01*
X0620935Y0104545D01*
X0620813Y0104615D01*
X0620692Y0104687D01*
X0620573Y0104763D01*
X0620457Y0104843D01*
X0620343Y0104926D01*
X0620231Y0105011D01*
X0620122Y0105100D01*
X0620015Y0105192D01*
X0619911Y0105287D01*
X0619810Y0105385D01*
X0619711Y0105486D01*
X0619616Y0105589D01*
X0619523Y0105695D01*
X0619433Y0105804D01*
X0619347Y0105915D01*
X0619263Y0106028D01*
X0619183Y0106144D01*
X0619106Y0106262D01*
X0619033Y0106382D01*
X0618962Y0106505D01*
X0618896Y0106629D01*
X0618833Y0106755D01*
X0618773Y0106882D01*
X0618717Y0107011D01*
X0618665Y0107142D01*
X0618616Y0107274D01*
X0618571Y0107408D01*
X0618530Y0107543D01*
X0618493Y0107679D01*
X0618459Y0107815D01*
X0618430Y0107953D01*
X0618404Y0108092D01*
X0618383Y0108231D01*
X0618365Y0108371D01*
X0618351Y0108511D01*
X0618341Y0108651D01*
X0618335Y0108792D01*
X0618333Y0108933D01*
X0438333Y0108933D02*
X0438335Y0109074D01*
X0438341Y0109215D01*
X0438351Y0109355D01*
X0438365Y0109495D01*
X0438383Y0109635D01*
X0438404Y0109774D01*
X0438430Y0109913D01*
X0438459Y0110051D01*
X0438493Y0110187D01*
X0438530Y0110323D01*
X0438571Y0110458D01*
X0438616Y0110592D01*
X0438665Y0110724D01*
X0438717Y0110855D01*
X0438773Y0110984D01*
X0438833Y0111111D01*
X0438896Y0111237D01*
X0438962Y0111361D01*
X0439033Y0111484D01*
X0439106Y0111604D01*
X0439183Y0111722D01*
X0439263Y0111838D01*
X0439347Y0111951D01*
X0439433Y0112062D01*
X0439523Y0112171D01*
X0439616Y0112277D01*
X0439711Y0112380D01*
X0439810Y0112481D01*
X0439911Y0112579D01*
X0440015Y0112674D01*
X0440122Y0112766D01*
X0440231Y0112855D01*
X0440343Y0112940D01*
X0440457Y0113023D01*
X0440573Y0113103D01*
X0440692Y0113179D01*
X0440813Y0113251D01*
X0440935Y0113321D01*
X0441060Y0113386D01*
X0441186Y0113449D01*
X0441314Y0113507D01*
X0441444Y0113562D01*
X0441575Y0113614D01*
X0441708Y0113661D01*
X0441842Y0113705D01*
X0441977Y0113746D01*
X0442113Y0113782D01*
X0442250Y0113814D01*
X0442388Y0113843D01*
X0442526Y0113868D01*
X0442666Y0113888D01*
X0442806Y0113905D01*
X0442946Y0113918D01*
X0443087Y0113927D01*
X0443227Y0113932D01*
X0443368Y0113933D01*
X0443509Y0113930D01*
X0443650Y0113923D01*
X0443790Y0113912D01*
X0443930Y0113897D01*
X0444070Y0113878D01*
X0444209Y0113856D01*
X0444347Y0113829D01*
X0444485Y0113799D01*
X0444621Y0113764D01*
X0444757Y0113726D01*
X0444891Y0113684D01*
X0445025Y0113638D01*
X0445157Y0113589D01*
X0445287Y0113535D01*
X0445416Y0113478D01*
X0445543Y0113418D01*
X0445669Y0113354D01*
X0445792Y0113286D01*
X0445914Y0113215D01*
X0446034Y0113141D01*
X0446151Y0113063D01*
X0446266Y0112982D01*
X0446379Y0112898D01*
X0446490Y0112811D01*
X0446598Y0112720D01*
X0446703Y0112627D01*
X0446806Y0112530D01*
X0446906Y0112431D01*
X0447003Y0112329D01*
X0447097Y0112224D01*
X0447188Y0112117D01*
X0447276Y0112007D01*
X0447361Y0111895D01*
X0447443Y0111780D01*
X0447522Y0111663D01*
X0447597Y0111544D01*
X0447669Y0111423D01*
X0447737Y0111300D01*
X0447802Y0111175D01*
X0447864Y0111048D01*
X0447921Y0110919D01*
X0447976Y0110789D01*
X0448026Y0110658D01*
X0448073Y0110525D01*
X0448116Y0110391D01*
X0448155Y0110255D01*
X0448190Y0110119D01*
X0448222Y0109982D01*
X0448249Y0109844D01*
X0448273Y0109705D01*
X0448293Y0109565D01*
X0448309Y0109425D01*
X0448321Y0109285D01*
X0448329Y0109144D01*
X0448333Y0109003D01*
X0448333Y0108863D01*
X0448329Y0108722D01*
X0448321Y0108581D01*
X0448309Y0108441D01*
X0448293Y0108301D01*
X0448273Y0108161D01*
X0448249Y0108022D01*
X0448222Y0107884D01*
X0448190Y0107747D01*
X0448155Y0107611D01*
X0448116Y0107475D01*
X0448073Y0107341D01*
X0448026Y0107208D01*
X0447976Y0107077D01*
X0447921Y0106947D01*
X0447864Y0106818D01*
X0447802Y0106691D01*
X0447737Y0106566D01*
X0447669Y0106443D01*
X0447597Y0106322D01*
X0447522Y0106203D01*
X0447443Y0106086D01*
X0447361Y0105971D01*
X0447276Y0105859D01*
X0447188Y0105749D01*
X0447097Y0105642D01*
X0447003Y0105537D01*
X0446906Y0105435D01*
X0446806Y0105336D01*
X0446703Y0105239D01*
X0446598Y0105146D01*
X0446490Y0105055D01*
X0446379Y0104968D01*
X0446266Y0104884D01*
X0446151Y0104803D01*
X0446034Y0104725D01*
X0445914Y0104651D01*
X0445792Y0104580D01*
X0445669Y0104512D01*
X0445543Y0104448D01*
X0445416Y0104388D01*
X0445287Y0104331D01*
X0445157Y0104277D01*
X0445025Y0104228D01*
X0444891Y0104182D01*
X0444757Y0104140D01*
X0444621Y0104102D01*
X0444485Y0104067D01*
X0444347Y0104037D01*
X0444209Y0104010D01*
X0444070Y0103988D01*
X0443930Y0103969D01*
X0443790Y0103954D01*
X0443650Y0103943D01*
X0443509Y0103936D01*
X0443368Y0103933D01*
X0443227Y0103934D01*
X0443087Y0103939D01*
X0442946Y0103948D01*
X0442806Y0103961D01*
X0442666Y0103978D01*
X0442526Y0103998D01*
X0442388Y0104023D01*
X0442250Y0104052D01*
X0442113Y0104084D01*
X0441977Y0104120D01*
X0441842Y0104161D01*
X0441708Y0104205D01*
X0441575Y0104252D01*
X0441444Y0104304D01*
X0441314Y0104359D01*
X0441186Y0104417D01*
X0441060Y0104480D01*
X0440935Y0104545D01*
X0440813Y0104615D01*
X0440692Y0104687D01*
X0440573Y0104763D01*
X0440457Y0104843D01*
X0440343Y0104926D01*
X0440231Y0105011D01*
X0440122Y0105100D01*
X0440015Y0105192D01*
X0439911Y0105287D01*
X0439810Y0105385D01*
X0439711Y0105486D01*
X0439616Y0105589D01*
X0439523Y0105695D01*
X0439433Y0105804D01*
X0439347Y0105915D01*
X0439263Y0106028D01*
X0439183Y0106144D01*
X0439106Y0106262D01*
X0439033Y0106382D01*
X0438962Y0106505D01*
X0438896Y0106629D01*
X0438833Y0106755D01*
X0438773Y0106882D01*
X0438717Y0107011D01*
X0438665Y0107142D01*
X0438616Y0107274D01*
X0438571Y0107408D01*
X0438530Y0107543D01*
X0438493Y0107679D01*
X0438459Y0107815D01*
X0438430Y0107953D01*
X0438404Y0108092D01*
X0438383Y0108231D01*
X0438365Y0108371D01*
X0438351Y0108511D01*
X0438341Y0108651D01*
X0438335Y0108792D01*
X0438333Y0108933D01*
D11*
X0433333Y0113933D02*
X0433333Y0033933D01*
X0433336Y0033691D01*
X0433345Y0033450D01*
X0433359Y0033209D01*
X0433380Y0032968D01*
X0433406Y0032728D01*
X0433438Y0032488D01*
X0433476Y0032249D01*
X0433519Y0032012D01*
X0433569Y0031775D01*
X0433624Y0031540D01*
X0433684Y0031306D01*
X0433751Y0031074D01*
X0433822Y0030843D01*
X0433900Y0030614D01*
X0433983Y0030387D01*
X0434071Y0030162D01*
X0434165Y0029939D01*
X0434264Y0029719D01*
X0434369Y0029501D01*
X0434478Y0029286D01*
X0434593Y0029073D01*
X0434713Y0028863D01*
X0434838Y0028657D01*
X0434968Y0028453D01*
X0435103Y0028252D01*
X0435243Y0028055D01*
X0435387Y0027861D01*
X0435536Y0027671D01*
X0435690Y0027485D01*
X0435848Y0027302D01*
X0436010Y0027123D01*
X0436177Y0026948D01*
X0436348Y0026777D01*
X0436523Y0026610D01*
X0436702Y0026448D01*
X0436885Y0026290D01*
X0437071Y0026136D01*
X0437261Y0025987D01*
X0437455Y0025843D01*
X0437652Y0025703D01*
X0437853Y0025568D01*
X0438057Y0025438D01*
X0438263Y0025313D01*
X0438473Y0025193D01*
X0438686Y0025078D01*
X0438901Y0024969D01*
X0439119Y0024864D01*
X0439339Y0024765D01*
X0439562Y0024671D01*
X0439787Y0024583D01*
X0440014Y0024500D01*
X0440243Y0024422D01*
X0440474Y0024351D01*
X0440706Y0024284D01*
X0440940Y0024224D01*
X0441175Y0024169D01*
X0441412Y0024119D01*
X0441649Y0024076D01*
X0441888Y0024038D01*
X0442128Y0024006D01*
X0442368Y0023980D01*
X0442609Y0023959D01*
X0442850Y0023945D01*
X0443091Y0023936D01*
X0443333Y0023933D01*
X0668333Y0023933D01*
X0668695Y0023937D01*
X0669058Y0023951D01*
X0669420Y0023972D01*
X0669781Y0024003D01*
X0670141Y0024042D01*
X0670500Y0024090D01*
X0670858Y0024147D01*
X0671215Y0024212D01*
X0671570Y0024286D01*
X0671923Y0024369D01*
X0672274Y0024460D01*
X0672622Y0024559D01*
X0672968Y0024667D01*
X0673312Y0024783D01*
X0673652Y0024908D01*
X0673989Y0025040D01*
X0674323Y0025181D01*
X0674654Y0025330D01*
X0674981Y0025487D01*
X0675304Y0025651D01*
X0675623Y0025823D01*
X0675937Y0026003D01*
X0676248Y0026191D01*
X0676553Y0026386D01*
X0676854Y0026588D01*
X0677150Y0026798D01*
X0677440Y0027014D01*
X0677726Y0027238D01*
X0678006Y0027468D01*
X0678280Y0027705D01*
X0678548Y0027949D01*
X0678811Y0028199D01*
X0679067Y0028455D01*
X0679317Y0028718D01*
X0679561Y0028986D01*
X0679798Y0029260D01*
X0680028Y0029540D01*
X0680252Y0029826D01*
X0680468Y0030116D01*
X0680678Y0030412D01*
X0680880Y0030713D01*
X0681075Y0031018D01*
X0681263Y0031329D01*
X0681443Y0031643D01*
X0681615Y0031962D01*
X0681779Y0032285D01*
X0681936Y0032612D01*
X0682085Y0032943D01*
X0682226Y0033277D01*
X0682358Y0033614D01*
X0682483Y0033954D01*
X0682599Y0034298D01*
X0682707Y0034644D01*
X0682806Y0034992D01*
X0682897Y0035343D01*
X0682980Y0035696D01*
X0683054Y0036051D01*
X0683119Y0036408D01*
X0683176Y0036766D01*
X0683224Y0037125D01*
X0683263Y0037485D01*
X0683294Y0037846D01*
X0683315Y0038208D01*
X0683329Y0038571D01*
X0683333Y0038933D01*
X0683333Y0108933D01*
X0683329Y0109295D01*
X0683315Y0109658D01*
X0683294Y0110020D01*
X0683263Y0110381D01*
X0683224Y0110741D01*
X0683176Y0111100D01*
X0683119Y0111458D01*
X0683054Y0111815D01*
X0682980Y0112170D01*
X0682897Y0112523D01*
X0682806Y0112874D01*
X0682707Y0113222D01*
X0682599Y0113568D01*
X0682483Y0113912D01*
X0682358Y0114252D01*
X0682226Y0114589D01*
X0682085Y0114923D01*
X0681936Y0115254D01*
X0681779Y0115581D01*
X0681615Y0115904D01*
X0681443Y0116223D01*
X0681263Y0116537D01*
X0681075Y0116848D01*
X0680880Y0117153D01*
X0680678Y0117454D01*
X0680468Y0117750D01*
X0680252Y0118040D01*
X0680028Y0118326D01*
X0679798Y0118606D01*
X0679561Y0118880D01*
X0679317Y0119148D01*
X0679067Y0119411D01*
X0678811Y0119667D01*
X0678548Y0119917D01*
X0678280Y0120161D01*
X0678006Y0120398D01*
X0677726Y0120628D01*
X0677440Y0120852D01*
X0677150Y0121068D01*
X0676854Y0121278D01*
X0676553Y0121480D01*
X0676248Y0121675D01*
X0675937Y0121863D01*
X0675623Y0122043D01*
X0675304Y0122215D01*
X0674981Y0122379D01*
X0674654Y0122536D01*
X0674323Y0122685D01*
X0673989Y0122826D01*
X0673652Y0122958D01*
X0673312Y0123083D01*
X0672968Y0123199D01*
X0672622Y0123307D01*
X0672274Y0123406D01*
X0671923Y0123497D01*
X0671570Y0123580D01*
X0671215Y0123654D01*
X0670858Y0123719D01*
X0670500Y0123776D01*
X0670141Y0123824D01*
X0669781Y0123863D01*
X0669420Y0123894D01*
X0669058Y0123915D01*
X0668695Y0123929D01*
X0668333Y0123933D01*
X0443333Y0123933D01*
X0443091Y0123930D01*
X0442850Y0123921D01*
X0442609Y0123907D01*
X0442368Y0123886D01*
X0442128Y0123860D01*
X0441888Y0123828D01*
X0441649Y0123790D01*
X0441412Y0123747D01*
X0441175Y0123697D01*
X0440940Y0123642D01*
X0440706Y0123582D01*
X0440474Y0123515D01*
X0440243Y0123444D01*
X0440014Y0123366D01*
X0439787Y0123283D01*
X0439562Y0123195D01*
X0439339Y0123101D01*
X0439119Y0123002D01*
X0438901Y0122897D01*
X0438686Y0122788D01*
X0438473Y0122673D01*
X0438263Y0122553D01*
X0438057Y0122428D01*
X0437853Y0122298D01*
X0437652Y0122163D01*
X0437455Y0122023D01*
X0437261Y0121879D01*
X0437071Y0121730D01*
X0436885Y0121576D01*
X0436702Y0121418D01*
X0436523Y0121256D01*
X0436348Y0121089D01*
X0436177Y0120918D01*
X0436010Y0120743D01*
X0435848Y0120564D01*
X0435690Y0120381D01*
X0435536Y0120195D01*
X0435387Y0120005D01*
X0435243Y0119811D01*
X0435103Y0119614D01*
X0434968Y0119413D01*
X0434838Y0119209D01*
X0434713Y0119003D01*
X0434593Y0118793D01*
X0434478Y0118580D01*
X0434369Y0118365D01*
X0434264Y0118147D01*
X0434165Y0117927D01*
X0434071Y0117704D01*
X0433983Y0117479D01*
X0433900Y0117252D01*
X0433822Y0117023D01*
X0433751Y0116792D01*
X0433684Y0116560D01*
X0433624Y0116326D01*
X0433569Y0116091D01*
X0433519Y0115854D01*
X0433476Y0115617D01*
X0433438Y0115378D01*
X0433406Y0115138D01*
X0433380Y0114898D01*
X0433359Y0114657D01*
X0433345Y0114416D01*
X0433336Y0114175D01*
X0433333Y0113933D01*
M02*
