%
M48
M72
T01C0.01000
T02C0.01378
T03C0.04000
T04C0.04331
T05C0.04724
T06C0.10000
%
T01
X570833Y76433
T02
X563333Y93933
X577307Y43937
T03
X578333Y33933
X568333Y33933
X558333Y33933
X548333Y33933
X538333Y33933
X528333Y33933
X518333Y33933
X508333Y33933
X498333Y33933
X488333Y33933
X478333Y33933
X468333Y33933
X458333Y33933
X455833Y53933
X465833Y53933
X475833Y53933
X485833Y53933
X495833Y53933
X505833Y53933
X515833Y53933
X551333Y53933
X561333Y53933
X571333Y53933
X581333Y53933
X591333Y53933
X601333Y53933
X611333Y53933
X621333Y53933
X608333Y33933
X598333Y33933
X588333Y33933
X445833Y53933
X498333Y113933
X508333Y113933
X518333Y113933
X528333Y113933
X538333Y113933
X548333Y113933
X558333Y113933
X568333Y113933
X578333Y113933
X588333Y113933
X598333Y113933
X608333Y113933
T04
X646522Y93618
X646522Y83776
X666207Y73933
X646522Y64091
X646522Y54248
T05
X666207Y54248
X676050Y54248
X646522Y73933
X666207Y93618
X676050Y93618
T06
X443333Y38933
X623333Y38933
X623333Y108933
X443333Y108933
M30
