G75*
%MOIN*%
%OFA0B0*%
%FSLAX25Y25*%
%IPPOS*%
%LPD*%
%AMOC8*
5,1,8,0,0,1.08239X$1,22.5*
%
%ADD10C,0.00000*%
%ADD11C,0.00600*%
%ADD12C,0.00200*%
%ADD13C,0.00800*%
%ADD14C,0.00500*%
%ADD15C,0.00400*%
D10*
X0438333Y0038933D02*
X0438335Y0039074D01*
X0438341Y0039215D01*
X0438351Y0039355D01*
X0438365Y0039495D01*
X0438383Y0039635D01*
X0438404Y0039774D01*
X0438430Y0039913D01*
X0438459Y0040051D01*
X0438493Y0040187D01*
X0438530Y0040323D01*
X0438571Y0040458D01*
X0438616Y0040592D01*
X0438665Y0040724D01*
X0438717Y0040855D01*
X0438773Y0040984D01*
X0438833Y0041111D01*
X0438896Y0041237D01*
X0438962Y0041361D01*
X0439033Y0041484D01*
X0439106Y0041604D01*
X0439183Y0041722D01*
X0439263Y0041838D01*
X0439347Y0041951D01*
X0439433Y0042062D01*
X0439523Y0042171D01*
X0439616Y0042277D01*
X0439711Y0042380D01*
X0439810Y0042481D01*
X0439911Y0042579D01*
X0440015Y0042674D01*
X0440122Y0042766D01*
X0440231Y0042855D01*
X0440343Y0042940D01*
X0440457Y0043023D01*
X0440573Y0043103D01*
X0440692Y0043179D01*
X0440813Y0043251D01*
X0440935Y0043321D01*
X0441060Y0043386D01*
X0441186Y0043449D01*
X0441314Y0043507D01*
X0441444Y0043562D01*
X0441575Y0043614D01*
X0441708Y0043661D01*
X0441842Y0043705D01*
X0441977Y0043746D01*
X0442113Y0043782D01*
X0442250Y0043814D01*
X0442388Y0043843D01*
X0442526Y0043868D01*
X0442666Y0043888D01*
X0442806Y0043905D01*
X0442946Y0043918D01*
X0443087Y0043927D01*
X0443227Y0043932D01*
X0443368Y0043933D01*
X0443509Y0043930D01*
X0443650Y0043923D01*
X0443790Y0043912D01*
X0443930Y0043897D01*
X0444070Y0043878D01*
X0444209Y0043856D01*
X0444347Y0043829D01*
X0444485Y0043799D01*
X0444621Y0043764D01*
X0444757Y0043726D01*
X0444891Y0043684D01*
X0445025Y0043638D01*
X0445157Y0043589D01*
X0445287Y0043535D01*
X0445416Y0043478D01*
X0445543Y0043418D01*
X0445669Y0043354D01*
X0445792Y0043286D01*
X0445914Y0043215D01*
X0446034Y0043141D01*
X0446151Y0043063D01*
X0446266Y0042982D01*
X0446379Y0042898D01*
X0446490Y0042811D01*
X0446598Y0042720D01*
X0446703Y0042627D01*
X0446806Y0042530D01*
X0446906Y0042431D01*
X0447003Y0042329D01*
X0447097Y0042224D01*
X0447188Y0042117D01*
X0447276Y0042007D01*
X0447361Y0041895D01*
X0447443Y0041780D01*
X0447522Y0041663D01*
X0447597Y0041544D01*
X0447669Y0041423D01*
X0447737Y0041300D01*
X0447802Y0041175D01*
X0447864Y0041048D01*
X0447921Y0040919D01*
X0447976Y0040789D01*
X0448026Y0040658D01*
X0448073Y0040525D01*
X0448116Y0040391D01*
X0448155Y0040255D01*
X0448190Y0040119D01*
X0448222Y0039982D01*
X0448249Y0039844D01*
X0448273Y0039705D01*
X0448293Y0039565D01*
X0448309Y0039425D01*
X0448321Y0039285D01*
X0448329Y0039144D01*
X0448333Y0039003D01*
X0448333Y0038863D01*
X0448329Y0038722D01*
X0448321Y0038581D01*
X0448309Y0038441D01*
X0448293Y0038301D01*
X0448273Y0038161D01*
X0448249Y0038022D01*
X0448222Y0037884D01*
X0448190Y0037747D01*
X0448155Y0037611D01*
X0448116Y0037475D01*
X0448073Y0037341D01*
X0448026Y0037208D01*
X0447976Y0037077D01*
X0447921Y0036947D01*
X0447864Y0036818D01*
X0447802Y0036691D01*
X0447737Y0036566D01*
X0447669Y0036443D01*
X0447597Y0036322D01*
X0447522Y0036203D01*
X0447443Y0036086D01*
X0447361Y0035971D01*
X0447276Y0035859D01*
X0447188Y0035749D01*
X0447097Y0035642D01*
X0447003Y0035537D01*
X0446906Y0035435D01*
X0446806Y0035336D01*
X0446703Y0035239D01*
X0446598Y0035146D01*
X0446490Y0035055D01*
X0446379Y0034968D01*
X0446266Y0034884D01*
X0446151Y0034803D01*
X0446034Y0034725D01*
X0445914Y0034651D01*
X0445792Y0034580D01*
X0445669Y0034512D01*
X0445543Y0034448D01*
X0445416Y0034388D01*
X0445287Y0034331D01*
X0445157Y0034277D01*
X0445025Y0034228D01*
X0444891Y0034182D01*
X0444757Y0034140D01*
X0444621Y0034102D01*
X0444485Y0034067D01*
X0444347Y0034037D01*
X0444209Y0034010D01*
X0444070Y0033988D01*
X0443930Y0033969D01*
X0443790Y0033954D01*
X0443650Y0033943D01*
X0443509Y0033936D01*
X0443368Y0033933D01*
X0443227Y0033934D01*
X0443087Y0033939D01*
X0442946Y0033948D01*
X0442806Y0033961D01*
X0442666Y0033978D01*
X0442526Y0033998D01*
X0442388Y0034023D01*
X0442250Y0034052D01*
X0442113Y0034084D01*
X0441977Y0034120D01*
X0441842Y0034161D01*
X0441708Y0034205D01*
X0441575Y0034252D01*
X0441444Y0034304D01*
X0441314Y0034359D01*
X0441186Y0034417D01*
X0441060Y0034480D01*
X0440935Y0034545D01*
X0440813Y0034615D01*
X0440692Y0034687D01*
X0440573Y0034763D01*
X0440457Y0034843D01*
X0440343Y0034926D01*
X0440231Y0035011D01*
X0440122Y0035100D01*
X0440015Y0035192D01*
X0439911Y0035287D01*
X0439810Y0035385D01*
X0439711Y0035486D01*
X0439616Y0035589D01*
X0439523Y0035695D01*
X0439433Y0035804D01*
X0439347Y0035915D01*
X0439263Y0036028D01*
X0439183Y0036144D01*
X0439106Y0036262D01*
X0439033Y0036382D01*
X0438962Y0036505D01*
X0438896Y0036629D01*
X0438833Y0036755D01*
X0438773Y0036882D01*
X0438717Y0037011D01*
X0438665Y0037142D01*
X0438616Y0037274D01*
X0438571Y0037408D01*
X0438530Y0037543D01*
X0438493Y0037679D01*
X0438459Y0037815D01*
X0438430Y0037953D01*
X0438404Y0038092D01*
X0438383Y0038231D01*
X0438365Y0038371D01*
X0438351Y0038511D01*
X0438341Y0038651D01*
X0438335Y0038792D01*
X0438333Y0038933D01*
X0618333Y0038933D02*
X0618335Y0039074D01*
X0618341Y0039215D01*
X0618351Y0039355D01*
X0618365Y0039495D01*
X0618383Y0039635D01*
X0618404Y0039774D01*
X0618430Y0039913D01*
X0618459Y0040051D01*
X0618493Y0040187D01*
X0618530Y0040323D01*
X0618571Y0040458D01*
X0618616Y0040592D01*
X0618665Y0040724D01*
X0618717Y0040855D01*
X0618773Y0040984D01*
X0618833Y0041111D01*
X0618896Y0041237D01*
X0618962Y0041361D01*
X0619033Y0041484D01*
X0619106Y0041604D01*
X0619183Y0041722D01*
X0619263Y0041838D01*
X0619347Y0041951D01*
X0619433Y0042062D01*
X0619523Y0042171D01*
X0619616Y0042277D01*
X0619711Y0042380D01*
X0619810Y0042481D01*
X0619911Y0042579D01*
X0620015Y0042674D01*
X0620122Y0042766D01*
X0620231Y0042855D01*
X0620343Y0042940D01*
X0620457Y0043023D01*
X0620573Y0043103D01*
X0620692Y0043179D01*
X0620813Y0043251D01*
X0620935Y0043321D01*
X0621060Y0043386D01*
X0621186Y0043449D01*
X0621314Y0043507D01*
X0621444Y0043562D01*
X0621575Y0043614D01*
X0621708Y0043661D01*
X0621842Y0043705D01*
X0621977Y0043746D01*
X0622113Y0043782D01*
X0622250Y0043814D01*
X0622388Y0043843D01*
X0622526Y0043868D01*
X0622666Y0043888D01*
X0622806Y0043905D01*
X0622946Y0043918D01*
X0623087Y0043927D01*
X0623227Y0043932D01*
X0623368Y0043933D01*
X0623509Y0043930D01*
X0623650Y0043923D01*
X0623790Y0043912D01*
X0623930Y0043897D01*
X0624070Y0043878D01*
X0624209Y0043856D01*
X0624347Y0043829D01*
X0624485Y0043799D01*
X0624621Y0043764D01*
X0624757Y0043726D01*
X0624891Y0043684D01*
X0625025Y0043638D01*
X0625157Y0043589D01*
X0625287Y0043535D01*
X0625416Y0043478D01*
X0625543Y0043418D01*
X0625669Y0043354D01*
X0625792Y0043286D01*
X0625914Y0043215D01*
X0626034Y0043141D01*
X0626151Y0043063D01*
X0626266Y0042982D01*
X0626379Y0042898D01*
X0626490Y0042811D01*
X0626598Y0042720D01*
X0626703Y0042627D01*
X0626806Y0042530D01*
X0626906Y0042431D01*
X0627003Y0042329D01*
X0627097Y0042224D01*
X0627188Y0042117D01*
X0627276Y0042007D01*
X0627361Y0041895D01*
X0627443Y0041780D01*
X0627522Y0041663D01*
X0627597Y0041544D01*
X0627669Y0041423D01*
X0627737Y0041300D01*
X0627802Y0041175D01*
X0627864Y0041048D01*
X0627921Y0040919D01*
X0627976Y0040789D01*
X0628026Y0040658D01*
X0628073Y0040525D01*
X0628116Y0040391D01*
X0628155Y0040255D01*
X0628190Y0040119D01*
X0628222Y0039982D01*
X0628249Y0039844D01*
X0628273Y0039705D01*
X0628293Y0039565D01*
X0628309Y0039425D01*
X0628321Y0039285D01*
X0628329Y0039144D01*
X0628333Y0039003D01*
X0628333Y0038863D01*
X0628329Y0038722D01*
X0628321Y0038581D01*
X0628309Y0038441D01*
X0628293Y0038301D01*
X0628273Y0038161D01*
X0628249Y0038022D01*
X0628222Y0037884D01*
X0628190Y0037747D01*
X0628155Y0037611D01*
X0628116Y0037475D01*
X0628073Y0037341D01*
X0628026Y0037208D01*
X0627976Y0037077D01*
X0627921Y0036947D01*
X0627864Y0036818D01*
X0627802Y0036691D01*
X0627737Y0036566D01*
X0627669Y0036443D01*
X0627597Y0036322D01*
X0627522Y0036203D01*
X0627443Y0036086D01*
X0627361Y0035971D01*
X0627276Y0035859D01*
X0627188Y0035749D01*
X0627097Y0035642D01*
X0627003Y0035537D01*
X0626906Y0035435D01*
X0626806Y0035336D01*
X0626703Y0035239D01*
X0626598Y0035146D01*
X0626490Y0035055D01*
X0626379Y0034968D01*
X0626266Y0034884D01*
X0626151Y0034803D01*
X0626034Y0034725D01*
X0625914Y0034651D01*
X0625792Y0034580D01*
X0625669Y0034512D01*
X0625543Y0034448D01*
X0625416Y0034388D01*
X0625287Y0034331D01*
X0625157Y0034277D01*
X0625025Y0034228D01*
X0624891Y0034182D01*
X0624757Y0034140D01*
X0624621Y0034102D01*
X0624485Y0034067D01*
X0624347Y0034037D01*
X0624209Y0034010D01*
X0624070Y0033988D01*
X0623930Y0033969D01*
X0623790Y0033954D01*
X0623650Y0033943D01*
X0623509Y0033936D01*
X0623368Y0033933D01*
X0623227Y0033934D01*
X0623087Y0033939D01*
X0622946Y0033948D01*
X0622806Y0033961D01*
X0622666Y0033978D01*
X0622526Y0033998D01*
X0622388Y0034023D01*
X0622250Y0034052D01*
X0622113Y0034084D01*
X0621977Y0034120D01*
X0621842Y0034161D01*
X0621708Y0034205D01*
X0621575Y0034252D01*
X0621444Y0034304D01*
X0621314Y0034359D01*
X0621186Y0034417D01*
X0621060Y0034480D01*
X0620935Y0034545D01*
X0620813Y0034615D01*
X0620692Y0034687D01*
X0620573Y0034763D01*
X0620457Y0034843D01*
X0620343Y0034926D01*
X0620231Y0035011D01*
X0620122Y0035100D01*
X0620015Y0035192D01*
X0619911Y0035287D01*
X0619810Y0035385D01*
X0619711Y0035486D01*
X0619616Y0035589D01*
X0619523Y0035695D01*
X0619433Y0035804D01*
X0619347Y0035915D01*
X0619263Y0036028D01*
X0619183Y0036144D01*
X0619106Y0036262D01*
X0619033Y0036382D01*
X0618962Y0036505D01*
X0618896Y0036629D01*
X0618833Y0036755D01*
X0618773Y0036882D01*
X0618717Y0037011D01*
X0618665Y0037142D01*
X0618616Y0037274D01*
X0618571Y0037408D01*
X0618530Y0037543D01*
X0618493Y0037679D01*
X0618459Y0037815D01*
X0618430Y0037953D01*
X0618404Y0038092D01*
X0618383Y0038231D01*
X0618365Y0038371D01*
X0618351Y0038511D01*
X0618341Y0038651D01*
X0618335Y0038792D01*
X0618333Y0038933D01*
X0663845Y0054248D02*
X0663847Y0054345D01*
X0663853Y0054442D01*
X0663863Y0054538D01*
X0663877Y0054634D01*
X0663895Y0054730D01*
X0663916Y0054824D01*
X0663942Y0054918D01*
X0663971Y0055010D01*
X0664005Y0055101D01*
X0664041Y0055191D01*
X0664082Y0055279D01*
X0664126Y0055365D01*
X0664174Y0055450D01*
X0664225Y0055532D01*
X0664279Y0055613D01*
X0664337Y0055691D01*
X0664398Y0055766D01*
X0664461Y0055839D01*
X0664528Y0055910D01*
X0664598Y0055977D01*
X0664670Y0056042D01*
X0664745Y0056103D01*
X0664823Y0056162D01*
X0664902Y0056217D01*
X0664984Y0056269D01*
X0665068Y0056317D01*
X0665154Y0056362D01*
X0665242Y0056404D01*
X0665331Y0056442D01*
X0665422Y0056476D01*
X0665514Y0056506D01*
X0665607Y0056533D01*
X0665702Y0056555D01*
X0665797Y0056574D01*
X0665893Y0056589D01*
X0665989Y0056600D01*
X0666086Y0056607D01*
X0666183Y0056610D01*
X0666280Y0056609D01*
X0666377Y0056604D01*
X0666473Y0056595D01*
X0666569Y0056582D01*
X0666665Y0056565D01*
X0666760Y0056544D01*
X0666853Y0056520D01*
X0666946Y0056491D01*
X0667038Y0056459D01*
X0667128Y0056423D01*
X0667216Y0056384D01*
X0667303Y0056340D01*
X0667388Y0056294D01*
X0667471Y0056243D01*
X0667552Y0056190D01*
X0667630Y0056133D01*
X0667707Y0056073D01*
X0667780Y0056010D01*
X0667851Y0055944D01*
X0667919Y0055875D01*
X0667985Y0055803D01*
X0668047Y0055729D01*
X0668106Y0055652D01*
X0668162Y0055573D01*
X0668215Y0055491D01*
X0668265Y0055408D01*
X0668310Y0055322D01*
X0668353Y0055235D01*
X0668392Y0055146D01*
X0668427Y0055056D01*
X0668458Y0054964D01*
X0668485Y0054871D01*
X0668509Y0054777D01*
X0668529Y0054682D01*
X0668545Y0054586D01*
X0668557Y0054490D01*
X0668565Y0054393D01*
X0668569Y0054296D01*
X0668569Y0054200D01*
X0668565Y0054103D01*
X0668557Y0054006D01*
X0668545Y0053910D01*
X0668529Y0053814D01*
X0668509Y0053719D01*
X0668485Y0053625D01*
X0668458Y0053532D01*
X0668427Y0053440D01*
X0668392Y0053350D01*
X0668353Y0053261D01*
X0668310Y0053174D01*
X0668265Y0053088D01*
X0668215Y0053005D01*
X0668162Y0052923D01*
X0668106Y0052844D01*
X0668047Y0052767D01*
X0667985Y0052693D01*
X0667919Y0052621D01*
X0667851Y0052552D01*
X0667780Y0052486D01*
X0667707Y0052423D01*
X0667630Y0052363D01*
X0667552Y0052306D01*
X0667471Y0052253D01*
X0667388Y0052202D01*
X0667303Y0052156D01*
X0667216Y0052112D01*
X0667128Y0052073D01*
X0667038Y0052037D01*
X0666946Y0052005D01*
X0666853Y0051976D01*
X0666760Y0051952D01*
X0666665Y0051931D01*
X0666569Y0051914D01*
X0666473Y0051901D01*
X0666377Y0051892D01*
X0666280Y0051887D01*
X0666183Y0051886D01*
X0666086Y0051889D01*
X0665989Y0051896D01*
X0665893Y0051907D01*
X0665797Y0051922D01*
X0665702Y0051941D01*
X0665607Y0051963D01*
X0665514Y0051990D01*
X0665422Y0052020D01*
X0665331Y0052054D01*
X0665242Y0052092D01*
X0665154Y0052134D01*
X0665068Y0052179D01*
X0664984Y0052227D01*
X0664902Y0052279D01*
X0664823Y0052334D01*
X0664745Y0052393D01*
X0664670Y0052454D01*
X0664598Y0052519D01*
X0664528Y0052586D01*
X0664461Y0052657D01*
X0664398Y0052730D01*
X0664337Y0052805D01*
X0664279Y0052883D01*
X0664225Y0052964D01*
X0664174Y0053046D01*
X0664126Y0053131D01*
X0664082Y0053217D01*
X0664041Y0053305D01*
X0664005Y0053395D01*
X0663971Y0053486D01*
X0663942Y0053578D01*
X0663916Y0053672D01*
X0663895Y0053766D01*
X0663877Y0053862D01*
X0663863Y0053958D01*
X0663853Y0054054D01*
X0663847Y0054151D01*
X0663845Y0054248D01*
X0673688Y0054248D02*
X0673690Y0054345D01*
X0673696Y0054442D01*
X0673706Y0054538D01*
X0673720Y0054634D01*
X0673738Y0054730D01*
X0673759Y0054824D01*
X0673785Y0054918D01*
X0673814Y0055010D01*
X0673848Y0055101D01*
X0673884Y0055191D01*
X0673925Y0055279D01*
X0673969Y0055365D01*
X0674017Y0055450D01*
X0674068Y0055532D01*
X0674122Y0055613D01*
X0674180Y0055691D01*
X0674241Y0055766D01*
X0674304Y0055839D01*
X0674371Y0055910D01*
X0674441Y0055977D01*
X0674513Y0056042D01*
X0674588Y0056103D01*
X0674666Y0056162D01*
X0674745Y0056217D01*
X0674827Y0056269D01*
X0674911Y0056317D01*
X0674997Y0056362D01*
X0675085Y0056404D01*
X0675174Y0056442D01*
X0675265Y0056476D01*
X0675357Y0056506D01*
X0675450Y0056533D01*
X0675545Y0056555D01*
X0675640Y0056574D01*
X0675736Y0056589D01*
X0675832Y0056600D01*
X0675929Y0056607D01*
X0676026Y0056610D01*
X0676123Y0056609D01*
X0676220Y0056604D01*
X0676316Y0056595D01*
X0676412Y0056582D01*
X0676508Y0056565D01*
X0676603Y0056544D01*
X0676696Y0056520D01*
X0676789Y0056491D01*
X0676881Y0056459D01*
X0676971Y0056423D01*
X0677059Y0056384D01*
X0677146Y0056340D01*
X0677231Y0056294D01*
X0677314Y0056243D01*
X0677395Y0056190D01*
X0677473Y0056133D01*
X0677550Y0056073D01*
X0677623Y0056010D01*
X0677694Y0055944D01*
X0677762Y0055875D01*
X0677828Y0055803D01*
X0677890Y0055729D01*
X0677949Y0055652D01*
X0678005Y0055573D01*
X0678058Y0055491D01*
X0678108Y0055408D01*
X0678153Y0055322D01*
X0678196Y0055235D01*
X0678235Y0055146D01*
X0678270Y0055056D01*
X0678301Y0054964D01*
X0678328Y0054871D01*
X0678352Y0054777D01*
X0678372Y0054682D01*
X0678388Y0054586D01*
X0678400Y0054490D01*
X0678408Y0054393D01*
X0678412Y0054296D01*
X0678412Y0054200D01*
X0678408Y0054103D01*
X0678400Y0054006D01*
X0678388Y0053910D01*
X0678372Y0053814D01*
X0678352Y0053719D01*
X0678328Y0053625D01*
X0678301Y0053532D01*
X0678270Y0053440D01*
X0678235Y0053350D01*
X0678196Y0053261D01*
X0678153Y0053174D01*
X0678108Y0053088D01*
X0678058Y0053005D01*
X0678005Y0052923D01*
X0677949Y0052844D01*
X0677890Y0052767D01*
X0677828Y0052693D01*
X0677762Y0052621D01*
X0677694Y0052552D01*
X0677623Y0052486D01*
X0677550Y0052423D01*
X0677473Y0052363D01*
X0677395Y0052306D01*
X0677314Y0052253D01*
X0677231Y0052202D01*
X0677146Y0052156D01*
X0677059Y0052112D01*
X0676971Y0052073D01*
X0676881Y0052037D01*
X0676789Y0052005D01*
X0676696Y0051976D01*
X0676603Y0051952D01*
X0676508Y0051931D01*
X0676412Y0051914D01*
X0676316Y0051901D01*
X0676220Y0051892D01*
X0676123Y0051887D01*
X0676026Y0051886D01*
X0675929Y0051889D01*
X0675832Y0051896D01*
X0675736Y0051907D01*
X0675640Y0051922D01*
X0675545Y0051941D01*
X0675450Y0051963D01*
X0675357Y0051990D01*
X0675265Y0052020D01*
X0675174Y0052054D01*
X0675085Y0052092D01*
X0674997Y0052134D01*
X0674911Y0052179D01*
X0674827Y0052227D01*
X0674745Y0052279D01*
X0674666Y0052334D01*
X0674588Y0052393D01*
X0674513Y0052454D01*
X0674441Y0052519D01*
X0674371Y0052586D01*
X0674304Y0052657D01*
X0674241Y0052730D01*
X0674180Y0052805D01*
X0674122Y0052883D01*
X0674068Y0052964D01*
X0674017Y0053046D01*
X0673969Y0053131D01*
X0673925Y0053217D01*
X0673884Y0053305D01*
X0673848Y0053395D01*
X0673814Y0053486D01*
X0673785Y0053578D01*
X0673759Y0053672D01*
X0673738Y0053766D01*
X0673720Y0053862D01*
X0673706Y0053958D01*
X0673696Y0054054D01*
X0673690Y0054151D01*
X0673688Y0054248D01*
X0644160Y0073933D02*
X0644162Y0074030D01*
X0644168Y0074127D01*
X0644178Y0074223D01*
X0644192Y0074319D01*
X0644210Y0074415D01*
X0644231Y0074509D01*
X0644257Y0074603D01*
X0644286Y0074695D01*
X0644320Y0074786D01*
X0644356Y0074876D01*
X0644397Y0074964D01*
X0644441Y0075050D01*
X0644489Y0075135D01*
X0644540Y0075217D01*
X0644594Y0075298D01*
X0644652Y0075376D01*
X0644713Y0075451D01*
X0644776Y0075524D01*
X0644843Y0075595D01*
X0644913Y0075662D01*
X0644985Y0075727D01*
X0645060Y0075788D01*
X0645138Y0075847D01*
X0645217Y0075902D01*
X0645299Y0075954D01*
X0645383Y0076002D01*
X0645469Y0076047D01*
X0645557Y0076089D01*
X0645646Y0076127D01*
X0645737Y0076161D01*
X0645829Y0076191D01*
X0645922Y0076218D01*
X0646017Y0076240D01*
X0646112Y0076259D01*
X0646208Y0076274D01*
X0646304Y0076285D01*
X0646401Y0076292D01*
X0646498Y0076295D01*
X0646595Y0076294D01*
X0646692Y0076289D01*
X0646788Y0076280D01*
X0646884Y0076267D01*
X0646980Y0076250D01*
X0647075Y0076229D01*
X0647168Y0076205D01*
X0647261Y0076176D01*
X0647353Y0076144D01*
X0647443Y0076108D01*
X0647531Y0076069D01*
X0647618Y0076025D01*
X0647703Y0075979D01*
X0647786Y0075928D01*
X0647867Y0075875D01*
X0647945Y0075818D01*
X0648022Y0075758D01*
X0648095Y0075695D01*
X0648166Y0075629D01*
X0648234Y0075560D01*
X0648300Y0075488D01*
X0648362Y0075414D01*
X0648421Y0075337D01*
X0648477Y0075258D01*
X0648530Y0075176D01*
X0648580Y0075093D01*
X0648625Y0075007D01*
X0648668Y0074920D01*
X0648707Y0074831D01*
X0648742Y0074741D01*
X0648773Y0074649D01*
X0648800Y0074556D01*
X0648824Y0074462D01*
X0648844Y0074367D01*
X0648860Y0074271D01*
X0648872Y0074175D01*
X0648880Y0074078D01*
X0648884Y0073981D01*
X0648884Y0073885D01*
X0648880Y0073788D01*
X0648872Y0073691D01*
X0648860Y0073595D01*
X0648844Y0073499D01*
X0648824Y0073404D01*
X0648800Y0073310D01*
X0648773Y0073217D01*
X0648742Y0073125D01*
X0648707Y0073035D01*
X0648668Y0072946D01*
X0648625Y0072859D01*
X0648580Y0072773D01*
X0648530Y0072690D01*
X0648477Y0072608D01*
X0648421Y0072529D01*
X0648362Y0072452D01*
X0648300Y0072378D01*
X0648234Y0072306D01*
X0648166Y0072237D01*
X0648095Y0072171D01*
X0648022Y0072108D01*
X0647945Y0072048D01*
X0647867Y0071991D01*
X0647786Y0071938D01*
X0647703Y0071887D01*
X0647618Y0071841D01*
X0647531Y0071797D01*
X0647443Y0071758D01*
X0647353Y0071722D01*
X0647261Y0071690D01*
X0647168Y0071661D01*
X0647075Y0071637D01*
X0646980Y0071616D01*
X0646884Y0071599D01*
X0646788Y0071586D01*
X0646692Y0071577D01*
X0646595Y0071572D01*
X0646498Y0071571D01*
X0646401Y0071574D01*
X0646304Y0071581D01*
X0646208Y0071592D01*
X0646112Y0071607D01*
X0646017Y0071626D01*
X0645922Y0071648D01*
X0645829Y0071675D01*
X0645737Y0071705D01*
X0645646Y0071739D01*
X0645557Y0071777D01*
X0645469Y0071819D01*
X0645383Y0071864D01*
X0645299Y0071912D01*
X0645217Y0071964D01*
X0645138Y0072019D01*
X0645060Y0072078D01*
X0644985Y0072139D01*
X0644913Y0072204D01*
X0644843Y0072271D01*
X0644776Y0072342D01*
X0644713Y0072415D01*
X0644652Y0072490D01*
X0644594Y0072568D01*
X0644540Y0072649D01*
X0644489Y0072731D01*
X0644441Y0072816D01*
X0644397Y0072902D01*
X0644356Y0072990D01*
X0644320Y0073080D01*
X0644286Y0073171D01*
X0644257Y0073263D01*
X0644231Y0073357D01*
X0644210Y0073451D01*
X0644192Y0073547D01*
X0644178Y0073643D01*
X0644168Y0073739D01*
X0644162Y0073836D01*
X0644160Y0073933D01*
X0663845Y0093618D02*
X0663847Y0093715D01*
X0663853Y0093812D01*
X0663863Y0093908D01*
X0663877Y0094004D01*
X0663895Y0094100D01*
X0663916Y0094194D01*
X0663942Y0094288D01*
X0663971Y0094380D01*
X0664005Y0094471D01*
X0664041Y0094561D01*
X0664082Y0094649D01*
X0664126Y0094735D01*
X0664174Y0094820D01*
X0664225Y0094902D01*
X0664279Y0094983D01*
X0664337Y0095061D01*
X0664398Y0095136D01*
X0664461Y0095209D01*
X0664528Y0095280D01*
X0664598Y0095347D01*
X0664670Y0095412D01*
X0664745Y0095473D01*
X0664823Y0095532D01*
X0664902Y0095587D01*
X0664984Y0095639D01*
X0665068Y0095687D01*
X0665154Y0095732D01*
X0665242Y0095774D01*
X0665331Y0095812D01*
X0665422Y0095846D01*
X0665514Y0095876D01*
X0665607Y0095903D01*
X0665702Y0095925D01*
X0665797Y0095944D01*
X0665893Y0095959D01*
X0665989Y0095970D01*
X0666086Y0095977D01*
X0666183Y0095980D01*
X0666280Y0095979D01*
X0666377Y0095974D01*
X0666473Y0095965D01*
X0666569Y0095952D01*
X0666665Y0095935D01*
X0666760Y0095914D01*
X0666853Y0095890D01*
X0666946Y0095861D01*
X0667038Y0095829D01*
X0667128Y0095793D01*
X0667216Y0095754D01*
X0667303Y0095710D01*
X0667388Y0095664D01*
X0667471Y0095613D01*
X0667552Y0095560D01*
X0667630Y0095503D01*
X0667707Y0095443D01*
X0667780Y0095380D01*
X0667851Y0095314D01*
X0667919Y0095245D01*
X0667985Y0095173D01*
X0668047Y0095099D01*
X0668106Y0095022D01*
X0668162Y0094943D01*
X0668215Y0094861D01*
X0668265Y0094778D01*
X0668310Y0094692D01*
X0668353Y0094605D01*
X0668392Y0094516D01*
X0668427Y0094426D01*
X0668458Y0094334D01*
X0668485Y0094241D01*
X0668509Y0094147D01*
X0668529Y0094052D01*
X0668545Y0093956D01*
X0668557Y0093860D01*
X0668565Y0093763D01*
X0668569Y0093666D01*
X0668569Y0093570D01*
X0668565Y0093473D01*
X0668557Y0093376D01*
X0668545Y0093280D01*
X0668529Y0093184D01*
X0668509Y0093089D01*
X0668485Y0092995D01*
X0668458Y0092902D01*
X0668427Y0092810D01*
X0668392Y0092720D01*
X0668353Y0092631D01*
X0668310Y0092544D01*
X0668265Y0092458D01*
X0668215Y0092375D01*
X0668162Y0092293D01*
X0668106Y0092214D01*
X0668047Y0092137D01*
X0667985Y0092063D01*
X0667919Y0091991D01*
X0667851Y0091922D01*
X0667780Y0091856D01*
X0667707Y0091793D01*
X0667630Y0091733D01*
X0667552Y0091676D01*
X0667471Y0091623D01*
X0667388Y0091572D01*
X0667303Y0091526D01*
X0667216Y0091482D01*
X0667128Y0091443D01*
X0667038Y0091407D01*
X0666946Y0091375D01*
X0666853Y0091346D01*
X0666760Y0091322D01*
X0666665Y0091301D01*
X0666569Y0091284D01*
X0666473Y0091271D01*
X0666377Y0091262D01*
X0666280Y0091257D01*
X0666183Y0091256D01*
X0666086Y0091259D01*
X0665989Y0091266D01*
X0665893Y0091277D01*
X0665797Y0091292D01*
X0665702Y0091311D01*
X0665607Y0091333D01*
X0665514Y0091360D01*
X0665422Y0091390D01*
X0665331Y0091424D01*
X0665242Y0091462D01*
X0665154Y0091504D01*
X0665068Y0091549D01*
X0664984Y0091597D01*
X0664902Y0091649D01*
X0664823Y0091704D01*
X0664745Y0091763D01*
X0664670Y0091824D01*
X0664598Y0091889D01*
X0664528Y0091956D01*
X0664461Y0092027D01*
X0664398Y0092100D01*
X0664337Y0092175D01*
X0664279Y0092253D01*
X0664225Y0092334D01*
X0664174Y0092416D01*
X0664126Y0092501D01*
X0664082Y0092587D01*
X0664041Y0092675D01*
X0664005Y0092765D01*
X0663971Y0092856D01*
X0663942Y0092948D01*
X0663916Y0093042D01*
X0663895Y0093136D01*
X0663877Y0093232D01*
X0663863Y0093328D01*
X0663853Y0093424D01*
X0663847Y0093521D01*
X0663845Y0093618D01*
X0673688Y0093618D02*
X0673690Y0093715D01*
X0673696Y0093812D01*
X0673706Y0093908D01*
X0673720Y0094004D01*
X0673738Y0094100D01*
X0673759Y0094194D01*
X0673785Y0094288D01*
X0673814Y0094380D01*
X0673848Y0094471D01*
X0673884Y0094561D01*
X0673925Y0094649D01*
X0673969Y0094735D01*
X0674017Y0094820D01*
X0674068Y0094902D01*
X0674122Y0094983D01*
X0674180Y0095061D01*
X0674241Y0095136D01*
X0674304Y0095209D01*
X0674371Y0095280D01*
X0674441Y0095347D01*
X0674513Y0095412D01*
X0674588Y0095473D01*
X0674666Y0095532D01*
X0674745Y0095587D01*
X0674827Y0095639D01*
X0674911Y0095687D01*
X0674997Y0095732D01*
X0675085Y0095774D01*
X0675174Y0095812D01*
X0675265Y0095846D01*
X0675357Y0095876D01*
X0675450Y0095903D01*
X0675545Y0095925D01*
X0675640Y0095944D01*
X0675736Y0095959D01*
X0675832Y0095970D01*
X0675929Y0095977D01*
X0676026Y0095980D01*
X0676123Y0095979D01*
X0676220Y0095974D01*
X0676316Y0095965D01*
X0676412Y0095952D01*
X0676508Y0095935D01*
X0676603Y0095914D01*
X0676696Y0095890D01*
X0676789Y0095861D01*
X0676881Y0095829D01*
X0676971Y0095793D01*
X0677059Y0095754D01*
X0677146Y0095710D01*
X0677231Y0095664D01*
X0677314Y0095613D01*
X0677395Y0095560D01*
X0677473Y0095503D01*
X0677550Y0095443D01*
X0677623Y0095380D01*
X0677694Y0095314D01*
X0677762Y0095245D01*
X0677828Y0095173D01*
X0677890Y0095099D01*
X0677949Y0095022D01*
X0678005Y0094943D01*
X0678058Y0094861D01*
X0678108Y0094778D01*
X0678153Y0094692D01*
X0678196Y0094605D01*
X0678235Y0094516D01*
X0678270Y0094426D01*
X0678301Y0094334D01*
X0678328Y0094241D01*
X0678352Y0094147D01*
X0678372Y0094052D01*
X0678388Y0093956D01*
X0678400Y0093860D01*
X0678408Y0093763D01*
X0678412Y0093666D01*
X0678412Y0093570D01*
X0678408Y0093473D01*
X0678400Y0093376D01*
X0678388Y0093280D01*
X0678372Y0093184D01*
X0678352Y0093089D01*
X0678328Y0092995D01*
X0678301Y0092902D01*
X0678270Y0092810D01*
X0678235Y0092720D01*
X0678196Y0092631D01*
X0678153Y0092544D01*
X0678108Y0092458D01*
X0678058Y0092375D01*
X0678005Y0092293D01*
X0677949Y0092214D01*
X0677890Y0092137D01*
X0677828Y0092063D01*
X0677762Y0091991D01*
X0677694Y0091922D01*
X0677623Y0091856D01*
X0677550Y0091793D01*
X0677473Y0091733D01*
X0677395Y0091676D01*
X0677314Y0091623D01*
X0677231Y0091572D01*
X0677146Y0091526D01*
X0677059Y0091482D01*
X0676971Y0091443D01*
X0676881Y0091407D01*
X0676789Y0091375D01*
X0676696Y0091346D01*
X0676603Y0091322D01*
X0676508Y0091301D01*
X0676412Y0091284D01*
X0676316Y0091271D01*
X0676220Y0091262D01*
X0676123Y0091257D01*
X0676026Y0091256D01*
X0675929Y0091259D01*
X0675832Y0091266D01*
X0675736Y0091277D01*
X0675640Y0091292D01*
X0675545Y0091311D01*
X0675450Y0091333D01*
X0675357Y0091360D01*
X0675265Y0091390D01*
X0675174Y0091424D01*
X0675085Y0091462D01*
X0674997Y0091504D01*
X0674911Y0091549D01*
X0674827Y0091597D01*
X0674745Y0091649D01*
X0674666Y0091704D01*
X0674588Y0091763D01*
X0674513Y0091824D01*
X0674441Y0091889D01*
X0674371Y0091956D01*
X0674304Y0092027D01*
X0674241Y0092100D01*
X0674180Y0092175D01*
X0674122Y0092253D01*
X0674068Y0092334D01*
X0674017Y0092416D01*
X0673969Y0092501D01*
X0673925Y0092587D01*
X0673884Y0092675D01*
X0673848Y0092765D01*
X0673814Y0092856D01*
X0673785Y0092948D01*
X0673759Y0093042D01*
X0673738Y0093136D01*
X0673720Y0093232D01*
X0673706Y0093328D01*
X0673696Y0093424D01*
X0673690Y0093521D01*
X0673688Y0093618D01*
X0618333Y0108933D02*
X0618335Y0109074D01*
X0618341Y0109215D01*
X0618351Y0109355D01*
X0618365Y0109495D01*
X0618383Y0109635D01*
X0618404Y0109774D01*
X0618430Y0109913D01*
X0618459Y0110051D01*
X0618493Y0110187D01*
X0618530Y0110323D01*
X0618571Y0110458D01*
X0618616Y0110592D01*
X0618665Y0110724D01*
X0618717Y0110855D01*
X0618773Y0110984D01*
X0618833Y0111111D01*
X0618896Y0111237D01*
X0618962Y0111361D01*
X0619033Y0111484D01*
X0619106Y0111604D01*
X0619183Y0111722D01*
X0619263Y0111838D01*
X0619347Y0111951D01*
X0619433Y0112062D01*
X0619523Y0112171D01*
X0619616Y0112277D01*
X0619711Y0112380D01*
X0619810Y0112481D01*
X0619911Y0112579D01*
X0620015Y0112674D01*
X0620122Y0112766D01*
X0620231Y0112855D01*
X0620343Y0112940D01*
X0620457Y0113023D01*
X0620573Y0113103D01*
X0620692Y0113179D01*
X0620813Y0113251D01*
X0620935Y0113321D01*
X0621060Y0113386D01*
X0621186Y0113449D01*
X0621314Y0113507D01*
X0621444Y0113562D01*
X0621575Y0113614D01*
X0621708Y0113661D01*
X0621842Y0113705D01*
X0621977Y0113746D01*
X0622113Y0113782D01*
X0622250Y0113814D01*
X0622388Y0113843D01*
X0622526Y0113868D01*
X0622666Y0113888D01*
X0622806Y0113905D01*
X0622946Y0113918D01*
X0623087Y0113927D01*
X0623227Y0113932D01*
X0623368Y0113933D01*
X0623509Y0113930D01*
X0623650Y0113923D01*
X0623790Y0113912D01*
X0623930Y0113897D01*
X0624070Y0113878D01*
X0624209Y0113856D01*
X0624347Y0113829D01*
X0624485Y0113799D01*
X0624621Y0113764D01*
X0624757Y0113726D01*
X0624891Y0113684D01*
X0625025Y0113638D01*
X0625157Y0113589D01*
X0625287Y0113535D01*
X0625416Y0113478D01*
X0625543Y0113418D01*
X0625669Y0113354D01*
X0625792Y0113286D01*
X0625914Y0113215D01*
X0626034Y0113141D01*
X0626151Y0113063D01*
X0626266Y0112982D01*
X0626379Y0112898D01*
X0626490Y0112811D01*
X0626598Y0112720D01*
X0626703Y0112627D01*
X0626806Y0112530D01*
X0626906Y0112431D01*
X0627003Y0112329D01*
X0627097Y0112224D01*
X0627188Y0112117D01*
X0627276Y0112007D01*
X0627361Y0111895D01*
X0627443Y0111780D01*
X0627522Y0111663D01*
X0627597Y0111544D01*
X0627669Y0111423D01*
X0627737Y0111300D01*
X0627802Y0111175D01*
X0627864Y0111048D01*
X0627921Y0110919D01*
X0627976Y0110789D01*
X0628026Y0110658D01*
X0628073Y0110525D01*
X0628116Y0110391D01*
X0628155Y0110255D01*
X0628190Y0110119D01*
X0628222Y0109982D01*
X0628249Y0109844D01*
X0628273Y0109705D01*
X0628293Y0109565D01*
X0628309Y0109425D01*
X0628321Y0109285D01*
X0628329Y0109144D01*
X0628333Y0109003D01*
X0628333Y0108863D01*
X0628329Y0108722D01*
X0628321Y0108581D01*
X0628309Y0108441D01*
X0628293Y0108301D01*
X0628273Y0108161D01*
X0628249Y0108022D01*
X0628222Y0107884D01*
X0628190Y0107747D01*
X0628155Y0107611D01*
X0628116Y0107475D01*
X0628073Y0107341D01*
X0628026Y0107208D01*
X0627976Y0107077D01*
X0627921Y0106947D01*
X0627864Y0106818D01*
X0627802Y0106691D01*
X0627737Y0106566D01*
X0627669Y0106443D01*
X0627597Y0106322D01*
X0627522Y0106203D01*
X0627443Y0106086D01*
X0627361Y0105971D01*
X0627276Y0105859D01*
X0627188Y0105749D01*
X0627097Y0105642D01*
X0627003Y0105537D01*
X0626906Y0105435D01*
X0626806Y0105336D01*
X0626703Y0105239D01*
X0626598Y0105146D01*
X0626490Y0105055D01*
X0626379Y0104968D01*
X0626266Y0104884D01*
X0626151Y0104803D01*
X0626034Y0104725D01*
X0625914Y0104651D01*
X0625792Y0104580D01*
X0625669Y0104512D01*
X0625543Y0104448D01*
X0625416Y0104388D01*
X0625287Y0104331D01*
X0625157Y0104277D01*
X0625025Y0104228D01*
X0624891Y0104182D01*
X0624757Y0104140D01*
X0624621Y0104102D01*
X0624485Y0104067D01*
X0624347Y0104037D01*
X0624209Y0104010D01*
X0624070Y0103988D01*
X0623930Y0103969D01*
X0623790Y0103954D01*
X0623650Y0103943D01*
X0623509Y0103936D01*
X0623368Y0103933D01*
X0623227Y0103934D01*
X0623087Y0103939D01*
X0622946Y0103948D01*
X0622806Y0103961D01*
X0622666Y0103978D01*
X0622526Y0103998D01*
X0622388Y0104023D01*
X0622250Y0104052D01*
X0622113Y0104084D01*
X0621977Y0104120D01*
X0621842Y0104161D01*
X0621708Y0104205D01*
X0621575Y0104252D01*
X0621444Y0104304D01*
X0621314Y0104359D01*
X0621186Y0104417D01*
X0621060Y0104480D01*
X0620935Y0104545D01*
X0620813Y0104615D01*
X0620692Y0104687D01*
X0620573Y0104763D01*
X0620457Y0104843D01*
X0620343Y0104926D01*
X0620231Y0105011D01*
X0620122Y0105100D01*
X0620015Y0105192D01*
X0619911Y0105287D01*
X0619810Y0105385D01*
X0619711Y0105486D01*
X0619616Y0105589D01*
X0619523Y0105695D01*
X0619433Y0105804D01*
X0619347Y0105915D01*
X0619263Y0106028D01*
X0619183Y0106144D01*
X0619106Y0106262D01*
X0619033Y0106382D01*
X0618962Y0106505D01*
X0618896Y0106629D01*
X0618833Y0106755D01*
X0618773Y0106882D01*
X0618717Y0107011D01*
X0618665Y0107142D01*
X0618616Y0107274D01*
X0618571Y0107408D01*
X0618530Y0107543D01*
X0618493Y0107679D01*
X0618459Y0107815D01*
X0618430Y0107953D01*
X0618404Y0108092D01*
X0618383Y0108231D01*
X0618365Y0108371D01*
X0618351Y0108511D01*
X0618341Y0108651D01*
X0618335Y0108792D01*
X0618333Y0108933D01*
X0438333Y0108933D02*
X0438335Y0109074D01*
X0438341Y0109215D01*
X0438351Y0109355D01*
X0438365Y0109495D01*
X0438383Y0109635D01*
X0438404Y0109774D01*
X0438430Y0109913D01*
X0438459Y0110051D01*
X0438493Y0110187D01*
X0438530Y0110323D01*
X0438571Y0110458D01*
X0438616Y0110592D01*
X0438665Y0110724D01*
X0438717Y0110855D01*
X0438773Y0110984D01*
X0438833Y0111111D01*
X0438896Y0111237D01*
X0438962Y0111361D01*
X0439033Y0111484D01*
X0439106Y0111604D01*
X0439183Y0111722D01*
X0439263Y0111838D01*
X0439347Y0111951D01*
X0439433Y0112062D01*
X0439523Y0112171D01*
X0439616Y0112277D01*
X0439711Y0112380D01*
X0439810Y0112481D01*
X0439911Y0112579D01*
X0440015Y0112674D01*
X0440122Y0112766D01*
X0440231Y0112855D01*
X0440343Y0112940D01*
X0440457Y0113023D01*
X0440573Y0113103D01*
X0440692Y0113179D01*
X0440813Y0113251D01*
X0440935Y0113321D01*
X0441060Y0113386D01*
X0441186Y0113449D01*
X0441314Y0113507D01*
X0441444Y0113562D01*
X0441575Y0113614D01*
X0441708Y0113661D01*
X0441842Y0113705D01*
X0441977Y0113746D01*
X0442113Y0113782D01*
X0442250Y0113814D01*
X0442388Y0113843D01*
X0442526Y0113868D01*
X0442666Y0113888D01*
X0442806Y0113905D01*
X0442946Y0113918D01*
X0443087Y0113927D01*
X0443227Y0113932D01*
X0443368Y0113933D01*
X0443509Y0113930D01*
X0443650Y0113923D01*
X0443790Y0113912D01*
X0443930Y0113897D01*
X0444070Y0113878D01*
X0444209Y0113856D01*
X0444347Y0113829D01*
X0444485Y0113799D01*
X0444621Y0113764D01*
X0444757Y0113726D01*
X0444891Y0113684D01*
X0445025Y0113638D01*
X0445157Y0113589D01*
X0445287Y0113535D01*
X0445416Y0113478D01*
X0445543Y0113418D01*
X0445669Y0113354D01*
X0445792Y0113286D01*
X0445914Y0113215D01*
X0446034Y0113141D01*
X0446151Y0113063D01*
X0446266Y0112982D01*
X0446379Y0112898D01*
X0446490Y0112811D01*
X0446598Y0112720D01*
X0446703Y0112627D01*
X0446806Y0112530D01*
X0446906Y0112431D01*
X0447003Y0112329D01*
X0447097Y0112224D01*
X0447188Y0112117D01*
X0447276Y0112007D01*
X0447361Y0111895D01*
X0447443Y0111780D01*
X0447522Y0111663D01*
X0447597Y0111544D01*
X0447669Y0111423D01*
X0447737Y0111300D01*
X0447802Y0111175D01*
X0447864Y0111048D01*
X0447921Y0110919D01*
X0447976Y0110789D01*
X0448026Y0110658D01*
X0448073Y0110525D01*
X0448116Y0110391D01*
X0448155Y0110255D01*
X0448190Y0110119D01*
X0448222Y0109982D01*
X0448249Y0109844D01*
X0448273Y0109705D01*
X0448293Y0109565D01*
X0448309Y0109425D01*
X0448321Y0109285D01*
X0448329Y0109144D01*
X0448333Y0109003D01*
X0448333Y0108863D01*
X0448329Y0108722D01*
X0448321Y0108581D01*
X0448309Y0108441D01*
X0448293Y0108301D01*
X0448273Y0108161D01*
X0448249Y0108022D01*
X0448222Y0107884D01*
X0448190Y0107747D01*
X0448155Y0107611D01*
X0448116Y0107475D01*
X0448073Y0107341D01*
X0448026Y0107208D01*
X0447976Y0107077D01*
X0447921Y0106947D01*
X0447864Y0106818D01*
X0447802Y0106691D01*
X0447737Y0106566D01*
X0447669Y0106443D01*
X0447597Y0106322D01*
X0447522Y0106203D01*
X0447443Y0106086D01*
X0447361Y0105971D01*
X0447276Y0105859D01*
X0447188Y0105749D01*
X0447097Y0105642D01*
X0447003Y0105537D01*
X0446906Y0105435D01*
X0446806Y0105336D01*
X0446703Y0105239D01*
X0446598Y0105146D01*
X0446490Y0105055D01*
X0446379Y0104968D01*
X0446266Y0104884D01*
X0446151Y0104803D01*
X0446034Y0104725D01*
X0445914Y0104651D01*
X0445792Y0104580D01*
X0445669Y0104512D01*
X0445543Y0104448D01*
X0445416Y0104388D01*
X0445287Y0104331D01*
X0445157Y0104277D01*
X0445025Y0104228D01*
X0444891Y0104182D01*
X0444757Y0104140D01*
X0444621Y0104102D01*
X0444485Y0104067D01*
X0444347Y0104037D01*
X0444209Y0104010D01*
X0444070Y0103988D01*
X0443930Y0103969D01*
X0443790Y0103954D01*
X0443650Y0103943D01*
X0443509Y0103936D01*
X0443368Y0103933D01*
X0443227Y0103934D01*
X0443087Y0103939D01*
X0442946Y0103948D01*
X0442806Y0103961D01*
X0442666Y0103978D01*
X0442526Y0103998D01*
X0442388Y0104023D01*
X0442250Y0104052D01*
X0442113Y0104084D01*
X0441977Y0104120D01*
X0441842Y0104161D01*
X0441708Y0104205D01*
X0441575Y0104252D01*
X0441444Y0104304D01*
X0441314Y0104359D01*
X0441186Y0104417D01*
X0441060Y0104480D01*
X0440935Y0104545D01*
X0440813Y0104615D01*
X0440692Y0104687D01*
X0440573Y0104763D01*
X0440457Y0104843D01*
X0440343Y0104926D01*
X0440231Y0105011D01*
X0440122Y0105100D01*
X0440015Y0105192D01*
X0439911Y0105287D01*
X0439810Y0105385D01*
X0439711Y0105486D01*
X0439616Y0105589D01*
X0439523Y0105695D01*
X0439433Y0105804D01*
X0439347Y0105915D01*
X0439263Y0106028D01*
X0439183Y0106144D01*
X0439106Y0106262D01*
X0439033Y0106382D01*
X0438962Y0106505D01*
X0438896Y0106629D01*
X0438833Y0106755D01*
X0438773Y0106882D01*
X0438717Y0107011D01*
X0438665Y0107142D01*
X0438616Y0107274D01*
X0438571Y0107408D01*
X0438530Y0107543D01*
X0438493Y0107679D01*
X0438459Y0107815D01*
X0438430Y0107953D01*
X0438404Y0108092D01*
X0438383Y0108231D01*
X0438365Y0108371D01*
X0438351Y0108511D01*
X0438341Y0108651D01*
X0438335Y0108792D01*
X0438333Y0108933D01*
D11*
X0433333Y0113933D02*
X0433333Y0033933D01*
X0433336Y0033691D01*
X0433345Y0033450D01*
X0433359Y0033209D01*
X0433380Y0032968D01*
X0433406Y0032728D01*
X0433438Y0032488D01*
X0433476Y0032249D01*
X0433519Y0032012D01*
X0433569Y0031775D01*
X0433624Y0031540D01*
X0433684Y0031306D01*
X0433751Y0031074D01*
X0433822Y0030843D01*
X0433900Y0030614D01*
X0433983Y0030387D01*
X0434071Y0030162D01*
X0434165Y0029939D01*
X0434264Y0029719D01*
X0434369Y0029501D01*
X0434478Y0029286D01*
X0434593Y0029073D01*
X0434713Y0028863D01*
X0434838Y0028657D01*
X0434968Y0028453D01*
X0435103Y0028252D01*
X0435243Y0028055D01*
X0435387Y0027861D01*
X0435536Y0027671D01*
X0435690Y0027485D01*
X0435848Y0027302D01*
X0436010Y0027123D01*
X0436177Y0026948D01*
X0436348Y0026777D01*
X0436523Y0026610D01*
X0436702Y0026448D01*
X0436885Y0026290D01*
X0437071Y0026136D01*
X0437261Y0025987D01*
X0437455Y0025843D01*
X0437652Y0025703D01*
X0437853Y0025568D01*
X0438057Y0025438D01*
X0438263Y0025313D01*
X0438473Y0025193D01*
X0438686Y0025078D01*
X0438901Y0024969D01*
X0439119Y0024864D01*
X0439339Y0024765D01*
X0439562Y0024671D01*
X0439787Y0024583D01*
X0440014Y0024500D01*
X0440243Y0024422D01*
X0440474Y0024351D01*
X0440706Y0024284D01*
X0440940Y0024224D01*
X0441175Y0024169D01*
X0441412Y0024119D01*
X0441649Y0024076D01*
X0441888Y0024038D01*
X0442128Y0024006D01*
X0442368Y0023980D01*
X0442609Y0023959D01*
X0442850Y0023945D01*
X0443091Y0023936D01*
X0443333Y0023933D01*
X0668333Y0023933D01*
X0668695Y0023937D01*
X0669058Y0023951D01*
X0669420Y0023972D01*
X0669781Y0024003D01*
X0670141Y0024042D01*
X0670500Y0024090D01*
X0670858Y0024147D01*
X0671215Y0024212D01*
X0671570Y0024286D01*
X0671923Y0024369D01*
X0672274Y0024460D01*
X0672622Y0024559D01*
X0672968Y0024667D01*
X0673312Y0024783D01*
X0673652Y0024908D01*
X0673989Y0025040D01*
X0674323Y0025181D01*
X0674654Y0025330D01*
X0674981Y0025487D01*
X0675304Y0025651D01*
X0675623Y0025823D01*
X0675937Y0026003D01*
X0676248Y0026191D01*
X0676553Y0026386D01*
X0676854Y0026588D01*
X0677150Y0026798D01*
X0677440Y0027014D01*
X0677726Y0027238D01*
X0678006Y0027468D01*
X0678280Y0027705D01*
X0678548Y0027949D01*
X0678811Y0028199D01*
X0679067Y0028455D01*
X0679317Y0028718D01*
X0679561Y0028986D01*
X0679798Y0029260D01*
X0680028Y0029540D01*
X0680252Y0029826D01*
X0680468Y0030116D01*
X0680678Y0030412D01*
X0680880Y0030713D01*
X0681075Y0031018D01*
X0681263Y0031329D01*
X0681443Y0031643D01*
X0681615Y0031962D01*
X0681779Y0032285D01*
X0681936Y0032612D01*
X0682085Y0032943D01*
X0682226Y0033277D01*
X0682358Y0033614D01*
X0682483Y0033954D01*
X0682599Y0034298D01*
X0682707Y0034644D01*
X0682806Y0034992D01*
X0682897Y0035343D01*
X0682980Y0035696D01*
X0683054Y0036051D01*
X0683119Y0036408D01*
X0683176Y0036766D01*
X0683224Y0037125D01*
X0683263Y0037485D01*
X0683294Y0037846D01*
X0683315Y0038208D01*
X0683329Y0038571D01*
X0683333Y0038933D01*
X0683333Y0108933D01*
X0683329Y0109295D01*
X0683315Y0109658D01*
X0683294Y0110020D01*
X0683263Y0110381D01*
X0683224Y0110741D01*
X0683176Y0111100D01*
X0683119Y0111458D01*
X0683054Y0111815D01*
X0682980Y0112170D01*
X0682897Y0112523D01*
X0682806Y0112874D01*
X0682707Y0113222D01*
X0682599Y0113568D01*
X0682483Y0113912D01*
X0682358Y0114252D01*
X0682226Y0114589D01*
X0682085Y0114923D01*
X0681936Y0115254D01*
X0681779Y0115581D01*
X0681615Y0115904D01*
X0681443Y0116223D01*
X0681263Y0116537D01*
X0681075Y0116848D01*
X0680880Y0117153D01*
X0680678Y0117454D01*
X0680468Y0117750D01*
X0680252Y0118040D01*
X0680028Y0118326D01*
X0679798Y0118606D01*
X0679561Y0118880D01*
X0679317Y0119148D01*
X0679067Y0119411D01*
X0678811Y0119667D01*
X0678548Y0119917D01*
X0678280Y0120161D01*
X0678006Y0120398D01*
X0677726Y0120628D01*
X0677440Y0120852D01*
X0677150Y0121068D01*
X0676854Y0121278D01*
X0676553Y0121480D01*
X0676248Y0121675D01*
X0675937Y0121863D01*
X0675623Y0122043D01*
X0675304Y0122215D01*
X0674981Y0122379D01*
X0674654Y0122536D01*
X0674323Y0122685D01*
X0673989Y0122826D01*
X0673652Y0122958D01*
X0673312Y0123083D01*
X0672968Y0123199D01*
X0672622Y0123307D01*
X0672274Y0123406D01*
X0671923Y0123497D01*
X0671570Y0123580D01*
X0671215Y0123654D01*
X0670858Y0123719D01*
X0670500Y0123776D01*
X0670141Y0123824D01*
X0669781Y0123863D01*
X0669420Y0123894D01*
X0669058Y0123915D01*
X0668695Y0123929D01*
X0668333Y0123933D01*
X0443333Y0123933D01*
X0443091Y0123930D01*
X0442850Y0123921D01*
X0442609Y0123907D01*
X0442368Y0123886D01*
X0442128Y0123860D01*
X0441888Y0123828D01*
X0441649Y0123790D01*
X0441412Y0123747D01*
X0441175Y0123697D01*
X0440940Y0123642D01*
X0440706Y0123582D01*
X0440474Y0123515D01*
X0440243Y0123444D01*
X0440014Y0123366D01*
X0439787Y0123283D01*
X0439562Y0123195D01*
X0439339Y0123101D01*
X0439119Y0123002D01*
X0438901Y0122897D01*
X0438686Y0122788D01*
X0438473Y0122673D01*
X0438263Y0122553D01*
X0438057Y0122428D01*
X0437853Y0122298D01*
X0437652Y0122163D01*
X0437455Y0122023D01*
X0437261Y0121879D01*
X0437071Y0121730D01*
X0436885Y0121576D01*
X0436702Y0121418D01*
X0436523Y0121256D01*
X0436348Y0121089D01*
X0436177Y0120918D01*
X0436010Y0120743D01*
X0435848Y0120564D01*
X0435690Y0120381D01*
X0435536Y0120195D01*
X0435387Y0120005D01*
X0435243Y0119811D01*
X0435103Y0119614D01*
X0434968Y0119413D01*
X0434838Y0119209D01*
X0434713Y0119003D01*
X0434593Y0118793D01*
X0434478Y0118580D01*
X0434369Y0118365D01*
X0434264Y0118147D01*
X0434165Y0117927D01*
X0434071Y0117704D01*
X0433983Y0117479D01*
X0433900Y0117252D01*
X0433822Y0117023D01*
X0433751Y0116792D01*
X0433684Y0116560D01*
X0433624Y0116326D01*
X0433569Y0116091D01*
X0433519Y0115854D01*
X0433476Y0115617D01*
X0433438Y0115378D01*
X0433406Y0115138D01*
X0433380Y0114898D01*
X0433359Y0114657D01*
X0433345Y0114416D01*
X0433336Y0114175D01*
X0433333Y0113933D01*
D12*
X0495687Y0119833D02*
X0495687Y0122033D01*
X0496298Y0122033D01*
X0496341Y0122031D01*
X0496383Y0122026D01*
X0496425Y0122016D01*
X0496465Y0122004D01*
X0496505Y0121987D01*
X0496543Y0121967D01*
X0496578Y0121945D01*
X0496612Y0121919D01*
X0496644Y0121890D01*
X0496673Y0121858D01*
X0496699Y0121824D01*
X0496721Y0121789D01*
X0496741Y0121751D01*
X0496758Y0121711D01*
X0496770Y0121671D01*
X0496780Y0121629D01*
X0496785Y0121587D01*
X0496787Y0121544D01*
X0496785Y0121501D01*
X0496780Y0121459D01*
X0496770Y0121417D01*
X0496758Y0121377D01*
X0496741Y0121337D01*
X0496721Y0121300D01*
X0496699Y0121264D01*
X0496673Y0121230D01*
X0496644Y0121198D01*
X0496612Y0121169D01*
X0496578Y0121143D01*
X0496543Y0121121D01*
X0496505Y0121101D01*
X0496465Y0121084D01*
X0496425Y0121072D01*
X0496383Y0121062D01*
X0496341Y0121057D01*
X0496298Y0121055D01*
X0495687Y0121055D01*
X0496298Y0121055D02*
X0496346Y0121053D01*
X0496394Y0121047D01*
X0496441Y0121038D01*
X0496487Y0121025D01*
X0496532Y0121008D01*
X0496575Y0120988D01*
X0496617Y0120965D01*
X0496657Y0120938D01*
X0496695Y0120909D01*
X0496730Y0120876D01*
X0496763Y0120841D01*
X0496792Y0120803D01*
X0496819Y0120763D01*
X0496842Y0120721D01*
X0496862Y0120678D01*
X0496879Y0120633D01*
X0496892Y0120587D01*
X0496901Y0120540D01*
X0496907Y0120492D01*
X0496909Y0120444D01*
X0496907Y0120396D01*
X0496901Y0120348D01*
X0496892Y0120301D01*
X0496879Y0120255D01*
X0496862Y0120210D01*
X0496842Y0120167D01*
X0496819Y0120125D01*
X0496792Y0120085D01*
X0496763Y0120047D01*
X0496730Y0120012D01*
X0496695Y0119979D01*
X0496657Y0119950D01*
X0496617Y0119923D01*
X0496575Y0119900D01*
X0496532Y0119880D01*
X0496487Y0119863D01*
X0496441Y0119850D01*
X0496394Y0119841D01*
X0496346Y0119835D01*
X0496298Y0119833D01*
X0495687Y0119833D01*
X0497620Y0119833D02*
X0498353Y0122033D01*
X0499086Y0119833D01*
X0498903Y0120383D02*
X0497803Y0120383D01*
X0500369Y0119833D02*
X0500369Y0122033D01*
X0499758Y0122033D02*
X0500980Y0122033D01*
X0506788Y0122033D02*
X0507766Y0122033D01*
X0508656Y0122033D02*
X0509878Y0119833D01*
X0509878Y0122033D01*
X0508656Y0122033D02*
X0508656Y0119833D01*
X0507766Y0119833D02*
X0506788Y0119833D01*
X0506788Y0122033D01*
X0506788Y0121055D02*
X0507522Y0121055D01*
X0515546Y0120444D02*
X0515546Y0122033D01*
X0516768Y0122033D02*
X0516768Y0120444D01*
X0516766Y0120396D01*
X0516760Y0120348D01*
X0516751Y0120301D01*
X0516738Y0120255D01*
X0516721Y0120210D01*
X0516701Y0120167D01*
X0516678Y0120125D01*
X0516651Y0120085D01*
X0516622Y0120047D01*
X0516589Y0120012D01*
X0516554Y0119979D01*
X0516516Y0119950D01*
X0516476Y0119923D01*
X0516434Y0119900D01*
X0516391Y0119880D01*
X0516346Y0119863D01*
X0516300Y0119850D01*
X0516253Y0119841D01*
X0516205Y0119835D01*
X0516157Y0119833D01*
X0516109Y0119835D01*
X0516061Y0119841D01*
X0516014Y0119850D01*
X0515968Y0119863D01*
X0515923Y0119880D01*
X0515880Y0119900D01*
X0515838Y0119923D01*
X0515798Y0119950D01*
X0515760Y0119979D01*
X0515725Y0120012D01*
X0515692Y0120047D01*
X0515663Y0120085D01*
X0515636Y0120125D01*
X0515613Y0120167D01*
X0515593Y0120210D01*
X0515576Y0120255D01*
X0515563Y0120301D01*
X0515554Y0120348D01*
X0515548Y0120396D01*
X0515546Y0120444D01*
X0518011Y0121116D02*
X0518684Y0120750D01*
X0518439Y0119833D02*
X0518376Y0119835D01*
X0518314Y0119841D01*
X0518252Y0119850D01*
X0518191Y0119863D01*
X0518130Y0119880D01*
X0518071Y0119901D01*
X0518013Y0119925D01*
X0517957Y0119953D01*
X0517902Y0119984D01*
X0517849Y0120018D01*
X0517799Y0120055D01*
X0517751Y0120095D01*
X0517706Y0120139D01*
X0518684Y0120750D02*
X0518720Y0120727D01*
X0518754Y0120700D01*
X0518786Y0120671D01*
X0518815Y0120639D01*
X0518841Y0120605D01*
X0518864Y0120569D01*
X0518883Y0120530D01*
X0518900Y0120491D01*
X0518912Y0120450D01*
X0518922Y0120408D01*
X0518927Y0120365D01*
X0518929Y0120322D01*
X0518928Y0120322D02*
X0518926Y0120279D01*
X0518921Y0120237D01*
X0518911Y0120195D01*
X0518899Y0120155D01*
X0518882Y0120115D01*
X0518862Y0120078D01*
X0518840Y0120042D01*
X0518814Y0120008D01*
X0518785Y0119976D01*
X0518753Y0119947D01*
X0518719Y0119921D01*
X0518684Y0119899D01*
X0518646Y0119879D01*
X0518606Y0119862D01*
X0518566Y0119850D01*
X0518524Y0119840D01*
X0518482Y0119835D01*
X0518439Y0119833D01*
X0518806Y0121850D02*
X0518758Y0121883D01*
X0518707Y0121914D01*
X0518655Y0121942D01*
X0518601Y0121965D01*
X0518546Y0121986D01*
X0518489Y0122003D01*
X0518432Y0122016D01*
X0518374Y0122025D01*
X0518315Y0122031D01*
X0518256Y0122033D01*
X0518213Y0122031D01*
X0518171Y0122026D01*
X0518129Y0122016D01*
X0518089Y0122004D01*
X0518049Y0121987D01*
X0518012Y0121967D01*
X0517976Y0121945D01*
X0517942Y0121919D01*
X0517910Y0121890D01*
X0517881Y0121858D01*
X0517855Y0121824D01*
X0517833Y0121789D01*
X0517813Y0121751D01*
X0517796Y0121711D01*
X0517784Y0121671D01*
X0517774Y0121629D01*
X0517769Y0121587D01*
X0517767Y0121544D01*
X0517769Y0121501D01*
X0517774Y0121458D01*
X0517784Y0121416D01*
X0517796Y0121375D01*
X0517813Y0121336D01*
X0517832Y0121297D01*
X0517855Y0121261D01*
X0517881Y0121227D01*
X0517910Y0121195D01*
X0517942Y0121166D01*
X0517976Y0121139D01*
X0518012Y0121116D01*
X0519899Y0121055D02*
X0520510Y0121055D01*
X0520553Y0121057D01*
X0520595Y0121062D01*
X0520637Y0121072D01*
X0520677Y0121084D01*
X0520717Y0121101D01*
X0520755Y0121121D01*
X0520790Y0121143D01*
X0520824Y0121169D01*
X0520856Y0121198D01*
X0520885Y0121230D01*
X0520911Y0121264D01*
X0520933Y0121300D01*
X0520953Y0121337D01*
X0520970Y0121377D01*
X0520982Y0121417D01*
X0520992Y0121459D01*
X0520997Y0121501D01*
X0520999Y0121544D01*
X0520997Y0121587D01*
X0520992Y0121629D01*
X0520982Y0121671D01*
X0520970Y0121711D01*
X0520953Y0121751D01*
X0520933Y0121789D01*
X0520911Y0121824D01*
X0520885Y0121858D01*
X0520856Y0121890D01*
X0520824Y0121919D01*
X0520790Y0121945D01*
X0520755Y0121967D01*
X0520717Y0121987D01*
X0520677Y0122004D01*
X0520637Y0122016D01*
X0520595Y0122026D01*
X0520553Y0122031D01*
X0520510Y0122033D01*
X0519899Y0122033D01*
X0519899Y0119833D01*
X0520510Y0119833D01*
X0520558Y0119835D01*
X0520606Y0119841D01*
X0520653Y0119850D01*
X0520699Y0119863D01*
X0520744Y0119880D01*
X0520787Y0119900D01*
X0520829Y0119923D01*
X0520869Y0119950D01*
X0520907Y0119979D01*
X0520942Y0120012D01*
X0520975Y0120047D01*
X0521004Y0120085D01*
X0521031Y0120125D01*
X0521054Y0120167D01*
X0521074Y0120210D01*
X0521091Y0120255D01*
X0521104Y0120301D01*
X0521113Y0120348D01*
X0521119Y0120396D01*
X0521121Y0120444D01*
X0521119Y0120492D01*
X0521113Y0120540D01*
X0521104Y0120587D01*
X0521091Y0120633D01*
X0521074Y0120678D01*
X0521054Y0120721D01*
X0521031Y0120763D01*
X0521004Y0120803D01*
X0520975Y0120841D01*
X0520942Y0120876D01*
X0520907Y0120909D01*
X0520869Y0120938D01*
X0520829Y0120965D01*
X0520787Y0120988D01*
X0520744Y0121008D01*
X0520699Y0121025D01*
X0520653Y0121038D01*
X0520606Y0121047D01*
X0520558Y0121053D01*
X0520510Y0121055D01*
X0525526Y0122033D02*
X0525526Y0119833D01*
X0526137Y0119833D01*
X0526185Y0119835D01*
X0526233Y0119841D01*
X0526280Y0119850D01*
X0526326Y0119863D01*
X0526371Y0119880D01*
X0526414Y0119900D01*
X0526456Y0119923D01*
X0526496Y0119950D01*
X0526534Y0119979D01*
X0526569Y0120012D01*
X0526602Y0120047D01*
X0526631Y0120085D01*
X0526658Y0120125D01*
X0526681Y0120167D01*
X0526701Y0120210D01*
X0526718Y0120255D01*
X0526731Y0120301D01*
X0526740Y0120348D01*
X0526746Y0120396D01*
X0526748Y0120444D01*
X0526748Y0121422D01*
X0526746Y0121470D01*
X0526740Y0121518D01*
X0526731Y0121565D01*
X0526718Y0121611D01*
X0526701Y0121656D01*
X0526681Y0121699D01*
X0526658Y0121741D01*
X0526631Y0121781D01*
X0526602Y0121819D01*
X0526569Y0121854D01*
X0526534Y0121887D01*
X0526496Y0121916D01*
X0526456Y0121943D01*
X0526414Y0121966D01*
X0526371Y0121986D01*
X0526326Y0122003D01*
X0526280Y0122016D01*
X0526233Y0122025D01*
X0526185Y0122031D01*
X0526137Y0122033D01*
X0525526Y0122033D01*
X0527758Y0121544D02*
X0528369Y0122033D01*
X0528369Y0119833D01*
X0527758Y0119833D02*
X0528980Y0119833D01*
X0529918Y0119833D02*
X0530529Y0119833D01*
X0530577Y0119835D01*
X0530625Y0119841D01*
X0530672Y0119850D01*
X0530718Y0119863D01*
X0530763Y0119880D01*
X0530806Y0119900D01*
X0530848Y0119923D01*
X0530888Y0119950D01*
X0530926Y0119979D01*
X0530961Y0120012D01*
X0530994Y0120047D01*
X0531023Y0120085D01*
X0531050Y0120125D01*
X0531073Y0120167D01*
X0531093Y0120210D01*
X0531110Y0120255D01*
X0531123Y0120301D01*
X0531132Y0120348D01*
X0531138Y0120396D01*
X0531140Y0120444D01*
X0531138Y0120492D01*
X0531132Y0120540D01*
X0531123Y0120587D01*
X0531110Y0120633D01*
X0531093Y0120678D01*
X0531073Y0120721D01*
X0531050Y0120763D01*
X0531023Y0120803D01*
X0530994Y0120841D01*
X0530961Y0120876D01*
X0530926Y0120909D01*
X0530888Y0120938D01*
X0530848Y0120965D01*
X0530806Y0120988D01*
X0530763Y0121008D01*
X0530718Y0121025D01*
X0530672Y0121038D01*
X0530625Y0121047D01*
X0530577Y0121053D01*
X0530529Y0121055D01*
X0530652Y0121055D02*
X0530163Y0121055D01*
X0530652Y0121055D02*
X0530695Y0121057D01*
X0530737Y0121062D01*
X0530779Y0121072D01*
X0530819Y0121084D01*
X0530859Y0121101D01*
X0530897Y0121121D01*
X0530932Y0121143D01*
X0530966Y0121169D01*
X0530998Y0121198D01*
X0531027Y0121230D01*
X0531053Y0121264D01*
X0531075Y0121300D01*
X0531095Y0121337D01*
X0531112Y0121377D01*
X0531124Y0121417D01*
X0531134Y0121459D01*
X0531139Y0121501D01*
X0531141Y0121544D01*
X0531139Y0121587D01*
X0531134Y0121629D01*
X0531124Y0121671D01*
X0531112Y0121711D01*
X0531095Y0121751D01*
X0531075Y0121789D01*
X0531053Y0121824D01*
X0531027Y0121858D01*
X0530998Y0121890D01*
X0530966Y0121919D01*
X0530932Y0121945D01*
X0530897Y0121967D01*
X0530859Y0121987D01*
X0530819Y0122004D01*
X0530779Y0122016D01*
X0530737Y0122026D01*
X0530695Y0122031D01*
X0530652Y0122033D01*
X0529918Y0122033D01*
X0535026Y0122033D02*
X0535637Y0122033D01*
X0535026Y0122033D02*
X0535026Y0119833D01*
X0535637Y0119833D01*
X0535685Y0119835D01*
X0535733Y0119841D01*
X0535780Y0119850D01*
X0535826Y0119863D01*
X0535871Y0119880D01*
X0535914Y0119900D01*
X0535956Y0119923D01*
X0535996Y0119950D01*
X0536034Y0119979D01*
X0536069Y0120012D01*
X0536102Y0120047D01*
X0536131Y0120085D01*
X0536158Y0120125D01*
X0536181Y0120167D01*
X0536201Y0120210D01*
X0536218Y0120255D01*
X0536231Y0120301D01*
X0536240Y0120348D01*
X0536246Y0120396D01*
X0536248Y0120444D01*
X0536248Y0121422D01*
X0536246Y0121470D01*
X0536240Y0121518D01*
X0536231Y0121565D01*
X0536218Y0121611D01*
X0536201Y0121656D01*
X0536181Y0121699D01*
X0536158Y0121741D01*
X0536131Y0121781D01*
X0536102Y0121819D01*
X0536069Y0121854D01*
X0536034Y0121887D01*
X0535996Y0121916D01*
X0535956Y0121943D01*
X0535914Y0121966D01*
X0535871Y0121986D01*
X0535826Y0122003D01*
X0535780Y0122016D01*
X0535733Y0122025D01*
X0535685Y0122031D01*
X0535637Y0122033D01*
X0537258Y0121544D02*
X0537869Y0122033D01*
X0537869Y0119833D01*
X0537258Y0119833D02*
X0538480Y0119833D01*
X0539418Y0119833D02*
X0540640Y0119833D01*
X0539418Y0119833D02*
X0540457Y0121055D01*
X0540090Y0122033D02*
X0540038Y0122031D01*
X0539986Y0122025D01*
X0539934Y0122016D01*
X0539884Y0122002D01*
X0539834Y0121985D01*
X0539786Y0121964D01*
X0539740Y0121940D01*
X0539696Y0121913D01*
X0539653Y0121882D01*
X0539613Y0121848D01*
X0539576Y0121812D01*
X0539542Y0121772D01*
X0539510Y0121730D01*
X0539482Y0121687D01*
X0539457Y0121641D01*
X0539435Y0121593D01*
X0539417Y0121544D01*
X0540458Y0121055D02*
X0540491Y0121089D01*
X0540521Y0121126D01*
X0540549Y0121166D01*
X0540573Y0121207D01*
X0540593Y0121250D01*
X0540610Y0121295D01*
X0540624Y0121341D01*
X0540633Y0121388D01*
X0540639Y0121435D01*
X0540641Y0121483D01*
X0540640Y0121483D02*
X0540638Y0121528D01*
X0540632Y0121574D01*
X0540623Y0121618D01*
X0540610Y0121662D01*
X0540594Y0121704D01*
X0540574Y0121745D01*
X0540550Y0121784D01*
X0540524Y0121821D01*
X0540495Y0121856D01*
X0540463Y0121888D01*
X0540428Y0121917D01*
X0540391Y0121943D01*
X0540352Y0121967D01*
X0540311Y0121987D01*
X0540269Y0122003D01*
X0540225Y0122016D01*
X0540181Y0122025D01*
X0540135Y0122031D01*
X0540090Y0122033D01*
X0545026Y0122033D02*
X0545637Y0122033D01*
X0545026Y0122033D02*
X0545026Y0119833D01*
X0545637Y0119833D01*
X0545685Y0119835D01*
X0545733Y0119841D01*
X0545780Y0119850D01*
X0545826Y0119863D01*
X0545871Y0119880D01*
X0545914Y0119900D01*
X0545956Y0119923D01*
X0545996Y0119950D01*
X0546034Y0119979D01*
X0546069Y0120012D01*
X0546102Y0120047D01*
X0546131Y0120085D01*
X0546158Y0120125D01*
X0546181Y0120167D01*
X0546201Y0120210D01*
X0546218Y0120255D01*
X0546231Y0120301D01*
X0546240Y0120348D01*
X0546246Y0120396D01*
X0546248Y0120444D01*
X0546248Y0121422D01*
X0546246Y0121470D01*
X0546240Y0121518D01*
X0546231Y0121565D01*
X0546218Y0121611D01*
X0546201Y0121656D01*
X0546181Y0121699D01*
X0546158Y0121741D01*
X0546131Y0121781D01*
X0546102Y0121819D01*
X0546069Y0121854D01*
X0546034Y0121887D01*
X0545996Y0121916D01*
X0545956Y0121943D01*
X0545914Y0121966D01*
X0545871Y0121986D01*
X0545826Y0122003D01*
X0545780Y0122016D01*
X0545733Y0122025D01*
X0545685Y0122031D01*
X0545637Y0122033D01*
X0547258Y0121544D02*
X0547869Y0122033D01*
X0547869Y0119833D01*
X0547258Y0119833D02*
X0548480Y0119833D01*
X0549418Y0119833D02*
X0550640Y0119833D01*
X0550029Y0119833D02*
X0550029Y0122033D01*
X0549418Y0121544D01*
X0555026Y0122033D02*
X0555026Y0119833D01*
X0555637Y0119833D01*
X0555685Y0119835D01*
X0555733Y0119841D01*
X0555780Y0119850D01*
X0555826Y0119863D01*
X0555871Y0119880D01*
X0555914Y0119900D01*
X0555956Y0119923D01*
X0555996Y0119950D01*
X0556034Y0119979D01*
X0556069Y0120012D01*
X0556102Y0120047D01*
X0556131Y0120085D01*
X0556158Y0120125D01*
X0556181Y0120167D01*
X0556201Y0120210D01*
X0556218Y0120255D01*
X0556231Y0120301D01*
X0556240Y0120348D01*
X0556246Y0120396D01*
X0556248Y0120444D01*
X0556248Y0121422D01*
X0556246Y0121470D01*
X0556240Y0121518D01*
X0556231Y0121565D01*
X0556218Y0121611D01*
X0556201Y0121656D01*
X0556181Y0121699D01*
X0556158Y0121741D01*
X0556131Y0121781D01*
X0556102Y0121819D01*
X0556069Y0121854D01*
X0556034Y0121887D01*
X0555996Y0121916D01*
X0555956Y0121943D01*
X0555914Y0121966D01*
X0555871Y0121986D01*
X0555826Y0122003D01*
X0555780Y0122016D01*
X0555733Y0122025D01*
X0555685Y0122031D01*
X0555637Y0122033D01*
X0555026Y0122033D01*
X0557258Y0121544D02*
X0557869Y0122033D01*
X0557869Y0119833D01*
X0557258Y0119833D02*
X0558480Y0119833D01*
X0560457Y0120139D02*
X0560491Y0120213D01*
X0560522Y0120289D01*
X0560549Y0120367D01*
X0560573Y0120446D01*
X0560594Y0120525D01*
X0560610Y0120606D01*
X0560623Y0120687D01*
X0560633Y0120769D01*
X0560638Y0120851D01*
X0560640Y0120933D01*
X0559418Y0120933D02*
X0559420Y0121015D01*
X0559425Y0121097D01*
X0559435Y0121179D01*
X0559448Y0121260D01*
X0559464Y0121341D01*
X0559485Y0121420D01*
X0559509Y0121499D01*
X0559536Y0121577D01*
X0559567Y0121653D01*
X0559601Y0121727D01*
X0560029Y0122033D02*
X0560069Y0122031D01*
X0560109Y0122026D01*
X0560148Y0122017D01*
X0560186Y0122005D01*
X0560223Y0121989D01*
X0560258Y0121971D01*
X0560292Y0121949D01*
X0560323Y0121924D01*
X0560352Y0121897D01*
X0560379Y0121867D01*
X0560403Y0121835D01*
X0560424Y0121801D01*
X0560442Y0121765D01*
X0560457Y0121728D01*
X0560518Y0121544D02*
X0559540Y0120322D01*
X0560029Y0119833D02*
X0560069Y0119835D01*
X0560109Y0119840D01*
X0560148Y0119849D01*
X0560186Y0119861D01*
X0560223Y0119877D01*
X0560258Y0119895D01*
X0560292Y0119917D01*
X0560323Y0119942D01*
X0560352Y0119969D01*
X0560379Y0119999D01*
X0560403Y0120031D01*
X0560424Y0120065D01*
X0560442Y0120101D01*
X0560457Y0120138D01*
X0560029Y0119833D02*
X0559989Y0119835D01*
X0559949Y0119840D01*
X0559910Y0119849D01*
X0559872Y0119861D01*
X0559835Y0119877D01*
X0559800Y0119895D01*
X0559766Y0119917D01*
X0559735Y0119942D01*
X0559706Y0119969D01*
X0559679Y0119999D01*
X0559655Y0120031D01*
X0559634Y0120065D01*
X0559616Y0120101D01*
X0559601Y0120138D01*
X0560641Y0120933D02*
X0560639Y0121015D01*
X0560634Y0121097D01*
X0560624Y0121179D01*
X0560611Y0121260D01*
X0560595Y0121341D01*
X0560574Y0121420D01*
X0560550Y0121499D01*
X0560523Y0121577D01*
X0560492Y0121653D01*
X0560458Y0121727D01*
X0560029Y0122033D02*
X0559989Y0122031D01*
X0559949Y0122026D01*
X0559910Y0122017D01*
X0559872Y0122005D01*
X0559835Y0121989D01*
X0559800Y0121971D01*
X0559766Y0121949D01*
X0559735Y0121924D01*
X0559706Y0121897D01*
X0559679Y0121867D01*
X0559655Y0121835D01*
X0559634Y0121801D01*
X0559616Y0121765D01*
X0559601Y0121728D01*
X0559418Y0120933D02*
X0559420Y0120851D01*
X0559425Y0120769D01*
X0559435Y0120687D01*
X0559448Y0120606D01*
X0559464Y0120525D01*
X0559485Y0120446D01*
X0559509Y0120367D01*
X0559536Y0120289D01*
X0559567Y0120213D01*
X0559601Y0120139D01*
X0566106Y0119833D02*
X0566717Y0119833D01*
X0566106Y0119833D02*
X0566106Y0122033D01*
X0566717Y0122033D01*
X0566765Y0122031D01*
X0566813Y0122025D01*
X0566860Y0122016D01*
X0566906Y0122003D01*
X0566951Y0121986D01*
X0566994Y0121966D01*
X0567036Y0121943D01*
X0567076Y0121916D01*
X0567114Y0121887D01*
X0567149Y0121854D01*
X0567182Y0121819D01*
X0567211Y0121781D01*
X0567238Y0121741D01*
X0567261Y0121699D01*
X0567281Y0121656D01*
X0567298Y0121611D01*
X0567311Y0121565D01*
X0567320Y0121518D01*
X0567326Y0121470D01*
X0567328Y0121422D01*
X0567328Y0120444D01*
X0567326Y0120396D01*
X0567320Y0120348D01*
X0567311Y0120301D01*
X0567298Y0120255D01*
X0567281Y0120210D01*
X0567261Y0120167D01*
X0567238Y0120125D01*
X0567211Y0120085D01*
X0567182Y0120047D01*
X0567149Y0120012D01*
X0567114Y0119979D01*
X0567076Y0119950D01*
X0567036Y0119923D01*
X0566994Y0119900D01*
X0566951Y0119880D01*
X0566906Y0119863D01*
X0566860Y0119850D01*
X0566813Y0119841D01*
X0566765Y0119835D01*
X0566717Y0119833D01*
X0568583Y0119833D02*
X0568644Y0119835D01*
X0568706Y0119841D01*
X0568766Y0119850D01*
X0568826Y0119864D01*
X0568885Y0119881D01*
X0568943Y0119902D01*
X0568999Y0119926D01*
X0569054Y0119954D01*
X0569107Y0119985D01*
X0569158Y0120020D01*
X0569206Y0120057D01*
X0569252Y0120098D01*
X0569296Y0120142D01*
X0569337Y0120188D01*
X0569374Y0120236D01*
X0569409Y0120287D01*
X0569440Y0120340D01*
X0569468Y0120395D01*
X0569492Y0120451D01*
X0569513Y0120509D01*
X0569530Y0120568D01*
X0569544Y0120628D01*
X0569553Y0120688D01*
X0569559Y0120750D01*
X0569561Y0120811D01*
X0569560Y0120811D02*
X0569560Y0121422D01*
X0569558Y0121470D01*
X0569552Y0121518D01*
X0569543Y0121565D01*
X0569530Y0121611D01*
X0569513Y0121656D01*
X0569493Y0121699D01*
X0569470Y0121741D01*
X0569443Y0121781D01*
X0569414Y0121819D01*
X0569381Y0121854D01*
X0569346Y0121887D01*
X0569308Y0121916D01*
X0569268Y0121943D01*
X0569226Y0121966D01*
X0569183Y0121986D01*
X0569138Y0122003D01*
X0569092Y0122016D01*
X0569045Y0122025D01*
X0568997Y0122031D01*
X0568949Y0122033D01*
X0568901Y0122031D01*
X0568853Y0122025D01*
X0568806Y0122016D01*
X0568760Y0122003D01*
X0568715Y0121986D01*
X0568672Y0121966D01*
X0568630Y0121943D01*
X0568590Y0121916D01*
X0568552Y0121887D01*
X0568517Y0121854D01*
X0568484Y0121819D01*
X0568455Y0121781D01*
X0568428Y0121741D01*
X0568405Y0121699D01*
X0568385Y0121656D01*
X0568368Y0121611D01*
X0568355Y0121565D01*
X0568346Y0121518D01*
X0568340Y0121470D01*
X0568338Y0121422D01*
X0568338Y0121300D01*
X0568340Y0121257D01*
X0568345Y0121215D01*
X0568355Y0121173D01*
X0568367Y0121133D01*
X0568384Y0121093D01*
X0568404Y0121056D01*
X0568426Y0121020D01*
X0568452Y0120986D01*
X0568481Y0120954D01*
X0568513Y0120925D01*
X0568547Y0120899D01*
X0568582Y0120877D01*
X0568620Y0120857D01*
X0568660Y0120840D01*
X0568700Y0120828D01*
X0568742Y0120818D01*
X0568784Y0120813D01*
X0568827Y0120811D01*
X0569560Y0120811D01*
X0576106Y0119833D02*
X0576717Y0119833D01*
X0576106Y0119833D02*
X0576106Y0122033D01*
X0576717Y0122033D01*
X0576765Y0122031D01*
X0576813Y0122025D01*
X0576860Y0122016D01*
X0576906Y0122003D01*
X0576951Y0121986D01*
X0576994Y0121966D01*
X0577036Y0121943D01*
X0577076Y0121916D01*
X0577114Y0121887D01*
X0577149Y0121854D01*
X0577182Y0121819D01*
X0577211Y0121781D01*
X0577238Y0121741D01*
X0577261Y0121699D01*
X0577281Y0121656D01*
X0577298Y0121611D01*
X0577311Y0121565D01*
X0577320Y0121518D01*
X0577326Y0121470D01*
X0577328Y0121422D01*
X0577328Y0120444D01*
X0577326Y0120396D01*
X0577320Y0120348D01*
X0577311Y0120301D01*
X0577298Y0120255D01*
X0577281Y0120210D01*
X0577261Y0120167D01*
X0577238Y0120125D01*
X0577211Y0120085D01*
X0577182Y0120047D01*
X0577149Y0120012D01*
X0577114Y0119979D01*
X0577076Y0119950D01*
X0577036Y0119923D01*
X0576994Y0119900D01*
X0576951Y0119880D01*
X0576906Y0119863D01*
X0576860Y0119850D01*
X0576813Y0119841D01*
X0576765Y0119835D01*
X0576717Y0119833D01*
X0578338Y0120444D02*
X0578338Y0121055D01*
X0579072Y0121055D01*
X0578338Y0121055D02*
X0578340Y0121116D01*
X0578346Y0121178D01*
X0578355Y0121238D01*
X0578369Y0121298D01*
X0578386Y0121357D01*
X0578407Y0121415D01*
X0578431Y0121471D01*
X0578459Y0121526D01*
X0578490Y0121579D01*
X0578525Y0121630D01*
X0578562Y0121678D01*
X0578603Y0121724D01*
X0578647Y0121768D01*
X0578693Y0121809D01*
X0578741Y0121846D01*
X0578792Y0121881D01*
X0578845Y0121912D01*
X0578900Y0121940D01*
X0578956Y0121964D01*
X0579014Y0121985D01*
X0579073Y0122002D01*
X0579133Y0122016D01*
X0579193Y0122025D01*
X0579255Y0122031D01*
X0579316Y0122033D01*
X0579072Y0121055D02*
X0579115Y0121053D01*
X0579157Y0121048D01*
X0579199Y0121038D01*
X0579239Y0121026D01*
X0579279Y0121009D01*
X0579317Y0120989D01*
X0579352Y0120967D01*
X0579386Y0120941D01*
X0579418Y0120912D01*
X0579447Y0120880D01*
X0579473Y0120846D01*
X0579495Y0120811D01*
X0579515Y0120773D01*
X0579532Y0120733D01*
X0579544Y0120693D01*
X0579554Y0120651D01*
X0579559Y0120609D01*
X0579561Y0120566D01*
X0579560Y0120566D02*
X0579560Y0120444D01*
X0579558Y0120396D01*
X0579552Y0120348D01*
X0579543Y0120301D01*
X0579530Y0120255D01*
X0579513Y0120210D01*
X0579493Y0120167D01*
X0579470Y0120125D01*
X0579443Y0120085D01*
X0579414Y0120047D01*
X0579381Y0120012D01*
X0579346Y0119979D01*
X0579308Y0119950D01*
X0579268Y0119923D01*
X0579226Y0119900D01*
X0579183Y0119880D01*
X0579138Y0119863D01*
X0579092Y0119850D01*
X0579045Y0119841D01*
X0578997Y0119835D01*
X0578949Y0119833D01*
X0578901Y0119835D01*
X0578853Y0119841D01*
X0578806Y0119850D01*
X0578760Y0119863D01*
X0578715Y0119880D01*
X0578672Y0119900D01*
X0578630Y0119923D01*
X0578590Y0119950D01*
X0578552Y0119979D01*
X0578517Y0120012D01*
X0578484Y0120047D01*
X0578455Y0120085D01*
X0578428Y0120125D01*
X0578405Y0120167D01*
X0578385Y0120210D01*
X0578368Y0120255D01*
X0578355Y0120301D01*
X0578346Y0120348D01*
X0578340Y0120396D01*
X0578338Y0120444D01*
X0586606Y0119833D02*
X0587217Y0119833D01*
X0586606Y0119833D02*
X0586606Y0122033D01*
X0587217Y0122033D01*
X0587265Y0122031D01*
X0587313Y0122025D01*
X0587360Y0122016D01*
X0587406Y0122003D01*
X0587451Y0121986D01*
X0587494Y0121966D01*
X0587536Y0121943D01*
X0587576Y0121916D01*
X0587614Y0121887D01*
X0587649Y0121854D01*
X0587682Y0121819D01*
X0587711Y0121781D01*
X0587738Y0121741D01*
X0587761Y0121699D01*
X0587781Y0121656D01*
X0587798Y0121611D01*
X0587811Y0121565D01*
X0587820Y0121518D01*
X0587826Y0121470D01*
X0587828Y0121422D01*
X0587828Y0120444D01*
X0587826Y0120396D01*
X0587820Y0120348D01*
X0587811Y0120301D01*
X0587798Y0120255D01*
X0587781Y0120210D01*
X0587761Y0120167D01*
X0587738Y0120125D01*
X0587711Y0120085D01*
X0587682Y0120047D01*
X0587649Y0120012D01*
X0587614Y0119979D01*
X0587576Y0119950D01*
X0587536Y0119923D01*
X0587494Y0119900D01*
X0587451Y0119880D01*
X0587406Y0119863D01*
X0587360Y0119850D01*
X0587313Y0119841D01*
X0587265Y0119835D01*
X0587217Y0119833D01*
X0588838Y0119833D02*
X0589572Y0119833D01*
X0589615Y0119835D01*
X0589657Y0119840D01*
X0589699Y0119850D01*
X0589739Y0119862D01*
X0589779Y0119879D01*
X0589816Y0119899D01*
X0589852Y0119921D01*
X0589886Y0119947D01*
X0589918Y0119976D01*
X0589947Y0120008D01*
X0589973Y0120042D01*
X0589995Y0120077D01*
X0590015Y0120115D01*
X0590032Y0120155D01*
X0590044Y0120195D01*
X0590054Y0120237D01*
X0590059Y0120279D01*
X0590061Y0120322D01*
X0590060Y0120322D02*
X0590060Y0120566D01*
X0590061Y0120566D02*
X0590059Y0120609D01*
X0590054Y0120651D01*
X0590044Y0120693D01*
X0590032Y0120733D01*
X0590015Y0120773D01*
X0589995Y0120811D01*
X0589973Y0120846D01*
X0589947Y0120880D01*
X0589918Y0120912D01*
X0589886Y0120941D01*
X0589852Y0120967D01*
X0589817Y0120989D01*
X0589779Y0121009D01*
X0589739Y0121026D01*
X0589699Y0121038D01*
X0589657Y0121048D01*
X0589615Y0121053D01*
X0589572Y0121055D01*
X0588838Y0121055D01*
X0588838Y0122033D01*
X0590060Y0122033D01*
X0596168Y0121116D02*
X0596840Y0120750D01*
X0596596Y0119833D02*
X0596533Y0119835D01*
X0596471Y0119841D01*
X0596409Y0119850D01*
X0596348Y0119863D01*
X0596287Y0119880D01*
X0596228Y0119901D01*
X0596170Y0119925D01*
X0596114Y0119953D01*
X0596059Y0119984D01*
X0596006Y0120018D01*
X0595956Y0120055D01*
X0595908Y0120095D01*
X0595863Y0120139D01*
X0596840Y0120750D02*
X0596876Y0120727D01*
X0596910Y0120700D01*
X0596942Y0120671D01*
X0596971Y0120639D01*
X0596997Y0120605D01*
X0597020Y0120569D01*
X0597039Y0120530D01*
X0597056Y0120491D01*
X0597068Y0120450D01*
X0597078Y0120408D01*
X0597083Y0120365D01*
X0597085Y0120322D01*
X0597083Y0120279D01*
X0597078Y0120237D01*
X0597068Y0120195D01*
X0597056Y0120155D01*
X0597039Y0120115D01*
X0597019Y0120078D01*
X0596997Y0120042D01*
X0596971Y0120008D01*
X0596942Y0119976D01*
X0596910Y0119947D01*
X0596876Y0119921D01*
X0596841Y0119899D01*
X0596803Y0119879D01*
X0596763Y0119862D01*
X0596723Y0119850D01*
X0596681Y0119840D01*
X0596639Y0119835D01*
X0596596Y0119833D01*
X0596962Y0121850D02*
X0596914Y0121883D01*
X0596863Y0121914D01*
X0596811Y0121942D01*
X0596757Y0121965D01*
X0596702Y0121986D01*
X0596645Y0122003D01*
X0596588Y0122016D01*
X0596530Y0122025D01*
X0596471Y0122031D01*
X0596412Y0122033D01*
X0596369Y0122031D01*
X0596327Y0122026D01*
X0596285Y0122016D01*
X0596245Y0122004D01*
X0596205Y0121987D01*
X0596168Y0121967D01*
X0596132Y0121945D01*
X0596098Y0121919D01*
X0596066Y0121890D01*
X0596037Y0121858D01*
X0596011Y0121824D01*
X0595989Y0121789D01*
X0595969Y0121751D01*
X0595952Y0121711D01*
X0595940Y0121671D01*
X0595930Y0121629D01*
X0595925Y0121587D01*
X0595923Y0121544D01*
X0595925Y0121501D01*
X0595930Y0121458D01*
X0595940Y0121416D01*
X0595952Y0121375D01*
X0595969Y0121336D01*
X0595988Y0121297D01*
X0596011Y0121261D01*
X0596037Y0121227D01*
X0596066Y0121195D01*
X0596098Y0121166D01*
X0596132Y0121139D01*
X0596168Y0121116D01*
X0597944Y0121544D02*
X0597944Y0120322D01*
X0597946Y0120279D01*
X0597951Y0120237D01*
X0597961Y0120195D01*
X0597973Y0120155D01*
X0597990Y0120115D01*
X0598010Y0120078D01*
X0598032Y0120042D01*
X0598058Y0120008D01*
X0598087Y0119976D01*
X0598119Y0119947D01*
X0598153Y0119921D01*
X0598189Y0119899D01*
X0598226Y0119879D01*
X0598266Y0119862D01*
X0598306Y0119850D01*
X0598348Y0119840D01*
X0598390Y0119835D01*
X0598433Y0119833D01*
X0598922Y0119833D01*
X0599827Y0119833D02*
X0600804Y0119833D01*
X0599827Y0119833D02*
X0599827Y0122033D01*
X0598922Y0122033D02*
X0598433Y0122033D01*
X0598390Y0122031D01*
X0598348Y0122026D01*
X0598306Y0122016D01*
X0598266Y0122004D01*
X0598226Y0121987D01*
X0598188Y0121967D01*
X0598153Y0121945D01*
X0598119Y0121919D01*
X0598087Y0121890D01*
X0598058Y0121858D01*
X0598032Y0121824D01*
X0598010Y0121788D01*
X0597990Y0121751D01*
X0597973Y0121711D01*
X0597961Y0121671D01*
X0597951Y0121629D01*
X0597946Y0121587D01*
X0597944Y0121544D01*
X0605771Y0121116D02*
X0606443Y0120750D01*
X0606198Y0119833D02*
X0606135Y0119835D01*
X0606073Y0119841D01*
X0606011Y0119850D01*
X0605950Y0119863D01*
X0605889Y0119880D01*
X0605830Y0119901D01*
X0605772Y0119925D01*
X0605716Y0119953D01*
X0605661Y0119984D01*
X0605608Y0120018D01*
X0605558Y0120055D01*
X0605510Y0120095D01*
X0605465Y0120139D01*
X0606443Y0120750D02*
X0606479Y0120727D01*
X0606513Y0120700D01*
X0606545Y0120671D01*
X0606574Y0120639D01*
X0606600Y0120605D01*
X0606623Y0120569D01*
X0606642Y0120530D01*
X0606659Y0120491D01*
X0606671Y0120450D01*
X0606681Y0120408D01*
X0606686Y0120365D01*
X0606688Y0120322D01*
X0606687Y0120322D02*
X0606685Y0120279D01*
X0606680Y0120237D01*
X0606670Y0120195D01*
X0606658Y0120155D01*
X0606641Y0120115D01*
X0606621Y0120078D01*
X0606599Y0120042D01*
X0606573Y0120008D01*
X0606544Y0119976D01*
X0606512Y0119947D01*
X0606478Y0119921D01*
X0606443Y0119899D01*
X0606405Y0119879D01*
X0606365Y0119862D01*
X0606325Y0119850D01*
X0606283Y0119840D01*
X0606241Y0119835D01*
X0606198Y0119833D01*
X0606565Y0121850D02*
X0606517Y0121883D01*
X0606466Y0121914D01*
X0606414Y0121942D01*
X0606360Y0121965D01*
X0606305Y0121986D01*
X0606248Y0122003D01*
X0606191Y0122016D01*
X0606133Y0122025D01*
X0606074Y0122031D01*
X0606015Y0122033D01*
X0605972Y0122031D01*
X0605930Y0122026D01*
X0605888Y0122016D01*
X0605848Y0122004D01*
X0605808Y0121987D01*
X0605771Y0121967D01*
X0605735Y0121945D01*
X0605701Y0121919D01*
X0605669Y0121890D01*
X0605640Y0121858D01*
X0605614Y0121824D01*
X0605592Y0121789D01*
X0605572Y0121751D01*
X0605555Y0121711D01*
X0605543Y0121671D01*
X0605533Y0121629D01*
X0605528Y0121587D01*
X0605526Y0121544D01*
X0605528Y0121501D01*
X0605533Y0121458D01*
X0605543Y0121416D01*
X0605555Y0121375D01*
X0605572Y0121336D01*
X0605591Y0121297D01*
X0605614Y0121261D01*
X0605640Y0121227D01*
X0605669Y0121195D01*
X0605701Y0121166D01*
X0605735Y0121139D01*
X0605771Y0121116D01*
X0607625Y0122033D02*
X0607625Y0119833D01*
X0608236Y0119833D01*
X0608284Y0119835D01*
X0608332Y0119841D01*
X0608379Y0119850D01*
X0608425Y0119863D01*
X0608470Y0119880D01*
X0608513Y0119900D01*
X0608555Y0119923D01*
X0608595Y0119950D01*
X0608633Y0119979D01*
X0608668Y0120012D01*
X0608701Y0120047D01*
X0608730Y0120085D01*
X0608757Y0120125D01*
X0608780Y0120167D01*
X0608800Y0120210D01*
X0608817Y0120255D01*
X0608830Y0120301D01*
X0608839Y0120348D01*
X0608845Y0120396D01*
X0608847Y0120444D01*
X0608847Y0121422D01*
X0608845Y0121470D01*
X0608839Y0121518D01*
X0608830Y0121565D01*
X0608817Y0121611D01*
X0608800Y0121656D01*
X0608780Y0121699D01*
X0608757Y0121741D01*
X0608730Y0121781D01*
X0608701Y0121819D01*
X0608668Y0121854D01*
X0608633Y0121887D01*
X0608595Y0121916D01*
X0608555Y0121943D01*
X0608513Y0121966D01*
X0608470Y0121986D01*
X0608425Y0122003D01*
X0608379Y0122016D01*
X0608332Y0122025D01*
X0608284Y0122031D01*
X0608236Y0122033D01*
X0607625Y0122033D01*
X0610468Y0122033D02*
X0611202Y0119833D01*
X0611018Y0120383D02*
X0609918Y0120383D01*
X0609735Y0119833D02*
X0610468Y0122033D01*
X0534253Y0108033D02*
X0534253Y0105833D01*
X0533642Y0105833D02*
X0534864Y0105833D01*
X0535802Y0105833D02*
X0537024Y0105833D01*
X0535802Y0105833D02*
X0536841Y0107055D01*
X0536474Y0108033D02*
X0536422Y0108031D01*
X0536370Y0108025D01*
X0536318Y0108016D01*
X0536268Y0108002D01*
X0536218Y0107985D01*
X0536170Y0107964D01*
X0536124Y0107940D01*
X0536080Y0107913D01*
X0536037Y0107882D01*
X0535997Y0107848D01*
X0535960Y0107812D01*
X0535926Y0107772D01*
X0535894Y0107730D01*
X0535866Y0107687D01*
X0535841Y0107641D01*
X0535819Y0107593D01*
X0535801Y0107544D01*
X0536842Y0107055D02*
X0536875Y0107089D01*
X0536905Y0107126D01*
X0536933Y0107166D01*
X0536957Y0107207D01*
X0536977Y0107250D01*
X0536994Y0107295D01*
X0537008Y0107341D01*
X0537017Y0107388D01*
X0537023Y0107435D01*
X0537025Y0107483D01*
X0537024Y0107483D02*
X0537022Y0107528D01*
X0537016Y0107574D01*
X0537007Y0107618D01*
X0536994Y0107662D01*
X0536978Y0107704D01*
X0536958Y0107745D01*
X0536934Y0107784D01*
X0536908Y0107821D01*
X0536879Y0107856D01*
X0536847Y0107888D01*
X0536812Y0107917D01*
X0536775Y0107943D01*
X0536736Y0107967D01*
X0536695Y0107987D01*
X0536653Y0108003D01*
X0536609Y0108016D01*
X0536565Y0108025D01*
X0536519Y0108031D01*
X0536474Y0108033D01*
X0534253Y0108033D02*
X0533642Y0107544D01*
X0526536Y0107055D02*
X0526579Y0107057D01*
X0526621Y0107062D01*
X0526663Y0107072D01*
X0526703Y0107084D01*
X0526743Y0107101D01*
X0526781Y0107121D01*
X0526816Y0107143D01*
X0526850Y0107169D01*
X0526882Y0107198D01*
X0526911Y0107230D01*
X0526937Y0107264D01*
X0526959Y0107300D01*
X0526979Y0107337D01*
X0526996Y0107377D01*
X0527008Y0107417D01*
X0527018Y0107459D01*
X0527023Y0107501D01*
X0527025Y0107544D01*
X0527023Y0107587D01*
X0527018Y0107629D01*
X0527008Y0107671D01*
X0526996Y0107711D01*
X0526979Y0107751D01*
X0526959Y0107789D01*
X0526937Y0107824D01*
X0526911Y0107858D01*
X0526882Y0107890D01*
X0526850Y0107919D01*
X0526816Y0107945D01*
X0526781Y0107967D01*
X0526743Y0107987D01*
X0526703Y0108004D01*
X0526663Y0108016D01*
X0526621Y0108026D01*
X0526579Y0108031D01*
X0526536Y0108033D01*
X0525802Y0108033D01*
X0526047Y0107055D02*
X0526536Y0107055D01*
X0526413Y0107055D02*
X0526461Y0107053D01*
X0526509Y0107047D01*
X0526556Y0107038D01*
X0526602Y0107025D01*
X0526647Y0107008D01*
X0526690Y0106988D01*
X0526732Y0106965D01*
X0526772Y0106938D01*
X0526810Y0106909D01*
X0526845Y0106876D01*
X0526878Y0106841D01*
X0526907Y0106803D01*
X0526934Y0106763D01*
X0526957Y0106721D01*
X0526977Y0106678D01*
X0526994Y0106633D01*
X0527007Y0106587D01*
X0527016Y0106540D01*
X0527022Y0106492D01*
X0527024Y0106444D01*
X0527022Y0106396D01*
X0527016Y0106348D01*
X0527007Y0106301D01*
X0526994Y0106255D01*
X0526977Y0106210D01*
X0526957Y0106167D01*
X0526934Y0106125D01*
X0526907Y0106085D01*
X0526878Y0106047D01*
X0526845Y0106012D01*
X0526810Y0105979D01*
X0526772Y0105950D01*
X0526732Y0105923D01*
X0526690Y0105900D01*
X0526647Y0105880D01*
X0526602Y0105863D01*
X0526556Y0105850D01*
X0526509Y0105841D01*
X0526461Y0105835D01*
X0526413Y0105833D01*
X0525802Y0105833D01*
X0524864Y0105833D02*
X0523642Y0105833D01*
X0524253Y0105833D02*
X0524253Y0108033D01*
X0523642Y0107544D01*
X0544142Y0107044D02*
X0544753Y0107533D01*
X0544753Y0105333D01*
X0544142Y0105333D02*
X0545364Y0105333D01*
X0546302Y0105333D02*
X0547524Y0105333D01*
X0546913Y0105333D02*
X0546913Y0107533D01*
X0546302Y0107044D01*
X0554142Y0107044D02*
X0554753Y0107533D01*
X0554753Y0105333D01*
X0554142Y0105333D02*
X0555364Y0105333D01*
X0557341Y0105639D02*
X0557375Y0105713D01*
X0557406Y0105789D01*
X0557433Y0105867D01*
X0557457Y0105946D01*
X0557478Y0106025D01*
X0557494Y0106106D01*
X0557507Y0106187D01*
X0557517Y0106269D01*
X0557522Y0106351D01*
X0557524Y0106433D01*
X0556302Y0106433D02*
X0556304Y0106515D01*
X0556309Y0106597D01*
X0556319Y0106679D01*
X0556332Y0106760D01*
X0556348Y0106841D01*
X0556369Y0106920D01*
X0556393Y0106999D01*
X0556420Y0107077D01*
X0556451Y0107153D01*
X0556485Y0107227D01*
X0556913Y0107533D02*
X0556953Y0107531D01*
X0556993Y0107526D01*
X0557032Y0107517D01*
X0557070Y0107505D01*
X0557107Y0107489D01*
X0557142Y0107471D01*
X0557176Y0107449D01*
X0557207Y0107424D01*
X0557236Y0107397D01*
X0557263Y0107367D01*
X0557287Y0107335D01*
X0557308Y0107301D01*
X0557326Y0107265D01*
X0557341Y0107228D01*
X0557402Y0107044D02*
X0556424Y0105822D01*
X0556913Y0105333D02*
X0556953Y0105335D01*
X0556993Y0105340D01*
X0557032Y0105349D01*
X0557070Y0105361D01*
X0557107Y0105377D01*
X0557142Y0105395D01*
X0557176Y0105417D01*
X0557207Y0105442D01*
X0557236Y0105469D01*
X0557263Y0105499D01*
X0557287Y0105531D01*
X0557308Y0105565D01*
X0557326Y0105601D01*
X0557341Y0105638D01*
X0556913Y0105333D02*
X0556873Y0105335D01*
X0556833Y0105340D01*
X0556794Y0105349D01*
X0556756Y0105361D01*
X0556719Y0105377D01*
X0556684Y0105395D01*
X0556650Y0105417D01*
X0556619Y0105442D01*
X0556590Y0105469D01*
X0556563Y0105499D01*
X0556539Y0105531D01*
X0556518Y0105565D01*
X0556500Y0105601D01*
X0556485Y0105638D01*
X0557525Y0106433D02*
X0557523Y0106515D01*
X0557518Y0106597D01*
X0557508Y0106679D01*
X0557495Y0106760D01*
X0557479Y0106841D01*
X0557458Y0106920D01*
X0557434Y0106999D01*
X0557407Y0107077D01*
X0557376Y0107153D01*
X0557342Y0107227D01*
X0556913Y0107533D02*
X0556873Y0107531D01*
X0556833Y0107526D01*
X0556794Y0107517D01*
X0556756Y0107505D01*
X0556719Y0107489D01*
X0556684Y0107471D01*
X0556650Y0107449D01*
X0556619Y0107424D01*
X0556590Y0107397D01*
X0556563Y0107367D01*
X0556539Y0107335D01*
X0556518Y0107301D01*
X0556500Y0107265D01*
X0556485Y0107228D01*
X0556302Y0106433D02*
X0556304Y0106351D01*
X0556309Y0106269D01*
X0556319Y0106187D01*
X0556332Y0106106D01*
X0556348Y0106025D01*
X0556369Y0105946D01*
X0556393Y0105867D01*
X0556420Y0105789D01*
X0556451Y0105713D01*
X0556485Y0105639D01*
X0561300Y0087033D02*
X0561789Y0087033D01*
X0561300Y0087033D02*
X0561257Y0087031D01*
X0561215Y0087026D01*
X0561173Y0087016D01*
X0561133Y0087004D01*
X0561093Y0086987D01*
X0561055Y0086967D01*
X0561020Y0086945D01*
X0560986Y0086919D01*
X0560954Y0086890D01*
X0560925Y0086858D01*
X0560899Y0086824D01*
X0560877Y0086788D01*
X0560857Y0086751D01*
X0560840Y0086711D01*
X0560828Y0086671D01*
X0560818Y0086629D01*
X0560813Y0086587D01*
X0560811Y0086544D01*
X0560811Y0085322D01*
X0560813Y0085279D01*
X0560818Y0085237D01*
X0560828Y0085195D01*
X0560840Y0085155D01*
X0560857Y0085115D01*
X0560877Y0085078D01*
X0560899Y0085042D01*
X0560925Y0085008D01*
X0560954Y0084976D01*
X0560986Y0084947D01*
X0561020Y0084921D01*
X0561056Y0084899D01*
X0561093Y0084879D01*
X0561133Y0084862D01*
X0561173Y0084850D01*
X0561215Y0084840D01*
X0561257Y0084835D01*
X0561300Y0084833D01*
X0561789Y0084833D01*
X0563523Y0085750D02*
X0563559Y0085727D01*
X0563593Y0085700D01*
X0563625Y0085671D01*
X0563654Y0085639D01*
X0563680Y0085605D01*
X0563703Y0085569D01*
X0563722Y0085530D01*
X0563739Y0085491D01*
X0563751Y0085450D01*
X0563761Y0085408D01*
X0563766Y0085365D01*
X0563768Y0085322D01*
X0563766Y0085279D01*
X0563761Y0085237D01*
X0563751Y0085195D01*
X0563739Y0085155D01*
X0563722Y0085115D01*
X0563702Y0085078D01*
X0563680Y0085042D01*
X0563654Y0085008D01*
X0563625Y0084976D01*
X0563593Y0084947D01*
X0563559Y0084921D01*
X0563524Y0084899D01*
X0563486Y0084879D01*
X0563446Y0084862D01*
X0563406Y0084850D01*
X0563364Y0084840D01*
X0563322Y0084835D01*
X0563279Y0084833D01*
X0563523Y0085750D02*
X0562851Y0086116D01*
X0563095Y0087033D02*
X0563154Y0087031D01*
X0563213Y0087025D01*
X0563271Y0087016D01*
X0563328Y0087003D01*
X0563385Y0086986D01*
X0563440Y0086965D01*
X0563494Y0086942D01*
X0563546Y0086914D01*
X0563597Y0086883D01*
X0563645Y0086850D01*
X0562851Y0086116D02*
X0562815Y0086139D01*
X0562781Y0086166D01*
X0562749Y0086195D01*
X0562720Y0086227D01*
X0562694Y0086261D01*
X0562671Y0086297D01*
X0562652Y0086336D01*
X0562635Y0086375D01*
X0562623Y0086416D01*
X0562613Y0086458D01*
X0562608Y0086501D01*
X0562606Y0086544D01*
X0562608Y0086587D01*
X0562613Y0086629D01*
X0562623Y0086671D01*
X0562635Y0086711D01*
X0562652Y0086751D01*
X0562672Y0086789D01*
X0562694Y0086824D01*
X0562720Y0086858D01*
X0562749Y0086890D01*
X0562781Y0086919D01*
X0562815Y0086945D01*
X0562851Y0086967D01*
X0562888Y0086987D01*
X0562928Y0087004D01*
X0562968Y0087016D01*
X0563010Y0087026D01*
X0563052Y0087031D01*
X0563095Y0087033D01*
X0562546Y0085139D02*
X0562591Y0085095D01*
X0562639Y0085055D01*
X0562689Y0085018D01*
X0562742Y0084984D01*
X0562797Y0084953D01*
X0562853Y0084925D01*
X0562911Y0084901D01*
X0562970Y0084880D01*
X0563031Y0084863D01*
X0563092Y0084850D01*
X0563154Y0084841D01*
X0563216Y0084835D01*
X0563279Y0084833D01*
X0564633Y0084833D02*
X0565856Y0084833D01*
X0565245Y0084833D02*
X0565245Y0087033D01*
X0564633Y0086544D01*
X0465856Y0084833D02*
X0464633Y0084833D01*
X0465672Y0086055D01*
X0465306Y0087033D02*
X0465254Y0087031D01*
X0465202Y0087025D01*
X0465150Y0087016D01*
X0465100Y0087002D01*
X0465050Y0086985D01*
X0465002Y0086964D01*
X0464956Y0086940D01*
X0464912Y0086913D01*
X0464869Y0086882D01*
X0464829Y0086848D01*
X0464792Y0086812D01*
X0464758Y0086772D01*
X0464726Y0086730D01*
X0464698Y0086687D01*
X0464673Y0086641D01*
X0464651Y0086593D01*
X0464633Y0086544D01*
X0465673Y0086055D02*
X0465706Y0086089D01*
X0465736Y0086126D01*
X0465764Y0086166D01*
X0465788Y0086207D01*
X0465808Y0086250D01*
X0465825Y0086295D01*
X0465839Y0086341D01*
X0465848Y0086388D01*
X0465854Y0086435D01*
X0465856Y0086483D01*
X0465854Y0086528D01*
X0465848Y0086574D01*
X0465839Y0086618D01*
X0465826Y0086662D01*
X0465810Y0086704D01*
X0465790Y0086745D01*
X0465766Y0086784D01*
X0465740Y0086821D01*
X0465711Y0086856D01*
X0465679Y0086888D01*
X0465644Y0086917D01*
X0465607Y0086943D01*
X0465568Y0086967D01*
X0465527Y0086987D01*
X0465485Y0087003D01*
X0465441Y0087016D01*
X0465397Y0087025D01*
X0465351Y0087031D01*
X0465306Y0087033D01*
X0463523Y0085750D02*
X0462851Y0086116D01*
X0463095Y0087033D02*
X0463154Y0087031D01*
X0463213Y0087025D01*
X0463271Y0087016D01*
X0463328Y0087003D01*
X0463385Y0086986D01*
X0463440Y0086965D01*
X0463494Y0086942D01*
X0463546Y0086914D01*
X0463597Y0086883D01*
X0463645Y0086850D01*
X0462851Y0086116D02*
X0462815Y0086139D01*
X0462781Y0086166D01*
X0462749Y0086195D01*
X0462720Y0086227D01*
X0462694Y0086261D01*
X0462671Y0086297D01*
X0462652Y0086336D01*
X0462635Y0086375D01*
X0462623Y0086416D01*
X0462613Y0086458D01*
X0462608Y0086501D01*
X0462606Y0086544D01*
X0462608Y0086587D01*
X0462613Y0086629D01*
X0462623Y0086671D01*
X0462635Y0086711D01*
X0462652Y0086751D01*
X0462672Y0086789D01*
X0462694Y0086824D01*
X0462720Y0086858D01*
X0462749Y0086890D01*
X0462781Y0086919D01*
X0462815Y0086945D01*
X0462851Y0086967D01*
X0462888Y0086987D01*
X0462928Y0087004D01*
X0462968Y0087016D01*
X0463010Y0087026D01*
X0463052Y0087031D01*
X0463095Y0087033D01*
X0462546Y0085139D02*
X0462591Y0085095D01*
X0462639Y0085055D01*
X0462689Y0085018D01*
X0462742Y0084984D01*
X0462797Y0084953D01*
X0462853Y0084925D01*
X0462911Y0084901D01*
X0462970Y0084880D01*
X0463031Y0084863D01*
X0463092Y0084850D01*
X0463154Y0084841D01*
X0463216Y0084835D01*
X0463279Y0084833D01*
X0463322Y0084835D01*
X0463364Y0084840D01*
X0463406Y0084850D01*
X0463446Y0084862D01*
X0463486Y0084879D01*
X0463524Y0084899D01*
X0463559Y0084921D01*
X0463593Y0084947D01*
X0463625Y0084976D01*
X0463654Y0085008D01*
X0463680Y0085042D01*
X0463702Y0085078D01*
X0463722Y0085115D01*
X0463739Y0085155D01*
X0463751Y0085195D01*
X0463761Y0085237D01*
X0463766Y0085279D01*
X0463768Y0085322D01*
X0463766Y0085365D01*
X0463761Y0085408D01*
X0463751Y0085450D01*
X0463739Y0085491D01*
X0463722Y0085530D01*
X0463703Y0085569D01*
X0463680Y0085605D01*
X0463654Y0085639D01*
X0463625Y0085671D01*
X0463593Y0085700D01*
X0463559Y0085727D01*
X0463523Y0085750D01*
X0461789Y0084833D02*
X0461300Y0084833D01*
X0461257Y0084835D01*
X0461215Y0084840D01*
X0461173Y0084850D01*
X0461133Y0084862D01*
X0461093Y0084879D01*
X0461056Y0084899D01*
X0461020Y0084921D01*
X0460986Y0084947D01*
X0460954Y0084976D01*
X0460925Y0085008D01*
X0460899Y0085042D01*
X0460877Y0085078D01*
X0460857Y0085115D01*
X0460840Y0085155D01*
X0460828Y0085195D01*
X0460818Y0085237D01*
X0460813Y0085279D01*
X0460811Y0085322D01*
X0460811Y0086544D01*
X0460813Y0086587D01*
X0460818Y0086629D01*
X0460828Y0086671D01*
X0460840Y0086711D01*
X0460857Y0086751D01*
X0460877Y0086788D01*
X0460899Y0086824D01*
X0460925Y0086858D01*
X0460954Y0086890D01*
X0460986Y0086919D01*
X0461020Y0086945D01*
X0461055Y0086967D01*
X0461093Y0086987D01*
X0461133Y0087004D01*
X0461173Y0087016D01*
X0461215Y0087026D01*
X0461257Y0087031D01*
X0461300Y0087033D01*
X0461789Y0087033D01*
X0462695Y0047033D02*
X0463429Y0047033D01*
X0463472Y0047031D01*
X0463514Y0047026D01*
X0463556Y0047016D01*
X0463596Y0047004D01*
X0463636Y0046987D01*
X0463674Y0046967D01*
X0463709Y0046945D01*
X0463743Y0046919D01*
X0463775Y0046890D01*
X0463804Y0046858D01*
X0463830Y0046824D01*
X0463852Y0046789D01*
X0463872Y0046751D01*
X0463889Y0046711D01*
X0463901Y0046671D01*
X0463911Y0046629D01*
X0463916Y0046587D01*
X0463918Y0046544D01*
X0463916Y0046501D01*
X0463911Y0046459D01*
X0463901Y0046417D01*
X0463889Y0046377D01*
X0463872Y0046337D01*
X0463852Y0046300D01*
X0463830Y0046264D01*
X0463804Y0046230D01*
X0463775Y0046198D01*
X0463743Y0046169D01*
X0463709Y0046143D01*
X0463674Y0046121D01*
X0463636Y0046101D01*
X0463596Y0046084D01*
X0463556Y0046072D01*
X0463514Y0046062D01*
X0463472Y0046057D01*
X0463429Y0046055D01*
X0462940Y0046055D01*
X0463306Y0046055D02*
X0463354Y0046053D01*
X0463402Y0046047D01*
X0463449Y0046038D01*
X0463495Y0046025D01*
X0463540Y0046008D01*
X0463583Y0045988D01*
X0463625Y0045965D01*
X0463665Y0045938D01*
X0463703Y0045909D01*
X0463738Y0045876D01*
X0463771Y0045841D01*
X0463800Y0045803D01*
X0463827Y0045763D01*
X0463850Y0045721D01*
X0463870Y0045678D01*
X0463887Y0045633D01*
X0463900Y0045587D01*
X0463909Y0045540D01*
X0463915Y0045492D01*
X0463917Y0045444D01*
X0463915Y0045396D01*
X0463909Y0045348D01*
X0463900Y0045301D01*
X0463887Y0045255D01*
X0463870Y0045210D01*
X0463850Y0045167D01*
X0463827Y0045125D01*
X0463800Y0045085D01*
X0463771Y0045047D01*
X0463738Y0045012D01*
X0463703Y0044979D01*
X0463665Y0044950D01*
X0463625Y0044923D01*
X0463583Y0044900D01*
X0463540Y0044880D01*
X0463495Y0044863D01*
X0463449Y0044850D01*
X0463402Y0044841D01*
X0463354Y0044835D01*
X0463306Y0044833D01*
X0462695Y0044833D01*
X0465466Y0044833D02*
X0466200Y0047033D01*
X0466994Y0045811D02*
X0466994Y0045322D01*
X0466993Y0045322D02*
X0466995Y0045279D01*
X0467000Y0045237D01*
X0467010Y0045195D01*
X0467022Y0045155D01*
X0467039Y0045115D01*
X0467059Y0045078D01*
X0467081Y0045042D01*
X0467107Y0045008D01*
X0467136Y0044976D01*
X0467168Y0044947D01*
X0467202Y0044921D01*
X0467238Y0044899D01*
X0467275Y0044879D01*
X0467315Y0044862D01*
X0467355Y0044850D01*
X0467397Y0044840D01*
X0467439Y0044835D01*
X0467482Y0044833D01*
X0467525Y0044835D01*
X0467567Y0044840D01*
X0467609Y0044850D01*
X0467649Y0044862D01*
X0467689Y0044879D01*
X0467727Y0044899D01*
X0467762Y0044921D01*
X0467796Y0044947D01*
X0467828Y0044976D01*
X0467857Y0045008D01*
X0467883Y0045042D01*
X0467905Y0045078D01*
X0467925Y0045115D01*
X0467942Y0045155D01*
X0467954Y0045195D01*
X0467964Y0045237D01*
X0467969Y0045279D01*
X0467971Y0045322D01*
X0467971Y0045811D01*
X0467969Y0045854D01*
X0467964Y0045896D01*
X0467954Y0045938D01*
X0467942Y0045978D01*
X0467925Y0046018D01*
X0467905Y0046056D01*
X0467883Y0046091D01*
X0467857Y0046125D01*
X0467828Y0046157D01*
X0467796Y0046186D01*
X0467762Y0046212D01*
X0467727Y0046234D01*
X0467689Y0046254D01*
X0467649Y0046271D01*
X0467609Y0046283D01*
X0467567Y0046293D01*
X0467525Y0046298D01*
X0467482Y0046300D01*
X0467439Y0046298D01*
X0467397Y0046293D01*
X0467355Y0046283D01*
X0467315Y0046271D01*
X0467275Y0046254D01*
X0467238Y0046234D01*
X0467202Y0046212D01*
X0467168Y0046186D01*
X0467136Y0046157D01*
X0467107Y0046125D01*
X0467081Y0046091D01*
X0467059Y0046056D01*
X0467039Y0046018D01*
X0467022Y0045978D01*
X0467010Y0045938D01*
X0467000Y0045896D01*
X0466995Y0045854D01*
X0466993Y0045811D01*
X0465466Y0044833D02*
X0464733Y0047033D01*
X0457748Y0046422D02*
X0457748Y0045444D01*
X0457746Y0045396D01*
X0457740Y0045348D01*
X0457731Y0045301D01*
X0457718Y0045255D01*
X0457701Y0045210D01*
X0457681Y0045167D01*
X0457658Y0045125D01*
X0457631Y0045085D01*
X0457602Y0045047D01*
X0457569Y0045012D01*
X0457534Y0044979D01*
X0457496Y0044950D01*
X0457456Y0044923D01*
X0457414Y0044900D01*
X0457371Y0044880D01*
X0457326Y0044863D01*
X0457280Y0044850D01*
X0457233Y0044841D01*
X0457185Y0044835D01*
X0457137Y0044833D01*
X0456526Y0044833D01*
X0456526Y0047033D01*
X0457137Y0047033D01*
X0457185Y0047031D01*
X0457233Y0047025D01*
X0457280Y0047016D01*
X0457326Y0047003D01*
X0457371Y0046986D01*
X0457414Y0046966D01*
X0457456Y0046943D01*
X0457496Y0046916D01*
X0457534Y0046887D01*
X0457569Y0046854D01*
X0457602Y0046819D01*
X0457631Y0046781D01*
X0457658Y0046741D01*
X0457681Y0046699D01*
X0457701Y0046656D01*
X0457718Y0046611D01*
X0457731Y0046565D01*
X0457740Y0046518D01*
X0457746Y0046470D01*
X0457748Y0046422D01*
X0455444Y0047033D02*
X0455444Y0044833D01*
X0454222Y0047033D01*
X0454222Y0044833D01*
X0453140Y0044833D02*
X0452407Y0044833D01*
X0452364Y0044835D01*
X0452322Y0044840D01*
X0452280Y0044850D01*
X0452240Y0044862D01*
X0452200Y0044879D01*
X0452163Y0044899D01*
X0452127Y0044921D01*
X0452093Y0044947D01*
X0452061Y0044976D01*
X0452032Y0045008D01*
X0452006Y0045042D01*
X0451984Y0045078D01*
X0451964Y0045115D01*
X0451947Y0045155D01*
X0451935Y0045195D01*
X0451925Y0045237D01*
X0451920Y0045279D01*
X0451918Y0045322D01*
X0451918Y0046544D01*
X0451920Y0046587D01*
X0451925Y0046629D01*
X0451935Y0046671D01*
X0451947Y0046711D01*
X0451964Y0046751D01*
X0451984Y0046788D01*
X0452006Y0046824D01*
X0452032Y0046858D01*
X0452061Y0046890D01*
X0452093Y0046919D01*
X0452127Y0046945D01*
X0452162Y0046967D01*
X0452200Y0046987D01*
X0452240Y0047004D01*
X0452280Y0047016D01*
X0452322Y0047026D01*
X0452364Y0047031D01*
X0452407Y0047033D01*
X0453140Y0047033D01*
X0453140Y0046055D02*
X0453140Y0044833D01*
X0453140Y0046055D02*
X0452774Y0046055D01*
X0447920Y0045933D02*
X0447920Y0044833D01*
X0446943Y0044833D02*
X0446943Y0046300D01*
X0447554Y0046300D01*
X0447590Y0046298D01*
X0447626Y0046293D01*
X0447661Y0046284D01*
X0447694Y0046272D01*
X0447727Y0046257D01*
X0447758Y0046238D01*
X0447787Y0046217D01*
X0447814Y0046193D01*
X0447838Y0046166D01*
X0447859Y0046137D01*
X0447878Y0046106D01*
X0447893Y0046073D01*
X0447905Y0046040D01*
X0447914Y0046005D01*
X0447919Y0045969D01*
X0447921Y0045933D01*
X0445992Y0046300D02*
X0445992Y0044833D01*
X0444480Y0044833D02*
X0445213Y0047033D01*
X0445930Y0047033D02*
X0446053Y0047033D01*
X0446053Y0046911D01*
X0445930Y0046911D01*
X0445930Y0047033D01*
X0443746Y0047033D02*
X0444480Y0044833D01*
X0473531Y0046116D02*
X0474204Y0045750D01*
X0473959Y0044833D02*
X0473896Y0044835D01*
X0473834Y0044841D01*
X0473772Y0044850D01*
X0473711Y0044863D01*
X0473650Y0044880D01*
X0473591Y0044901D01*
X0473533Y0044925D01*
X0473477Y0044953D01*
X0473422Y0044984D01*
X0473369Y0045018D01*
X0473319Y0045055D01*
X0473271Y0045095D01*
X0473226Y0045139D01*
X0474204Y0045750D02*
X0474240Y0045727D01*
X0474274Y0045700D01*
X0474306Y0045671D01*
X0474335Y0045639D01*
X0474361Y0045605D01*
X0474384Y0045569D01*
X0474403Y0045530D01*
X0474420Y0045491D01*
X0474432Y0045450D01*
X0474442Y0045408D01*
X0474447Y0045365D01*
X0474449Y0045322D01*
X0474448Y0045322D02*
X0474446Y0045279D01*
X0474441Y0045237D01*
X0474431Y0045195D01*
X0474419Y0045155D01*
X0474402Y0045115D01*
X0474382Y0045078D01*
X0474360Y0045042D01*
X0474334Y0045008D01*
X0474305Y0044976D01*
X0474273Y0044947D01*
X0474239Y0044921D01*
X0474204Y0044899D01*
X0474166Y0044879D01*
X0474126Y0044862D01*
X0474086Y0044850D01*
X0474044Y0044840D01*
X0474002Y0044835D01*
X0473959Y0044833D01*
X0474326Y0046850D02*
X0474278Y0046883D01*
X0474227Y0046914D01*
X0474175Y0046942D01*
X0474121Y0046965D01*
X0474066Y0046986D01*
X0474009Y0047003D01*
X0473952Y0047016D01*
X0473894Y0047025D01*
X0473835Y0047031D01*
X0473776Y0047033D01*
X0473733Y0047031D01*
X0473691Y0047026D01*
X0473649Y0047016D01*
X0473609Y0047004D01*
X0473569Y0046987D01*
X0473532Y0046967D01*
X0473496Y0046945D01*
X0473462Y0046919D01*
X0473430Y0046890D01*
X0473401Y0046858D01*
X0473375Y0046824D01*
X0473353Y0046789D01*
X0473333Y0046751D01*
X0473316Y0046711D01*
X0473304Y0046671D01*
X0473294Y0046629D01*
X0473289Y0046587D01*
X0473287Y0046544D01*
X0473289Y0046501D01*
X0473294Y0046458D01*
X0473304Y0046416D01*
X0473316Y0046375D01*
X0473333Y0046336D01*
X0473352Y0046297D01*
X0473375Y0046261D01*
X0473401Y0046227D01*
X0473430Y0046195D01*
X0473462Y0046166D01*
X0473496Y0046139D01*
X0473532Y0046116D01*
X0475307Y0046544D02*
X0475307Y0045322D01*
X0475309Y0045279D01*
X0475314Y0045237D01*
X0475324Y0045195D01*
X0475336Y0045155D01*
X0475353Y0045115D01*
X0475373Y0045078D01*
X0475395Y0045042D01*
X0475421Y0045008D01*
X0475450Y0044976D01*
X0475482Y0044947D01*
X0475516Y0044921D01*
X0475552Y0044899D01*
X0475589Y0044879D01*
X0475629Y0044862D01*
X0475669Y0044850D01*
X0475711Y0044840D01*
X0475753Y0044835D01*
X0475796Y0044833D01*
X0476285Y0044833D01*
X0477219Y0044833D02*
X0477219Y0047033D01*
X0476285Y0047033D02*
X0475796Y0047033D01*
X0475753Y0047031D01*
X0475711Y0047026D01*
X0475669Y0047016D01*
X0475629Y0047004D01*
X0475589Y0046987D01*
X0475551Y0046967D01*
X0475516Y0046945D01*
X0475482Y0046919D01*
X0475450Y0046890D01*
X0475421Y0046858D01*
X0475395Y0046824D01*
X0475373Y0046788D01*
X0475353Y0046751D01*
X0475336Y0046711D01*
X0475324Y0046671D01*
X0475314Y0046629D01*
X0475309Y0046587D01*
X0475307Y0046544D01*
X0477219Y0045689D02*
X0478441Y0047033D01*
X0477707Y0046178D02*
X0478441Y0044833D01*
X0484106Y0044833D02*
X0484717Y0044833D01*
X0484106Y0044833D02*
X0484106Y0047033D01*
X0484717Y0047033D01*
X0484765Y0047031D01*
X0484813Y0047025D01*
X0484860Y0047016D01*
X0484906Y0047003D01*
X0484951Y0046986D01*
X0484994Y0046966D01*
X0485036Y0046943D01*
X0485076Y0046916D01*
X0485114Y0046887D01*
X0485149Y0046854D01*
X0485182Y0046819D01*
X0485211Y0046781D01*
X0485238Y0046741D01*
X0485261Y0046699D01*
X0485281Y0046656D01*
X0485298Y0046611D01*
X0485311Y0046565D01*
X0485320Y0046518D01*
X0485326Y0046470D01*
X0485328Y0046422D01*
X0485328Y0045444D01*
X0485326Y0045396D01*
X0485320Y0045348D01*
X0485311Y0045301D01*
X0485298Y0045255D01*
X0485281Y0045210D01*
X0485261Y0045167D01*
X0485238Y0045125D01*
X0485211Y0045085D01*
X0485182Y0045047D01*
X0485149Y0045012D01*
X0485114Y0044979D01*
X0485076Y0044950D01*
X0485036Y0044923D01*
X0484994Y0044900D01*
X0484951Y0044880D01*
X0484906Y0044863D01*
X0484860Y0044850D01*
X0484813Y0044841D01*
X0484765Y0044835D01*
X0484717Y0044833D01*
X0486338Y0045444D02*
X0486338Y0046422D01*
X0486340Y0046470D01*
X0486346Y0046518D01*
X0486355Y0046565D01*
X0486368Y0046611D01*
X0486385Y0046656D01*
X0486405Y0046699D01*
X0486428Y0046741D01*
X0486455Y0046781D01*
X0486484Y0046819D01*
X0486517Y0046854D01*
X0486552Y0046887D01*
X0486590Y0046916D01*
X0486630Y0046943D01*
X0486672Y0046966D01*
X0486715Y0046986D01*
X0486760Y0047003D01*
X0486806Y0047016D01*
X0486853Y0047025D01*
X0486901Y0047031D01*
X0486949Y0047033D01*
X0486997Y0047031D01*
X0487045Y0047025D01*
X0487092Y0047016D01*
X0487138Y0047003D01*
X0487183Y0046986D01*
X0487226Y0046966D01*
X0487268Y0046943D01*
X0487308Y0046916D01*
X0487346Y0046887D01*
X0487381Y0046854D01*
X0487414Y0046819D01*
X0487443Y0046781D01*
X0487470Y0046741D01*
X0487493Y0046699D01*
X0487513Y0046656D01*
X0487530Y0046611D01*
X0487543Y0046565D01*
X0487552Y0046518D01*
X0487558Y0046470D01*
X0487560Y0046422D01*
X0487560Y0045444D01*
X0487558Y0045396D01*
X0487552Y0045348D01*
X0487543Y0045301D01*
X0487530Y0045255D01*
X0487513Y0045210D01*
X0487493Y0045167D01*
X0487470Y0045125D01*
X0487443Y0045085D01*
X0487414Y0045047D01*
X0487381Y0045012D01*
X0487346Y0044979D01*
X0487308Y0044950D01*
X0487268Y0044923D01*
X0487226Y0044900D01*
X0487183Y0044880D01*
X0487138Y0044863D01*
X0487092Y0044850D01*
X0487045Y0044841D01*
X0486997Y0044835D01*
X0486949Y0044833D01*
X0486901Y0044835D01*
X0486853Y0044841D01*
X0486806Y0044850D01*
X0486760Y0044863D01*
X0486715Y0044880D01*
X0486672Y0044900D01*
X0486630Y0044923D01*
X0486590Y0044950D01*
X0486552Y0044979D01*
X0486517Y0045012D01*
X0486484Y0045047D01*
X0486455Y0045085D01*
X0486428Y0045125D01*
X0486405Y0045167D01*
X0486385Y0045210D01*
X0486368Y0045255D01*
X0486355Y0045301D01*
X0486346Y0045348D01*
X0486340Y0045396D01*
X0486338Y0045444D01*
X0495006Y0044833D02*
X0495617Y0044833D01*
X0495665Y0044835D01*
X0495713Y0044841D01*
X0495760Y0044850D01*
X0495806Y0044863D01*
X0495851Y0044880D01*
X0495894Y0044900D01*
X0495936Y0044923D01*
X0495976Y0044950D01*
X0496014Y0044979D01*
X0496049Y0045012D01*
X0496082Y0045047D01*
X0496111Y0045085D01*
X0496138Y0045125D01*
X0496161Y0045167D01*
X0496181Y0045210D01*
X0496198Y0045255D01*
X0496211Y0045301D01*
X0496220Y0045348D01*
X0496226Y0045396D01*
X0496228Y0045444D01*
X0496228Y0046422D01*
X0496226Y0046470D01*
X0496220Y0046518D01*
X0496211Y0046565D01*
X0496198Y0046611D01*
X0496181Y0046656D01*
X0496161Y0046699D01*
X0496138Y0046741D01*
X0496111Y0046781D01*
X0496082Y0046819D01*
X0496049Y0046854D01*
X0496014Y0046887D01*
X0495976Y0046916D01*
X0495936Y0046943D01*
X0495894Y0046966D01*
X0495851Y0046986D01*
X0495806Y0047003D01*
X0495760Y0047016D01*
X0495713Y0047025D01*
X0495665Y0047031D01*
X0495617Y0047033D01*
X0495006Y0047033D01*
X0495006Y0044833D01*
X0497172Y0044833D02*
X0497661Y0044833D01*
X0497417Y0044833D02*
X0497417Y0047033D01*
X0497661Y0047033D02*
X0497172Y0047033D01*
X0504855Y0046544D02*
X0504855Y0045322D01*
X0504857Y0045279D01*
X0504862Y0045237D01*
X0504872Y0045195D01*
X0504884Y0045155D01*
X0504901Y0045115D01*
X0504921Y0045078D01*
X0504943Y0045042D01*
X0504969Y0045008D01*
X0504998Y0044976D01*
X0505030Y0044947D01*
X0505064Y0044921D01*
X0505100Y0044899D01*
X0505137Y0044879D01*
X0505177Y0044862D01*
X0505217Y0044850D01*
X0505259Y0044840D01*
X0505301Y0044835D01*
X0505344Y0044833D01*
X0505833Y0044833D01*
X0507567Y0045750D02*
X0507603Y0045727D01*
X0507637Y0045700D01*
X0507669Y0045671D01*
X0507698Y0045639D01*
X0507724Y0045605D01*
X0507747Y0045569D01*
X0507766Y0045530D01*
X0507783Y0045491D01*
X0507795Y0045450D01*
X0507805Y0045408D01*
X0507810Y0045365D01*
X0507812Y0045322D01*
X0507810Y0045279D01*
X0507805Y0045237D01*
X0507795Y0045195D01*
X0507783Y0045155D01*
X0507766Y0045115D01*
X0507746Y0045078D01*
X0507724Y0045042D01*
X0507698Y0045008D01*
X0507669Y0044976D01*
X0507637Y0044947D01*
X0507603Y0044921D01*
X0507568Y0044899D01*
X0507530Y0044879D01*
X0507490Y0044862D01*
X0507450Y0044850D01*
X0507408Y0044840D01*
X0507366Y0044835D01*
X0507323Y0044833D01*
X0507567Y0045750D02*
X0506895Y0046116D01*
X0507139Y0047033D02*
X0507198Y0047031D01*
X0507257Y0047025D01*
X0507315Y0047016D01*
X0507372Y0047003D01*
X0507429Y0046986D01*
X0507484Y0046965D01*
X0507538Y0046942D01*
X0507590Y0046914D01*
X0507641Y0046883D01*
X0507689Y0046850D01*
X0506895Y0046116D02*
X0506859Y0046139D01*
X0506825Y0046166D01*
X0506793Y0046195D01*
X0506764Y0046227D01*
X0506738Y0046261D01*
X0506715Y0046297D01*
X0506696Y0046336D01*
X0506679Y0046375D01*
X0506667Y0046416D01*
X0506657Y0046458D01*
X0506652Y0046501D01*
X0506650Y0046544D01*
X0506652Y0046587D01*
X0506657Y0046629D01*
X0506667Y0046671D01*
X0506679Y0046711D01*
X0506696Y0046751D01*
X0506716Y0046789D01*
X0506738Y0046824D01*
X0506764Y0046858D01*
X0506793Y0046890D01*
X0506825Y0046919D01*
X0506859Y0046945D01*
X0506895Y0046967D01*
X0506932Y0046987D01*
X0506972Y0047004D01*
X0507012Y0047016D01*
X0507054Y0047026D01*
X0507096Y0047031D01*
X0507139Y0047033D01*
X0506590Y0045139D02*
X0506635Y0045095D01*
X0506683Y0045055D01*
X0506733Y0045018D01*
X0506786Y0044984D01*
X0506841Y0044953D01*
X0506897Y0044925D01*
X0506955Y0044901D01*
X0507014Y0044880D01*
X0507075Y0044863D01*
X0507136Y0044850D01*
X0507198Y0044841D01*
X0507260Y0044835D01*
X0507323Y0044833D01*
X0512777Y0044833D02*
X0513388Y0044833D01*
X0512777Y0044833D02*
X0512777Y0047033D01*
X0513388Y0047033D01*
X0513436Y0047031D01*
X0513484Y0047025D01*
X0513531Y0047016D01*
X0513577Y0047003D01*
X0513622Y0046986D01*
X0513665Y0046966D01*
X0513707Y0046943D01*
X0513747Y0046916D01*
X0513785Y0046887D01*
X0513820Y0046854D01*
X0513853Y0046819D01*
X0513882Y0046781D01*
X0513909Y0046741D01*
X0513932Y0046699D01*
X0513952Y0046656D01*
X0513969Y0046611D01*
X0513982Y0046565D01*
X0513991Y0046518D01*
X0513997Y0046470D01*
X0513999Y0046422D01*
X0513999Y0045444D01*
X0513997Y0045396D01*
X0513991Y0045348D01*
X0513982Y0045301D01*
X0513969Y0045255D01*
X0513952Y0045210D01*
X0513932Y0045167D01*
X0513909Y0045125D01*
X0513882Y0045085D01*
X0513853Y0045047D01*
X0513820Y0045012D01*
X0513785Y0044979D01*
X0513747Y0044950D01*
X0513707Y0044923D01*
X0513665Y0044900D01*
X0513622Y0044880D01*
X0513577Y0044863D01*
X0513531Y0044850D01*
X0513484Y0044841D01*
X0513436Y0044835D01*
X0513388Y0044833D01*
X0515095Y0044833D02*
X0515095Y0047033D01*
X0515706Y0047033D01*
X0515754Y0047031D01*
X0515802Y0047025D01*
X0515849Y0047016D01*
X0515895Y0047003D01*
X0515940Y0046986D01*
X0515983Y0046966D01*
X0516025Y0046943D01*
X0516065Y0046916D01*
X0516103Y0046887D01*
X0516138Y0046854D01*
X0516171Y0046819D01*
X0516200Y0046781D01*
X0516227Y0046741D01*
X0516250Y0046699D01*
X0516270Y0046656D01*
X0516287Y0046611D01*
X0516300Y0046565D01*
X0516309Y0046518D01*
X0516315Y0046470D01*
X0516317Y0046422D01*
X0516315Y0046374D01*
X0516309Y0046326D01*
X0516300Y0046279D01*
X0516287Y0046233D01*
X0516270Y0046188D01*
X0516250Y0046145D01*
X0516227Y0046103D01*
X0516200Y0046063D01*
X0516171Y0046025D01*
X0516138Y0045990D01*
X0516103Y0045957D01*
X0516065Y0045928D01*
X0516025Y0045901D01*
X0515983Y0045878D01*
X0515940Y0045858D01*
X0515895Y0045841D01*
X0515849Y0045828D01*
X0515802Y0045819D01*
X0515754Y0045813D01*
X0515706Y0045811D01*
X0515095Y0045811D01*
X0515829Y0045811D02*
X0516318Y0044833D01*
X0517313Y0044833D02*
X0517924Y0044833D01*
X0517313Y0044833D02*
X0517313Y0047033D01*
X0517924Y0047033D01*
X0517972Y0047031D01*
X0518020Y0047025D01*
X0518067Y0047016D01*
X0518113Y0047003D01*
X0518158Y0046986D01*
X0518201Y0046966D01*
X0518243Y0046943D01*
X0518283Y0046916D01*
X0518321Y0046887D01*
X0518356Y0046854D01*
X0518389Y0046819D01*
X0518418Y0046781D01*
X0518445Y0046741D01*
X0518468Y0046699D01*
X0518488Y0046656D01*
X0518505Y0046611D01*
X0518518Y0046565D01*
X0518527Y0046518D01*
X0518533Y0046470D01*
X0518535Y0046422D01*
X0518535Y0045444D01*
X0518533Y0045396D01*
X0518527Y0045348D01*
X0518518Y0045301D01*
X0518505Y0045255D01*
X0518488Y0045210D01*
X0518468Y0045167D01*
X0518445Y0045125D01*
X0518418Y0045085D01*
X0518389Y0045047D01*
X0518356Y0045012D01*
X0518321Y0044979D01*
X0518283Y0044950D01*
X0518243Y0044923D01*
X0518201Y0044900D01*
X0518158Y0044880D01*
X0518113Y0044863D01*
X0518067Y0044850D01*
X0518020Y0044841D01*
X0517972Y0044835D01*
X0517924Y0044833D01*
X0520156Y0044833D02*
X0520156Y0045994D01*
X0520890Y0047033D01*
X0520156Y0045994D02*
X0519423Y0047033D01*
X0505833Y0047033D02*
X0505344Y0047033D01*
X0505301Y0047031D01*
X0505259Y0047026D01*
X0505217Y0047016D01*
X0505177Y0047004D01*
X0505137Y0046987D01*
X0505099Y0046967D01*
X0505064Y0046945D01*
X0505030Y0046919D01*
X0504998Y0046890D01*
X0504969Y0046858D01*
X0504943Y0046824D01*
X0504921Y0046788D01*
X0504901Y0046751D01*
X0504884Y0046711D01*
X0504872Y0046671D01*
X0504862Y0046629D01*
X0504857Y0046587D01*
X0504855Y0046544D01*
X0548746Y0047033D02*
X0549480Y0044833D01*
X0550213Y0047033D01*
X0550930Y0047033D02*
X0551053Y0047033D01*
X0551053Y0046911D01*
X0550930Y0046911D01*
X0550930Y0047033D01*
X0550992Y0046300D02*
X0550992Y0044833D01*
X0551943Y0044833D02*
X0551943Y0046300D01*
X0552554Y0046300D01*
X0552590Y0046298D01*
X0552626Y0046293D01*
X0552661Y0046284D01*
X0552694Y0046272D01*
X0552727Y0046257D01*
X0552758Y0046238D01*
X0552787Y0046217D01*
X0552814Y0046193D01*
X0552838Y0046166D01*
X0552859Y0046137D01*
X0552878Y0046106D01*
X0552893Y0046073D01*
X0552905Y0046040D01*
X0552914Y0046005D01*
X0552919Y0045969D01*
X0552921Y0045933D01*
X0552920Y0045933D02*
X0552920Y0044833D01*
X0558418Y0045322D02*
X0558418Y0046544D01*
X0558420Y0046587D01*
X0558425Y0046629D01*
X0558435Y0046671D01*
X0558447Y0046711D01*
X0558464Y0046751D01*
X0558484Y0046788D01*
X0558506Y0046824D01*
X0558532Y0046858D01*
X0558561Y0046890D01*
X0558593Y0046919D01*
X0558627Y0046945D01*
X0558662Y0046967D01*
X0558700Y0046987D01*
X0558740Y0047004D01*
X0558780Y0047016D01*
X0558822Y0047026D01*
X0558864Y0047031D01*
X0558907Y0047033D01*
X0559640Y0047033D01*
X0559640Y0046055D02*
X0559640Y0044833D01*
X0558907Y0044833D01*
X0558864Y0044835D01*
X0558822Y0044840D01*
X0558780Y0044850D01*
X0558740Y0044862D01*
X0558700Y0044879D01*
X0558663Y0044899D01*
X0558627Y0044921D01*
X0558593Y0044947D01*
X0558561Y0044976D01*
X0558532Y0045008D01*
X0558506Y0045042D01*
X0558484Y0045078D01*
X0558464Y0045115D01*
X0558447Y0045155D01*
X0558435Y0045195D01*
X0558425Y0045237D01*
X0558420Y0045279D01*
X0558418Y0045322D01*
X0559274Y0046055D02*
X0559640Y0046055D01*
X0560722Y0047033D02*
X0561944Y0044833D01*
X0561944Y0047033D01*
X0563026Y0047033D02*
X0563637Y0047033D01*
X0563026Y0047033D02*
X0563026Y0044833D01*
X0563637Y0044833D01*
X0563685Y0044835D01*
X0563733Y0044841D01*
X0563780Y0044850D01*
X0563826Y0044863D01*
X0563871Y0044880D01*
X0563914Y0044900D01*
X0563956Y0044923D01*
X0563996Y0044950D01*
X0564034Y0044979D01*
X0564069Y0045012D01*
X0564102Y0045047D01*
X0564131Y0045085D01*
X0564158Y0045125D01*
X0564181Y0045167D01*
X0564201Y0045210D01*
X0564218Y0045255D01*
X0564231Y0045301D01*
X0564240Y0045348D01*
X0564246Y0045396D01*
X0564248Y0045444D01*
X0564248Y0046422D01*
X0564246Y0046470D01*
X0564240Y0046518D01*
X0564231Y0046565D01*
X0564218Y0046611D01*
X0564201Y0046656D01*
X0564181Y0046699D01*
X0564158Y0046741D01*
X0564131Y0046781D01*
X0564102Y0046819D01*
X0564069Y0046854D01*
X0564034Y0046887D01*
X0563996Y0046916D01*
X0563956Y0046943D01*
X0563914Y0046966D01*
X0563871Y0046986D01*
X0563826Y0047003D01*
X0563780Y0047016D01*
X0563733Y0047025D01*
X0563685Y0047031D01*
X0563637Y0047033D01*
X0560722Y0047033D02*
X0560722Y0044833D01*
X0568695Y0045333D02*
X0569306Y0045333D01*
X0569354Y0045335D01*
X0569402Y0045341D01*
X0569449Y0045350D01*
X0569495Y0045363D01*
X0569540Y0045380D01*
X0569583Y0045400D01*
X0569625Y0045423D01*
X0569665Y0045450D01*
X0569703Y0045479D01*
X0569738Y0045512D01*
X0569771Y0045547D01*
X0569800Y0045585D01*
X0569827Y0045625D01*
X0569850Y0045667D01*
X0569870Y0045710D01*
X0569887Y0045755D01*
X0569900Y0045801D01*
X0569909Y0045848D01*
X0569915Y0045896D01*
X0569917Y0045944D01*
X0569915Y0045992D01*
X0569909Y0046040D01*
X0569900Y0046087D01*
X0569887Y0046133D01*
X0569870Y0046178D01*
X0569850Y0046221D01*
X0569827Y0046263D01*
X0569800Y0046303D01*
X0569771Y0046341D01*
X0569738Y0046376D01*
X0569703Y0046409D01*
X0569665Y0046438D01*
X0569625Y0046465D01*
X0569583Y0046488D01*
X0569540Y0046508D01*
X0569495Y0046525D01*
X0569449Y0046538D01*
X0569402Y0046547D01*
X0569354Y0046553D01*
X0569306Y0046555D01*
X0569429Y0046555D02*
X0568940Y0046555D01*
X0569429Y0046555D02*
X0569472Y0046557D01*
X0569514Y0046562D01*
X0569556Y0046572D01*
X0569596Y0046584D01*
X0569636Y0046601D01*
X0569674Y0046621D01*
X0569709Y0046643D01*
X0569743Y0046669D01*
X0569775Y0046698D01*
X0569804Y0046730D01*
X0569830Y0046764D01*
X0569852Y0046800D01*
X0569872Y0046837D01*
X0569889Y0046877D01*
X0569901Y0046917D01*
X0569911Y0046959D01*
X0569916Y0047001D01*
X0569918Y0047044D01*
X0569916Y0047087D01*
X0569911Y0047129D01*
X0569901Y0047171D01*
X0569889Y0047211D01*
X0569872Y0047251D01*
X0569852Y0047289D01*
X0569830Y0047324D01*
X0569804Y0047358D01*
X0569775Y0047390D01*
X0569743Y0047419D01*
X0569709Y0047445D01*
X0569674Y0047467D01*
X0569636Y0047487D01*
X0569596Y0047504D01*
X0569556Y0047516D01*
X0569514Y0047526D01*
X0569472Y0047531D01*
X0569429Y0047533D01*
X0568695Y0047533D01*
X0570733Y0047533D02*
X0571466Y0045333D01*
X0572200Y0047533D01*
X0572994Y0046311D02*
X0572994Y0045822D01*
X0572993Y0045822D02*
X0572995Y0045779D01*
X0573000Y0045737D01*
X0573010Y0045695D01*
X0573022Y0045655D01*
X0573039Y0045615D01*
X0573059Y0045578D01*
X0573081Y0045542D01*
X0573107Y0045508D01*
X0573136Y0045476D01*
X0573168Y0045447D01*
X0573202Y0045421D01*
X0573238Y0045399D01*
X0573275Y0045379D01*
X0573315Y0045362D01*
X0573355Y0045350D01*
X0573397Y0045340D01*
X0573439Y0045335D01*
X0573482Y0045333D01*
X0573525Y0045335D01*
X0573567Y0045340D01*
X0573609Y0045350D01*
X0573649Y0045362D01*
X0573689Y0045379D01*
X0573727Y0045399D01*
X0573762Y0045421D01*
X0573796Y0045447D01*
X0573828Y0045476D01*
X0573857Y0045508D01*
X0573883Y0045542D01*
X0573905Y0045578D01*
X0573925Y0045615D01*
X0573942Y0045655D01*
X0573954Y0045695D01*
X0573964Y0045737D01*
X0573969Y0045779D01*
X0573971Y0045822D01*
X0573971Y0046311D01*
X0573969Y0046354D01*
X0573964Y0046396D01*
X0573954Y0046438D01*
X0573942Y0046478D01*
X0573925Y0046518D01*
X0573905Y0046556D01*
X0573883Y0046591D01*
X0573857Y0046625D01*
X0573828Y0046657D01*
X0573796Y0046686D01*
X0573762Y0046712D01*
X0573727Y0046734D01*
X0573689Y0046754D01*
X0573649Y0046771D01*
X0573609Y0046783D01*
X0573567Y0046793D01*
X0573525Y0046798D01*
X0573482Y0046800D01*
X0573439Y0046798D01*
X0573397Y0046793D01*
X0573355Y0046783D01*
X0573315Y0046771D01*
X0573275Y0046754D01*
X0573238Y0046734D01*
X0573202Y0046712D01*
X0573168Y0046686D01*
X0573136Y0046657D01*
X0573107Y0046625D01*
X0573081Y0046591D01*
X0573059Y0046556D01*
X0573039Y0046518D01*
X0573022Y0046478D01*
X0573010Y0046438D01*
X0573000Y0046396D01*
X0572995Y0046354D01*
X0572993Y0046311D01*
X0579031Y0046616D02*
X0579704Y0046250D01*
X0579459Y0045333D02*
X0579396Y0045335D01*
X0579334Y0045341D01*
X0579272Y0045350D01*
X0579211Y0045363D01*
X0579150Y0045380D01*
X0579091Y0045401D01*
X0579033Y0045425D01*
X0578977Y0045453D01*
X0578922Y0045484D01*
X0578869Y0045518D01*
X0578819Y0045555D01*
X0578771Y0045595D01*
X0578726Y0045639D01*
X0579704Y0046250D02*
X0579740Y0046227D01*
X0579774Y0046200D01*
X0579806Y0046171D01*
X0579835Y0046139D01*
X0579861Y0046105D01*
X0579884Y0046069D01*
X0579903Y0046030D01*
X0579920Y0045991D01*
X0579932Y0045950D01*
X0579942Y0045908D01*
X0579947Y0045865D01*
X0579949Y0045822D01*
X0579948Y0045822D02*
X0579946Y0045779D01*
X0579941Y0045737D01*
X0579931Y0045695D01*
X0579919Y0045655D01*
X0579902Y0045615D01*
X0579882Y0045578D01*
X0579860Y0045542D01*
X0579834Y0045508D01*
X0579805Y0045476D01*
X0579773Y0045447D01*
X0579739Y0045421D01*
X0579704Y0045399D01*
X0579666Y0045379D01*
X0579626Y0045362D01*
X0579586Y0045350D01*
X0579544Y0045340D01*
X0579502Y0045335D01*
X0579459Y0045333D01*
X0579826Y0047350D02*
X0579778Y0047383D01*
X0579727Y0047414D01*
X0579675Y0047442D01*
X0579621Y0047465D01*
X0579566Y0047486D01*
X0579509Y0047503D01*
X0579452Y0047516D01*
X0579394Y0047525D01*
X0579335Y0047531D01*
X0579276Y0047533D01*
X0579233Y0047531D01*
X0579191Y0047526D01*
X0579149Y0047516D01*
X0579109Y0047504D01*
X0579069Y0047487D01*
X0579032Y0047467D01*
X0578996Y0047445D01*
X0578962Y0047419D01*
X0578930Y0047390D01*
X0578901Y0047358D01*
X0578875Y0047324D01*
X0578853Y0047289D01*
X0578833Y0047251D01*
X0578816Y0047211D01*
X0578804Y0047171D01*
X0578794Y0047129D01*
X0578789Y0047087D01*
X0578787Y0047044D01*
X0578789Y0047001D01*
X0578794Y0046958D01*
X0578804Y0046916D01*
X0578816Y0046875D01*
X0578833Y0046836D01*
X0578852Y0046797D01*
X0578875Y0046761D01*
X0578901Y0046727D01*
X0578930Y0046695D01*
X0578962Y0046666D01*
X0578996Y0046639D01*
X0579032Y0046616D01*
X0580807Y0047044D02*
X0580807Y0045822D01*
X0580809Y0045779D01*
X0580814Y0045737D01*
X0580824Y0045695D01*
X0580836Y0045655D01*
X0580853Y0045615D01*
X0580873Y0045578D01*
X0580895Y0045542D01*
X0580921Y0045508D01*
X0580950Y0045476D01*
X0580982Y0045447D01*
X0581016Y0045421D01*
X0581052Y0045399D01*
X0581089Y0045379D01*
X0581129Y0045362D01*
X0581169Y0045350D01*
X0581211Y0045340D01*
X0581253Y0045335D01*
X0581296Y0045333D01*
X0581785Y0045333D01*
X0582719Y0045333D02*
X0582719Y0047533D01*
X0581785Y0047533D02*
X0581296Y0047533D01*
X0581253Y0047531D01*
X0581211Y0047526D01*
X0581169Y0047516D01*
X0581129Y0047504D01*
X0581089Y0047487D01*
X0581051Y0047467D01*
X0581016Y0047445D01*
X0580982Y0047419D01*
X0580950Y0047390D01*
X0580921Y0047358D01*
X0580895Y0047324D01*
X0580873Y0047288D01*
X0580853Y0047251D01*
X0580836Y0047211D01*
X0580824Y0047171D01*
X0580814Y0047129D01*
X0580809Y0047087D01*
X0580807Y0047044D01*
X0582719Y0046189D02*
X0583941Y0047533D01*
X0583207Y0046678D02*
X0583941Y0045333D01*
X0589106Y0044833D02*
X0589717Y0044833D01*
X0589106Y0044833D02*
X0589106Y0047033D01*
X0589717Y0047033D01*
X0589765Y0047031D01*
X0589813Y0047025D01*
X0589860Y0047016D01*
X0589906Y0047003D01*
X0589951Y0046986D01*
X0589994Y0046966D01*
X0590036Y0046943D01*
X0590076Y0046916D01*
X0590114Y0046887D01*
X0590149Y0046854D01*
X0590182Y0046819D01*
X0590211Y0046781D01*
X0590238Y0046741D01*
X0590261Y0046699D01*
X0590281Y0046656D01*
X0590298Y0046611D01*
X0590311Y0046565D01*
X0590320Y0046518D01*
X0590326Y0046470D01*
X0590328Y0046422D01*
X0590328Y0045444D01*
X0590326Y0045396D01*
X0590320Y0045348D01*
X0590311Y0045301D01*
X0590298Y0045255D01*
X0590281Y0045210D01*
X0590261Y0045167D01*
X0590238Y0045125D01*
X0590211Y0045085D01*
X0590182Y0045047D01*
X0590149Y0045012D01*
X0590114Y0044979D01*
X0590076Y0044950D01*
X0590036Y0044923D01*
X0589994Y0044900D01*
X0589951Y0044880D01*
X0589906Y0044863D01*
X0589860Y0044850D01*
X0589813Y0044841D01*
X0589765Y0044835D01*
X0589717Y0044833D01*
X0591338Y0045444D02*
X0591338Y0046422D01*
X0591340Y0046470D01*
X0591346Y0046518D01*
X0591355Y0046565D01*
X0591368Y0046611D01*
X0591385Y0046656D01*
X0591405Y0046699D01*
X0591428Y0046741D01*
X0591455Y0046781D01*
X0591484Y0046819D01*
X0591517Y0046854D01*
X0591552Y0046887D01*
X0591590Y0046916D01*
X0591630Y0046943D01*
X0591672Y0046966D01*
X0591715Y0046986D01*
X0591760Y0047003D01*
X0591806Y0047016D01*
X0591853Y0047025D01*
X0591901Y0047031D01*
X0591949Y0047033D01*
X0591997Y0047031D01*
X0592045Y0047025D01*
X0592092Y0047016D01*
X0592138Y0047003D01*
X0592183Y0046986D01*
X0592226Y0046966D01*
X0592268Y0046943D01*
X0592308Y0046916D01*
X0592346Y0046887D01*
X0592381Y0046854D01*
X0592414Y0046819D01*
X0592443Y0046781D01*
X0592470Y0046741D01*
X0592493Y0046699D01*
X0592513Y0046656D01*
X0592530Y0046611D01*
X0592543Y0046565D01*
X0592552Y0046518D01*
X0592558Y0046470D01*
X0592560Y0046422D01*
X0592560Y0045444D01*
X0592558Y0045396D01*
X0592552Y0045348D01*
X0592543Y0045301D01*
X0592530Y0045255D01*
X0592513Y0045210D01*
X0592493Y0045167D01*
X0592470Y0045125D01*
X0592443Y0045085D01*
X0592414Y0045047D01*
X0592381Y0045012D01*
X0592346Y0044979D01*
X0592308Y0044950D01*
X0592268Y0044923D01*
X0592226Y0044900D01*
X0592183Y0044880D01*
X0592138Y0044863D01*
X0592092Y0044850D01*
X0592045Y0044841D01*
X0591997Y0044835D01*
X0591949Y0044833D01*
X0591901Y0044835D01*
X0591853Y0044841D01*
X0591806Y0044850D01*
X0591760Y0044863D01*
X0591715Y0044880D01*
X0591672Y0044900D01*
X0591630Y0044923D01*
X0591590Y0044950D01*
X0591552Y0044979D01*
X0591517Y0045012D01*
X0591484Y0045047D01*
X0591455Y0045085D01*
X0591428Y0045125D01*
X0591405Y0045167D01*
X0591385Y0045210D01*
X0591368Y0045255D01*
X0591355Y0045301D01*
X0591346Y0045348D01*
X0591340Y0045396D01*
X0591338Y0045444D01*
X0600006Y0044833D02*
X0600617Y0044833D01*
X0600665Y0044835D01*
X0600713Y0044841D01*
X0600760Y0044850D01*
X0600806Y0044863D01*
X0600851Y0044880D01*
X0600894Y0044900D01*
X0600936Y0044923D01*
X0600976Y0044950D01*
X0601014Y0044979D01*
X0601049Y0045012D01*
X0601082Y0045047D01*
X0601111Y0045085D01*
X0601138Y0045125D01*
X0601161Y0045167D01*
X0601181Y0045210D01*
X0601198Y0045255D01*
X0601211Y0045301D01*
X0601220Y0045348D01*
X0601226Y0045396D01*
X0601228Y0045444D01*
X0601228Y0046422D01*
X0601226Y0046470D01*
X0601220Y0046518D01*
X0601211Y0046565D01*
X0601198Y0046611D01*
X0601181Y0046656D01*
X0601161Y0046699D01*
X0601138Y0046741D01*
X0601111Y0046781D01*
X0601082Y0046819D01*
X0601049Y0046854D01*
X0601014Y0046887D01*
X0600976Y0046916D01*
X0600936Y0046943D01*
X0600894Y0046966D01*
X0600851Y0046986D01*
X0600806Y0047003D01*
X0600760Y0047016D01*
X0600713Y0047025D01*
X0600665Y0047031D01*
X0600617Y0047033D01*
X0600006Y0047033D01*
X0600006Y0044833D01*
X0602172Y0044833D02*
X0602661Y0044833D01*
X0602417Y0044833D02*
X0602417Y0047033D01*
X0602661Y0047033D02*
X0602172Y0047033D01*
X0609855Y0046544D02*
X0609855Y0045322D01*
X0609857Y0045279D01*
X0609862Y0045237D01*
X0609872Y0045195D01*
X0609884Y0045155D01*
X0609901Y0045115D01*
X0609921Y0045078D01*
X0609943Y0045042D01*
X0609969Y0045008D01*
X0609998Y0044976D01*
X0610030Y0044947D01*
X0610064Y0044921D01*
X0610100Y0044899D01*
X0610137Y0044879D01*
X0610177Y0044862D01*
X0610217Y0044850D01*
X0610259Y0044840D01*
X0610301Y0044835D01*
X0610344Y0044833D01*
X0610833Y0044833D01*
X0612567Y0045750D02*
X0612603Y0045727D01*
X0612637Y0045700D01*
X0612669Y0045671D01*
X0612698Y0045639D01*
X0612724Y0045605D01*
X0612747Y0045569D01*
X0612766Y0045530D01*
X0612783Y0045491D01*
X0612795Y0045450D01*
X0612805Y0045408D01*
X0612810Y0045365D01*
X0612812Y0045322D01*
X0612810Y0045279D01*
X0612805Y0045237D01*
X0612795Y0045195D01*
X0612783Y0045155D01*
X0612766Y0045115D01*
X0612746Y0045078D01*
X0612724Y0045042D01*
X0612698Y0045008D01*
X0612669Y0044976D01*
X0612637Y0044947D01*
X0612603Y0044921D01*
X0612568Y0044899D01*
X0612530Y0044879D01*
X0612490Y0044862D01*
X0612450Y0044850D01*
X0612408Y0044840D01*
X0612366Y0044835D01*
X0612323Y0044833D01*
X0612567Y0045750D02*
X0611895Y0046116D01*
X0612139Y0047033D02*
X0612198Y0047031D01*
X0612257Y0047025D01*
X0612315Y0047016D01*
X0612372Y0047003D01*
X0612429Y0046986D01*
X0612484Y0046965D01*
X0612538Y0046942D01*
X0612590Y0046914D01*
X0612641Y0046883D01*
X0612689Y0046850D01*
X0611895Y0046116D02*
X0611859Y0046139D01*
X0611825Y0046166D01*
X0611793Y0046195D01*
X0611764Y0046227D01*
X0611738Y0046261D01*
X0611715Y0046297D01*
X0611696Y0046336D01*
X0611679Y0046375D01*
X0611667Y0046416D01*
X0611657Y0046458D01*
X0611652Y0046501D01*
X0611650Y0046544D01*
X0611652Y0046587D01*
X0611657Y0046629D01*
X0611667Y0046671D01*
X0611679Y0046711D01*
X0611696Y0046751D01*
X0611716Y0046789D01*
X0611738Y0046824D01*
X0611764Y0046858D01*
X0611793Y0046890D01*
X0611825Y0046919D01*
X0611859Y0046945D01*
X0611895Y0046967D01*
X0611932Y0046987D01*
X0611972Y0047004D01*
X0612012Y0047016D01*
X0612054Y0047026D01*
X0612096Y0047031D01*
X0612139Y0047033D01*
X0611590Y0045139D02*
X0611635Y0045095D01*
X0611683Y0045055D01*
X0611733Y0045018D01*
X0611786Y0044984D01*
X0611841Y0044953D01*
X0611897Y0044925D01*
X0611955Y0044901D01*
X0612014Y0044880D01*
X0612075Y0044863D01*
X0612136Y0044850D01*
X0612198Y0044841D01*
X0612260Y0044835D01*
X0612323Y0044833D01*
X0617777Y0044833D02*
X0618388Y0044833D01*
X0617777Y0044833D02*
X0617777Y0047033D01*
X0618388Y0047033D01*
X0618436Y0047031D01*
X0618484Y0047025D01*
X0618531Y0047016D01*
X0618577Y0047003D01*
X0618622Y0046986D01*
X0618665Y0046966D01*
X0618707Y0046943D01*
X0618747Y0046916D01*
X0618785Y0046887D01*
X0618820Y0046854D01*
X0618853Y0046819D01*
X0618882Y0046781D01*
X0618909Y0046741D01*
X0618932Y0046699D01*
X0618952Y0046656D01*
X0618969Y0046611D01*
X0618982Y0046565D01*
X0618991Y0046518D01*
X0618997Y0046470D01*
X0618999Y0046422D01*
X0618999Y0045444D01*
X0618997Y0045396D01*
X0618991Y0045348D01*
X0618982Y0045301D01*
X0618969Y0045255D01*
X0618952Y0045210D01*
X0618932Y0045167D01*
X0618909Y0045125D01*
X0618882Y0045085D01*
X0618853Y0045047D01*
X0618820Y0045012D01*
X0618785Y0044979D01*
X0618747Y0044950D01*
X0618707Y0044923D01*
X0618665Y0044900D01*
X0618622Y0044880D01*
X0618577Y0044863D01*
X0618531Y0044850D01*
X0618484Y0044841D01*
X0618436Y0044835D01*
X0618388Y0044833D01*
X0620095Y0044833D02*
X0620095Y0047033D01*
X0620706Y0047033D01*
X0620754Y0047031D01*
X0620802Y0047025D01*
X0620849Y0047016D01*
X0620895Y0047003D01*
X0620940Y0046986D01*
X0620983Y0046966D01*
X0621025Y0046943D01*
X0621065Y0046916D01*
X0621103Y0046887D01*
X0621138Y0046854D01*
X0621171Y0046819D01*
X0621200Y0046781D01*
X0621227Y0046741D01*
X0621250Y0046699D01*
X0621270Y0046656D01*
X0621287Y0046611D01*
X0621300Y0046565D01*
X0621309Y0046518D01*
X0621315Y0046470D01*
X0621317Y0046422D01*
X0621315Y0046374D01*
X0621309Y0046326D01*
X0621300Y0046279D01*
X0621287Y0046233D01*
X0621270Y0046188D01*
X0621250Y0046145D01*
X0621227Y0046103D01*
X0621200Y0046063D01*
X0621171Y0046025D01*
X0621138Y0045990D01*
X0621103Y0045957D01*
X0621065Y0045928D01*
X0621025Y0045901D01*
X0620983Y0045878D01*
X0620940Y0045858D01*
X0620895Y0045841D01*
X0620849Y0045828D01*
X0620802Y0045819D01*
X0620754Y0045813D01*
X0620706Y0045811D01*
X0620095Y0045811D01*
X0620829Y0045811D02*
X0621318Y0044833D01*
X0622313Y0044833D02*
X0622924Y0044833D01*
X0622313Y0044833D02*
X0622313Y0047033D01*
X0622924Y0047033D01*
X0622972Y0047031D01*
X0623020Y0047025D01*
X0623067Y0047016D01*
X0623113Y0047003D01*
X0623158Y0046986D01*
X0623201Y0046966D01*
X0623243Y0046943D01*
X0623283Y0046916D01*
X0623321Y0046887D01*
X0623356Y0046854D01*
X0623389Y0046819D01*
X0623418Y0046781D01*
X0623445Y0046741D01*
X0623468Y0046699D01*
X0623488Y0046656D01*
X0623505Y0046611D01*
X0623518Y0046565D01*
X0623527Y0046518D01*
X0623533Y0046470D01*
X0623535Y0046422D01*
X0623535Y0045444D01*
X0623533Y0045396D01*
X0623527Y0045348D01*
X0623518Y0045301D01*
X0623505Y0045255D01*
X0623488Y0045210D01*
X0623468Y0045167D01*
X0623445Y0045125D01*
X0623418Y0045085D01*
X0623389Y0045047D01*
X0623356Y0045012D01*
X0623321Y0044979D01*
X0623283Y0044950D01*
X0623243Y0044923D01*
X0623201Y0044900D01*
X0623158Y0044880D01*
X0623113Y0044863D01*
X0623067Y0044850D01*
X0623020Y0044841D01*
X0622972Y0044835D01*
X0622924Y0044833D01*
X0625156Y0044833D02*
X0625156Y0045994D01*
X0625890Y0047033D01*
X0625156Y0045994D02*
X0624423Y0047033D01*
X0610833Y0047033D02*
X0610344Y0047033D01*
X0610301Y0047031D01*
X0610259Y0047026D01*
X0610217Y0047016D01*
X0610177Y0047004D01*
X0610137Y0046987D01*
X0610099Y0046967D01*
X0610064Y0046945D01*
X0610030Y0046919D01*
X0609998Y0046890D01*
X0609969Y0046858D01*
X0609943Y0046824D01*
X0609921Y0046788D01*
X0609901Y0046751D01*
X0609884Y0046711D01*
X0609872Y0046671D01*
X0609862Y0046629D01*
X0609857Y0046587D01*
X0609855Y0046544D01*
X0600014Y0027533D02*
X0598547Y0025333D01*
X0597264Y0025333D02*
X0597264Y0027533D01*
X0596653Y0027533D02*
X0597875Y0027533D01*
X0598547Y0027533D02*
X0600014Y0025333D01*
X0590078Y0025333D02*
X0588612Y0027533D01*
X0587199Y0027533D02*
X0586588Y0027533D01*
X0586588Y0025333D01*
X0586588Y0026311D02*
X0587199Y0026311D01*
X0587322Y0026311D02*
X0587810Y0025333D01*
X0588612Y0025333D02*
X0590078Y0027533D01*
X0587199Y0027533D02*
X0587247Y0027531D01*
X0587295Y0027525D01*
X0587342Y0027516D01*
X0587388Y0027503D01*
X0587433Y0027486D01*
X0587476Y0027466D01*
X0587518Y0027443D01*
X0587558Y0027416D01*
X0587596Y0027387D01*
X0587631Y0027354D01*
X0587664Y0027319D01*
X0587693Y0027281D01*
X0587720Y0027241D01*
X0587743Y0027199D01*
X0587763Y0027156D01*
X0587780Y0027111D01*
X0587793Y0027065D01*
X0587802Y0027018D01*
X0587808Y0026970D01*
X0587810Y0026922D01*
X0587808Y0026874D01*
X0587802Y0026826D01*
X0587793Y0026779D01*
X0587780Y0026733D01*
X0587763Y0026688D01*
X0587743Y0026645D01*
X0587720Y0026603D01*
X0587693Y0026563D01*
X0587664Y0026525D01*
X0587631Y0026490D01*
X0587596Y0026457D01*
X0587558Y0026428D01*
X0587518Y0026401D01*
X0587476Y0026378D01*
X0587433Y0026358D01*
X0587388Y0026341D01*
X0587342Y0026328D01*
X0587295Y0026319D01*
X0587247Y0026313D01*
X0587199Y0026311D01*
X0581850Y0025944D02*
X0581850Y0026922D01*
X0581849Y0026922D02*
X0581847Y0026970D01*
X0581841Y0027018D01*
X0581832Y0027065D01*
X0581819Y0027111D01*
X0581802Y0027156D01*
X0581782Y0027199D01*
X0581759Y0027241D01*
X0581732Y0027281D01*
X0581703Y0027319D01*
X0581670Y0027354D01*
X0581635Y0027387D01*
X0581597Y0027416D01*
X0581557Y0027443D01*
X0581515Y0027466D01*
X0581472Y0027486D01*
X0581427Y0027503D01*
X0581381Y0027516D01*
X0581334Y0027525D01*
X0581286Y0027531D01*
X0581238Y0027533D01*
X0581190Y0027531D01*
X0581142Y0027525D01*
X0581095Y0027516D01*
X0581049Y0027503D01*
X0581004Y0027486D01*
X0580961Y0027466D01*
X0580919Y0027443D01*
X0580879Y0027416D01*
X0580841Y0027387D01*
X0580806Y0027354D01*
X0580773Y0027319D01*
X0580744Y0027281D01*
X0580717Y0027241D01*
X0580694Y0027199D01*
X0580674Y0027156D01*
X0580657Y0027111D01*
X0580644Y0027065D01*
X0580635Y0027018D01*
X0580629Y0026970D01*
X0580627Y0026922D01*
X0580627Y0025944D01*
X0580629Y0025896D01*
X0580635Y0025848D01*
X0580644Y0025801D01*
X0580657Y0025755D01*
X0580674Y0025710D01*
X0580694Y0025667D01*
X0580717Y0025625D01*
X0580744Y0025585D01*
X0580773Y0025547D01*
X0580806Y0025512D01*
X0580841Y0025479D01*
X0580879Y0025450D01*
X0580919Y0025423D01*
X0580961Y0025400D01*
X0581004Y0025380D01*
X0581049Y0025363D01*
X0581095Y0025350D01*
X0581142Y0025341D01*
X0581190Y0025335D01*
X0581238Y0025333D01*
X0581286Y0025335D01*
X0581334Y0025341D01*
X0581381Y0025350D01*
X0581427Y0025363D01*
X0581472Y0025380D01*
X0581515Y0025400D01*
X0581557Y0025423D01*
X0581597Y0025450D01*
X0581635Y0025479D01*
X0581670Y0025512D01*
X0581703Y0025547D01*
X0581732Y0025585D01*
X0581759Y0025625D01*
X0581782Y0025667D01*
X0581802Y0025710D01*
X0581819Y0025755D01*
X0581832Y0025801D01*
X0581841Y0025848D01*
X0581847Y0025896D01*
X0581849Y0025944D01*
X0579517Y0026250D02*
X0578845Y0026616D01*
X0579089Y0027533D02*
X0579148Y0027531D01*
X0579207Y0027525D01*
X0579265Y0027516D01*
X0579322Y0027503D01*
X0579379Y0027486D01*
X0579434Y0027465D01*
X0579488Y0027442D01*
X0579540Y0027414D01*
X0579591Y0027383D01*
X0579639Y0027350D01*
X0578845Y0026616D02*
X0578809Y0026639D01*
X0578775Y0026666D01*
X0578743Y0026695D01*
X0578714Y0026727D01*
X0578688Y0026761D01*
X0578665Y0026797D01*
X0578646Y0026836D01*
X0578629Y0026875D01*
X0578617Y0026916D01*
X0578607Y0026958D01*
X0578602Y0027001D01*
X0578600Y0027044D01*
X0578602Y0027087D01*
X0578607Y0027129D01*
X0578617Y0027171D01*
X0578629Y0027211D01*
X0578646Y0027251D01*
X0578666Y0027289D01*
X0578688Y0027324D01*
X0578714Y0027358D01*
X0578743Y0027390D01*
X0578775Y0027419D01*
X0578809Y0027445D01*
X0578845Y0027467D01*
X0578882Y0027487D01*
X0578922Y0027504D01*
X0578962Y0027516D01*
X0579004Y0027526D01*
X0579046Y0027531D01*
X0579089Y0027533D01*
X0578540Y0025639D02*
X0578585Y0025595D01*
X0578633Y0025555D01*
X0578683Y0025518D01*
X0578736Y0025484D01*
X0578791Y0025453D01*
X0578847Y0025425D01*
X0578905Y0025401D01*
X0578964Y0025380D01*
X0579025Y0025363D01*
X0579086Y0025350D01*
X0579148Y0025341D01*
X0579210Y0025335D01*
X0579273Y0025333D01*
X0579316Y0025335D01*
X0579358Y0025340D01*
X0579400Y0025350D01*
X0579440Y0025362D01*
X0579480Y0025379D01*
X0579518Y0025399D01*
X0579553Y0025421D01*
X0579587Y0025447D01*
X0579619Y0025476D01*
X0579648Y0025508D01*
X0579674Y0025542D01*
X0579696Y0025578D01*
X0579716Y0025615D01*
X0579733Y0025655D01*
X0579745Y0025695D01*
X0579755Y0025737D01*
X0579760Y0025779D01*
X0579762Y0025822D01*
X0579760Y0025865D01*
X0579755Y0025908D01*
X0579745Y0025950D01*
X0579733Y0025991D01*
X0579716Y0026030D01*
X0579697Y0026069D01*
X0579674Y0026105D01*
X0579648Y0026139D01*
X0579619Y0026171D01*
X0579587Y0026200D01*
X0579553Y0026227D01*
X0579517Y0026250D01*
X0577739Y0025333D02*
X0577250Y0025333D01*
X0577494Y0025333D02*
X0577494Y0027533D01*
X0577250Y0027533D02*
X0577739Y0027533D01*
X0576284Y0027533D02*
X0576284Y0025333D01*
X0575550Y0026311D02*
X0576284Y0027533D01*
X0575550Y0026311D02*
X0574817Y0027533D01*
X0574817Y0025333D01*
X0571882Y0025333D02*
X0571393Y0025333D01*
X0571638Y0025333D02*
X0571638Y0027533D01*
X0571882Y0027533D02*
X0571393Y0027533D01*
X0569676Y0026616D02*
X0569640Y0026639D01*
X0569606Y0026666D01*
X0569574Y0026695D01*
X0569545Y0026727D01*
X0569519Y0026761D01*
X0569496Y0026797D01*
X0569477Y0026836D01*
X0569460Y0026875D01*
X0569448Y0026916D01*
X0569438Y0026958D01*
X0569433Y0027001D01*
X0569431Y0027044D01*
X0569432Y0027044D02*
X0569434Y0027087D01*
X0569439Y0027129D01*
X0569449Y0027171D01*
X0569461Y0027211D01*
X0569478Y0027251D01*
X0569498Y0027289D01*
X0569520Y0027324D01*
X0569546Y0027358D01*
X0569575Y0027390D01*
X0569607Y0027419D01*
X0569641Y0027445D01*
X0569677Y0027467D01*
X0569714Y0027487D01*
X0569754Y0027504D01*
X0569794Y0027516D01*
X0569836Y0027526D01*
X0569878Y0027531D01*
X0569921Y0027533D01*
X0569980Y0027531D01*
X0570039Y0027525D01*
X0570097Y0027516D01*
X0570154Y0027503D01*
X0570211Y0027486D01*
X0570266Y0027465D01*
X0570320Y0027442D01*
X0570372Y0027414D01*
X0570423Y0027383D01*
X0570471Y0027350D01*
X0569371Y0025639D02*
X0569416Y0025595D01*
X0569464Y0025555D01*
X0569514Y0025518D01*
X0569567Y0025484D01*
X0569622Y0025453D01*
X0569678Y0025425D01*
X0569736Y0025401D01*
X0569795Y0025380D01*
X0569856Y0025363D01*
X0569917Y0025350D01*
X0569979Y0025341D01*
X0570041Y0025335D01*
X0570104Y0025333D01*
X0570147Y0025335D01*
X0570189Y0025340D01*
X0570231Y0025350D01*
X0570271Y0025362D01*
X0570311Y0025379D01*
X0570349Y0025399D01*
X0570384Y0025421D01*
X0570418Y0025447D01*
X0570450Y0025476D01*
X0570479Y0025508D01*
X0570505Y0025542D01*
X0570527Y0025578D01*
X0570547Y0025615D01*
X0570564Y0025655D01*
X0570576Y0025695D01*
X0570586Y0025737D01*
X0570591Y0025779D01*
X0570593Y0025822D01*
X0570348Y0026250D02*
X0569676Y0026616D01*
X0570348Y0026250D02*
X0570384Y0026227D01*
X0570418Y0026200D01*
X0570450Y0026171D01*
X0570479Y0026139D01*
X0570505Y0026105D01*
X0570528Y0026069D01*
X0570547Y0026030D01*
X0570564Y0025991D01*
X0570576Y0025950D01*
X0570586Y0025908D01*
X0570591Y0025865D01*
X0570593Y0025822D01*
X0568505Y0025944D02*
X0568505Y0026922D01*
X0568503Y0026970D01*
X0568497Y0027018D01*
X0568488Y0027065D01*
X0568475Y0027111D01*
X0568458Y0027156D01*
X0568438Y0027199D01*
X0568415Y0027241D01*
X0568388Y0027281D01*
X0568359Y0027319D01*
X0568326Y0027354D01*
X0568291Y0027387D01*
X0568253Y0027416D01*
X0568213Y0027443D01*
X0568171Y0027466D01*
X0568128Y0027486D01*
X0568083Y0027503D01*
X0568037Y0027516D01*
X0567990Y0027525D01*
X0567942Y0027531D01*
X0567894Y0027533D01*
X0567846Y0027531D01*
X0567798Y0027525D01*
X0567751Y0027516D01*
X0567705Y0027503D01*
X0567660Y0027486D01*
X0567617Y0027466D01*
X0567575Y0027443D01*
X0567535Y0027416D01*
X0567497Y0027387D01*
X0567462Y0027354D01*
X0567429Y0027319D01*
X0567400Y0027281D01*
X0567373Y0027241D01*
X0567350Y0027199D01*
X0567330Y0027156D01*
X0567313Y0027111D01*
X0567300Y0027065D01*
X0567291Y0027018D01*
X0567285Y0026970D01*
X0567283Y0026922D01*
X0567283Y0025944D01*
X0567285Y0025896D01*
X0567291Y0025848D01*
X0567300Y0025801D01*
X0567313Y0025755D01*
X0567330Y0025710D01*
X0567350Y0025667D01*
X0567373Y0025625D01*
X0567400Y0025585D01*
X0567429Y0025547D01*
X0567462Y0025512D01*
X0567497Y0025479D01*
X0567535Y0025450D01*
X0567575Y0025423D01*
X0567617Y0025400D01*
X0567660Y0025380D01*
X0567705Y0025363D01*
X0567751Y0025350D01*
X0567798Y0025341D01*
X0567846Y0025335D01*
X0567894Y0025333D01*
X0567942Y0025335D01*
X0567990Y0025341D01*
X0568037Y0025350D01*
X0568083Y0025363D01*
X0568128Y0025380D01*
X0568171Y0025400D01*
X0568213Y0025423D01*
X0568253Y0025450D01*
X0568291Y0025479D01*
X0568326Y0025512D01*
X0568359Y0025547D01*
X0568388Y0025585D01*
X0568415Y0025625D01*
X0568438Y0025667D01*
X0568458Y0025710D01*
X0568475Y0025755D01*
X0568488Y0025801D01*
X0568497Y0025848D01*
X0568503Y0025896D01*
X0568505Y0025944D01*
X0566251Y0025333D02*
X0566251Y0027533D01*
X0565518Y0026311D01*
X0564784Y0027533D01*
X0564784Y0025333D01*
X0560941Y0025333D02*
X0560207Y0026678D01*
X0559719Y0026189D02*
X0560941Y0027533D01*
X0559719Y0027533D02*
X0559719Y0025333D01*
X0558785Y0025333D02*
X0558296Y0025333D01*
X0558253Y0025335D01*
X0558211Y0025340D01*
X0558169Y0025350D01*
X0558129Y0025362D01*
X0558089Y0025379D01*
X0558052Y0025399D01*
X0558016Y0025421D01*
X0557982Y0025447D01*
X0557950Y0025476D01*
X0557921Y0025508D01*
X0557895Y0025542D01*
X0557873Y0025578D01*
X0557853Y0025615D01*
X0557836Y0025655D01*
X0557824Y0025695D01*
X0557814Y0025737D01*
X0557809Y0025779D01*
X0557807Y0025822D01*
X0557807Y0027044D01*
X0557809Y0027087D01*
X0557814Y0027129D01*
X0557824Y0027171D01*
X0557836Y0027211D01*
X0557853Y0027251D01*
X0557873Y0027288D01*
X0557895Y0027324D01*
X0557921Y0027358D01*
X0557950Y0027390D01*
X0557982Y0027419D01*
X0558016Y0027445D01*
X0558051Y0027467D01*
X0558089Y0027487D01*
X0558129Y0027504D01*
X0558169Y0027516D01*
X0558211Y0027526D01*
X0558253Y0027531D01*
X0558296Y0027533D01*
X0558785Y0027533D01*
X0556704Y0026250D02*
X0556031Y0026616D01*
X0556276Y0027533D02*
X0556335Y0027531D01*
X0556394Y0027525D01*
X0556452Y0027516D01*
X0556509Y0027503D01*
X0556566Y0027486D01*
X0556621Y0027465D01*
X0556675Y0027442D01*
X0556727Y0027414D01*
X0556778Y0027383D01*
X0556826Y0027350D01*
X0556032Y0026616D02*
X0555996Y0026639D01*
X0555962Y0026666D01*
X0555930Y0026695D01*
X0555901Y0026727D01*
X0555875Y0026761D01*
X0555852Y0026797D01*
X0555833Y0026836D01*
X0555816Y0026875D01*
X0555804Y0026916D01*
X0555794Y0026958D01*
X0555789Y0027001D01*
X0555787Y0027044D01*
X0555789Y0027087D01*
X0555794Y0027129D01*
X0555804Y0027171D01*
X0555816Y0027211D01*
X0555833Y0027251D01*
X0555853Y0027289D01*
X0555875Y0027324D01*
X0555901Y0027358D01*
X0555930Y0027390D01*
X0555962Y0027419D01*
X0555996Y0027445D01*
X0556032Y0027467D01*
X0556069Y0027487D01*
X0556109Y0027504D01*
X0556149Y0027516D01*
X0556191Y0027526D01*
X0556233Y0027531D01*
X0556276Y0027533D01*
X0555726Y0025639D02*
X0555771Y0025595D01*
X0555819Y0025555D01*
X0555869Y0025518D01*
X0555922Y0025484D01*
X0555977Y0025453D01*
X0556033Y0025425D01*
X0556091Y0025401D01*
X0556150Y0025380D01*
X0556211Y0025363D01*
X0556272Y0025350D01*
X0556334Y0025341D01*
X0556396Y0025335D01*
X0556459Y0025333D01*
X0556502Y0025335D01*
X0556544Y0025340D01*
X0556586Y0025350D01*
X0556626Y0025362D01*
X0556666Y0025379D01*
X0556704Y0025399D01*
X0556739Y0025421D01*
X0556773Y0025447D01*
X0556805Y0025476D01*
X0556834Y0025508D01*
X0556860Y0025542D01*
X0556882Y0025578D01*
X0556902Y0025615D01*
X0556919Y0025655D01*
X0556931Y0025695D01*
X0556941Y0025737D01*
X0556946Y0025779D01*
X0556948Y0025822D01*
X0556949Y0025822D02*
X0556947Y0025865D01*
X0556942Y0025908D01*
X0556932Y0025950D01*
X0556920Y0025991D01*
X0556903Y0026030D01*
X0556884Y0026069D01*
X0556861Y0026105D01*
X0556835Y0026139D01*
X0556806Y0026171D01*
X0556774Y0026200D01*
X0556740Y0026227D01*
X0556704Y0026250D01*
X0550086Y0026066D02*
X0550086Y0025822D01*
X0550084Y0025779D01*
X0550079Y0025737D01*
X0550069Y0025695D01*
X0550057Y0025655D01*
X0550040Y0025615D01*
X0550020Y0025577D01*
X0549998Y0025542D01*
X0549972Y0025508D01*
X0549943Y0025476D01*
X0549911Y0025447D01*
X0549877Y0025421D01*
X0549841Y0025399D01*
X0549804Y0025379D01*
X0549764Y0025362D01*
X0549724Y0025350D01*
X0549682Y0025340D01*
X0549640Y0025335D01*
X0549597Y0025333D01*
X0548863Y0025333D01*
X0548048Y0025333D02*
X0547314Y0027533D01*
X0546581Y0025333D01*
X0546764Y0025883D02*
X0547864Y0025883D01*
X0548863Y0026555D02*
X0548863Y0027533D01*
X0550086Y0027533D01*
X0549597Y0026555D02*
X0548863Y0026555D01*
X0549597Y0026555D02*
X0549640Y0026553D01*
X0549682Y0026548D01*
X0549724Y0026538D01*
X0549764Y0026526D01*
X0549804Y0026509D01*
X0549842Y0026489D01*
X0549877Y0026467D01*
X0549911Y0026441D01*
X0549943Y0026412D01*
X0549972Y0026380D01*
X0549998Y0026346D01*
X0550020Y0026311D01*
X0550040Y0026273D01*
X0550057Y0026233D01*
X0550069Y0026193D01*
X0550079Y0026151D01*
X0550084Y0026109D01*
X0550086Y0026066D01*
X0540086Y0025822D02*
X0538863Y0025822D01*
X0539352Y0027533D01*
X0539719Y0026311D02*
X0539719Y0025333D01*
X0538048Y0025333D02*
X0537314Y0027533D01*
X0536581Y0025333D01*
X0536764Y0025883D02*
X0537864Y0025883D01*
X0529597Y0026555D02*
X0529108Y0026555D01*
X0529597Y0026555D02*
X0529640Y0026557D01*
X0529682Y0026562D01*
X0529724Y0026572D01*
X0529764Y0026584D01*
X0529804Y0026601D01*
X0529842Y0026621D01*
X0529877Y0026643D01*
X0529911Y0026669D01*
X0529943Y0026698D01*
X0529972Y0026730D01*
X0529998Y0026764D01*
X0530020Y0026800D01*
X0530040Y0026837D01*
X0530057Y0026877D01*
X0530069Y0026917D01*
X0530079Y0026959D01*
X0530084Y0027001D01*
X0530086Y0027044D01*
X0530084Y0027087D01*
X0530079Y0027129D01*
X0530069Y0027171D01*
X0530057Y0027211D01*
X0530040Y0027251D01*
X0530020Y0027289D01*
X0529998Y0027324D01*
X0529972Y0027358D01*
X0529943Y0027390D01*
X0529911Y0027419D01*
X0529877Y0027445D01*
X0529842Y0027467D01*
X0529804Y0027487D01*
X0529764Y0027504D01*
X0529724Y0027516D01*
X0529682Y0027526D01*
X0529640Y0027531D01*
X0529597Y0027533D01*
X0528863Y0027533D01*
X0527314Y0027533D02*
X0528048Y0025333D01*
X0527864Y0025883D02*
X0526764Y0025883D01*
X0526581Y0025333D02*
X0527314Y0027533D01*
X0529474Y0026555D02*
X0529522Y0026553D01*
X0529570Y0026547D01*
X0529617Y0026538D01*
X0529663Y0026525D01*
X0529708Y0026508D01*
X0529751Y0026488D01*
X0529793Y0026465D01*
X0529833Y0026438D01*
X0529871Y0026409D01*
X0529906Y0026376D01*
X0529939Y0026341D01*
X0529968Y0026303D01*
X0529995Y0026263D01*
X0530018Y0026221D01*
X0530038Y0026178D01*
X0530055Y0026133D01*
X0530068Y0026087D01*
X0530077Y0026040D01*
X0530083Y0025992D01*
X0530085Y0025944D01*
X0530083Y0025896D01*
X0530077Y0025848D01*
X0530068Y0025801D01*
X0530055Y0025755D01*
X0530038Y0025710D01*
X0530018Y0025667D01*
X0529995Y0025625D01*
X0529968Y0025585D01*
X0529939Y0025547D01*
X0529906Y0025512D01*
X0529871Y0025479D01*
X0529833Y0025450D01*
X0529793Y0025423D01*
X0529751Y0025400D01*
X0529708Y0025380D01*
X0529663Y0025363D01*
X0529617Y0025350D01*
X0529570Y0025341D01*
X0529522Y0025335D01*
X0529474Y0025333D01*
X0528863Y0025333D01*
X0520086Y0025333D02*
X0518863Y0025333D01*
X0519902Y0026555D01*
X0519536Y0027533D02*
X0519484Y0027531D01*
X0519432Y0027525D01*
X0519380Y0027516D01*
X0519330Y0027502D01*
X0519280Y0027485D01*
X0519232Y0027464D01*
X0519186Y0027440D01*
X0519142Y0027413D01*
X0519099Y0027382D01*
X0519059Y0027348D01*
X0519022Y0027312D01*
X0518988Y0027272D01*
X0518956Y0027230D01*
X0518928Y0027187D01*
X0518903Y0027141D01*
X0518881Y0027093D01*
X0518863Y0027044D01*
X0519903Y0026555D02*
X0519936Y0026589D01*
X0519966Y0026626D01*
X0519994Y0026666D01*
X0520018Y0026707D01*
X0520038Y0026750D01*
X0520055Y0026795D01*
X0520069Y0026841D01*
X0520078Y0026888D01*
X0520084Y0026935D01*
X0520086Y0026983D01*
X0520084Y0027028D01*
X0520078Y0027074D01*
X0520069Y0027118D01*
X0520056Y0027162D01*
X0520040Y0027204D01*
X0520020Y0027245D01*
X0519996Y0027284D01*
X0519970Y0027321D01*
X0519941Y0027356D01*
X0519909Y0027388D01*
X0519874Y0027417D01*
X0519837Y0027443D01*
X0519798Y0027467D01*
X0519757Y0027487D01*
X0519715Y0027503D01*
X0519671Y0027516D01*
X0519627Y0027525D01*
X0519581Y0027531D01*
X0519536Y0027533D01*
X0517314Y0027533D02*
X0518048Y0025333D01*
X0517864Y0025883D02*
X0516764Y0025883D01*
X0516581Y0025333D02*
X0517314Y0027533D01*
X0510086Y0025333D02*
X0508863Y0025333D01*
X0509474Y0025333D02*
X0509474Y0027533D01*
X0508863Y0027044D01*
X0507864Y0025883D02*
X0506764Y0025883D01*
X0506581Y0025333D02*
X0507314Y0027533D01*
X0508048Y0025333D01*
X0498546Y0025639D02*
X0498512Y0025713D01*
X0498481Y0025789D01*
X0498454Y0025867D01*
X0498430Y0025946D01*
X0498409Y0026025D01*
X0498393Y0026106D01*
X0498380Y0026187D01*
X0498370Y0026269D01*
X0498365Y0026351D01*
X0498363Y0026433D01*
X0499586Y0026433D02*
X0499584Y0026515D01*
X0499579Y0026597D01*
X0499569Y0026679D01*
X0499556Y0026760D01*
X0499540Y0026841D01*
X0499519Y0026920D01*
X0499495Y0026999D01*
X0499468Y0027077D01*
X0499437Y0027153D01*
X0499403Y0027227D01*
X0499463Y0027044D02*
X0498486Y0025822D01*
X0498546Y0025638D02*
X0498561Y0025601D01*
X0498579Y0025565D01*
X0498600Y0025531D01*
X0498624Y0025499D01*
X0498651Y0025469D01*
X0498680Y0025442D01*
X0498711Y0025417D01*
X0498745Y0025395D01*
X0498780Y0025377D01*
X0498817Y0025361D01*
X0498855Y0025349D01*
X0498894Y0025340D01*
X0498934Y0025335D01*
X0498974Y0025333D01*
X0499014Y0025335D01*
X0499054Y0025340D01*
X0499093Y0025349D01*
X0499131Y0025361D01*
X0499168Y0025377D01*
X0499203Y0025395D01*
X0499237Y0025417D01*
X0499268Y0025442D01*
X0499297Y0025469D01*
X0499324Y0025499D01*
X0499348Y0025531D01*
X0499369Y0025565D01*
X0499387Y0025601D01*
X0499402Y0025638D01*
X0498363Y0026433D02*
X0498365Y0026515D01*
X0498370Y0026597D01*
X0498380Y0026679D01*
X0498393Y0026760D01*
X0498409Y0026841D01*
X0498430Y0026920D01*
X0498454Y0026999D01*
X0498481Y0027077D01*
X0498512Y0027153D01*
X0498546Y0027227D01*
X0498974Y0027533D02*
X0499014Y0027531D01*
X0499054Y0027526D01*
X0499093Y0027517D01*
X0499131Y0027505D01*
X0499168Y0027489D01*
X0499203Y0027471D01*
X0499237Y0027449D01*
X0499268Y0027424D01*
X0499297Y0027397D01*
X0499324Y0027367D01*
X0499348Y0027335D01*
X0499369Y0027301D01*
X0499387Y0027265D01*
X0499402Y0027228D01*
X0498974Y0027533D02*
X0498934Y0027531D01*
X0498894Y0027526D01*
X0498855Y0027517D01*
X0498817Y0027505D01*
X0498780Y0027489D01*
X0498745Y0027471D01*
X0498711Y0027449D01*
X0498680Y0027424D01*
X0498651Y0027397D01*
X0498624Y0027367D01*
X0498600Y0027335D01*
X0498579Y0027301D01*
X0498561Y0027265D01*
X0498546Y0027228D01*
X0499586Y0026433D02*
X0499584Y0026351D01*
X0499579Y0026269D01*
X0499569Y0026187D01*
X0499556Y0026106D01*
X0499540Y0026025D01*
X0499519Y0025946D01*
X0499495Y0025867D01*
X0499468Y0025789D01*
X0499437Y0025713D01*
X0499403Y0025639D01*
X0497548Y0025333D02*
X0496814Y0027533D01*
X0496081Y0025333D01*
X0496264Y0025883D02*
X0497364Y0025883D01*
X0491248Y0025944D02*
X0491248Y0026922D01*
X0491246Y0026970D01*
X0491240Y0027018D01*
X0491231Y0027065D01*
X0491218Y0027111D01*
X0491201Y0027156D01*
X0491181Y0027199D01*
X0491158Y0027241D01*
X0491131Y0027281D01*
X0491102Y0027319D01*
X0491069Y0027354D01*
X0491034Y0027387D01*
X0490996Y0027416D01*
X0490956Y0027443D01*
X0490914Y0027466D01*
X0490871Y0027486D01*
X0490826Y0027503D01*
X0490780Y0027516D01*
X0490733Y0027525D01*
X0490685Y0027531D01*
X0490637Y0027533D01*
X0490026Y0027533D01*
X0490026Y0025333D01*
X0490637Y0025333D01*
X0490685Y0025335D01*
X0490733Y0025341D01*
X0490780Y0025350D01*
X0490826Y0025363D01*
X0490871Y0025380D01*
X0490914Y0025400D01*
X0490956Y0025423D01*
X0490996Y0025450D01*
X0491034Y0025479D01*
X0491069Y0025512D01*
X0491102Y0025547D01*
X0491131Y0025585D01*
X0491158Y0025625D01*
X0491181Y0025667D01*
X0491201Y0025710D01*
X0491218Y0025755D01*
X0491231Y0025801D01*
X0491240Y0025848D01*
X0491246Y0025896D01*
X0491248Y0025944D01*
X0488944Y0025333D02*
X0488944Y0027533D01*
X0487722Y0027533D02*
X0488944Y0025333D01*
X0487722Y0025333D02*
X0487722Y0027533D01*
X0486640Y0027533D02*
X0485907Y0027533D01*
X0485864Y0027531D01*
X0485822Y0027526D01*
X0485780Y0027516D01*
X0485740Y0027504D01*
X0485700Y0027487D01*
X0485662Y0027467D01*
X0485627Y0027445D01*
X0485593Y0027419D01*
X0485561Y0027390D01*
X0485532Y0027358D01*
X0485506Y0027324D01*
X0485484Y0027288D01*
X0485464Y0027251D01*
X0485447Y0027211D01*
X0485435Y0027171D01*
X0485425Y0027129D01*
X0485420Y0027087D01*
X0485418Y0027044D01*
X0485418Y0025822D01*
X0485420Y0025779D01*
X0485425Y0025737D01*
X0485435Y0025695D01*
X0485447Y0025655D01*
X0485464Y0025615D01*
X0485484Y0025578D01*
X0485506Y0025542D01*
X0485532Y0025508D01*
X0485561Y0025476D01*
X0485593Y0025447D01*
X0485627Y0025421D01*
X0485663Y0025399D01*
X0485700Y0025379D01*
X0485740Y0025362D01*
X0485780Y0025350D01*
X0485822Y0025340D01*
X0485864Y0025335D01*
X0485907Y0025333D01*
X0486640Y0025333D01*
X0486640Y0026555D01*
X0486274Y0026555D01*
X0482053Y0026555D02*
X0481076Y0026555D01*
X0481076Y0027533D02*
X0481076Y0025333D01*
X0480182Y0025333D02*
X0479204Y0025333D01*
X0479204Y0027533D01*
X0480182Y0027533D01*
X0481076Y0027533D02*
X0482053Y0027533D01*
X0479937Y0026555D02*
X0479204Y0026555D01*
X0477715Y0026311D02*
X0478204Y0025333D01*
X0477593Y0026311D02*
X0476982Y0026311D01*
X0477593Y0026311D02*
X0477641Y0026313D01*
X0477689Y0026319D01*
X0477736Y0026328D01*
X0477782Y0026341D01*
X0477827Y0026358D01*
X0477870Y0026378D01*
X0477912Y0026401D01*
X0477952Y0026428D01*
X0477990Y0026457D01*
X0478025Y0026490D01*
X0478058Y0026525D01*
X0478087Y0026563D01*
X0478114Y0026603D01*
X0478137Y0026645D01*
X0478157Y0026688D01*
X0478174Y0026733D01*
X0478187Y0026779D01*
X0478196Y0026826D01*
X0478202Y0026874D01*
X0478204Y0026922D01*
X0478202Y0026970D01*
X0478196Y0027018D01*
X0478187Y0027065D01*
X0478174Y0027111D01*
X0478157Y0027156D01*
X0478137Y0027199D01*
X0478114Y0027241D01*
X0478087Y0027281D01*
X0478058Y0027319D01*
X0478025Y0027354D01*
X0477990Y0027387D01*
X0477952Y0027416D01*
X0477912Y0027443D01*
X0477870Y0027466D01*
X0477827Y0027486D01*
X0477782Y0027503D01*
X0477736Y0027516D01*
X0477689Y0027525D01*
X0477641Y0027531D01*
X0477593Y0027533D01*
X0476982Y0027533D01*
X0476982Y0025333D01*
X0476080Y0025333D02*
X0475347Y0027533D01*
X0474613Y0025333D01*
X0474797Y0025883D02*
X0475897Y0025883D01*
X0470860Y0025333D02*
X0470371Y0025333D01*
X0470328Y0025335D01*
X0470286Y0025340D01*
X0470244Y0025350D01*
X0470204Y0025362D01*
X0470164Y0025379D01*
X0470127Y0025399D01*
X0470091Y0025421D01*
X0470057Y0025447D01*
X0470025Y0025476D01*
X0469996Y0025508D01*
X0469970Y0025542D01*
X0469948Y0025578D01*
X0469928Y0025615D01*
X0469911Y0025655D01*
X0469899Y0025695D01*
X0469889Y0025737D01*
X0469884Y0025779D01*
X0469882Y0025822D01*
X0469882Y0027044D01*
X0469884Y0027087D01*
X0469889Y0027129D01*
X0469899Y0027171D01*
X0469911Y0027211D01*
X0469928Y0027251D01*
X0469948Y0027288D01*
X0469970Y0027324D01*
X0469996Y0027358D01*
X0470025Y0027390D01*
X0470057Y0027419D01*
X0470091Y0027445D01*
X0470126Y0027467D01*
X0470164Y0027487D01*
X0470204Y0027504D01*
X0470244Y0027516D01*
X0470286Y0027526D01*
X0470328Y0027531D01*
X0470371Y0027533D01*
X0470860Y0027533D01*
X0469060Y0027533D02*
X0468571Y0027533D01*
X0468528Y0027531D01*
X0468486Y0027526D01*
X0468444Y0027516D01*
X0468404Y0027504D01*
X0468364Y0027487D01*
X0468326Y0027467D01*
X0468291Y0027445D01*
X0468257Y0027419D01*
X0468225Y0027390D01*
X0468196Y0027358D01*
X0468170Y0027324D01*
X0468148Y0027288D01*
X0468128Y0027251D01*
X0468111Y0027211D01*
X0468099Y0027171D01*
X0468089Y0027129D01*
X0468084Y0027087D01*
X0468082Y0027044D01*
X0468082Y0025822D01*
X0468084Y0025779D01*
X0468089Y0025737D01*
X0468099Y0025695D01*
X0468111Y0025655D01*
X0468128Y0025615D01*
X0468148Y0025578D01*
X0468170Y0025542D01*
X0468196Y0025508D01*
X0468225Y0025476D01*
X0468257Y0025447D01*
X0468291Y0025421D01*
X0468327Y0025399D01*
X0468364Y0025379D01*
X0468404Y0025362D01*
X0468444Y0025350D01*
X0468486Y0025340D01*
X0468528Y0025335D01*
X0468571Y0025333D01*
X0469060Y0025333D01*
X0466540Y0025333D02*
X0465807Y0027533D01*
X0467273Y0027533D02*
X0466540Y0025333D01*
X0460953Y0027533D02*
X0459731Y0027533D01*
X0460342Y0027533D02*
X0460342Y0025333D01*
X0458765Y0026250D02*
X0458093Y0026616D01*
X0458337Y0027533D02*
X0458396Y0027531D01*
X0458455Y0027525D01*
X0458513Y0027516D01*
X0458570Y0027503D01*
X0458627Y0027486D01*
X0458682Y0027465D01*
X0458736Y0027442D01*
X0458788Y0027414D01*
X0458839Y0027383D01*
X0458887Y0027350D01*
X0458093Y0026616D02*
X0458057Y0026639D01*
X0458023Y0026666D01*
X0457991Y0026695D01*
X0457962Y0026727D01*
X0457936Y0026761D01*
X0457913Y0026797D01*
X0457894Y0026836D01*
X0457877Y0026875D01*
X0457865Y0026916D01*
X0457855Y0026958D01*
X0457850Y0027001D01*
X0457848Y0027044D01*
X0457850Y0027087D01*
X0457855Y0027129D01*
X0457865Y0027171D01*
X0457877Y0027211D01*
X0457894Y0027251D01*
X0457914Y0027289D01*
X0457936Y0027324D01*
X0457962Y0027358D01*
X0457991Y0027390D01*
X0458023Y0027419D01*
X0458057Y0027445D01*
X0458093Y0027467D01*
X0458130Y0027487D01*
X0458170Y0027504D01*
X0458210Y0027516D01*
X0458252Y0027526D01*
X0458294Y0027531D01*
X0458337Y0027533D01*
X0457787Y0025639D02*
X0457832Y0025595D01*
X0457880Y0025555D01*
X0457930Y0025518D01*
X0457983Y0025484D01*
X0458038Y0025453D01*
X0458094Y0025425D01*
X0458152Y0025401D01*
X0458211Y0025380D01*
X0458272Y0025363D01*
X0458333Y0025350D01*
X0458395Y0025341D01*
X0458457Y0025335D01*
X0458520Y0025333D01*
X0458563Y0025335D01*
X0458605Y0025340D01*
X0458647Y0025350D01*
X0458687Y0025362D01*
X0458727Y0025379D01*
X0458765Y0025399D01*
X0458800Y0025421D01*
X0458834Y0025447D01*
X0458866Y0025476D01*
X0458895Y0025508D01*
X0458921Y0025542D01*
X0458943Y0025578D01*
X0458963Y0025615D01*
X0458980Y0025655D01*
X0458992Y0025695D01*
X0459002Y0025737D01*
X0459007Y0025779D01*
X0459009Y0025822D01*
X0459010Y0025822D02*
X0459008Y0025865D01*
X0459003Y0025908D01*
X0458993Y0025950D01*
X0458981Y0025991D01*
X0458964Y0026030D01*
X0458945Y0026069D01*
X0458922Y0026105D01*
X0458896Y0026139D01*
X0458867Y0026171D01*
X0458835Y0026200D01*
X0458801Y0026227D01*
X0458765Y0026250D01*
X0456936Y0025333D02*
X0456447Y0026311D01*
X0456324Y0026311D02*
X0455713Y0026311D01*
X0456324Y0026311D02*
X0456372Y0026313D01*
X0456420Y0026319D01*
X0456467Y0026328D01*
X0456513Y0026341D01*
X0456558Y0026358D01*
X0456601Y0026378D01*
X0456643Y0026401D01*
X0456683Y0026428D01*
X0456721Y0026457D01*
X0456756Y0026490D01*
X0456789Y0026525D01*
X0456818Y0026563D01*
X0456845Y0026603D01*
X0456868Y0026645D01*
X0456888Y0026688D01*
X0456905Y0026733D01*
X0456918Y0026779D01*
X0456927Y0026826D01*
X0456933Y0026874D01*
X0456935Y0026922D01*
X0456933Y0026970D01*
X0456927Y0027018D01*
X0456918Y0027065D01*
X0456905Y0027111D01*
X0456888Y0027156D01*
X0456868Y0027199D01*
X0456845Y0027241D01*
X0456818Y0027281D01*
X0456789Y0027319D01*
X0456756Y0027354D01*
X0456721Y0027387D01*
X0456683Y0027416D01*
X0456643Y0027443D01*
X0456601Y0027466D01*
X0456558Y0027486D01*
X0456513Y0027503D01*
X0456467Y0027516D01*
X0456420Y0027525D01*
X0456372Y0027531D01*
X0456324Y0027533D01*
X0455713Y0027533D01*
X0455713Y0025333D01*
D13*
X0455833Y0028933D02*
X0453333Y0031433D01*
X0453333Y0036433D01*
X0455833Y0038933D01*
X0460833Y0038933D01*
X0463333Y0036433D01*
X0465833Y0038933D01*
X0470833Y0038933D01*
X0473333Y0036433D01*
X0475833Y0038933D01*
X0480833Y0038933D01*
X0483333Y0036433D01*
X0485833Y0038933D01*
X0490833Y0038933D01*
X0493333Y0036433D01*
X0495833Y0038933D01*
X0500833Y0038933D01*
X0503333Y0036433D01*
X0505833Y0038933D01*
X0510833Y0038933D01*
X0513333Y0036433D01*
X0515833Y0038933D01*
X0520833Y0038933D01*
X0523333Y0036433D01*
X0525833Y0038933D01*
X0530833Y0038933D01*
X0533333Y0036433D01*
X0535833Y0038933D01*
X0540833Y0038933D01*
X0543333Y0036433D01*
X0545833Y0038933D01*
X0550833Y0038933D01*
X0553333Y0036433D01*
X0555833Y0038933D01*
X0560833Y0038933D01*
X0563333Y0036433D01*
X0565833Y0038933D01*
X0570833Y0038933D01*
X0573333Y0036433D01*
X0575833Y0038933D01*
X0580833Y0038933D01*
X0583333Y0036433D01*
X0585833Y0038933D01*
X0590833Y0038933D01*
X0593333Y0036433D01*
X0595833Y0038933D01*
X0600833Y0038933D01*
X0603333Y0036433D01*
X0605833Y0038933D01*
X0610833Y0038933D01*
X0613333Y0036433D01*
X0613333Y0031433D01*
X0610833Y0028933D01*
X0605833Y0028933D01*
X0603333Y0031433D01*
X0600833Y0028933D01*
X0595833Y0028933D01*
X0593333Y0031433D01*
X0590833Y0028933D01*
X0585833Y0028933D01*
X0583333Y0031433D01*
X0580833Y0028933D01*
X0575833Y0028933D01*
X0573333Y0031433D01*
X0570833Y0028933D01*
X0565833Y0028933D01*
X0563333Y0031433D01*
X0560833Y0028933D01*
X0555833Y0028933D01*
X0553333Y0031433D01*
X0550833Y0028933D01*
X0545833Y0028933D01*
X0543333Y0031433D01*
X0540833Y0028933D01*
X0535833Y0028933D01*
X0533333Y0031433D01*
X0530833Y0028933D01*
X0525833Y0028933D01*
X0523333Y0031433D01*
X0520833Y0028933D01*
X0515833Y0028933D01*
X0513333Y0031433D01*
X0510833Y0028933D01*
X0505833Y0028933D01*
X0503333Y0031433D01*
X0500833Y0028933D01*
X0495833Y0028933D01*
X0493333Y0031433D01*
X0490833Y0028933D01*
X0485833Y0028933D01*
X0483333Y0031433D01*
X0480833Y0028933D01*
X0475833Y0028933D01*
X0473333Y0031433D01*
X0470833Y0028933D01*
X0465833Y0028933D01*
X0463333Y0031433D01*
X0460833Y0028933D01*
X0455833Y0028933D01*
X0453333Y0031433D02*
X0453333Y0036433D01*
X0453333Y0048933D02*
X0450833Y0051433D01*
X0448333Y0048933D01*
X0443333Y0048933D01*
X0440833Y0051433D01*
X0440833Y0056433D01*
X0443333Y0058933D01*
X0448333Y0058933D01*
X0450833Y0056433D01*
X0453333Y0058933D01*
X0458333Y0058933D01*
X0460833Y0056433D01*
X0463333Y0058933D01*
X0468333Y0058933D01*
X0470833Y0056433D01*
X0473333Y0058933D01*
X0478333Y0058933D01*
X0480833Y0056433D01*
X0483333Y0058933D01*
X0488333Y0058933D01*
X0490833Y0056433D01*
X0493333Y0058933D01*
X0498333Y0058933D01*
X0500833Y0056433D01*
X0503333Y0058933D01*
X0508333Y0058933D01*
X0510833Y0056433D01*
X0513333Y0058933D01*
X0518333Y0058933D01*
X0520833Y0056433D01*
X0520833Y0051433D01*
X0518333Y0048933D01*
X0513333Y0048933D01*
X0510833Y0051433D01*
X0508333Y0048933D01*
X0503333Y0048933D01*
X0500833Y0051433D01*
X0498333Y0048933D01*
X0493333Y0048933D01*
X0490833Y0051433D01*
X0488333Y0048933D01*
X0483333Y0048933D01*
X0480833Y0051433D01*
X0478333Y0048933D01*
X0473333Y0048933D01*
X0470833Y0051433D01*
X0468333Y0048933D01*
X0463333Y0048933D01*
X0460833Y0051433D01*
X0458333Y0048933D01*
X0453333Y0048933D01*
X0546333Y0051433D02*
X0548833Y0048933D01*
X0553833Y0048933D01*
X0556333Y0051433D01*
X0558833Y0048933D01*
X0563833Y0048933D01*
X0566333Y0051433D01*
X0568833Y0048933D01*
X0573833Y0048933D01*
X0576333Y0051433D01*
X0578833Y0048933D01*
X0583833Y0048933D01*
X0586333Y0051433D01*
X0588833Y0048933D01*
X0593833Y0048933D01*
X0596333Y0051433D01*
X0598833Y0048933D01*
X0603833Y0048933D01*
X0606333Y0051433D01*
X0608833Y0048933D01*
X0613833Y0048933D01*
X0616333Y0051433D01*
X0618833Y0048933D01*
X0623833Y0048933D01*
X0626333Y0051433D01*
X0626333Y0056433D01*
X0623833Y0058933D01*
X0618833Y0058933D01*
X0616333Y0056433D01*
X0613833Y0058933D01*
X0608833Y0058933D01*
X0606333Y0056433D01*
X0603833Y0058933D01*
X0598833Y0058933D01*
X0596333Y0056433D01*
X0593833Y0058933D01*
X0588833Y0058933D01*
X0586333Y0056433D01*
X0583833Y0058933D01*
X0578833Y0058933D01*
X0576333Y0056433D01*
X0573833Y0058933D01*
X0568833Y0058933D01*
X0566333Y0056433D01*
X0563833Y0058933D01*
X0558833Y0058933D01*
X0556333Y0056433D01*
X0553833Y0058933D01*
X0548833Y0058933D01*
X0546333Y0056433D01*
X0546333Y0051433D01*
X0613333Y0036433D02*
X0613333Y0031433D01*
X0610833Y0108933D02*
X0613333Y0111433D01*
X0613333Y0116433D01*
X0610833Y0118933D01*
X0605833Y0118933D01*
X0603333Y0116433D01*
X0600833Y0118933D01*
X0595833Y0118933D01*
X0593333Y0116433D01*
X0590833Y0118933D01*
X0585833Y0118933D01*
X0583333Y0116433D01*
X0580833Y0118933D01*
X0575833Y0118933D01*
X0573333Y0116433D01*
X0570833Y0118933D01*
X0565833Y0118933D01*
X0563333Y0116433D01*
X0560833Y0118933D01*
X0555833Y0118933D01*
X0553333Y0116433D01*
X0550833Y0118933D01*
X0545833Y0118933D01*
X0543333Y0116433D01*
X0540833Y0118933D01*
X0535833Y0118933D01*
X0533333Y0116433D01*
X0530833Y0118933D01*
X0525833Y0118933D01*
X0523333Y0116433D01*
X0520833Y0118933D01*
X0515833Y0118933D01*
X0513333Y0116433D01*
X0510833Y0118933D01*
X0505833Y0118933D01*
X0503333Y0116433D01*
X0500833Y0118933D01*
X0495833Y0118933D01*
X0493333Y0116433D01*
X0493333Y0111433D01*
X0495833Y0108933D01*
X0500833Y0108933D01*
X0503333Y0111433D01*
X0505833Y0108933D01*
X0510833Y0108933D01*
X0513333Y0111433D01*
X0515833Y0108933D01*
X0520833Y0108933D01*
X0523333Y0111433D01*
X0525833Y0108933D01*
X0530833Y0108933D01*
X0533333Y0111433D01*
X0535833Y0108933D01*
X0540833Y0108933D01*
X0543333Y0111433D01*
X0545833Y0108933D01*
X0550833Y0108933D01*
X0553333Y0111433D01*
X0555833Y0108933D01*
X0560833Y0108933D01*
X0563333Y0111433D01*
X0565833Y0108933D01*
X0570833Y0108933D01*
X0573333Y0111433D01*
X0575833Y0108933D01*
X0580833Y0108933D01*
X0583333Y0111433D01*
X0585833Y0108933D01*
X0590833Y0108933D01*
X0593333Y0111433D01*
X0595833Y0108933D01*
X0600833Y0108933D01*
X0603333Y0111433D01*
X0605833Y0108933D01*
X0610833Y0108933D01*
D14*
X0611080Y0108183D02*
X0610235Y0108183D01*
X0610235Y0106283D01*
X0610235Y0107339D02*
X0611080Y0107339D01*
X0612028Y0106283D02*
X0612925Y0107339D01*
X0612608Y0108183D02*
X0612560Y0108181D01*
X0612513Y0108175D01*
X0612465Y0108166D01*
X0612419Y0108153D01*
X0612374Y0108136D01*
X0612331Y0108116D01*
X0612289Y0108093D01*
X0612249Y0108066D01*
X0612212Y0108037D01*
X0612176Y0108004D01*
X0612144Y0107969D01*
X0612114Y0107931D01*
X0612088Y0107891D01*
X0612064Y0107849D01*
X0612044Y0107806D01*
X0612028Y0107761D01*
X0612925Y0107339D02*
X0612953Y0107368D01*
X0612980Y0107400D01*
X0613003Y0107434D01*
X0613024Y0107470D01*
X0613042Y0107507D01*
X0613056Y0107546D01*
X0613068Y0107585D01*
X0613076Y0107626D01*
X0613081Y0107667D01*
X0613083Y0107708D01*
X0613081Y0107749D01*
X0613076Y0107790D01*
X0613067Y0107831D01*
X0613054Y0107870D01*
X0613038Y0107909D01*
X0613019Y0107946D01*
X0612997Y0107980D01*
X0612972Y0108013D01*
X0612944Y0108044D01*
X0612913Y0108072D01*
X0612880Y0108097D01*
X0612846Y0108119D01*
X0612809Y0108138D01*
X0612770Y0108154D01*
X0612731Y0108167D01*
X0612690Y0108176D01*
X0612649Y0108181D01*
X0612608Y0108183D01*
X0613083Y0106283D02*
X0612028Y0106283D01*
X0636680Y0097555D02*
X0636680Y0050311D01*
X0679987Y0050311D01*
X0679987Y0097555D01*
X0636680Y0097555D01*
X0548905Y0061583D02*
X0548905Y0059683D01*
X0548377Y0059683D02*
X0549433Y0059683D01*
X0548377Y0061161D02*
X0548905Y0061583D01*
X0547217Y0061583D02*
X0547217Y0060105D01*
X0547216Y0060105D02*
X0547214Y0060066D01*
X0547209Y0060027D01*
X0547200Y0059990D01*
X0547188Y0059953D01*
X0547172Y0059917D01*
X0547153Y0059883D01*
X0547131Y0059851D01*
X0547106Y0059821D01*
X0547078Y0059793D01*
X0547048Y0059768D01*
X0547016Y0059746D01*
X0546982Y0059727D01*
X0546946Y0059711D01*
X0546909Y0059699D01*
X0546872Y0059690D01*
X0546833Y0059685D01*
X0546794Y0059683D01*
X0546583Y0059683D01*
X0443933Y0059683D02*
X0442877Y0059683D01*
X0443774Y0060739D01*
X0443458Y0061583D02*
X0443410Y0061581D01*
X0443363Y0061575D01*
X0443315Y0061566D01*
X0443269Y0061553D01*
X0443224Y0061536D01*
X0443181Y0061516D01*
X0443139Y0061493D01*
X0443099Y0061466D01*
X0443062Y0061437D01*
X0443026Y0061404D01*
X0442994Y0061369D01*
X0442964Y0061331D01*
X0442938Y0061291D01*
X0442914Y0061249D01*
X0442894Y0061206D01*
X0442878Y0061161D01*
X0443775Y0060739D02*
X0443803Y0060768D01*
X0443830Y0060800D01*
X0443853Y0060834D01*
X0443874Y0060870D01*
X0443892Y0060907D01*
X0443906Y0060946D01*
X0443918Y0060985D01*
X0443926Y0061026D01*
X0443931Y0061067D01*
X0443933Y0061108D01*
X0443931Y0061149D01*
X0443926Y0061190D01*
X0443917Y0061231D01*
X0443904Y0061270D01*
X0443888Y0061309D01*
X0443869Y0061346D01*
X0443847Y0061380D01*
X0443822Y0061413D01*
X0443794Y0061444D01*
X0443763Y0061472D01*
X0443730Y0061497D01*
X0443696Y0061519D01*
X0443659Y0061538D01*
X0443620Y0061554D01*
X0443581Y0061567D01*
X0443540Y0061576D01*
X0443499Y0061581D01*
X0443458Y0061583D01*
X0441717Y0061583D02*
X0441717Y0060105D01*
X0441716Y0060105D02*
X0441714Y0060066D01*
X0441709Y0060027D01*
X0441700Y0059990D01*
X0441688Y0059953D01*
X0441672Y0059917D01*
X0441653Y0059883D01*
X0441631Y0059851D01*
X0441606Y0059821D01*
X0441578Y0059793D01*
X0441548Y0059768D01*
X0441516Y0059746D01*
X0441482Y0059727D01*
X0441446Y0059711D01*
X0441409Y0059699D01*
X0441372Y0059690D01*
X0441333Y0059685D01*
X0441294Y0059683D01*
X0441083Y0059683D01*
X0610235Y0028183D02*
X0611080Y0028183D01*
X0611080Y0027339D02*
X0610235Y0027339D01*
X0610235Y0028183D02*
X0610235Y0026283D01*
X0612028Y0026283D02*
X0613083Y0026283D01*
X0612556Y0026283D02*
X0612556Y0028183D01*
X0612028Y0027761D01*
D15*
X0600633Y0064528D02*
X0596033Y0064528D01*
X0596033Y0065805D01*
X0596035Y0065874D01*
X0596040Y0065943D01*
X0596050Y0066012D01*
X0596063Y0066080D01*
X0596080Y0066147D01*
X0596100Y0066213D01*
X0596124Y0066278D01*
X0596151Y0066342D01*
X0596182Y0066404D01*
X0596216Y0066464D01*
X0596253Y0066522D01*
X0596294Y0066578D01*
X0596337Y0066632D01*
X0596383Y0066684D01*
X0596432Y0066733D01*
X0596484Y0066779D01*
X0596538Y0066822D01*
X0596594Y0066863D01*
X0596652Y0066900D01*
X0596712Y0066934D01*
X0596774Y0066965D01*
X0596838Y0066992D01*
X0596903Y0067016D01*
X0596969Y0067036D01*
X0597036Y0067053D01*
X0597104Y0067066D01*
X0597173Y0067076D01*
X0597242Y0067081D01*
X0597311Y0067083D01*
X0599356Y0067083D01*
X0599425Y0067081D01*
X0599494Y0067076D01*
X0599563Y0067066D01*
X0599631Y0067053D01*
X0599698Y0067036D01*
X0599764Y0067016D01*
X0599829Y0066992D01*
X0599893Y0066965D01*
X0599955Y0066934D01*
X0600015Y0066900D01*
X0600073Y0066863D01*
X0600129Y0066822D01*
X0600183Y0066779D01*
X0600235Y0066733D01*
X0600284Y0066684D01*
X0600330Y0066632D01*
X0600373Y0066578D01*
X0600414Y0066522D01*
X0600451Y0066464D01*
X0600485Y0066404D01*
X0600516Y0066342D01*
X0600543Y0066278D01*
X0600567Y0066213D01*
X0600587Y0066147D01*
X0600604Y0066080D01*
X0600617Y0066012D01*
X0600627Y0065943D01*
X0600632Y0065874D01*
X0600634Y0065805D01*
X0600633Y0065805D02*
X0600633Y0064528D01*
X0585633Y0064528D02*
X0585633Y0065805D01*
X0585634Y0065805D02*
X0585632Y0065874D01*
X0585627Y0065943D01*
X0585617Y0066012D01*
X0585604Y0066080D01*
X0585587Y0066147D01*
X0585567Y0066213D01*
X0585543Y0066278D01*
X0585516Y0066342D01*
X0585485Y0066404D01*
X0585451Y0066464D01*
X0585414Y0066522D01*
X0585373Y0066578D01*
X0585330Y0066632D01*
X0585284Y0066684D01*
X0585235Y0066733D01*
X0585183Y0066779D01*
X0585129Y0066822D01*
X0585073Y0066863D01*
X0585015Y0066900D01*
X0584955Y0066934D01*
X0584893Y0066965D01*
X0584829Y0066992D01*
X0584764Y0067016D01*
X0584698Y0067036D01*
X0584631Y0067053D01*
X0584563Y0067066D01*
X0584494Y0067076D01*
X0584425Y0067081D01*
X0584356Y0067083D01*
X0582311Y0067083D01*
X0582242Y0067081D01*
X0582173Y0067076D01*
X0582104Y0067066D01*
X0582036Y0067053D01*
X0581969Y0067036D01*
X0581903Y0067016D01*
X0581838Y0066992D01*
X0581774Y0066965D01*
X0581712Y0066934D01*
X0581652Y0066900D01*
X0581594Y0066863D01*
X0581538Y0066822D01*
X0581484Y0066779D01*
X0581432Y0066733D01*
X0581383Y0066684D01*
X0581337Y0066632D01*
X0581294Y0066578D01*
X0581253Y0066522D01*
X0581216Y0066464D01*
X0581182Y0066404D01*
X0581151Y0066342D01*
X0581124Y0066278D01*
X0581100Y0066213D01*
X0581080Y0066147D01*
X0581063Y0066080D01*
X0581050Y0066012D01*
X0581040Y0065943D01*
X0581035Y0065874D01*
X0581033Y0065805D01*
X0581033Y0064528D01*
X0585633Y0064528D01*
X0585633Y0069178D02*
X0585633Y0071733D01*
X0585633Y0070455D02*
X0581033Y0070455D01*
X0582056Y0069178D01*
X0570633Y0068922D02*
X0566033Y0070455D01*
X0570633Y0071989D01*
X0569483Y0071605D02*
X0569483Y0069305D01*
X0570633Y0073678D02*
X0570633Y0075211D01*
X0570631Y0075273D01*
X0570626Y0075334D01*
X0570616Y0075395D01*
X0570603Y0075456D01*
X0570587Y0075515D01*
X0570567Y0075573D01*
X0570543Y0075630D01*
X0570516Y0075686D01*
X0570486Y0075740D01*
X0570452Y0075792D01*
X0570416Y0075841D01*
X0570376Y0075889D01*
X0570334Y0075934D01*
X0570289Y0075976D01*
X0570241Y0076016D01*
X0570192Y0076052D01*
X0570140Y0076086D01*
X0570086Y0076116D01*
X0570030Y0076143D01*
X0569973Y0076167D01*
X0569915Y0076187D01*
X0569856Y0076203D01*
X0569795Y0076216D01*
X0569734Y0076226D01*
X0569673Y0076231D01*
X0569611Y0076233D01*
X0569100Y0076233D01*
X0569038Y0076231D01*
X0568977Y0076226D01*
X0568916Y0076216D01*
X0568855Y0076203D01*
X0568796Y0076187D01*
X0568738Y0076167D01*
X0568681Y0076143D01*
X0568625Y0076116D01*
X0568571Y0076086D01*
X0568519Y0076052D01*
X0568470Y0076016D01*
X0568422Y0075976D01*
X0568377Y0075934D01*
X0568335Y0075889D01*
X0568295Y0075841D01*
X0568259Y0075792D01*
X0568225Y0075740D01*
X0568195Y0075686D01*
X0568168Y0075630D01*
X0568144Y0075573D01*
X0568124Y0075515D01*
X0568108Y0075456D01*
X0568095Y0075395D01*
X0568085Y0075334D01*
X0568080Y0075273D01*
X0568078Y0075211D01*
X0568078Y0073678D01*
X0566033Y0073678D01*
X0566033Y0076233D01*
X0581033Y0075083D02*
X0581035Y0075150D01*
X0581041Y0075217D01*
X0581050Y0075283D01*
X0581064Y0075348D01*
X0581081Y0075413D01*
X0581102Y0075476D01*
X0581127Y0075538D01*
X0581155Y0075599D01*
X0581187Y0075658D01*
X0581222Y0075715D01*
X0581261Y0075770D01*
X0581302Y0075822D01*
X0581347Y0075872D01*
X0581394Y0075919D01*
X0581444Y0075964D01*
X0581496Y0076005D01*
X0581551Y0076044D01*
X0581608Y0076079D01*
X0581667Y0076111D01*
X0581728Y0076139D01*
X0581790Y0076164D01*
X0581853Y0076185D01*
X0581918Y0076202D01*
X0581983Y0076216D01*
X0582049Y0076225D01*
X0582116Y0076231D01*
X0582183Y0076233D01*
X0583078Y0075850D02*
X0585633Y0073678D01*
X0585633Y0076233D01*
X0582056Y0073678D02*
X0581986Y0073703D01*
X0581917Y0073731D01*
X0581850Y0073762D01*
X0581784Y0073797D01*
X0581721Y0073835D01*
X0581659Y0073877D01*
X0581599Y0073921D01*
X0581542Y0073968D01*
X0581487Y0074018D01*
X0581435Y0074071D01*
X0581385Y0074127D01*
X0581339Y0074184D01*
X0581295Y0074245D01*
X0581254Y0074307D01*
X0581217Y0074371D01*
X0581183Y0074437D01*
X0581152Y0074505D01*
X0581125Y0074574D01*
X0581101Y0074644D01*
X0581080Y0074715D01*
X0581064Y0074788D01*
X0581051Y0074861D01*
X0581041Y0074935D01*
X0581036Y0075009D01*
X0581034Y0075083D01*
X0582183Y0076233D02*
X0582250Y0076231D01*
X0582316Y0076226D01*
X0582382Y0076217D01*
X0582448Y0076204D01*
X0582512Y0076188D01*
X0582576Y0076169D01*
X0582639Y0076146D01*
X0582700Y0076120D01*
X0582760Y0076090D01*
X0582818Y0076057D01*
X0582874Y0076022D01*
X0582928Y0075983D01*
X0582980Y0075941D01*
X0583030Y0075897D01*
X0583077Y0075850D01*
X0596033Y0074955D02*
X0596035Y0075014D01*
X0596040Y0075072D01*
X0596049Y0075130D01*
X0596062Y0075187D01*
X0596078Y0075244D01*
X0596098Y0075299D01*
X0596121Y0075353D01*
X0596147Y0075405D01*
X0596177Y0075456D01*
X0596209Y0075505D01*
X0596245Y0075552D01*
X0596283Y0075596D01*
X0596324Y0075638D01*
X0596368Y0075677D01*
X0596414Y0075714D01*
X0596462Y0075747D01*
X0596512Y0075778D01*
X0596564Y0075805D01*
X0596617Y0075829D01*
X0596672Y0075850D01*
X0597056Y0075978D02*
X0599611Y0073933D01*
X0600634Y0074955D02*
X0600632Y0075014D01*
X0600627Y0075072D01*
X0600618Y0075130D01*
X0600605Y0075187D01*
X0600589Y0075244D01*
X0600569Y0075299D01*
X0600546Y0075353D01*
X0600520Y0075405D01*
X0600490Y0075456D01*
X0600458Y0075505D01*
X0600422Y0075552D01*
X0600384Y0075596D01*
X0600343Y0075638D01*
X0600299Y0075677D01*
X0600253Y0075714D01*
X0600205Y0075747D01*
X0600155Y0075778D01*
X0600103Y0075805D01*
X0600050Y0075829D01*
X0599995Y0075850D01*
X0600634Y0074955D02*
X0600632Y0074896D01*
X0600627Y0074838D01*
X0600618Y0074780D01*
X0600605Y0074723D01*
X0600589Y0074666D01*
X0600569Y0074611D01*
X0600546Y0074557D01*
X0600520Y0074505D01*
X0600490Y0074454D01*
X0600458Y0074405D01*
X0600422Y0074358D01*
X0600384Y0074314D01*
X0600343Y0074272D01*
X0600299Y0074233D01*
X0600253Y0074196D01*
X0600205Y0074163D01*
X0600155Y0074132D01*
X0600103Y0074105D01*
X0600050Y0074081D01*
X0599995Y0074060D01*
X0598333Y0076233D02*
X0598218Y0076231D01*
X0598104Y0076226D01*
X0597990Y0076217D01*
X0597876Y0076205D01*
X0597762Y0076190D01*
X0597649Y0076171D01*
X0597537Y0076148D01*
X0597425Y0076123D01*
X0597314Y0076093D01*
X0597204Y0076061D01*
X0597095Y0076025D01*
X0596987Y0075986D01*
X0596881Y0075944D01*
X0596776Y0075898D01*
X0596672Y0075850D01*
X0596033Y0074955D02*
X0596035Y0074896D01*
X0596040Y0074838D01*
X0596049Y0074780D01*
X0596062Y0074723D01*
X0596078Y0074666D01*
X0596098Y0074611D01*
X0596121Y0074557D01*
X0596147Y0074505D01*
X0596177Y0074454D01*
X0596209Y0074405D01*
X0596245Y0074358D01*
X0596283Y0074314D01*
X0596324Y0074272D01*
X0596368Y0074233D01*
X0596414Y0074196D01*
X0596462Y0074163D01*
X0596512Y0074132D01*
X0596564Y0074105D01*
X0596617Y0074081D01*
X0596672Y0074060D01*
X0598333Y0076233D02*
X0598448Y0076231D01*
X0598562Y0076226D01*
X0598676Y0076217D01*
X0598790Y0076205D01*
X0598904Y0076190D01*
X0599017Y0076171D01*
X0599129Y0076148D01*
X0599241Y0076123D01*
X0599352Y0076093D01*
X0599462Y0076061D01*
X0599571Y0076025D01*
X0599679Y0075986D01*
X0599785Y0075944D01*
X0599890Y0075898D01*
X0599994Y0075850D01*
X0598333Y0073677D02*
X0598218Y0073679D01*
X0598104Y0073684D01*
X0597990Y0073693D01*
X0597876Y0073705D01*
X0597762Y0073720D01*
X0597649Y0073739D01*
X0597537Y0073762D01*
X0597425Y0073787D01*
X0597314Y0073817D01*
X0597204Y0073849D01*
X0597095Y0073885D01*
X0596987Y0073924D01*
X0596881Y0073966D01*
X0596776Y0074012D01*
X0596672Y0074060D01*
X0600633Y0071733D02*
X0600633Y0069178D01*
X0600633Y0070455D02*
X0596033Y0070455D01*
X0597056Y0069178D01*
X0611033Y0069028D02*
X0611033Y0070305D01*
X0611033Y0069028D02*
X0615633Y0069028D01*
X0615633Y0070305D01*
X0615634Y0070305D02*
X0615632Y0070374D01*
X0615627Y0070443D01*
X0615617Y0070512D01*
X0615604Y0070580D01*
X0615587Y0070647D01*
X0615567Y0070713D01*
X0615543Y0070778D01*
X0615516Y0070842D01*
X0615485Y0070904D01*
X0615451Y0070964D01*
X0615414Y0071022D01*
X0615373Y0071078D01*
X0615330Y0071132D01*
X0615284Y0071184D01*
X0615235Y0071233D01*
X0615183Y0071279D01*
X0615129Y0071322D01*
X0615073Y0071363D01*
X0615015Y0071400D01*
X0614955Y0071434D01*
X0614893Y0071465D01*
X0614829Y0071492D01*
X0614764Y0071516D01*
X0614698Y0071536D01*
X0614631Y0071553D01*
X0614563Y0071566D01*
X0614494Y0071576D01*
X0614425Y0071581D01*
X0614356Y0071583D01*
X0612311Y0071583D01*
X0612242Y0071581D01*
X0612173Y0071576D01*
X0612104Y0071566D01*
X0612036Y0071553D01*
X0611969Y0071536D01*
X0611903Y0071516D01*
X0611838Y0071492D01*
X0611774Y0071465D01*
X0611712Y0071434D01*
X0611652Y0071400D01*
X0611594Y0071363D01*
X0611538Y0071322D01*
X0611484Y0071279D01*
X0611432Y0071233D01*
X0611383Y0071184D01*
X0611337Y0071132D01*
X0611294Y0071078D01*
X0611253Y0071022D01*
X0611216Y0070964D01*
X0611182Y0070904D01*
X0611151Y0070842D01*
X0611124Y0070778D01*
X0611100Y0070713D01*
X0611080Y0070647D01*
X0611063Y0070580D01*
X0611050Y0070512D01*
X0611040Y0070443D01*
X0611035Y0070374D01*
X0611033Y0070305D01*
X0619428Y0069690D02*
X0620834Y0068924D01*
X0620323Y0067008D02*
X0620233Y0067010D01*
X0620144Y0067015D01*
X0620055Y0067025D01*
X0619966Y0067038D01*
X0619878Y0067054D01*
X0619790Y0067075D01*
X0619704Y0067099D01*
X0619618Y0067126D01*
X0619534Y0067157D01*
X0619451Y0067192D01*
X0619370Y0067230D01*
X0619290Y0067271D01*
X0619213Y0067315D01*
X0619137Y0067363D01*
X0619063Y0067414D01*
X0618991Y0067468D01*
X0618922Y0067525D01*
X0618854Y0067584D01*
X0618790Y0067647D01*
X0620834Y0068923D02*
X0620888Y0068889D01*
X0620939Y0068852D01*
X0620988Y0068812D01*
X0621035Y0068769D01*
X0621078Y0068723D01*
X0621119Y0068675D01*
X0621157Y0068624D01*
X0621192Y0068571D01*
X0621224Y0068516D01*
X0621252Y0068459D01*
X0621276Y0068401D01*
X0621297Y0068341D01*
X0621314Y0068280D01*
X0621328Y0068218D01*
X0621337Y0068155D01*
X0621343Y0068092D01*
X0621345Y0068029D01*
X0621343Y0067967D01*
X0621338Y0067906D01*
X0621328Y0067845D01*
X0621315Y0067784D01*
X0621299Y0067725D01*
X0621279Y0067667D01*
X0621255Y0067610D01*
X0621228Y0067554D01*
X0621198Y0067500D01*
X0621164Y0067448D01*
X0621128Y0067399D01*
X0621088Y0067351D01*
X0621046Y0067306D01*
X0621001Y0067264D01*
X0620953Y0067224D01*
X0620904Y0067188D01*
X0620852Y0067154D01*
X0620798Y0067124D01*
X0620742Y0067097D01*
X0620685Y0067073D01*
X0620627Y0067053D01*
X0620568Y0067037D01*
X0620507Y0067024D01*
X0620446Y0067014D01*
X0620385Y0067009D01*
X0620323Y0067007D01*
X0623139Y0068285D02*
X0623139Y0070329D01*
X0623141Y0070399D01*
X0623147Y0070470D01*
X0623156Y0070539D01*
X0623170Y0070608D01*
X0623187Y0070677D01*
X0623208Y0070744D01*
X0623233Y0070810D01*
X0623261Y0070874D01*
X0623293Y0070937D01*
X0623328Y0070998D01*
X0623367Y0071057D01*
X0623408Y0071114D01*
X0623453Y0071168D01*
X0623501Y0071220D01*
X0623551Y0071269D01*
X0623605Y0071316D01*
X0623660Y0071359D01*
X0623718Y0071399D01*
X0623778Y0071436D01*
X0623840Y0071469D01*
X0623904Y0071499D01*
X0623969Y0071526D01*
X0624035Y0071549D01*
X0624103Y0071568D01*
X0624172Y0071583D01*
X0624241Y0071595D01*
X0624311Y0071603D01*
X0624382Y0071607D01*
X0624452Y0071607D01*
X0624523Y0071603D01*
X0624593Y0071595D01*
X0624662Y0071583D01*
X0624731Y0071568D01*
X0624799Y0071549D01*
X0624865Y0071526D01*
X0624930Y0071499D01*
X0624994Y0071469D01*
X0625056Y0071436D01*
X0625116Y0071399D01*
X0625174Y0071359D01*
X0625229Y0071316D01*
X0625283Y0071269D01*
X0625333Y0071220D01*
X0625381Y0071168D01*
X0625426Y0071114D01*
X0625467Y0071057D01*
X0625506Y0070998D01*
X0625541Y0070937D01*
X0625573Y0070874D01*
X0625601Y0070810D01*
X0625626Y0070744D01*
X0625647Y0070677D01*
X0625664Y0070608D01*
X0625678Y0070539D01*
X0625687Y0070470D01*
X0625693Y0070399D01*
X0625695Y0070329D01*
X0625695Y0068285D01*
X0625693Y0068215D01*
X0625687Y0068144D01*
X0625678Y0068075D01*
X0625664Y0068006D01*
X0625647Y0067937D01*
X0625626Y0067870D01*
X0625601Y0067804D01*
X0625573Y0067740D01*
X0625541Y0067677D01*
X0625506Y0067616D01*
X0625467Y0067557D01*
X0625426Y0067500D01*
X0625381Y0067446D01*
X0625333Y0067394D01*
X0625283Y0067345D01*
X0625229Y0067298D01*
X0625174Y0067255D01*
X0625116Y0067215D01*
X0625056Y0067178D01*
X0624994Y0067145D01*
X0624930Y0067115D01*
X0624865Y0067088D01*
X0624799Y0067065D01*
X0624731Y0067046D01*
X0624662Y0067031D01*
X0624593Y0067019D01*
X0624523Y0067011D01*
X0624452Y0067007D01*
X0624382Y0067007D01*
X0624311Y0067011D01*
X0624241Y0067019D01*
X0624172Y0067031D01*
X0624103Y0067046D01*
X0624035Y0067065D01*
X0623969Y0067088D01*
X0623904Y0067115D01*
X0623840Y0067145D01*
X0623778Y0067178D01*
X0623718Y0067215D01*
X0623660Y0067255D01*
X0623605Y0067298D01*
X0623551Y0067345D01*
X0623501Y0067394D01*
X0623453Y0067446D01*
X0623408Y0067500D01*
X0623367Y0067557D01*
X0623328Y0067616D01*
X0623293Y0067677D01*
X0623261Y0067740D01*
X0623233Y0067804D01*
X0623208Y0067870D01*
X0623187Y0067937D01*
X0623170Y0068006D01*
X0623156Y0068075D01*
X0623147Y0068144D01*
X0623141Y0068215D01*
X0623139Y0068285D01*
X0621089Y0071224D02*
X0621022Y0071272D01*
X0620954Y0071317D01*
X0620883Y0071359D01*
X0620810Y0071397D01*
X0620736Y0071433D01*
X0620661Y0071466D01*
X0620584Y0071495D01*
X0620506Y0071521D01*
X0620427Y0071544D01*
X0620347Y0071563D01*
X0620266Y0071579D01*
X0620185Y0071591D01*
X0620103Y0071600D01*
X0620021Y0071605D01*
X0619939Y0071607D01*
X0619877Y0071605D01*
X0619816Y0071600D01*
X0619755Y0071590D01*
X0619694Y0071577D01*
X0619635Y0071561D01*
X0619577Y0071541D01*
X0619520Y0071517D01*
X0619464Y0071490D01*
X0619410Y0071460D01*
X0619358Y0071426D01*
X0619309Y0071390D01*
X0619261Y0071350D01*
X0619216Y0071308D01*
X0619174Y0071263D01*
X0619135Y0071215D01*
X0619098Y0071166D01*
X0619064Y0071114D01*
X0619034Y0071060D01*
X0619007Y0071004D01*
X0618983Y0070947D01*
X0618963Y0070889D01*
X0618947Y0070830D01*
X0618934Y0070769D01*
X0618924Y0070708D01*
X0618919Y0070647D01*
X0618917Y0070585D01*
X0618919Y0070522D01*
X0618925Y0070459D01*
X0618934Y0070396D01*
X0618948Y0070334D01*
X0618965Y0070273D01*
X0618986Y0070213D01*
X0619010Y0070155D01*
X0619038Y0070098D01*
X0619070Y0070043D01*
X0619105Y0069990D01*
X0619143Y0069939D01*
X0619184Y0069891D01*
X0619227Y0069845D01*
X0619274Y0069802D01*
X0619323Y0069762D01*
X0619374Y0069725D01*
X0619428Y0069691D01*
X0627506Y0071607D02*
X0628528Y0071607D01*
X0628017Y0071607D02*
X0628017Y0067007D01*
X0627506Y0067007D02*
X0628528Y0067007D01*
X0630498Y0067007D02*
X0632543Y0067007D01*
X0630498Y0067007D02*
X0630498Y0071607D01*
X0615633Y0073678D02*
X0615633Y0075211D01*
X0615631Y0075273D01*
X0615626Y0075334D01*
X0615616Y0075395D01*
X0615603Y0075456D01*
X0615587Y0075515D01*
X0615567Y0075573D01*
X0615543Y0075630D01*
X0615516Y0075686D01*
X0615486Y0075740D01*
X0615452Y0075792D01*
X0615416Y0075841D01*
X0615376Y0075889D01*
X0615334Y0075934D01*
X0615289Y0075976D01*
X0615241Y0076016D01*
X0615192Y0076052D01*
X0615140Y0076086D01*
X0615086Y0076116D01*
X0615030Y0076143D01*
X0614973Y0076167D01*
X0614915Y0076187D01*
X0614856Y0076203D01*
X0614795Y0076216D01*
X0614734Y0076226D01*
X0614673Y0076231D01*
X0614611Y0076233D01*
X0614100Y0076233D01*
X0614038Y0076231D01*
X0613977Y0076226D01*
X0613916Y0076216D01*
X0613855Y0076203D01*
X0613796Y0076187D01*
X0613738Y0076167D01*
X0613681Y0076143D01*
X0613625Y0076116D01*
X0613571Y0076086D01*
X0613519Y0076052D01*
X0613470Y0076016D01*
X0613422Y0075976D01*
X0613377Y0075934D01*
X0613335Y0075889D01*
X0613295Y0075841D01*
X0613259Y0075792D01*
X0613225Y0075740D01*
X0613195Y0075686D01*
X0613168Y0075630D01*
X0613144Y0075573D01*
X0613124Y0075515D01*
X0613108Y0075456D01*
X0613095Y0075395D01*
X0613085Y0075334D01*
X0613080Y0075273D01*
X0613078Y0075211D01*
X0613078Y0073678D01*
X0611033Y0073678D01*
X0611033Y0076233D01*
X0599994Y0074060D02*
X0599890Y0074012D01*
X0599785Y0073966D01*
X0599679Y0073924D01*
X0599571Y0073885D01*
X0599462Y0073849D01*
X0599352Y0073817D01*
X0599241Y0073787D01*
X0599129Y0073762D01*
X0599017Y0073739D01*
X0598904Y0073720D01*
X0598790Y0073705D01*
X0598676Y0073693D01*
X0598562Y0073684D01*
X0598448Y0073679D01*
X0598333Y0073677D01*
X0515633Y0070305D02*
X0515633Y0069028D01*
X0511033Y0069028D01*
X0511033Y0070305D01*
X0511035Y0070374D01*
X0511040Y0070443D01*
X0511050Y0070512D01*
X0511063Y0070580D01*
X0511080Y0070647D01*
X0511100Y0070713D01*
X0511124Y0070778D01*
X0511151Y0070842D01*
X0511182Y0070904D01*
X0511216Y0070964D01*
X0511253Y0071022D01*
X0511294Y0071078D01*
X0511337Y0071132D01*
X0511383Y0071184D01*
X0511432Y0071233D01*
X0511484Y0071279D01*
X0511538Y0071322D01*
X0511594Y0071363D01*
X0511652Y0071400D01*
X0511712Y0071434D01*
X0511774Y0071465D01*
X0511838Y0071492D01*
X0511903Y0071516D01*
X0511969Y0071536D01*
X0512036Y0071553D01*
X0512104Y0071566D01*
X0512173Y0071576D01*
X0512242Y0071581D01*
X0512311Y0071583D01*
X0514356Y0071583D01*
X0514425Y0071581D01*
X0514494Y0071576D01*
X0514563Y0071566D01*
X0514631Y0071553D01*
X0514698Y0071536D01*
X0514764Y0071516D01*
X0514829Y0071492D01*
X0514893Y0071465D01*
X0514955Y0071434D01*
X0515015Y0071400D01*
X0515073Y0071363D01*
X0515129Y0071322D01*
X0515183Y0071279D01*
X0515235Y0071233D01*
X0515284Y0071184D01*
X0515330Y0071132D01*
X0515373Y0071078D01*
X0515414Y0071022D01*
X0515451Y0070964D01*
X0515485Y0070904D01*
X0515516Y0070842D01*
X0515543Y0070778D01*
X0515567Y0070713D01*
X0515587Y0070647D01*
X0515604Y0070580D01*
X0515617Y0070512D01*
X0515627Y0070443D01*
X0515632Y0070374D01*
X0515634Y0070305D01*
X0514356Y0073678D02*
X0513078Y0073678D01*
X0513078Y0075211D01*
X0513078Y0073678D02*
X0512989Y0073680D01*
X0512900Y0073686D01*
X0512811Y0073695D01*
X0512723Y0073709D01*
X0512636Y0073726D01*
X0512549Y0073748D01*
X0512463Y0073773D01*
X0512379Y0073801D01*
X0512296Y0073834D01*
X0512214Y0073870D01*
X0512134Y0073909D01*
X0512056Y0073952D01*
X0511980Y0073998D01*
X0511906Y0074048D01*
X0511834Y0074100D01*
X0511764Y0074156D01*
X0511697Y0074215D01*
X0511633Y0074277D01*
X0511571Y0074341D01*
X0511512Y0074408D01*
X0511456Y0074478D01*
X0511404Y0074550D01*
X0511354Y0074624D01*
X0511308Y0074700D01*
X0511265Y0074778D01*
X0511226Y0074858D01*
X0511190Y0074940D01*
X0511157Y0075023D01*
X0511129Y0075107D01*
X0511104Y0075193D01*
X0511082Y0075280D01*
X0511065Y0075367D01*
X0511051Y0075455D01*
X0511042Y0075544D01*
X0511036Y0075633D01*
X0511034Y0075722D01*
X0514100Y0076233D02*
X0514356Y0076233D01*
X0514100Y0076233D02*
X0514038Y0076231D01*
X0513977Y0076226D01*
X0513916Y0076216D01*
X0513855Y0076203D01*
X0513796Y0076187D01*
X0513738Y0076167D01*
X0513681Y0076143D01*
X0513625Y0076116D01*
X0513571Y0076086D01*
X0513519Y0076052D01*
X0513470Y0076016D01*
X0513422Y0075976D01*
X0513377Y0075934D01*
X0513335Y0075889D01*
X0513295Y0075841D01*
X0513259Y0075792D01*
X0513225Y0075740D01*
X0513195Y0075686D01*
X0513168Y0075630D01*
X0513144Y0075573D01*
X0513124Y0075515D01*
X0513108Y0075456D01*
X0513095Y0075395D01*
X0513085Y0075334D01*
X0513080Y0075273D01*
X0513078Y0075211D01*
X0514356Y0076233D02*
X0514426Y0076231D01*
X0514497Y0076225D01*
X0514566Y0076216D01*
X0514635Y0076202D01*
X0514704Y0076185D01*
X0514771Y0076164D01*
X0514837Y0076139D01*
X0514901Y0076111D01*
X0514964Y0076079D01*
X0515025Y0076044D01*
X0515084Y0076005D01*
X0515141Y0075964D01*
X0515195Y0075919D01*
X0515247Y0075871D01*
X0515296Y0075821D01*
X0515343Y0075767D01*
X0515386Y0075712D01*
X0515426Y0075654D01*
X0515463Y0075594D01*
X0515496Y0075532D01*
X0515526Y0075468D01*
X0515553Y0075403D01*
X0515576Y0075337D01*
X0515595Y0075269D01*
X0515610Y0075200D01*
X0515622Y0075131D01*
X0515630Y0075061D01*
X0515634Y0074990D01*
X0515634Y0074920D01*
X0515630Y0074849D01*
X0515622Y0074779D01*
X0515610Y0074710D01*
X0515595Y0074641D01*
X0515576Y0074573D01*
X0515553Y0074507D01*
X0515526Y0074442D01*
X0515496Y0074378D01*
X0515463Y0074316D01*
X0515426Y0074256D01*
X0515386Y0074198D01*
X0515343Y0074143D01*
X0515296Y0074089D01*
X0515247Y0074039D01*
X0515195Y0073991D01*
X0515141Y0073946D01*
X0515084Y0073905D01*
X0515025Y0073866D01*
X0514964Y0073831D01*
X0514901Y0073799D01*
X0514837Y0073771D01*
X0514771Y0073746D01*
X0514704Y0073725D01*
X0514635Y0073708D01*
X0514566Y0073694D01*
X0514497Y0073685D01*
X0514426Y0073679D01*
X0514356Y0073677D01*
X0500633Y0073678D02*
X0500633Y0076233D01*
X0500633Y0074955D02*
X0496033Y0074955D01*
X0497056Y0073678D01*
X0500633Y0071733D02*
X0500633Y0069178D01*
X0500633Y0070455D02*
X0496033Y0070455D01*
X0497056Y0069178D01*
X0497311Y0067083D02*
X0499356Y0067083D01*
X0499425Y0067081D01*
X0499494Y0067076D01*
X0499563Y0067066D01*
X0499631Y0067053D01*
X0499698Y0067036D01*
X0499764Y0067016D01*
X0499829Y0066992D01*
X0499893Y0066965D01*
X0499955Y0066934D01*
X0500015Y0066900D01*
X0500073Y0066863D01*
X0500129Y0066822D01*
X0500183Y0066779D01*
X0500235Y0066733D01*
X0500284Y0066684D01*
X0500330Y0066632D01*
X0500373Y0066578D01*
X0500414Y0066522D01*
X0500451Y0066464D01*
X0500485Y0066404D01*
X0500516Y0066342D01*
X0500543Y0066278D01*
X0500567Y0066213D01*
X0500587Y0066147D01*
X0500604Y0066080D01*
X0500617Y0066012D01*
X0500627Y0065943D01*
X0500632Y0065874D01*
X0500634Y0065805D01*
X0500633Y0065805D02*
X0500633Y0064528D01*
X0496033Y0064528D01*
X0496033Y0065805D01*
X0496035Y0065874D01*
X0496040Y0065943D01*
X0496050Y0066012D01*
X0496063Y0066080D01*
X0496080Y0066147D01*
X0496100Y0066213D01*
X0496124Y0066278D01*
X0496151Y0066342D01*
X0496182Y0066404D01*
X0496216Y0066464D01*
X0496253Y0066522D01*
X0496294Y0066578D01*
X0496337Y0066632D01*
X0496383Y0066684D01*
X0496432Y0066733D01*
X0496484Y0066779D01*
X0496538Y0066822D01*
X0496594Y0066863D01*
X0496652Y0066900D01*
X0496712Y0066934D01*
X0496774Y0066965D01*
X0496838Y0066992D01*
X0496903Y0067016D01*
X0496969Y0067036D01*
X0497036Y0067053D01*
X0497104Y0067066D01*
X0497173Y0067076D01*
X0497242Y0067081D01*
X0497311Y0067083D01*
X0485633Y0065805D02*
X0485633Y0064528D01*
X0481033Y0064528D01*
X0481033Y0065805D01*
X0481035Y0065874D01*
X0481040Y0065943D01*
X0481050Y0066012D01*
X0481063Y0066080D01*
X0481080Y0066147D01*
X0481100Y0066213D01*
X0481124Y0066278D01*
X0481151Y0066342D01*
X0481182Y0066404D01*
X0481216Y0066464D01*
X0481253Y0066522D01*
X0481294Y0066578D01*
X0481337Y0066632D01*
X0481383Y0066684D01*
X0481432Y0066733D01*
X0481484Y0066779D01*
X0481538Y0066822D01*
X0481594Y0066863D01*
X0481652Y0066900D01*
X0481712Y0066934D01*
X0481774Y0066965D01*
X0481838Y0066992D01*
X0481903Y0067016D01*
X0481969Y0067036D01*
X0482036Y0067053D01*
X0482104Y0067066D01*
X0482173Y0067076D01*
X0482242Y0067081D01*
X0482311Y0067083D01*
X0484356Y0067083D01*
X0484425Y0067081D01*
X0484494Y0067076D01*
X0484563Y0067066D01*
X0484631Y0067053D01*
X0484698Y0067036D01*
X0484764Y0067016D01*
X0484829Y0066992D01*
X0484893Y0066965D01*
X0484955Y0066934D01*
X0485015Y0066900D01*
X0485073Y0066863D01*
X0485129Y0066822D01*
X0485183Y0066779D01*
X0485235Y0066733D01*
X0485284Y0066684D01*
X0485330Y0066632D01*
X0485373Y0066578D01*
X0485414Y0066522D01*
X0485451Y0066464D01*
X0485485Y0066404D01*
X0485516Y0066342D01*
X0485543Y0066278D01*
X0485567Y0066213D01*
X0485587Y0066147D01*
X0485604Y0066080D01*
X0485617Y0066012D01*
X0485627Y0065943D01*
X0485632Y0065874D01*
X0485634Y0065805D01*
X0485633Y0069178D02*
X0485633Y0071733D01*
X0485633Y0070455D02*
X0481033Y0070455D01*
X0482056Y0069178D01*
X0470633Y0068922D02*
X0466033Y0070455D01*
X0470633Y0071989D01*
X0469483Y0071605D02*
X0469483Y0069305D01*
X0470633Y0073678D02*
X0470633Y0074955D01*
X0470634Y0074955D02*
X0470632Y0075025D01*
X0470626Y0075096D01*
X0470617Y0075165D01*
X0470603Y0075234D01*
X0470586Y0075303D01*
X0470565Y0075370D01*
X0470540Y0075436D01*
X0470512Y0075500D01*
X0470480Y0075563D01*
X0470445Y0075624D01*
X0470406Y0075683D01*
X0470365Y0075740D01*
X0470320Y0075794D01*
X0470272Y0075846D01*
X0470222Y0075895D01*
X0470168Y0075942D01*
X0470113Y0075985D01*
X0470055Y0076025D01*
X0469995Y0076062D01*
X0469933Y0076095D01*
X0469869Y0076125D01*
X0469804Y0076152D01*
X0469738Y0076175D01*
X0469670Y0076194D01*
X0469601Y0076209D01*
X0469532Y0076221D01*
X0469462Y0076229D01*
X0469391Y0076233D01*
X0469321Y0076233D01*
X0469250Y0076229D01*
X0469180Y0076221D01*
X0469111Y0076209D01*
X0469042Y0076194D01*
X0468974Y0076175D01*
X0468908Y0076152D01*
X0468843Y0076125D01*
X0468779Y0076095D01*
X0468717Y0076062D01*
X0468657Y0076025D01*
X0468599Y0075985D01*
X0468544Y0075942D01*
X0468490Y0075895D01*
X0468440Y0075846D01*
X0468392Y0075794D01*
X0468347Y0075740D01*
X0468306Y0075683D01*
X0468267Y0075624D01*
X0468232Y0075563D01*
X0468200Y0075500D01*
X0468172Y0075436D01*
X0468147Y0075370D01*
X0468126Y0075303D01*
X0468109Y0075234D01*
X0468095Y0075165D01*
X0468086Y0075096D01*
X0468080Y0075025D01*
X0468078Y0074955D01*
X0468078Y0075211D02*
X0468078Y0074189D01*
X0468078Y0075211D02*
X0468076Y0075274D01*
X0468070Y0075337D01*
X0468061Y0075399D01*
X0468047Y0075460D01*
X0468030Y0075521D01*
X0468009Y0075580D01*
X0467984Y0075638D01*
X0467956Y0075695D01*
X0467925Y0075749D01*
X0467890Y0075801D01*
X0467852Y0075852D01*
X0467811Y0075900D01*
X0467767Y0075945D01*
X0467721Y0075987D01*
X0467672Y0076027D01*
X0467621Y0076063D01*
X0467567Y0076096D01*
X0467512Y0076126D01*
X0467454Y0076152D01*
X0467396Y0076175D01*
X0467336Y0076194D01*
X0467275Y0076209D01*
X0467213Y0076221D01*
X0467150Y0076229D01*
X0467087Y0076233D01*
X0467025Y0076233D01*
X0466962Y0076229D01*
X0466899Y0076221D01*
X0466837Y0076209D01*
X0466776Y0076194D01*
X0466716Y0076175D01*
X0466658Y0076152D01*
X0466600Y0076126D01*
X0466545Y0076096D01*
X0466491Y0076063D01*
X0466440Y0076027D01*
X0466391Y0075987D01*
X0466345Y0075945D01*
X0466301Y0075900D01*
X0466260Y0075852D01*
X0466222Y0075801D01*
X0466187Y0075749D01*
X0466156Y0075695D01*
X0466128Y0075638D01*
X0466103Y0075580D01*
X0466082Y0075521D01*
X0466065Y0075460D01*
X0466051Y0075399D01*
X0466042Y0075337D01*
X0466036Y0075274D01*
X0466034Y0075211D01*
X0466033Y0075211D02*
X0466033Y0073678D01*
X0481033Y0073678D02*
X0481033Y0075211D01*
X0481034Y0075211D02*
X0481036Y0075274D01*
X0481042Y0075337D01*
X0481051Y0075399D01*
X0481065Y0075460D01*
X0481082Y0075521D01*
X0481103Y0075580D01*
X0481128Y0075638D01*
X0481156Y0075695D01*
X0481187Y0075749D01*
X0481222Y0075801D01*
X0481260Y0075852D01*
X0481301Y0075900D01*
X0481345Y0075945D01*
X0481391Y0075987D01*
X0481440Y0076027D01*
X0481491Y0076063D01*
X0481545Y0076096D01*
X0481600Y0076126D01*
X0481658Y0076152D01*
X0481716Y0076175D01*
X0481776Y0076194D01*
X0481837Y0076209D01*
X0481899Y0076221D01*
X0481962Y0076229D01*
X0482025Y0076233D01*
X0482087Y0076233D01*
X0482150Y0076229D01*
X0482213Y0076221D01*
X0482275Y0076209D01*
X0482336Y0076194D01*
X0482396Y0076175D01*
X0482454Y0076152D01*
X0482512Y0076126D01*
X0482567Y0076096D01*
X0482621Y0076063D01*
X0482672Y0076027D01*
X0482721Y0075987D01*
X0482767Y0075945D01*
X0482811Y0075900D01*
X0482852Y0075852D01*
X0482890Y0075801D01*
X0482925Y0075749D01*
X0482956Y0075695D01*
X0482984Y0075638D01*
X0483009Y0075580D01*
X0483030Y0075521D01*
X0483047Y0075460D01*
X0483061Y0075399D01*
X0483070Y0075337D01*
X0483076Y0075274D01*
X0483078Y0075211D01*
X0483078Y0074189D01*
X0483078Y0074955D02*
X0483080Y0075025D01*
X0483086Y0075096D01*
X0483095Y0075165D01*
X0483109Y0075234D01*
X0483126Y0075303D01*
X0483147Y0075370D01*
X0483172Y0075436D01*
X0483200Y0075500D01*
X0483232Y0075563D01*
X0483267Y0075624D01*
X0483306Y0075683D01*
X0483347Y0075740D01*
X0483392Y0075794D01*
X0483440Y0075846D01*
X0483490Y0075895D01*
X0483544Y0075942D01*
X0483599Y0075985D01*
X0483657Y0076025D01*
X0483717Y0076062D01*
X0483779Y0076095D01*
X0483843Y0076125D01*
X0483908Y0076152D01*
X0483974Y0076175D01*
X0484042Y0076194D01*
X0484111Y0076209D01*
X0484180Y0076221D01*
X0484250Y0076229D01*
X0484321Y0076233D01*
X0484391Y0076233D01*
X0484462Y0076229D01*
X0484532Y0076221D01*
X0484601Y0076209D01*
X0484670Y0076194D01*
X0484738Y0076175D01*
X0484804Y0076152D01*
X0484869Y0076125D01*
X0484933Y0076095D01*
X0484995Y0076062D01*
X0485055Y0076025D01*
X0485113Y0075985D01*
X0485168Y0075942D01*
X0485222Y0075895D01*
X0485272Y0075846D01*
X0485320Y0075794D01*
X0485365Y0075740D01*
X0485406Y0075683D01*
X0485445Y0075624D01*
X0485480Y0075563D01*
X0485512Y0075500D01*
X0485540Y0075436D01*
X0485565Y0075370D01*
X0485586Y0075303D01*
X0485603Y0075234D01*
X0485617Y0075165D01*
X0485626Y0075096D01*
X0485632Y0075025D01*
X0485634Y0074955D01*
X0485633Y0074955D02*
X0485633Y0073678D01*
M02*
