G75*
%MOIN*%
%OFA0B0*%
%FSLAX25Y25*%
%IPPOS*%
%LPD*%
%AMOC8*
5,1,8,0,0,1.08239X$1,22.5*
%
%ADD10C,0.07400*%
%ADD11C,0.06496*%
%ADD12C,0.01000*%
%ADD13C,0.02378*%
%ADD14C,0.02000*%
D10*
X0445833Y0053933D03*
X0455833Y0053933D03*
X0465833Y0053933D03*
X0475833Y0053933D03*
X0485833Y0053933D03*
X0495833Y0053933D03*
X0505833Y0053933D03*
X0515833Y0053933D03*
X0551333Y0053933D03*
X0561333Y0053933D03*
X0571333Y0053933D03*
X0581333Y0053933D03*
X0591333Y0053933D03*
X0601333Y0053933D03*
X0611333Y0053933D03*
X0621333Y0053933D03*
X0608333Y0033933D03*
X0598333Y0033933D03*
X0588333Y0033933D03*
X0578333Y0033933D03*
X0568333Y0033933D03*
X0558333Y0033933D03*
X0548333Y0033933D03*
X0538333Y0033933D03*
X0528333Y0033933D03*
X0518333Y0033933D03*
X0508333Y0033933D03*
X0498333Y0033933D03*
X0488333Y0033933D03*
X0478333Y0033933D03*
X0468333Y0033933D03*
X0458333Y0033933D03*
X0498333Y0113933D03*
X0508333Y0113933D03*
X0518333Y0113933D03*
X0528333Y0113933D03*
X0538333Y0113933D03*
X0548333Y0113933D03*
X0558333Y0113933D03*
X0568333Y0113933D03*
X0578333Y0113933D03*
X0588333Y0113933D03*
X0598333Y0113933D03*
X0608333Y0113933D03*
D11*
X0643274Y0093618D02*
X0649770Y0093618D01*
X0649770Y0083776D02*
X0643274Y0083776D01*
X0666207Y0077181D02*
X0666207Y0070685D01*
X0649770Y0064091D02*
X0643274Y0064091D01*
X0643274Y0054248D02*
X0649770Y0054248D01*
D12*
X0435633Y0033933D02*
X0435728Y0032729D01*
X0436473Y0030437D01*
X0437889Y0028488D01*
X0439838Y0027072D01*
X0442129Y0026328D01*
X0443333Y0026233D01*
X0543478Y0026233D01*
X0540359Y0029352D01*
X0539329Y0028926D01*
X0537337Y0028926D01*
X0535497Y0029688D01*
X0534089Y0031097D01*
X0533333Y0032920D01*
X0532578Y0031097D01*
X0531170Y0029688D01*
X0529329Y0028926D01*
X0527337Y0028926D01*
X0525497Y0029688D01*
X0524089Y0031097D01*
X0523333Y0032920D01*
X0522578Y0031097D01*
X0521170Y0029688D01*
X0519329Y0028926D01*
X0517337Y0028926D01*
X0515497Y0029688D01*
X0514089Y0031097D01*
X0513333Y0032920D01*
X0512578Y0031097D01*
X0511170Y0029688D01*
X0509329Y0028926D01*
X0507337Y0028926D01*
X0505497Y0029688D01*
X0504089Y0031097D01*
X0503333Y0032920D01*
X0502578Y0031097D01*
X0501170Y0029688D01*
X0499329Y0028926D01*
X0497337Y0028926D01*
X0495497Y0029688D01*
X0494089Y0031097D01*
X0493409Y0032738D01*
X0493405Y0032715D01*
X0493152Y0031937D01*
X0492781Y0031208D01*
X0492300Y0030545D01*
X0491721Y0029967D01*
X0491059Y0029486D01*
X0490329Y0029114D01*
X0489551Y0028861D01*
X0488833Y0028747D01*
X0488833Y0033433D01*
X0487833Y0033433D01*
X0487833Y0028747D01*
X0487116Y0028861D01*
X0486337Y0029114D01*
X0485608Y0029486D01*
X0484946Y0029967D01*
X0484367Y0030545D01*
X0483886Y0031208D01*
X0483514Y0031937D01*
X0483261Y0032715D01*
X0483258Y0032738D01*
X0482578Y0031097D01*
X0481170Y0029688D01*
X0479329Y0028926D01*
X0477337Y0028926D01*
X0475497Y0029688D01*
X0474089Y0031097D01*
X0473333Y0032920D01*
X0472578Y0031097D01*
X0471170Y0029688D01*
X0469329Y0028926D01*
X0467337Y0028926D01*
X0465497Y0029688D01*
X0464089Y0031097D01*
X0463333Y0032920D01*
X0462578Y0031097D01*
X0461170Y0029688D01*
X0459329Y0028926D01*
X0457337Y0028926D01*
X0455497Y0029688D01*
X0454089Y0031097D01*
X0453326Y0032937D01*
X0453326Y0034929D01*
X0454089Y0036769D01*
X0455497Y0038178D01*
X0457337Y0038940D01*
X0459329Y0038940D01*
X0461170Y0038178D01*
X0462578Y0036769D01*
X0463333Y0034946D01*
X0463753Y0035958D01*
X0449346Y0050365D01*
X0448670Y0049688D01*
X0446829Y0048926D01*
X0444837Y0048926D01*
X0442997Y0049688D01*
X0441589Y0051097D01*
X0440826Y0052937D01*
X0440826Y0054929D01*
X0441589Y0056769D01*
X0442997Y0058178D01*
X0444837Y0058940D01*
X0446829Y0058940D01*
X0447859Y0058514D01*
X0452585Y0063240D01*
X0560085Y0063240D01*
X0570971Y0074126D01*
X0569878Y0074126D01*
X0568526Y0075477D01*
X0568526Y0076185D01*
X0537585Y0107126D01*
X0536526Y0108185D01*
X0536526Y0109262D01*
X0535497Y0109688D01*
X0534089Y0111097D01*
X0533333Y0112920D01*
X0532578Y0111097D01*
X0531170Y0109688D01*
X0529329Y0108926D01*
X0527337Y0108926D01*
X0525497Y0109688D01*
X0524089Y0111097D01*
X0523333Y0112920D01*
X0522578Y0111097D01*
X0521170Y0109688D01*
X0519329Y0108926D01*
X0517337Y0108926D01*
X0515497Y0109688D01*
X0514089Y0111097D01*
X0513333Y0112920D01*
X0512578Y0111097D01*
X0511170Y0109688D01*
X0509329Y0108926D01*
X0507337Y0108926D01*
X0505497Y0109688D01*
X0504089Y0111097D01*
X0503333Y0112920D01*
X0502578Y0111097D01*
X0501170Y0109688D01*
X0499329Y0108926D01*
X0497337Y0108926D01*
X0495497Y0109688D01*
X0494089Y0111097D01*
X0493326Y0112937D01*
X0493326Y0114929D01*
X0494089Y0116769D01*
X0495497Y0118178D01*
X0497337Y0118940D01*
X0499329Y0118940D01*
X0501170Y0118178D01*
X0502578Y0116769D01*
X0503333Y0114946D01*
X0504089Y0116769D01*
X0505497Y0118178D01*
X0507337Y0118940D01*
X0509329Y0118940D01*
X0511170Y0118178D01*
X0512578Y0116769D01*
X0513333Y0114946D01*
X0514089Y0116769D01*
X0515497Y0118178D01*
X0517337Y0118940D01*
X0519329Y0118940D01*
X0521170Y0118178D01*
X0522578Y0116769D01*
X0523333Y0114946D01*
X0524089Y0116769D01*
X0525497Y0118178D01*
X0527337Y0118940D01*
X0529329Y0118940D01*
X0531170Y0118178D01*
X0532578Y0116769D01*
X0533333Y0114946D01*
X0534089Y0116769D01*
X0535497Y0118178D01*
X0537337Y0118940D01*
X0539329Y0118940D01*
X0541170Y0118178D01*
X0542578Y0116769D01*
X0543333Y0114946D01*
X0544089Y0116769D01*
X0545497Y0118178D01*
X0547337Y0118940D01*
X0549329Y0118940D01*
X0551170Y0118178D01*
X0552578Y0116769D01*
X0553333Y0114946D01*
X0554089Y0116769D01*
X0555497Y0118178D01*
X0557337Y0118940D01*
X0559329Y0118940D01*
X0561170Y0118178D01*
X0562578Y0116769D01*
X0563333Y0114946D01*
X0564089Y0116769D01*
X0565497Y0118178D01*
X0567337Y0118940D01*
X0569329Y0118940D01*
X0571170Y0118178D01*
X0572578Y0116769D01*
X0573333Y0114946D01*
X0574089Y0116769D01*
X0575497Y0118178D01*
X0577337Y0118940D01*
X0579329Y0118940D01*
X0581170Y0118178D01*
X0582578Y0116769D01*
X0583333Y0114946D01*
X0584089Y0116769D01*
X0585497Y0118178D01*
X0587337Y0118940D01*
X0589329Y0118940D01*
X0591170Y0118178D01*
X0592578Y0116769D01*
X0593333Y0114946D01*
X0594089Y0116769D01*
X0595497Y0118178D01*
X0597337Y0118940D01*
X0599329Y0118940D01*
X0601170Y0118178D01*
X0602578Y0116769D01*
X0603333Y0114946D01*
X0604089Y0116769D01*
X0605497Y0118178D01*
X0607337Y0118940D01*
X0609329Y0118940D01*
X0611170Y0118178D01*
X0612578Y0116769D01*
X0613340Y0114929D01*
X0613340Y0112937D01*
X0612578Y0111097D01*
X0611170Y0109688D01*
X0609329Y0108926D01*
X0607337Y0108926D01*
X0605497Y0109688D01*
X0604089Y0111097D01*
X0603333Y0112920D01*
X0602578Y0111097D01*
X0601170Y0109688D01*
X0599329Y0108926D01*
X0597337Y0108926D01*
X0595497Y0109688D01*
X0594089Y0111097D01*
X0593333Y0112920D01*
X0592578Y0111097D01*
X0591170Y0109688D01*
X0589329Y0108926D01*
X0587337Y0108926D01*
X0585497Y0109688D01*
X0584089Y0111097D01*
X0583333Y0112920D01*
X0582578Y0111097D01*
X0581170Y0109688D01*
X0580140Y0109262D01*
X0580140Y0108185D01*
X0579082Y0107126D01*
X0565829Y0093874D01*
X0565829Y0093437D01*
X0565449Y0092519D01*
X0564747Y0091817D01*
X0563830Y0091437D01*
X0562837Y0091437D01*
X0561919Y0091817D01*
X0561217Y0092519D01*
X0560837Y0093437D01*
X0560837Y0094430D01*
X0561217Y0095347D01*
X0561919Y0096049D01*
X0562837Y0096429D01*
X0563274Y0096429D01*
X0576230Y0109385D01*
X0575497Y0109688D01*
X0574089Y0111097D01*
X0573333Y0112920D01*
X0572578Y0111097D01*
X0571170Y0109688D01*
X0569329Y0108926D01*
X0567337Y0108926D01*
X0565497Y0109688D01*
X0564089Y0111097D01*
X0563333Y0112920D01*
X0562578Y0111097D01*
X0561170Y0109688D01*
X0559329Y0108926D01*
X0557337Y0108926D01*
X0555497Y0109688D01*
X0554089Y0111097D01*
X0553333Y0112920D01*
X0552578Y0111097D01*
X0551170Y0109688D01*
X0549329Y0108926D01*
X0547337Y0108926D01*
X0545497Y0109688D01*
X0544089Y0111097D01*
X0543333Y0112920D01*
X0542578Y0111097D01*
X0541170Y0109688D01*
X0540437Y0109385D01*
X0571082Y0078740D01*
X0571789Y0078740D01*
X0573140Y0077389D01*
X0573140Y0076296D01*
X0592585Y0095740D01*
X0639223Y0095740D01*
X0639413Y0096198D01*
X0640694Y0097480D01*
X0642368Y0098173D01*
X0650676Y0098173D01*
X0652351Y0097480D01*
X0653632Y0096198D01*
X0654325Y0094524D01*
X0654325Y0092712D01*
X0653632Y0091038D01*
X0652351Y0089756D01*
X0650676Y0089063D01*
X0642368Y0089063D01*
X0640694Y0089756D01*
X0639413Y0091038D01*
X0638962Y0092126D01*
X0594082Y0092126D01*
X0562640Y0060685D01*
X0561582Y0059626D01*
X0559082Y0059626D01*
X0555768Y0056312D01*
X0556258Y0055128D01*
X0556261Y0055151D01*
X0556514Y0055929D01*
X0556886Y0056658D01*
X0557367Y0057321D01*
X0557946Y0057899D01*
X0558608Y0058380D01*
X0559337Y0058752D01*
X0560116Y0059005D01*
X0560833Y0059119D01*
X0560833Y0054433D01*
X0561833Y0054433D01*
X0561833Y0059119D01*
X0562551Y0059005D01*
X0563329Y0058752D01*
X0564059Y0058380D01*
X0564721Y0057899D01*
X0565300Y0057321D01*
X0565781Y0056658D01*
X0566152Y0055929D01*
X0566405Y0055151D01*
X0566409Y0055128D01*
X0567089Y0056769D01*
X0568497Y0058178D01*
X0570337Y0058940D01*
X0572329Y0058940D01*
X0574170Y0058178D01*
X0575578Y0056769D01*
X0576333Y0054946D01*
X0577089Y0056769D01*
X0578497Y0058178D01*
X0580337Y0058940D01*
X0582329Y0058940D01*
X0584170Y0058178D01*
X0585578Y0056769D01*
X0586333Y0054946D01*
X0587089Y0056769D01*
X0588497Y0058178D01*
X0590337Y0058940D01*
X0592329Y0058940D01*
X0594170Y0058178D01*
X0595578Y0056769D01*
X0596333Y0054946D01*
X0597089Y0056769D01*
X0598497Y0058178D01*
X0600337Y0058940D01*
X0602329Y0058940D01*
X0604170Y0058178D01*
X0605578Y0056769D01*
X0606333Y0054946D01*
X0607089Y0056769D01*
X0608497Y0058178D01*
X0610337Y0058940D01*
X0612329Y0058940D01*
X0614170Y0058178D01*
X0615578Y0056769D01*
X0616333Y0054946D01*
X0617089Y0056769D01*
X0618497Y0058178D01*
X0620337Y0058940D01*
X0622329Y0058940D01*
X0624170Y0058178D01*
X0625578Y0056769D01*
X0626340Y0054929D01*
X0626340Y0052937D01*
X0625578Y0051097D01*
X0624170Y0049688D01*
X0622329Y0048926D01*
X0620337Y0048926D01*
X0618497Y0049688D01*
X0617089Y0051097D01*
X0616333Y0052920D01*
X0615578Y0051097D01*
X0614170Y0049688D01*
X0612329Y0048926D01*
X0610337Y0048926D01*
X0608497Y0049688D01*
X0607089Y0051097D01*
X0606333Y0052920D01*
X0605578Y0051097D01*
X0604170Y0049688D01*
X0602329Y0048926D01*
X0600337Y0048926D01*
X0598955Y0049499D01*
X0594082Y0044626D01*
X0580552Y0044626D01*
X0580136Y0044211D01*
X0580136Y0043188D01*
X0579078Y0042130D01*
X0579030Y0042130D01*
X0578721Y0041821D01*
X0577804Y0041441D01*
X0576811Y0041441D01*
X0575893Y0041821D01*
X0575191Y0042523D01*
X0574811Y0043441D01*
X0574811Y0044434D01*
X0574891Y0044626D01*
X0570196Y0044626D01*
X0576308Y0038514D01*
X0577337Y0038940D01*
X0579329Y0038940D01*
X0581170Y0038178D01*
X0582578Y0036769D01*
X0583333Y0034946D01*
X0584089Y0036769D01*
X0585497Y0038178D01*
X0587337Y0038940D01*
X0589329Y0038940D01*
X0591170Y0038178D01*
X0592578Y0036769D01*
X0593333Y0034946D01*
X0594089Y0036769D01*
X0595497Y0038178D01*
X0597337Y0038940D01*
X0599329Y0038940D01*
X0601170Y0038178D01*
X0602578Y0036769D01*
X0603333Y0034946D01*
X0604089Y0036769D01*
X0605497Y0038178D01*
X0607337Y0038940D01*
X0609329Y0038940D01*
X0611170Y0038178D01*
X0612578Y0036769D01*
X0613340Y0034929D01*
X0613340Y0032937D01*
X0612578Y0031097D01*
X0611170Y0029688D01*
X0609329Y0028926D01*
X0607337Y0028926D01*
X0605497Y0029688D01*
X0604089Y0031097D01*
X0603333Y0032920D01*
X0602578Y0031097D01*
X0601170Y0029688D01*
X0599329Y0028926D01*
X0597337Y0028926D01*
X0595497Y0029688D01*
X0594089Y0031097D01*
X0593333Y0032920D01*
X0592578Y0031097D01*
X0591170Y0029688D01*
X0589329Y0028926D01*
X0587337Y0028926D01*
X0585497Y0029688D01*
X0584089Y0031097D01*
X0583333Y0032920D01*
X0582578Y0031097D01*
X0581170Y0029688D01*
X0579329Y0028926D01*
X0577337Y0028926D01*
X0575497Y0029688D01*
X0574089Y0031097D01*
X0573333Y0032920D01*
X0572578Y0031097D01*
X0571170Y0029688D01*
X0569329Y0028926D01*
X0567337Y0028926D01*
X0565497Y0029688D01*
X0564089Y0031097D01*
X0563333Y0032920D01*
X0562578Y0031097D01*
X0561170Y0029688D01*
X0559329Y0028926D01*
X0557337Y0028926D01*
X0555497Y0029688D01*
X0554089Y0031097D01*
X0553333Y0032920D01*
X0552578Y0031097D01*
X0551170Y0029688D01*
X0549329Y0028926D01*
X0547337Y0028926D01*
X0545497Y0029688D01*
X0544089Y0031097D01*
X0543333Y0032920D01*
X0542914Y0031908D01*
X0546582Y0028240D01*
X0619984Y0028240D01*
X0623677Y0031933D01*
X0621941Y0031933D01*
X0619368Y0032999D01*
X0617399Y0034968D01*
X0616333Y0037541D01*
X0616333Y0040325D01*
X0617399Y0042898D01*
X0619368Y0044867D01*
X0621941Y0045933D01*
X0624726Y0045933D01*
X0627298Y0044867D01*
X0629268Y0042898D01*
X0630333Y0040325D01*
X0630333Y0038589D01*
X0641710Y0049966D01*
X0640694Y0050386D01*
X0639413Y0051668D01*
X0638719Y0053342D01*
X0638719Y0055154D01*
X0639413Y0056828D01*
X0640694Y0058110D01*
X0642368Y0058803D01*
X0650676Y0058803D01*
X0652351Y0058110D01*
X0653632Y0056828D01*
X0654325Y0055154D01*
X0654325Y0053342D01*
X0653632Y0051668D01*
X0652351Y0050386D01*
X0650676Y0049693D01*
X0646548Y0049693D01*
X0623088Y0026233D01*
X0668333Y0026233D01*
X0669991Y0026342D01*
X0673193Y0027200D01*
X0676065Y0028857D01*
X0678409Y0031202D01*
X0680067Y0034073D01*
X0680925Y0037275D01*
X0681033Y0038933D01*
X0681033Y0108933D01*
X0680925Y0110591D01*
X0680067Y0113793D01*
X0678409Y0116664D01*
X0676065Y0119009D01*
X0673193Y0120666D01*
X0669991Y0121524D01*
X0668333Y0121633D01*
X0443333Y0121633D01*
X0442129Y0121538D01*
X0439838Y0120794D01*
X0437889Y0119378D01*
X0436473Y0117429D01*
X0435728Y0115138D01*
X0435633Y0113933D01*
X0435633Y0033933D01*
X0435634Y0033918D02*
X0438449Y0033918D01*
X0439368Y0032999D02*
X0441941Y0031933D01*
X0444726Y0031933D01*
X0447298Y0032999D01*
X0449268Y0034968D01*
X0450333Y0037541D01*
X0450333Y0040325D01*
X0449268Y0042898D01*
X0447298Y0044867D01*
X0444726Y0045933D01*
X0441941Y0045933D01*
X0439368Y0044867D01*
X0437399Y0042898D01*
X0436333Y0040325D01*
X0436333Y0037541D01*
X0437399Y0034968D01*
X0439368Y0032999D01*
X0439559Y0032920D02*
X0435713Y0032920D01*
X0435990Y0031921D02*
X0453747Y0031921D01*
X0453333Y0032920D02*
X0447108Y0032920D01*
X0448218Y0033918D02*
X0453326Y0033918D01*
X0453326Y0034917D02*
X0449216Y0034917D01*
X0449660Y0035915D02*
X0453735Y0035915D01*
X0454233Y0036914D02*
X0450074Y0036914D01*
X0450333Y0037912D02*
X0455231Y0037912D01*
X0457266Y0038911D02*
X0450333Y0038911D01*
X0450333Y0039909D02*
X0459802Y0039909D01*
X0459400Y0038911D02*
X0460800Y0038911D01*
X0461435Y0037912D02*
X0461799Y0037912D01*
X0462434Y0036914D02*
X0462797Y0036914D01*
X0462932Y0035915D02*
X0463735Y0035915D01*
X0468333Y0033933D02*
X0448333Y0053933D01*
X0445833Y0053933D01*
X0453333Y0061433D01*
X0558333Y0061433D01*
X0550833Y0053933D01*
X0551333Y0053933D01*
X0546722Y0055885D02*
X0520444Y0055885D01*
X0520078Y0056769D02*
X0520840Y0054929D01*
X0520840Y0052937D01*
X0520078Y0051097D01*
X0518670Y0049688D01*
X0516829Y0048926D01*
X0514837Y0048926D01*
X0512997Y0049688D01*
X0511589Y0051097D01*
X0510833Y0052920D01*
X0510078Y0051097D01*
X0508670Y0049688D01*
X0506829Y0048926D01*
X0504837Y0048926D01*
X0502997Y0049688D01*
X0501589Y0051097D01*
X0500833Y0052920D01*
X0500414Y0051908D01*
X0504082Y0048240D01*
X0592585Y0048240D01*
X0593936Y0049592D01*
X0592329Y0048926D01*
X0590337Y0048926D01*
X0588497Y0049688D01*
X0587089Y0051097D01*
X0586333Y0052920D01*
X0585578Y0051097D01*
X0584170Y0049688D01*
X0582329Y0048926D01*
X0580337Y0048926D01*
X0578497Y0049688D01*
X0577089Y0051097D01*
X0576333Y0052920D01*
X0575578Y0051097D01*
X0574170Y0049688D01*
X0572329Y0048926D01*
X0570337Y0048926D01*
X0568497Y0049688D01*
X0567089Y0051097D01*
X0566409Y0052738D01*
X0566405Y0052715D01*
X0566152Y0051937D01*
X0565781Y0051208D01*
X0565300Y0050545D01*
X0564721Y0049967D01*
X0564059Y0049486D01*
X0563329Y0049114D01*
X0562551Y0048861D01*
X0561833Y0048747D01*
X0561833Y0053433D01*
X0560833Y0053433D01*
X0560833Y0048747D01*
X0560116Y0048861D01*
X0559337Y0049114D01*
X0558608Y0049486D01*
X0557946Y0049967D01*
X0557367Y0050545D01*
X0556886Y0051208D01*
X0556514Y0051937D01*
X0556261Y0052715D01*
X0556258Y0052738D01*
X0555578Y0051097D01*
X0554170Y0049688D01*
X0552329Y0048926D01*
X0550337Y0048926D01*
X0548497Y0049688D01*
X0547089Y0051097D01*
X0546326Y0052937D01*
X0546326Y0054929D01*
X0547089Y0056769D01*
X0548497Y0058178D01*
X0550337Y0058940D01*
X0552329Y0058940D01*
X0553005Y0058660D01*
X0553971Y0059626D01*
X0454082Y0059626D01*
X0450414Y0055958D01*
X0450758Y0055128D01*
X0450761Y0055151D01*
X0451014Y0055929D01*
X0451386Y0056658D01*
X0451867Y0057321D01*
X0452446Y0057899D01*
X0453108Y0058380D01*
X0453837Y0058752D01*
X0454616Y0059005D01*
X0455333Y0059119D01*
X0455333Y0054433D01*
X0456333Y0054433D01*
X0456333Y0059119D01*
X0457051Y0059005D01*
X0457829Y0058752D01*
X0458559Y0058380D01*
X0459221Y0057899D01*
X0459800Y0057321D01*
X0460281Y0056658D01*
X0460652Y0055929D01*
X0460905Y0055151D01*
X0460909Y0055128D01*
X0461589Y0056769D01*
X0462997Y0058178D01*
X0464837Y0058940D01*
X0466829Y0058940D01*
X0468670Y0058178D01*
X0470078Y0056769D01*
X0470833Y0054946D01*
X0471589Y0056769D01*
X0472997Y0058178D01*
X0474837Y0058940D01*
X0476829Y0058940D01*
X0478670Y0058178D01*
X0480078Y0056769D01*
X0480833Y0054946D01*
X0481589Y0056769D01*
X0482997Y0058178D01*
X0484837Y0058940D01*
X0486829Y0058940D01*
X0488670Y0058178D01*
X0490078Y0056769D01*
X0490833Y0054946D01*
X0491589Y0056769D01*
X0492997Y0058178D01*
X0494837Y0058940D01*
X0496829Y0058940D01*
X0498670Y0058178D01*
X0500078Y0056769D01*
X0500833Y0054946D01*
X0501589Y0056769D01*
X0502997Y0058178D01*
X0504837Y0058940D01*
X0506829Y0058940D01*
X0508670Y0058178D01*
X0510078Y0056769D01*
X0510833Y0054946D01*
X0511589Y0056769D01*
X0512997Y0058178D01*
X0514837Y0058940D01*
X0516829Y0058940D01*
X0518670Y0058178D01*
X0520078Y0056769D01*
X0519964Y0056884D02*
X0547203Y0056884D01*
X0548202Y0057882D02*
X0518965Y0057882D01*
X0516972Y0058881D02*
X0550194Y0058881D01*
X0552472Y0058881D02*
X0553226Y0058881D01*
X0557338Y0057882D02*
X0557929Y0057882D01*
X0558337Y0058881D02*
X0559734Y0058881D01*
X0560833Y0058881D02*
X0561833Y0058881D01*
X0561835Y0059879D02*
X0641538Y0059879D01*
X0642368Y0059535D02*
X0640694Y0060229D01*
X0639413Y0061510D01*
X0638719Y0063184D01*
X0638719Y0064997D01*
X0639413Y0066671D01*
X0640694Y0067952D01*
X0642368Y0068646D01*
X0650676Y0068646D01*
X0652351Y0067952D01*
X0653632Y0066671D01*
X0654325Y0064997D01*
X0654325Y0063184D01*
X0653632Y0061510D01*
X0652351Y0060229D01*
X0650676Y0059535D01*
X0642368Y0059535D01*
X0640467Y0057882D02*
X0624465Y0057882D01*
X0625464Y0056884D02*
X0639468Y0056884D01*
X0639022Y0055885D02*
X0625944Y0055885D01*
X0626340Y0054887D02*
X0638719Y0054887D01*
X0638719Y0053888D02*
X0626340Y0053888D01*
X0626321Y0052890D02*
X0638906Y0052890D01*
X0639320Y0051891D02*
X0625907Y0051891D01*
X0625374Y0050893D02*
X0640188Y0050893D01*
X0641639Y0049894D02*
X0624376Y0049894D01*
X0618291Y0049894D02*
X0614376Y0049894D01*
X0615374Y0050893D02*
X0617292Y0050893D01*
X0616759Y0051891D02*
X0615907Y0051891D01*
X0616321Y0052890D02*
X0616346Y0052890D01*
X0607292Y0050893D02*
X0605374Y0050893D01*
X0605907Y0051891D02*
X0606759Y0051891D01*
X0606346Y0052890D02*
X0606321Y0052890D01*
X0601333Y0053933D02*
X0600833Y0053933D01*
X0593333Y0046433D01*
X0583333Y0046433D01*
X0579803Y0046433D01*
X0577307Y0043937D01*
X0578329Y0043937D01*
X0580136Y0043903D02*
X0618404Y0043903D01*
X0617406Y0042905D02*
X0579853Y0042905D01*
X0578807Y0041906D02*
X0616988Y0041906D01*
X0616575Y0040908D02*
X0573914Y0040908D01*
X0572916Y0041906D02*
X0575808Y0041906D01*
X0575033Y0042905D02*
X0571917Y0042905D01*
X0570919Y0043903D02*
X0574811Y0043903D01*
X0568333Y0043933D02*
X0495833Y0043933D01*
X0485833Y0053933D01*
X0481222Y0055885D02*
X0480444Y0055885D01*
X0479964Y0056884D02*
X0481703Y0056884D01*
X0482702Y0057882D02*
X0478965Y0057882D01*
X0476972Y0058881D02*
X0484694Y0058881D01*
X0486972Y0058881D02*
X0494694Y0058881D01*
X0492702Y0057882D02*
X0488965Y0057882D01*
X0489964Y0056884D02*
X0491703Y0056884D01*
X0491222Y0055885D02*
X0490444Y0055885D01*
X0495833Y0053933D02*
X0503333Y0046433D01*
X0579803Y0046433D01*
X0578291Y0049894D02*
X0574376Y0049894D01*
X0575374Y0050893D02*
X0577292Y0050893D01*
X0576759Y0051891D02*
X0575907Y0051891D01*
X0576321Y0052890D02*
X0576346Y0052890D01*
X0567292Y0050893D02*
X0565552Y0050893D01*
X0566129Y0051891D02*
X0566759Y0051891D01*
X0561833Y0051891D02*
X0560833Y0051891D01*
X0560833Y0050893D02*
X0561833Y0050893D01*
X0561833Y0049894D02*
X0560833Y0049894D01*
X0560833Y0048896D02*
X0561833Y0048896D01*
X0562658Y0048896D02*
X0593241Y0048896D01*
X0596355Y0046899D02*
X0638643Y0046899D01*
X0639642Y0047897D02*
X0597353Y0047897D01*
X0598352Y0048896D02*
X0640640Y0048896D01*
X0643754Y0046899D02*
X0681033Y0046899D01*
X0681033Y0047897D02*
X0644753Y0047897D01*
X0645751Y0048896D02*
X0681033Y0048896D01*
X0681033Y0049894D02*
X0676938Y0049894D01*
X0676918Y0049886D02*
X0678521Y0050550D01*
X0679748Y0051777D01*
X0680412Y0053380D01*
X0680412Y0055116D01*
X0679748Y0056719D01*
X0678521Y0057946D01*
X0676918Y0058610D01*
X0675182Y0058610D01*
X0673579Y0057946D01*
X0672352Y0056719D01*
X0671688Y0055116D01*
X0671688Y0053380D01*
X0672352Y0051777D01*
X0673579Y0050550D01*
X0675182Y0049886D01*
X0676918Y0049886D01*
X0675162Y0049894D02*
X0667096Y0049894D01*
X0667075Y0049886D02*
X0668678Y0050550D01*
X0669905Y0051777D01*
X0670570Y0053380D01*
X0670570Y0055116D01*
X0669905Y0056719D01*
X0668678Y0057946D01*
X0667075Y0058610D01*
X0665340Y0058610D01*
X0663736Y0057946D01*
X0662509Y0056719D01*
X0661845Y0055116D01*
X0661845Y0053380D01*
X0662509Y0051777D01*
X0663736Y0050550D01*
X0665340Y0049886D01*
X0667075Y0049886D01*
X0665319Y0049894D02*
X0651163Y0049894D01*
X0652857Y0050893D02*
X0663393Y0050893D01*
X0662462Y0051891D02*
X0653725Y0051891D01*
X0654138Y0052890D02*
X0662048Y0052890D01*
X0661845Y0053888D02*
X0654325Y0053888D01*
X0654325Y0054887D02*
X0661845Y0054887D01*
X0662164Y0055885D02*
X0654023Y0055885D01*
X0653576Y0056884D02*
X0662674Y0056884D01*
X0663673Y0057882D02*
X0652578Y0057882D01*
X0651507Y0059879D02*
X0681033Y0059879D01*
X0681033Y0058881D02*
X0622472Y0058881D01*
X0620194Y0058881D02*
X0612472Y0058881D01*
X0614465Y0057882D02*
X0618202Y0057882D01*
X0617203Y0056884D02*
X0615464Y0056884D01*
X0615944Y0055885D02*
X0616722Y0055885D01*
X0607203Y0056884D02*
X0605464Y0056884D01*
X0605944Y0055885D02*
X0606722Y0055885D01*
X0608202Y0057882D02*
X0604465Y0057882D01*
X0602472Y0058881D02*
X0610194Y0058881D01*
X0600194Y0058881D02*
X0592472Y0058881D01*
X0594465Y0057882D02*
X0598202Y0057882D01*
X0597203Y0056884D02*
X0595464Y0056884D01*
X0595944Y0055885D02*
X0596722Y0055885D01*
X0587203Y0056884D02*
X0585464Y0056884D01*
X0585944Y0055885D02*
X0586722Y0055885D01*
X0577203Y0056884D02*
X0575464Y0056884D01*
X0575944Y0055885D02*
X0576722Y0055885D01*
X0578202Y0057882D02*
X0574465Y0057882D01*
X0572472Y0058881D02*
X0580194Y0058881D01*
X0582472Y0058881D02*
X0590194Y0058881D01*
X0588202Y0057882D02*
X0584465Y0057882D01*
X0570194Y0058881D02*
X0562933Y0058881D01*
X0561833Y0057882D02*
X0560833Y0057882D01*
X0560833Y0056884D02*
X0561833Y0056884D01*
X0561833Y0055885D02*
X0560833Y0055885D01*
X0560833Y0054887D02*
X0561833Y0054887D01*
X0565617Y0056884D02*
X0567203Y0056884D01*
X0566722Y0055885D02*
X0566167Y0055885D01*
X0557050Y0056884D02*
X0556340Y0056884D01*
X0556500Y0055885D02*
X0555944Y0055885D01*
X0555907Y0051891D02*
X0556538Y0051891D01*
X0557115Y0050893D02*
X0555374Y0050893D01*
X0554376Y0049894D02*
X0558045Y0049894D01*
X0560009Y0048896D02*
X0503426Y0048896D01*
X0502791Y0049894D02*
X0502428Y0049894D01*
X0501792Y0050893D02*
X0501429Y0050893D01*
X0501259Y0051891D02*
X0500431Y0051891D01*
X0500821Y0052890D02*
X0500846Y0052890D01*
X0509874Y0050893D02*
X0511792Y0050893D01*
X0511259Y0051891D02*
X0510407Y0051891D01*
X0510821Y0052890D02*
X0510846Y0052890D01*
X0511222Y0055885D02*
X0510444Y0055885D01*
X0509964Y0056884D02*
X0511703Y0056884D01*
X0512702Y0057882D02*
X0508965Y0057882D01*
X0506972Y0058881D02*
X0514694Y0058881D01*
X0504694Y0058881D02*
X0496972Y0058881D01*
X0498965Y0057882D02*
X0502702Y0057882D01*
X0501703Y0056884D02*
X0499964Y0056884D01*
X0500444Y0055885D02*
X0501222Y0055885D01*
X0519874Y0050893D02*
X0547292Y0050893D01*
X0546759Y0051891D02*
X0520407Y0051891D01*
X0520821Y0052890D02*
X0546346Y0052890D01*
X0546326Y0053888D02*
X0520840Y0053888D01*
X0520840Y0054887D02*
X0546326Y0054887D01*
X0560833Y0052890D02*
X0561833Y0052890D01*
X0564621Y0049894D02*
X0568291Y0049894D01*
X0548291Y0049894D02*
X0518876Y0049894D01*
X0512791Y0049894D02*
X0508876Y0049894D01*
X0482309Y0044902D02*
X0459920Y0044902D01*
X0458922Y0045900D02*
X0481310Y0045900D01*
X0480312Y0046899D02*
X0457923Y0046899D01*
X0456925Y0047897D02*
X0479313Y0047897D01*
X0478315Y0048896D02*
X0457158Y0048896D01*
X0457051Y0048861D02*
X0457829Y0049114D01*
X0458559Y0049486D01*
X0459221Y0049967D01*
X0459800Y0050545D01*
X0460281Y0051208D01*
X0460652Y0051937D01*
X0460905Y0052715D01*
X0460909Y0052738D01*
X0461589Y0051097D01*
X0462997Y0049688D01*
X0464837Y0048926D01*
X0466829Y0048926D01*
X0468670Y0049688D01*
X0470078Y0051097D01*
X0470833Y0052920D01*
X0471589Y0051097D01*
X0472997Y0049688D01*
X0474837Y0048926D01*
X0476829Y0048926D01*
X0477859Y0049352D01*
X0486526Y0040685D01*
X0487585Y0039626D01*
X0550085Y0039626D01*
X0553753Y0035958D01*
X0553333Y0034946D01*
X0552578Y0036769D01*
X0551170Y0038178D01*
X0549329Y0038940D01*
X0547337Y0038940D01*
X0545497Y0038178D01*
X0544089Y0036769D01*
X0543333Y0034946D01*
X0542578Y0036769D01*
X0541170Y0038178D01*
X0539329Y0038940D01*
X0537337Y0038940D01*
X0535497Y0038178D01*
X0534089Y0036769D01*
X0533333Y0034946D01*
X0532578Y0036769D01*
X0531170Y0038178D01*
X0529329Y0038940D01*
X0527337Y0038940D01*
X0525497Y0038178D01*
X0524089Y0036769D01*
X0523333Y0034946D01*
X0522578Y0036769D01*
X0521170Y0038178D01*
X0519329Y0038940D01*
X0517337Y0038940D01*
X0515497Y0038178D01*
X0514089Y0036769D01*
X0513333Y0034946D01*
X0512578Y0036769D01*
X0511170Y0038178D01*
X0509329Y0038940D01*
X0507337Y0038940D01*
X0505497Y0038178D01*
X0504089Y0036769D01*
X0503333Y0034946D01*
X0502578Y0036769D01*
X0501170Y0038178D01*
X0499329Y0038940D01*
X0497337Y0038940D01*
X0495497Y0038178D01*
X0494089Y0036769D01*
X0493409Y0035128D01*
X0493405Y0035151D01*
X0493152Y0035929D01*
X0492781Y0036658D01*
X0492300Y0037321D01*
X0491721Y0037899D01*
X0491059Y0038380D01*
X0490329Y0038752D01*
X0489551Y0039005D01*
X0488833Y0039119D01*
X0488833Y0034433D01*
X0487833Y0034433D01*
X0487833Y0039119D01*
X0487116Y0039005D01*
X0486337Y0038752D01*
X0485608Y0038380D01*
X0484946Y0037899D01*
X0484367Y0037321D01*
X0483886Y0036658D01*
X0483514Y0035929D01*
X0483261Y0035151D01*
X0483258Y0035128D01*
X0482578Y0036769D01*
X0481170Y0038178D01*
X0479329Y0038940D01*
X0477337Y0038940D01*
X0475497Y0038178D01*
X0474089Y0036769D01*
X0473333Y0034946D01*
X0472578Y0036769D01*
X0471170Y0038178D01*
X0469329Y0038940D01*
X0467337Y0038940D01*
X0466308Y0038514D01*
X0455333Y0049489D01*
X0455333Y0053433D01*
X0456333Y0053433D01*
X0456333Y0048747D01*
X0457051Y0048861D01*
X0456333Y0048896D02*
X0455926Y0048896D01*
X0456333Y0049894D02*
X0455333Y0049894D01*
X0455333Y0050893D02*
X0456333Y0050893D01*
X0456333Y0051891D02*
X0455333Y0051891D01*
X0455333Y0052890D02*
X0456333Y0052890D01*
X0460052Y0050893D02*
X0461792Y0050893D01*
X0461259Y0051891D02*
X0460629Y0051891D01*
X0469874Y0050893D02*
X0471792Y0050893D01*
X0471259Y0051891D02*
X0470407Y0051891D01*
X0470821Y0052890D02*
X0470846Y0052890D01*
X0475833Y0053933D02*
X0488333Y0041433D01*
X0550833Y0041433D01*
X0555833Y0036433D01*
X0555833Y0033933D01*
X0558333Y0033933D01*
X0553735Y0035915D02*
X0552932Y0035915D01*
X0552797Y0036914D02*
X0552434Y0036914D01*
X0551799Y0037912D02*
X0551435Y0037912D01*
X0550800Y0038911D02*
X0549400Y0038911D01*
X0547266Y0038911D02*
X0539400Y0038911D01*
X0537266Y0038911D02*
X0529400Y0038911D01*
X0527266Y0038911D02*
X0519400Y0038911D01*
X0517266Y0038911D02*
X0509400Y0038911D01*
X0507266Y0038911D02*
X0499400Y0038911D01*
X0497266Y0038911D02*
X0489841Y0038911D01*
X0488833Y0038911D02*
X0487833Y0038911D01*
X0487833Y0037912D02*
X0488833Y0037912D01*
X0488833Y0036914D02*
X0487833Y0036914D01*
X0487833Y0035915D02*
X0488833Y0035915D01*
X0488833Y0034917D02*
X0487833Y0034917D01*
X0487833Y0032920D02*
X0488833Y0032920D01*
X0488833Y0031921D02*
X0487833Y0031921D01*
X0487833Y0030923D02*
X0488833Y0030923D01*
X0488833Y0029924D02*
X0487833Y0029924D01*
X0487833Y0028926D02*
X0488833Y0028926D01*
X0489750Y0028926D02*
X0540785Y0028926D01*
X0541784Y0027927D02*
X0438661Y0027927D01*
X0437571Y0028926D02*
X0486917Y0028926D01*
X0485004Y0029924D02*
X0481405Y0029924D01*
X0482404Y0030923D02*
X0484093Y0030923D01*
X0483522Y0031921D02*
X0482920Y0031921D01*
X0475261Y0029924D02*
X0471405Y0029924D01*
X0472404Y0030923D02*
X0474263Y0030923D01*
X0473747Y0031921D02*
X0472920Y0031921D01*
X0473333Y0032920D02*
X0473333Y0032920D01*
X0464263Y0030923D02*
X0462404Y0030923D01*
X0462920Y0031921D02*
X0463747Y0031921D01*
X0463333Y0032920D02*
X0463333Y0032920D01*
X0454263Y0030923D02*
X0436315Y0030923D01*
X0436845Y0029924D02*
X0455261Y0029924D01*
X0461405Y0029924D02*
X0465261Y0029924D01*
X0440280Y0026929D02*
X0542782Y0026929D01*
X0545833Y0026433D02*
X0538333Y0033933D01*
X0533735Y0035915D02*
X0532932Y0035915D01*
X0532434Y0036914D02*
X0534233Y0036914D01*
X0535231Y0037912D02*
X0531435Y0037912D01*
X0525231Y0037912D02*
X0521435Y0037912D01*
X0522434Y0036914D02*
X0524233Y0036914D01*
X0523735Y0035915D02*
X0522932Y0035915D01*
X0514233Y0036914D02*
X0512434Y0036914D01*
X0512932Y0035915D02*
X0513735Y0035915D01*
X0504233Y0036914D02*
X0502434Y0036914D01*
X0502932Y0035915D02*
X0503735Y0035915D01*
X0505231Y0037912D02*
X0501435Y0037912D01*
X0495231Y0037912D02*
X0491703Y0037912D01*
X0492595Y0036914D02*
X0494233Y0036914D01*
X0493735Y0035915D02*
X0493157Y0035915D01*
X0484071Y0036914D02*
X0482434Y0036914D01*
X0482932Y0035915D02*
X0483510Y0035915D01*
X0484963Y0037912D02*
X0481435Y0037912D01*
X0479400Y0038911D02*
X0486825Y0038911D01*
X0487302Y0039909D02*
X0464913Y0039909D01*
X0465911Y0038911D02*
X0467266Y0038911D01*
X0469400Y0038911D02*
X0477266Y0038911D01*
X0475231Y0037912D02*
X0471435Y0037912D01*
X0472434Y0036914D02*
X0474233Y0036914D01*
X0473735Y0035915D02*
X0472932Y0035915D01*
X0492574Y0030923D02*
X0494263Y0030923D01*
X0493747Y0031921D02*
X0493144Y0031921D01*
X0491662Y0029924D02*
X0495261Y0029924D01*
X0501405Y0029924D02*
X0505261Y0029924D01*
X0504263Y0030923D02*
X0502404Y0030923D01*
X0502920Y0031921D02*
X0503747Y0031921D01*
X0503333Y0032920D02*
X0503333Y0032920D01*
X0511405Y0029924D02*
X0515261Y0029924D01*
X0514263Y0030923D02*
X0512404Y0030923D01*
X0512920Y0031921D02*
X0513747Y0031921D01*
X0513333Y0032920D02*
X0513333Y0032920D01*
X0522404Y0030923D02*
X0524263Y0030923D01*
X0523747Y0031921D02*
X0522920Y0031921D01*
X0523333Y0032920D02*
X0523333Y0032920D01*
X0532404Y0030923D02*
X0534263Y0030923D01*
X0533747Y0031921D02*
X0532920Y0031921D01*
X0533333Y0032920D02*
X0533333Y0032920D01*
X0542920Y0031921D02*
X0543747Y0031921D01*
X0543899Y0030923D02*
X0544263Y0030923D01*
X0544898Y0029924D02*
X0545261Y0029924D01*
X0545896Y0028926D02*
X0620670Y0028926D01*
X0621668Y0029924D02*
X0611405Y0029924D01*
X0612404Y0030923D02*
X0622667Y0030923D01*
X0623665Y0031921D02*
X0612920Y0031921D01*
X0613333Y0032920D02*
X0619559Y0032920D01*
X0618449Y0033918D02*
X0613340Y0033918D01*
X0613340Y0034917D02*
X0617450Y0034917D01*
X0617007Y0035915D02*
X0612932Y0035915D01*
X0612434Y0036914D02*
X0616593Y0036914D01*
X0616333Y0037912D02*
X0611435Y0037912D01*
X0609400Y0038911D02*
X0616333Y0038911D01*
X0616333Y0039909D02*
X0574913Y0039909D01*
X0575911Y0038911D02*
X0577266Y0038911D01*
X0579400Y0038911D02*
X0587266Y0038911D01*
X0589400Y0038911D02*
X0597266Y0038911D01*
X0599400Y0038911D02*
X0607266Y0038911D01*
X0605231Y0037912D02*
X0601435Y0037912D01*
X0602434Y0036914D02*
X0604233Y0036914D01*
X0603735Y0035915D02*
X0602932Y0035915D01*
X0594233Y0036914D02*
X0592434Y0036914D01*
X0592932Y0035915D02*
X0593735Y0035915D01*
X0584233Y0036914D02*
X0582434Y0036914D01*
X0582932Y0035915D02*
X0583735Y0035915D01*
X0578333Y0033933D02*
X0568333Y0043933D01*
X0581435Y0037912D02*
X0585231Y0037912D01*
X0591435Y0037912D02*
X0595231Y0037912D01*
X0593333Y0032920D02*
X0593333Y0032920D01*
X0592920Y0031921D02*
X0593747Y0031921D01*
X0594263Y0030923D02*
X0592404Y0030923D01*
X0591405Y0029924D02*
X0595261Y0029924D01*
X0601405Y0029924D02*
X0605261Y0029924D01*
X0604263Y0030923D02*
X0602404Y0030923D01*
X0602920Y0031921D02*
X0603747Y0031921D01*
X0603333Y0032920D02*
X0603333Y0032920D01*
X0585261Y0029924D02*
X0581405Y0029924D01*
X0582404Y0030923D02*
X0584263Y0030923D01*
X0583747Y0031921D02*
X0582920Y0031921D01*
X0583333Y0032920D02*
X0583333Y0032920D01*
X0574263Y0030923D02*
X0572404Y0030923D01*
X0572920Y0031921D02*
X0573747Y0031921D01*
X0573333Y0032920D02*
X0573333Y0032920D01*
X0564263Y0030923D02*
X0562404Y0030923D01*
X0562920Y0031921D02*
X0563747Y0031921D01*
X0563333Y0032920D02*
X0563333Y0032920D01*
X0561405Y0029924D02*
X0565261Y0029924D01*
X0571405Y0029924D02*
X0575261Y0029924D01*
X0555261Y0029924D02*
X0551405Y0029924D01*
X0552404Y0030923D02*
X0554263Y0030923D01*
X0553747Y0031921D02*
X0552920Y0031921D01*
X0553333Y0032920D02*
X0553333Y0032920D01*
X0543333Y0032920D02*
X0543333Y0032920D01*
X0542932Y0035915D02*
X0543735Y0035915D01*
X0544233Y0036914D02*
X0542434Y0036914D01*
X0541435Y0037912D02*
X0545231Y0037912D01*
X0515231Y0037912D02*
X0511435Y0037912D01*
X0486303Y0040908D02*
X0463914Y0040908D01*
X0462916Y0041906D02*
X0485305Y0041906D01*
X0484306Y0042905D02*
X0461917Y0042905D01*
X0460919Y0043903D02*
X0483307Y0043903D01*
X0472791Y0049894D02*
X0468876Y0049894D01*
X0462791Y0049894D02*
X0459121Y0049894D01*
X0451813Y0047897D02*
X0435633Y0047897D01*
X0435633Y0046899D02*
X0452812Y0046899D01*
X0453810Y0045900D02*
X0444805Y0045900D01*
X0447215Y0044902D02*
X0454809Y0044902D01*
X0455807Y0043903D02*
X0448263Y0043903D01*
X0449261Y0042905D02*
X0456806Y0042905D01*
X0457805Y0041906D02*
X0449679Y0041906D01*
X0450092Y0040908D02*
X0458803Y0040908D01*
X0438404Y0043903D02*
X0435633Y0043903D01*
X0435633Y0042905D02*
X0437406Y0042905D01*
X0436988Y0041906D02*
X0435633Y0041906D01*
X0435633Y0040908D02*
X0436575Y0040908D01*
X0436333Y0039909D02*
X0435633Y0039909D01*
X0435633Y0038911D02*
X0436333Y0038911D01*
X0436333Y0037912D02*
X0435633Y0037912D01*
X0435633Y0036914D02*
X0436593Y0036914D01*
X0437007Y0035915D02*
X0435633Y0035915D01*
X0435633Y0034917D02*
X0437450Y0034917D01*
X0435633Y0044902D02*
X0439451Y0044902D01*
X0441862Y0045900D02*
X0435633Y0045900D01*
X0435633Y0048896D02*
X0450815Y0048896D01*
X0449816Y0049894D02*
X0448876Y0049894D01*
X0442791Y0049894D02*
X0435633Y0049894D01*
X0435633Y0050893D02*
X0441792Y0050893D01*
X0441259Y0051891D02*
X0435633Y0051891D01*
X0435633Y0052890D02*
X0440846Y0052890D01*
X0440826Y0053888D02*
X0435633Y0053888D01*
X0435633Y0054887D02*
X0440826Y0054887D01*
X0441222Y0055885D02*
X0435633Y0055885D01*
X0435633Y0056884D02*
X0441703Y0056884D01*
X0442702Y0057882D02*
X0435633Y0057882D01*
X0435633Y0058881D02*
X0444694Y0058881D01*
X0446972Y0058881D02*
X0448226Y0058881D01*
X0449224Y0059879D02*
X0435633Y0059879D01*
X0435633Y0060878D02*
X0450223Y0060878D01*
X0451221Y0061877D02*
X0435633Y0061877D01*
X0435633Y0062875D02*
X0452220Y0062875D01*
X0453337Y0058881D02*
X0454234Y0058881D01*
X0455333Y0058881D02*
X0456333Y0058881D01*
X0456333Y0057882D02*
X0455333Y0057882D01*
X0455333Y0056884D02*
X0456333Y0056884D01*
X0456333Y0055885D02*
X0455333Y0055885D01*
X0455333Y0054887D02*
X0456333Y0054887D01*
X0460117Y0056884D02*
X0461703Y0056884D01*
X0461222Y0055885D02*
X0460667Y0055885D01*
X0469964Y0056884D02*
X0471703Y0056884D01*
X0471222Y0055885D02*
X0470444Y0055885D01*
X0468965Y0057882D02*
X0472702Y0057882D01*
X0474694Y0058881D02*
X0466972Y0058881D01*
X0464694Y0058881D02*
X0457433Y0058881D01*
X0459238Y0057882D02*
X0462702Y0057882D01*
X0452429Y0057882D02*
X0452338Y0057882D01*
X0451550Y0056884D02*
X0451340Y0056884D01*
X0451000Y0055885D02*
X0450444Y0055885D01*
X0435633Y0063874D02*
X0560718Y0063874D01*
X0561717Y0064872D02*
X0435633Y0064872D01*
X0435633Y0065871D02*
X0562715Y0065871D01*
X0563714Y0066869D02*
X0435633Y0066869D01*
X0435633Y0067868D02*
X0564712Y0067868D01*
X0565711Y0068866D02*
X0435633Y0068866D01*
X0435633Y0069865D02*
X0566709Y0069865D01*
X0567708Y0070863D02*
X0435633Y0070863D01*
X0435633Y0071862D02*
X0568706Y0071862D01*
X0569705Y0072860D02*
X0435633Y0072860D01*
X0435633Y0073859D02*
X0570703Y0073859D01*
X0569147Y0074857D02*
X0435633Y0074857D01*
X0435633Y0075856D02*
X0568526Y0075856D01*
X0567857Y0076854D02*
X0435633Y0076854D01*
X0435633Y0077853D02*
X0566858Y0077853D01*
X0565860Y0078851D02*
X0435633Y0078851D01*
X0435633Y0079850D02*
X0564861Y0079850D01*
X0563863Y0080848D02*
X0435633Y0080848D01*
X0435633Y0081847D02*
X0562864Y0081847D01*
X0561866Y0082845D02*
X0435633Y0082845D01*
X0435633Y0083844D02*
X0560867Y0083844D01*
X0559869Y0084842D02*
X0435633Y0084842D01*
X0435633Y0085841D02*
X0558870Y0085841D01*
X0557872Y0086839D02*
X0435633Y0086839D01*
X0435633Y0087838D02*
X0556873Y0087838D01*
X0555874Y0088836D02*
X0435633Y0088836D01*
X0435633Y0089835D02*
X0554876Y0089835D01*
X0553877Y0090833D02*
X0435633Y0090833D01*
X0435633Y0091832D02*
X0552879Y0091832D01*
X0551880Y0092830D02*
X0435633Y0092830D01*
X0435633Y0093829D02*
X0550882Y0093829D01*
X0549883Y0094827D02*
X0435633Y0094827D01*
X0435633Y0095826D02*
X0548885Y0095826D01*
X0547886Y0096824D02*
X0435633Y0096824D01*
X0435633Y0097823D02*
X0546888Y0097823D01*
X0545889Y0098821D02*
X0435633Y0098821D01*
X0435633Y0099820D02*
X0544891Y0099820D01*
X0543892Y0100818D02*
X0435633Y0100818D01*
X0435633Y0101817D02*
X0542894Y0101817D01*
X0541895Y0102815D02*
X0446856Y0102815D01*
X0447298Y0102999D02*
X0449268Y0104968D01*
X0450333Y0107541D01*
X0450333Y0110325D01*
X0449268Y0112898D01*
X0447298Y0114867D01*
X0444726Y0115933D01*
X0441941Y0115933D01*
X0439368Y0114867D01*
X0437399Y0112898D01*
X0436333Y0110325D01*
X0436333Y0107541D01*
X0437399Y0104968D01*
X0439368Y0102999D01*
X0441941Y0101933D01*
X0444726Y0101933D01*
X0447298Y0102999D01*
X0448114Y0103814D02*
X0540897Y0103814D01*
X0539898Y0104812D02*
X0449112Y0104812D01*
X0449617Y0105811D02*
X0538900Y0105811D01*
X0537901Y0106810D02*
X0450030Y0106810D01*
X0450333Y0107808D02*
X0536903Y0107808D01*
X0536526Y0108807D02*
X0450333Y0108807D01*
X0450333Y0109805D02*
X0495380Y0109805D01*
X0494382Y0110804D02*
X0450135Y0110804D01*
X0449722Y0111802D02*
X0493796Y0111802D01*
X0493383Y0112801D02*
X0449308Y0112801D01*
X0448367Y0113799D02*
X0493326Y0113799D01*
X0493326Y0114798D02*
X0447368Y0114798D01*
X0445056Y0115796D02*
X0493685Y0115796D01*
X0494114Y0116795D02*
X0436266Y0116795D01*
X0435942Y0115796D02*
X0441610Y0115796D01*
X0439298Y0114798D02*
X0435701Y0114798D01*
X0435633Y0113799D02*
X0438300Y0113799D01*
X0437359Y0112801D02*
X0435633Y0112801D01*
X0435633Y0111802D02*
X0436945Y0111802D01*
X0436531Y0110804D02*
X0435633Y0110804D01*
X0435633Y0109805D02*
X0436333Y0109805D01*
X0436333Y0108807D02*
X0435633Y0108807D01*
X0435633Y0107808D02*
X0436333Y0107808D01*
X0436636Y0106810D02*
X0435633Y0106810D01*
X0435633Y0105811D02*
X0437050Y0105811D01*
X0437554Y0104812D02*
X0435633Y0104812D01*
X0435633Y0103814D02*
X0438553Y0103814D01*
X0439811Y0102815D02*
X0435633Y0102815D01*
X0501286Y0109805D02*
X0505380Y0109805D01*
X0504382Y0110804D02*
X0502285Y0110804D01*
X0502870Y0111802D02*
X0503796Y0111802D01*
X0503383Y0112801D02*
X0503284Y0112801D01*
X0502981Y0115796D02*
X0503685Y0115796D01*
X0504114Y0116795D02*
X0502553Y0116795D01*
X0501554Y0117793D02*
X0505112Y0117793D01*
X0506979Y0118792D02*
X0499688Y0118792D01*
X0496979Y0118792D02*
X0437463Y0118792D01*
X0436737Y0117793D02*
X0495112Y0117793D01*
X0509688Y0118792D02*
X0516979Y0118792D01*
X0515112Y0117793D02*
X0511554Y0117793D01*
X0512553Y0116795D02*
X0514114Y0116795D01*
X0513685Y0115796D02*
X0512981Y0115796D01*
X0522553Y0116795D02*
X0524114Y0116795D01*
X0523685Y0115796D02*
X0522981Y0115796D01*
X0532553Y0116795D02*
X0534114Y0116795D01*
X0533685Y0115796D02*
X0532981Y0115796D01*
X0538333Y0113933D02*
X0538333Y0108933D01*
X0570833Y0076433D01*
X0572676Y0077853D02*
X0574697Y0077853D01*
X0573699Y0076854D02*
X0573140Y0076854D01*
X0576813Y0074857D02*
X0642183Y0074857D01*
X0642160Y0074801D02*
X0642160Y0073065D01*
X0642824Y0071462D01*
X0644051Y0070235D01*
X0645655Y0069571D01*
X0647390Y0069571D01*
X0648993Y0070235D01*
X0650220Y0071462D01*
X0650884Y0073065D01*
X0650884Y0074801D01*
X0650220Y0076404D01*
X0648993Y0077631D01*
X0647390Y0078295D01*
X0645655Y0078295D01*
X0644051Y0077631D01*
X0642824Y0076404D01*
X0642160Y0074801D01*
X0642160Y0073859D02*
X0575814Y0073859D01*
X0574816Y0072860D02*
X0642245Y0072860D01*
X0642659Y0071862D02*
X0573817Y0071862D01*
X0572819Y0070863D02*
X0643423Y0070863D01*
X0644945Y0069865D02*
X0571820Y0069865D01*
X0570822Y0068866D02*
X0661806Y0068866D01*
X0661807Y0068862D02*
X0662146Y0068197D01*
X0662586Y0067592D01*
X0663114Y0067063D01*
X0663719Y0066624D01*
X0664385Y0066285D01*
X0665095Y0066054D01*
X0665707Y0065957D01*
X0665707Y0073433D01*
X0661459Y0073433D01*
X0661459Y0070311D01*
X0661576Y0069573D01*
X0661807Y0068862D01*
X0661530Y0069865D02*
X0648099Y0069865D01*
X0649621Y0070863D02*
X0661459Y0070863D01*
X0661459Y0071862D02*
X0650386Y0071862D01*
X0650799Y0072860D02*
X0661459Y0072860D01*
X0665707Y0072860D02*
X0666707Y0072860D01*
X0666707Y0073433D02*
X0666707Y0065957D01*
X0667319Y0066054D01*
X0668030Y0066285D01*
X0668696Y0066624D01*
X0669300Y0067063D01*
X0669829Y0067592D01*
X0670268Y0068197D01*
X0670608Y0068862D01*
X0670838Y0069573D01*
X0670955Y0070311D01*
X0670955Y0073433D01*
X0666707Y0073433D01*
X0665707Y0073433D01*
X0665707Y0074433D01*
X0661459Y0074433D01*
X0661459Y0077555D01*
X0661576Y0078293D01*
X0661807Y0079004D01*
X0662146Y0079670D01*
X0662586Y0080274D01*
X0663114Y0080803D01*
X0663719Y0081242D01*
X0664385Y0081581D01*
X0665095Y0081812D01*
X0665707Y0081909D01*
X0665707Y0074433D01*
X0666707Y0074433D01*
X0666707Y0081909D01*
X0667319Y0081812D01*
X0668030Y0081581D01*
X0668696Y0081242D01*
X0669300Y0080803D01*
X0669829Y0080274D01*
X0670268Y0079670D01*
X0670608Y0079004D01*
X0670838Y0078293D01*
X0670955Y0077555D01*
X0670955Y0074433D01*
X0666707Y0074433D01*
X0666707Y0073433D01*
X0666707Y0073859D02*
X0681033Y0073859D01*
X0681033Y0074857D02*
X0670955Y0074857D01*
X0670955Y0075856D02*
X0681033Y0075856D01*
X0681033Y0076854D02*
X0670955Y0076854D01*
X0670908Y0077853D02*
X0681033Y0077853D01*
X0681033Y0078851D02*
X0670657Y0078851D01*
X0670137Y0079850D02*
X0681033Y0079850D01*
X0681033Y0080848D02*
X0669238Y0080848D01*
X0667101Y0081847D02*
X0681033Y0081847D01*
X0681033Y0082845D02*
X0654315Y0082845D01*
X0654325Y0082870D02*
X0654325Y0084682D01*
X0653632Y0086356D01*
X0652351Y0087637D01*
X0650676Y0088331D01*
X0642368Y0088331D01*
X0640694Y0087637D01*
X0639413Y0086356D01*
X0638719Y0084682D01*
X0638719Y0082870D01*
X0639413Y0081195D01*
X0640694Y0079914D01*
X0642368Y0079220D01*
X0650676Y0079220D01*
X0652351Y0079914D01*
X0653632Y0081195D01*
X0654325Y0082870D01*
X0654325Y0083844D02*
X0681033Y0083844D01*
X0681033Y0084842D02*
X0654259Y0084842D01*
X0653845Y0085841D02*
X0681033Y0085841D01*
X0681033Y0086839D02*
X0653149Y0086839D01*
X0651866Y0087838D02*
X0681033Y0087838D01*
X0681033Y0088836D02*
X0590792Y0088836D01*
X0589794Y0087838D02*
X0641178Y0087838D01*
X0639896Y0086839D02*
X0588795Y0086839D01*
X0587797Y0085841D02*
X0639199Y0085841D01*
X0638786Y0084842D02*
X0586798Y0084842D01*
X0585800Y0083844D02*
X0638719Y0083844D01*
X0638729Y0082845D02*
X0584801Y0082845D01*
X0583803Y0081847D02*
X0639143Y0081847D01*
X0639760Y0080848D02*
X0582804Y0080848D01*
X0581806Y0079850D02*
X0640849Y0079850D01*
X0644586Y0077853D02*
X0579809Y0077853D01*
X0580807Y0078851D02*
X0661758Y0078851D01*
X0661507Y0077853D02*
X0648459Y0077853D01*
X0649770Y0076854D02*
X0661459Y0076854D01*
X0661459Y0075856D02*
X0650448Y0075856D01*
X0650861Y0074857D02*
X0661459Y0074857D01*
X0665707Y0074857D02*
X0666707Y0074857D01*
X0666707Y0075856D02*
X0665707Y0075856D01*
X0665707Y0076854D02*
X0666707Y0076854D01*
X0666707Y0077853D02*
X0665707Y0077853D01*
X0665707Y0078851D02*
X0666707Y0078851D01*
X0666707Y0079850D02*
X0665707Y0079850D01*
X0665707Y0080848D02*
X0666707Y0080848D01*
X0666707Y0081847D02*
X0665707Y0081847D01*
X0665313Y0081847D02*
X0653902Y0081847D01*
X0653285Y0080848D02*
X0663177Y0080848D01*
X0662277Y0079850D02*
X0652195Y0079850D01*
X0643274Y0076854D02*
X0578810Y0076854D01*
X0577812Y0075856D02*
X0642597Y0075856D01*
X0650884Y0073859D02*
X0665707Y0073859D01*
X0665707Y0071862D02*
X0666707Y0071862D01*
X0666707Y0070863D02*
X0665707Y0070863D01*
X0665707Y0069865D02*
X0666707Y0069865D01*
X0666707Y0068866D02*
X0665707Y0068866D01*
X0665707Y0067868D02*
X0666707Y0067868D01*
X0666707Y0066869D02*
X0665707Y0066869D01*
X0663382Y0066869D02*
X0653434Y0066869D01*
X0653963Y0065871D02*
X0681033Y0065871D01*
X0681033Y0066869D02*
X0669033Y0066869D01*
X0670029Y0067868D02*
X0681033Y0067868D01*
X0681033Y0068866D02*
X0670609Y0068866D01*
X0670885Y0069865D02*
X0681033Y0069865D01*
X0681033Y0070863D02*
X0670955Y0070863D01*
X0670955Y0071862D02*
X0681033Y0071862D01*
X0681033Y0072860D02*
X0670955Y0072860D01*
X0662385Y0067868D02*
X0652435Y0067868D01*
X0654325Y0064872D02*
X0681033Y0064872D01*
X0681033Y0063874D02*
X0654325Y0063874D01*
X0654197Y0062875D02*
X0681033Y0062875D01*
X0681033Y0061877D02*
X0653784Y0061877D01*
X0653000Y0060878D02*
X0681033Y0060878D01*
X0681033Y0057882D02*
X0678585Y0057882D01*
X0679583Y0056884D02*
X0681033Y0056884D01*
X0681033Y0055885D02*
X0680093Y0055885D01*
X0680412Y0054887D02*
X0681033Y0054887D01*
X0681033Y0053888D02*
X0680412Y0053888D01*
X0680209Y0052890D02*
X0681033Y0052890D01*
X0681033Y0051891D02*
X0679795Y0051891D01*
X0678864Y0050893D02*
X0681033Y0050893D01*
X0673236Y0050893D02*
X0669021Y0050893D01*
X0669953Y0051891D02*
X0672304Y0051891D01*
X0671891Y0052890D02*
X0670366Y0052890D01*
X0670570Y0053888D02*
X0671688Y0053888D01*
X0671688Y0054887D02*
X0670570Y0054887D01*
X0670251Y0055885D02*
X0672006Y0055885D01*
X0672517Y0056884D02*
X0669741Y0056884D01*
X0668742Y0057882D02*
X0673515Y0057882D01*
X0646522Y0054248D02*
X0646522Y0052223D01*
X0620733Y0026433D01*
X0618333Y0026433D01*
X0545833Y0026433D01*
X0535261Y0029924D02*
X0531405Y0029924D01*
X0525261Y0029924D02*
X0521405Y0029924D01*
X0594358Y0044902D02*
X0619451Y0044902D01*
X0621862Y0045900D02*
X0595356Y0045900D01*
X0588291Y0049894D02*
X0584376Y0049894D01*
X0585374Y0050893D02*
X0587292Y0050893D01*
X0586759Y0051891D02*
X0585907Y0051891D01*
X0586321Y0052890D02*
X0586346Y0052890D01*
X0604376Y0049894D02*
X0608291Y0049894D01*
X0624805Y0045900D02*
X0637645Y0045900D01*
X0636646Y0044902D02*
X0627215Y0044902D01*
X0628263Y0043903D02*
X0635647Y0043903D01*
X0634649Y0042905D02*
X0629261Y0042905D01*
X0629679Y0041906D02*
X0633650Y0041906D01*
X0632652Y0040908D02*
X0630092Y0040908D01*
X0630333Y0039909D02*
X0631653Y0039909D01*
X0630655Y0038911D02*
X0630333Y0038911D01*
X0633769Y0036914D02*
X0680828Y0036914D01*
X0680966Y0037912D02*
X0634768Y0037912D01*
X0635766Y0038911D02*
X0681032Y0038911D01*
X0681033Y0039909D02*
X0636765Y0039909D01*
X0637763Y0040908D02*
X0681033Y0040908D01*
X0681033Y0041906D02*
X0638762Y0041906D01*
X0639760Y0042905D02*
X0681033Y0042905D01*
X0681033Y0043903D02*
X0640759Y0043903D01*
X0641757Y0044902D02*
X0681033Y0044902D01*
X0681033Y0045900D02*
X0642756Y0045900D01*
X0632771Y0035915D02*
X0680560Y0035915D01*
X0680293Y0034917D02*
X0631772Y0034917D01*
X0630774Y0033918D02*
X0679977Y0033918D01*
X0679401Y0032920D02*
X0629775Y0032920D01*
X0628777Y0031921D02*
X0678824Y0031921D01*
X0678130Y0030923D02*
X0627778Y0030923D01*
X0626779Y0029924D02*
X0677131Y0029924D01*
X0676133Y0028926D02*
X0625781Y0028926D01*
X0624782Y0027927D02*
X0674453Y0027927D01*
X0672181Y0026929D02*
X0623784Y0026929D01*
X0568202Y0057882D02*
X0564738Y0057882D01*
X0562834Y0060878D02*
X0640045Y0060878D01*
X0639261Y0061877D02*
X0563832Y0061877D01*
X0564831Y0062875D02*
X0638847Y0062875D01*
X0638719Y0063874D02*
X0565829Y0063874D01*
X0566828Y0064872D02*
X0638719Y0064872D01*
X0639081Y0065871D02*
X0567826Y0065871D01*
X0568825Y0066869D02*
X0639611Y0066869D01*
X0640609Y0067868D02*
X0569823Y0067868D01*
X0560833Y0061433D02*
X0558333Y0061433D01*
X0560833Y0061433D02*
X0593333Y0093933D01*
X0645833Y0093933D01*
X0646522Y0093618D01*
X0639084Y0091832D02*
X0593788Y0091832D01*
X0592789Y0090833D02*
X0639617Y0090833D01*
X0640616Y0089835D02*
X0591791Y0089835D01*
X0588677Y0091832D02*
X0564762Y0091832D01*
X0565578Y0092830D02*
X0589675Y0092830D01*
X0590674Y0093829D02*
X0565829Y0093829D01*
X0566783Y0094827D02*
X0591672Y0094827D01*
X0587678Y0090833D02*
X0558989Y0090833D01*
X0559987Y0089835D02*
X0586679Y0089835D01*
X0585681Y0088836D02*
X0560986Y0088836D01*
X0561984Y0087838D02*
X0584682Y0087838D01*
X0583684Y0086839D02*
X0562983Y0086839D01*
X0563981Y0085841D02*
X0582685Y0085841D01*
X0581687Y0084842D02*
X0564980Y0084842D01*
X0565978Y0083844D02*
X0580688Y0083844D01*
X0579690Y0082845D02*
X0566977Y0082845D01*
X0567975Y0081847D02*
X0578691Y0081847D01*
X0577693Y0080848D02*
X0568974Y0080848D01*
X0569972Y0079850D02*
X0576694Y0079850D01*
X0575696Y0078851D02*
X0570971Y0078851D01*
X0561905Y0091832D02*
X0557990Y0091832D01*
X0556992Y0092830D02*
X0561088Y0092830D01*
X0560837Y0093829D02*
X0555993Y0093829D01*
X0554995Y0094827D02*
X0561002Y0094827D01*
X0561696Y0095826D02*
X0553996Y0095826D01*
X0552998Y0096824D02*
X0563669Y0096824D01*
X0564668Y0097823D02*
X0551999Y0097823D01*
X0551001Y0098821D02*
X0565666Y0098821D01*
X0566665Y0099820D02*
X0550002Y0099820D01*
X0549004Y0100818D02*
X0567663Y0100818D01*
X0568662Y0101817D02*
X0548005Y0101817D01*
X0547007Y0102815D02*
X0569660Y0102815D01*
X0570659Y0103814D02*
X0546008Y0103814D01*
X0545009Y0104812D02*
X0571657Y0104812D01*
X0572656Y0105811D02*
X0544011Y0105811D01*
X0543012Y0106810D02*
X0573654Y0106810D01*
X0574653Y0107808D02*
X0542014Y0107808D01*
X0541015Y0108807D02*
X0575651Y0108807D01*
X0575380Y0109805D02*
X0571286Y0109805D01*
X0572285Y0110804D02*
X0574382Y0110804D01*
X0573796Y0111802D02*
X0572870Y0111802D01*
X0573284Y0112801D02*
X0573383Y0112801D01*
X0578333Y0113933D02*
X0578333Y0108933D01*
X0563333Y0093933D01*
X0567782Y0095826D02*
X0639258Y0095826D01*
X0640039Y0096824D02*
X0568780Y0096824D01*
X0569779Y0097823D02*
X0641522Y0097823D01*
X0651522Y0097823D02*
X0664960Y0097823D01*
X0665340Y0097980D02*
X0663736Y0097316D01*
X0662509Y0096089D01*
X0661845Y0094486D01*
X0661845Y0092750D01*
X0662509Y0091147D01*
X0663736Y0089920D01*
X0665340Y0089256D01*
X0667075Y0089256D01*
X0668678Y0089920D01*
X0669905Y0091147D01*
X0670570Y0092750D01*
X0670570Y0094486D01*
X0669905Y0096089D01*
X0668678Y0097316D01*
X0667075Y0097980D01*
X0665340Y0097980D01*
X0667455Y0097823D02*
X0674802Y0097823D01*
X0675182Y0097980D02*
X0673579Y0097316D01*
X0672352Y0096089D01*
X0671688Y0094486D01*
X0671688Y0092750D01*
X0672352Y0091147D01*
X0673579Y0089920D01*
X0675182Y0089256D01*
X0676918Y0089256D01*
X0678521Y0089920D01*
X0679748Y0091147D01*
X0680412Y0092750D01*
X0680412Y0094486D01*
X0679748Y0096089D01*
X0678521Y0097316D01*
X0676918Y0097980D01*
X0675182Y0097980D01*
X0677298Y0097823D02*
X0681033Y0097823D01*
X0681033Y0098821D02*
X0570777Y0098821D01*
X0571776Y0099820D02*
X0681033Y0099820D01*
X0681033Y0100818D02*
X0572774Y0100818D01*
X0573773Y0101817D02*
X0681033Y0101817D01*
X0681033Y0102815D02*
X0626856Y0102815D01*
X0627298Y0102999D02*
X0629268Y0104968D01*
X0630333Y0107541D01*
X0630333Y0110325D01*
X0629268Y0112898D01*
X0627298Y0114867D01*
X0624726Y0115933D01*
X0621941Y0115933D01*
X0619368Y0114867D01*
X0617399Y0112898D01*
X0616333Y0110325D01*
X0616333Y0107541D01*
X0617399Y0104968D01*
X0619368Y0102999D01*
X0621941Y0101933D01*
X0624726Y0101933D01*
X0627298Y0102999D01*
X0628114Y0103814D02*
X0681033Y0103814D01*
X0681033Y0104812D02*
X0629112Y0104812D01*
X0629617Y0105811D02*
X0681033Y0105811D01*
X0681033Y0106810D02*
X0630030Y0106810D01*
X0630333Y0107808D02*
X0681033Y0107808D01*
X0681033Y0108807D02*
X0630333Y0108807D01*
X0630333Y0109805D02*
X0680976Y0109805D01*
X0680868Y0110804D02*
X0630135Y0110804D01*
X0629722Y0111802D02*
X0680600Y0111802D01*
X0680333Y0112801D02*
X0629308Y0112801D01*
X0628367Y0113799D02*
X0680063Y0113799D01*
X0679487Y0114798D02*
X0627368Y0114798D01*
X0625056Y0115796D02*
X0678910Y0115796D01*
X0678279Y0116795D02*
X0612553Y0116795D01*
X0612981Y0115796D02*
X0621610Y0115796D01*
X0619298Y0114798D02*
X0613340Y0114798D01*
X0613340Y0113799D02*
X0618300Y0113799D01*
X0617359Y0112801D02*
X0613284Y0112801D01*
X0612870Y0111802D02*
X0616945Y0111802D01*
X0616531Y0110804D02*
X0612285Y0110804D01*
X0611286Y0109805D02*
X0616333Y0109805D01*
X0616333Y0108807D02*
X0580140Y0108807D01*
X0579764Y0107808D02*
X0616333Y0107808D01*
X0616636Y0106810D02*
X0578765Y0106810D01*
X0577767Y0105811D02*
X0617050Y0105811D01*
X0617554Y0104812D02*
X0576768Y0104812D01*
X0575770Y0103814D02*
X0618553Y0103814D01*
X0619811Y0102815D02*
X0574771Y0102815D01*
X0581286Y0109805D02*
X0585380Y0109805D01*
X0584382Y0110804D02*
X0582285Y0110804D01*
X0582870Y0111802D02*
X0583796Y0111802D01*
X0583383Y0112801D02*
X0583284Y0112801D01*
X0582981Y0115796D02*
X0583685Y0115796D01*
X0584114Y0116795D02*
X0582553Y0116795D01*
X0581554Y0117793D02*
X0585112Y0117793D01*
X0586979Y0118792D02*
X0579688Y0118792D01*
X0576979Y0118792D02*
X0569688Y0118792D01*
X0571554Y0117793D02*
X0575112Y0117793D01*
X0574114Y0116795D02*
X0572553Y0116795D01*
X0572981Y0115796D02*
X0573685Y0115796D01*
X0564114Y0116795D02*
X0562553Y0116795D01*
X0562981Y0115796D02*
X0563685Y0115796D01*
X0565112Y0117793D02*
X0561554Y0117793D01*
X0559688Y0118792D02*
X0566979Y0118792D01*
X0556979Y0118792D02*
X0549688Y0118792D01*
X0551554Y0117793D02*
X0555112Y0117793D01*
X0554114Y0116795D02*
X0552553Y0116795D01*
X0552981Y0115796D02*
X0553685Y0115796D01*
X0544114Y0116795D02*
X0542553Y0116795D01*
X0542981Y0115796D02*
X0543685Y0115796D01*
X0545112Y0117793D02*
X0541554Y0117793D01*
X0539688Y0118792D02*
X0546979Y0118792D01*
X0536979Y0118792D02*
X0529688Y0118792D01*
X0531554Y0117793D02*
X0535112Y0117793D01*
X0526979Y0118792D02*
X0519688Y0118792D01*
X0521554Y0117793D02*
X0525112Y0117793D01*
X0523383Y0112801D02*
X0523284Y0112801D01*
X0522870Y0111802D02*
X0523796Y0111802D01*
X0524382Y0110804D02*
X0522285Y0110804D01*
X0521286Y0109805D02*
X0525380Y0109805D01*
X0531286Y0109805D02*
X0535380Y0109805D01*
X0534382Y0110804D02*
X0532285Y0110804D01*
X0532870Y0111802D02*
X0533796Y0111802D01*
X0533383Y0112801D02*
X0533284Y0112801D01*
X0542285Y0110804D02*
X0544382Y0110804D01*
X0543796Y0111802D02*
X0542870Y0111802D01*
X0543284Y0112801D02*
X0543383Y0112801D01*
X0552285Y0110804D02*
X0554382Y0110804D01*
X0553796Y0111802D02*
X0552870Y0111802D01*
X0553284Y0112801D02*
X0553383Y0112801D01*
X0555380Y0109805D02*
X0551286Y0109805D01*
X0545380Y0109805D02*
X0541286Y0109805D01*
X0561286Y0109805D02*
X0565380Y0109805D01*
X0564382Y0110804D02*
X0562285Y0110804D01*
X0562870Y0111802D02*
X0563796Y0111802D01*
X0563383Y0112801D02*
X0563284Y0112801D01*
X0589688Y0118792D02*
X0596979Y0118792D01*
X0595112Y0117793D02*
X0591554Y0117793D01*
X0592553Y0116795D02*
X0594114Y0116795D01*
X0593685Y0115796D02*
X0592981Y0115796D01*
X0602553Y0116795D02*
X0604114Y0116795D01*
X0603685Y0115796D02*
X0602981Y0115796D01*
X0601554Y0117793D02*
X0605112Y0117793D01*
X0606979Y0118792D02*
X0599688Y0118792D01*
X0609688Y0118792D02*
X0676282Y0118792D01*
X0677280Y0117793D02*
X0611554Y0117793D01*
X0603383Y0112801D02*
X0603284Y0112801D01*
X0602870Y0111802D02*
X0603796Y0111802D01*
X0604382Y0110804D02*
X0602285Y0110804D01*
X0601286Y0109805D02*
X0605380Y0109805D01*
X0595380Y0109805D02*
X0591286Y0109805D01*
X0592285Y0110804D02*
X0594382Y0110804D01*
X0593796Y0111802D02*
X0592870Y0111802D01*
X0593284Y0112801D02*
X0593383Y0112801D01*
X0653006Y0096824D02*
X0663245Y0096824D01*
X0662400Y0095826D02*
X0653786Y0095826D01*
X0654200Y0094827D02*
X0661987Y0094827D01*
X0661845Y0093829D02*
X0654325Y0093829D01*
X0654325Y0092830D02*
X0661845Y0092830D01*
X0662226Y0091832D02*
X0653961Y0091832D01*
X0653427Y0090833D02*
X0662823Y0090833D01*
X0663942Y0089835D02*
X0652429Y0089835D01*
X0668473Y0089835D02*
X0673785Y0089835D01*
X0672666Y0090833D02*
X0669592Y0090833D01*
X0670189Y0091832D02*
X0672068Y0091832D01*
X0671688Y0092830D02*
X0670570Y0092830D01*
X0670570Y0093829D02*
X0671688Y0093829D01*
X0671829Y0094827D02*
X0670428Y0094827D01*
X0670014Y0095826D02*
X0672243Y0095826D01*
X0673087Y0096824D02*
X0669170Y0096824D01*
X0679013Y0096824D02*
X0681033Y0096824D01*
X0681033Y0095826D02*
X0679857Y0095826D01*
X0680271Y0094827D02*
X0681033Y0094827D01*
X0681033Y0093829D02*
X0680412Y0093829D01*
X0680412Y0092830D02*
X0681033Y0092830D01*
X0681033Y0091832D02*
X0680032Y0091832D01*
X0679434Y0090833D02*
X0681033Y0090833D01*
X0681033Y0089835D02*
X0678315Y0089835D01*
X0674711Y0119790D02*
X0438456Y0119790D01*
X0439830Y0120789D02*
X0672737Y0120789D01*
X0515380Y0109805D02*
X0511286Y0109805D01*
X0512285Y0110804D02*
X0514382Y0110804D01*
X0513796Y0111802D02*
X0512870Y0111802D01*
X0513284Y0112801D02*
X0513383Y0112801D01*
D13*
X0563333Y0093933D03*
X0577307Y0043937D03*
D14*
X0570833Y0076433D03*
M02*
