%
M48
M72
T01C0.01378
T02C0.03937
T03C0.04000
T04C0.06299
T05C0.10000
T06C0.12598
%
T01
X523333Y89729
X568333Y89729
X608333Y108333
X508333Y113333
T02
X480026Y128333
X466247Y128333
X589652Y105833
X599652Y100833
X589652Y95833
X599652Y90833
X589652Y85833
X599652Y80833
X589652Y75833
X599652Y70833
X640381Y72113
X640381Y62270
X640381Y104396
X640381Y114239
T03
X608333Y128333
X598333Y128333
X588333Y128333
X578333Y128333
X568333Y128333
X558333Y128333
X548333Y128333
X538333Y128333
X528333Y128333
X518333Y128333
X508333Y128333
X498333Y128333
X533333Y113333
X553333Y113333
X553333Y103333
X533333Y103333
X448333Y98333
X448333Y88333
X448333Y78333
X463333Y63333
X473333Y63333
X483333Y63333
X503333Y63333
X513333Y63333
X523333Y63333
X533333Y63333
X543333Y63333
X553333Y63333
X563333Y63333
X558333Y48333
X548333Y48333
X538333Y48333
X528333Y48333
X518333Y48333
X508333Y48333
X498333Y48333
X488333Y48333
X478333Y48333
X468333Y48333
X458333Y48333
X568333Y48333
X578333Y48333
X588333Y48333
X598333Y48333
X608333Y48333
X448333Y108333
T04
X612822Y118176
X612822Y58333
T05
X443333Y53333
X623333Y53333
X623333Y123333
X443333Y123333
T06
X624652Y110833
X624652Y65833
M30
