G75*
%MOIN*%
%OFA0B0*%
%FSLAX25Y25*%
%IPPOS*%
%LPD*%
%AMOC8*
5,1,8,0,0,1.08239X$1,22.5*
%
%ADD10C,0.00000*%
%ADD11C,0.00600*%
%ADD12C,0.07400*%
%ADD13C,0.09449*%
%ADD14C,0.05937*%
%ADD15C,0.08600*%
%ADD16R,0.03937X0.04331*%
%ADD17R,0.04331X0.03937*%
%ADD18C,0.01600*%
%ADD19C,0.01000*%
%ADD20C,0.02978*%
%ADD21C,0.03200*%
D10*
X0438333Y0053333D02*
X0438335Y0053474D01*
X0438341Y0053615D01*
X0438351Y0053755D01*
X0438365Y0053895D01*
X0438383Y0054035D01*
X0438404Y0054174D01*
X0438430Y0054313D01*
X0438459Y0054451D01*
X0438493Y0054587D01*
X0438530Y0054723D01*
X0438571Y0054858D01*
X0438616Y0054992D01*
X0438665Y0055124D01*
X0438717Y0055255D01*
X0438773Y0055384D01*
X0438833Y0055511D01*
X0438896Y0055637D01*
X0438962Y0055761D01*
X0439033Y0055884D01*
X0439106Y0056004D01*
X0439183Y0056122D01*
X0439263Y0056238D01*
X0439347Y0056351D01*
X0439433Y0056462D01*
X0439523Y0056571D01*
X0439616Y0056677D01*
X0439711Y0056780D01*
X0439810Y0056881D01*
X0439911Y0056979D01*
X0440015Y0057074D01*
X0440122Y0057166D01*
X0440231Y0057255D01*
X0440343Y0057340D01*
X0440457Y0057423D01*
X0440573Y0057503D01*
X0440692Y0057579D01*
X0440813Y0057651D01*
X0440935Y0057721D01*
X0441060Y0057786D01*
X0441186Y0057849D01*
X0441314Y0057907D01*
X0441444Y0057962D01*
X0441575Y0058014D01*
X0441708Y0058061D01*
X0441842Y0058105D01*
X0441977Y0058146D01*
X0442113Y0058182D01*
X0442250Y0058214D01*
X0442388Y0058243D01*
X0442526Y0058268D01*
X0442666Y0058288D01*
X0442806Y0058305D01*
X0442946Y0058318D01*
X0443087Y0058327D01*
X0443227Y0058332D01*
X0443368Y0058333D01*
X0443509Y0058330D01*
X0443650Y0058323D01*
X0443790Y0058312D01*
X0443930Y0058297D01*
X0444070Y0058278D01*
X0444209Y0058256D01*
X0444347Y0058229D01*
X0444485Y0058199D01*
X0444621Y0058164D01*
X0444757Y0058126D01*
X0444891Y0058084D01*
X0445025Y0058038D01*
X0445157Y0057989D01*
X0445287Y0057935D01*
X0445416Y0057878D01*
X0445543Y0057818D01*
X0445669Y0057754D01*
X0445792Y0057686D01*
X0445914Y0057615D01*
X0446034Y0057541D01*
X0446151Y0057463D01*
X0446266Y0057382D01*
X0446379Y0057298D01*
X0446490Y0057211D01*
X0446598Y0057120D01*
X0446703Y0057027D01*
X0446806Y0056930D01*
X0446906Y0056831D01*
X0447003Y0056729D01*
X0447097Y0056624D01*
X0447188Y0056517D01*
X0447276Y0056407D01*
X0447361Y0056295D01*
X0447443Y0056180D01*
X0447522Y0056063D01*
X0447597Y0055944D01*
X0447669Y0055823D01*
X0447737Y0055700D01*
X0447802Y0055575D01*
X0447864Y0055448D01*
X0447921Y0055319D01*
X0447976Y0055189D01*
X0448026Y0055058D01*
X0448073Y0054925D01*
X0448116Y0054791D01*
X0448155Y0054655D01*
X0448190Y0054519D01*
X0448222Y0054382D01*
X0448249Y0054244D01*
X0448273Y0054105D01*
X0448293Y0053965D01*
X0448309Y0053825D01*
X0448321Y0053685D01*
X0448329Y0053544D01*
X0448333Y0053403D01*
X0448333Y0053263D01*
X0448329Y0053122D01*
X0448321Y0052981D01*
X0448309Y0052841D01*
X0448293Y0052701D01*
X0448273Y0052561D01*
X0448249Y0052422D01*
X0448222Y0052284D01*
X0448190Y0052147D01*
X0448155Y0052011D01*
X0448116Y0051875D01*
X0448073Y0051741D01*
X0448026Y0051608D01*
X0447976Y0051477D01*
X0447921Y0051347D01*
X0447864Y0051218D01*
X0447802Y0051091D01*
X0447737Y0050966D01*
X0447669Y0050843D01*
X0447597Y0050722D01*
X0447522Y0050603D01*
X0447443Y0050486D01*
X0447361Y0050371D01*
X0447276Y0050259D01*
X0447188Y0050149D01*
X0447097Y0050042D01*
X0447003Y0049937D01*
X0446906Y0049835D01*
X0446806Y0049736D01*
X0446703Y0049639D01*
X0446598Y0049546D01*
X0446490Y0049455D01*
X0446379Y0049368D01*
X0446266Y0049284D01*
X0446151Y0049203D01*
X0446034Y0049125D01*
X0445914Y0049051D01*
X0445792Y0048980D01*
X0445669Y0048912D01*
X0445543Y0048848D01*
X0445416Y0048788D01*
X0445287Y0048731D01*
X0445157Y0048677D01*
X0445025Y0048628D01*
X0444891Y0048582D01*
X0444757Y0048540D01*
X0444621Y0048502D01*
X0444485Y0048467D01*
X0444347Y0048437D01*
X0444209Y0048410D01*
X0444070Y0048388D01*
X0443930Y0048369D01*
X0443790Y0048354D01*
X0443650Y0048343D01*
X0443509Y0048336D01*
X0443368Y0048333D01*
X0443227Y0048334D01*
X0443087Y0048339D01*
X0442946Y0048348D01*
X0442806Y0048361D01*
X0442666Y0048378D01*
X0442526Y0048398D01*
X0442388Y0048423D01*
X0442250Y0048452D01*
X0442113Y0048484D01*
X0441977Y0048520D01*
X0441842Y0048561D01*
X0441708Y0048605D01*
X0441575Y0048652D01*
X0441444Y0048704D01*
X0441314Y0048759D01*
X0441186Y0048817D01*
X0441060Y0048880D01*
X0440935Y0048945D01*
X0440813Y0049015D01*
X0440692Y0049087D01*
X0440573Y0049163D01*
X0440457Y0049243D01*
X0440343Y0049326D01*
X0440231Y0049411D01*
X0440122Y0049500D01*
X0440015Y0049592D01*
X0439911Y0049687D01*
X0439810Y0049785D01*
X0439711Y0049886D01*
X0439616Y0049989D01*
X0439523Y0050095D01*
X0439433Y0050204D01*
X0439347Y0050315D01*
X0439263Y0050428D01*
X0439183Y0050544D01*
X0439106Y0050662D01*
X0439033Y0050782D01*
X0438962Y0050905D01*
X0438896Y0051029D01*
X0438833Y0051155D01*
X0438773Y0051282D01*
X0438717Y0051411D01*
X0438665Y0051542D01*
X0438616Y0051674D01*
X0438571Y0051808D01*
X0438530Y0051943D01*
X0438493Y0052079D01*
X0438459Y0052215D01*
X0438430Y0052353D01*
X0438404Y0052492D01*
X0438383Y0052631D01*
X0438365Y0052771D01*
X0438351Y0052911D01*
X0438341Y0053051D01*
X0438335Y0053192D01*
X0438333Y0053333D01*
X0618333Y0053333D02*
X0618335Y0053474D01*
X0618341Y0053615D01*
X0618351Y0053755D01*
X0618365Y0053895D01*
X0618383Y0054035D01*
X0618404Y0054174D01*
X0618430Y0054313D01*
X0618459Y0054451D01*
X0618493Y0054587D01*
X0618530Y0054723D01*
X0618571Y0054858D01*
X0618616Y0054992D01*
X0618665Y0055124D01*
X0618717Y0055255D01*
X0618773Y0055384D01*
X0618833Y0055511D01*
X0618896Y0055637D01*
X0618962Y0055761D01*
X0619033Y0055884D01*
X0619106Y0056004D01*
X0619183Y0056122D01*
X0619263Y0056238D01*
X0619347Y0056351D01*
X0619433Y0056462D01*
X0619523Y0056571D01*
X0619616Y0056677D01*
X0619711Y0056780D01*
X0619810Y0056881D01*
X0619911Y0056979D01*
X0620015Y0057074D01*
X0620122Y0057166D01*
X0620231Y0057255D01*
X0620343Y0057340D01*
X0620457Y0057423D01*
X0620573Y0057503D01*
X0620692Y0057579D01*
X0620813Y0057651D01*
X0620935Y0057721D01*
X0621060Y0057786D01*
X0621186Y0057849D01*
X0621314Y0057907D01*
X0621444Y0057962D01*
X0621575Y0058014D01*
X0621708Y0058061D01*
X0621842Y0058105D01*
X0621977Y0058146D01*
X0622113Y0058182D01*
X0622250Y0058214D01*
X0622388Y0058243D01*
X0622526Y0058268D01*
X0622666Y0058288D01*
X0622806Y0058305D01*
X0622946Y0058318D01*
X0623087Y0058327D01*
X0623227Y0058332D01*
X0623368Y0058333D01*
X0623509Y0058330D01*
X0623650Y0058323D01*
X0623790Y0058312D01*
X0623930Y0058297D01*
X0624070Y0058278D01*
X0624209Y0058256D01*
X0624347Y0058229D01*
X0624485Y0058199D01*
X0624621Y0058164D01*
X0624757Y0058126D01*
X0624891Y0058084D01*
X0625025Y0058038D01*
X0625157Y0057989D01*
X0625287Y0057935D01*
X0625416Y0057878D01*
X0625543Y0057818D01*
X0625669Y0057754D01*
X0625792Y0057686D01*
X0625914Y0057615D01*
X0626034Y0057541D01*
X0626151Y0057463D01*
X0626266Y0057382D01*
X0626379Y0057298D01*
X0626490Y0057211D01*
X0626598Y0057120D01*
X0626703Y0057027D01*
X0626806Y0056930D01*
X0626906Y0056831D01*
X0627003Y0056729D01*
X0627097Y0056624D01*
X0627188Y0056517D01*
X0627276Y0056407D01*
X0627361Y0056295D01*
X0627443Y0056180D01*
X0627522Y0056063D01*
X0627597Y0055944D01*
X0627669Y0055823D01*
X0627737Y0055700D01*
X0627802Y0055575D01*
X0627864Y0055448D01*
X0627921Y0055319D01*
X0627976Y0055189D01*
X0628026Y0055058D01*
X0628073Y0054925D01*
X0628116Y0054791D01*
X0628155Y0054655D01*
X0628190Y0054519D01*
X0628222Y0054382D01*
X0628249Y0054244D01*
X0628273Y0054105D01*
X0628293Y0053965D01*
X0628309Y0053825D01*
X0628321Y0053685D01*
X0628329Y0053544D01*
X0628333Y0053403D01*
X0628333Y0053263D01*
X0628329Y0053122D01*
X0628321Y0052981D01*
X0628309Y0052841D01*
X0628293Y0052701D01*
X0628273Y0052561D01*
X0628249Y0052422D01*
X0628222Y0052284D01*
X0628190Y0052147D01*
X0628155Y0052011D01*
X0628116Y0051875D01*
X0628073Y0051741D01*
X0628026Y0051608D01*
X0627976Y0051477D01*
X0627921Y0051347D01*
X0627864Y0051218D01*
X0627802Y0051091D01*
X0627737Y0050966D01*
X0627669Y0050843D01*
X0627597Y0050722D01*
X0627522Y0050603D01*
X0627443Y0050486D01*
X0627361Y0050371D01*
X0627276Y0050259D01*
X0627188Y0050149D01*
X0627097Y0050042D01*
X0627003Y0049937D01*
X0626906Y0049835D01*
X0626806Y0049736D01*
X0626703Y0049639D01*
X0626598Y0049546D01*
X0626490Y0049455D01*
X0626379Y0049368D01*
X0626266Y0049284D01*
X0626151Y0049203D01*
X0626034Y0049125D01*
X0625914Y0049051D01*
X0625792Y0048980D01*
X0625669Y0048912D01*
X0625543Y0048848D01*
X0625416Y0048788D01*
X0625287Y0048731D01*
X0625157Y0048677D01*
X0625025Y0048628D01*
X0624891Y0048582D01*
X0624757Y0048540D01*
X0624621Y0048502D01*
X0624485Y0048467D01*
X0624347Y0048437D01*
X0624209Y0048410D01*
X0624070Y0048388D01*
X0623930Y0048369D01*
X0623790Y0048354D01*
X0623650Y0048343D01*
X0623509Y0048336D01*
X0623368Y0048333D01*
X0623227Y0048334D01*
X0623087Y0048339D01*
X0622946Y0048348D01*
X0622806Y0048361D01*
X0622666Y0048378D01*
X0622526Y0048398D01*
X0622388Y0048423D01*
X0622250Y0048452D01*
X0622113Y0048484D01*
X0621977Y0048520D01*
X0621842Y0048561D01*
X0621708Y0048605D01*
X0621575Y0048652D01*
X0621444Y0048704D01*
X0621314Y0048759D01*
X0621186Y0048817D01*
X0621060Y0048880D01*
X0620935Y0048945D01*
X0620813Y0049015D01*
X0620692Y0049087D01*
X0620573Y0049163D01*
X0620457Y0049243D01*
X0620343Y0049326D01*
X0620231Y0049411D01*
X0620122Y0049500D01*
X0620015Y0049592D01*
X0619911Y0049687D01*
X0619810Y0049785D01*
X0619711Y0049886D01*
X0619616Y0049989D01*
X0619523Y0050095D01*
X0619433Y0050204D01*
X0619347Y0050315D01*
X0619263Y0050428D01*
X0619183Y0050544D01*
X0619106Y0050662D01*
X0619033Y0050782D01*
X0618962Y0050905D01*
X0618896Y0051029D01*
X0618833Y0051155D01*
X0618773Y0051282D01*
X0618717Y0051411D01*
X0618665Y0051542D01*
X0618616Y0051674D01*
X0618571Y0051808D01*
X0618530Y0051943D01*
X0618493Y0052079D01*
X0618459Y0052215D01*
X0618430Y0052353D01*
X0618404Y0052492D01*
X0618383Y0052631D01*
X0618365Y0052771D01*
X0618351Y0052911D01*
X0618341Y0053051D01*
X0618335Y0053192D01*
X0618333Y0053333D01*
X0618353Y0065833D02*
X0618355Y0065991D01*
X0618361Y0066149D01*
X0618371Y0066307D01*
X0618385Y0066465D01*
X0618403Y0066622D01*
X0618424Y0066779D01*
X0618450Y0066935D01*
X0618480Y0067091D01*
X0618513Y0067246D01*
X0618551Y0067399D01*
X0618592Y0067552D01*
X0618637Y0067704D01*
X0618686Y0067855D01*
X0618739Y0068004D01*
X0618795Y0068152D01*
X0618855Y0068298D01*
X0618919Y0068443D01*
X0618987Y0068586D01*
X0619058Y0068728D01*
X0619132Y0068868D01*
X0619210Y0069005D01*
X0619292Y0069141D01*
X0619376Y0069275D01*
X0619465Y0069406D01*
X0619556Y0069535D01*
X0619651Y0069662D01*
X0619748Y0069787D01*
X0619849Y0069909D01*
X0619953Y0070028D01*
X0620060Y0070145D01*
X0620170Y0070259D01*
X0620283Y0070370D01*
X0620398Y0070479D01*
X0620516Y0070584D01*
X0620637Y0070686D01*
X0620760Y0070786D01*
X0620886Y0070882D01*
X0621014Y0070975D01*
X0621144Y0071065D01*
X0621277Y0071151D01*
X0621412Y0071235D01*
X0621548Y0071314D01*
X0621687Y0071391D01*
X0621828Y0071463D01*
X0621970Y0071533D01*
X0622114Y0071598D01*
X0622260Y0071660D01*
X0622407Y0071718D01*
X0622556Y0071773D01*
X0622706Y0071824D01*
X0622857Y0071871D01*
X0623009Y0071914D01*
X0623162Y0071953D01*
X0623317Y0071989D01*
X0623472Y0072020D01*
X0623628Y0072048D01*
X0623784Y0072072D01*
X0623941Y0072092D01*
X0624099Y0072108D01*
X0624256Y0072120D01*
X0624415Y0072128D01*
X0624573Y0072132D01*
X0624731Y0072132D01*
X0624889Y0072128D01*
X0625048Y0072120D01*
X0625205Y0072108D01*
X0625363Y0072092D01*
X0625520Y0072072D01*
X0625676Y0072048D01*
X0625832Y0072020D01*
X0625987Y0071989D01*
X0626142Y0071953D01*
X0626295Y0071914D01*
X0626447Y0071871D01*
X0626598Y0071824D01*
X0626748Y0071773D01*
X0626897Y0071718D01*
X0627044Y0071660D01*
X0627190Y0071598D01*
X0627334Y0071533D01*
X0627476Y0071463D01*
X0627617Y0071391D01*
X0627756Y0071314D01*
X0627892Y0071235D01*
X0628027Y0071151D01*
X0628160Y0071065D01*
X0628290Y0070975D01*
X0628418Y0070882D01*
X0628544Y0070786D01*
X0628667Y0070686D01*
X0628788Y0070584D01*
X0628906Y0070479D01*
X0629021Y0070370D01*
X0629134Y0070259D01*
X0629244Y0070145D01*
X0629351Y0070028D01*
X0629455Y0069909D01*
X0629556Y0069787D01*
X0629653Y0069662D01*
X0629748Y0069535D01*
X0629839Y0069406D01*
X0629928Y0069275D01*
X0630012Y0069141D01*
X0630094Y0069005D01*
X0630172Y0068868D01*
X0630246Y0068728D01*
X0630317Y0068586D01*
X0630385Y0068443D01*
X0630449Y0068298D01*
X0630509Y0068152D01*
X0630565Y0068004D01*
X0630618Y0067855D01*
X0630667Y0067704D01*
X0630712Y0067552D01*
X0630753Y0067399D01*
X0630791Y0067246D01*
X0630824Y0067091D01*
X0630854Y0066935D01*
X0630880Y0066779D01*
X0630901Y0066622D01*
X0630919Y0066465D01*
X0630933Y0066307D01*
X0630943Y0066149D01*
X0630949Y0065991D01*
X0630951Y0065833D01*
X0630949Y0065675D01*
X0630943Y0065517D01*
X0630933Y0065359D01*
X0630919Y0065201D01*
X0630901Y0065044D01*
X0630880Y0064887D01*
X0630854Y0064731D01*
X0630824Y0064575D01*
X0630791Y0064420D01*
X0630753Y0064267D01*
X0630712Y0064114D01*
X0630667Y0063962D01*
X0630618Y0063811D01*
X0630565Y0063662D01*
X0630509Y0063514D01*
X0630449Y0063368D01*
X0630385Y0063223D01*
X0630317Y0063080D01*
X0630246Y0062938D01*
X0630172Y0062798D01*
X0630094Y0062661D01*
X0630012Y0062525D01*
X0629928Y0062391D01*
X0629839Y0062260D01*
X0629748Y0062131D01*
X0629653Y0062004D01*
X0629556Y0061879D01*
X0629455Y0061757D01*
X0629351Y0061638D01*
X0629244Y0061521D01*
X0629134Y0061407D01*
X0629021Y0061296D01*
X0628906Y0061187D01*
X0628788Y0061082D01*
X0628667Y0060980D01*
X0628544Y0060880D01*
X0628418Y0060784D01*
X0628290Y0060691D01*
X0628160Y0060601D01*
X0628027Y0060515D01*
X0627892Y0060431D01*
X0627756Y0060352D01*
X0627617Y0060275D01*
X0627476Y0060203D01*
X0627334Y0060133D01*
X0627190Y0060068D01*
X0627044Y0060006D01*
X0626897Y0059948D01*
X0626748Y0059893D01*
X0626598Y0059842D01*
X0626447Y0059795D01*
X0626295Y0059752D01*
X0626142Y0059713D01*
X0625987Y0059677D01*
X0625832Y0059646D01*
X0625676Y0059618D01*
X0625520Y0059594D01*
X0625363Y0059574D01*
X0625205Y0059558D01*
X0625048Y0059546D01*
X0624889Y0059538D01*
X0624731Y0059534D01*
X0624573Y0059534D01*
X0624415Y0059538D01*
X0624256Y0059546D01*
X0624099Y0059558D01*
X0623941Y0059574D01*
X0623784Y0059594D01*
X0623628Y0059618D01*
X0623472Y0059646D01*
X0623317Y0059677D01*
X0623162Y0059713D01*
X0623009Y0059752D01*
X0622857Y0059795D01*
X0622706Y0059842D01*
X0622556Y0059893D01*
X0622407Y0059948D01*
X0622260Y0060006D01*
X0622114Y0060068D01*
X0621970Y0060133D01*
X0621828Y0060203D01*
X0621687Y0060275D01*
X0621548Y0060352D01*
X0621412Y0060431D01*
X0621277Y0060515D01*
X0621144Y0060601D01*
X0621014Y0060691D01*
X0620886Y0060784D01*
X0620760Y0060880D01*
X0620637Y0060980D01*
X0620516Y0061082D01*
X0620398Y0061187D01*
X0620283Y0061296D01*
X0620170Y0061407D01*
X0620060Y0061521D01*
X0619953Y0061638D01*
X0619849Y0061757D01*
X0619748Y0061879D01*
X0619651Y0062004D01*
X0619556Y0062131D01*
X0619465Y0062260D01*
X0619376Y0062391D01*
X0619292Y0062525D01*
X0619210Y0062661D01*
X0619132Y0062798D01*
X0619058Y0062938D01*
X0618987Y0063080D01*
X0618919Y0063223D01*
X0618855Y0063368D01*
X0618795Y0063514D01*
X0618739Y0063662D01*
X0618686Y0063811D01*
X0618637Y0063962D01*
X0618592Y0064114D01*
X0618551Y0064267D01*
X0618513Y0064420D01*
X0618480Y0064575D01*
X0618450Y0064731D01*
X0618424Y0064887D01*
X0618403Y0065044D01*
X0618385Y0065201D01*
X0618371Y0065359D01*
X0618361Y0065517D01*
X0618355Y0065675D01*
X0618353Y0065833D01*
X0618353Y0110833D02*
X0618355Y0110991D01*
X0618361Y0111149D01*
X0618371Y0111307D01*
X0618385Y0111465D01*
X0618403Y0111622D01*
X0618424Y0111779D01*
X0618450Y0111935D01*
X0618480Y0112091D01*
X0618513Y0112246D01*
X0618551Y0112399D01*
X0618592Y0112552D01*
X0618637Y0112704D01*
X0618686Y0112855D01*
X0618739Y0113004D01*
X0618795Y0113152D01*
X0618855Y0113298D01*
X0618919Y0113443D01*
X0618987Y0113586D01*
X0619058Y0113728D01*
X0619132Y0113868D01*
X0619210Y0114005D01*
X0619292Y0114141D01*
X0619376Y0114275D01*
X0619465Y0114406D01*
X0619556Y0114535D01*
X0619651Y0114662D01*
X0619748Y0114787D01*
X0619849Y0114909D01*
X0619953Y0115028D01*
X0620060Y0115145D01*
X0620170Y0115259D01*
X0620283Y0115370D01*
X0620398Y0115479D01*
X0620516Y0115584D01*
X0620637Y0115686D01*
X0620760Y0115786D01*
X0620886Y0115882D01*
X0621014Y0115975D01*
X0621144Y0116065D01*
X0621277Y0116151D01*
X0621412Y0116235D01*
X0621548Y0116314D01*
X0621687Y0116391D01*
X0621828Y0116463D01*
X0621970Y0116533D01*
X0622114Y0116598D01*
X0622260Y0116660D01*
X0622407Y0116718D01*
X0622556Y0116773D01*
X0622706Y0116824D01*
X0622857Y0116871D01*
X0623009Y0116914D01*
X0623162Y0116953D01*
X0623317Y0116989D01*
X0623472Y0117020D01*
X0623628Y0117048D01*
X0623784Y0117072D01*
X0623941Y0117092D01*
X0624099Y0117108D01*
X0624256Y0117120D01*
X0624415Y0117128D01*
X0624573Y0117132D01*
X0624731Y0117132D01*
X0624889Y0117128D01*
X0625048Y0117120D01*
X0625205Y0117108D01*
X0625363Y0117092D01*
X0625520Y0117072D01*
X0625676Y0117048D01*
X0625832Y0117020D01*
X0625987Y0116989D01*
X0626142Y0116953D01*
X0626295Y0116914D01*
X0626447Y0116871D01*
X0626598Y0116824D01*
X0626748Y0116773D01*
X0626897Y0116718D01*
X0627044Y0116660D01*
X0627190Y0116598D01*
X0627334Y0116533D01*
X0627476Y0116463D01*
X0627617Y0116391D01*
X0627756Y0116314D01*
X0627892Y0116235D01*
X0628027Y0116151D01*
X0628160Y0116065D01*
X0628290Y0115975D01*
X0628418Y0115882D01*
X0628544Y0115786D01*
X0628667Y0115686D01*
X0628788Y0115584D01*
X0628906Y0115479D01*
X0629021Y0115370D01*
X0629134Y0115259D01*
X0629244Y0115145D01*
X0629351Y0115028D01*
X0629455Y0114909D01*
X0629556Y0114787D01*
X0629653Y0114662D01*
X0629748Y0114535D01*
X0629839Y0114406D01*
X0629928Y0114275D01*
X0630012Y0114141D01*
X0630094Y0114005D01*
X0630172Y0113868D01*
X0630246Y0113728D01*
X0630317Y0113586D01*
X0630385Y0113443D01*
X0630449Y0113298D01*
X0630509Y0113152D01*
X0630565Y0113004D01*
X0630618Y0112855D01*
X0630667Y0112704D01*
X0630712Y0112552D01*
X0630753Y0112399D01*
X0630791Y0112246D01*
X0630824Y0112091D01*
X0630854Y0111935D01*
X0630880Y0111779D01*
X0630901Y0111622D01*
X0630919Y0111465D01*
X0630933Y0111307D01*
X0630943Y0111149D01*
X0630949Y0110991D01*
X0630951Y0110833D01*
X0630949Y0110675D01*
X0630943Y0110517D01*
X0630933Y0110359D01*
X0630919Y0110201D01*
X0630901Y0110044D01*
X0630880Y0109887D01*
X0630854Y0109731D01*
X0630824Y0109575D01*
X0630791Y0109420D01*
X0630753Y0109267D01*
X0630712Y0109114D01*
X0630667Y0108962D01*
X0630618Y0108811D01*
X0630565Y0108662D01*
X0630509Y0108514D01*
X0630449Y0108368D01*
X0630385Y0108223D01*
X0630317Y0108080D01*
X0630246Y0107938D01*
X0630172Y0107798D01*
X0630094Y0107661D01*
X0630012Y0107525D01*
X0629928Y0107391D01*
X0629839Y0107260D01*
X0629748Y0107131D01*
X0629653Y0107004D01*
X0629556Y0106879D01*
X0629455Y0106757D01*
X0629351Y0106638D01*
X0629244Y0106521D01*
X0629134Y0106407D01*
X0629021Y0106296D01*
X0628906Y0106187D01*
X0628788Y0106082D01*
X0628667Y0105980D01*
X0628544Y0105880D01*
X0628418Y0105784D01*
X0628290Y0105691D01*
X0628160Y0105601D01*
X0628027Y0105515D01*
X0627892Y0105431D01*
X0627756Y0105352D01*
X0627617Y0105275D01*
X0627476Y0105203D01*
X0627334Y0105133D01*
X0627190Y0105068D01*
X0627044Y0105006D01*
X0626897Y0104948D01*
X0626748Y0104893D01*
X0626598Y0104842D01*
X0626447Y0104795D01*
X0626295Y0104752D01*
X0626142Y0104713D01*
X0625987Y0104677D01*
X0625832Y0104646D01*
X0625676Y0104618D01*
X0625520Y0104594D01*
X0625363Y0104574D01*
X0625205Y0104558D01*
X0625048Y0104546D01*
X0624889Y0104538D01*
X0624731Y0104534D01*
X0624573Y0104534D01*
X0624415Y0104538D01*
X0624256Y0104546D01*
X0624099Y0104558D01*
X0623941Y0104574D01*
X0623784Y0104594D01*
X0623628Y0104618D01*
X0623472Y0104646D01*
X0623317Y0104677D01*
X0623162Y0104713D01*
X0623009Y0104752D01*
X0622857Y0104795D01*
X0622706Y0104842D01*
X0622556Y0104893D01*
X0622407Y0104948D01*
X0622260Y0105006D01*
X0622114Y0105068D01*
X0621970Y0105133D01*
X0621828Y0105203D01*
X0621687Y0105275D01*
X0621548Y0105352D01*
X0621412Y0105431D01*
X0621277Y0105515D01*
X0621144Y0105601D01*
X0621014Y0105691D01*
X0620886Y0105784D01*
X0620760Y0105880D01*
X0620637Y0105980D01*
X0620516Y0106082D01*
X0620398Y0106187D01*
X0620283Y0106296D01*
X0620170Y0106407D01*
X0620060Y0106521D01*
X0619953Y0106638D01*
X0619849Y0106757D01*
X0619748Y0106879D01*
X0619651Y0107004D01*
X0619556Y0107131D01*
X0619465Y0107260D01*
X0619376Y0107391D01*
X0619292Y0107525D01*
X0619210Y0107661D01*
X0619132Y0107798D01*
X0619058Y0107938D01*
X0618987Y0108080D01*
X0618919Y0108223D01*
X0618855Y0108368D01*
X0618795Y0108514D01*
X0618739Y0108662D01*
X0618686Y0108811D01*
X0618637Y0108962D01*
X0618592Y0109114D01*
X0618551Y0109267D01*
X0618513Y0109420D01*
X0618480Y0109575D01*
X0618450Y0109731D01*
X0618424Y0109887D01*
X0618403Y0110044D01*
X0618385Y0110201D01*
X0618371Y0110359D01*
X0618361Y0110517D01*
X0618355Y0110675D01*
X0618353Y0110833D01*
X0618333Y0123333D02*
X0618335Y0123474D01*
X0618341Y0123615D01*
X0618351Y0123755D01*
X0618365Y0123895D01*
X0618383Y0124035D01*
X0618404Y0124174D01*
X0618430Y0124313D01*
X0618459Y0124451D01*
X0618493Y0124587D01*
X0618530Y0124723D01*
X0618571Y0124858D01*
X0618616Y0124992D01*
X0618665Y0125124D01*
X0618717Y0125255D01*
X0618773Y0125384D01*
X0618833Y0125511D01*
X0618896Y0125637D01*
X0618962Y0125761D01*
X0619033Y0125884D01*
X0619106Y0126004D01*
X0619183Y0126122D01*
X0619263Y0126238D01*
X0619347Y0126351D01*
X0619433Y0126462D01*
X0619523Y0126571D01*
X0619616Y0126677D01*
X0619711Y0126780D01*
X0619810Y0126881D01*
X0619911Y0126979D01*
X0620015Y0127074D01*
X0620122Y0127166D01*
X0620231Y0127255D01*
X0620343Y0127340D01*
X0620457Y0127423D01*
X0620573Y0127503D01*
X0620692Y0127579D01*
X0620813Y0127651D01*
X0620935Y0127721D01*
X0621060Y0127786D01*
X0621186Y0127849D01*
X0621314Y0127907D01*
X0621444Y0127962D01*
X0621575Y0128014D01*
X0621708Y0128061D01*
X0621842Y0128105D01*
X0621977Y0128146D01*
X0622113Y0128182D01*
X0622250Y0128214D01*
X0622388Y0128243D01*
X0622526Y0128268D01*
X0622666Y0128288D01*
X0622806Y0128305D01*
X0622946Y0128318D01*
X0623087Y0128327D01*
X0623227Y0128332D01*
X0623368Y0128333D01*
X0623509Y0128330D01*
X0623650Y0128323D01*
X0623790Y0128312D01*
X0623930Y0128297D01*
X0624070Y0128278D01*
X0624209Y0128256D01*
X0624347Y0128229D01*
X0624485Y0128199D01*
X0624621Y0128164D01*
X0624757Y0128126D01*
X0624891Y0128084D01*
X0625025Y0128038D01*
X0625157Y0127989D01*
X0625287Y0127935D01*
X0625416Y0127878D01*
X0625543Y0127818D01*
X0625669Y0127754D01*
X0625792Y0127686D01*
X0625914Y0127615D01*
X0626034Y0127541D01*
X0626151Y0127463D01*
X0626266Y0127382D01*
X0626379Y0127298D01*
X0626490Y0127211D01*
X0626598Y0127120D01*
X0626703Y0127027D01*
X0626806Y0126930D01*
X0626906Y0126831D01*
X0627003Y0126729D01*
X0627097Y0126624D01*
X0627188Y0126517D01*
X0627276Y0126407D01*
X0627361Y0126295D01*
X0627443Y0126180D01*
X0627522Y0126063D01*
X0627597Y0125944D01*
X0627669Y0125823D01*
X0627737Y0125700D01*
X0627802Y0125575D01*
X0627864Y0125448D01*
X0627921Y0125319D01*
X0627976Y0125189D01*
X0628026Y0125058D01*
X0628073Y0124925D01*
X0628116Y0124791D01*
X0628155Y0124655D01*
X0628190Y0124519D01*
X0628222Y0124382D01*
X0628249Y0124244D01*
X0628273Y0124105D01*
X0628293Y0123965D01*
X0628309Y0123825D01*
X0628321Y0123685D01*
X0628329Y0123544D01*
X0628333Y0123403D01*
X0628333Y0123263D01*
X0628329Y0123122D01*
X0628321Y0122981D01*
X0628309Y0122841D01*
X0628293Y0122701D01*
X0628273Y0122561D01*
X0628249Y0122422D01*
X0628222Y0122284D01*
X0628190Y0122147D01*
X0628155Y0122011D01*
X0628116Y0121875D01*
X0628073Y0121741D01*
X0628026Y0121608D01*
X0627976Y0121477D01*
X0627921Y0121347D01*
X0627864Y0121218D01*
X0627802Y0121091D01*
X0627737Y0120966D01*
X0627669Y0120843D01*
X0627597Y0120722D01*
X0627522Y0120603D01*
X0627443Y0120486D01*
X0627361Y0120371D01*
X0627276Y0120259D01*
X0627188Y0120149D01*
X0627097Y0120042D01*
X0627003Y0119937D01*
X0626906Y0119835D01*
X0626806Y0119736D01*
X0626703Y0119639D01*
X0626598Y0119546D01*
X0626490Y0119455D01*
X0626379Y0119368D01*
X0626266Y0119284D01*
X0626151Y0119203D01*
X0626034Y0119125D01*
X0625914Y0119051D01*
X0625792Y0118980D01*
X0625669Y0118912D01*
X0625543Y0118848D01*
X0625416Y0118788D01*
X0625287Y0118731D01*
X0625157Y0118677D01*
X0625025Y0118628D01*
X0624891Y0118582D01*
X0624757Y0118540D01*
X0624621Y0118502D01*
X0624485Y0118467D01*
X0624347Y0118437D01*
X0624209Y0118410D01*
X0624070Y0118388D01*
X0623930Y0118369D01*
X0623790Y0118354D01*
X0623650Y0118343D01*
X0623509Y0118336D01*
X0623368Y0118333D01*
X0623227Y0118334D01*
X0623087Y0118339D01*
X0622946Y0118348D01*
X0622806Y0118361D01*
X0622666Y0118378D01*
X0622526Y0118398D01*
X0622388Y0118423D01*
X0622250Y0118452D01*
X0622113Y0118484D01*
X0621977Y0118520D01*
X0621842Y0118561D01*
X0621708Y0118605D01*
X0621575Y0118652D01*
X0621444Y0118704D01*
X0621314Y0118759D01*
X0621186Y0118817D01*
X0621060Y0118880D01*
X0620935Y0118945D01*
X0620813Y0119015D01*
X0620692Y0119087D01*
X0620573Y0119163D01*
X0620457Y0119243D01*
X0620343Y0119326D01*
X0620231Y0119411D01*
X0620122Y0119500D01*
X0620015Y0119592D01*
X0619911Y0119687D01*
X0619810Y0119785D01*
X0619711Y0119886D01*
X0619616Y0119989D01*
X0619523Y0120095D01*
X0619433Y0120204D01*
X0619347Y0120315D01*
X0619263Y0120428D01*
X0619183Y0120544D01*
X0619106Y0120662D01*
X0619033Y0120782D01*
X0618962Y0120905D01*
X0618896Y0121029D01*
X0618833Y0121155D01*
X0618773Y0121282D01*
X0618717Y0121411D01*
X0618665Y0121542D01*
X0618616Y0121674D01*
X0618571Y0121808D01*
X0618530Y0121943D01*
X0618493Y0122079D01*
X0618459Y0122215D01*
X0618430Y0122353D01*
X0618404Y0122492D01*
X0618383Y0122631D01*
X0618365Y0122771D01*
X0618351Y0122911D01*
X0618341Y0123051D01*
X0618335Y0123192D01*
X0618333Y0123333D01*
X0438333Y0123333D02*
X0438335Y0123474D01*
X0438341Y0123615D01*
X0438351Y0123755D01*
X0438365Y0123895D01*
X0438383Y0124035D01*
X0438404Y0124174D01*
X0438430Y0124313D01*
X0438459Y0124451D01*
X0438493Y0124587D01*
X0438530Y0124723D01*
X0438571Y0124858D01*
X0438616Y0124992D01*
X0438665Y0125124D01*
X0438717Y0125255D01*
X0438773Y0125384D01*
X0438833Y0125511D01*
X0438896Y0125637D01*
X0438962Y0125761D01*
X0439033Y0125884D01*
X0439106Y0126004D01*
X0439183Y0126122D01*
X0439263Y0126238D01*
X0439347Y0126351D01*
X0439433Y0126462D01*
X0439523Y0126571D01*
X0439616Y0126677D01*
X0439711Y0126780D01*
X0439810Y0126881D01*
X0439911Y0126979D01*
X0440015Y0127074D01*
X0440122Y0127166D01*
X0440231Y0127255D01*
X0440343Y0127340D01*
X0440457Y0127423D01*
X0440573Y0127503D01*
X0440692Y0127579D01*
X0440813Y0127651D01*
X0440935Y0127721D01*
X0441060Y0127786D01*
X0441186Y0127849D01*
X0441314Y0127907D01*
X0441444Y0127962D01*
X0441575Y0128014D01*
X0441708Y0128061D01*
X0441842Y0128105D01*
X0441977Y0128146D01*
X0442113Y0128182D01*
X0442250Y0128214D01*
X0442388Y0128243D01*
X0442526Y0128268D01*
X0442666Y0128288D01*
X0442806Y0128305D01*
X0442946Y0128318D01*
X0443087Y0128327D01*
X0443227Y0128332D01*
X0443368Y0128333D01*
X0443509Y0128330D01*
X0443650Y0128323D01*
X0443790Y0128312D01*
X0443930Y0128297D01*
X0444070Y0128278D01*
X0444209Y0128256D01*
X0444347Y0128229D01*
X0444485Y0128199D01*
X0444621Y0128164D01*
X0444757Y0128126D01*
X0444891Y0128084D01*
X0445025Y0128038D01*
X0445157Y0127989D01*
X0445287Y0127935D01*
X0445416Y0127878D01*
X0445543Y0127818D01*
X0445669Y0127754D01*
X0445792Y0127686D01*
X0445914Y0127615D01*
X0446034Y0127541D01*
X0446151Y0127463D01*
X0446266Y0127382D01*
X0446379Y0127298D01*
X0446490Y0127211D01*
X0446598Y0127120D01*
X0446703Y0127027D01*
X0446806Y0126930D01*
X0446906Y0126831D01*
X0447003Y0126729D01*
X0447097Y0126624D01*
X0447188Y0126517D01*
X0447276Y0126407D01*
X0447361Y0126295D01*
X0447443Y0126180D01*
X0447522Y0126063D01*
X0447597Y0125944D01*
X0447669Y0125823D01*
X0447737Y0125700D01*
X0447802Y0125575D01*
X0447864Y0125448D01*
X0447921Y0125319D01*
X0447976Y0125189D01*
X0448026Y0125058D01*
X0448073Y0124925D01*
X0448116Y0124791D01*
X0448155Y0124655D01*
X0448190Y0124519D01*
X0448222Y0124382D01*
X0448249Y0124244D01*
X0448273Y0124105D01*
X0448293Y0123965D01*
X0448309Y0123825D01*
X0448321Y0123685D01*
X0448329Y0123544D01*
X0448333Y0123403D01*
X0448333Y0123263D01*
X0448329Y0123122D01*
X0448321Y0122981D01*
X0448309Y0122841D01*
X0448293Y0122701D01*
X0448273Y0122561D01*
X0448249Y0122422D01*
X0448222Y0122284D01*
X0448190Y0122147D01*
X0448155Y0122011D01*
X0448116Y0121875D01*
X0448073Y0121741D01*
X0448026Y0121608D01*
X0447976Y0121477D01*
X0447921Y0121347D01*
X0447864Y0121218D01*
X0447802Y0121091D01*
X0447737Y0120966D01*
X0447669Y0120843D01*
X0447597Y0120722D01*
X0447522Y0120603D01*
X0447443Y0120486D01*
X0447361Y0120371D01*
X0447276Y0120259D01*
X0447188Y0120149D01*
X0447097Y0120042D01*
X0447003Y0119937D01*
X0446906Y0119835D01*
X0446806Y0119736D01*
X0446703Y0119639D01*
X0446598Y0119546D01*
X0446490Y0119455D01*
X0446379Y0119368D01*
X0446266Y0119284D01*
X0446151Y0119203D01*
X0446034Y0119125D01*
X0445914Y0119051D01*
X0445792Y0118980D01*
X0445669Y0118912D01*
X0445543Y0118848D01*
X0445416Y0118788D01*
X0445287Y0118731D01*
X0445157Y0118677D01*
X0445025Y0118628D01*
X0444891Y0118582D01*
X0444757Y0118540D01*
X0444621Y0118502D01*
X0444485Y0118467D01*
X0444347Y0118437D01*
X0444209Y0118410D01*
X0444070Y0118388D01*
X0443930Y0118369D01*
X0443790Y0118354D01*
X0443650Y0118343D01*
X0443509Y0118336D01*
X0443368Y0118333D01*
X0443227Y0118334D01*
X0443087Y0118339D01*
X0442946Y0118348D01*
X0442806Y0118361D01*
X0442666Y0118378D01*
X0442526Y0118398D01*
X0442388Y0118423D01*
X0442250Y0118452D01*
X0442113Y0118484D01*
X0441977Y0118520D01*
X0441842Y0118561D01*
X0441708Y0118605D01*
X0441575Y0118652D01*
X0441444Y0118704D01*
X0441314Y0118759D01*
X0441186Y0118817D01*
X0441060Y0118880D01*
X0440935Y0118945D01*
X0440813Y0119015D01*
X0440692Y0119087D01*
X0440573Y0119163D01*
X0440457Y0119243D01*
X0440343Y0119326D01*
X0440231Y0119411D01*
X0440122Y0119500D01*
X0440015Y0119592D01*
X0439911Y0119687D01*
X0439810Y0119785D01*
X0439711Y0119886D01*
X0439616Y0119989D01*
X0439523Y0120095D01*
X0439433Y0120204D01*
X0439347Y0120315D01*
X0439263Y0120428D01*
X0439183Y0120544D01*
X0439106Y0120662D01*
X0439033Y0120782D01*
X0438962Y0120905D01*
X0438896Y0121029D01*
X0438833Y0121155D01*
X0438773Y0121282D01*
X0438717Y0121411D01*
X0438665Y0121542D01*
X0438616Y0121674D01*
X0438571Y0121808D01*
X0438530Y0121943D01*
X0438493Y0122079D01*
X0438459Y0122215D01*
X0438430Y0122353D01*
X0438404Y0122492D01*
X0438383Y0122631D01*
X0438365Y0122771D01*
X0438351Y0122911D01*
X0438341Y0123051D01*
X0438335Y0123192D01*
X0438333Y0123333D01*
D11*
X0433333Y0128333D02*
X0433333Y0048333D01*
X0433336Y0048091D01*
X0433345Y0047850D01*
X0433359Y0047609D01*
X0433380Y0047368D01*
X0433406Y0047128D01*
X0433438Y0046888D01*
X0433476Y0046649D01*
X0433519Y0046412D01*
X0433569Y0046175D01*
X0433624Y0045940D01*
X0433684Y0045706D01*
X0433751Y0045474D01*
X0433822Y0045243D01*
X0433900Y0045014D01*
X0433983Y0044787D01*
X0434071Y0044562D01*
X0434165Y0044339D01*
X0434264Y0044119D01*
X0434369Y0043901D01*
X0434478Y0043686D01*
X0434593Y0043473D01*
X0434713Y0043263D01*
X0434838Y0043057D01*
X0434968Y0042853D01*
X0435103Y0042652D01*
X0435243Y0042455D01*
X0435387Y0042261D01*
X0435536Y0042071D01*
X0435690Y0041885D01*
X0435848Y0041702D01*
X0436010Y0041523D01*
X0436177Y0041348D01*
X0436348Y0041177D01*
X0436523Y0041010D01*
X0436702Y0040848D01*
X0436885Y0040690D01*
X0437071Y0040536D01*
X0437261Y0040387D01*
X0437455Y0040243D01*
X0437652Y0040103D01*
X0437853Y0039968D01*
X0438057Y0039838D01*
X0438263Y0039713D01*
X0438473Y0039593D01*
X0438686Y0039478D01*
X0438901Y0039369D01*
X0439119Y0039264D01*
X0439339Y0039165D01*
X0439562Y0039071D01*
X0439787Y0038983D01*
X0440014Y0038900D01*
X0440243Y0038822D01*
X0440474Y0038751D01*
X0440706Y0038684D01*
X0440940Y0038624D01*
X0441175Y0038569D01*
X0441412Y0038519D01*
X0441649Y0038476D01*
X0441888Y0038438D01*
X0442128Y0038406D01*
X0442368Y0038380D01*
X0442609Y0038359D01*
X0442850Y0038345D01*
X0443091Y0038336D01*
X0443333Y0038333D01*
X0633333Y0038333D01*
X0648333Y0048333D02*
X0648333Y0128333D01*
X0648269Y0128634D01*
X0648198Y0128934D01*
X0648120Y0129232D01*
X0648034Y0129528D01*
X0647941Y0129822D01*
X0647841Y0130113D01*
X0647734Y0130402D01*
X0647620Y0130688D01*
X0647499Y0130972D01*
X0647372Y0131252D01*
X0647238Y0131529D01*
X0647097Y0131803D01*
X0646949Y0132074D01*
X0646795Y0132340D01*
X0646635Y0132603D01*
X0646468Y0132862D01*
X0646295Y0133117D01*
X0646116Y0133368D01*
X0645931Y0133614D01*
X0645740Y0133856D01*
X0645543Y0134093D01*
X0645341Y0134325D01*
X0645133Y0134552D01*
X0644919Y0134775D01*
X0644700Y0134992D01*
X0644477Y0135203D01*
X0644248Y0135409D01*
X0644014Y0135610D01*
X0643775Y0135805D01*
X0643532Y0135994D01*
X0643284Y0136177D01*
X0643032Y0136354D01*
X0642776Y0136525D01*
X0642515Y0136689D01*
X0642251Y0136848D01*
X0641983Y0136999D01*
X0641711Y0137145D01*
X0641436Y0137284D01*
X0641158Y0137416D01*
X0640877Y0137541D01*
X0640592Y0137659D01*
X0640305Y0137771D01*
X0640015Y0137875D01*
X0639723Y0137973D01*
X0639429Y0138063D01*
X0639132Y0138147D01*
X0638833Y0138223D01*
X0638533Y0138292D01*
X0638231Y0138353D01*
X0637928Y0138408D01*
X0637624Y0138455D01*
X0637318Y0138494D01*
X0637012Y0138526D01*
X0636705Y0138551D01*
X0636397Y0138569D01*
X0636089Y0138578D01*
X0635781Y0138581D01*
X0635473Y0138576D01*
X0635165Y0138564D01*
X0634858Y0138544D01*
X0634551Y0138516D01*
X0634245Y0138482D01*
X0633940Y0138440D01*
X0633636Y0138390D01*
X0633333Y0138333D01*
X0443333Y0138333D01*
X0443091Y0138330D01*
X0442850Y0138321D01*
X0442609Y0138307D01*
X0442368Y0138286D01*
X0442128Y0138260D01*
X0441888Y0138228D01*
X0441649Y0138190D01*
X0441412Y0138147D01*
X0441175Y0138097D01*
X0440940Y0138042D01*
X0440706Y0137982D01*
X0440474Y0137915D01*
X0440243Y0137844D01*
X0440014Y0137766D01*
X0439787Y0137683D01*
X0439562Y0137595D01*
X0439339Y0137501D01*
X0439119Y0137402D01*
X0438901Y0137297D01*
X0438686Y0137188D01*
X0438473Y0137073D01*
X0438263Y0136953D01*
X0438057Y0136828D01*
X0437853Y0136698D01*
X0437652Y0136563D01*
X0437455Y0136423D01*
X0437261Y0136279D01*
X0437071Y0136130D01*
X0436885Y0135976D01*
X0436702Y0135818D01*
X0436523Y0135656D01*
X0436348Y0135489D01*
X0436177Y0135318D01*
X0436010Y0135143D01*
X0435848Y0134964D01*
X0435690Y0134781D01*
X0435536Y0134595D01*
X0435387Y0134405D01*
X0435243Y0134211D01*
X0435103Y0134014D01*
X0434968Y0133813D01*
X0434838Y0133609D01*
X0434713Y0133403D01*
X0434593Y0133193D01*
X0434478Y0132980D01*
X0434369Y0132765D01*
X0434264Y0132547D01*
X0434165Y0132327D01*
X0434071Y0132104D01*
X0433983Y0131879D01*
X0433900Y0131652D01*
X0433822Y0131423D01*
X0433751Y0131192D01*
X0433684Y0130960D01*
X0433624Y0130726D01*
X0433569Y0130491D01*
X0433519Y0130254D01*
X0433476Y0130017D01*
X0433438Y0129778D01*
X0433406Y0129538D01*
X0433380Y0129298D01*
X0433359Y0129057D01*
X0433345Y0128816D01*
X0433336Y0128575D01*
X0433333Y0128333D01*
X0633333Y0038333D02*
X0633636Y0038276D01*
X0633940Y0038226D01*
X0634245Y0038184D01*
X0634551Y0038150D01*
X0634858Y0038122D01*
X0635165Y0038102D01*
X0635473Y0038090D01*
X0635781Y0038085D01*
X0636089Y0038088D01*
X0636397Y0038097D01*
X0636705Y0038115D01*
X0637012Y0038140D01*
X0637318Y0038172D01*
X0637624Y0038211D01*
X0637928Y0038258D01*
X0638231Y0038313D01*
X0638533Y0038374D01*
X0638833Y0038443D01*
X0639132Y0038519D01*
X0639429Y0038603D01*
X0639723Y0038693D01*
X0640015Y0038791D01*
X0640305Y0038895D01*
X0640592Y0039007D01*
X0640877Y0039125D01*
X0641158Y0039250D01*
X0641436Y0039382D01*
X0641711Y0039521D01*
X0641983Y0039667D01*
X0642251Y0039818D01*
X0642515Y0039977D01*
X0642776Y0040141D01*
X0643032Y0040312D01*
X0643284Y0040489D01*
X0643532Y0040672D01*
X0643775Y0040861D01*
X0644014Y0041056D01*
X0644248Y0041257D01*
X0644477Y0041463D01*
X0644700Y0041674D01*
X0644919Y0041891D01*
X0645133Y0042114D01*
X0645341Y0042341D01*
X0645543Y0042573D01*
X0645740Y0042810D01*
X0645931Y0043052D01*
X0646116Y0043298D01*
X0646295Y0043549D01*
X0646468Y0043804D01*
X0646635Y0044063D01*
X0646795Y0044326D01*
X0646949Y0044592D01*
X0647097Y0044863D01*
X0647238Y0045137D01*
X0647372Y0045414D01*
X0647499Y0045694D01*
X0647620Y0045978D01*
X0647734Y0046264D01*
X0647841Y0046553D01*
X0647941Y0046844D01*
X0648034Y0047138D01*
X0648120Y0047434D01*
X0648198Y0047732D01*
X0648269Y0048032D01*
X0648333Y0048333D01*
D12*
X0608333Y0048333D03*
X0598333Y0048333D03*
X0588333Y0048333D03*
X0578333Y0048333D03*
X0568333Y0048333D03*
X0558333Y0048333D03*
X0548333Y0048333D03*
X0538333Y0048333D03*
X0528333Y0048333D03*
X0518333Y0048333D03*
X0508333Y0048333D03*
X0498333Y0048333D03*
X0488333Y0048333D03*
X0478333Y0048333D03*
X0468333Y0048333D03*
X0458333Y0048333D03*
X0463333Y0063333D03*
X0473333Y0063333D03*
X0483333Y0063333D03*
X0503333Y0063333D03*
X0513333Y0063333D03*
X0523333Y0063333D03*
X0533333Y0063333D03*
X0543333Y0063333D03*
X0553333Y0063333D03*
X0563333Y0063333D03*
X0599652Y0070833D03*
X0589652Y0075833D03*
X0599652Y0080833D03*
X0589652Y0085833D03*
X0599652Y0090833D03*
X0589652Y0095833D03*
X0599652Y0100833D03*
X0589652Y0105833D03*
X0553333Y0103333D03*
X0533333Y0103333D03*
X0533333Y0113333D03*
X0553333Y0113333D03*
X0548333Y0128333D03*
X0558333Y0128333D03*
X0568333Y0128333D03*
X0578333Y0128333D03*
X0588333Y0128333D03*
X0598333Y0128333D03*
X0608333Y0128333D03*
X0538333Y0128333D03*
X0528333Y0128333D03*
X0518333Y0128333D03*
X0508333Y0128333D03*
X0498333Y0128333D03*
X0448333Y0108333D03*
X0448333Y0098333D03*
X0448333Y0088333D03*
X0448333Y0078333D03*
D13*
X0612822Y0058333D03*
X0612822Y0118176D03*
D14*
X0640381Y0114239D03*
X0640381Y0104396D03*
X0640381Y0072113D03*
X0640381Y0062270D03*
D15*
X0480026Y0128333D03*
X0466247Y0128333D03*
D16*
X0564333Y0118180D03*
X0564333Y0111487D03*
D17*
X0521680Y0113333D03*
X0514987Y0113333D03*
X0501680Y0098333D03*
X0494987Y0098333D03*
X0494987Y0088333D03*
X0501680Y0088333D03*
D18*
X0494987Y0088333D02*
X0494987Y0071680D01*
X0503333Y0063333D01*
X0496333Y0056333D01*
X0476333Y0056333D01*
X0468333Y0048333D01*
X0523333Y0063333D02*
X0525828Y0063333D01*
X0576042Y0113548D01*
X0583548Y0113548D01*
X0598333Y0128333D01*
X0608333Y0128333D02*
X0591140Y0111140D01*
X0583635Y0111140D01*
X0535828Y0063333D01*
X0533333Y0063333D01*
X0494987Y0088333D02*
X0494987Y0098333D01*
D19*
X0491514Y0098244D02*
X0486240Y0098244D01*
X0486240Y0098912D02*
X0485798Y0099980D01*
X0484980Y0100798D01*
X0482933Y0102845D01*
X0482933Y0123468D01*
X0483202Y0123580D01*
X0484780Y0125157D01*
X0485633Y0127218D01*
X0485633Y0129449D01*
X0484780Y0131509D01*
X0483202Y0133087D01*
X0482124Y0133533D01*
X0632863Y0133533D01*
X0633338Y0133439D01*
X0633809Y0133533D01*
X0634288Y0133533D01*
X0634626Y0133673D01*
X0635208Y0133750D01*
X0643333Y0128333D01*
X0643333Y0117333D01*
X0642802Y0117863D01*
X0641231Y0118514D01*
X0639530Y0118514D01*
X0637959Y0117863D01*
X0636756Y0116661D01*
X0636105Y0115089D01*
X0636105Y0113388D01*
X0636756Y0111817D01*
X0637959Y0110614D01*
X0639530Y0109963D01*
X0641231Y0109963D01*
X0642802Y0110614D01*
X0643333Y0111145D01*
X0643333Y0107490D01*
X0642802Y0108021D01*
X0641231Y0108672D01*
X0639530Y0108672D01*
X0637959Y0108021D01*
X0636756Y0106818D01*
X0636105Y0105247D01*
X0636105Y0103546D01*
X0636756Y0101974D01*
X0637959Y0100772D01*
X0639530Y0100121D01*
X0641231Y0100121D01*
X0642802Y0100772D01*
X0643333Y0101302D01*
X0643333Y0075207D01*
X0642802Y0075738D01*
X0641231Y0076388D01*
X0639530Y0076388D01*
X0637959Y0075738D01*
X0636756Y0074535D01*
X0636105Y0072963D01*
X0636105Y0071262D01*
X0636756Y0069691D01*
X0637959Y0068488D01*
X0639530Y0067837D01*
X0641231Y0067837D01*
X0642802Y0068488D01*
X0643333Y0069019D01*
X0643333Y0065364D01*
X0642802Y0065895D01*
X0641231Y0066546D01*
X0639530Y0066546D01*
X0637959Y0065895D01*
X0636756Y0064692D01*
X0636105Y0063121D01*
X0636105Y0061420D01*
X0636756Y0059848D01*
X0637959Y0058646D01*
X0639530Y0057995D01*
X0641231Y0057995D01*
X0642802Y0058646D01*
X0643333Y0059177D01*
X0643333Y0048333D01*
X0635208Y0042916D01*
X0634626Y0042994D01*
X0634288Y0043133D01*
X0633809Y0043133D01*
X0633338Y0043227D01*
X0632863Y0043133D01*
X0443333Y0043133D01*
X0442655Y0043178D01*
X0441343Y0043529D01*
X0440168Y0044208D01*
X0439905Y0044471D01*
X0441444Y0043833D01*
X0445223Y0043833D01*
X0448715Y0045280D01*
X0451387Y0047952D01*
X0452833Y0051444D01*
X0452833Y0055223D01*
X0451387Y0058715D01*
X0448715Y0061387D01*
X0445223Y0062833D01*
X0441444Y0062833D01*
X0438133Y0061462D01*
X0438133Y0115205D01*
X0441444Y0113833D01*
X0445223Y0113833D01*
X0448715Y0115280D01*
X0451387Y0117952D01*
X0452833Y0121444D01*
X0452833Y0125223D01*
X0451387Y0128715D01*
X0448715Y0131387D01*
X0445223Y0132833D01*
X0441444Y0132833D01*
X0439905Y0132196D01*
X0440168Y0132459D01*
X0441343Y0133138D01*
X0442655Y0133489D01*
X0443333Y0133533D01*
X0463677Y0133533D01*
X0463207Y0133294D01*
X0462468Y0132757D01*
X0461823Y0132112D01*
X0461286Y0131373D01*
X0460872Y0130560D01*
X0460590Y0129691D01*
X0460451Y0128818D01*
X0465762Y0128818D01*
X0465762Y0127849D01*
X0460451Y0127849D01*
X0460590Y0126975D01*
X0460872Y0126107D01*
X0461286Y0125293D01*
X0461823Y0124555D01*
X0462468Y0123909D01*
X0463207Y0123373D01*
X0464020Y0122958D01*
X0464889Y0122676D01*
X0465762Y0122538D01*
X0465762Y0127849D01*
X0466731Y0127849D01*
X0466731Y0122538D01*
X0467605Y0122676D01*
X0468473Y0122958D01*
X0469287Y0123373D01*
X0470025Y0123909D01*
X0470671Y0124555D01*
X0471207Y0125293D01*
X0471622Y0126107D01*
X0471904Y0126975D01*
X0472042Y0127849D01*
X0466731Y0127849D01*
X0466731Y0128818D01*
X0472042Y0128818D01*
X0471904Y0129691D01*
X0471622Y0130560D01*
X0471207Y0131373D01*
X0470671Y0132112D01*
X0470025Y0132757D01*
X0469287Y0133294D01*
X0468817Y0133533D01*
X0477928Y0133533D01*
X0476850Y0133087D01*
X0475273Y0131509D01*
X0474419Y0129449D01*
X0474419Y0127218D01*
X0475273Y0125157D01*
X0476850Y0123580D01*
X0477119Y0123468D01*
X0477119Y0104537D01*
X0473822Y0101240D01*
X0452507Y0101240D01*
X0451170Y0102578D01*
X0449346Y0103333D01*
X0451170Y0104089D01*
X0452578Y0105497D01*
X0453340Y0107337D01*
X0453340Y0109329D01*
X0452578Y0111170D01*
X0451170Y0112578D01*
X0449329Y0113340D01*
X0447337Y0113340D01*
X0445497Y0112578D01*
X0444089Y0111170D01*
X0443326Y0109329D01*
X0443326Y0107337D01*
X0444089Y0105497D01*
X0445497Y0104089D01*
X0447320Y0103333D01*
X0445497Y0102578D01*
X0444089Y0101170D01*
X0443326Y0099329D01*
X0443326Y0097337D01*
X0444089Y0095497D01*
X0445497Y0094089D01*
X0447138Y0093409D01*
X0447116Y0093405D01*
X0446337Y0093152D01*
X0445608Y0092781D01*
X0444946Y0092300D01*
X0444367Y0091721D01*
X0443886Y0091059D01*
X0443514Y0090329D01*
X0443261Y0089551D01*
X0443148Y0088833D01*
X0447833Y0088833D01*
X0447833Y0087833D01*
X0443148Y0087833D01*
X0443261Y0087116D01*
X0443514Y0086337D01*
X0443886Y0085608D01*
X0444367Y0084946D01*
X0444946Y0084367D01*
X0445608Y0083886D01*
X0446337Y0083514D01*
X0447116Y0083261D01*
X0447138Y0083258D01*
X0445497Y0082578D01*
X0444089Y0081170D01*
X0443326Y0079329D01*
X0443326Y0077337D01*
X0444089Y0075497D01*
X0445497Y0074089D01*
X0447337Y0073326D01*
X0449229Y0073326D01*
X0458326Y0064229D01*
X0458326Y0062337D01*
X0459089Y0060497D01*
X0460497Y0059089D01*
X0462337Y0058326D01*
X0464329Y0058326D01*
X0466170Y0059089D01*
X0467578Y0060497D01*
X0468333Y0062320D01*
X0469089Y0060497D01*
X0470497Y0059089D01*
X0472337Y0058326D01*
X0474329Y0058326D01*
X0476170Y0059089D01*
X0477578Y0060497D01*
X0478333Y0062320D01*
X0479089Y0060497D01*
X0480497Y0059089D01*
X0482062Y0058440D01*
X0475461Y0058440D01*
X0474226Y0057206D01*
X0470059Y0053038D01*
X0469329Y0053340D01*
X0467337Y0053340D01*
X0465497Y0052578D01*
X0464089Y0051170D01*
X0463333Y0049346D01*
X0462578Y0051170D01*
X0461170Y0052578D01*
X0459329Y0053340D01*
X0457337Y0053340D01*
X0455497Y0052578D01*
X0454089Y0051170D01*
X0453326Y0049329D01*
X0453326Y0047337D01*
X0454089Y0045497D01*
X0455497Y0044089D01*
X0457337Y0043326D01*
X0459329Y0043326D01*
X0461170Y0044089D01*
X0462578Y0045497D01*
X0463333Y0047320D01*
X0463333Y0047320D01*
X0464089Y0045497D01*
X0465497Y0044089D01*
X0467337Y0043326D01*
X0469329Y0043326D01*
X0471170Y0044089D01*
X0472578Y0045497D01*
X0473333Y0047320D01*
X0473333Y0047320D01*
X0474089Y0045497D01*
X0475497Y0044089D01*
X0477337Y0043326D01*
X0479329Y0043326D01*
X0481170Y0044089D01*
X0482578Y0045497D01*
X0483258Y0047138D01*
X0483261Y0047116D01*
X0483514Y0046337D01*
X0483886Y0045608D01*
X0484367Y0044946D01*
X0484946Y0044367D01*
X0485608Y0043886D01*
X0486337Y0043514D01*
X0487116Y0043261D01*
X0487833Y0043148D01*
X0487833Y0047833D01*
X0488833Y0047833D01*
X0488833Y0043148D01*
X0489551Y0043261D01*
X0490329Y0043514D01*
X0491059Y0043886D01*
X0491721Y0044367D01*
X0492300Y0044946D01*
X0492781Y0045608D01*
X0493152Y0046337D01*
X0493405Y0047116D01*
X0493409Y0047138D01*
X0494089Y0045497D01*
X0495497Y0044089D01*
X0497337Y0043326D01*
X0499329Y0043326D01*
X0501170Y0044089D01*
X0502578Y0045497D01*
X0503333Y0047320D01*
X0503333Y0047320D01*
X0504089Y0045497D01*
X0505497Y0044089D01*
X0507337Y0043326D01*
X0509329Y0043326D01*
X0511170Y0044089D01*
X0512578Y0045497D01*
X0513333Y0047320D01*
X0513333Y0047320D01*
X0514089Y0045497D01*
X0515497Y0044089D01*
X0517337Y0043326D01*
X0519329Y0043326D01*
X0521170Y0044089D01*
X0522578Y0045497D01*
X0523333Y0047320D01*
X0523333Y0047320D01*
X0524089Y0045497D01*
X0525497Y0044089D01*
X0527337Y0043326D01*
X0529329Y0043326D01*
X0531170Y0044089D01*
X0532578Y0045497D01*
X0533333Y0047320D01*
X0533333Y0047320D01*
X0534089Y0045497D01*
X0535497Y0044089D01*
X0537337Y0043326D01*
X0539329Y0043326D01*
X0541170Y0044089D01*
X0542578Y0045497D01*
X0543333Y0047320D01*
X0543333Y0047320D01*
X0544089Y0045497D01*
X0545497Y0044089D01*
X0547337Y0043326D01*
X0549329Y0043326D01*
X0551170Y0044089D01*
X0552578Y0045497D01*
X0553333Y0047320D01*
X0553333Y0047320D01*
X0554089Y0045497D01*
X0555497Y0044089D01*
X0557337Y0043326D01*
X0559329Y0043326D01*
X0561170Y0044089D01*
X0562578Y0045497D01*
X0563333Y0047320D01*
X0563333Y0047320D01*
X0564089Y0045497D01*
X0565497Y0044089D01*
X0567337Y0043326D01*
X0569329Y0043326D01*
X0571170Y0044089D01*
X0572578Y0045497D01*
X0573333Y0047320D01*
X0573333Y0047320D01*
X0574089Y0045497D01*
X0575497Y0044089D01*
X0577337Y0043326D01*
X0579329Y0043326D01*
X0581170Y0044089D01*
X0582578Y0045497D01*
X0583333Y0047320D01*
X0583333Y0047320D01*
X0584089Y0045497D01*
X0585497Y0044089D01*
X0587337Y0043326D01*
X0589329Y0043326D01*
X0591170Y0044089D01*
X0592578Y0045497D01*
X0593333Y0047320D01*
X0593333Y0047320D01*
X0594089Y0045497D01*
X0595497Y0044089D01*
X0597337Y0043326D01*
X0599329Y0043326D01*
X0601170Y0044089D01*
X0602578Y0045497D01*
X0603333Y0047320D01*
X0603333Y0047320D01*
X0604089Y0045497D01*
X0605497Y0044089D01*
X0607337Y0043326D01*
X0609329Y0043326D01*
X0611170Y0044089D01*
X0612578Y0045497D01*
X0613340Y0047337D01*
X0613340Y0049329D01*
X0612578Y0051170D01*
X0611322Y0052426D01*
X0611622Y0052302D01*
X0613833Y0052302D01*
X0613833Y0051444D01*
X0615280Y0047952D01*
X0617952Y0045280D01*
X0621444Y0043833D01*
X0625223Y0043833D01*
X0628715Y0045280D01*
X0631387Y0047952D01*
X0632833Y0051444D01*
X0632833Y0055223D01*
X0631803Y0057711D01*
X0633294Y0059202D01*
X0634715Y0061665D01*
X0635451Y0064412D01*
X0635451Y0067255D01*
X0634715Y0070002D01*
X0633294Y0072464D01*
X0631283Y0074475D01*
X0628821Y0075897D01*
X0626074Y0076633D01*
X0623230Y0076633D01*
X0620484Y0075897D01*
X0618021Y0074475D01*
X0616011Y0072464D01*
X0614589Y0070002D01*
X0613853Y0067255D01*
X0613853Y0064412D01*
X0613866Y0064365D01*
X0611622Y0064365D01*
X0609405Y0063447D01*
X0607708Y0061750D01*
X0606790Y0059533D01*
X0606790Y0057134D01*
X0607708Y0054917D01*
X0609285Y0053340D01*
X0607337Y0053340D01*
X0605497Y0052578D01*
X0604089Y0051170D01*
X0603333Y0049346D01*
X0602578Y0051170D01*
X0601170Y0052578D01*
X0599329Y0053340D01*
X0597337Y0053340D01*
X0595497Y0052578D01*
X0594089Y0051170D01*
X0593333Y0049346D01*
X0592578Y0051170D01*
X0591170Y0052578D01*
X0589329Y0053340D01*
X0587337Y0053340D01*
X0585497Y0052578D01*
X0584089Y0051170D01*
X0583333Y0049346D01*
X0582578Y0051170D01*
X0581170Y0052578D01*
X0579329Y0053340D01*
X0577337Y0053340D01*
X0575497Y0052578D01*
X0574089Y0051170D01*
X0573333Y0049346D01*
X0572578Y0051170D01*
X0571170Y0052578D01*
X0569329Y0053340D01*
X0567337Y0053340D01*
X0565497Y0052578D01*
X0564089Y0051170D01*
X0563333Y0049346D01*
X0562578Y0051170D01*
X0561170Y0052578D01*
X0559329Y0053340D01*
X0557337Y0053340D01*
X0555497Y0052578D01*
X0554089Y0051170D01*
X0553333Y0049346D01*
X0552578Y0051170D01*
X0551170Y0052578D01*
X0549329Y0053340D01*
X0547337Y0053340D01*
X0545497Y0052578D01*
X0544089Y0051170D01*
X0543333Y0049346D01*
X0542578Y0051170D01*
X0541170Y0052578D01*
X0539329Y0053340D01*
X0537337Y0053340D01*
X0535497Y0052578D01*
X0534089Y0051170D01*
X0533333Y0049346D01*
X0532578Y0051170D01*
X0531170Y0052578D01*
X0529329Y0053340D01*
X0527337Y0053340D01*
X0525497Y0052578D01*
X0524089Y0051170D01*
X0523333Y0049346D01*
X0522578Y0051170D01*
X0521170Y0052578D01*
X0519329Y0053340D01*
X0517337Y0053340D01*
X0515497Y0052578D01*
X0514089Y0051170D01*
X0513333Y0049346D01*
X0512578Y0051170D01*
X0511170Y0052578D01*
X0509329Y0053340D01*
X0507337Y0053340D01*
X0505497Y0052578D01*
X0504089Y0051170D01*
X0503333Y0049346D01*
X0502578Y0051170D01*
X0501170Y0052578D01*
X0499329Y0053340D01*
X0497337Y0053340D01*
X0495497Y0052578D01*
X0494089Y0051170D01*
X0493409Y0049529D01*
X0493405Y0049551D01*
X0493152Y0050329D01*
X0492781Y0051059D01*
X0492300Y0051721D01*
X0491721Y0052300D01*
X0491059Y0052781D01*
X0490329Y0053152D01*
X0489551Y0053405D01*
X0488833Y0053519D01*
X0488833Y0048833D01*
X0487833Y0048833D01*
X0487833Y0053519D01*
X0487116Y0053405D01*
X0486337Y0053152D01*
X0485608Y0052781D01*
X0484946Y0052300D01*
X0484367Y0051721D01*
X0483886Y0051059D01*
X0483514Y0050329D01*
X0483261Y0049551D01*
X0483258Y0049529D01*
X0482578Y0051170D01*
X0481170Y0052578D01*
X0479329Y0053340D01*
X0477337Y0053340D01*
X0475601Y0052621D01*
X0477206Y0054226D01*
X0497206Y0054226D01*
X0498440Y0055461D01*
X0501608Y0058628D01*
X0502337Y0058326D01*
X0504329Y0058326D01*
X0506170Y0059089D01*
X0507578Y0060497D01*
X0508258Y0062138D01*
X0508261Y0062116D01*
X0508514Y0061337D01*
X0508886Y0060608D01*
X0509367Y0059946D01*
X0509946Y0059367D01*
X0510608Y0058886D01*
X0511337Y0058514D01*
X0512116Y0058261D01*
X0512833Y0058148D01*
X0512833Y0062833D01*
X0513833Y0062833D01*
X0513833Y0058148D01*
X0514551Y0058261D01*
X0515329Y0058514D01*
X0516059Y0058886D01*
X0516721Y0059367D01*
X0517300Y0059946D01*
X0517781Y0060608D01*
X0518152Y0061337D01*
X0518405Y0062116D01*
X0518409Y0062138D01*
X0519089Y0060497D01*
X0520497Y0059089D01*
X0522337Y0058326D01*
X0524329Y0058326D01*
X0526170Y0059089D01*
X0527578Y0060497D01*
X0528333Y0062320D01*
X0529089Y0060497D01*
X0530497Y0059089D01*
X0532337Y0058326D01*
X0534329Y0058326D01*
X0536170Y0059089D01*
X0537578Y0060497D01*
X0538333Y0062320D01*
X0539089Y0060497D01*
X0540497Y0059089D01*
X0542337Y0058326D01*
X0544329Y0058326D01*
X0546170Y0059089D01*
X0547578Y0060497D01*
X0548333Y0062320D01*
X0549089Y0060497D01*
X0550497Y0059089D01*
X0552337Y0058326D01*
X0554329Y0058326D01*
X0556170Y0059089D01*
X0557578Y0060497D01*
X0558333Y0062320D01*
X0559089Y0060497D01*
X0560497Y0059089D01*
X0562337Y0058326D01*
X0564329Y0058326D01*
X0566170Y0059089D01*
X0567578Y0060497D01*
X0568340Y0062337D01*
X0568340Y0064329D01*
X0567578Y0066170D01*
X0566170Y0067578D01*
X0564329Y0068340D01*
X0562337Y0068340D01*
X0560497Y0067578D01*
X0559089Y0066170D01*
X0558333Y0064346D01*
X0557578Y0066170D01*
X0556170Y0067578D01*
X0554329Y0068340D01*
X0552337Y0068340D01*
X0550497Y0067578D01*
X0549089Y0066170D01*
X0548333Y0064346D01*
X0547578Y0066170D01*
X0546170Y0067578D01*
X0544329Y0068340D01*
X0543815Y0068340D01*
X0565537Y0090063D01*
X0565537Y0089173D01*
X0565963Y0088146D01*
X0566749Y0087359D01*
X0567777Y0086933D01*
X0568574Y0086933D01*
X0586488Y0069019D01*
X0592475Y0069019D01*
X0592482Y0069026D01*
X0594981Y0069026D01*
X0595407Y0067997D01*
X0596816Y0066589D01*
X0598656Y0065826D01*
X0600648Y0065826D01*
X0602489Y0066589D01*
X0603897Y0067997D01*
X0604659Y0069837D01*
X0604659Y0071829D01*
X0603897Y0073670D01*
X0602489Y0075078D01*
X0600665Y0075833D01*
X0602489Y0076589D01*
X0603897Y0077997D01*
X0604659Y0079837D01*
X0604659Y0081829D01*
X0604233Y0082859D01*
X0609082Y0087707D01*
X0610140Y0088766D01*
X0610140Y0106186D01*
X0610704Y0106749D01*
X0611129Y0107777D01*
X0611129Y0108889D01*
X0610704Y0109917D01*
X0609917Y0110704D01*
X0608889Y0111129D01*
X0607777Y0111129D01*
X0606749Y0110704D01*
X0605963Y0109917D01*
X0605537Y0108889D01*
X0605537Y0107777D01*
X0605963Y0106749D01*
X0606526Y0106186D01*
X0606526Y0090263D01*
X0601677Y0085414D01*
X0600848Y0085758D01*
X0600870Y0085761D01*
X0601648Y0086014D01*
X0602378Y0086386D01*
X0603040Y0086867D01*
X0603619Y0087446D01*
X0604100Y0088108D01*
X0604471Y0088837D01*
X0604724Y0089616D01*
X0604840Y0090349D01*
X0600137Y0090349D01*
X0600137Y0091318D01*
X0604840Y0091318D01*
X0604724Y0092051D01*
X0604471Y0092829D01*
X0604100Y0093559D01*
X0603619Y0094221D01*
X0603040Y0094800D01*
X0602378Y0095281D01*
X0601648Y0095652D01*
X0600870Y0095905D01*
X0600848Y0095909D01*
X0602489Y0096589D01*
X0603897Y0097997D01*
X0604659Y0099837D01*
X0604659Y0101829D01*
X0603897Y0103670D01*
X0602489Y0105078D01*
X0600648Y0105840D01*
X0598656Y0105840D01*
X0596816Y0105078D01*
X0595407Y0103670D01*
X0594645Y0101829D01*
X0594645Y0099837D01*
X0595407Y0097997D01*
X0596816Y0096589D01*
X0598457Y0095909D01*
X0598435Y0095905D01*
X0597656Y0095652D01*
X0596927Y0095281D01*
X0596265Y0094800D01*
X0595686Y0094221D01*
X0595205Y0093559D01*
X0594833Y0092829D01*
X0594580Y0092051D01*
X0594464Y0091318D01*
X0599168Y0091318D01*
X0599168Y0090349D01*
X0594464Y0090349D01*
X0594580Y0089616D01*
X0594833Y0088837D01*
X0595205Y0088108D01*
X0595686Y0087446D01*
X0596265Y0086867D01*
X0596927Y0086386D01*
X0597656Y0086014D01*
X0598435Y0085761D01*
X0598457Y0085758D01*
X0596816Y0085078D01*
X0595407Y0083670D01*
X0594645Y0081829D01*
X0594645Y0079837D01*
X0595407Y0077997D01*
X0596816Y0076589D01*
X0598639Y0075833D01*
X0596816Y0075078D01*
X0595407Y0073670D01*
X0594981Y0072640D01*
X0593540Y0072640D01*
X0593897Y0072997D01*
X0594659Y0074837D01*
X0594659Y0076829D01*
X0593897Y0078670D01*
X0592489Y0080078D01*
X0590665Y0080833D01*
X0592489Y0081589D01*
X0593897Y0082997D01*
X0594659Y0084837D01*
X0594659Y0086829D01*
X0593897Y0088670D01*
X0592489Y0090078D01*
X0590665Y0090833D01*
X0592489Y0091589D01*
X0593897Y0092997D01*
X0594659Y0094837D01*
X0594659Y0096829D01*
X0593897Y0098670D01*
X0592489Y0100078D01*
X0590665Y0100833D01*
X0592489Y0101589D01*
X0593897Y0102997D01*
X0594659Y0104837D01*
X0594659Y0106829D01*
X0593897Y0108670D01*
X0592773Y0109793D01*
X0606608Y0123628D01*
X0607337Y0123326D01*
X0609329Y0123326D01*
X0611170Y0124089D01*
X0612578Y0125497D01*
X0613340Y0127337D01*
X0613340Y0129329D01*
X0612578Y0131170D01*
X0611170Y0132578D01*
X0609329Y0133340D01*
X0607337Y0133340D01*
X0605497Y0132578D01*
X0604089Y0131170D01*
X0603333Y0129346D01*
X0602578Y0131170D01*
X0601170Y0132578D01*
X0599329Y0133340D01*
X0597337Y0133340D01*
X0595497Y0132578D01*
X0594089Y0131170D01*
X0593333Y0129346D01*
X0592578Y0131170D01*
X0591170Y0132578D01*
X0589329Y0133340D01*
X0587337Y0133340D01*
X0585497Y0132578D01*
X0584089Y0131170D01*
X0583333Y0129346D01*
X0582578Y0131170D01*
X0581170Y0132578D01*
X0579329Y0133340D01*
X0577337Y0133340D01*
X0575497Y0132578D01*
X0574089Y0131170D01*
X0573333Y0129346D01*
X0572578Y0131170D01*
X0571170Y0132578D01*
X0569329Y0133340D01*
X0567337Y0133340D01*
X0565497Y0132578D01*
X0564089Y0131170D01*
X0563333Y0129346D01*
X0562578Y0131170D01*
X0561170Y0132578D01*
X0559329Y0133340D01*
X0557337Y0133340D01*
X0555497Y0132578D01*
X0554089Y0131170D01*
X0553333Y0129346D01*
X0552578Y0131170D01*
X0551170Y0132578D01*
X0549329Y0133340D01*
X0547337Y0133340D01*
X0545497Y0132578D01*
X0544089Y0131170D01*
X0543333Y0129346D01*
X0542578Y0131170D01*
X0541170Y0132578D01*
X0539329Y0133340D01*
X0537337Y0133340D01*
X0535497Y0132578D01*
X0534089Y0131170D01*
X0533333Y0129346D01*
X0532578Y0131170D01*
X0531170Y0132578D01*
X0529329Y0133340D01*
X0527337Y0133340D01*
X0525497Y0132578D01*
X0524089Y0131170D01*
X0523333Y0129346D01*
X0522578Y0131170D01*
X0521170Y0132578D01*
X0519329Y0133340D01*
X0517337Y0133340D01*
X0515497Y0132578D01*
X0514089Y0131170D01*
X0513333Y0129346D01*
X0512578Y0131170D01*
X0511170Y0132578D01*
X0509329Y0133340D01*
X0507337Y0133340D01*
X0505497Y0132578D01*
X0504089Y0131170D01*
X0503333Y0129346D01*
X0502578Y0131170D01*
X0501170Y0132578D01*
X0499329Y0133340D01*
X0497337Y0133340D01*
X0495497Y0132578D01*
X0494089Y0131170D01*
X0493326Y0129329D01*
X0493326Y0127337D01*
X0494089Y0125497D01*
X0495497Y0124089D01*
X0497337Y0123326D01*
X0499329Y0123326D01*
X0501170Y0124089D01*
X0502578Y0125497D01*
X0503333Y0127320D01*
X0504089Y0125497D01*
X0505497Y0124089D01*
X0507337Y0123326D01*
X0509329Y0123326D01*
X0511170Y0124089D01*
X0512578Y0125497D01*
X0513333Y0127320D01*
X0514089Y0125497D01*
X0515497Y0124089D01*
X0517337Y0123326D01*
X0519329Y0123326D01*
X0521170Y0124089D01*
X0522578Y0125497D01*
X0523333Y0127320D01*
X0524089Y0125497D01*
X0525497Y0124089D01*
X0527337Y0123326D01*
X0529329Y0123326D01*
X0531170Y0124089D01*
X0532578Y0125497D01*
X0533333Y0127320D01*
X0534089Y0125497D01*
X0535497Y0124089D01*
X0537337Y0123326D01*
X0539329Y0123326D01*
X0541170Y0124089D01*
X0542578Y0125497D01*
X0543333Y0127320D01*
X0544089Y0125497D01*
X0545497Y0124089D01*
X0547337Y0123326D01*
X0549329Y0123326D01*
X0551170Y0124089D01*
X0552578Y0125497D01*
X0553333Y0127320D01*
X0554089Y0125497D01*
X0555497Y0124089D01*
X0557337Y0123326D01*
X0559329Y0123326D01*
X0561170Y0124089D01*
X0562578Y0125497D01*
X0563333Y0127320D01*
X0564089Y0125497D01*
X0565497Y0124089D01*
X0567337Y0123326D01*
X0569329Y0123326D01*
X0571170Y0124089D01*
X0572578Y0125497D01*
X0573333Y0127320D01*
X0574089Y0125497D01*
X0575497Y0124089D01*
X0577337Y0123326D01*
X0579329Y0123326D01*
X0581170Y0124089D01*
X0582578Y0125497D01*
X0583333Y0127320D01*
X0584089Y0125497D01*
X0585497Y0124089D01*
X0587337Y0123326D01*
X0589329Y0123326D01*
X0591066Y0124045D01*
X0582675Y0115655D01*
X0575169Y0115655D01*
X0526631Y0067116D01*
X0526170Y0067578D01*
X0524329Y0068340D01*
X0522337Y0068340D01*
X0520497Y0067578D01*
X0519089Y0066170D01*
X0518409Y0064529D01*
X0518405Y0064551D01*
X0518152Y0065329D01*
X0517781Y0066059D01*
X0517300Y0066721D01*
X0516721Y0067300D01*
X0516059Y0067781D01*
X0515329Y0068152D01*
X0514551Y0068405D01*
X0513833Y0068519D01*
X0513833Y0063833D01*
X0512833Y0063833D01*
X0512833Y0068519D01*
X0512116Y0068405D01*
X0511337Y0068152D01*
X0510608Y0067781D01*
X0509946Y0067300D01*
X0509367Y0066721D01*
X0508886Y0066059D01*
X0508514Y0065329D01*
X0508261Y0064551D01*
X0508258Y0064529D01*
X0507578Y0066170D01*
X0506170Y0067578D01*
X0504329Y0068340D01*
X0502337Y0068340D01*
X0501608Y0068038D01*
X0497094Y0072553D01*
X0497094Y0085058D01*
X0497694Y0085058D01*
X0498333Y0085697D01*
X0498973Y0085058D01*
X0504387Y0085058D01*
X0505152Y0085823D01*
X0505152Y0087922D01*
X0521186Y0087922D01*
X0521749Y0087359D01*
X0522777Y0086933D01*
X0523889Y0086933D01*
X0524917Y0087359D01*
X0525704Y0088146D01*
X0526129Y0089173D01*
X0526129Y0090286D01*
X0525704Y0091313D01*
X0524917Y0092100D01*
X0523889Y0092525D01*
X0522777Y0092525D01*
X0521749Y0092100D01*
X0521186Y0091536D01*
X0507439Y0091536D01*
X0512421Y0096519D01*
X0536156Y0096519D01*
X0537214Y0097578D01*
X0541163Y0101526D01*
X0548662Y0101526D01*
X0549089Y0100497D01*
X0550497Y0099089D01*
X0552337Y0098326D01*
X0554329Y0098326D01*
X0556170Y0099089D01*
X0557578Y0100497D01*
X0558340Y0102337D01*
X0558340Y0104329D01*
X0557578Y0106170D01*
X0556170Y0107578D01*
X0554346Y0108333D01*
X0556170Y0109089D01*
X0557578Y0110497D01*
X0558004Y0111526D01*
X0561058Y0111526D01*
X0561058Y0108780D01*
X0561823Y0108014D01*
X0566843Y0108014D01*
X0567609Y0108780D01*
X0567609Y0114194D01*
X0567074Y0114728D01*
X0567223Y0114814D01*
X0567502Y0115093D01*
X0567700Y0115435D01*
X0567802Y0115817D01*
X0567802Y0117696D01*
X0564818Y0117696D01*
X0564818Y0118664D01*
X0567802Y0118664D01*
X0567802Y0120543D01*
X0567700Y0120924D01*
X0567502Y0121266D01*
X0567223Y0121545D01*
X0566881Y0121743D01*
X0566499Y0121845D01*
X0564818Y0121845D01*
X0564818Y0118664D01*
X0563849Y0118664D01*
X0563849Y0117696D01*
X0560865Y0117696D01*
X0560865Y0115817D01*
X0560967Y0115435D01*
X0561137Y0115140D01*
X0558004Y0115140D01*
X0557578Y0116170D01*
X0556170Y0117578D01*
X0554329Y0118340D01*
X0552337Y0118340D01*
X0550497Y0117578D01*
X0549089Y0116170D01*
X0548326Y0114329D01*
X0548326Y0112337D01*
X0549089Y0110497D01*
X0550497Y0109089D01*
X0552320Y0108333D01*
X0550497Y0107578D01*
X0549089Y0106170D01*
X0548662Y0105140D01*
X0539666Y0105140D01*
X0538340Y0103815D01*
X0538340Y0104329D01*
X0537578Y0106170D01*
X0536170Y0107578D01*
X0534346Y0108333D01*
X0536170Y0109089D01*
X0537578Y0110497D01*
X0538340Y0112337D01*
X0538340Y0114329D01*
X0537578Y0116170D01*
X0536170Y0117578D01*
X0534329Y0118340D01*
X0532337Y0118340D01*
X0530497Y0117578D01*
X0529089Y0116170D01*
X0528662Y0115140D01*
X0525152Y0115140D01*
X0525152Y0115843D01*
X0524387Y0116609D01*
X0518973Y0116609D01*
X0518438Y0116074D01*
X0518353Y0116223D01*
X0518073Y0116502D01*
X0517731Y0116700D01*
X0517350Y0116802D01*
X0515471Y0116802D01*
X0515471Y0113818D01*
X0514503Y0113818D01*
X0514503Y0116802D01*
X0512624Y0116802D01*
X0512243Y0116700D01*
X0511900Y0116502D01*
X0511621Y0116223D01*
X0511424Y0115881D01*
X0511322Y0115499D01*
X0511322Y0113818D01*
X0514503Y0113818D01*
X0514503Y0112849D01*
X0515471Y0112849D01*
X0515471Y0109865D01*
X0517350Y0109865D01*
X0517731Y0109967D01*
X0518073Y0110165D01*
X0518353Y0110444D01*
X0518438Y0110592D01*
X0518973Y0110058D01*
X0524387Y0110058D01*
X0525152Y0110823D01*
X0525152Y0111526D01*
X0528662Y0111526D01*
X0529089Y0110497D01*
X0530497Y0109089D01*
X0532320Y0108333D01*
X0530497Y0107578D01*
X0529089Y0106170D01*
X0528662Y0105140D01*
X0505931Y0105140D01*
X0502400Y0101609D01*
X0498973Y0101609D01*
X0498333Y0100969D01*
X0497694Y0101609D01*
X0492280Y0101609D01*
X0491514Y0100843D01*
X0491514Y0095823D01*
X0492280Y0095058D01*
X0492880Y0095058D01*
X0492880Y0091609D01*
X0492280Y0091609D01*
X0491514Y0090843D01*
X0491514Y0085823D01*
X0492280Y0085058D01*
X0492880Y0085058D01*
X0492880Y0070807D01*
X0498628Y0065059D01*
X0498326Y0064329D01*
X0498326Y0062337D01*
X0498628Y0061608D01*
X0495461Y0058440D01*
X0484605Y0058440D01*
X0486170Y0059089D01*
X0487578Y0060497D01*
X0488340Y0062337D01*
X0488340Y0064329D01*
X0487578Y0066170D01*
X0486240Y0067507D01*
X0486240Y0098912D01*
X0486103Y0099243D02*
X0491514Y0099243D01*
X0491514Y0100241D02*
X0485537Y0100241D01*
X0484538Y0101240D02*
X0491911Y0101240D01*
X0498063Y0101240D02*
X0498604Y0101240D01*
X0501680Y0098333D02*
X0506680Y0103333D01*
X0533333Y0103333D01*
X0538340Y0104235D02*
X0538761Y0104235D01*
X0537966Y0105234D02*
X0548701Y0105234D01*
X0549151Y0106232D02*
X0537516Y0106232D01*
X0536517Y0107231D02*
X0550150Y0107231D01*
X0550358Y0109228D02*
X0536309Y0109228D01*
X0537307Y0110226D02*
X0549359Y0110226D01*
X0548787Y0111225D02*
X0537880Y0111225D01*
X0538293Y0112223D02*
X0548374Y0112223D01*
X0548326Y0113222D02*
X0538340Y0113222D01*
X0538340Y0114220D02*
X0548326Y0114220D01*
X0548695Y0115219D02*
X0537972Y0115219D01*
X0537531Y0116217D02*
X0549136Y0116217D01*
X0550135Y0117216D02*
X0536532Y0117216D01*
X0534634Y0118214D02*
X0552033Y0118214D01*
X0554634Y0118214D02*
X0563849Y0118214D01*
X0563849Y0118664D02*
X0560865Y0118664D01*
X0560865Y0120543D01*
X0560967Y0120924D01*
X0561165Y0121266D01*
X0561444Y0121545D01*
X0561786Y0121743D01*
X0562167Y0121845D01*
X0563849Y0121845D01*
X0563849Y0118664D01*
X0563849Y0119213D02*
X0564818Y0119213D01*
X0564818Y0120211D02*
X0563849Y0120211D01*
X0563849Y0121210D02*
X0564818Y0121210D01*
X0567535Y0121210D02*
X0588230Y0121210D01*
X0589228Y0122208D02*
X0482933Y0122208D01*
X0482933Y0121210D02*
X0561132Y0121210D01*
X0560865Y0120211D02*
X0482933Y0120211D01*
X0482933Y0119213D02*
X0560865Y0119213D01*
X0560865Y0117216D02*
X0556532Y0117216D01*
X0555568Y0118180D02*
X0555407Y0118340D01*
X0519994Y0118340D01*
X0514987Y0113333D01*
X0508333Y0113333D01*
X0511322Y0112849D02*
X0511322Y0111167D01*
X0511424Y0110786D01*
X0511621Y0110444D01*
X0511900Y0110165D01*
X0512243Y0109967D01*
X0512624Y0109865D01*
X0514503Y0109865D01*
X0514503Y0112849D01*
X0511322Y0112849D01*
X0511322Y0112223D02*
X0482933Y0112223D01*
X0482933Y0111225D02*
X0511322Y0111225D01*
X0511839Y0110226D02*
X0482933Y0110226D01*
X0482933Y0109228D02*
X0530358Y0109228D01*
X0529359Y0110226D02*
X0524555Y0110226D01*
X0525152Y0111225D02*
X0528787Y0111225D01*
X0533333Y0113333D02*
X0521680Y0113333D01*
X0515471Y0114220D02*
X0514503Y0114220D01*
X0514503Y0113222D02*
X0482933Y0113222D01*
X0482933Y0114220D02*
X0511322Y0114220D01*
X0511322Y0115219D02*
X0482933Y0115219D01*
X0482933Y0116217D02*
X0511618Y0116217D01*
X0514503Y0116217D02*
X0515471Y0116217D01*
X0515471Y0115219D02*
X0514503Y0115219D01*
X0518356Y0116217D02*
X0518581Y0116217D01*
X0524778Y0116217D02*
X0529136Y0116217D01*
X0528695Y0115219D02*
X0525152Y0115219D01*
X0530135Y0117216D02*
X0482933Y0117216D01*
X0482933Y0118214D02*
X0532033Y0118214D01*
X0555568Y0118180D02*
X0564333Y0118180D01*
X0564818Y0118214D02*
X0585234Y0118214D01*
X0584236Y0117216D02*
X0567802Y0117216D01*
X0567802Y0116217D02*
X0583237Y0116217D01*
X0574733Y0115219D02*
X0567574Y0115219D01*
X0567582Y0114220D02*
X0573735Y0114220D01*
X0572736Y0113222D02*
X0567609Y0113222D01*
X0567609Y0112223D02*
X0571738Y0112223D01*
X0570739Y0111225D02*
X0567609Y0111225D01*
X0567609Y0110226D02*
X0569741Y0110226D01*
X0568742Y0109228D02*
X0567609Y0109228D01*
X0567744Y0108229D02*
X0567058Y0108229D01*
X0566745Y0107231D02*
X0556517Y0107231D01*
X0557516Y0106232D02*
X0565747Y0106232D01*
X0564748Y0105234D02*
X0557966Y0105234D01*
X0558340Y0104235D02*
X0563750Y0104235D01*
X0562751Y0103237D02*
X0558340Y0103237D01*
X0558299Y0102238D02*
X0561753Y0102238D01*
X0560754Y0101240D02*
X0557886Y0101240D01*
X0557322Y0100241D02*
X0559756Y0100241D01*
X0558757Y0099243D02*
X0556324Y0099243D01*
X0557759Y0098244D02*
X0537881Y0098244D01*
X0538879Y0099243D02*
X0550343Y0099243D01*
X0549345Y0100241D02*
X0539878Y0100241D01*
X0540876Y0101240D02*
X0548781Y0101240D01*
X0553333Y0103333D02*
X0540414Y0103333D01*
X0535407Y0098326D01*
X0511673Y0098326D01*
X0503076Y0089729D01*
X0502507Y0089160D01*
X0501680Y0088333D01*
X0503076Y0089729D02*
X0523333Y0089729D01*
X0525751Y0088259D02*
X0547774Y0088259D01*
X0548772Y0089257D02*
X0526129Y0089257D01*
X0526129Y0090256D02*
X0549771Y0090256D01*
X0550769Y0091254D02*
X0525728Y0091254D01*
X0524547Y0092253D02*
X0551768Y0092253D01*
X0552766Y0093251D02*
X0509153Y0093251D01*
X0508155Y0092253D02*
X0522119Y0092253D01*
X0512149Y0096247D02*
X0555762Y0096247D01*
X0556760Y0097245D02*
X0536882Y0097245D01*
X0553765Y0094250D02*
X0510152Y0094250D01*
X0511151Y0095248D02*
X0554763Y0095248D01*
X0564732Y0089257D02*
X0565537Y0089257D01*
X0565916Y0088259D02*
X0563733Y0088259D01*
X0562735Y0087260D02*
X0566988Y0087260D01*
X0569245Y0086262D02*
X0561736Y0086262D01*
X0560738Y0085263D02*
X0570244Y0085263D01*
X0571242Y0084265D02*
X0559739Y0084265D01*
X0558741Y0083266D02*
X0572241Y0083266D01*
X0573239Y0082268D02*
X0557742Y0082268D01*
X0556744Y0081269D02*
X0574238Y0081269D01*
X0575236Y0080271D02*
X0555745Y0080271D01*
X0554747Y0079272D02*
X0576235Y0079272D01*
X0577233Y0078274D02*
X0553748Y0078274D01*
X0552750Y0077275D02*
X0578232Y0077275D01*
X0579230Y0076277D02*
X0551751Y0076277D01*
X0550753Y0075278D02*
X0580229Y0075278D01*
X0581227Y0074280D02*
X0549754Y0074280D01*
X0548756Y0073281D02*
X0582226Y0073281D01*
X0583224Y0072283D02*
X0547757Y0072283D01*
X0546759Y0071284D02*
X0584223Y0071284D01*
X0585221Y0070286D02*
X0545760Y0070286D01*
X0544762Y0069287D02*
X0586220Y0069287D01*
X0587236Y0070826D02*
X0568333Y0089729D01*
X0546775Y0087260D02*
X0524679Y0087260D01*
X0521988Y0087260D02*
X0505152Y0087260D01*
X0505152Y0086262D02*
X0545777Y0086262D01*
X0544778Y0085263D02*
X0504592Y0085263D01*
X0498767Y0085263D02*
X0497899Y0085263D01*
X0497094Y0084265D02*
X0543780Y0084265D01*
X0542781Y0083266D02*
X0497094Y0083266D01*
X0497094Y0082268D02*
X0541783Y0082268D01*
X0540784Y0081269D02*
X0497094Y0081269D01*
X0497094Y0080271D02*
X0539786Y0080271D01*
X0538787Y0079272D02*
X0497094Y0079272D01*
X0497094Y0078274D02*
X0537789Y0078274D01*
X0536790Y0077275D02*
X0497094Y0077275D01*
X0497094Y0076277D02*
X0535792Y0076277D01*
X0534793Y0075278D02*
X0497094Y0075278D01*
X0497094Y0074280D02*
X0533795Y0074280D01*
X0532796Y0073281D02*
X0497094Y0073281D01*
X0497364Y0072283D02*
X0531797Y0072283D01*
X0530799Y0071284D02*
X0498362Y0071284D01*
X0499361Y0070286D02*
X0529800Y0070286D01*
X0528802Y0069287D02*
X0500359Y0069287D01*
X0501358Y0068289D02*
X0502212Y0068289D01*
X0504454Y0068289D02*
X0511757Y0068289D01*
X0512833Y0068289D02*
X0513833Y0068289D01*
X0513833Y0067290D02*
X0512833Y0067290D01*
X0512833Y0066292D02*
X0513833Y0066292D01*
X0513833Y0065293D02*
X0512833Y0065293D01*
X0512833Y0064295D02*
X0513833Y0064295D01*
X0513833Y0062298D02*
X0512833Y0062298D01*
X0512833Y0061299D02*
X0513833Y0061299D01*
X0513833Y0060301D02*
X0512833Y0060301D01*
X0512833Y0059302D02*
X0513833Y0059302D01*
X0513833Y0058304D02*
X0512833Y0058304D01*
X0511986Y0058304D02*
X0501283Y0058304D01*
X0500285Y0057305D02*
X0606790Y0057305D01*
X0606790Y0058304D02*
X0514681Y0058304D01*
X0516632Y0059302D02*
X0520283Y0059302D01*
X0519285Y0060301D02*
X0517557Y0060301D01*
X0518133Y0061299D02*
X0518756Y0061299D01*
X0526383Y0059302D02*
X0530283Y0059302D01*
X0529285Y0060301D02*
X0527382Y0060301D01*
X0527910Y0061299D02*
X0528756Y0061299D01*
X0528343Y0062298D02*
X0528324Y0062298D01*
X0537910Y0061299D02*
X0538756Y0061299D01*
X0538343Y0062298D02*
X0538324Y0062298D01*
X0537382Y0060301D02*
X0539285Y0060301D01*
X0540283Y0059302D02*
X0536383Y0059302D01*
X0546383Y0059302D02*
X0550283Y0059302D01*
X0549285Y0060301D02*
X0547382Y0060301D01*
X0547910Y0061299D02*
X0548756Y0061299D01*
X0548343Y0062298D02*
X0548324Y0062298D01*
X0557910Y0061299D02*
X0558756Y0061299D01*
X0558343Y0062298D02*
X0558324Y0062298D01*
X0557382Y0060301D02*
X0559285Y0060301D01*
X0560283Y0059302D02*
X0556383Y0059302D01*
X0566383Y0059302D02*
X0606790Y0059302D01*
X0607108Y0060301D02*
X0567382Y0060301D01*
X0567910Y0061299D02*
X0607522Y0061299D01*
X0608256Y0062298D02*
X0568324Y0062298D01*
X0568340Y0063296D02*
X0609254Y0063296D01*
X0611452Y0064295D02*
X0568340Y0064295D01*
X0567941Y0065293D02*
X0613853Y0065293D01*
X0613853Y0066292D02*
X0601772Y0066292D01*
X0603190Y0067290D02*
X0613862Y0067290D01*
X0614130Y0068289D02*
X0604018Y0068289D01*
X0604431Y0069287D02*
X0614398Y0069287D01*
X0614753Y0070286D02*
X0604659Y0070286D01*
X0604659Y0071284D02*
X0615329Y0071284D01*
X0615906Y0072283D02*
X0604471Y0072283D01*
X0604058Y0073281D02*
X0616828Y0073281D01*
X0617826Y0074280D02*
X0603287Y0074280D01*
X0602005Y0075278D02*
X0619413Y0075278D01*
X0621903Y0076277D02*
X0601736Y0076277D01*
X0603175Y0077275D02*
X0643333Y0077275D01*
X0643333Y0076277D02*
X0641501Y0076277D01*
X0643262Y0075278D02*
X0643333Y0075278D01*
X0639260Y0076277D02*
X0627402Y0076277D01*
X0629892Y0075278D02*
X0637499Y0075278D01*
X0636650Y0074280D02*
X0631478Y0074280D01*
X0632477Y0073281D02*
X0636237Y0073281D01*
X0636105Y0072283D02*
X0633399Y0072283D01*
X0633975Y0071284D02*
X0636105Y0071284D01*
X0636510Y0070286D02*
X0634552Y0070286D01*
X0634907Y0069287D02*
X0637160Y0069287D01*
X0638440Y0068289D02*
X0635174Y0068289D01*
X0635442Y0067290D02*
X0643333Y0067290D01*
X0643333Y0066292D02*
X0641845Y0066292D01*
X0642321Y0068289D02*
X0643333Y0068289D01*
X0638916Y0066292D02*
X0635451Y0066292D01*
X0635451Y0065293D02*
X0637357Y0065293D01*
X0636591Y0064295D02*
X0635420Y0064295D01*
X0635153Y0063296D02*
X0636178Y0063296D01*
X0636105Y0062298D02*
X0634885Y0062298D01*
X0634504Y0061299D02*
X0636155Y0061299D01*
X0636569Y0060301D02*
X0633928Y0060301D01*
X0633351Y0059302D02*
X0637302Y0059302D01*
X0638785Y0058304D02*
X0632395Y0058304D01*
X0631971Y0057305D02*
X0643333Y0057305D01*
X0643333Y0056307D02*
X0632385Y0056307D01*
X0632798Y0055308D02*
X0643333Y0055308D01*
X0643333Y0054310D02*
X0632833Y0054310D01*
X0632833Y0053311D02*
X0643333Y0053311D01*
X0643333Y0052312D02*
X0632833Y0052312D01*
X0632780Y0051314D02*
X0643333Y0051314D01*
X0643333Y0050315D02*
X0632366Y0050315D01*
X0631952Y0049317D02*
X0643333Y0049317D01*
X0643311Y0048318D02*
X0631539Y0048318D01*
X0630755Y0047320D02*
X0641813Y0047320D01*
X0640315Y0046321D02*
X0629756Y0046321D01*
X0628758Y0045323D02*
X0638818Y0045323D01*
X0637320Y0044324D02*
X0626409Y0044324D01*
X0620258Y0044324D02*
X0611405Y0044324D01*
X0612404Y0045323D02*
X0617909Y0045323D01*
X0616910Y0046321D02*
X0612920Y0046321D01*
X0613333Y0047320D02*
X0615912Y0047320D01*
X0615128Y0048318D02*
X0613340Y0048318D01*
X0613340Y0049317D02*
X0614714Y0049317D01*
X0614301Y0050315D02*
X0612932Y0050315D01*
X0612434Y0051314D02*
X0613887Y0051314D01*
X0611596Y0052312D02*
X0611435Y0052312D01*
X0608316Y0054310D02*
X0497289Y0054310D01*
X0497266Y0053311D02*
X0489841Y0053311D01*
X0488833Y0053311D02*
X0487833Y0053311D01*
X0487833Y0052312D02*
X0488833Y0052312D01*
X0488833Y0051314D02*
X0487833Y0051314D01*
X0487833Y0050315D02*
X0488833Y0050315D01*
X0488833Y0049317D02*
X0487833Y0049317D01*
X0484071Y0051314D02*
X0482434Y0051314D01*
X0482932Y0050315D02*
X0483510Y0050315D01*
X0484963Y0052312D02*
X0481435Y0052312D01*
X0479400Y0053311D02*
X0486825Y0053311D01*
X0491703Y0052312D02*
X0495231Y0052312D01*
X0494233Y0051314D02*
X0492595Y0051314D01*
X0493157Y0050315D02*
X0493735Y0050315D01*
X0501435Y0052312D02*
X0505231Y0052312D01*
X0504233Y0051314D02*
X0502434Y0051314D01*
X0502932Y0050315D02*
X0503735Y0050315D01*
X0507266Y0053311D02*
X0499400Y0053311D01*
X0498288Y0055308D02*
X0607546Y0055308D01*
X0607133Y0056307D02*
X0499286Y0056307D01*
X0498440Y0055461D02*
X0498440Y0055461D01*
X0509400Y0053311D02*
X0517266Y0053311D01*
X0519400Y0053311D02*
X0527266Y0053311D01*
X0529400Y0053311D02*
X0537266Y0053311D01*
X0539400Y0053311D02*
X0547266Y0053311D01*
X0549400Y0053311D02*
X0557266Y0053311D01*
X0559400Y0053311D02*
X0567266Y0053311D01*
X0569400Y0053311D02*
X0577266Y0053311D01*
X0579400Y0053311D02*
X0587266Y0053311D01*
X0589400Y0053311D02*
X0597266Y0053311D01*
X0599400Y0053311D02*
X0607266Y0053311D01*
X0605231Y0052312D02*
X0601435Y0052312D01*
X0602434Y0051314D02*
X0604233Y0051314D01*
X0603735Y0050315D02*
X0602932Y0050315D01*
X0595231Y0052312D02*
X0591435Y0052312D01*
X0592434Y0051314D02*
X0594233Y0051314D01*
X0593735Y0050315D02*
X0592932Y0050315D01*
X0585231Y0052312D02*
X0581435Y0052312D01*
X0582434Y0051314D02*
X0584233Y0051314D01*
X0583735Y0050315D02*
X0582932Y0050315D01*
X0575231Y0052312D02*
X0571435Y0052312D01*
X0572434Y0051314D02*
X0574233Y0051314D01*
X0573735Y0050315D02*
X0572932Y0050315D01*
X0565231Y0052312D02*
X0561435Y0052312D01*
X0562434Y0051314D02*
X0564233Y0051314D01*
X0563735Y0050315D02*
X0562932Y0050315D01*
X0555231Y0052312D02*
X0551435Y0052312D01*
X0552434Y0051314D02*
X0554233Y0051314D01*
X0553735Y0050315D02*
X0552932Y0050315D01*
X0545231Y0052312D02*
X0541435Y0052312D01*
X0542434Y0051314D02*
X0544233Y0051314D01*
X0543735Y0050315D02*
X0542932Y0050315D01*
X0535231Y0052312D02*
X0531435Y0052312D01*
X0532434Y0051314D02*
X0534233Y0051314D01*
X0533735Y0050315D02*
X0532932Y0050315D01*
X0525231Y0052312D02*
X0521435Y0052312D01*
X0522434Y0051314D02*
X0524233Y0051314D01*
X0523735Y0050315D02*
X0522932Y0050315D01*
X0515231Y0052312D02*
X0511435Y0052312D01*
X0512434Y0051314D02*
X0514233Y0051314D01*
X0513735Y0050315D02*
X0512932Y0050315D01*
X0512920Y0046321D02*
X0513747Y0046321D01*
X0514263Y0045323D02*
X0512404Y0045323D01*
X0511405Y0044324D02*
X0515261Y0044324D01*
X0521405Y0044324D02*
X0525261Y0044324D01*
X0524263Y0045323D02*
X0522404Y0045323D01*
X0522920Y0046321D02*
X0523747Y0046321D01*
X0531405Y0044324D02*
X0535261Y0044324D01*
X0534263Y0045323D02*
X0532404Y0045323D01*
X0532920Y0046321D02*
X0533747Y0046321D01*
X0542404Y0045323D02*
X0544263Y0045323D01*
X0543747Y0046321D02*
X0542920Y0046321D01*
X0541405Y0044324D02*
X0545261Y0044324D01*
X0551405Y0044324D02*
X0555261Y0044324D01*
X0554263Y0045323D02*
X0552404Y0045323D01*
X0552920Y0046321D02*
X0553747Y0046321D01*
X0562404Y0045323D02*
X0564263Y0045323D01*
X0563747Y0046321D02*
X0562920Y0046321D01*
X0572404Y0045323D02*
X0574263Y0045323D01*
X0573747Y0046321D02*
X0572920Y0046321D01*
X0582404Y0045323D02*
X0584263Y0045323D01*
X0583747Y0046321D02*
X0582920Y0046321D01*
X0592404Y0045323D02*
X0594263Y0045323D01*
X0593747Y0046321D02*
X0592920Y0046321D01*
X0591405Y0044324D02*
X0595261Y0044324D01*
X0601405Y0044324D02*
X0605261Y0044324D01*
X0604263Y0045323D02*
X0602404Y0045323D01*
X0602920Y0046321D02*
X0603747Y0046321D01*
X0585261Y0044324D02*
X0581405Y0044324D01*
X0575261Y0044324D02*
X0571405Y0044324D01*
X0565261Y0044324D02*
X0561405Y0044324D01*
X0505261Y0044324D02*
X0501405Y0044324D01*
X0502404Y0045323D02*
X0504263Y0045323D01*
X0503747Y0046321D02*
X0502920Y0046321D01*
X0494263Y0045323D02*
X0492574Y0045323D01*
X0493144Y0046321D02*
X0493747Y0046321D01*
X0488833Y0046321D02*
X0487833Y0046321D01*
X0487833Y0045323D02*
X0488833Y0045323D01*
X0488833Y0044324D02*
X0487833Y0044324D01*
X0487833Y0043326D02*
X0488833Y0043326D01*
X0489750Y0043326D02*
X0635822Y0043326D01*
X0641977Y0058304D02*
X0643333Y0058304D01*
X0597533Y0066292D02*
X0567456Y0066292D01*
X0566458Y0067290D02*
X0596114Y0067290D01*
X0595287Y0068289D02*
X0564454Y0068289D01*
X0562212Y0068289D02*
X0554454Y0068289D01*
X0556458Y0067290D02*
X0560209Y0067290D01*
X0559211Y0066292D02*
X0557456Y0066292D01*
X0557941Y0065293D02*
X0558725Y0065293D01*
X0550209Y0067290D02*
X0546458Y0067290D01*
X0547456Y0066292D02*
X0549211Y0066292D01*
X0548725Y0065293D02*
X0547941Y0065293D01*
X0544454Y0068289D02*
X0552212Y0068289D01*
X0527803Y0068289D02*
X0524454Y0068289D01*
X0526458Y0067290D02*
X0526805Y0067290D01*
X0522212Y0068289D02*
X0514910Y0068289D01*
X0516730Y0067290D02*
X0520209Y0067290D01*
X0519211Y0066292D02*
X0517612Y0066292D01*
X0518164Y0065293D02*
X0518725Y0065293D01*
X0509936Y0067290D02*
X0506458Y0067290D01*
X0507456Y0066292D02*
X0509055Y0066292D01*
X0508503Y0065293D02*
X0507941Y0065293D01*
X0498394Y0065293D02*
X0487941Y0065293D01*
X0488340Y0064295D02*
X0498326Y0064295D01*
X0498326Y0063296D02*
X0488340Y0063296D01*
X0488324Y0062298D02*
X0498343Y0062298D01*
X0498319Y0061299D02*
X0487910Y0061299D01*
X0487382Y0060301D02*
X0497321Y0060301D01*
X0496322Y0059302D02*
X0486383Y0059302D01*
X0480283Y0059302D02*
X0476383Y0059302D01*
X0477382Y0060301D02*
X0479285Y0060301D01*
X0478756Y0061299D02*
X0477910Y0061299D01*
X0478324Y0062298D02*
X0478343Y0062298D01*
X0478333Y0064346D02*
X0477578Y0066170D01*
X0476170Y0067578D01*
X0474329Y0068340D01*
X0472337Y0068340D01*
X0470497Y0067578D01*
X0469089Y0066170D01*
X0468333Y0064346D01*
X0467578Y0066170D01*
X0466170Y0067578D01*
X0464329Y0068340D01*
X0462437Y0068340D01*
X0453340Y0077437D01*
X0453340Y0079329D01*
X0452578Y0081170D01*
X0451170Y0082578D01*
X0449529Y0083258D01*
X0449551Y0083261D01*
X0450329Y0083514D01*
X0451059Y0083886D01*
X0451721Y0084367D01*
X0452300Y0084946D01*
X0452781Y0085608D01*
X0453152Y0086337D01*
X0453405Y0087116D01*
X0453519Y0087833D01*
X0448833Y0087833D01*
X0448833Y0088833D01*
X0453519Y0088833D01*
X0453405Y0089551D01*
X0453152Y0090329D01*
X0452781Y0091059D01*
X0452300Y0091721D01*
X0451721Y0092300D01*
X0451059Y0092781D01*
X0450329Y0093152D01*
X0449551Y0093405D01*
X0449529Y0093409D01*
X0451170Y0094089D01*
X0452507Y0095426D01*
X0475604Y0095426D01*
X0476673Y0095869D01*
X0477491Y0096687D01*
X0479180Y0098376D01*
X0480426Y0097129D01*
X0480426Y0067507D01*
X0479089Y0066170D01*
X0478333Y0064346D01*
X0477941Y0065293D02*
X0478725Y0065293D01*
X0479211Y0066292D02*
X0477456Y0066292D01*
X0476458Y0067290D02*
X0480209Y0067290D01*
X0480426Y0068289D02*
X0474454Y0068289D01*
X0472212Y0068289D02*
X0464454Y0068289D01*
X0466458Y0067290D02*
X0470209Y0067290D01*
X0469211Y0066292D02*
X0467456Y0066292D01*
X0467941Y0065293D02*
X0468725Y0065293D01*
X0458261Y0064295D02*
X0438133Y0064295D01*
X0438133Y0065293D02*
X0457262Y0065293D01*
X0456264Y0066292D02*
X0438133Y0066292D01*
X0438133Y0067290D02*
X0455265Y0067290D01*
X0454267Y0068289D02*
X0438133Y0068289D01*
X0438133Y0069287D02*
X0453268Y0069287D01*
X0452270Y0070286D02*
X0438133Y0070286D01*
X0438133Y0071284D02*
X0451271Y0071284D01*
X0450273Y0072283D02*
X0438133Y0072283D01*
X0438133Y0073281D02*
X0449274Y0073281D01*
X0445306Y0074280D02*
X0438133Y0074280D01*
X0438133Y0075278D02*
X0444307Y0075278D01*
X0443766Y0076277D02*
X0438133Y0076277D01*
X0438133Y0077275D02*
X0443352Y0077275D01*
X0443326Y0078274D02*
X0438133Y0078274D01*
X0438133Y0079272D02*
X0443326Y0079272D01*
X0443716Y0080271D02*
X0438133Y0080271D01*
X0438133Y0081269D02*
X0444188Y0081269D01*
X0445187Y0082268D02*
X0438133Y0082268D01*
X0438133Y0083266D02*
X0447100Y0083266D01*
X0445086Y0084265D02*
X0438133Y0084265D01*
X0438133Y0085263D02*
X0444136Y0085263D01*
X0443553Y0086262D02*
X0438133Y0086262D01*
X0438133Y0087260D02*
X0443238Y0087260D01*
X0447833Y0088259D02*
X0438133Y0088259D01*
X0438133Y0089257D02*
X0443215Y0089257D01*
X0443490Y0090256D02*
X0438133Y0090256D01*
X0438133Y0091254D02*
X0444028Y0091254D01*
X0444899Y0092253D02*
X0438133Y0092253D01*
X0438133Y0093251D02*
X0446642Y0093251D01*
X0445336Y0094250D02*
X0438133Y0094250D01*
X0438133Y0095248D02*
X0444337Y0095248D01*
X0443778Y0096247D02*
X0438133Y0096247D01*
X0438133Y0097245D02*
X0443364Y0097245D01*
X0443326Y0098244D02*
X0438133Y0098244D01*
X0438133Y0099243D02*
X0443326Y0099243D01*
X0443704Y0100241D02*
X0438133Y0100241D01*
X0438133Y0101240D02*
X0444158Y0101240D01*
X0445157Y0102238D02*
X0438133Y0102238D01*
X0438133Y0103237D02*
X0447087Y0103237D01*
X0445350Y0104235D02*
X0438133Y0104235D01*
X0438133Y0105234D02*
X0444352Y0105234D01*
X0443784Y0106232D02*
X0438133Y0106232D01*
X0438133Y0107231D02*
X0443370Y0107231D01*
X0443326Y0108229D02*
X0438133Y0108229D01*
X0438133Y0109228D02*
X0443326Y0109228D01*
X0443698Y0110226D02*
X0438133Y0110226D01*
X0438133Y0111225D02*
X0444144Y0111225D01*
X0445142Y0112223D02*
X0438133Y0112223D01*
X0438133Y0113222D02*
X0447051Y0113222D01*
X0446157Y0114220D02*
X0477119Y0114220D01*
X0477119Y0113222D02*
X0449616Y0113222D01*
X0451525Y0112223D02*
X0477119Y0112223D01*
X0477119Y0111225D02*
X0452523Y0111225D01*
X0452969Y0110226D02*
X0477119Y0110226D01*
X0477119Y0109228D02*
X0453340Y0109228D01*
X0453340Y0108229D02*
X0477119Y0108229D01*
X0477119Y0107231D02*
X0453296Y0107231D01*
X0452883Y0106232D02*
X0477119Y0106232D01*
X0477119Y0105234D02*
X0452315Y0105234D01*
X0451316Y0104235D02*
X0476817Y0104235D01*
X0475818Y0103237D02*
X0449580Y0103237D01*
X0451510Y0102238D02*
X0474820Y0102238D01*
X0482933Y0103237D02*
X0504027Y0103237D01*
X0503029Y0102238D02*
X0483540Y0102238D01*
X0482933Y0104235D02*
X0505026Y0104235D01*
X0482933Y0105234D02*
X0528701Y0105234D01*
X0529151Y0106232D02*
X0482933Y0106232D01*
X0482933Y0107231D02*
X0530150Y0107231D01*
X0532069Y0108229D02*
X0482933Y0108229D01*
X0477119Y0115219D02*
X0448568Y0115219D01*
X0449652Y0116217D02*
X0477119Y0116217D01*
X0477119Y0117216D02*
X0450651Y0117216D01*
X0451496Y0118214D02*
X0477119Y0118214D01*
X0477119Y0119213D02*
X0451909Y0119213D01*
X0452323Y0120211D02*
X0477119Y0120211D01*
X0477119Y0121210D02*
X0452736Y0121210D01*
X0452833Y0122208D02*
X0477119Y0122208D01*
X0477119Y0123207D02*
X0468961Y0123207D01*
X0470321Y0124205D02*
X0476225Y0124205D01*
X0475253Y0125204D02*
X0471142Y0125204D01*
X0471653Y0126202D02*
X0474840Y0126202D01*
X0474426Y0127201D02*
X0471940Y0127201D01*
X0471982Y0129198D02*
X0474419Y0129198D01*
X0474419Y0128199D02*
X0466731Y0128199D01*
X0465762Y0128199D02*
X0451600Y0128199D01*
X0452014Y0127201D02*
X0460554Y0127201D01*
X0460841Y0126202D02*
X0452428Y0126202D01*
X0452833Y0125204D02*
X0461351Y0125204D01*
X0462172Y0124205D02*
X0452833Y0124205D01*
X0452833Y0123207D02*
X0463532Y0123207D01*
X0465762Y0123207D02*
X0466731Y0123207D01*
X0466731Y0124205D02*
X0465762Y0124205D01*
X0465762Y0125204D02*
X0466731Y0125204D01*
X0466731Y0126202D02*
X0465762Y0126202D01*
X0465762Y0127201D02*
X0466731Y0127201D01*
X0460511Y0129198D02*
X0450904Y0129198D01*
X0449905Y0130196D02*
X0460754Y0130196D01*
X0461195Y0131195D02*
X0448907Y0131195D01*
X0446768Y0132193D02*
X0461904Y0132193D01*
X0463066Y0133192D02*
X0441546Y0133192D01*
X0469427Y0133192D02*
X0477104Y0133192D01*
X0475957Y0132193D02*
X0470589Y0132193D01*
X0471298Y0131195D02*
X0475142Y0131195D01*
X0474729Y0130196D02*
X0471740Y0130196D01*
X0482949Y0133192D02*
X0496979Y0133192D01*
X0495112Y0132193D02*
X0484096Y0132193D01*
X0484910Y0131195D02*
X0494114Y0131195D01*
X0493685Y0130196D02*
X0485324Y0130196D01*
X0485633Y0129198D02*
X0493326Y0129198D01*
X0493326Y0128199D02*
X0485633Y0128199D01*
X0485626Y0127201D02*
X0493383Y0127201D01*
X0493796Y0126202D02*
X0485213Y0126202D01*
X0484799Y0125204D02*
X0494382Y0125204D01*
X0495380Y0124205D02*
X0483828Y0124205D01*
X0482933Y0123207D02*
X0590227Y0123207D01*
X0585380Y0124205D02*
X0581286Y0124205D01*
X0582285Y0125204D02*
X0584382Y0125204D01*
X0583796Y0126202D02*
X0582870Y0126202D01*
X0583284Y0127201D02*
X0583383Y0127201D01*
X0574382Y0125204D02*
X0572285Y0125204D01*
X0572870Y0126202D02*
X0573796Y0126202D01*
X0573383Y0127201D02*
X0573284Y0127201D01*
X0572981Y0130196D02*
X0573685Y0130196D01*
X0574114Y0131195D02*
X0572553Y0131195D01*
X0571554Y0132193D02*
X0575112Y0132193D01*
X0576979Y0133192D02*
X0569688Y0133192D01*
X0566979Y0133192D02*
X0559688Y0133192D01*
X0561554Y0132193D02*
X0565112Y0132193D01*
X0564114Y0131195D02*
X0562553Y0131195D01*
X0562981Y0130196D02*
X0563685Y0130196D01*
X0555112Y0132193D02*
X0551554Y0132193D01*
X0552553Y0131195D02*
X0554114Y0131195D01*
X0553685Y0130196D02*
X0552981Y0130196D01*
X0553284Y0127201D02*
X0553383Y0127201D01*
X0553796Y0126202D02*
X0552870Y0126202D01*
X0552285Y0125204D02*
X0554382Y0125204D01*
X0555380Y0124205D02*
X0551286Y0124205D01*
X0545380Y0124205D02*
X0541286Y0124205D01*
X0542285Y0125204D02*
X0544382Y0125204D01*
X0543796Y0126202D02*
X0542870Y0126202D01*
X0543284Y0127201D02*
X0543383Y0127201D01*
X0534382Y0125204D02*
X0532285Y0125204D01*
X0532870Y0126202D02*
X0533796Y0126202D01*
X0533383Y0127201D02*
X0533284Y0127201D01*
X0532981Y0130196D02*
X0533685Y0130196D01*
X0534114Y0131195D02*
X0532553Y0131195D01*
X0531554Y0132193D02*
X0535112Y0132193D01*
X0536979Y0133192D02*
X0529688Y0133192D01*
X0526979Y0133192D02*
X0519688Y0133192D01*
X0521554Y0132193D02*
X0525112Y0132193D01*
X0524114Y0131195D02*
X0522553Y0131195D01*
X0522981Y0130196D02*
X0523685Y0130196D01*
X0515112Y0132193D02*
X0511554Y0132193D01*
X0512553Y0131195D02*
X0514114Y0131195D01*
X0513685Y0130196D02*
X0512981Y0130196D01*
X0505112Y0132193D02*
X0501554Y0132193D01*
X0502553Y0131195D02*
X0504114Y0131195D01*
X0503685Y0130196D02*
X0502981Y0130196D01*
X0503284Y0127201D02*
X0503383Y0127201D01*
X0503796Y0126202D02*
X0502870Y0126202D01*
X0502285Y0125204D02*
X0504382Y0125204D01*
X0505380Y0124205D02*
X0501286Y0124205D01*
X0511286Y0124205D02*
X0515380Y0124205D01*
X0514382Y0125204D02*
X0512285Y0125204D01*
X0512870Y0126202D02*
X0513796Y0126202D01*
X0513383Y0127201D02*
X0513284Y0127201D01*
X0522285Y0125204D02*
X0524382Y0125204D01*
X0523796Y0126202D02*
X0522870Y0126202D01*
X0523284Y0127201D02*
X0523383Y0127201D01*
X0525380Y0124205D02*
X0521286Y0124205D01*
X0531286Y0124205D02*
X0535380Y0124205D01*
X0542981Y0130196D02*
X0543685Y0130196D01*
X0544114Y0131195D02*
X0542553Y0131195D01*
X0541554Y0132193D02*
X0545112Y0132193D01*
X0546979Y0133192D02*
X0539688Y0133192D01*
X0549688Y0133192D02*
X0556979Y0133192D01*
X0563284Y0127201D02*
X0563383Y0127201D01*
X0563796Y0126202D02*
X0562870Y0126202D01*
X0562285Y0125204D02*
X0564382Y0125204D01*
X0565380Y0124205D02*
X0561286Y0124205D01*
X0571286Y0124205D02*
X0575380Y0124205D01*
X0567802Y0120211D02*
X0587231Y0120211D01*
X0586233Y0119213D02*
X0567802Y0119213D01*
X0560865Y0116217D02*
X0557531Y0116217D01*
X0557972Y0115219D02*
X0561092Y0115219D01*
X0562487Y0113333D02*
X0553333Y0113333D01*
X0557880Y0111225D02*
X0561058Y0111225D01*
X0561058Y0110226D02*
X0557307Y0110226D01*
X0556309Y0109228D02*
X0561058Y0109228D01*
X0561609Y0108229D02*
X0554598Y0108229D01*
X0552069Y0108229D02*
X0534598Y0108229D01*
X0518805Y0110226D02*
X0518135Y0110226D01*
X0515471Y0110226D02*
X0514503Y0110226D01*
X0514503Y0111225D02*
X0515471Y0111225D01*
X0515471Y0112223D02*
X0514503Y0112223D01*
X0562487Y0113333D02*
X0564333Y0111487D01*
X0593206Y0110226D02*
X0606272Y0110226D01*
X0605677Y0109228D02*
X0593339Y0109228D01*
X0594079Y0108229D02*
X0605537Y0108229D01*
X0605764Y0107231D02*
X0594493Y0107231D01*
X0594659Y0106232D02*
X0606480Y0106232D01*
X0606526Y0105234D02*
X0602113Y0105234D01*
X0603332Y0104235D02*
X0606526Y0104235D01*
X0606526Y0103237D02*
X0604076Y0103237D01*
X0604490Y0102238D02*
X0606526Y0102238D01*
X0606526Y0101240D02*
X0604659Y0101240D01*
X0604659Y0100241D02*
X0606526Y0100241D01*
X0606526Y0099243D02*
X0604413Y0099243D01*
X0603999Y0098244D02*
X0606526Y0098244D01*
X0606526Y0097245D02*
X0603145Y0097245D01*
X0601664Y0096247D02*
X0606526Y0096247D01*
X0606526Y0095248D02*
X0602422Y0095248D01*
X0603589Y0094250D02*
X0606526Y0094250D01*
X0606526Y0093251D02*
X0604256Y0093251D01*
X0604659Y0092253D02*
X0606526Y0092253D01*
X0606526Y0091254D02*
X0600137Y0091254D01*
X0599168Y0091254D02*
X0591682Y0091254D01*
X0592059Y0090256D02*
X0594479Y0090256D01*
X0594697Y0089257D02*
X0593309Y0089257D01*
X0594067Y0088259D02*
X0595128Y0088259D01*
X0594481Y0087260D02*
X0595871Y0087260D01*
X0594659Y0086262D02*
X0597170Y0086262D01*
X0597263Y0085263D02*
X0594659Y0085263D01*
X0594422Y0084265D02*
X0596003Y0084265D01*
X0595240Y0083266D02*
X0594009Y0083266D01*
X0594827Y0082268D02*
X0593168Y0082268D01*
X0591718Y0081269D02*
X0594645Y0081269D01*
X0594645Y0080271D02*
X0592023Y0080271D01*
X0593294Y0079272D02*
X0594879Y0079272D01*
X0595293Y0078274D02*
X0594061Y0078274D01*
X0594475Y0077275D02*
X0596129Y0077275D01*
X0597569Y0076277D02*
X0594659Y0076277D01*
X0594659Y0075278D02*
X0597299Y0075278D01*
X0596018Y0074280D02*
X0594428Y0074280D01*
X0594015Y0073281D02*
X0595247Y0073281D01*
X0591733Y0070833D02*
X0591726Y0070826D01*
X0587236Y0070826D01*
X0591733Y0070833D02*
X0599652Y0070833D01*
X0604012Y0078274D02*
X0643333Y0078274D01*
X0643333Y0079272D02*
X0604425Y0079272D01*
X0604659Y0080271D02*
X0643333Y0080271D01*
X0643333Y0081269D02*
X0604659Y0081269D01*
X0604478Y0082268D02*
X0643333Y0082268D01*
X0643333Y0083266D02*
X0604641Y0083266D01*
X0605639Y0084265D02*
X0643333Y0084265D01*
X0643333Y0085263D02*
X0606638Y0085263D01*
X0607636Y0086262D02*
X0643333Y0086262D01*
X0643333Y0087260D02*
X0608635Y0087260D01*
X0609082Y0087707D02*
X0609082Y0087707D01*
X0609633Y0088259D02*
X0643333Y0088259D01*
X0643333Y0089257D02*
X0610140Y0089257D01*
X0610140Y0090256D02*
X0643333Y0090256D01*
X0643333Y0091254D02*
X0610140Y0091254D01*
X0610140Y0092253D02*
X0643333Y0092253D01*
X0643333Y0093251D02*
X0610140Y0093251D01*
X0610140Y0094250D02*
X0643333Y0094250D01*
X0643333Y0095248D02*
X0610140Y0095248D01*
X0610140Y0096247D02*
X0643333Y0096247D01*
X0643333Y0097245D02*
X0610140Y0097245D01*
X0610140Y0098244D02*
X0643333Y0098244D01*
X0643333Y0099243D02*
X0610140Y0099243D01*
X0610140Y0100241D02*
X0622458Y0100241D01*
X0623230Y0100034D02*
X0626074Y0100034D01*
X0628821Y0100770D01*
X0631283Y0102192D01*
X0633294Y0104202D01*
X0634715Y0106665D01*
X0635451Y0109412D01*
X0635451Y0112255D01*
X0634715Y0115002D01*
X0633294Y0117464D01*
X0631803Y0118955D01*
X0632833Y0121444D01*
X0632833Y0125223D01*
X0631387Y0128715D01*
X0628715Y0131387D01*
X0625223Y0132833D01*
X0621444Y0132833D01*
X0617952Y0131387D01*
X0615280Y0128715D01*
X0613833Y0125223D01*
X0613833Y0124207D01*
X0611622Y0124207D01*
X0609405Y0123289D01*
X0607708Y0121592D01*
X0606790Y0119376D01*
X0606790Y0116976D01*
X0607708Y0114759D01*
X0609405Y0113063D01*
X0611622Y0112144D01*
X0613853Y0112144D01*
X0613853Y0109412D01*
X0614589Y0106665D01*
X0616011Y0104202D01*
X0618021Y0102192D01*
X0620484Y0100770D01*
X0623230Y0100034D01*
X0626846Y0100241D02*
X0639240Y0100241D01*
X0637491Y0101240D02*
X0629634Y0101240D01*
X0631329Y0102238D02*
X0636647Y0102238D01*
X0636233Y0103237D02*
X0632328Y0103237D01*
X0633313Y0104235D02*
X0636105Y0104235D01*
X0636105Y0105234D02*
X0633889Y0105234D01*
X0634466Y0106232D02*
X0636513Y0106232D01*
X0637168Y0107231D02*
X0634867Y0107231D01*
X0635135Y0108229D02*
X0638461Y0108229D01*
X0638895Y0110226D02*
X0635451Y0110226D01*
X0635451Y0111225D02*
X0637348Y0111225D01*
X0636588Y0112223D02*
X0635451Y0112223D01*
X0635192Y0113222D02*
X0636174Y0113222D01*
X0636105Y0114220D02*
X0634925Y0114220D01*
X0634590Y0115219D02*
X0636159Y0115219D01*
X0636572Y0116217D02*
X0634014Y0116217D01*
X0633437Y0117216D02*
X0637311Y0117216D01*
X0638805Y0118214D02*
X0632544Y0118214D01*
X0631909Y0119213D02*
X0643333Y0119213D01*
X0643333Y0120211D02*
X0632323Y0120211D01*
X0632736Y0121210D02*
X0643333Y0121210D01*
X0643333Y0122208D02*
X0632833Y0122208D01*
X0632833Y0123207D02*
X0643333Y0123207D01*
X0643333Y0124205D02*
X0632833Y0124205D01*
X0632833Y0125204D02*
X0643333Y0125204D01*
X0643333Y0126202D02*
X0632428Y0126202D01*
X0632014Y0127201D02*
X0643333Y0127201D01*
X0643333Y0128199D02*
X0631600Y0128199D01*
X0630904Y0129198D02*
X0642037Y0129198D01*
X0640539Y0130196D02*
X0629905Y0130196D01*
X0628907Y0131195D02*
X0639041Y0131195D01*
X0637543Y0132193D02*
X0626768Y0132193D01*
X0619899Y0132193D02*
X0611554Y0132193D01*
X0612553Y0131195D02*
X0617760Y0131195D01*
X0616761Y0130196D02*
X0612981Y0130196D01*
X0613340Y0129198D02*
X0615763Y0129198D01*
X0615066Y0128199D02*
X0613340Y0128199D01*
X0613284Y0127201D02*
X0614653Y0127201D01*
X0614239Y0126202D02*
X0612870Y0126202D01*
X0612285Y0125204D02*
X0613833Y0125204D01*
X0611617Y0124205D02*
X0611286Y0124205D01*
X0609323Y0123207D02*
X0606187Y0123207D01*
X0605188Y0122208D02*
X0608324Y0122208D01*
X0607550Y0121210D02*
X0604190Y0121210D01*
X0603191Y0120211D02*
X0607136Y0120211D01*
X0606790Y0119213D02*
X0602193Y0119213D01*
X0601194Y0118214D02*
X0606790Y0118214D01*
X0606790Y0117216D02*
X0600196Y0117216D01*
X0599197Y0116217D02*
X0607104Y0116217D01*
X0607518Y0115219D02*
X0598199Y0115219D01*
X0597200Y0114220D02*
X0608247Y0114220D01*
X0609246Y0113222D02*
X0596202Y0113222D01*
X0595203Y0112223D02*
X0611431Y0112223D01*
X0613853Y0111225D02*
X0594205Y0111225D01*
X0608333Y0108333D02*
X0608333Y0089514D01*
X0599652Y0080833D01*
X0602134Y0086262D02*
X0602525Y0086262D01*
X0603433Y0087260D02*
X0603524Y0087260D01*
X0604177Y0088259D02*
X0604522Y0088259D01*
X0604608Y0089257D02*
X0605521Y0089257D01*
X0604826Y0090256D02*
X0606519Y0090256D01*
X0595048Y0093251D02*
X0594002Y0093251D01*
X0594416Y0094250D02*
X0595715Y0094250D01*
X0594659Y0095248D02*
X0596882Y0095248D01*
X0597640Y0096247D02*
X0594659Y0096247D01*
X0594487Y0097245D02*
X0596159Y0097245D01*
X0595305Y0098244D02*
X0594073Y0098244D01*
X0593324Y0099243D02*
X0594892Y0099243D01*
X0594645Y0100241D02*
X0592095Y0100241D01*
X0591646Y0101240D02*
X0594645Y0101240D01*
X0594814Y0102238D02*
X0593138Y0102238D01*
X0593996Y0103237D02*
X0595228Y0103237D01*
X0595973Y0104235D02*
X0594410Y0104235D01*
X0594659Y0105234D02*
X0597191Y0105234D01*
X0610140Y0105234D02*
X0615415Y0105234D01*
X0614839Y0106232D02*
X0610186Y0106232D01*
X0610903Y0107231D02*
X0614437Y0107231D01*
X0614170Y0108229D02*
X0611129Y0108229D01*
X0610989Y0109228D02*
X0613902Y0109228D01*
X0613853Y0110226D02*
X0610395Y0110226D01*
X0610140Y0104235D02*
X0615992Y0104235D01*
X0616977Y0103237D02*
X0610140Y0103237D01*
X0610140Y0102238D02*
X0617975Y0102238D01*
X0619671Y0101240D02*
X0610140Y0101240D01*
X0635402Y0109228D02*
X0643333Y0109228D01*
X0643333Y0110226D02*
X0641866Y0110226D01*
X0642300Y0108229D02*
X0643333Y0108229D01*
X0643270Y0101240D02*
X0643333Y0101240D01*
X0643333Y0100241D02*
X0641521Y0100241D01*
X0594646Y0092253D02*
X0593153Y0092253D01*
X0492880Y0092253D02*
X0486240Y0092253D01*
X0486240Y0093251D02*
X0492880Y0093251D01*
X0492880Y0094250D02*
X0486240Y0094250D01*
X0486240Y0095248D02*
X0492089Y0095248D01*
X0491514Y0096247D02*
X0486240Y0096247D01*
X0486240Y0097245D02*
X0491514Y0097245D01*
X0480426Y0096247D02*
X0477051Y0096247D01*
X0478050Y0097245D02*
X0480310Y0097245D01*
X0479311Y0098244D02*
X0479048Y0098244D01*
X0480426Y0095248D02*
X0452330Y0095248D01*
X0451331Y0094250D02*
X0480426Y0094250D01*
X0480426Y0093251D02*
X0450024Y0093251D01*
X0451768Y0092253D02*
X0480426Y0092253D01*
X0480426Y0091254D02*
X0452639Y0091254D01*
X0453176Y0090256D02*
X0480426Y0090256D01*
X0480426Y0089257D02*
X0453452Y0089257D01*
X0448833Y0088259D02*
X0480426Y0088259D01*
X0480426Y0087260D02*
X0453428Y0087260D01*
X0453114Y0086262D02*
X0480426Y0086262D01*
X0480426Y0085263D02*
X0452530Y0085263D01*
X0451580Y0084265D02*
X0480426Y0084265D01*
X0480426Y0083266D02*
X0449566Y0083266D01*
X0451480Y0082268D02*
X0480426Y0082268D01*
X0480426Y0081269D02*
X0452478Y0081269D01*
X0452950Y0080271D02*
X0480426Y0080271D01*
X0480426Y0079272D02*
X0453340Y0079272D01*
X0453340Y0078274D02*
X0480426Y0078274D01*
X0480426Y0077275D02*
X0453503Y0077275D01*
X0454501Y0076277D02*
X0480426Y0076277D01*
X0480426Y0075278D02*
X0455500Y0075278D01*
X0456498Y0074280D02*
X0480426Y0074280D01*
X0480426Y0073281D02*
X0457497Y0073281D01*
X0458495Y0072283D02*
X0480426Y0072283D01*
X0480426Y0071284D02*
X0459494Y0071284D01*
X0460492Y0070286D02*
X0480426Y0070286D01*
X0480426Y0069287D02*
X0461491Y0069287D01*
X0458326Y0063296D02*
X0438133Y0063296D01*
X0438133Y0062298D02*
X0440150Y0062298D01*
X0446516Y0062298D02*
X0458343Y0062298D01*
X0458756Y0061299D02*
X0448803Y0061299D01*
X0449801Y0060301D02*
X0459285Y0060301D01*
X0460283Y0059302D02*
X0450800Y0059302D01*
X0451557Y0058304D02*
X0475324Y0058304D01*
X0474325Y0057305D02*
X0451971Y0057305D01*
X0452385Y0056307D02*
X0473327Y0056307D01*
X0472328Y0055308D02*
X0452798Y0055308D01*
X0452833Y0054310D02*
X0471330Y0054310D01*
X0470331Y0053311D02*
X0469400Y0053311D01*
X0467266Y0053311D02*
X0459400Y0053311D01*
X0457266Y0053311D02*
X0452833Y0053311D01*
X0452833Y0052312D02*
X0455231Y0052312D01*
X0454233Y0051314D02*
X0452780Y0051314D01*
X0452366Y0050315D02*
X0453735Y0050315D01*
X0453326Y0049317D02*
X0451952Y0049317D01*
X0451539Y0048318D02*
X0453326Y0048318D01*
X0453333Y0047320D02*
X0450755Y0047320D01*
X0449756Y0046321D02*
X0453747Y0046321D01*
X0454263Y0045323D02*
X0448758Y0045323D01*
X0446409Y0044324D02*
X0455261Y0044324D01*
X0461405Y0044324D02*
X0465261Y0044324D01*
X0464263Y0045323D02*
X0462404Y0045323D01*
X0462920Y0046321D02*
X0463747Y0046321D01*
X0472404Y0045323D02*
X0474263Y0045323D01*
X0473747Y0046321D02*
X0472920Y0046321D01*
X0482404Y0045323D02*
X0484093Y0045323D01*
X0483522Y0046321D02*
X0482920Y0046321D01*
X0487833Y0047320D02*
X0488833Y0047320D01*
X0491662Y0044324D02*
X0495261Y0044324D01*
X0486917Y0043326D02*
X0442102Y0043326D01*
X0440258Y0044324D02*
X0440051Y0044324D01*
X0462434Y0051314D02*
X0464233Y0051314D01*
X0463735Y0050315D02*
X0462932Y0050315D01*
X0461435Y0052312D02*
X0465231Y0052312D01*
X0476291Y0053311D02*
X0477266Y0053311D01*
X0470283Y0059302D02*
X0466383Y0059302D01*
X0467382Y0060301D02*
X0469285Y0060301D01*
X0468756Y0061299D02*
X0467910Y0061299D01*
X0468324Y0062298D02*
X0468343Y0062298D01*
X0486458Y0067290D02*
X0496397Y0067290D01*
X0497395Y0066292D02*
X0487456Y0066292D01*
X0486240Y0068289D02*
X0495398Y0068289D01*
X0494400Y0069287D02*
X0486240Y0069287D01*
X0486240Y0070286D02*
X0493401Y0070286D01*
X0492880Y0071284D02*
X0486240Y0071284D01*
X0486240Y0072283D02*
X0492880Y0072283D01*
X0492880Y0073281D02*
X0486240Y0073281D01*
X0486240Y0074280D02*
X0492880Y0074280D01*
X0492880Y0075278D02*
X0486240Y0075278D01*
X0486240Y0076277D02*
X0492880Y0076277D01*
X0492880Y0077275D02*
X0486240Y0077275D01*
X0486240Y0078274D02*
X0492880Y0078274D01*
X0492880Y0079272D02*
X0486240Y0079272D01*
X0486240Y0080271D02*
X0492880Y0080271D01*
X0492880Y0081269D02*
X0486240Y0081269D01*
X0486240Y0082268D02*
X0492880Y0082268D01*
X0492880Y0083266D02*
X0486240Y0083266D01*
X0486240Y0084265D02*
X0492880Y0084265D01*
X0492074Y0085263D02*
X0486240Y0085263D01*
X0486240Y0086262D02*
X0491514Y0086262D01*
X0491514Y0087260D02*
X0486240Y0087260D01*
X0486240Y0088259D02*
X0491514Y0088259D01*
X0491514Y0089257D02*
X0486240Y0089257D01*
X0486240Y0090256D02*
X0491514Y0090256D01*
X0491926Y0091254D02*
X0486240Y0091254D01*
X0440510Y0114220D02*
X0438133Y0114220D01*
X0499688Y0133192D02*
X0506979Y0133192D01*
X0509688Y0133192D02*
X0516979Y0133192D01*
X0579688Y0133192D02*
X0586979Y0133192D01*
X0585112Y0132193D02*
X0581554Y0132193D01*
X0582553Y0131195D02*
X0584114Y0131195D01*
X0583685Y0130196D02*
X0582981Y0130196D01*
X0591554Y0132193D02*
X0595112Y0132193D01*
X0594114Y0131195D02*
X0592553Y0131195D01*
X0592981Y0130196D02*
X0593685Y0130196D01*
X0601554Y0132193D02*
X0605112Y0132193D01*
X0604114Y0131195D02*
X0602553Y0131195D01*
X0602981Y0130196D02*
X0603685Y0130196D01*
X0606979Y0133192D02*
X0599688Y0133192D01*
X0596979Y0133192D02*
X0589688Y0133192D01*
X0609688Y0133192D02*
X0636045Y0133192D01*
X0641956Y0118214D02*
X0643333Y0118214D01*
X0508534Y0061299D02*
X0507910Y0061299D01*
X0507382Y0060301D02*
X0509109Y0060301D01*
X0510035Y0059302D02*
X0506383Y0059302D01*
X0485004Y0044324D02*
X0481405Y0044324D01*
X0475261Y0044324D02*
X0471405Y0044324D01*
D20*
X0523333Y0089729D03*
X0568333Y0089729D03*
X0608333Y0108333D03*
X0508333Y0113333D03*
D21*
X0480026Y0103333D02*
X0475026Y0098333D01*
X0448333Y0098333D01*
X0480026Y0101640D02*
X0483333Y0098333D01*
X0483333Y0063333D01*
X0463333Y0063333D02*
X0448333Y0078333D01*
X0480026Y0101640D02*
X0480026Y0103333D01*
X0480026Y0128333D01*
M02*
