G75*
%MOIN*%
%OFA0B0*%
%FSLAX25Y25*%
%IPPOS*%
%LPD*%
%AMOC8*
5,1,8,0,0,1.08239X$1,22.5*
%
%ADD10C,0.10800*%
%ADD11C,0.08200*%
%ADD12C,0.10249*%
%ADD13C,0.06737*%
%ADD14C,0.13398*%
%ADD15C,0.09400*%
%ADD16R,0.04737X0.05131*%
%ADD17R,0.05131X0.04737*%
%ADD18C,0.03778*%
D10*
X0443333Y0053333D03*
X0623333Y0053333D03*
X0623333Y0123333D03*
X0443333Y0123333D03*
D11*
X0498333Y0128333D03*
X0508333Y0128333D03*
X0518333Y0128333D03*
X0528333Y0128333D03*
X0538333Y0128333D03*
X0548333Y0128333D03*
X0558333Y0128333D03*
X0568333Y0128333D03*
X0578333Y0128333D03*
X0588333Y0128333D03*
X0598333Y0128333D03*
X0608333Y0128333D03*
X0553333Y0113333D03*
X0533333Y0113333D03*
X0533333Y0103333D03*
X0553333Y0103333D03*
X0589652Y0105833D03*
X0599652Y0100833D03*
X0589652Y0095833D03*
X0599652Y0090833D03*
X0589652Y0085833D03*
X0599652Y0080833D03*
X0589652Y0075833D03*
X0599652Y0070833D03*
X0563333Y0063333D03*
X0553333Y0063333D03*
X0543333Y0063333D03*
X0533333Y0063333D03*
X0523333Y0063333D03*
X0513333Y0063333D03*
X0503333Y0063333D03*
X0483333Y0063333D03*
X0473333Y0063333D03*
X0463333Y0063333D03*
X0448333Y0078333D03*
X0448333Y0088333D03*
X0448333Y0098333D03*
X0448333Y0108333D03*
X0458333Y0048333D03*
X0468333Y0048333D03*
X0478333Y0048333D03*
X0488333Y0048333D03*
X0498333Y0048333D03*
X0508333Y0048333D03*
X0518333Y0048333D03*
X0528333Y0048333D03*
X0538333Y0048333D03*
X0548333Y0048333D03*
X0558333Y0048333D03*
X0568333Y0048333D03*
X0578333Y0048333D03*
X0588333Y0048333D03*
X0598333Y0048333D03*
X0608333Y0048333D03*
D12*
X0612822Y0058333D03*
X0612822Y0118176D03*
D13*
X0640381Y0114239D03*
X0640381Y0104396D03*
X0640381Y0072113D03*
X0640381Y0062270D03*
D14*
X0624652Y0065833D03*
X0624652Y0110833D03*
D15*
X0480026Y0128333D03*
X0466247Y0128333D03*
D16*
X0564333Y0118180D03*
X0564333Y0111487D03*
D17*
X0521680Y0113333D03*
X0514987Y0113333D03*
X0501680Y0098333D03*
X0494987Y0098333D03*
X0494987Y0088333D03*
X0501680Y0088333D03*
X0569987Y0078333D03*
X0576680Y0078333D03*
X0574987Y0068333D03*
X0581680Y0068333D03*
D18*
X0545833Y0070833D03*
X0530833Y0075833D03*
M02*
