G75*
%MOIN*%
%OFA0B0*%
%FSLAX25Y25*%
%IPPOS*%
%LPD*%
%AMOC8*
5,1,8,0,0,1.08239X$1,22.5*
%
%ADD10C,0.00000*%
%ADD11C,0.00600*%
D10*
X0438333Y0053333D02*
X0438335Y0053474D01*
X0438341Y0053615D01*
X0438351Y0053755D01*
X0438365Y0053895D01*
X0438383Y0054035D01*
X0438404Y0054174D01*
X0438430Y0054313D01*
X0438459Y0054451D01*
X0438493Y0054587D01*
X0438530Y0054723D01*
X0438571Y0054858D01*
X0438616Y0054992D01*
X0438665Y0055124D01*
X0438717Y0055255D01*
X0438773Y0055384D01*
X0438833Y0055511D01*
X0438896Y0055637D01*
X0438962Y0055761D01*
X0439033Y0055884D01*
X0439106Y0056004D01*
X0439183Y0056122D01*
X0439263Y0056238D01*
X0439347Y0056351D01*
X0439433Y0056462D01*
X0439523Y0056571D01*
X0439616Y0056677D01*
X0439711Y0056780D01*
X0439810Y0056881D01*
X0439911Y0056979D01*
X0440015Y0057074D01*
X0440122Y0057166D01*
X0440231Y0057255D01*
X0440343Y0057340D01*
X0440457Y0057423D01*
X0440573Y0057503D01*
X0440692Y0057579D01*
X0440813Y0057651D01*
X0440935Y0057721D01*
X0441060Y0057786D01*
X0441186Y0057849D01*
X0441314Y0057907D01*
X0441444Y0057962D01*
X0441575Y0058014D01*
X0441708Y0058061D01*
X0441842Y0058105D01*
X0441977Y0058146D01*
X0442113Y0058182D01*
X0442250Y0058214D01*
X0442388Y0058243D01*
X0442526Y0058268D01*
X0442666Y0058288D01*
X0442806Y0058305D01*
X0442946Y0058318D01*
X0443087Y0058327D01*
X0443227Y0058332D01*
X0443368Y0058333D01*
X0443509Y0058330D01*
X0443650Y0058323D01*
X0443790Y0058312D01*
X0443930Y0058297D01*
X0444070Y0058278D01*
X0444209Y0058256D01*
X0444347Y0058229D01*
X0444485Y0058199D01*
X0444621Y0058164D01*
X0444757Y0058126D01*
X0444891Y0058084D01*
X0445025Y0058038D01*
X0445157Y0057989D01*
X0445287Y0057935D01*
X0445416Y0057878D01*
X0445543Y0057818D01*
X0445669Y0057754D01*
X0445792Y0057686D01*
X0445914Y0057615D01*
X0446034Y0057541D01*
X0446151Y0057463D01*
X0446266Y0057382D01*
X0446379Y0057298D01*
X0446490Y0057211D01*
X0446598Y0057120D01*
X0446703Y0057027D01*
X0446806Y0056930D01*
X0446906Y0056831D01*
X0447003Y0056729D01*
X0447097Y0056624D01*
X0447188Y0056517D01*
X0447276Y0056407D01*
X0447361Y0056295D01*
X0447443Y0056180D01*
X0447522Y0056063D01*
X0447597Y0055944D01*
X0447669Y0055823D01*
X0447737Y0055700D01*
X0447802Y0055575D01*
X0447864Y0055448D01*
X0447921Y0055319D01*
X0447976Y0055189D01*
X0448026Y0055058D01*
X0448073Y0054925D01*
X0448116Y0054791D01*
X0448155Y0054655D01*
X0448190Y0054519D01*
X0448222Y0054382D01*
X0448249Y0054244D01*
X0448273Y0054105D01*
X0448293Y0053965D01*
X0448309Y0053825D01*
X0448321Y0053685D01*
X0448329Y0053544D01*
X0448333Y0053403D01*
X0448333Y0053263D01*
X0448329Y0053122D01*
X0448321Y0052981D01*
X0448309Y0052841D01*
X0448293Y0052701D01*
X0448273Y0052561D01*
X0448249Y0052422D01*
X0448222Y0052284D01*
X0448190Y0052147D01*
X0448155Y0052011D01*
X0448116Y0051875D01*
X0448073Y0051741D01*
X0448026Y0051608D01*
X0447976Y0051477D01*
X0447921Y0051347D01*
X0447864Y0051218D01*
X0447802Y0051091D01*
X0447737Y0050966D01*
X0447669Y0050843D01*
X0447597Y0050722D01*
X0447522Y0050603D01*
X0447443Y0050486D01*
X0447361Y0050371D01*
X0447276Y0050259D01*
X0447188Y0050149D01*
X0447097Y0050042D01*
X0447003Y0049937D01*
X0446906Y0049835D01*
X0446806Y0049736D01*
X0446703Y0049639D01*
X0446598Y0049546D01*
X0446490Y0049455D01*
X0446379Y0049368D01*
X0446266Y0049284D01*
X0446151Y0049203D01*
X0446034Y0049125D01*
X0445914Y0049051D01*
X0445792Y0048980D01*
X0445669Y0048912D01*
X0445543Y0048848D01*
X0445416Y0048788D01*
X0445287Y0048731D01*
X0445157Y0048677D01*
X0445025Y0048628D01*
X0444891Y0048582D01*
X0444757Y0048540D01*
X0444621Y0048502D01*
X0444485Y0048467D01*
X0444347Y0048437D01*
X0444209Y0048410D01*
X0444070Y0048388D01*
X0443930Y0048369D01*
X0443790Y0048354D01*
X0443650Y0048343D01*
X0443509Y0048336D01*
X0443368Y0048333D01*
X0443227Y0048334D01*
X0443087Y0048339D01*
X0442946Y0048348D01*
X0442806Y0048361D01*
X0442666Y0048378D01*
X0442526Y0048398D01*
X0442388Y0048423D01*
X0442250Y0048452D01*
X0442113Y0048484D01*
X0441977Y0048520D01*
X0441842Y0048561D01*
X0441708Y0048605D01*
X0441575Y0048652D01*
X0441444Y0048704D01*
X0441314Y0048759D01*
X0441186Y0048817D01*
X0441060Y0048880D01*
X0440935Y0048945D01*
X0440813Y0049015D01*
X0440692Y0049087D01*
X0440573Y0049163D01*
X0440457Y0049243D01*
X0440343Y0049326D01*
X0440231Y0049411D01*
X0440122Y0049500D01*
X0440015Y0049592D01*
X0439911Y0049687D01*
X0439810Y0049785D01*
X0439711Y0049886D01*
X0439616Y0049989D01*
X0439523Y0050095D01*
X0439433Y0050204D01*
X0439347Y0050315D01*
X0439263Y0050428D01*
X0439183Y0050544D01*
X0439106Y0050662D01*
X0439033Y0050782D01*
X0438962Y0050905D01*
X0438896Y0051029D01*
X0438833Y0051155D01*
X0438773Y0051282D01*
X0438717Y0051411D01*
X0438665Y0051542D01*
X0438616Y0051674D01*
X0438571Y0051808D01*
X0438530Y0051943D01*
X0438493Y0052079D01*
X0438459Y0052215D01*
X0438430Y0052353D01*
X0438404Y0052492D01*
X0438383Y0052631D01*
X0438365Y0052771D01*
X0438351Y0052911D01*
X0438341Y0053051D01*
X0438335Y0053192D01*
X0438333Y0053333D01*
X0618333Y0053333D02*
X0618335Y0053474D01*
X0618341Y0053615D01*
X0618351Y0053755D01*
X0618365Y0053895D01*
X0618383Y0054035D01*
X0618404Y0054174D01*
X0618430Y0054313D01*
X0618459Y0054451D01*
X0618493Y0054587D01*
X0618530Y0054723D01*
X0618571Y0054858D01*
X0618616Y0054992D01*
X0618665Y0055124D01*
X0618717Y0055255D01*
X0618773Y0055384D01*
X0618833Y0055511D01*
X0618896Y0055637D01*
X0618962Y0055761D01*
X0619033Y0055884D01*
X0619106Y0056004D01*
X0619183Y0056122D01*
X0619263Y0056238D01*
X0619347Y0056351D01*
X0619433Y0056462D01*
X0619523Y0056571D01*
X0619616Y0056677D01*
X0619711Y0056780D01*
X0619810Y0056881D01*
X0619911Y0056979D01*
X0620015Y0057074D01*
X0620122Y0057166D01*
X0620231Y0057255D01*
X0620343Y0057340D01*
X0620457Y0057423D01*
X0620573Y0057503D01*
X0620692Y0057579D01*
X0620813Y0057651D01*
X0620935Y0057721D01*
X0621060Y0057786D01*
X0621186Y0057849D01*
X0621314Y0057907D01*
X0621444Y0057962D01*
X0621575Y0058014D01*
X0621708Y0058061D01*
X0621842Y0058105D01*
X0621977Y0058146D01*
X0622113Y0058182D01*
X0622250Y0058214D01*
X0622388Y0058243D01*
X0622526Y0058268D01*
X0622666Y0058288D01*
X0622806Y0058305D01*
X0622946Y0058318D01*
X0623087Y0058327D01*
X0623227Y0058332D01*
X0623368Y0058333D01*
X0623509Y0058330D01*
X0623650Y0058323D01*
X0623790Y0058312D01*
X0623930Y0058297D01*
X0624070Y0058278D01*
X0624209Y0058256D01*
X0624347Y0058229D01*
X0624485Y0058199D01*
X0624621Y0058164D01*
X0624757Y0058126D01*
X0624891Y0058084D01*
X0625025Y0058038D01*
X0625157Y0057989D01*
X0625287Y0057935D01*
X0625416Y0057878D01*
X0625543Y0057818D01*
X0625669Y0057754D01*
X0625792Y0057686D01*
X0625914Y0057615D01*
X0626034Y0057541D01*
X0626151Y0057463D01*
X0626266Y0057382D01*
X0626379Y0057298D01*
X0626490Y0057211D01*
X0626598Y0057120D01*
X0626703Y0057027D01*
X0626806Y0056930D01*
X0626906Y0056831D01*
X0627003Y0056729D01*
X0627097Y0056624D01*
X0627188Y0056517D01*
X0627276Y0056407D01*
X0627361Y0056295D01*
X0627443Y0056180D01*
X0627522Y0056063D01*
X0627597Y0055944D01*
X0627669Y0055823D01*
X0627737Y0055700D01*
X0627802Y0055575D01*
X0627864Y0055448D01*
X0627921Y0055319D01*
X0627976Y0055189D01*
X0628026Y0055058D01*
X0628073Y0054925D01*
X0628116Y0054791D01*
X0628155Y0054655D01*
X0628190Y0054519D01*
X0628222Y0054382D01*
X0628249Y0054244D01*
X0628273Y0054105D01*
X0628293Y0053965D01*
X0628309Y0053825D01*
X0628321Y0053685D01*
X0628329Y0053544D01*
X0628333Y0053403D01*
X0628333Y0053263D01*
X0628329Y0053122D01*
X0628321Y0052981D01*
X0628309Y0052841D01*
X0628293Y0052701D01*
X0628273Y0052561D01*
X0628249Y0052422D01*
X0628222Y0052284D01*
X0628190Y0052147D01*
X0628155Y0052011D01*
X0628116Y0051875D01*
X0628073Y0051741D01*
X0628026Y0051608D01*
X0627976Y0051477D01*
X0627921Y0051347D01*
X0627864Y0051218D01*
X0627802Y0051091D01*
X0627737Y0050966D01*
X0627669Y0050843D01*
X0627597Y0050722D01*
X0627522Y0050603D01*
X0627443Y0050486D01*
X0627361Y0050371D01*
X0627276Y0050259D01*
X0627188Y0050149D01*
X0627097Y0050042D01*
X0627003Y0049937D01*
X0626906Y0049835D01*
X0626806Y0049736D01*
X0626703Y0049639D01*
X0626598Y0049546D01*
X0626490Y0049455D01*
X0626379Y0049368D01*
X0626266Y0049284D01*
X0626151Y0049203D01*
X0626034Y0049125D01*
X0625914Y0049051D01*
X0625792Y0048980D01*
X0625669Y0048912D01*
X0625543Y0048848D01*
X0625416Y0048788D01*
X0625287Y0048731D01*
X0625157Y0048677D01*
X0625025Y0048628D01*
X0624891Y0048582D01*
X0624757Y0048540D01*
X0624621Y0048502D01*
X0624485Y0048467D01*
X0624347Y0048437D01*
X0624209Y0048410D01*
X0624070Y0048388D01*
X0623930Y0048369D01*
X0623790Y0048354D01*
X0623650Y0048343D01*
X0623509Y0048336D01*
X0623368Y0048333D01*
X0623227Y0048334D01*
X0623087Y0048339D01*
X0622946Y0048348D01*
X0622806Y0048361D01*
X0622666Y0048378D01*
X0622526Y0048398D01*
X0622388Y0048423D01*
X0622250Y0048452D01*
X0622113Y0048484D01*
X0621977Y0048520D01*
X0621842Y0048561D01*
X0621708Y0048605D01*
X0621575Y0048652D01*
X0621444Y0048704D01*
X0621314Y0048759D01*
X0621186Y0048817D01*
X0621060Y0048880D01*
X0620935Y0048945D01*
X0620813Y0049015D01*
X0620692Y0049087D01*
X0620573Y0049163D01*
X0620457Y0049243D01*
X0620343Y0049326D01*
X0620231Y0049411D01*
X0620122Y0049500D01*
X0620015Y0049592D01*
X0619911Y0049687D01*
X0619810Y0049785D01*
X0619711Y0049886D01*
X0619616Y0049989D01*
X0619523Y0050095D01*
X0619433Y0050204D01*
X0619347Y0050315D01*
X0619263Y0050428D01*
X0619183Y0050544D01*
X0619106Y0050662D01*
X0619033Y0050782D01*
X0618962Y0050905D01*
X0618896Y0051029D01*
X0618833Y0051155D01*
X0618773Y0051282D01*
X0618717Y0051411D01*
X0618665Y0051542D01*
X0618616Y0051674D01*
X0618571Y0051808D01*
X0618530Y0051943D01*
X0618493Y0052079D01*
X0618459Y0052215D01*
X0618430Y0052353D01*
X0618404Y0052492D01*
X0618383Y0052631D01*
X0618365Y0052771D01*
X0618351Y0052911D01*
X0618341Y0053051D01*
X0618335Y0053192D01*
X0618333Y0053333D01*
X0618353Y0065833D02*
X0618355Y0065991D01*
X0618361Y0066149D01*
X0618371Y0066307D01*
X0618385Y0066465D01*
X0618403Y0066622D01*
X0618424Y0066779D01*
X0618450Y0066935D01*
X0618480Y0067091D01*
X0618513Y0067246D01*
X0618551Y0067399D01*
X0618592Y0067552D01*
X0618637Y0067704D01*
X0618686Y0067855D01*
X0618739Y0068004D01*
X0618795Y0068152D01*
X0618855Y0068298D01*
X0618919Y0068443D01*
X0618987Y0068586D01*
X0619058Y0068728D01*
X0619132Y0068868D01*
X0619210Y0069005D01*
X0619292Y0069141D01*
X0619376Y0069275D01*
X0619465Y0069406D01*
X0619556Y0069535D01*
X0619651Y0069662D01*
X0619748Y0069787D01*
X0619849Y0069909D01*
X0619953Y0070028D01*
X0620060Y0070145D01*
X0620170Y0070259D01*
X0620283Y0070370D01*
X0620398Y0070479D01*
X0620516Y0070584D01*
X0620637Y0070686D01*
X0620760Y0070786D01*
X0620886Y0070882D01*
X0621014Y0070975D01*
X0621144Y0071065D01*
X0621277Y0071151D01*
X0621412Y0071235D01*
X0621548Y0071314D01*
X0621687Y0071391D01*
X0621828Y0071463D01*
X0621970Y0071533D01*
X0622114Y0071598D01*
X0622260Y0071660D01*
X0622407Y0071718D01*
X0622556Y0071773D01*
X0622706Y0071824D01*
X0622857Y0071871D01*
X0623009Y0071914D01*
X0623162Y0071953D01*
X0623317Y0071989D01*
X0623472Y0072020D01*
X0623628Y0072048D01*
X0623784Y0072072D01*
X0623941Y0072092D01*
X0624099Y0072108D01*
X0624256Y0072120D01*
X0624415Y0072128D01*
X0624573Y0072132D01*
X0624731Y0072132D01*
X0624889Y0072128D01*
X0625048Y0072120D01*
X0625205Y0072108D01*
X0625363Y0072092D01*
X0625520Y0072072D01*
X0625676Y0072048D01*
X0625832Y0072020D01*
X0625987Y0071989D01*
X0626142Y0071953D01*
X0626295Y0071914D01*
X0626447Y0071871D01*
X0626598Y0071824D01*
X0626748Y0071773D01*
X0626897Y0071718D01*
X0627044Y0071660D01*
X0627190Y0071598D01*
X0627334Y0071533D01*
X0627476Y0071463D01*
X0627617Y0071391D01*
X0627756Y0071314D01*
X0627892Y0071235D01*
X0628027Y0071151D01*
X0628160Y0071065D01*
X0628290Y0070975D01*
X0628418Y0070882D01*
X0628544Y0070786D01*
X0628667Y0070686D01*
X0628788Y0070584D01*
X0628906Y0070479D01*
X0629021Y0070370D01*
X0629134Y0070259D01*
X0629244Y0070145D01*
X0629351Y0070028D01*
X0629455Y0069909D01*
X0629556Y0069787D01*
X0629653Y0069662D01*
X0629748Y0069535D01*
X0629839Y0069406D01*
X0629928Y0069275D01*
X0630012Y0069141D01*
X0630094Y0069005D01*
X0630172Y0068868D01*
X0630246Y0068728D01*
X0630317Y0068586D01*
X0630385Y0068443D01*
X0630449Y0068298D01*
X0630509Y0068152D01*
X0630565Y0068004D01*
X0630618Y0067855D01*
X0630667Y0067704D01*
X0630712Y0067552D01*
X0630753Y0067399D01*
X0630791Y0067246D01*
X0630824Y0067091D01*
X0630854Y0066935D01*
X0630880Y0066779D01*
X0630901Y0066622D01*
X0630919Y0066465D01*
X0630933Y0066307D01*
X0630943Y0066149D01*
X0630949Y0065991D01*
X0630951Y0065833D01*
X0630949Y0065675D01*
X0630943Y0065517D01*
X0630933Y0065359D01*
X0630919Y0065201D01*
X0630901Y0065044D01*
X0630880Y0064887D01*
X0630854Y0064731D01*
X0630824Y0064575D01*
X0630791Y0064420D01*
X0630753Y0064267D01*
X0630712Y0064114D01*
X0630667Y0063962D01*
X0630618Y0063811D01*
X0630565Y0063662D01*
X0630509Y0063514D01*
X0630449Y0063368D01*
X0630385Y0063223D01*
X0630317Y0063080D01*
X0630246Y0062938D01*
X0630172Y0062798D01*
X0630094Y0062661D01*
X0630012Y0062525D01*
X0629928Y0062391D01*
X0629839Y0062260D01*
X0629748Y0062131D01*
X0629653Y0062004D01*
X0629556Y0061879D01*
X0629455Y0061757D01*
X0629351Y0061638D01*
X0629244Y0061521D01*
X0629134Y0061407D01*
X0629021Y0061296D01*
X0628906Y0061187D01*
X0628788Y0061082D01*
X0628667Y0060980D01*
X0628544Y0060880D01*
X0628418Y0060784D01*
X0628290Y0060691D01*
X0628160Y0060601D01*
X0628027Y0060515D01*
X0627892Y0060431D01*
X0627756Y0060352D01*
X0627617Y0060275D01*
X0627476Y0060203D01*
X0627334Y0060133D01*
X0627190Y0060068D01*
X0627044Y0060006D01*
X0626897Y0059948D01*
X0626748Y0059893D01*
X0626598Y0059842D01*
X0626447Y0059795D01*
X0626295Y0059752D01*
X0626142Y0059713D01*
X0625987Y0059677D01*
X0625832Y0059646D01*
X0625676Y0059618D01*
X0625520Y0059594D01*
X0625363Y0059574D01*
X0625205Y0059558D01*
X0625048Y0059546D01*
X0624889Y0059538D01*
X0624731Y0059534D01*
X0624573Y0059534D01*
X0624415Y0059538D01*
X0624256Y0059546D01*
X0624099Y0059558D01*
X0623941Y0059574D01*
X0623784Y0059594D01*
X0623628Y0059618D01*
X0623472Y0059646D01*
X0623317Y0059677D01*
X0623162Y0059713D01*
X0623009Y0059752D01*
X0622857Y0059795D01*
X0622706Y0059842D01*
X0622556Y0059893D01*
X0622407Y0059948D01*
X0622260Y0060006D01*
X0622114Y0060068D01*
X0621970Y0060133D01*
X0621828Y0060203D01*
X0621687Y0060275D01*
X0621548Y0060352D01*
X0621412Y0060431D01*
X0621277Y0060515D01*
X0621144Y0060601D01*
X0621014Y0060691D01*
X0620886Y0060784D01*
X0620760Y0060880D01*
X0620637Y0060980D01*
X0620516Y0061082D01*
X0620398Y0061187D01*
X0620283Y0061296D01*
X0620170Y0061407D01*
X0620060Y0061521D01*
X0619953Y0061638D01*
X0619849Y0061757D01*
X0619748Y0061879D01*
X0619651Y0062004D01*
X0619556Y0062131D01*
X0619465Y0062260D01*
X0619376Y0062391D01*
X0619292Y0062525D01*
X0619210Y0062661D01*
X0619132Y0062798D01*
X0619058Y0062938D01*
X0618987Y0063080D01*
X0618919Y0063223D01*
X0618855Y0063368D01*
X0618795Y0063514D01*
X0618739Y0063662D01*
X0618686Y0063811D01*
X0618637Y0063962D01*
X0618592Y0064114D01*
X0618551Y0064267D01*
X0618513Y0064420D01*
X0618480Y0064575D01*
X0618450Y0064731D01*
X0618424Y0064887D01*
X0618403Y0065044D01*
X0618385Y0065201D01*
X0618371Y0065359D01*
X0618361Y0065517D01*
X0618355Y0065675D01*
X0618353Y0065833D01*
X0618353Y0110833D02*
X0618355Y0110991D01*
X0618361Y0111149D01*
X0618371Y0111307D01*
X0618385Y0111465D01*
X0618403Y0111622D01*
X0618424Y0111779D01*
X0618450Y0111935D01*
X0618480Y0112091D01*
X0618513Y0112246D01*
X0618551Y0112399D01*
X0618592Y0112552D01*
X0618637Y0112704D01*
X0618686Y0112855D01*
X0618739Y0113004D01*
X0618795Y0113152D01*
X0618855Y0113298D01*
X0618919Y0113443D01*
X0618987Y0113586D01*
X0619058Y0113728D01*
X0619132Y0113868D01*
X0619210Y0114005D01*
X0619292Y0114141D01*
X0619376Y0114275D01*
X0619465Y0114406D01*
X0619556Y0114535D01*
X0619651Y0114662D01*
X0619748Y0114787D01*
X0619849Y0114909D01*
X0619953Y0115028D01*
X0620060Y0115145D01*
X0620170Y0115259D01*
X0620283Y0115370D01*
X0620398Y0115479D01*
X0620516Y0115584D01*
X0620637Y0115686D01*
X0620760Y0115786D01*
X0620886Y0115882D01*
X0621014Y0115975D01*
X0621144Y0116065D01*
X0621277Y0116151D01*
X0621412Y0116235D01*
X0621548Y0116314D01*
X0621687Y0116391D01*
X0621828Y0116463D01*
X0621970Y0116533D01*
X0622114Y0116598D01*
X0622260Y0116660D01*
X0622407Y0116718D01*
X0622556Y0116773D01*
X0622706Y0116824D01*
X0622857Y0116871D01*
X0623009Y0116914D01*
X0623162Y0116953D01*
X0623317Y0116989D01*
X0623472Y0117020D01*
X0623628Y0117048D01*
X0623784Y0117072D01*
X0623941Y0117092D01*
X0624099Y0117108D01*
X0624256Y0117120D01*
X0624415Y0117128D01*
X0624573Y0117132D01*
X0624731Y0117132D01*
X0624889Y0117128D01*
X0625048Y0117120D01*
X0625205Y0117108D01*
X0625363Y0117092D01*
X0625520Y0117072D01*
X0625676Y0117048D01*
X0625832Y0117020D01*
X0625987Y0116989D01*
X0626142Y0116953D01*
X0626295Y0116914D01*
X0626447Y0116871D01*
X0626598Y0116824D01*
X0626748Y0116773D01*
X0626897Y0116718D01*
X0627044Y0116660D01*
X0627190Y0116598D01*
X0627334Y0116533D01*
X0627476Y0116463D01*
X0627617Y0116391D01*
X0627756Y0116314D01*
X0627892Y0116235D01*
X0628027Y0116151D01*
X0628160Y0116065D01*
X0628290Y0115975D01*
X0628418Y0115882D01*
X0628544Y0115786D01*
X0628667Y0115686D01*
X0628788Y0115584D01*
X0628906Y0115479D01*
X0629021Y0115370D01*
X0629134Y0115259D01*
X0629244Y0115145D01*
X0629351Y0115028D01*
X0629455Y0114909D01*
X0629556Y0114787D01*
X0629653Y0114662D01*
X0629748Y0114535D01*
X0629839Y0114406D01*
X0629928Y0114275D01*
X0630012Y0114141D01*
X0630094Y0114005D01*
X0630172Y0113868D01*
X0630246Y0113728D01*
X0630317Y0113586D01*
X0630385Y0113443D01*
X0630449Y0113298D01*
X0630509Y0113152D01*
X0630565Y0113004D01*
X0630618Y0112855D01*
X0630667Y0112704D01*
X0630712Y0112552D01*
X0630753Y0112399D01*
X0630791Y0112246D01*
X0630824Y0112091D01*
X0630854Y0111935D01*
X0630880Y0111779D01*
X0630901Y0111622D01*
X0630919Y0111465D01*
X0630933Y0111307D01*
X0630943Y0111149D01*
X0630949Y0110991D01*
X0630951Y0110833D01*
X0630949Y0110675D01*
X0630943Y0110517D01*
X0630933Y0110359D01*
X0630919Y0110201D01*
X0630901Y0110044D01*
X0630880Y0109887D01*
X0630854Y0109731D01*
X0630824Y0109575D01*
X0630791Y0109420D01*
X0630753Y0109267D01*
X0630712Y0109114D01*
X0630667Y0108962D01*
X0630618Y0108811D01*
X0630565Y0108662D01*
X0630509Y0108514D01*
X0630449Y0108368D01*
X0630385Y0108223D01*
X0630317Y0108080D01*
X0630246Y0107938D01*
X0630172Y0107798D01*
X0630094Y0107661D01*
X0630012Y0107525D01*
X0629928Y0107391D01*
X0629839Y0107260D01*
X0629748Y0107131D01*
X0629653Y0107004D01*
X0629556Y0106879D01*
X0629455Y0106757D01*
X0629351Y0106638D01*
X0629244Y0106521D01*
X0629134Y0106407D01*
X0629021Y0106296D01*
X0628906Y0106187D01*
X0628788Y0106082D01*
X0628667Y0105980D01*
X0628544Y0105880D01*
X0628418Y0105784D01*
X0628290Y0105691D01*
X0628160Y0105601D01*
X0628027Y0105515D01*
X0627892Y0105431D01*
X0627756Y0105352D01*
X0627617Y0105275D01*
X0627476Y0105203D01*
X0627334Y0105133D01*
X0627190Y0105068D01*
X0627044Y0105006D01*
X0626897Y0104948D01*
X0626748Y0104893D01*
X0626598Y0104842D01*
X0626447Y0104795D01*
X0626295Y0104752D01*
X0626142Y0104713D01*
X0625987Y0104677D01*
X0625832Y0104646D01*
X0625676Y0104618D01*
X0625520Y0104594D01*
X0625363Y0104574D01*
X0625205Y0104558D01*
X0625048Y0104546D01*
X0624889Y0104538D01*
X0624731Y0104534D01*
X0624573Y0104534D01*
X0624415Y0104538D01*
X0624256Y0104546D01*
X0624099Y0104558D01*
X0623941Y0104574D01*
X0623784Y0104594D01*
X0623628Y0104618D01*
X0623472Y0104646D01*
X0623317Y0104677D01*
X0623162Y0104713D01*
X0623009Y0104752D01*
X0622857Y0104795D01*
X0622706Y0104842D01*
X0622556Y0104893D01*
X0622407Y0104948D01*
X0622260Y0105006D01*
X0622114Y0105068D01*
X0621970Y0105133D01*
X0621828Y0105203D01*
X0621687Y0105275D01*
X0621548Y0105352D01*
X0621412Y0105431D01*
X0621277Y0105515D01*
X0621144Y0105601D01*
X0621014Y0105691D01*
X0620886Y0105784D01*
X0620760Y0105880D01*
X0620637Y0105980D01*
X0620516Y0106082D01*
X0620398Y0106187D01*
X0620283Y0106296D01*
X0620170Y0106407D01*
X0620060Y0106521D01*
X0619953Y0106638D01*
X0619849Y0106757D01*
X0619748Y0106879D01*
X0619651Y0107004D01*
X0619556Y0107131D01*
X0619465Y0107260D01*
X0619376Y0107391D01*
X0619292Y0107525D01*
X0619210Y0107661D01*
X0619132Y0107798D01*
X0619058Y0107938D01*
X0618987Y0108080D01*
X0618919Y0108223D01*
X0618855Y0108368D01*
X0618795Y0108514D01*
X0618739Y0108662D01*
X0618686Y0108811D01*
X0618637Y0108962D01*
X0618592Y0109114D01*
X0618551Y0109267D01*
X0618513Y0109420D01*
X0618480Y0109575D01*
X0618450Y0109731D01*
X0618424Y0109887D01*
X0618403Y0110044D01*
X0618385Y0110201D01*
X0618371Y0110359D01*
X0618361Y0110517D01*
X0618355Y0110675D01*
X0618353Y0110833D01*
X0618333Y0123333D02*
X0618335Y0123474D01*
X0618341Y0123615D01*
X0618351Y0123755D01*
X0618365Y0123895D01*
X0618383Y0124035D01*
X0618404Y0124174D01*
X0618430Y0124313D01*
X0618459Y0124451D01*
X0618493Y0124587D01*
X0618530Y0124723D01*
X0618571Y0124858D01*
X0618616Y0124992D01*
X0618665Y0125124D01*
X0618717Y0125255D01*
X0618773Y0125384D01*
X0618833Y0125511D01*
X0618896Y0125637D01*
X0618962Y0125761D01*
X0619033Y0125884D01*
X0619106Y0126004D01*
X0619183Y0126122D01*
X0619263Y0126238D01*
X0619347Y0126351D01*
X0619433Y0126462D01*
X0619523Y0126571D01*
X0619616Y0126677D01*
X0619711Y0126780D01*
X0619810Y0126881D01*
X0619911Y0126979D01*
X0620015Y0127074D01*
X0620122Y0127166D01*
X0620231Y0127255D01*
X0620343Y0127340D01*
X0620457Y0127423D01*
X0620573Y0127503D01*
X0620692Y0127579D01*
X0620813Y0127651D01*
X0620935Y0127721D01*
X0621060Y0127786D01*
X0621186Y0127849D01*
X0621314Y0127907D01*
X0621444Y0127962D01*
X0621575Y0128014D01*
X0621708Y0128061D01*
X0621842Y0128105D01*
X0621977Y0128146D01*
X0622113Y0128182D01*
X0622250Y0128214D01*
X0622388Y0128243D01*
X0622526Y0128268D01*
X0622666Y0128288D01*
X0622806Y0128305D01*
X0622946Y0128318D01*
X0623087Y0128327D01*
X0623227Y0128332D01*
X0623368Y0128333D01*
X0623509Y0128330D01*
X0623650Y0128323D01*
X0623790Y0128312D01*
X0623930Y0128297D01*
X0624070Y0128278D01*
X0624209Y0128256D01*
X0624347Y0128229D01*
X0624485Y0128199D01*
X0624621Y0128164D01*
X0624757Y0128126D01*
X0624891Y0128084D01*
X0625025Y0128038D01*
X0625157Y0127989D01*
X0625287Y0127935D01*
X0625416Y0127878D01*
X0625543Y0127818D01*
X0625669Y0127754D01*
X0625792Y0127686D01*
X0625914Y0127615D01*
X0626034Y0127541D01*
X0626151Y0127463D01*
X0626266Y0127382D01*
X0626379Y0127298D01*
X0626490Y0127211D01*
X0626598Y0127120D01*
X0626703Y0127027D01*
X0626806Y0126930D01*
X0626906Y0126831D01*
X0627003Y0126729D01*
X0627097Y0126624D01*
X0627188Y0126517D01*
X0627276Y0126407D01*
X0627361Y0126295D01*
X0627443Y0126180D01*
X0627522Y0126063D01*
X0627597Y0125944D01*
X0627669Y0125823D01*
X0627737Y0125700D01*
X0627802Y0125575D01*
X0627864Y0125448D01*
X0627921Y0125319D01*
X0627976Y0125189D01*
X0628026Y0125058D01*
X0628073Y0124925D01*
X0628116Y0124791D01*
X0628155Y0124655D01*
X0628190Y0124519D01*
X0628222Y0124382D01*
X0628249Y0124244D01*
X0628273Y0124105D01*
X0628293Y0123965D01*
X0628309Y0123825D01*
X0628321Y0123685D01*
X0628329Y0123544D01*
X0628333Y0123403D01*
X0628333Y0123263D01*
X0628329Y0123122D01*
X0628321Y0122981D01*
X0628309Y0122841D01*
X0628293Y0122701D01*
X0628273Y0122561D01*
X0628249Y0122422D01*
X0628222Y0122284D01*
X0628190Y0122147D01*
X0628155Y0122011D01*
X0628116Y0121875D01*
X0628073Y0121741D01*
X0628026Y0121608D01*
X0627976Y0121477D01*
X0627921Y0121347D01*
X0627864Y0121218D01*
X0627802Y0121091D01*
X0627737Y0120966D01*
X0627669Y0120843D01*
X0627597Y0120722D01*
X0627522Y0120603D01*
X0627443Y0120486D01*
X0627361Y0120371D01*
X0627276Y0120259D01*
X0627188Y0120149D01*
X0627097Y0120042D01*
X0627003Y0119937D01*
X0626906Y0119835D01*
X0626806Y0119736D01*
X0626703Y0119639D01*
X0626598Y0119546D01*
X0626490Y0119455D01*
X0626379Y0119368D01*
X0626266Y0119284D01*
X0626151Y0119203D01*
X0626034Y0119125D01*
X0625914Y0119051D01*
X0625792Y0118980D01*
X0625669Y0118912D01*
X0625543Y0118848D01*
X0625416Y0118788D01*
X0625287Y0118731D01*
X0625157Y0118677D01*
X0625025Y0118628D01*
X0624891Y0118582D01*
X0624757Y0118540D01*
X0624621Y0118502D01*
X0624485Y0118467D01*
X0624347Y0118437D01*
X0624209Y0118410D01*
X0624070Y0118388D01*
X0623930Y0118369D01*
X0623790Y0118354D01*
X0623650Y0118343D01*
X0623509Y0118336D01*
X0623368Y0118333D01*
X0623227Y0118334D01*
X0623087Y0118339D01*
X0622946Y0118348D01*
X0622806Y0118361D01*
X0622666Y0118378D01*
X0622526Y0118398D01*
X0622388Y0118423D01*
X0622250Y0118452D01*
X0622113Y0118484D01*
X0621977Y0118520D01*
X0621842Y0118561D01*
X0621708Y0118605D01*
X0621575Y0118652D01*
X0621444Y0118704D01*
X0621314Y0118759D01*
X0621186Y0118817D01*
X0621060Y0118880D01*
X0620935Y0118945D01*
X0620813Y0119015D01*
X0620692Y0119087D01*
X0620573Y0119163D01*
X0620457Y0119243D01*
X0620343Y0119326D01*
X0620231Y0119411D01*
X0620122Y0119500D01*
X0620015Y0119592D01*
X0619911Y0119687D01*
X0619810Y0119785D01*
X0619711Y0119886D01*
X0619616Y0119989D01*
X0619523Y0120095D01*
X0619433Y0120204D01*
X0619347Y0120315D01*
X0619263Y0120428D01*
X0619183Y0120544D01*
X0619106Y0120662D01*
X0619033Y0120782D01*
X0618962Y0120905D01*
X0618896Y0121029D01*
X0618833Y0121155D01*
X0618773Y0121282D01*
X0618717Y0121411D01*
X0618665Y0121542D01*
X0618616Y0121674D01*
X0618571Y0121808D01*
X0618530Y0121943D01*
X0618493Y0122079D01*
X0618459Y0122215D01*
X0618430Y0122353D01*
X0618404Y0122492D01*
X0618383Y0122631D01*
X0618365Y0122771D01*
X0618351Y0122911D01*
X0618341Y0123051D01*
X0618335Y0123192D01*
X0618333Y0123333D01*
X0438333Y0123333D02*
X0438335Y0123474D01*
X0438341Y0123615D01*
X0438351Y0123755D01*
X0438365Y0123895D01*
X0438383Y0124035D01*
X0438404Y0124174D01*
X0438430Y0124313D01*
X0438459Y0124451D01*
X0438493Y0124587D01*
X0438530Y0124723D01*
X0438571Y0124858D01*
X0438616Y0124992D01*
X0438665Y0125124D01*
X0438717Y0125255D01*
X0438773Y0125384D01*
X0438833Y0125511D01*
X0438896Y0125637D01*
X0438962Y0125761D01*
X0439033Y0125884D01*
X0439106Y0126004D01*
X0439183Y0126122D01*
X0439263Y0126238D01*
X0439347Y0126351D01*
X0439433Y0126462D01*
X0439523Y0126571D01*
X0439616Y0126677D01*
X0439711Y0126780D01*
X0439810Y0126881D01*
X0439911Y0126979D01*
X0440015Y0127074D01*
X0440122Y0127166D01*
X0440231Y0127255D01*
X0440343Y0127340D01*
X0440457Y0127423D01*
X0440573Y0127503D01*
X0440692Y0127579D01*
X0440813Y0127651D01*
X0440935Y0127721D01*
X0441060Y0127786D01*
X0441186Y0127849D01*
X0441314Y0127907D01*
X0441444Y0127962D01*
X0441575Y0128014D01*
X0441708Y0128061D01*
X0441842Y0128105D01*
X0441977Y0128146D01*
X0442113Y0128182D01*
X0442250Y0128214D01*
X0442388Y0128243D01*
X0442526Y0128268D01*
X0442666Y0128288D01*
X0442806Y0128305D01*
X0442946Y0128318D01*
X0443087Y0128327D01*
X0443227Y0128332D01*
X0443368Y0128333D01*
X0443509Y0128330D01*
X0443650Y0128323D01*
X0443790Y0128312D01*
X0443930Y0128297D01*
X0444070Y0128278D01*
X0444209Y0128256D01*
X0444347Y0128229D01*
X0444485Y0128199D01*
X0444621Y0128164D01*
X0444757Y0128126D01*
X0444891Y0128084D01*
X0445025Y0128038D01*
X0445157Y0127989D01*
X0445287Y0127935D01*
X0445416Y0127878D01*
X0445543Y0127818D01*
X0445669Y0127754D01*
X0445792Y0127686D01*
X0445914Y0127615D01*
X0446034Y0127541D01*
X0446151Y0127463D01*
X0446266Y0127382D01*
X0446379Y0127298D01*
X0446490Y0127211D01*
X0446598Y0127120D01*
X0446703Y0127027D01*
X0446806Y0126930D01*
X0446906Y0126831D01*
X0447003Y0126729D01*
X0447097Y0126624D01*
X0447188Y0126517D01*
X0447276Y0126407D01*
X0447361Y0126295D01*
X0447443Y0126180D01*
X0447522Y0126063D01*
X0447597Y0125944D01*
X0447669Y0125823D01*
X0447737Y0125700D01*
X0447802Y0125575D01*
X0447864Y0125448D01*
X0447921Y0125319D01*
X0447976Y0125189D01*
X0448026Y0125058D01*
X0448073Y0124925D01*
X0448116Y0124791D01*
X0448155Y0124655D01*
X0448190Y0124519D01*
X0448222Y0124382D01*
X0448249Y0124244D01*
X0448273Y0124105D01*
X0448293Y0123965D01*
X0448309Y0123825D01*
X0448321Y0123685D01*
X0448329Y0123544D01*
X0448333Y0123403D01*
X0448333Y0123263D01*
X0448329Y0123122D01*
X0448321Y0122981D01*
X0448309Y0122841D01*
X0448293Y0122701D01*
X0448273Y0122561D01*
X0448249Y0122422D01*
X0448222Y0122284D01*
X0448190Y0122147D01*
X0448155Y0122011D01*
X0448116Y0121875D01*
X0448073Y0121741D01*
X0448026Y0121608D01*
X0447976Y0121477D01*
X0447921Y0121347D01*
X0447864Y0121218D01*
X0447802Y0121091D01*
X0447737Y0120966D01*
X0447669Y0120843D01*
X0447597Y0120722D01*
X0447522Y0120603D01*
X0447443Y0120486D01*
X0447361Y0120371D01*
X0447276Y0120259D01*
X0447188Y0120149D01*
X0447097Y0120042D01*
X0447003Y0119937D01*
X0446906Y0119835D01*
X0446806Y0119736D01*
X0446703Y0119639D01*
X0446598Y0119546D01*
X0446490Y0119455D01*
X0446379Y0119368D01*
X0446266Y0119284D01*
X0446151Y0119203D01*
X0446034Y0119125D01*
X0445914Y0119051D01*
X0445792Y0118980D01*
X0445669Y0118912D01*
X0445543Y0118848D01*
X0445416Y0118788D01*
X0445287Y0118731D01*
X0445157Y0118677D01*
X0445025Y0118628D01*
X0444891Y0118582D01*
X0444757Y0118540D01*
X0444621Y0118502D01*
X0444485Y0118467D01*
X0444347Y0118437D01*
X0444209Y0118410D01*
X0444070Y0118388D01*
X0443930Y0118369D01*
X0443790Y0118354D01*
X0443650Y0118343D01*
X0443509Y0118336D01*
X0443368Y0118333D01*
X0443227Y0118334D01*
X0443087Y0118339D01*
X0442946Y0118348D01*
X0442806Y0118361D01*
X0442666Y0118378D01*
X0442526Y0118398D01*
X0442388Y0118423D01*
X0442250Y0118452D01*
X0442113Y0118484D01*
X0441977Y0118520D01*
X0441842Y0118561D01*
X0441708Y0118605D01*
X0441575Y0118652D01*
X0441444Y0118704D01*
X0441314Y0118759D01*
X0441186Y0118817D01*
X0441060Y0118880D01*
X0440935Y0118945D01*
X0440813Y0119015D01*
X0440692Y0119087D01*
X0440573Y0119163D01*
X0440457Y0119243D01*
X0440343Y0119326D01*
X0440231Y0119411D01*
X0440122Y0119500D01*
X0440015Y0119592D01*
X0439911Y0119687D01*
X0439810Y0119785D01*
X0439711Y0119886D01*
X0439616Y0119989D01*
X0439523Y0120095D01*
X0439433Y0120204D01*
X0439347Y0120315D01*
X0439263Y0120428D01*
X0439183Y0120544D01*
X0439106Y0120662D01*
X0439033Y0120782D01*
X0438962Y0120905D01*
X0438896Y0121029D01*
X0438833Y0121155D01*
X0438773Y0121282D01*
X0438717Y0121411D01*
X0438665Y0121542D01*
X0438616Y0121674D01*
X0438571Y0121808D01*
X0438530Y0121943D01*
X0438493Y0122079D01*
X0438459Y0122215D01*
X0438430Y0122353D01*
X0438404Y0122492D01*
X0438383Y0122631D01*
X0438365Y0122771D01*
X0438351Y0122911D01*
X0438341Y0123051D01*
X0438335Y0123192D01*
X0438333Y0123333D01*
D11*
X0433333Y0128333D02*
X0433333Y0048333D01*
X0433336Y0048091D01*
X0433345Y0047850D01*
X0433359Y0047609D01*
X0433380Y0047368D01*
X0433406Y0047128D01*
X0433438Y0046888D01*
X0433476Y0046649D01*
X0433519Y0046412D01*
X0433569Y0046175D01*
X0433624Y0045940D01*
X0433684Y0045706D01*
X0433751Y0045474D01*
X0433822Y0045243D01*
X0433900Y0045014D01*
X0433983Y0044787D01*
X0434071Y0044562D01*
X0434165Y0044339D01*
X0434264Y0044119D01*
X0434369Y0043901D01*
X0434478Y0043686D01*
X0434593Y0043473D01*
X0434713Y0043263D01*
X0434838Y0043057D01*
X0434968Y0042853D01*
X0435103Y0042652D01*
X0435243Y0042455D01*
X0435387Y0042261D01*
X0435536Y0042071D01*
X0435690Y0041885D01*
X0435848Y0041702D01*
X0436010Y0041523D01*
X0436177Y0041348D01*
X0436348Y0041177D01*
X0436523Y0041010D01*
X0436702Y0040848D01*
X0436885Y0040690D01*
X0437071Y0040536D01*
X0437261Y0040387D01*
X0437455Y0040243D01*
X0437652Y0040103D01*
X0437853Y0039968D01*
X0438057Y0039838D01*
X0438263Y0039713D01*
X0438473Y0039593D01*
X0438686Y0039478D01*
X0438901Y0039369D01*
X0439119Y0039264D01*
X0439339Y0039165D01*
X0439562Y0039071D01*
X0439787Y0038983D01*
X0440014Y0038900D01*
X0440243Y0038822D01*
X0440474Y0038751D01*
X0440706Y0038684D01*
X0440940Y0038624D01*
X0441175Y0038569D01*
X0441412Y0038519D01*
X0441649Y0038476D01*
X0441888Y0038438D01*
X0442128Y0038406D01*
X0442368Y0038380D01*
X0442609Y0038359D01*
X0442850Y0038345D01*
X0443091Y0038336D01*
X0443333Y0038333D01*
X0633333Y0038333D01*
X0648333Y0048333D02*
X0648333Y0128333D01*
X0648269Y0128634D01*
X0648198Y0128934D01*
X0648120Y0129232D01*
X0648034Y0129528D01*
X0647941Y0129822D01*
X0647841Y0130113D01*
X0647734Y0130402D01*
X0647620Y0130688D01*
X0647499Y0130972D01*
X0647372Y0131252D01*
X0647238Y0131529D01*
X0647097Y0131803D01*
X0646949Y0132074D01*
X0646795Y0132340D01*
X0646635Y0132603D01*
X0646468Y0132862D01*
X0646295Y0133117D01*
X0646116Y0133368D01*
X0645931Y0133614D01*
X0645740Y0133856D01*
X0645543Y0134093D01*
X0645341Y0134325D01*
X0645133Y0134552D01*
X0644919Y0134775D01*
X0644700Y0134992D01*
X0644477Y0135203D01*
X0644248Y0135409D01*
X0644014Y0135610D01*
X0643775Y0135805D01*
X0643532Y0135994D01*
X0643284Y0136177D01*
X0643032Y0136354D01*
X0642776Y0136525D01*
X0642515Y0136689D01*
X0642251Y0136848D01*
X0641983Y0136999D01*
X0641711Y0137145D01*
X0641436Y0137284D01*
X0641158Y0137416D01*
X0640877Y0137541D01*
X0640592Y0137659D01*
X0640305Y0137771D01*
X0640015Y0137875D01*
X0639723Y0137973D01*
X0639429Y0138063D01*
X0639132Y0138147D01*
X0638833Y0138223D01*
X0638533Y0138292D01*
X0638231Y0138353D01*
X0637928Y0138408D01*
X0637624Y0138455D01*
X0637318Y0138494D01*
X0637012Y0138526D01*
X0636705Y0138551D01*
X0636397Y0138569D01*
X0636089Y0138578D01*
X0635781Y0138581D01*
X0635473Y0138576D01*
X0635165Y0138564D01*
X0634858Y0138544D01*
X0634551Y0138516D01*
X0634245Y0138482D01*
X0633940Y0138440D01*
X0633636Y0138390D01*
X0633333Y0138333D01*
X0443333Y0138333D01*
X0443091Y0138330D01*
X0442850Y0138321D01*
X0442609Y0138307D01*
X0442368Y0138286D01*
X0442128Y0138260D01*
X0441888Y0138228D01*
X0441649Y0138190D01*
X0441412Y0138147D01*
X0441175Y0138097D01*
X0440940Y0138042D01*
X0440706Y0137982D01*
X0440474Y0137915D01*
X0440243Y0137844D01*
X0440014Y0137766D01*
X0439787Y0137683D01*
X0439562Y0137595D01*
X0439339Y0137501D01*
X0439119Y0137402D01*
X0438901Y0137297D01*
X0438686Y0137188D01*
X0438473Y0137073D01*
X0438263Y0136953D01*
X0438057Y0136828D01*
X0437853Y0136698D01*
X0437652Y0136563D01*
X0437455Y0136423D01*
X0437261Y0136279D01*
X0437071Y0136130D01*
X0436885Y0135976D01*
X0436702Y0135818D01*
X0436523Y0135656D01*
X0436348Y0135489D01*
X0436177Y0135318D01*
X0436010Y0135143D01*
X0435848Y0134964D01*
X0435690Y0134781D01*
X0435536Y0134595D01*
X0435387Y0134405D01*
X0435243Y0134211D01*
X0435103Y0134014D01*
X0434968Y0133813D01*
X0434838Y0133609D01*
X0434713Y0133403D01*
X0434593Y0133193D01*
X0434478Y0132980D01*
X0434369Y0132765D01*
X0434264Y0132547D01*
X0434165Y0132327D01*
X0434071Y0132104D01*
X0433983Y0131879D01*
X0433900Y0131652D01*
X0433822Y0131423D01*
X0433751Y0131192D01*
X0433684Y0130960D01*
X0433624Y0130726D01*
X0433569Y0130491D01*
X0433519Y0130254D01*
X0433476Y0130017D01*
X0433438Y0129778D01*
X0433406Y0129538D01*
X0433380Y0129298D01*
X0433359Y0129057D01*
X0433345Y0128816D01*
X0433336Y0128575D01*
X0433333Y0128333D01*
X0633333Y0038333D02*
X0633636Y0038276D01*
X0633940Y0038226D01*
X0634245Y0038184D01*
X0634551Y0038150D01*
X0634858Y0038122D01*
X0635165Y0038102D01*
X0635473Y0038090D01*
X0635781Y0038085D01*
X0636089Y0038088D01*
X0636397Y0038097D01*
X0636705Y0038115D01*
X0637012Y0038140D01*
X0637318Y0038172D01*
X0637624Y0038211D01*
X0637928Y0038258D01*
X0638231Y0038313D01*
X0638533Y0038374D01*
X0638833Y0038443D01*
X0639132Y0038519D01*
X0639429Y0038603D01*
X0639723Y0038693D01*
X0640015Y0038791D01*
X0640305Y0038895D01*
X0640592Y0039007D01*
X0640877Y0039125D01*
X0641158Y0039250D01*
X0641436Y0039382D01*
X0641711Y0039521D01*
X0641983Y0039667D01*
X0642251Y0039818D01*
X0642515Y0039977D01*
X0642776Y0040141D01*
X0643032Y0040312D01*
X0643284Y0040489D01*
X0643532Y0040672D01*
X0643775Y0040861D01*
X0644014Y0041056D01*
X0644248Y0041257D01*
X0644477Y0041463D01*
X0644700Y0041674D01*
X0644919Y0041891D01*
X0645133Y0042114D01*
X0645341Y0042341D01*
X0645543Y0042573D01*
X0645740Y0042810D01*
X0645931Y0043052D01*
X0646116Y0043298D01*
X0646295Y0043549D01*
X0646468Y0043804D01*
X0646635Y0044063D01*
X0646795Y0044326D01*
X0646949Y0044592D01*
X0647097Y0044863D01*
X0647238Y0045137D01*
X0647372Y0045414D01*
X0647499Y0045694D01*
X0647620Y0045978D01*
X0647734Y0046264D01*
X0647841Y0046553D01*
X0647941Y0046844D01*
X0648034Y0047138D01*
X0648120Y0047434D01*
X0648198Y0047732D01*
X0648269Y0048032D01*
X0648333Y0048333D01*
M02*
