G75*
%MOIN*%
%OFA0B0*%
%FSLAX25Y25*%
%IPPOS*%
%LPD*%
%AMOC8*
5,1,8,0,0,1.08239X$1,22.5*
%
%ADD10C,0.07400*%
%ADD11C,0.09449*%
%ADD12C,0.05937*%
%ADD13C,0.08600*%
%ADD14C,0.01000*%
%ADD15C,0.02978*%
%ADD16C,0.02400*%
D10*
X0448333Y0078333D03*
X0448333Y0088333D03*
X0448333Y0098333D03*
X0448333Y0108333D03*
X0533333Y0103333D03*
X0553333Y0103333D03*
X0589652Y0105833D03*
X0599652Y0100833D03*
X0589652Y0095833D03*
X0599652Y0090833D03*
X0589652Y0085833D03*
X0599652Y0080833D03*
X0589652Y0075833D03*
X0599652Y0070833D03*
X0563333Y0063333D03*
X0553333Y0063333D03*
X0543333Y0063333D03*
X0533333Y0063333D03*
X0523333Y0063333D03*
X0513333Y0063333D03*
X0503333Y0063333D03*
X0483333Y0063333D03*
X0473333Y0063333D03*
X0463333Y0063333D03*
X0458333Y0048333D03*
X0468333Y0048333D03*
X0478333Y0048333D03*
X0488333Y0048333D03*
X0498333Y0048333D03*
X0508333Y0048333D03*
X0518333Y0048333D03*
X0528333Y0048333D03*
X0538333Y0048333D03*
X0548333Y0048333D03*
X0558333Y0048333D03*
X0568333Y0048333D03*
X0578333Y0048333D03*
X0588333Y0048333D03*
X0598333Y0048333D03*
X0608333Y0048333D03*
X0553333Y0113333D03*
X0533333Y0113333D03*
X0528333Y0128333D03*
X0538333Y0128333D03*
X0548333Y0128333D03*
X0558333Y0128333D03*
X0568333Y0128333D03*
X0578333Y0128333D03*
X0588333Y0128333D03*
X0598333Y0128333D03*
X0608333Y0128333D03*
X0518333Y0128333D03*
X0508333Y0128333D03*
X0498333Y0128333D03*
D11*
X0612822Y0118176D03*
X0612822Y0058333D03*
D12*
X0640381Y0062270D03*
X0640381Y0072113D03*
X0640381Y0104396D03*
X0640381Y0114239D03*
D13*
X0480026Y0128333D03*
X0466247Y0128333D03*
D14*
X0438133Y0115205D02*
X0438133Y0061462D01*
X0441444Y0062833D01*
X0445223Y0062833D01*
X0448715Y0061387D01*
X0451387Y0058715D01*
X0452833Y0055223D01*
X0452833Y0051444D01*
X0451387Y0047952D01*
X0448715Y0045280D01*
X0445223Y0043833D01*
X0441444Y0043833D01*
X0439905Y0044471D01*
X0440168Y0044208D01*
X0441343Y0043529D01*
X0442655Y0043178D01*
X0443333Y0043133D01*
X0632863Y0043133D01*
X0633338Y0043227D01*
X0633809Y0043133D01*
X0634288Y0043133D01*
X0634626Y0042994D01*
X0635305Y0042903D01*
X0637376Y0043037D01*
X0638503Y0043418D01*
X0640154Y0044243D01*
X0641067Y0044853D01*
X0641067Y0044853D01*
X0642437Y0046411D01*
X0643356Y0048271D01*
X0643533Y0048928D01*
X0643533Y0059377D01*
X0642802Y0058646D01*
X0641231Y0057995D01*
X0639530Y0057995D01*
X0637959Y0058646D01*
X0636756Y0059848D01*
X0636105Y0061420D01*
X0636105Y0063121D01*
X0636756Y0064692D01*
X0637959Y0065895D01*
X0639530Y0066546D01*
X0641231Y0066546D01*
X0642802Y0065895D01*
X0643533Y0065164D01*
X0643533Y0069219D01*
X0642802Y0068488D01*
X0641231Y0067837D01*
X0639530Y0067837D01*
X0637959Y0068488D01*
X0636756Y0069691D01*
X0636105Y0071262D01*
X0636105Y0072963D01*
X0636756Y0074535D01*
X0637959Y0075738D01*
X0639530Y0076388D01*
X0641231Y0076388D01*
X0642802Y0075738D01*
X0643533Y0075007D01*
X0643533Y0101502D01*
X0642802Y0100772D01*
X0641231Y0100121D01*
X0639530Y0100121D01*
X0637959Y0100772D01*
X0636756Y0101974D01*
X0636105Y0103546D01*
X0636105Y0105247D01*
X0636756Y0106818D01*
X0637959Y0108021D01*
X0639530Y0108672D01*
X0641231Y0108672D01*
X0642802Y0108021D01*
X0643533Y0107290D01*
X0643533Y0111345D01*
X0642802Y0110614D01*
X0641231Y0109963D01*
X0639530Y0109963D01*
X0637959Y0110614D01*
X0636756Y0111817D01*
X0636105Y0113388D01*
X0636105Y0115089D01*
X0636756Y0116661D01*
X0637959Y0117863D01*
X0639530Y0118514D01*
X0641231Y0118514D01*
X0642802Y0117863D01*
X0643533Y0117133D01*
X0643533Y0127738D01*
X0643356Y0128396D01*
X0642437Y0130256D01*
X0641067Y0131814D01*
X0640154Y0132423D01*
X0638503Y0133248D01*
X0637376Y0133630D01*
X0635305Y0133763D01*
X0634626Y0133673D01*
X0634288Y0133533D01*
X0633809Y0133533D01*
X0633338Y0133439D01*
X0632863Y0133533D01*
X0482124Y0133533D01*
X0483202Y0133087D01*
X0484780Y0131509D01*
X0485633Y0129449D01*
X0485633Y0127218D01*
X0484780Y0125157D01*
X0483202Y0123580D01*
X0481142Y0122726D01*
X0478911Y0122726D01*
X0476850Y0123580D01*
X0475273Y0125157D01*
X0474419Y0127218D01*
X0474419Y0129449D01*
X0475273Y0131509D01*
X0476850Y0133087D01*
X0477928Y0133533D01*
X0468817Y0133533D01*
X0469287Y0133294D01*
X0470025Y0132757D01*
X0470671Y0132112D01*
X0471207Y0131373D01*
X0471622Y0130560D01*
X0471904Y0129691D01*
X0472042Y0128818D01*
X0466731Y0128818D01*
X0466731Y0127849D01*
X0472042Y0127849D01*
X0471904Y0126975D01*
X0471622Y0126107D01*
X0471207Y0125293D01*
X0470671Y0124555D01*
X0470025Y0123909D01*
X0469287Y0123373D01*
X0468473Y0122958D01*
X0467605Y0122676D01*
X0467379Y0122640D01*
X0530085Y0122640D01*
X0533753Y0126308D01*
X0533333Y0127320D01*
X0532578Y0125497D01*
X0531170Y0124089D01*
X0529329Y0123326D01*
X0527337Y0123326D01*
X0525497Y0124089D01*
X0524089Y0125497D01*
X0523333Y0127320D01*
X0522578Y0125497D01*
X0521170Y0124089D01*
X0519329Y0123326D01*
X0517337Y0123326D01*
X0515497Y0124089D01*
X0514089Y0125497D01*
X0513333Y0127320D01*
X0512578Y0125497D01*
X0511170Y0124089D01*
X0509329Y0123326D01*
X0507337Y0123326D01*
X0505497Y0124089D01*
X0504089Y0125497D01*
X0503333Y0127320D01*
X0502578Y0125497D01*
X0501170Y0124089D01*
X0499329Y0123326D01*
X0497337Y0123326D01*
X0495497Y0124089D01*
X0494089Y0125497D01*
X0493326Y0127337D01*
X0493326Y0129329D01*
X0494089Y0131170D01*
X0495497Y0132578D01*
X0497337Y0133340D01*
X0499329Y0133340D01*
X0501170Y0132578D01*
X0502578Y0131170D01*
X0503333Y0129346D01*
X0504089Y0131170D01*
X0505497Y0132578D01*
X0507337Y0133340D01*
X0509329Y0133340D01*
X0511170Y0132578D01*
X0512578Y0131170D01*
X0513333Y0129346D01*
X0514089Y0131170D01*
X0515497Y0132578D01*
X0517337Y0133340D01*
X0519329Y0133340D01*
X0521170Y0132578D01*
X0522578Y0131170D01*
X0523333Y0129346D01*
X0524089Y0131170D01*
X0525497Y0132578D01*
X0527337Y0133340D01*
X0529329Y0133340D01*
X0531170Y0132578D01*
X0532578Y0131170D01*
X0533333Y0129346D01*
X0534089Y0131170D01*
X0535497Y0132578D01*
X0537337Y0133340D01*
X0539329Y0133340D01*
X0541170Y0132578D01*
X0542578Y0131170D01*
X0543333Y0129346D01*
X0544089Y0131170D01*
X0545497Y0132578D01*
X0547337Y0133340D01*
X0549329Y0133340D01*
X0551170Y0132578D01*
X0552578Y0131170D01*
X0553333Y0129346D01*
X0554089Y0131170D01*
X0555497Y0132578D01*
X0557337Y0133340D01*
X0559329Y0133340D01*
X0561170Y0132578D01*
X0562578Y0131170D01*
X0563333Y0129346D01*
X0564089Y0131170D01*
X0565497Y0132578D01*
X0567337Y0133340D01*
X0569329Y0133340D01*
X0571170Y0132578D01*
X0572578Y0131170D01*
X0573333Y0129346D01*
X0574089Y0131170D01*
X0575497Y0132578D01*
X0577337Y0133340D01*
X0579329Y0133340D01*
X0581170Y0132578D01*
X0582578Y0131170D01*
X0583333Y0129346D01*
X0584089Y0131170D01*
X0585497Y0132578D01*
X0587337Y0133340D01*
X0589329Y0133340D01*
X0591170Y0132578D01*
X0592578Y0131170D01*
X0593333Y0129346D01*
X0594089Y0131170D01*
X0595497Y0132578D01*
X0597337Y0133340D01*
X0599329Y0133340D01*
X0601170Y0132578D01*
X0602578Y0131170D01*
X0603333Y0129346D01*
X0604089Y0131170D01*
X0605497Y0132578D01*
X0607337Y0133340D01*
X0609329Y0133340D01*
X0611170Y0132578D01*
X0612578Y0131170D01*
X0613340Y0129329D01*
X0613340Y0127337D01*
X0612578Y0125497D01*
X0611170Y0124089D01*
X0609329Y0123326D01*
X0607337Y0123326D01*
X0605497Y0124089D01*
X0604089Y0125497D01*
X0603333Y0127320D01*
X0602578Y0125497D01*
X0601170Y0124089D01*
X0599329Y0123326D01*
X0597337Y0123326D01*
X0595497Y0124089D01*
X0594089Y0125497D01*
X0593333Y0127320D01*
X0592578Y0125497D01*
X0591170Y0124089D01*
X0589329Y0123326D01*
X0587337Y0123326D01*
X0585497Y0124089D01*
X0584089Y0125497D01*
X0583333Y0127320D01*
X0582578Y0125497D01*
X0581170Y0124089D01*
X0579329Y0123326D01*
X0577337Y0123326D01*
X0575497Y0124089D01*
X0574089Y0125497D01*
X0573333Y0127320D01*
X0572578Y0125497D01*
X0571170Y0124089D01*
X0569329Y0123326D01*
X0567337Y0123326D01*
X0565497Y0124089D01*
X0564089Y0125497D01*
X0563333Y0127320D01*
X0562578Y0125497D01*
X0561170Y0124089D01*
X0559329Y0123326D01*
X0557337Y0123326D01*
X0555497Y0124089D01*
X0554089Y0125497D01*
X0553333Y0127320D01*
X0552578Y0125497D01*
X0551170Y0124089D01*
X0549329Y0123326D01*
X0547337Y0123326D01*
X0545497Y0124089D01*
X0544089Y0125497D01*
X0543333Y0127320D01*
X0542578Y0125497D01*
X0541170Y0124089D01*
X0539329Y0123326D01*
X0537337Y0123326D01*
X0536308Y0123753D01*
X0531582Y0119026D01*
X0461582Y0119026D01*
X0452914Y0110359D01*
X0453340Y0109329D01*
X0453340Y0107337D01*
X0452578Y0105497D01*
X0451170Y0104089D01*
X0449346Y0103333D01*
X0451170Y0102578D01*
X0452578Y0101170D01*
X0453340Y0099329D01*
X0453340Y0097337D01*
X0452578Y0095497D01*
X0451170Y0094089D01*
X0449529Y0093409D01*
X0449551Y0093405D01*
X0450329Y0093152D01*
X0451059Y0092781D01*
X0451721Y0092300D01*
X0452300Y0091721D01*
X0452781Y0091059D01*
X0453152Y0090329D01*
X0453405Y0089551D01*
X0453519Y0088833D01*
X0448833Y0088833D01*
X0448833Y0087833D01*
X0453519Y0087833D01*
X0453405Y0087116D01*
X0453152Y0086337D01*
X0452781Y0085608D01*
X0452300Y0084946D01*
X0451721Y0084367D01*
X0451059Y0083886D01*
X0450329Y0083514D01*
X0449551Y0083261D01*
X0449529Y0083258D01*
X0451170Y0082578D01*
X0452578Y0081170D01*
X0453340Y0079329D01*
X0453340Y0077337D01*
X0452578Y0075497D01*
X0451170Y0074089D01*
X0449329Y0073326D01*
X0447337Y0073326D01*
X0445497Y0074089D01*
X0444089Y0075497D01*
X0443326Y0077337D01*
X0443326Y0079329D01*
X0444089Y0081170D01*
X0445497Y0082578D01*
X0447138Y0083258D01*
X0447116Y0083261D01*
X0446337Y0083514D01*
X0445608Y0083886D01*
X0444946Y0084367D01*
X0444367Y0084946D01*
X0443886Y0085608D01*
X0443514Y0086337D01*
X0443261Y0087116D01*
X0443148Y0087833D01*
X0447833Y0087833D01*
X0447833Y0088833D01*
X0443148Y0088833D01*
X0443261Y0089551D01*
X0443514Y0090329D01*
X0443886Y0091059D01*
X0444367Y0091721D01*
X0444946Y0092300D01*
X0445608Y0092781D01*
X0446337Y0093152D01*
X0447116Y0093405D01*
X0447138Y0093409D01*
X0445497Y0094089D01*
X0444089Y0095497D01*
X0443326Y0097337D01*
X0443326Y0099329D01*
X0444089Y0101170D01*
X0445497Y0102578D01*
X0447320Y0103333D01*
X0445497Y0104089D01*
X0444089Y0105497D01*
X0443326Y0107337D01*
X0443326Y0109329D01*
X0444089Y0111170D01*
X0445497Y0112578D01*
X0447337Y0113340D01*
X0449329Y0113340D01*
X0450359Y0112914D01*
X0459026Y0121582D01*
X0460085Y0122640D01*
X0465114Y0122640D01*
X0464889Y0122676D01*
X0464020Y0122958D01*
X0463207Y0123373D01*
X0462468Y0123909D01*
X0461823Y0124555D01*
X0461286Y0125293D01*
X0460872Y0126107D01*
X0460590Y0126975D01*
X0460451Y0127849D01*
X0465762Y0127849D01*
X0465762Y0128818D01*
X0460451Y0128818D01*
X0460590Y0129691D01*
X0460872Y0130560D01*
X0461286Y0131373D01*
X0461823Y0132112D01*
X0462468Y0132757D01*
X0463207Y0133294D01*
X0463677Y0133533D01*
X0443333Y0133533D01*
X0442655Y0133489D01*
X0441343Y0133138D01*
X0440168Y0132459D01*
X0439905Y0132196D01*
X0441444Y0132833D01*
X0445223Y0132833D01*
X0448715Y0131387D01*
X0451387Y0128715D01*
X0452833Y0125223D01*
X0452833Y0121444D01*
X0451387Y0117952D01*
X0448715Y0115280D01*
X0445223Y0113833D01*
X0441444Y0113833D01*
X0438133Y0115205D01*
X0438133Y0114220D02*
X0440510Y0114220D01*
X0438133Y0113222D02*
X0447051Y0113222D01*
X0446157Y0114220D02*
X0451665Y0114220D01*
X0452663Y0115219D02*
X0448568Y0115219D01*
X0449652Y0116217D02*
X0453662Y0116217D01*
X0454660Y0117216D02*
X0450651Y0117216D01*
X0451496Y0118214D02*
X0455659Y0118214D01*
X0456657Y0119213D02*
X0451909Y0119213D01*
X0452323Y0120211D02*
X0457656Y0120211D01*
X0458654Y0121210D02*
X0452736Y0121210D01*
X0452833Y0122208D02*
X0459653Y0122208D01*
X0460833Y0120833D02*
X0530833Y0120833D01*
X0538333Y0128333D01*
X0533685Y0130196D02*
X0532981Y0130196D01*
X0532553Y0131195D02*
X0534114Y0131195D01*
X0535112Y0132193D02*
X0531554Y0132193D01*
X0529688Y0133192D02*
X0536979Y0133192D01*
X0539688Y0133192D02*
X0546979Y0133192D01*
X0545112Y0132193D02*
X0541554Y0132193D01*
X0542553Y0131195D02*
X0544114Y0131195D01*
X0543685Y0130196D02*
X0542981Y0130196D01*
X0551554Y0132193D02*
X0555112Y0132193D01*
X0554114Y0131195D02*
X0552553Y0131195D01*
X0552981Y0130196D02*
X0553685Y0130196D01*
X0561554Y0132193D02*
X0565112Y0132193D01*
X0564114Y0131195D02*
X0562553Y0131195D01*
X0562981Y0130196D02*
X0563685Y0130196D01*
X0571554Y0132193D02*
X0575112Y0132193D01*
X0574114Y0131195D02*
X0572553Y0131195D01*
X0572981Y0130196D02*
X0573685Y0130196D01*
X0581554Y0132193D02*
X0585112Y0132193D01*
X0584114Y0131195D02*
X0582553Y0131195D01*
X0582981Y0130196D02*
X0583685Y0130196D01*
X0591554Y0132193D02*
X0595112Y0132193D01*
X0594114Y0131195D02*
X0592553Y0131195D01*
X0592981Y0130196D02*
X0593685Y0130196D01*
X0601554Y0132193D02*
X0605112Y0132193D01*
X0604114Y0131195D02*
X0602553Y0131195D01*
X0602981Y0130196D02*
X0603685Y0130196D01*
X0611554Y0132193D02*
X0619899Y0132193D01*
X0621444Y0132833D02*
X0617952Y0131387D01*
X0615280Y0128715D01*
X0613833Y0125223D01*
X0613833Y0124207D01*
X0611622Y0124207D01*
X0609405Y0123289D01*
X0607708Y0121592D01*
X0606790Y0119376D01*
X0606790Y0116976D01*
X0607708Y0114759D01*
X0609405Y0113063D01*
X0611622Y0112144D01*
X0613853Y0112144D01*
X0613853Y0109412D01*
X0614589Y0106665D01*
X0616011Y0104202D01*
X0618021Y0102192D01*
X0620484Y0100770D01*
X0623230Y0100034D01*
X0626074Y0100034D01*
X0628821Y0100770D01*
X0631283Y0102192D01*
X0633294Y0104202D01*
X0634715Y0106665D01*
X0635451Y0109412D01*
X0635451Y0112255D01*
X0634715Y0115002D01*
X0633294Y0117464D01*
X0631803Y0118955D01*
X0632833Y0121444D01*
X0632833Y0125223D01*
X0631387Y0128715D01*
X0628715Y0131387D01*
X0625223Y0132833D01*
X0621444Y0132833D01*
X0617760Y0131195D02*
X0612553Y0131195D01*
X0612981Y0130196D02*
X0616761Y0130196D01*
X0615763Y0129198D02*
X0613340Y0129198D01*
X0613340Y0128199D02*
X0615066Y0128199D01*
X0614653Y0127201D02*
X0613284Y0127201D01*
X0612870Y0126202D02*
X0614239Y0126202D01*
X0613833Y0125204D02*
X0612285Y0125204D01*
X0611617Y0124205D02*
X0611286Y0124205D01*
X0609323Y0123207D02*
X0535762Y0123207D01*
X0534764Y0122208D02*
X0608324Y0122208D01*
X0607550Y0121210D02*
X0533765Y0121210D01*
X0532767Y0120211D02*
X0607136Y0120211D01*
X0606790Y0119213D02*
X0531768Y0119213D01*
X0532033Y0118214D02*
X0460770Y0118214D01*
X0459771Y0117216D02*
X0530135Y0117216D01*
X0530497Y0117578D02*
X0529089Y0116170D01*
X0528326Y0114329D01*
X0528326Y0112337D01*
X0529089Y0110497D01*
X0530497Y0109089D01*
X0532320Y0108333D01*
X0530497Y0107578D01*
X0529089Y0106170D01*
X0528326Y0104329D01*
X0528326Y0102337D01*
X0529089Y0100497D01*
X0530497Y0099089D01*
X0532337Y0098326D01*
X0534329Y0098326D01*
X0536170Y0099089D01*
X0537578Y0100497D01*
X0537882Y0101230D01*
X0546526Y0092585D01*
X0547585Y0091526D01*
X0586966Y0091526D01*
X0588639Y0090833D01*
X0586816Y0090078D01*
X0585407Y0088670D01*
X0584645Y0086829D01*
X0584645Y0085840D01*
X0492835Y0085840D01*
X0491913Y0085459D01*
X0491208Y0084753D01*
X0474659Y0068204D01*
X0474329Y0068340D01*
X0472337Y0068340D01*
X0470497Y0067578D01*
X0469089Y0066170D01*
X0468333Y0064346D01*
X0467578Y0066170D01*
X0466170Y0067578D01*
X0464329Y0068340D01*
X0462337Y0068340D01*
X0460497Y0067578D01*
X0459089Y0066170D01*
X0458326Y0064329D01*
X0458326Y0062337D01*
X0459089Y0060497D01*
X0460497Y0059089D01*
X0462337Y0058326D01*
X0464329Y0058326D01*
X0466170Y0059089D01*
X0467578Y0060497D01*
X0468333Y0062320D01*
X0469089Y0060497D01*
X0470497Y0059089D01*
X0472337Y0058326D01*
X0474329Y0058326D01*
X0476170Y0059089D01*
X0477578Y0060497D01*
X0478333Y0062320D01*
X0479089Y0060497D01*
X0480497Y0059089D01*
X0482337Y0058326D01*
X0484329Y0058326D01*
X0486170Y0059089D01*
X0487578Y0060497D01*
X0488340Y0062337D01*
X0488340Y0064329D01*
X0487578Y0066170D01*
X0486170Y0067578D01*
X0484329Y0068340D01*
X0482337Y0068340D01*
X0481567Y0068021D01*
X0494372Y0080826D01*
X0587651Y0080826D01*
X0588154Y0081034D01*
X0588639Y0080833D01*
X0586816Y0080078D01*
X0585407Y0078670D01*
X0584645Y0076829D01*
X0584645Y0074837D01*
X0585407Y0072997D01*
X0586816Y0071589D01*
X0588656Y0070826D01*
X0590648Y0070826D01*
X0592489Y0071589D01*
X0593897Y0072997D01*
X0594659Y0074837D01*
X0594659Y0076829D01*
X0593897Y0078670D01*
X0592489Y0080078D01*
X0590665Y0080833D01*
X0592489Y0081589D01*
X0593897Y0082997D01*
X0594659Y0084837D01*
X0594659Y0086829D01*
X0593897Y0088670D01*
X0592489Y0090078D01*
X0590665Y0090833D01*
X0592489Y0091589D01*
X0593897Y0092997D01*
X0594659Y0094837D01*
X0594659Y0096829D01*
X0593897Y0098670D01*
X0592489Y0100078D01*
X0590665Y0100833D01*
X0592489Y0101589D01*
X0593897Y0102997D01*
X0594659Y0104837D01*
X0594659Y0106829D01*
X0593897Y0108670D01*
X0592489Y0110078D01*
X0590648Y0110840D01*
X0588656Y0110840D01*
X0586816Y0110078D01*
X0585407Y0108670D01*
X0584645Y0106829D01*
X0584645Y0104837D01*
X0585071Y0103808D01*
X0578904Y0097640D01*
X0551582Y0097640D01*
X0537914Y0111308D01*
X0538340Y0112337D01*
X0538340Y0114329D01*
X0537578Y0116170D01*
X0536170Y0117578D01*
X0534329Y0118340D01*
X0532337Y0118340D01*
X0530497Y0117578D01*
X0529136Y0116217D02*
X0458773Y0116217D01*
X0457774Y0115219D02*
X0528695Y0115219D01*
X0528326Y0114220D02*
X0456776Y0114220D01*
X0455777Y0113222D02*
X0528326Y0113222D01*
X0528374Y0112223D02*
X0454779Y0112223D01*
X0453780Y0111225D02*
X0528787Y0111225D01*
X0529359Y0110226D02*
X0452969Y0110226D01*
X0453340Y0109228D02*
X0530358Y0109228D01*
X0532069Y0108229D02*
X0453340Y0108229D01*
X0453296Y0107231D02*
X0530150Y0107231D01*
X0529151Y0106232D02*
X0452883Y0106232D01*
X0452315Y0105234D02*
X0528701Y0105234D01*
X0528326Y0104235D02*
X0451316Y0104235D01*
X0449580Y0103237D02*
X0528326Y0103237D01*
X0528367Y0102238D02*
X0451510Y0102238D01*
X0452508Y0101240D02*
X0528781Y0101240D01*
X0529345Y0100241D02*
X0452963Y0100241D01*
X0453340Y0099243D02*
X0530343Y0099243D01*
X0536324Y0099243D02*
X0539869Y0099243D01*
X0538870Y0100241D02*
X0537322Y0100241D01*
X0540867Y0098244D02*
X0453340Y0098244D01*
X0453302Y0097245D02*
X0541866Y0097245D01*
X0542864Y0096247D02*
X0452889Y0096247D01*
X0452330Y0095248D02*
X0543863Y0095248D01*
X0544861Y0094250D02*
X0451331Y0094250D01*
X0450024Y0093251D02*
X0545860Y0093251D01*
X0546858Y0092253D02*
X0451768Y0092253D01*
X0452639Y0091254D02*
X0587623Y0091254D01*
X0587245Y0090256D02*
X0453176Y0090256D01*
X0453452Y0089257D02*
X0585995Y0089257D01*
X0585237Y0088259D02*
X0448833Y0088259D01*
X0447833Y0088259D02*
X0438133Y0088259D01*
X0438133Y0089257D02*
X0443215Y0089257D01*
X0443490Y0090256D02*
X0438133Y0090256D01*
X0438133Y0091254D02*
X0444028Y0091254D01*
X0444899Y0092253D02*
X0438133Y0092253D01*
X0438133Y0093251D02*
X0446642Y0093251D01*
X0445336Y0094250D02*
X0438133Y0094250D01*
X0438133Y0095248D02*
X0444337Y0095248D01*
X0443778Y0096247D02*
X0438133Y0096247D01*
X0438133Y0097245D02*
X0443364Y0097245D01*
X0443326Y0098244D02*
X0438133Y0098244D01*
X0438133Y0099243D02*
X0443326Y0099243D01*
X0443704Y0100241D02*
X0438133Y0100241D01*
X0438133Y0101240D02*
X0444158Y0101240D01*
X0445157Y0102238D02*
X0438133Y0102238D01*
X0438133Y0103237D02*
X0447087Y0103237D01*
X0445350Y0104235D02*
X0438133Y0104235D01*
X0438133Y0105234D02*
X0444352Y0105234D01*
X0443784Y0106232D02*
X0438133Y0106232D01*
X0438133Y0107231D02*
X0443370Y0107231D01*
X0443326Y0108229D02*
X0438133Y0108229D01*
X0438133Y0109228D02*
X0443326Y0109228D01*
X0443698Y0110226D02*
X0438133Y0110226D01*
X0438133Y0111225D02*
X0444144Y0111225D01*
X0445142Y0112223D02*
X0438133Y0112223D01*
X0449616Y0113222D02*
X0450666Y0113222D01*
X0448333Y0108333D02*
X0460833Y0120833D01*
X0463532Y0123207D02*
X0452833Y0123207D01*
X0452833Y0124205D02*
X0462172Y0124205D01*
X0461351Y0125204D02*
X0452833Y0125204D01*
X0452428Y0126202D02*
X0460841Y0126202D01*
X0460554Y0127201D02*
X0452014Y0127201D01*
X0451600Y0128199D02*
X0465762Y0128199D01*
X0466731Y0128199D02*
X0474419Y0128199D01*
X0474426Y0127201D02*
X0471940Y0127201D01*
X0471653Y0126202D02*
X0474840Y0126202D01*
X0475253Y0125204D02*
X0471142Y0125204D01*
X0470321Y0124205D02*
X0476225Y0124205D01*
X0477751Y0123207D02*
X0468961Y0123207D01*
X0482302Y0123207D02*
X0530651Y0123207D01*
X0531286Y0124205D02*
X0531650Y0124205D01*
X0532285Y0125204D02*
X0532648Y0125204D01*
X0532870Y0126202D02*
X0533647Y0126202D01*
X0533383Y0127201D02*
X0533284Y0127201D01*
X0524382Y0125204D02*
X0522285Y0125204D01*
X0522870Y0126202D02*
X0523796Y0126202D01*
X0523383Y0127201D02*
X0523284Y0127201D01*
X0514382Y0125204D02*
X0512285Y0125204D01*
X0512870Y0126202D02*
X0513796Y0126202D01*
X0513383Y0127201D02*
X0513284Y0127201D01*
X0504382Y0125204D02*
X0502285Y0125204D01*
X0502870Y0126202D02*
X0503796Y0126202D01*
X0503383Y0127201D02*
X0503284Y0127201D01*
X0494382Y0125204D02*
X0484799Y0125204D01*
X0485213Y0126202D02*
X0493796Y0126202D01*
X0493383Y0127201D02*
X0485626Y0127201D01*
X0485633Y0128199D02*
X0493326Y0128199D01*
X0493326Y0129198D02*
X0485633Y0129198D01*
X0485324Y0130196D02*
X0493685Y0130196D01*
X0494114Y0131195D02*
X0484910Y0131195D01*
X0484096Y0132193D02*
X0495112Y0132193D01*
X0496979Y0133192D02*
X0482949Y0133192D01*
X0477104Y0133192D02*
X0469427Y0133192D01*
X0470589Y0132193D02*
X0475957Y0132193D01*
X0475142Y0131195D02*
X0471298Y0131195D01*
X0471740Y0130196D02*
X0474729Y0130196D01*
X0474419Y0129198D02*
X0471982Y0129198D01*
X0460754Y0130196D02*
X0449905Y0130196D01*
X0450904Y0129198D02*
X0460511Y0129198D01*
X0461195Y0131195D02*
X0448907Y0131195D01*
X0446768Y0132193D02*
X0461904Y0132193D01*
X0463066Y0133192D02*
X0441546Y0133192D01*
X0483828Y0124205D02*
X0495380Y0124205D01*
X0501286Y0124205D02*
X0505380Y0124205D01*
X0511286Y0124205D02*
X0515380Y0124205D01*
X0521286Y0124205D02*
X0525380Y0124205D01*
X0541286Y0124205D02*
X0545380Y0124205D01*
X0544382Y0125204D02*
X0542285Y0125204D01*
X0542870Y0126202D02*
X0543796Y0126202D01*
X0543383Y0127201D02*
X0543284Y0127201D01*
X0552285Y0125204D02*
X0554382Y0125204D01*
X0553796Y0126202D02*
X0552870Y0126202D01*
X0553284Y0127201D02*
X0553383Y0127201D01*
X0555380Y0124205D02*
X0551286Y0124205D01*
X0561286Y0124205D02*
X0565380Y0124205D01*
X0564382Y0125204D02*
X0562285Y0125204D01*
X0562870Y0126202D02*
X0563796Y0126202D01*
X0563383Y0127201D02*
X0563284Y0127201D01*
X0572285Y0125204D02*
X0574382Y0125204D01*
X0573796Y0126202D02*
X0572870Y0126202D01*
X0573284Y0127201D02*
X0573383Y0127201D01*
X0582285Y0125204D02*
X0584382Y0125204D01*
X0583796Y0126202D02*
X0582870Y0126202D01*
X0583284Y0127201D02*
X0583383Y0127201D01*
X0592285Y0125204D02*
X0594382Y0125204D01*
X0593796Y0126202D02*
X0592870Y0126202D01*
X0593284Y0127201D02*
X0593383Y0127201D01*
X0602285Y0125204D02*
X0604382Y0125204D01*
X0603796Y0126202D02*
X0602870Y0126202D01*
X0603284Y0127201D02*
X0603383Y0127201D01*
X0605380Y0124205D02*
X0601286Y0124205D01*
X0595380Y0124205D02*
X0591286Y0124205D01*
X0585380Y0124205D02*
X0581286Y0124205D01*
X0575380Y0124205D02*
X0571286Y0124205D01*
X0556170Y0117578D02*
X0554329Y0118340D01*
X0552337Y0118340D01*
X0550497Y0117578D01*
X0549089Y0116170D01*
X0548326Y0114329D01*
X0548326Y0112337D01*
X0549089Y0110497D01*
X0550497Y0109089D01*
X0552320Y0108333D01*
X0550497Y0107578D01*
X0549089Y0106170D01*
X0548326Y0104329D01*
X0548326Y0102337D01*
X0549089Y0100497D01*
X0550497Y0099089D01*
X0552337Y0098326D01*
X0554329Y0098326D01*
X0556170Y0099089D01*
X0557578Y0100497D01*
X0558340Y0102337D01*
X0558340Y0104329D01*
X0557578Y0106170D01*
X0556170Y0107578D01*
X0554346Y0108333D01*
X0556170Y0109089D01*
X0557578Y0110497D01*
X0558004Y0111526D01*
X0597585Y0111526D01*
X0606526Y0102585D01*
X0606526Y0089082D01*
X0602506Y0085061D01*
X0602489Y0085078D01*
X0600848Y0085758D01*
X0600870Y0085761D01*
X0601648Y0086014D01*
X0602378Y0086386D01*
X0603040Y0086867D01*
X0603619Y0087446D01*
X0604100Y0088108D01*
X0604471Y0088837D01*
X0604724Y0089616D01*
X0604840Y0090349D01*
X0600137Y0090349D01*
X0600137Y0091318D01*
X0604840Y0091318D01*
X0604724Y0092051D01*
X0604471Y0092829D01*
X0604100Y0093559D01*
X0603619Y0094221D01*
X0603040Y0094800D01*
X0602378Y0095281D01*
X0601648Y0095652D01*
X0600870Y0095905D01*
X0600848Y0095909D01*
X0602489Y0096589D01*
X0603897Y0097997D01*
X0604659Y0099837D01*
X0604659Y0101829D01*
X0603897Y0103670D01*
X0602489Y0105078D01*
X0600648Y0105840D01*
X0598656Y0105840D01*
X0596816Y0105078D01*
X0595407Y0103670D01*
X0594645Y0101829D01*
X0594645Y0099837D01*
X0595407Y0097997D01*
X0596816Y0096589D01*
X0598457Y0095909D01*
X0598435Y0095905D01*
X0597656Y0095652D01*
X0596927Y0095281D01*
X0596265Y0094800D01*
X0595686Y0094221D01*
X0595205Y0093559D01*
X0594833Y0092829D01*
X0594580Y0092051D01*
X0594464Y0091318D01*
X0599168Y0091318D01*
X0599168Y0090349D01*
X0594464Y0090349D01*
X0594580Y0089616D01*
X0594833Y0088837D01*
X0595205Y0088108D01*
X0595686Y0087446D01*
X0596265Y0086867D01*
X0596927Y0086386D01*
X0597656Y0086014D01*
X0598435Y0085761D01*
X0598457Y0085758D01*
X0596816Y0085078D01*
X0595407Y0083670D01*
X0594645Y0081829D01*
X0594645Y0079837D01*
X0595407Y0077997D01*
X0596816Y0076589D01*
X0598639Y0075833D01*
X0596816Y0075078D01*
X0595407Y0073670D01*
X0594645Y0071829D01*
X0594645Y0069837D01*
X0595071Y0068808D01*
X0586404Y0060140D01*
X0579082Y0060140D01*
X0561582Y0077640D01*
X0532980Y0077640D01*
X0532417Y0078204D01*
X0531389Y0078629D01*
X0530277Y0078629D01*
X0529249Y0078204D01*
X0528463Y0077417D01*
X0528037Y0076389D01*
X0528037Y0075277D01*
X0528463Y0074249D01*
X0529249Y0073463D01*
X0530277Y0073037D01*
X0531389Y0073037D01*
X0532417Y0073463D01*
X0532980Y0074026D01*
X0560085Y0074026D01*
X0577585Y0056526D01*
X0587901Y0056526D01*
X0588959Y0057585D01*
X0597627Y0066253D01*
X0598656Y0065826D01*
X0600648Y0065826D01*
X0602489Y0066589D01*
X0603897Y0067997D01*
X0604659Y0069837D01*
X0604659Y0071829D01*
X0603897Y0073670D01*
X0602489Y0075078D01*
X0600665Y0075833D01*
X0602489Y0076589D01*
X0603897Y0077997D01*
X0604659Y0079837D01*
X0604659Y0081829D01*
X0604579Y0082023D01*
X0609082Y0086526D01*
X0610140Y0087585D01*
X0610140Y0104082D01*
X0600140Y0114082D01*
X0599082Y0115140D01*
X0558004Y0115140D01*
X0557578Y0116170D01*
X0556170Y0117578D01*
X0556532Y0117216D02*
X0606790Y0117216D01*
X0606790Y0118214D02*
X0554634Y0118214D01*
X0552033Y0118214D02*
X0534634Y0118214D01*
X0536532Y0117216D02*
X0550135Y0117216D01*
X0549136Y0116217D02*
X0537531Y0116217D01*
X0537972Y0115219D02*
X0548695Y0115219D01*
X0548326Y0114220D02*
X0538340Y0114220D01*
X0538340Y0113222D02*
X0548326Y0113222D01*
X0548374Y0112223D02*
X0538293Y0112223D01*
X0537998Y0111225D02*
X0548787Y0111225D01*
X0549359Y0110226D02*
X0538996Y0110226D01*
X0539995Y0109228D02*
X0550358Y0109228D01*
X0552069Y0108229D02*
X0540993Y0108229D01*
X0541992Y0107231D02*
X0550150Y0107231D01*
X0549151Y0106232D02*
X0542990Y0106232D01*
X0543989Y0105234D02*
X0548701Y0105234D01*
X0548326Y0104235D02*
X0544987Y0104235D01*
X0545986Y0103237D02*
X0548326Y0103237D01*
X0548367Y0102238D02*
X0546984Y0102238D01*
X0547983Y0101240D02*
X0548781Y0101240D01*
X0548981Y0100241D02*
X0549345Y0100241D01*
X0549980Y0099243D02*
X0550343Y0099243D01*
X0550978Y0098244D02*
X0579507Y0098244D01*
X0580506Y0099243D02*
X0556324Y0099243D01*
X0557322Y0100241D02*
X0581504Y0100241D01*
X0582503Y0101240D02*
X0557886Y0101240D01*
X0558299Y0102238D02*
X0583501Y0102238D01*
X0584500Y0103237D02*
X0558340Y0103237D01*
X0558340Y0104235D02*
X0584895Y0104235D01*
X0584645Y0105234D02*
X0557966Y0105234D01*
X0557516Y0106232D02*
X0584645Y0106232D01*
X0584811Y0107231D02*
X0556517Y0107231D01*
X0556309Y0109228D02*
X0585965Y0109228D01*
X0585225Y0108229D02*
X0554598Y0108229D01*
X0557307Y0110226D02*
X0587173Y0110226D01*
X0592131Y0110226D02*
X0598885Y0110226D01*
X0599883Y0109228D02*
X0593339Y0109228D01*
X0594079Y0108229D02*
X0600882Y0108229D01*
X0601880Y0107231D02*
X0594493Y0107231D01*
X0594659Y0106232D02*
X0602879Y0106232D01*
X0602113Y0105234D02*
X0603877Y0105234D01*
X0603332Y0104235D02*
X0604876Y0104235D01*
X0604076Y0103237D02*
X0605874Y0103237D01*
X0606526Y0102238D02*
X0604490Y0102238D01*
X0604659Y0101240D02*
X0606526Y0101240D01*
X0606526Y0100241D02*
X0604659Y0100241D01*
X0604413Y0099243D02*
X0606526Y0099243D01*
X0606526Y0098244D02*
X0603999Y0098244D01*
X0603145Y0097245D02*
X0606526Y0097245D01*
X0606526Y0096247D02*
X0601664Y0096247D01*
X0602422Y0095248D02*
X0606526Y0095248D01*
X0606526Y0094250D02*
X0603589Y0094250D01*
X0604256Y0093251D02*
X0606526Y0093251D01*
X0606526Y0092253D02*
X0604659Y0092253D01*
X0606526Y0091254D02*
X0600137Y0091254D01*
X0599168Y0091254D02*
X0591682Y0091254D01*
X0592059Y0090256D02*
X0594479Y0090256D01*
X0594697Y0089257D02*
X0593309Y0089257D01*
X0594067Y0088259D02*
X0595128Y0088259D01*
X0594481Y0087260D02*
X0595871Y0087260D01*
X0594659Y0086262D02*
X0597170Y0086262D01*
X0597263Y0085263D02*
X0594659Y0085263D01*
X0594422Y0084265D02*
X0596003Y0084265D01*
X0595240Y0083266D02*
X0594009Y0083266D01*
X0594827Y0082268D02*
X0593168Y0082268D01*
X0591718Y0081269D02*
X0594645Y0081269D01*
X0594645Y0080271D02*
X0592023Y0080271D01*
X0593294Y0079272D02*
X0594879Y0079272D01*
X0595293Y0078274D02*
X0594061Y0078274D01*
X0594475Y0077275D02*
X0596129Y0077275D01*
X0597569Y0076277D02*
X0594659Y0076277D01*
X0594659Y0075278D02*
X0597299Y0075278D01*
X0596018Y0074280D02*
X0594428Y0074280D01*
X0594015Y0073281D02*
X0595247Y0073281D01*
X0594833Y0072283D02*
X0593183Y0072283D01*
X0591754Y0071284D02*
X0594645Y0071284D01*
X0594645Y0070286D02*
X0568937Y0070286D01*
X0569935Y0069287D02*
X0594873Y0069287D01*
X0594552Y0068289D02*
X0570934Y0068289D01*
X0571932Y0067290D02*
X0593553Y0067290D01*
X0592555Y0066292D02*
X0572931Y0066292D01*
X0573929Y0065293D02*
X0591556Y0065293D01*
X0590558Y0064295D02*
X0574928Y0064295D01*
X0575926Y0063296D02*
X0589559Y0063296D01*
X0588561Y0062298D02*
X0576925Y0062298D01*
X0577923Y0061299D02*
X0587562Y0061299D01*
X0586564Y0060301D02*
X0578922Y0060301D01*
X0578333Y0058333D02*
X0560833Y0075833D01*
X0530833Y0075833D01*
X0528404Y0077275D02*
X0490821Y0077275D01*
X0489822Y0076277D02*
X0528037Y0076277D01*
X0528037Y0075278D02*
X0488824Y0075278D01*
X0487825Y0074280D02*
X0528450Y0074280D01*
X0529688Y0073281D02*
X0486827Y0073281D01*
X0485828Y0072283D02*
X0499727Y0072283D01*
X0500085Y0072640D02*
X0495085Y0067640D01*
X0494026Y0066582D01*
X0494026Y0051019D01*
X0493409Y0049529D01*
X0493405Y0049551D01*
X0493152Y0050329D01*
X0492781Y0051059D01*
X0492300Y0051721D01*
X0491721Y0052300D01*
X0491059Y0052781D01*
X0490329Y0053152D01*
X0489551Y0053405D01*
X0488833Y0053519D01*
X0488833Y0048833D01*
X0487833Y0048833D01*
X0487833Y0053519D01*
X0487116Y0053405D01*
X0486337Y0053152D01*
X0485608Y0052781D01*
X0484946Y0052300D01*
X0484367Y0051721D01*
X0483886Y0051059D01*
X0483514Y0050329D01*
X0483261Y0049551D01*
X0483258Y0049529D01*
X0482578Y0051170D01*
X0481170Y0052578D01*
X0479329Y0053340D01*
X0477337Y0053340D01*
X0475497Y0052578D01*
X0474089Y0051170D01*
X0473333Y0049346D01*
X0472578Y0051170D01*
X0471170Y0052578D01*
X0469329Y0053340D01*
X0467337Y0053340D01*
X0465497Y0052578D01*
X0464089Y0051170D01*
X0463333Y0049346D01*
X0462578Y0051170D01*
X0461170Y0052578D01*
X0459329Y0053340D01*
X0457337Y0053340D01*
X0455497Y0052578D01*
X0454089Y0051170D01*
X0453326Y0049329D01*
X0453326Y0047337D01*
X0454089Y0045497D01*
X0455497Y0044089D01*
X0457337Y0043326D01*
X0459329Y0043326D01*
X0461170Y0044089D01*
X0462578Y0045497D01*
X0463333Y0047320D01*
X0463333Y0047320D01*
X0464089Y0045497D01*
X0465497Y0044089D01*
X0467337Y0043326D01*
X0469329Y0043326D01*
X0471170Y0044089D01*
X0472578Y0045497D01*
X0473333Y0047320D01*
X0473333Y0047320D01*
X0474089Y0045497D01*
X0475497Y0044089D01*
X0477337Y0043326D01*
X0479329Y0043326D01*
X0481170Y0044089D01*
X0482578Y0045497D01*
X0483258Y0047138D01*
X0483261Y0047116D01*
X0483514Y0046337D01*
X0483886Y0045608D01*
X0484367Y0044946D01*
X0484946Y0044367D01*
X0485608Y0043886D01*
X0486337Y0043514D01*
X0487116Y0043261D01*
X0487833Y0043148D01*
X0487833Y0047833D01*
X0488833Y0047833D01*
X0488833Y0043148D01*
X0489551Y0043261D01*
X0490329Y0043514D01*
X0491059Y0043886D01*
X0491721Y0044367D01*
X0492300Y0044946D01*
X0492781Y0045608D01*
X0493152Y0046337D01*
X0493405Y0047116D01*
X0493409Y0047138D01*
X0494089Y0045497D01*
X0495497Y0044089D01*
X0497337Y0043326D01*
X0499329Y0043326D01*
X0501170Y0044089D01*
X0502578Y0045497D01*
X0503333Y0047320D01*
X0503333Y0047320D01*
X0504089Y0045497D01*
X0505497Y0044089D01*
X0507337Y0043326D01*
X0509329Y0043326D01*
X0511170Y0044089D01*
X0512578Y0045497D01*
X0513333Y0047320D01*
X0513333Y0047320D01*
X0514089Y0045497D01*
X0515497Y0044089D01*
X0517337Y0043326D01*
X0519329Y0043326D01*
X0521170Y0044089D01*
X0522578Y0045497D01*
X0523333Y0047320D01*
X0523333Y0047320D01*
X0524089Y0045497D01*
X0525497Y0044089D01*
X0527337Y0043326D01*
X0529329Y0043326D01*
X0531170Y0044089D01*
X0532578Y0045497D01*
X0533333Y0047320D01*
X0533333Y0047320D01*
X0534089Y0045497D01*
X0535497Y0044089D01*
X0537337Y0043326D01*
X0539329Y0043326D01*
X0541170Y0044089D01*
X0542578Y0045497D01*
X0543333Y0047320D01*
X0543333Y0047320D01*
X0544089Y0045497D01*
X0545497Y0044089D01*
X0547337Y0043326D01*
X0549329Y0043326D01*
X0551170Y0044089D01*
X0552578Y0045497D01*
X0553333Y0047320D01*
X0553333Y0047320D01*
X0554089Y0045497D01*
X0555497Y0044089D01*
X0557337Y0043326D01*
X0559329Y0043326D01*
X0561170Y0044089D01*
X0562578Y0045497D01*
X0563333Y0047320D01*
X0563333Y0047320D01*
X0564089Y0045497D01*
X0565497Y0044089D01*
X0567337Y0043326D01*
X0569329Y0043326D01*
X0571170Y0044089D01*
X0572578Y0045497D01*
X0573333Y0047320D01*
X0573333Y0047320D01*
X0574089Y0045497D01*
X0575497Y0044089D01*
X0577337Y0043326D01*
X0579329Y0043326D01*
X0581170Y0044089D01*
X0582578Y0045497D01*
X0583333Y0047320D01*
X0583333Y0047320D01*
X0584089Y0045497D01*
X0585497Y0044089D01*
X0587337Y0043326D01*
X0589329Y0043326D01*
X0591170Y0044089D01*
X0592578Y0045497D01*
X0593333Y0047320D01*
X0593333Y0047320D01*
X0594089Y0045497D01*
X0595497Y0044089D01*
X0597337Y0043326D01*
X0599329Y0043326D01*
X0601170Y0044089D01*
X0602578Y0045497D01*
X0603333Y0047320D01*
X0603333Y0047320D01*
X0604089Y0045497D01*
X0605497Y0044089D01*
X0607337Y0043326D01*
X0609329Y0043326D01*
X0611170Y0044089D01*
X0612578Y0045497D01*
X0613340Y0047337D01*
X0613340Y0049329D01*
X0612578Y0051170D01*
X0611322Y0052426D01*
X0611622Y0052302D01*
X0613833Y0052302D01*
X0613833Y0051444D01*
X0615280Y0047952D01*
X0617952Y0045280D01*
X0621444Y0043833D01*
X0625223Y0043833D01*
X0628715Y0045280D01*
X0631387Y0047952D01*
X0632833Y0051444D01*
X0632833Y0055223D01*
X0631803Y0057711D01*
X0633294Y0059202D01*
X0634715Y0061665D01*
X0635451Y0064412D01*
X0635451Y0067255D01*
X0634715Y0070002D01*
X0633294Y0072464D01*
X0631283Y0074475D01*
X0628821Y0075897D01*
X0626074Y0076633D01*
X0623230Y0076633D01*
X0620484Y0075897D01*
X0618021Y0074475D01*
X0616011Y0072464D01*
X0614589Y0070002D01*
X0613853Y0067255D01*
X0613853Y0064412D01*
X0613866Y0064365D01*
X0611622Y0064365D01*
X0609405Y0063447D01*
X0607708Y0061750D01*
X0606790Y0059533D01*
X0606790Y0057134D01*
X0607708Y0054917D01*
X0609285Y0053340D01*
X0607337Y0053340D01*
X0605497Y0052578D01*
X0604089Y0051170D01*
X0603333Y0049346D01*
X0602578Y0051170D01*
X0601170Y0052578D01*
X0599329Y0053340D01*
X0597337Y0053340D01*
X0595497Y0052578D01*
X0594089Y0051170D01*
X0593333Y0049346D01*
X0592578Y0051170D01*
X0591170Y0052578D01*
X0589329Y0053340D01*
X0587337Y0053340D01*
X0585497Y0052578D01*
X0584089Y0051170D01*
X0583333Y0049346D01*
X0582578Y0051170D01*
X0581170Y0052578D01*
X0579329Y0053340D01*
X0577337Y0053340D01*
X0575497Y0052578D01*
X0574089Y0051170D01*
X0573333Y0049346D01*
X0572578Y0051170D01*
X0571170Y0052578D01*
X0569329Y0053340D01*
X0567337Y0053340D01*
X0565497Y0052578D01*
X0564089Y0051170D01*
X0563333Y0049346D01*
X0562578Y0051170D01*
X0561170Y0052578D01*
X0559329Y0053340D01*
X0557337Y0053340D01*
X0555497Y0052578D01*
X0554089Y0051170D01*
X0553333Y0049346D01*
X0552578Y0051170D01*
X0551170Y0052578D01*
X0549329Y0053340D01*
X0547337Y0053340D01*
X0545497Y0052578D01*
X0544089Y0051170D01*
X0543333Y0049346D01*
X0542578Y0051170D01*
X0541170Y0052578D01*
X0539329Y0053340D01*
X0537337Y0053340D01*
X0535497Y0052578D01*
X0534089Y0051170D01*
X0533333Y0049346D01*
X0532578Y0051170D01*
X0531170Y0052578D01*
X0529329Y0053340D01*
X0527337Y0053340D01*
X0525497Y0052578D01*
X0524089Y0051170D01*
X0523333Y0049346D01*
X0522578Y0051170D01*
X0521170Y0052578D01*
X0519329Y0053340D01*
X0517337Y0053340D01*
X0515497Y0052578D01*
X0514089Y0051170D01*
X0513333Y0049346D01*
X0512578Y0051170D01*
X0511170Y0052578D01*
X0509329Y0053340D01*
X0507337Y0053340D01*
X0505497Y0052578D01*
X0504089Y0051170D01*
X0503333Y0049346D01*
X0502578Y0051170D01*
X0501170Y0052578D01*
X0499329Y0053340D01*
X0497640Y0053340D01*
X0497640Y0065085D01*
X0501582Y0069026D01*
X0543686Y0069026D01*
X0544249Y0068463D01*
X0545277Y0068037D01*
X0546389Y0068037D01*
X0547417Y0068463D01*
X0548204Y0069249D01*
X0548629Y0070277D01*
X0548629Y0071389D01*
X0548204Y0072417D01*
X0547417Y0073204D01*
X0546389Y0073629D01*
X0545277Y0073629D01*
X0544249Y0073204D01*
X0543686Y0072640D01*
X0500085Y0072640D01*
X0498729Y0071284D02*
X0484830Y0071284D01*
X0483831Y0070286D02*
X0497730Y0070286D01*
X0496732Y0069287D02*
X0482833Y0069287D01*
X0482212Y0068289D02*
X0481834Y0068289D01*
X0484454Y0068289D02*
X0495733Y0068289D01*
X0494735Y0067290D02*
X0486458Y0067290D01*
X0487456Y0066292D02*
X0494026Y0066292D01*
X0494026Y0065293D02*
X0487941Y0065293D01*
X0488340Y0064295D02*
X0494026Y0064295D01*
X0494026Y0063296D02*
X0488340Y0063296D01*
X0488324Y0062298D02*
X0494026Y0062298D01*
X0494026Y0061299D02*
X0487910Y0061299D01*
X0487382Y0060301D02*
X0494026Y0060301D01*
X0494026Y0059302D02*
X0486383Y0059302D01*
X0480283Y0059302D02*
X0476383Y0059302D01*
X0477382Y0060301D02*
X0479285Y0060301D01*
X0478756Y0061299D02*
X0477910Y0061299D01*
X0478324Y0062298D02*
X0478343Y0062298D01*
X0468756Y0061299D02*
X0467910Y0061299D01*
X0468324Y0062298D02*
X0468343Y0062298D01*
X0469285Y0060301D02*
X0467382Y0060301D01*
X0466383Y0059302D02*
X0470283Y0059302D01*
X0460283Y0059302D02*
X0450800Y0059302D01*
X0451557Y0058304D02*
X0494026Y0058304D01*
X0494026Y0057305D02*
X0451971Y0057305D01*
X0452385Y0056307D02*
X0494026Y0056307D01*
X0494026Y0055308D02*
X0452798Y0055308D01*
X0452833Y0054310D02*
X0494026Y0054310D01*
X0494026Y0053311D02*
X0489841Y0053311D01*
X0488833Y0053311D02*
X0487833Y0053311D01*
X0487833Y0052312D02*
X0488833Y0052312D01*
X0488833Y0051314D02*
X0487833Y0051314D01*
X0487833Y0050315D02*
X0488833Y0050315D01*
X0488833Y0049317D02*
X0487833Y0049317D01*
X0484071Y0051314D02*
X0482434Y0051314D01*
X0482932Y0050315D02*
X0483510Y0050315D01*
X0484963Y0052312D02*
X0481435Y0052312D01*
X0479400Y0053311D02*
X0486825Y0053311D01*
X0491703Y0052312D02*
X0494026Y0052312D01*
X0494026Y0051314D02*
X0492595Y0051314D01*
X0493157Y0050315D02*
X0493735Y0050315D01*
X0495833Y0050833D02*
X0495833Y0065833D01*
X0500833Y0070833D01*
X0545833Y0070833D01*
X0544437Y0073281D02*
X0531978Y0073281D01*
X0547230Y0073281D02*
X0560830Y0073281D01*
X0561828Y0072283D02*
X0548259Y0072283D01*
X0548629Y0071284D02*
X0562827Y0071284D01*
X0563825Y0070286D02*
X0548629Y0070286D01*
X0548219Y0069287D02*
X0564824Y0069287D01*
X0564454Y0068289D02*
X0565822Y0068289D01*
X0566170Y0067578D02*
X0564329Y0068340D01*
X0562337Y0068340D01*
X0560497Y0067578D01*
X0559089Y0066170D01*
X0558333Y0064346D01*
X0557578Y0066170D01*
X0556170Y0067578D01*
X0554329Y0068340D01*
X0552337Y0068340D01*
X0550497Y0067578D01*
X0549089Y0066170D01*
X0548333Y0064346D01*
X0547578Y0066170D01*
X0546170Y0067578D01*
X0544329Y0068340D01*
X0542337Y0068340D01*
X0540497Y0067578D01*
X0539089Y0066170D01*
X0538333Y0064346D01*
X0537578Y0066170D01*
X0536170Y0067578D01*
X0534329Y0068340D01*
X0532337Y0068340D01*
X0530497Y0067578D01*
X0529089Y0066170D01*
X0528333Y0064346D01*
X0527578Y0066170D01*
X0526170Y0067578D01*
X0524329Y0068340D01*
X0522337Y0068340D01*
X0520497Y0067578D01*
X0519089Y0066170D01*
X0518409Y0064529D01*
X0518405Y0064551D01*
X0518152Y0065329D01*
X0517781Y0066059D01*
X0517300Y0066721D01*
X0516721Y0067300D01*
X0516059Y0067781D01*
X0515329Y0068152D01*
X0514551Y0068405D01*
X0513833Y0068519D01*
X0513833Y0063833D01*
X0512833Y0063833D01*
X0512833Y0068519D01*
X0512116Y0068405D01*
X0511337Y0068152D01*
X0510608Y0067781D01*
X0509946Y0067300D01*
X0509367Y0066721D01*
X0508886Y0066059D01*
X0508514Y0065329D01*
X0508261Y0064551D01*
X0508258Y0064529D01*
X0507578Y0066170D01*
X0506170Y0067578D01*
X0504329Y0068340D01*
X0502337Y0068340D01*
X0500497Y0067578D01*
X0499089Y0066170D01*
X0498326Y0064329D01*
X0498326Y0062337D01*
X0499089Y0060497D01*
X0500497Y0059089D01*
X0502337Y0058326D01*
X0504329Y0058326D01*
X0506170Y0059089D01*
X0507578Y0060497D01*
X0508258Y0062138D01*
X0508261Y0062116D01*
X0508514Y0061337D01*
X0508886Y0060608D01*
X0509367Y0059946D01*
X0509946Y0059367D01*
X0510608Y0058886D01*
X0511337Y0058514D01*
X0512116Y0058261D01*
X0512833Y0058148D01*
X0512833Y0062833D01*
X0513833Y0062833D01*
X0513833Y0058148D01*
X0514551Y0058261D01*
X0515329Y0058514D01*
X0516059Y0058886D01*
X0516721Y0059367D01*
X0517300Y0059946D01*
X0517781Y0060608D01*
X0518152Y0061337D01*
X0518405Y0062116D01*
X0518409Y0062138D01*
X0519089Y0060497D01*
X0520497Y0059089D01*
X0522337Y0058326D01*
X0524329Y0058326D01*
X0526170Y0059089D01*
X0527578Y0060497D01*
X0528333Y0062320D01*
X0529089Y0060497D01*
X0530497Y0059089D01*
X0532337Y0058326D01*
X0534329Y0058326D01*
X0536170Y0059089D01*
X0537578Y0060497D01*
X0538333Y0062320D01*
X0539089Y0060497D01*
X0540497Y0059089D01*
X0542337Y0058326D01*
X0544329Y0058326D01*
X0546170Y0059089D01*
X0547578Y0060497D01*
X0548333Y0062320D01*
X0549089Y0060497D01*
X0550497Y0059089D01*
X0552337Y0058326D01*
X0554329Y0058326D01*
X0556170Y0059089D01*
X0557578Y0060497D01*
X0558333Y0062320D01*
X0559089Y0060497D01*
X0560497Y0059089D01*
X0562337Y0058326D01*
X0564329Y0058326D01*
X0566170Y0059089D01*
X0567578Y0060497D01*
X0568340Y0062337D01*
X0568340Y0064329D01*
X0567578Y0066170D01*
X0566170Y0067578D01*
X0566458Y0067290D02*
X0566821Y0067290D01*
X0567456Y0066292D02*
X0567819Y0066292D01*
X0567941Y0065293D02*
X0568818Y0065293D01*
X0568340Y0064295D02*
X0569816Y0064295D01*
X0570815Y0063296D02*
X0568340Y0063296D01*
X0568324Y0062298D02*
X0571813Y0062298D01*
X0572812Y0061299D02*
X0567910Y0061299D01*
X0567382Y0060301D02*
X0573810Y0060301D01*
X0574809Y0059302D02*
X0566383Y0059302D01*
X0560283Y0059302D02*
X0556383Y0059302D01*
X0557382Y0060301D02*
X0559285Y0060301D01*
X0558756Y0061299D02*
X0557910Y0061299D01*
X0558324Y0062298D02*
X0558343Y0062298D01*
X0548756Y0061299D02*
X0547910Y0061299D01*
X0548324Y0062298D02*
X0548343Y0062298D01*
X0549285Y0060301D02*
X0547382Y0060301D01*
X0546383Y0059302D02*
X0550283Y0059302D01*
X0540283Y0059302D02*
X0536383Y0059302D01*
X0537382Y0060301D02*
X0539285Y0060301D01*
X0538756Y0061299D02*
X0537910Y0061299D01*
X0538324Y0062298D02*
X0538343Y0062298D01*
X0528756Y0061299D02*
X0527910Y0061299D01*
X0528324Y0062298D02*
X0528343Y0062298D01*
X0529285Y0060301D02*
X0527382Y0060301D01*
X0526383Y0059302D02*
X0530283Y0059302D01*
X0520283Y0059302D02*
X0516632Y0059302D01*
X0517557Y0060301D02*
X0519285Y0060301D01*
X0518756Y0061299D02*
X0518133Y0061299D01*
X0513833Y0061299D02*
X0512833Y0061299D01*
X0512833Y0060301D02*
X0513833Y0060301D01*
X0513833Y0059302D02*
X0512833Y0059302D01*
X0512833Y0058304D02*
X0513833Y0058304D01*
X0514681Y0058304D02*
X0575807Y0058304D01*
X0576806Y0057305D02*
X0497640Y0057305D01*
X0497640Y0056307D02*
X0607133Y0056307D01*
X0606790Y0057305D02*
X0588680Y0057305D01*
X0589678Y0058304D02*
X0606790Y0058304D01*
X0606790Y0059302D02*
X0590677Y0059302D01*
X0591675Y0060301D02*
X0607108Y0060301D01*
X0607522Y0061299D02*
X0592674Y0061299D01*
X0593672Y0062298D02*
X0608256Y0062298D01*
X0609254Y0063296D02*
X0594671Y0063296D01*
X0595669Y0064295D02*
X0611452Y0064295D01*
X0613853Y0065293D02*
X0596668Y0065293D01*
X0601772Y0066292D02*
X0613853Y0066292D01*
X0613862Y0067290D02*
X0603190Y0067290D01*
X0604018Y0068289D02*
X0614130Y0068289D01*
X0614398Y0069287D02*
X0604431Y0069287D01*
X0604659Y0070286D02*
X0614753Y0070286D01*
X0615329Y0071284D02*
X0604659Y0071284D01*
X0604471Y0072283D02*
X0615906Y0072283D01*
X0616828Y0073281D02*
X0604058Y0073281D01*
X0603287Y0074280D02*
X0617826Y0074280D01*
X0619413Y0075278D02*
X0602005Y0075278D01*
X0601736Y0076277D02*
X0621903Y0076277D01*
X0627402Y0076277D02*
X0639260Y0076277D01*
X0637499Y0075278D02*
X0629892Y0075278D01*
X0631478Y0074280D02*
X0636650Y0074280D01*
X0636237Y0073281D02*
X0632477Y0073281D01*
X0633399Y0072283D02*
X0636105Y0072283D01*
X0636105Y0071284D02*
X0633975Y0071284D01*
X0634552Y0070286D02*
X0636510Y0070286D01*
X0637160Y0069287D02*
X0634907Y0069287D01*
X0635174Y0068289D02*
X0638440Y0068289D01*
X0638916Y0066292D02*
X0635451Y0066292D01*
X0635442Y0067290D02*
X0643533Y0067290D01*
X0643533Y0066292D02*
X0641845Y0066292D01*
X0643404Y0065293D02*
X0643533Y0065293D01*
X0637357Y0065293D02*
X0635451Y0065293D01*
X0635420Y0064295D02*
X0636591Y0064295D01*
X0636178Y0063296D02*
X0635153Y0063296D01*
X0634885Y0062298D02*
X0636105Y0062298D01*
X0636155Y0061299D02*
X0634504Y0061299D01*
X0633928Y0060301D02*
X0636569Y0060301D01*
X0637302Y0059302D02*
X0633351Y0059302D01*
X0632395Y0058304D02*
X0638785Y0058304D01*
X0641977Y0058304D02*
X0643533Y0058304D01*
X0643533Y0059302D02*
X0643459Y0059302D01*
X0643533Y0057305D02*
X0631971Y0057305D01*
X0632385Y0056307D02*
X0643533Y0056307D01*
X0643533Y0055308D02*
X0632798Y0055308D01*
X0632833Y0054310D02*
X0643533Y0054310D01*
X0643533Y0053311D02*
X0632833Y0053311D01*
X0632833Y0052312D02*
X0643533Y0052312D01*
X0643533Y0051314D02*
X0632780Y0051314D01*
X0632366Y0050315D02*
X0643533Y0050315D01*
X0643533Y0049317D02*
X0631952Y0049317D01*
X0631539Y0048318D02*
X0643369Y0048318D01*
X0642886Y0047320D02*
X0630755Y0047320D01*
X0629756Y0046321D02*
X0642358Y0046321D01*
X0641481Y0045323D02*
X0628758Y0045323D01*
X0626409Y0044324D02*
X0640275Y0044324D01*
X0638230Y0043326D02*
X0489750Y0043326D01*
X0488833Y0043326D02*
X0487833Y0043326D01*
X0486917Y0043326D02*
X0442102Y0043326D01*
X0440258Y0044324D02*
X0440051Y0044324D01*
X0446409Y0044324D02*
X0455261Y0044324D01*
X0454263Y0045323D02*
X0448758Y0045323D01*
X0449756Y0046321D02*
X0453747Y0046321D01*
X0453333Y0047320D02*
X0450755Y0047320D01*
X0451539Y0048318D02*
X0453326Y0048318D01*
X0453326Y0049317D02*
X0451952Y0049317D01*
X0452366Y0050315D02*
X0453735Y0050315D01*
X0454233Y0051314D02*
X0452780Y0051314D01*
X0452833Y0052312D02*
X0455231Y0052312D01*
X0457266Y0053311D02*
X0452833Y0053311D01*
X0459400Y0053311D02*
X0467266Y0053311D01*
X0469400Y0053311D02*
X0477266Y0053311D01*
X0475231Y0052312D02*
X0471435Y0052312D01*
X0472434Y0051314D02*
X0474233Y0051314D01*
X0473735Y0050315D02*
X0472932Y0050315D01*
X0465231Y0052312D02*
X0461435Y0052312D01*
X0462434Y0051314D02*
X0464233Y0051314D01*
X0463735Y0050315D02*
X0462932Y0050315D01*
X0462920Y0046321D02*
X0463747Y0046321D01*
X0464263Y0045323D02*
X0462404Y0045323D01*
X0461405Y0044324D02*
X0465261Y0044324D01*
X0471405Y0044324D02*
X0475261Y0044324D01*
X0474263Y0045323D02*
X0472404Y0045323D01*
X0472920Y0046321D02*
X0473747Y0046321D01*
X0482404Y0045323D02*
X0484093Y0045323D01*
X0483522Y0046321D02*
X0482920Y0046321D01*
X0487833Y0046321D02*
X0488833Y0046321D01*
X0488833Y0045323D02*
X0487833Y0045323D01*
X0487833Y0044324D02*
X0488833Y0044324D01*
X0491662Y0044324D02*
X0495261Y0044324D01*
X0494263Y0045323D02*
X0492574Y0045323D01*
X0493144Y0046321D02*
X0493747Y0046321D01*
X0495833Y0050833D02*
X0498333Y0048333D01*
X0502920Y0046321D02*
X0503747Y0046321D01*
X0504263Y0045323D02*
X0502404Y0045323D01*
X0501405Y0044324D02*
X0505261Y0044324D01*
X0511405Y0044324D02*
X0515261Y0044324D01*
X0514263Y0045323D02*
X0512404Y0045323D01*
X0512920Y0046321D02*
X0513747Y0046321D01*
X0521405Y0044324D02*
X0525261Y0044324D01*
X0524263Y0045323D02*
X0522404Y0045323D01*
X0522920Y0046321D02*
X0523747Y0046321D01*
X0532404Y0045323D02*
X0534263Y0045323D01*
X0533747Y0046321D02*
X0532920Y0046321D01*
X0531405Y0044324D02*
X0535261Y0044324D01*
X0541405Y0044324D02*
X0545261Y0044324D01*
X0544263Y0045323D02*
X0542404Y0045323D01*
X0542920Y0046321D02*
X0543747Y0046321D01*
X0552404Y0045323D02*
X0554263Y0045323D01*
X0553747Y0046321D02*
X0552920Y0046321D01*
X0551405Y0044324D02*
X0555261Y0044324D01*
X0561405Y0044324D02*
X0565261Y0044324D01*
X0564263Y0045323D02*
X0562404Y0045323D01*
X0562920Y0046321D02*
X0563747Y0046321D01*
X0572404Y0045323D02*
X0574263Y0045323D01*
X0573747Y0046321D02*
X0572920Y0046321D01*
X0571405Y0044324D02*
X0575261Y0044324D01*
X0581405Y0044324D02*
X0585261Y0044324D01*
X0584263Y0045323D02*
X0582404Y0045323D01*
X0582920Y0046321D02*
X0583747Y0046321D01*
X0592404Y0045323D02*
X0594263Y0045323D01*
X0593747Y0046321D02*
X0592920Y0046321D01*
X0602404Y0045323D02*
X0604263Y0045323D01*
X0603747Y0046321D02*
X0602920Y0046321D01*
X0612404Y0045323D02*
X0617909Y0045323D01*
X0616910Y0046321D02*
X0612920Y0046321D01*
X0613333Y0047320D02*
X0615912Y0047320D01*
X0615128Y0048318D02*
X0613340Y0048318D01*
X0613340Y0049317D02*
X0614714Y0049317D01*
X0614301Y0050315D02*
X0612932Y0050315D01*
X0612434Y0051314D02*
X0613887Y0051314D01*
X0611596Y0052312D02*
X0611435Y0052312D01*
X0608316Y0054310D02*
X0497640Y0054310D01*
X0497640Y0055308D02*
X0607546Y0055308D01*
X0607266Y0053311D02*
X0599400Y0053311D01*
X0597266Y0053311D02*
X0589400Y0053311D01*
X0587266Y0053311D02*
X0579400Y0053311D01*
X0577266Y0053311D02*
X0569400Y0053311D01*
X0567266Y0053311D02*
X0559400Y0053311D01*
X0557266Y0053311D02*
X0549400Y0053311D01*
X0547266Y0053311D02*
X0539400Y0053311D01*
X0537266Y0053311D02*
X0529400Y0053311D01*
X0527266Y0053311D02*
X0519400Y0053311D01*
X0517266Y0053311D02*
X0509400Y0053311D01*
X0507266Y0053311D02*
X0499400Y0053311D01*
X0501435Y0052312D02*
X0505231Y0052312D01*
X0504233Y0051314D02*
X0502434Y0051314D01*
X0502932Y0050315D02*
X0503735Y0050315D01*
X0511435Y0052312D02*
X0515231Y0052312D01*
X0514233Y0051314D02*
X0512434Y0051314D01*
X0512932Y0050315D02*
X0513735Y0050315D01*
X0521435Y0052312D02*
X0525231Y0052312D01*
X0524233Y0051314D02*
X0522434Y0051314D01*
X0522932Y0050315D02*
X0523735Y0050315D01*
X0531435Y0052312D02*
X0535231Y0052312D01*
X0534233Y0051314D02*
X0532434Y0051314D01*
X0532932Y0050315D02*
X0533735Y0050315D01*
X0541435Y0052312D02*
X0545231Y0052312D01*
X0544233Y0051314D02*
X0542434Y0051314D01*
X0542932Y0050315D02*
X0543735Y0050315D01*
X0551435Y0052312D02*
X0555231Y0052312D01*
X0554233Y0051314D02*
X0552434Y0051314D01*
X0552932Y0050315D02*
X0553735Y0050315D01*
X0561435Y0052312D02*
X0565231Y0052312D01*
X0564233Y0051314D02*
X0562434Y0051314D01*
X0562932Y0050315D02*
X0563735Y0050315D01*
X0571435Y0052312D02*
X0575231Y0052312D01*
X0574233Y0051314D02*
X0572434Y0051314D01*
X0572932Y0050315D02*
X0573735Y0050315D01*
X0581435Y0052312D02*
X0585231Y0052312D01*
X0584233Y0051314D02*
X0582434Y0051314D01*
X0582932Y0050315D02*
X0583735Y0050315D01*
X0591435Y0052312D02*
X0595231Y0052312D01*
X0594233Y0051314D02*
X0592434Y0051314D01*
X0592932Y0050315D02*
X0593735Y0050315D01*
X0601435Y0052312D02*
X0605231Y0052312D01*
X0604233Y0051314D02*
X0602434Y0051314D01*
X0602932Y0050315D02*
X0603735Y0050315D01*
X0605261Y0044324D02*
X0601405Y0044324D01*
X0595261Y0044324D02*
X0591405Y0044324D01*
X0611405Y0044324D02*
X0620258Y0044324D01*
X0599652Y0070833D02*
X0587152Y0058333D01*
X0578333Y0058333D01*
X0558725Y0065293D02*
X0557941Y0065293D01*
X0557456Y0066292D02*
X0559211Y0066292D01*
X0560209Y0067290D02*
X0556458Y0067290D01*
X0554454Y0068289D02*
X0562212Y0068289D01*
X0567938Y0071284D02*
X0587551Y0071284D01*
X0586122Y0072283D02*
X0566940Y0072283D01*
X0565941Y0073281D02*
X0585290Y0073281D01*
X0584876Y0074280D02*
X0564943Y0074280D01*
X0563944Y0075278D02*
X0584645Y0075278D01*
X0584645Y0076277D02*
X0562945Y0076277D01*
X0561947Y0077275D02*
X0584830Y0077275D01*
X0585243Y0078274D02*
X0532248Y0078274D01*
X0529419Y0078274D02*
X0491819Y0078274D01*
X0492818Y0079272D02*
X0586010Y0079272D01*
X0587281Y0080271D02*
X0493816Y0080271D01*
X0487724Y0081269D02*
X0452478Y0081269D01*
X0452950Y0080271D02*
X0486725Y0080271D01*
X0485727Y0079272D02*
X0453340Y0079272D01*
X0453340Y0078274D02*
X0484728Y0078274D01*
X0483730Y0077275D02*
X0453315Y0077275D01*
X0452901Y0076277D02*
X0482731Y0076277D01*
X0481733Y0075278D02*
X0452359Y0075278D01*
X0451361Y0074280D02*
X0480734Y0074280D01*
X0479736Y0073281D02*
X0438133Y0073281D01*
X0438133Y0072283D02*
X0478737Y0072283D01*
X0477739Y0071284D02*
X0438133Y0071284D01*
X0438133Y0070286D02*
X0476740Y0070286D01*
X0475742Y0069287D02*
X0438133Y0069287D01*
X0438133Y0068289D02*
X0462212Y0068289D01*
X0460209Y0067290D02*
X0438133Y0067290D01*
X0438133Y0066292D02*
X0459211Y0066292D01*
X0458725Y0065293D02*
X0438133Y0065293D01*
X0438133Y0064295D02*
X0458326Y0064295D01*
X0458326Y0063296D02*
X0438133Y0063296D01*
X0438133Y0062298D02*
X0440150Y0062298D01*
X0446516Y0062298D02*
X0458343Y0062298D01*
X0458756Y0061299D02*
X0448803Y0061299D01*
X0449801Y0060301D02*
X0459285Y0060301D01*
X0467941Y0065293D02*
X0468725Y0065293D01*
X0469211Y0066292D02*
X0467456Y0066292D01*
X0466458Y0067290D02*
X0470209Y0067290D01*
X0472212Y0068289D02*
X0464454Y0068289D01*
X0474454Y0068289D02*
X0474743Y0068289D01*
X0497640Y0064295D02*
X0498326Y0064295D01*
X0498326Y0063296D02*
X0497640Y0063296D01*
X0497640Y0062298D02*
X0498343Y0062298D01*
X0498756Y0061299D02*
X0497640Y0061299D01*
X0497640Y0060301D02*
X0499285Y0060301D01*
X0500283Y0059302D02*
X0497640Y0059302D01*
X0497640Y0058304D02*
X0511986Y0058304D01*
X0510035Y0059302D02*
X0506383Y0059302D01*
X0507382Y0060301D02*
X0509109Y0060301D01*
X0508534Y0061299D02*
X0507910Y0061299D01*
X0512833Y0062298D02*
X0513833Y0062298D01*
X0513833Y0064295D02*
X0512833Y0064295D01*
X0512833Y0065293D02*
X0513833Y0065293D01*
X0513833Y0066292D02*
X0512833Y0066292D01*
X0512833Y0067290D02*
X0513833Y0067290D01*
X0513833Y0068289D02*
X0512833Y0068289D01*
X0511757Y0068289D02*
X0504454Y0068289D01*
X0506458Y0067290D02*
X0509936Y0067290D01*
X0509055Y0066292D02*
X0507456Y0066292D01*
X0507941Y0065293D02*
X0508503Y0065293D01*
X0516730Y0067290D02*
X0520209Y0067290D01*
X0519211Y0066292D02*
X0517612Y0066292D01*
X0518164Y0065293D02*
X0518725Y0065293D01*
X0526458Y0067290D02*
X0530209Y0067290D01*
X0529211Y0066292D02*
X0527456Y0066292D01*
X0527941Y0065293D02*
X0528725Y0065293D01*
X0536458Y0067290D02*
X0540209Y0067290D01*
X0539211Y0066292D02*
X0537456Y0066292D01*
X0537941Y0065293D02*
X0538725Y0065293D01*
X0546458Y0067290D02*
X0550209Y0067290D01*
X0549211Y0066292D02*
X0547456Y0066292D01*
X0547941Y0065293D02*
X0548725Y0065293D01*
X0546996Y0068289D02*
X0552212Y0068289D01*
X0544670Y0068289D02*
X0544454Y0068289D01*
X0542212Y0068289D02*
X0534454Y0068289D01*
X0532212Y0068289D02*
X0524454Y0068289D01*
X0522212Y0068289D02*
X0514910Y0068289D01*
X0502212Y0068289D02*
X0500844Y0068289D01*
X0500209Y0067290D02*
X0499846Y0067290D01*
X0499211Y0066292D02*
X0498847Y0066292D01*
X0498725Y0065293D02*
X0497849Y0065293D01*
X0445306Y0074280D02*
X0438133Y0074280D01*
X0438133Y0075278D02*
X0444307Y0075278D01*
X0443766Y0076277D02*
X0438133Y0076277D01*
X0438133Y0077275D02*
X0443352Y0077275D01*
X0443326Y0078274D02*
X0438133Y0078274D01*
X0438133Y0079272D02*
X0443326Y0079272D01*
X0443716Y0080271D02*
X0438133Y0080271D01*
X0438133Y0081269D02*
X0444188Y0081269D01*
X0445187Y0082268D02*
X0438133Y0082268D01*
X0438133Y0083266D02*
X0447100Y0083266D01*
X0445086Y0084265D02*
X0438133Y0084265D01*
X0438133Y0085263D02*
X0444136Y0085263D01*
X0443553Y0086262D02*
X0438133Y0086262D01*
X0438133Y0087260D02*
X0443238Y0087260D01*
X0451580Y0084265D02*
X0490719Y0084265D01*
X0489721Y0083266D02*
X0449566Y0083266D01*
X0451480Y0082268D02*
X0488722Y0082268D01*
X0491718Y0085263D02*
X0452530Y0085263D01*
X0453114Y0086262D02*
X0584645Y0086262D01*
X0584824Y0087260D02*
X0453428Y0087260D01*
X0533333Y0103333D02*
X0538333Y0103333D01*
X0548333Y0093333D01*
X0587152Y0093333D01*
X0589652Y0095833D01*
X0594416Y0094250D02*
X0595715Y0094250D01*
X0595048Y0093251D02*
X0594002Y0093251D01*
X0594646Y0092253D02*
X0593153Y0092253D01*
X0594659Y0095248D02*
X0596882Y0095248D01*
X0597640Y0096247D02*
X0594659Y0096247D01*
X0594487Y0097245D02*
X0596159Y0097245D01*
X0595305Y0098244D02*
X0594073Y0098244D01*
X0593324Y0099243D02*
X0594892Y0099243D01*
X0594645Y0100241D02*
X0592095Y0100241D01*
X0591646Y0101240D02*
X0594645Y0101240D01*
X0594814Y0102238D02*
X0593138Y0102238D01*
X0593996Y0103237D02*
X0595228Y0103237D01*
X0595973Y0104235D02*
X0594410Y0104235D01*
X0594659Y0105234D02*
X0597191Y0105234D01*
X0589652Y0105833D02*
X0579652Y0095833D01*
X0550833Y0095833D01*
X0533333Y0113333D01*
X0553333Y0113333D02*
X0598333Y0113333D01*
X0608333Y0103333D01*
X0608333Y0088333D01*
X0608333Y0088333D01*
X0600833Y0080833D01*
X0599652Y0080833D01*
X0604425Y0079272D02*
X0643533Y0079272D01*
X0643533Y0078274D02*
X0604012Y0078274D01*
X0603175Y0077275D02*
X0643533Y0077275D01*
X0643533Y0076277D02*
X0641501Y0076277D01*
X0643262Y0075278D02*
X0643533Y0075278D01*
X0643533Y0080271D02*
X0604659Y0080271D01*
X0604659Y0081269D02*
X0643533Y0081269D01*
X0643533Y0082268D02*
X0604823Y0082268D01*
X0605822Y0083266D02*
X0643533Y0083266D01*
X0643533Y0084265D02*
X0606820Y0084265D01*
X0607819Y0085263D02*
X0643533Y0085263D01*
X0643533Y0086262D02*
X0608817Y0086262D01*
X0609082Y0086526D02*
X0609082Y0086526D01*
X0609816Y0087260D02*
X0643533Y0087260D01*
X0643533Y0088259D02*
X0610140Y0088259D01*
X0610140Y0089257D02*
X0643533Y0089257D01*
X0643533Y0090256D02*
X0610140Y0090256D01*
X0610140Y0091254D02*
X0643533Y0091254D01*
X0643533Y0092253D02*
X0610140Y0092253D01*
X0610140Y0093251D02*
X0643533Y0093251D01*
X0643533Y0094250D02*
X0610140Y0094250D01*
X0610140Y0095248D02*
X0643533Y0095248D01*
X0643533Y0096247D02*
X0610140Y0096247D01*
X0610140Y0097245D02*
X0643533Y0097245D01*
X0643533Y0098244D02*
X0610140Y0098244D01*
X0610140Y0099243D02*
X0643533Y0099243D01*
X0643533Y0100241D02*
X0641521Y0100241D01*
X0643270Y0101240D02*
X0643533Y0101240D01*
X0639240Y0100241D02*
X0626846Y0100241D01*
X0629634Y0101240D02*
X0637491Y0101240D01*
X0636647Y0102238D02*
X0631329Y0102238D01*
X0632328Y0103237D02*
X0636233Y0103237D01*
X0636105Y0104235D02*
X0633313Y0104235D01*
X0633889Y0105234D02*
X0636105Y0105234D01*
X0636513Y0106232D02*
X0634466Y0106232D01*
X0634867Y0107231D02*
X0637168Y0107231D01*
X0638461Y0108229D02*
X0635135Y0108229D01*
X0635402Y0109228D02*
X0643533Y0109228D01*
X0643533Y0110226D02*
X0641866Y0110226D01*
X0643413Y0111225D02*
X0643533Y0111225D01*
X0638895Y0110226D02*
X0635451Y0110226D01*
X0635451Y0111225D02*
X0637348Y0111225D01*
X0636588Y0112223D02*
X0635451Y0112223D01*
X0635192Y0113222D02*
X0636174Y0113222D01*
X0636105Y0114220D02*
X0634925Y0114220D01*
X0634590Y0115219D02*
X0636159Y0115219D01*
X0636572Y0116217D02*
X0634014Y0116217D01*
X0633437Y0117216D02*
X0637311Y0117216D01*
X0638805Y0118214D02*
X0632544Y0118214D01*
X0631909Y0119213D02*
X0643533Y0119213D01*
X0643533Y0120211D02*
X0632323Y0120211D01*
X0632736Y0121210D02*
X0643533Y0121210D01*
X0643533Y0122208D02*
X0632833Y0122208D01*
X0632833Y0123207D02*
X0643533Y0123207D01*
X0643533Y0124205D02*
X0632833Y0124205D01*
X0632833Y0125204D02*
X0643533Y0125204D01*
X0643533Y0126202D02*
X0632428Y0126202D01*
X0632014Y0127201D02*
X0643533Y0127201D01*
X0643409Y0128199D02*
X0631600Y0128199D01*
X0630904Y0129198D02*
X0642960Y0129198D01*
X0642466Y0130196D02*
X0629905Y0130196D01*
X0628907Y0131195D02*
X0641611Y0131195D01*
X0640498Y0132193D02*
X0626768Y0132193D01*
X0638616Y0133192D02*
X0609688Y0133192D01*
X0606979Y0133192D02*
X0599688Y0133192D01*
X0596979Y0133192D02*
X0589688Y0133192D01*
X0586979Y0133192D02*
X0579688Y0133192D01*
X0576979Y0133192D02*
X0569688Y0133192D01*
X0566979Y0133192D02*
X0559688Y0133192D01*
X0556979Y0133192D02*
X0549688Y0133192D01*
X0526979Y0133192D02*
X0519688Y0133192D01*
X0521554Y0132193D02*
X0525112Y0132193D01*
X0524114Y0131195D02*
X0522553Y0131195D01*
X0522981Y0130196D02*
X0523685Y0130196D01*
X0515112Y0132193D02*
X0511554Y0132193D01*
X0512553Y0131195D02*
X0514114Y0131195D01*
X0513685Y0130196D02*
X0512981Y0130196D01*
X0505112Y0132193D02*
X0501554Y0132193D01*
X0502553Y0131195D02*
X0504114Y0131195D01*
X0503685Y0130196D02*
X0502981Y0130196D01*
X0499688Y0133192D02*
X0506979Y0133192D01*
X0509688Y0133192D02*
X0516979Y0133192D01*
X0557531Y0116217D02*
X0607104Y0116217D01*
X0607518Y0115219D02*
X0557972Y0115219D01*
X0557880Y0111225D02*
X0597886Y0111225D01*
X0601001Y0113222D02*
X0609246Y0113222D01*
X0608247Y0114220D02*
X0600002Y0114220D01*
X0601999Y0112223D02*
X0611431Y0112223D01*
X0613853Y0111225D02*
X0602998Y0111225D01*
X0603996Y0110226D02*
X0613853Y0110226D01*
X0613902Y0109228D02*
X0604995Y0109228D01*
X0605993Y0108229D02*
X0614170Y0108229D01*
X0614437Y0107231D02*
X0606992Y0107231D01*
X0607990Y0106232D02*
X0614839Y0106232D01*
X0615415Y0105234D02*
X0608989Y0105234D01*
X0609987Y0104235D02*
X0615992Y0104235D01*
X0616977Y0103237D02*
X0610140Y0103237D01*
X0610140Y0102238D02*
X0617975Y0102238D01*
X0619671Y0101240D02*
X0610140Y0101240D01*
X0610140Y0100241D02*
X0622458Y0100241D01*
X0642300Y0108229D02*
X0643533Y0108229D01*
X0643450Y0117216D02*
X0643533Y0117216D01*
X0643533Y0118214D02*
X0641956Y0118214D01*
X0606526Y0090256D02*
X0604826Y0090256D01*
X0604608Y0089257D02*
X0606526Y0089257D01*
X0605703Y0088259D02*
X0604177Y0088259D01*
X0604705Y0087260D02*
X0603433Y0087260D01*
X0603706Y0086262D02*
X0602134Y0086262D01*
X0602041Y0085263D02*
X0602708Y0085263D01*
X0642321Y0068289D02*
X0643533Y0068289D01*
X0488833Y0047320D02*
X0487833Y0047320D01*
X0485004Y0044324D02*
X0481405Y0044324D01*
D15*
X0545833Y0070833D03*
X0530833Y0075833D03*
D16*
X0493333Y0083333D02*
X0587152Y0083333D01*
X0589652Y0085833D01*
X0493333Y0083333D02*
X0473333Y0063333D01*
M02*
